<?xml version="1.0" standalone="no"?>
<!DOCTYPE svg PUBLIC "-//W3C//DTD SVG 1.1//EN" "http://www.w3.org/Graphics/SVG/1.1/DTD/svg11.dtd" >
<svg xmlns="http://www.w3.org/2000/svg" xmlns:xlink="http://www.w3.org/1999/xlink" version="1.1">
<metadata>
Created by FontForge 20191125 at Tue Aug 30 15:46:24 2022
 By convertio
Copyright (c) Font Awesome
</metadata>
<defs>
<font id="FontAwesome6Pro-Regular" horiz-adv-x="512" >
  <font-face 
    font-family="Font Awesome 6 Pro Regular"
    font-weight="400"
    font-stretch="normal"
    units-per-em="512"
    panose-1="2 0 5 3 0 0 0 0 0 0"
    ascent="448"
    descent="-64"
    x-height="410"
    bbox="-1.33333 -72.0476 640.4 464"
    underline-thickness="25"
    underline-position="-49"
    unicode-range="U+0022-1FAE5"
  />
<missing-glyph horiz-adv-x="384" 
d="M336 448h-288q-20 -1 -34 -14q-13 -14 -14 -34v-416q1 -20 14 -34q14 -13 34 -14h288q20 1 34 14q13 14 14 34v416q-1 20 -14 34q-14 13 -34 14v0zM336 358v-332l-115 166l115 166v0zM192 234l-115 166h230l-115 -166v0zM163 192l-115 -166v332l115 -166v0zM192 150
l115 -166h-230l115 166v0z" />
    <glyph glyph-name=".notdef" horiz-adv-x="384" 
d="M336 448h-288q-20 -1 -34 -14q-13 -14 -14 -34v-416q1 -20 14 -34q14 -13 34 -14h288q20 1 34 14q13 14 14 34v416q-1 20 -14 34q-14 13 -34 14v0zM336 358v-332l-115 166l115 166v0zM192 234l-115 166h230l-115 -166v0zM163 192l-115 -166v332l115 -166v0zM192 150
l115 -166h-230l115 166v0z" />
    <glyph glyph-name="exclamation" unicode="&#xf12a;" horiz-adv-x="128" 
d="M64 80q22 2 24 24v288q-2 22 -24 24q-22 -2 -24 -24v-288q2 -22 24 -24v0zM64 32q-14 0 -23 -9v0q-9 -9 -9 -23t9 -23t23 -9t23 9t9 23t-9 23t-23 9v0z" />
    <glyph glyph-name="exclamation" unicode="&#x2757;" horiz-adv-x="128" 
d="M64 80q22 2 24 24v288q-2 22 -24 24q-22 -2 -24 -24v-288q2 -22 24 -24v0zM64 32q-14 0 -23 -9v0q-9 -9 -9 -23t9 -23t23 -9t23 9t9 23t-9 23t-23 9v0z" />
    <glyph glyph-name="exclamation" unicode="&#x2755;" horiz-adv-x="128" 
d="M64 80q22 2 24 24v288q-2 22 -24 24q-22 -2 -24 -24v-288q2 -22 24 -24v0zM64 32q-14 0 -23 -9v0q-9 -9 -9 -23t9 -23t23 -9t23 9t9 23t-9 23t-23 9v0z" />
    <glyph glyph-name="exclamation" unicode="!" horiz-adv-x="128" 
d="M64 80q22 2 24 24v288q-2 22 -24 24q-22 -2 -24 -24v-288q2 -22 24 -24v0zM64 32q-14 0 -23 -9v0q-9 -9 -9 -23t9 -23t23 -9t23 9t9 23t-9 23t-23 9v0z" />
    <glyph glyph-name="ditto" unicode="&#x22;" horiz-adv-x="320" 
d="M64 416q-29 0 -49 -23q-19 -24 -14 -55l25 -145q3 -15 13 -24q11 -9 25 -9t25 9q10 9 13 24l25 145q5 31 -14 55q-20 23 -49 23v0zM63 256l-15 90q-1 10 4 17q8 6 12 5q4 1 12 -5q5 -7 4 -17l-17 -90v0zM305 393q-19 23 -50 23q-30 0 -49 -23q-19 -24 -14 -55l25 -145
q4 -15 14 -24q11 -9 24 -9q14 0 24 9q11 9 14 24l25 145q6 31 -13 55v0zM255 256l-16 90q-1 10 5 17q8 6 11 5q4 1 12 -5q5 -7 4 -17l-16 -90v0z" />
    <glyph glyph-name="hashtag" unicode="&#xf292;" horiz-adv-x="448" 
d="M424 312h-74l14 76q1 22 -20 28q-22 1 -28 -20l-15 -84h-111l14 76q1 22 -20 28q-22 1 -28 -20l-15 -84h-85q-22 -2 -24 -24q2 -22 24 -24h77l-26 -144h-83q-22 -2 -24 -24q2 -22 24 -24h74l-14 -76q-1 -22 20 -28h4q19 1 24 20l15 84h111l-14 -76q-2 -22 20 -28h4
q19 1 24 20l15 84h85q22 2 24 23q-2 22 -24 24h-77l26 144l83 1q22 2 24 23q-2 23 -24 25v0zM267 121h-111l25 144h112l-26 -144v0z" />
    <glyph glyph-name="hashtag" unicode="#" horiz-adv-x="448" 
d="M424 312h-74l14 76q1 22 -20 28q-22 1 -28 -20l-15 -84h-111l14 76q1 22 -20 28q-22 1 -28 -20l-15 -84h-85q-22 -2 -24 -24q2 -22 24 -24h77l-26 -144h-83q-22 -2 -24 -24q2 -22 24 -24h74l-14 -76q-1 -22 20 -28h4q19 1 24 20l15 84h111l-14 -76q-2 -22 20 -28h4
q19 1 24 20l15 84h85q22 2 24 23q-2 22 -24 24h-77l26 144l83 1q22 2 24 23q-2 23 -24 25v0zM267 121h-111l25 144h112l-26 -144v0z" />
    <glyph glyph-name="dollar-sign" unicode="&#x1f4b2;" horiz-adv-x="320" 
d="M184 375q42 -6 72 -13q20 -6 17 -29q-7 -21 -28 -18q-24 6 -55 10q-30 5 -59 3t-46 -13q-15 -9 -20 -30q-3 -17 2 -25q4 -8 17 -17q29 -16 82 -28h2q24 -6 48 -14q25 -8 45 -20q22 -12 35 -36q11 -24 6 -55q-13 -53 -64 -70q-25 -10 -54 -11v-49q-2 -22 -24 -24
q-22 2 -24 24v50q-5 0 -10 1h-1q-19 3 -46 10q-28 7 -49 16q-19 11 -12 31q11 20 32 13q17 -8 41 -14t42 -9q54 -6 87 6q31 13 35 35q3 18 -2 25q-4 8 -17 17q-30 16 -82 28h-2v0q-24 6 -48 14q-25 8 -45 19q-22 13 -35 37q-12 24 -6 55q9 43 42 62q31 18 67 20h9v48
q2 22 24 24q22 -2 24 -24v-49v0z" />
    <glyph glyph-name="dollar-sign" unicode="&#xf155;" horiz-adv-x="320" 
d="M184 375q42 -6 72 -13q20 -6 17 -29q-7 -21 -28 -18q-24 6 -55 10q-30 5 -59 3t-46 -13q-15 -9 -20 -30q-3 -17 2 -25q4 -8 17 -17q29 -16 82 -28h2q24 -6 48 -14q25 -8 45 -20q22 -12 35 -36q11 -24 6 -55q-13 -53 -64 -70q-25 -10 -54 -11v-49q-2 -22 -24 -24
q-22 2 -24 24v50q-5 0 -10 1h-1q-19 3 -46 10q-28 7 -49 16q-19 11 -12 31q11 20 32 13q17 -8 41 -14t42 -9q54 -6 87 6q31 13 35 35q3 18 -2 25q-4 8 -17 17q-30 16 -82 28h-2v0q-24 6 -48 14q-25 8 -45 19q-22 13 -35 37q-12 24 -6 55q9 43 42 62q31 18 67 20h9v48
q2 22 24 24q22 -2 24 -24v-49v0z" />
    <glyph glyph-name="dollar-sign" unicode="$" horiz-adv-x="320" 
d="M184 375q42 -6 72 -13q20 -6 17 -29q-7 -21 -28 -18q-24 6 -55 10q-30 5 -59 3t-46 -13q-15 -9 -20 -30q-3 -17 2 -25q4 -8 17 -17q29 -16 82 -28h2q24 -6 48 -14q25 -8 45 -20q22 -12 35 -36q11 -24 6 -55q-13 -53 -64 -70q-25 -10 -54 -11v-49q-2 -22 -24 -24
q-22 2 -24 24v50q-5 0 -10 1h-1q-19 3 -46 10q-28 7 -49 16q-19 11 -12 31q11 20 32 13q17 -8 41 -14t42 -9q54 -6 87 6q31 13 35 35q3 18 -2 25q-4 8 -17 17q-30 16 -82 28h-2v0q-24 6 -48 14q-25 8 -45 19q-22 13 -35 37q-12 24 -6 55q9 43 42 62q31 18 67 20h9v48
q2 22 24 24q22 -2 24 -24v-49v0z" />
    <glyph glyph-name="percent" unicode="&#xf541;" horiz-adv-x="384" 
d="M376 377q-17 14 -34 0l-336 -336q-14 -17 0 -34q9 -7 18 -7q10 0 17 7l336 336q14 17 -1 34v0zM64 272q20 1 34 14v0q13 14 14 34q-1 20 -14 34q-14 13 -34 14q-20 -1 -34 -14q-13 -14 -14 -34q1 -20 14 -34q14 -13 34 -14v0zM320 112q-20 -1 -34 -14v0q-13 -14 -14 -34
q1 -20 14 -34q14 -13 34 -14q20 1 34 14q13 14 14 34q-1 20 -14 34q-14 13 -34 14v0z" />
    <glyph glyph-name="percent" unicode="&#xf295;" horiz-adv-x="384" 
d="M376 377q-17 14 -34 0l-336 -336q-14 -17 0 -34q9 -7 18 -7q10 0 17 7l336 336q14 17 -1 34v0zM64 272q20 1 34 14v0q13 14 14 34q-1 20 -14 34q-14 13 -34 14q-20 -1 -34 -14q-13 -14 -14 -34q1 -20 14 -34q14 -13 34 -14v0zM320 112q-20 -1 -34 -14v0q-13 -14 -14 -34
q1 -20 14 -34q14 -13 34 -14q20 1 34 14q13 14 14 34q-1 20 -14 34q-14 13 -34 14v0z" />
    <glyph glyph-name="percent" unicode="%" horiz-adv-x="384" 
d="M376 377q-17 14 -34 0l-336 -336q-14 -17 0 -34q9 -7 18 -7q10 0 17 7l336 336q14 17 -1 34v0zM64 272q20 1 34 14v0q13 14 14 34q-1 20 -14 34q-14 13 -34 14q-20 -1 -34 -14q-13 -14 -14 -34q1 -20 14 -34q14 -13 34 -14v0zM320 112q-20 -1 -34 -14v0q-13 -14 -14 -34
q1 -20 14 -34q14 -13 34 -14q20 1 34 14q13 14 14 34q-1 20 -14 34q-14 13 -34 14v0z" />
    <glyph glyph-name="ampersand" unicode="&#x26;" horiz-adv-x="384" 
d="M360 -32q-10 0 -17 7l-61 62l-14 -22q-32 -46 -87 -47h-77q-44 1 -74 30q-29 30 -30 74q1 51 42 83l74 54l-37 37q-30 32 -31 77q1 39 27 66q27 26 66 27h54q39 -1 66 -27q26 -27 27 -66q-1 -47 -38 -75l-62 -45l87 -89l65 99q14 17 33 7q17 -14 7 -33l-71 -108l68 -70
q14 -17 0 -34q-8 -7 -17 -7v0zM149 174l-78 -58q-22 -16 -23 -44q1 -24 16 -40q16 -15 40 -16h77q30 1 47 25l20 32l-99 101v0zM141 368q-19 0 -32 -13v0q-13 -13 -13 -32q0 -25 18 -43l41 -42l67 49q17 13 18 36q0 19 -13 32t-33 13h-53v0z" />
    <glyph glyph-name="apostrophe" unicode="'" horiz-adv-x="192" 
d="M96 416q-41 -1 -68 -28v0q-27 -27 -28 -68q1 -41 28 -68t68 -28q27 0 48 13v-21q-1 -31 -21 -51t-51 -21h-16q-22 -2 -24 -24q2 -22 24 -24h16q51 1 85 35t35 85v104q-1 41 -28 68t-68 28v0zM96 272q-20 1 -34 14v0q-13 14 -14 34q1 20 14 34q14 13 34 14q20 -1 34 -14
q13 -14 14 -34q-1 -20 -14 -34q-14 -13 -34 -14v0z" />
    <glyph glyph-name="bracket-round" unicode="(" horiz-adv-x="192" 
d="M157 -20q-8 -12 -21 -12q-6 0 -12 3q-5 2 -35 27q-29 24 -58 73q-29 48 -31 121q2 73 31 121q29 49 58 73q30 25 35 27q20 9 33 -9q9 -20 -9 -33q-4 -1 -28 -21q-24 -21 -47 -60q-23 -40 -25 -98q2 -59 25 -98q23 -40 48 -60q24 -20 27 -21v0q18 -13 9 -33v0z" />
    <glyph glyph-name="bracket-round-right" unicode=")" horiz-adv-x="192" 
d="M44 13q3 1 27 21v0q25 20 48 60v0q23 39 25 98q-2 59 -25 98t-47 60q-24 20 -28 21q-18 13 -9 33q13 18 33 9q5 -2 35 -27q29 -24 58 -73q29 -48 31 -121q-2 -73 -31 -121q-29 -49 -58 -73q-30 -25 -35 -27q-6 -3 -12 -3q-13 0 -21 12q-9 20 9 33v0z" />
    <glyph glyph-name="asterisk" unicode="&#xf069;" horiz-adv-x="448" 
d="M417 80q-7 -12 -21 -12q-6 0 -12 3l-136 79v-158q-2 -22 -23 -24q-10 0 -17 7q-8 7 -8 17v158l-137 -79q-1 0 -3 -1q-4 -2 -9 -2q-13 0 -21 12q-9 20 9 33l137 79l-137 79q-18 13 -10 33q14 18 34 9l137 -79v158q2 22 24 24q22 -2 24 -24v-158l137 79q21 9 32 -9
q9 -20 -9 -33l-137 -79l137 -79q20 -13 9 -33v0z" />
    <glyph glyph-name="asterisk" unicode="&#x2731;" horiz-adv-x="448" 
d="M417 80q-7 -12 -21 -12q-6 0 -12 3l-136 79v-158q-2 -22 -23 -24q-10 0 -17 7q-8 7 -8 17v158l-137 -79q-1 0 -3 -1q-4 -2 -9 -2q-13 0 -21 12q-9 20 9 33l137 79l-137 79q-18 13 -10 33q14 18 34 9l137 -79v158q2 22 24 24q22 -2 24 -24v-158l137 79q21 9 32 -9
q9 -20 -9 -33l-137 -79l137 -79q20 -13 9 -33v0z" />
    <glyph glyph-name="asterisk" unicode="*" horiz-adv-x="448" 
d="M417 80q-7 -12 -21 -12q-6 0 -12 3l-136 79v-158q-2 -22 -23 -24q-10 0 -17 7q-8 7 -8 17v158l-137 -79q-1 0 -3 -1q-4 -2 -9 -2q-13 0 -21 12q-9 20 9 33l137 79l-137 79q-18 13 -10 33q14 18 34 9l137 -79v158q2 22 24 24q22 -2 24 -24v-158l137 79q21 9 32 -9
q9 -20 -9 -33l-137 -79l137 -79q20 -13 9 -33v0z" />
    <glyph glyph-name="plus" unicode="&#xf067;" horiz-adv-x="448" 
d="M432 192q-2 -22 -24 -24h-160v-160q-2 -22 -24 -24q-22 2 -24 24v160h-160q-22 2 -24 24q2 22 24 24h160v160q2 22 24 24q22 -2 24 -24v-160h160q22 -2 24 -24v0z" />
    <glyph glyph-name="plus" unicode="&#x2795;" horiz-adv-x="448" 
d="M432 192q-2 -22 -24 -24h-160v-160q-2 -22 -24 -24q-22 2 -24 24v160h-160q-22 2 -24 24q2 22 24 24h160v160q2 22 24 24q22 -2 24 -24v-160h160q22 -2 24 -24v0z" />
    <glyph glyph-name="plus" unicode="+" horiz-adv-x="448" 
d="M432 192q-2 -22 -24 -24h-160v-160q-2 -22 -24 -24q-22 2 -24 24v160h-160q-22 2 -24 24q2 22 24 24h160v160q2 22 24 24q22 -2 24 -24v-160h160q22 -2 24 -24v0z" />
    <glyph glyph-name="comma" unicode="," horiz-adv-x="192" 
d="M156 121q-7 18 -23 28v0q-16 11 -35 11q-15 0 -28 -8q-25 -14 -30 -42l-23 -132q-2 -28 24 -40q4 -1 10 -1h2q20 0 31 18l68 115q13 24 4 51v0zM110 94l-35 -61l11 69q1 6 7 9q1 1 2 1t2 1q11 -1 14 -8q2 -7 -1 -11v0z" />
    <glyph glyph-name="hyphen" unicode="-" horiz-adv-x="320" 
d="M320 192q-2 -22 -24 -24h-272q-22 2 -24 24q2 22 24 24h272q22 -2 24 -24v0z" />
    <glyph glyph-name="period" unicode="." horiz-adv-x="128" 
d="M64 96q-27 -1 -45 -19v0q-18 -18 -19 -45q1 -27 19 -45t45 -19q27 1 45 19t19 45q-1 27 -19 45t-45 19v0zM64 16q-15 1 -16 16q1 15 16 16q15 -1 16 -16q-1 -15 -16 -16v0z" />
    <glyph glyph-name="slash-forward" unicode="/" horiz-adv-x="320" 
d="M24 -64q-6 0 -12 3q-18 13 -9 33l272 464q13 18 33 9q18 -13 9 -33l-272 -464q-8 -12 -21 -12v0z" />
    <glyph glyph-name="0" unicode="0" horiz-adv-x="320" 
d="M160 368q48 -1 79 -33v0q32 -31 33 -79v-128q-1 -48 -33 -79q-31 -32 -79 -33q-48 1 -79 33q-32 31 -33 79v128q1 48 33 79q31 32 79 33v0zM160 416q-68 -2 -113 -47v0q-45 -45 -47 -113v-127q2 -68 47 -113t113 -47q68 2 113 47t47 113v127q-2 68 -47 113t-113 47v0z
" />
    <glyph glyph-name="1" unicode="1" horiz-adv-x="256" 
d="M256 -8q-2 -22 -24 -24h-208q-22 2 -24 24q2 22 24 24h80v333l-67 -41q-20 -10 -33 7q-10 20 7 33l104 64q12 7 25 1q12 -7 12 -21v-376h80q22 -2 24 -24v0z" />
    <glyph glyph-name="2" unicode="2" horiz-adv-x="320" 
d="M296 -32h-272q-16 1 -22 15q-5 16 6 27l206 186q31 29 34 67t-23 70q-27 31 -69 35q-42 3 -74 -24l-39 -35q-17 -13 -34 2q-13 18 2 34l40 35q47 40 109 36q61 -6 102 -52q38 -48 33 -105q-4 -57 -50 -98l-159 -145h210q22 -2 24 -24q-2 -22 -24 -24v0z" />
    <glyph glyph-name="3" unicode="3" horiz-adv-x="320" 
d="M188 -32h-90q-34 0 -60 19t-37 51q-5 21 15 30q22 5 31 -15q6 -17 19 -27q14 -10 32 -10h90q36 1 59 25q24 23 25 59q-1 35 -25 59q-23 23 -59 24h-100q-16 1 -22 15q-5 15 5 27l149 143h-196q-22 2 -24 24q2 22 24 24h256q16 -1 22 -15q5 -15 -5 -26l-149 -144h40
q56 -1 93 -38q38 -37 39 -93q-1 -56 -39 -93q-37 -38 -93 -39v0z" />
    <glyph glyph-name="4" unicode="4" horiz-adv-x="384" 
d="M384 120q-2 -22 -24 -24h-39l-1 -104q-2 -22 -24 -24q-22 2 -24 24v104h-248q-13 0 -21 12q-6 11 0 23l144 272q12 19 32 10q19 -12 10 -32l-125 -237h208v152q2 22 24 24q22 -2 24 -24v-152h40q22 -2 24 -24v0z" />
    <glyph glyph-name="5" unicode="5" horiz-adv-x="320" 
d="M188 -32h-82q-37 0 -65 21q-28 20 -40 54q-5 22 15 31q22 5 31 -16q6 -19 22 -30q16 -12 37 -12h82q35 1 59 25t25 59q-1 36 -25 60t-59 25h-164q-11 0 -18 8q-7 9 -6 20l32 183q5 19 24 20h208q22 -2 24 -24q-2 -22 -24 -24h-188l-23 -135h135q56 -2 93 -39
q38 -38 39 -94q-1 -56 -39 -93q-37 -38 -93 -39v0z" />
    <glyph glyph-name="6" unicode="6" horiz-adv-x="320" 
d="M0 128q2 -68 47 -113v0q45 -45 113 -47q68 2 113 47t47 113q-2 68 -47 113t-113 47q-5 0 -11 -1q-2 0 -5 -1l75 91q12 18 -4 34q-7 5 -15 5q-11 0 -18 -9q-37 -43 -64 -76q-46 -54 -71 -87q-26 -34 -37 -60q-10 -26 -10 -56v0zM272 128q-1 -48 -33 -79v0q-31 -32 -79 -33
q-48 1 -79 33q-32 31 -33 79q1 48 33 79q31 32 79 33q48 -1 79 -33q32 -32 33 -79v0z" />
    <glyph glyph-name="7" unicode="7" horiz-adv-x="320" 
d="M56 -32q-6 0 -12 3q-18 13 -9 33l219 364h-230q-22 2 -24 24q2 22 24 24h272q14 0 21 -12q6 -12 0 -24l-240 -400q-8 -12 -21 -12v0z" />
    <glyph glyph-name="8" unicode="8" horiz-adv-x="320" 
d="M260 198q42 36 44 94q-1 53 -36 88t-88 36h-40q-53 -1 -88 -36t-36 -88q2 -58 44 -94q-27 -17 -43 -44q-17 -28 -17 -62q1 -53 36 -88t88 -36h72q53 1 88 36t36 88q0 34 -17 62q-16 27 -43 44v0zM140 368h40q32 -1 54 -22q21 -22 22 -54q-1 -32 -22 -54q-22 -21 -54 -22
h-40q-32 1 -54 22q-21 22 -22 54q1 32 22 54q22 21 54 22v0zM196 16h-72q-32 1 -54 22q-21 22 -22 54q1 32 22 54q22 21 54 22h72q32 -1 54 -22q21 -22 22 -54q-1 -32 -22 -54q-22 -21 -54 -22v0z" />
    <glyph glyph-name="9" unicode="9" horiz-adv-x="320" 
d="M320 256q-2 68 -47 113v0q-45 45 -113 47q-68 -2 -113 -47t-47 -113q2 -68 47 -113t113 -47q6 0 11 1q2 0 5 1l-74 -91q-13 -18 3 -33q7 -6 15 -6q11 0 19 9q36 43 63 76q46 53 71 87q26 34 37 60q10 26 10 56v0zM48 256q1 48 33 79v0q31 32 79 33q48 -1 79 -33
q32 -31 33 -79q-1 -48 -33 -79q-31 -32 -79 -33q-48 1 -79 33q-32 31 -33 79v0z" />
    <glyph glyph-name="colon" unicode=":" horiz-adv-x="128" 
d="M64 256q27 1 45 19v0q18 18 19 45q-1 27 -19 45t-45 19q-27 -1 -45 -19t-19 -45q1 -27 19 -45t45 -19v0zM64 336q15 -1 16 -16q-1 -15 -16 -16q-15 1 -16 16q1 15 16 16v0zM64 128q-27 -1 -45 -19v0q-18 -18 -19 -45q1 -27 19 -45t45 -19q27 1 45 19t19 45q-1 27 -19 45
t-45 19v0zM64 48q-15 1 -16 16q1 15 16 16q15 -1 16 -16q-1 -15 -16 -16v0z" />
    <glyph glyph-name="semicolon" unicode=";" horiz-adv-x="192" 
d="M97 161q-15 0 -28 -8q-25 -14 -30 -42l-22 -132q-3 -28 23 -40q6 -3 12 -2h1q20 0 31 18l68 115q13 25 4 52q-7 17 -23 28t-36 11v0zM110 94l-35 -61l11 69q1 6 7 9q2 1 4 1q11 -1 14 -8q2 -5 -1 -10v0zM96 256q27 1 45 19v0q18 18 19 45q-1 27 -19 45t-45 19
q-27 -1 -45 -19q-17 -18 -18 -45q0 -27 18 -45t45 -19v0zM96 336q15 -1 16 -16q-1 -15 -16 -16q-15 1 -16 16q1 15 16 16v0z" />
    <glyph glyph-name="less-than" unicode="&#xf536;" horiz-adv-x="384" 
d="M370 330l-290 -138l290 -138q19 -12 12 -32q-7 -13 -23 -14q-5 0 -10 2l-336 160q-13 7 -14 22q1 15 14 22l336 160q22 7 33 -12q7 -20 -12 -32v0z" />
    <glyph glyph-name="less-than" unicode="&#x3c;" horiz-adv-x="384" 
d="M370 330l-290 -138l290 -138q19 -12 12 -32q-7 -13 -23 -14q-5 0 -10 2l-336 160q-13 7 -14 22q1 15 14 22l336 160q22 7 33 -12q7 -20 -12 -32v0z" />
    <glyph glyph-name="equals" unicode="&#xf52c;" horiz-adv-x="448" 
d="M408 120h-368q-22 -2 -24 -24q2 -22 24 -24h368q22 2 24 24q-2 22 -24 24v0zM40 264h368q22 2 24 24q-2 22 -24 24h-368q-22 -2 -24 -24q2 -22 24 -24v0z" />
    <glyph glyph-name="equals" unicode="=" horiz-adv-x="448" 
d="M408 120h-368q-22 -2 -24 -24q2 -22 24 -24h368q22 2 24 24q-2 22 -24 24v0zM40 264h368q22 2 24 24q-2 22 -24 24h-368q-22 -2 -24 -24q2 -22 24 -24v0z" />
    <glyph glyph-name="greater-than" unicode="&#xf531;" horiz-adv-x="384" 
d="M384 192q-1 -15 -14 -22l-336 -160q-5 -2 -10 -2q-14 0 -22 14q-7 20 12 32l290 138l-290 138q-19 12 -12 32q12 19 32 12l336 -160q13 -7 14 -22v0z" />
    <glyph glyph-name="greater-than" unicode="&#x3e;" horiz-adv-x="384" 
d="M384 192q-1 -15 -14 -22l-336 -160q-5 -2 -10 -2q-14 0 -22 14q-7 20 12 32l290 138l-290 138q-19 12 -12 32q12 19 32 12l336 -160q13 -7 14 -22v0z" />
    <glyph glyph-name="question" unicode="&#xf128;" horiz-adv-x="320" 
d="M144 32q-14 0 -23 -9v0q-9 -9 -9 -23t9 -23t23 -9t23 9t9 23t-9 23t-23 9v0zM211 416h-107q-44 -1 -74 -30q-29 -30 -30 -74v-16q2 -22 24 -24q22 2 24 24v16q1 24 16 40q16 15 40 16h107q26 -1 43 -18t18 -43q-1 -36 -32 -54l-73 -38q-46 -26 -47 -78v-17q2 -22 24 -24
q22 2 24 24v17q1 24 21 36l73 38q27 15 42 40q16 25 16 56q-1 46 -32 77t-77 32v0z" />
    <glyph glyph-name="question" unicode="&#x2754;" horiz-adv-x="320" 
d="M144 32q-14 0 -23 -9v0q-9 -9 -9 -23t9 -23t23 -9t23 9t9 23t-9 23t-23 9v0zM211 416h-107q-44 -1 -74 -30q-29 -30 -30 -74v-16q2 -22 24 -24q22 2 24 24v16q1 24 16 40q16 15 40 16h107q26 -1 43 -18t18 -43q-1 -36 -32 -54l-73 -38q-46 -26 -47 -78v-17q2 -22 24 -24
q22 2 24 24v17q1 24 21 36l73 38q27 15 42 40q16 25 16 56q-1 46 -32 77t-77 32v0z" />
    <glyph glyph-name="question" unicode="&#x2753;" horiz-adv-x="320" 
d="M144 32q-14 0 -23 -9v0q-9 -9 -9 -23t9 -23t23 -9t23 9t9 23t-9 23t-23 9v0zM211 416h-107q-44 -1 -74 -30q-29 -30 -30 -74v-16q2 -22 24 -24q22 2 24 24v16q1 24 16 40q16 15 40 16h107q26 -1 43 -18t18 -43q-1 -36 -32 -54l-73 -38q-46 -26 -47 -78v-17q2 -22 24 -24
q22 2 24 24v17q1 24 21 36l73 38q27 15 42 40q16 25 16 56q-1 46 -32 77t-77 32v0z" />
    <glyph glyph-name="question" unicode="?" horiz-adv-x="320" 
d="M144 32q-14 0 -23 -9v0q-9 -9 -9 -23t9 -23t23 -9t23 9t9 23t-9 23t-23 9v0zM211 416h-107q-44 -1 -74 -30q-29 -30 -30 -74v-16q2 -22 24 -24q22 2 24 24v16q1 24 16 40q16 15 40 16h107q26 -1 43 -18t18 -43q-1 -36 -32 -54l-73 -38q-46 -26 -47 -78v-17q2 -22 24 -24
q22 2 24 24v17q1 24 21 36l73 38q27 15 42 40q16 25 16 56q-1 46 -32 77t-77 32v0z" />
    <glyph glyph-name="at" unicode="&#xf1fa;" 
d="M263 432q-100 2 -174 -68q-72 -71 -73 -173q2 -91 59 -157q56 -66 146 -82h3q19 1 24 20q1 22 -20 28q-72 12 -117 65q-46 53 -47 126q1 81 59 139q58 56 139 54q79 -5 131 -62q53 -57 55 -140v-19q0 -19 -13 -32q-12 -12 -31 -13q-19 1 -31 13q-13 13 -13 32v116
q-2 22 -24 23q-19 -1 -23 -20q-28 22 -65 22q-48 -1 -79 -33q-32 -31 -33 -78q1 -47 33 -78q31 -32 79 -33q47 1 79 32q26 -40 77 -42q39 1 65 27t27 65v18q-1 68 -32 123q-31 56 -83 90q-53 35 -118 37v0zM248 128q-27 1 -45 19v0q-18 18 -19 44q1 27 19 45t45 18
q27 -1 45 -18q18 -18 19 -45q-1 -26 -19 -44t-45 -19v0z" />
    <glyph glyph-name="at" unicode="@" 
d="M263 432q-100 2 -174 -68q-72 -71 -73 -173q2 -91 59 -157q56 -66 146 -82h3q19 1 24 20q1 22 -20 28q-72 12 -117 65q-46 53 -47 126q1 81 59 139q58 56 139 54q79 -5 131 -62q53 -57 55 -140v-19q0 -19 -13 -32q-12 -12 -31 -13q-19 1 -31 13q-13 13 -13 32v116
q-2 22 -24 23q-19 -1 -23 -20q-28 22 -65 22q-48 -1 -79 -33q-32 -31 -33 -78q1 -47 33 -78q31 -32 79 -33q47 1 79 32q26 -40 77 -42q39 1 65 27t27 65v18q-1 68 -32 123q-31 56 -83 90q-53 35 -118 37v0zM248 128q-27 1 -45 19v0q-18 18 -19 44q1 27 19 45t45 18
q27 -1 45 -18q18 -18 19 -45q-1 -26 -19 -44t-45 -19v0z" />
    <glyph glyph-name="a" unicode="a" horiz-adv-x="384" 
d="M382 1l-168 400q-7 14 -22 14t-22 -14l-168 -400q-7 -21 13 -31q21 -7 31 13l34 80h224l34 -80q7 -15 22 -15q5 0 9 2q20 10 13 31v0zM100 111l92 220l92 -219h-184v-1z" />
    <glyph glyph-name="a" unicode="A" horiz-adv-x="384" 
d="M382 1l-168 400q-7 14 -22 14t-22 -14l-168 -400q-7 -21 13 -31q21 -7 31 13l34 80h224l34 -80q7 -15 22 -15q5 0 9 2q20 10 13 31v0zM100 111l92 220l92 -219h-184v-1z" />
    <glyph glyph-name="b" unicode="b" horiz-adv-x="320" 
d="M250 203q37 35 38 89q-1 53 -36 88t-88 36h-140q-22 -2 -24 -24v-400q2 -22 24 -24h172q53 1 88 36t36 88q-1 37 -19 66q-19 29 -51 45v0zM48 368h116q32 -1 54 -22q21 -22 22 -54q-1 -32 -22 -54q-22 -21 -54 -22h-116v152v0zM196 16h-148v152h148q32 -1 54 -22
q21 -22 22 -54q-1 -32 -22 -54q-22 -21 -54 -22v0z" />
    <glyph glyph-name="b" unicode="B" horiz-adv-x="320" 
d="M250 203q37 35 38 89q-1 53 -36 88t-88 36h-140q-22 -2 -24 -24v-400q2 -22 24 -24h172q53 1 88 36t36 88q-1 37 -19 66q-19 29 -51 45v0zM48 368h116q32 -1 54 -22q21 -22 22 -54q-1 -32 -22 -54q-22 -21 -54 -22h-116v152v0zM196 16h-148v152h148q32 -1 54 -22
q21 -22 22 -54q-1 -32 -22 -54q-22 -21 -54 -22v0z" />
    <glyph glyph-name="c" unicode="c" horiz-adv-x="384" 
d="M221 -32q-70 1 -119 34v0q-49 33 -75 84v0q-27 50 -27 105t27 106q26 51 75 85q50 33 119 34v0v0q48 -1 84 -17q37 -16 58 -35q21 -20 21 -31q0 -7 -6 -15q-5 -8 -18 -9q-12 2 -27 16t-41 28q-27 14 -71 15q-82 -3 -127 -56t-46 -120q1 -66 46 -119q45 -54 127 -57
q44 1 71 15q26 14 41 28t27 16q8 0 15 -6q8 -6 9 -18q0 -11 -21 -31q-21 -19 -57 -35q-37 -16 -85 -17v0z" />
    <glyph glyph-name="c" unicode="C" horiz-adv-x="384" 
d="M221 -32q-70 1 -119 34v0q-49 33 -75 84v0q-27 50 -27 105t27 106q26 51 75 85q50 33 119 34v0v0q48 -1 84 -17q37 -16 58 -35q21 -20 21 -31q0 -7 -6 -15q-5 -8 -18 -9q-12 2 -27 16t-41 28q-27 14 -71 15q-82 -3 -127 -56t-46 -120q1 -66 46 -119q45 -54 127 -57
q44 1 71 15q26 14 41 28t27 16q8 0 15 -6q8 -6 9 -18q0 -11 -21 -31q-21 -19 -57 -35q-37 -16 -85 -17v0z" />
    <glyph glyph-name="d" unicode="d" horiz-adv-x="384" 
d="M155 -32h-131q-22 2 -24 24v400q2 22 24 24h131q64 -1 115 -31q52 -30 83 -80q30 -51 31 -113q-1 -62 -31 -113q-31 -50 -83 -80q-51 -30 -115 -31v0zM48 16h107q77 2 128 52q51 49 53 124q-2 75 -53 124q-51 50 -128 52h-107v-352v0z" />
    <glyph glyph-name="d" unicode="D" horiz-adv-x="384" 
d="M155 -32h-131q-22 2 -24 24v400q2 22 24 24h131q64 -1 115 -31q52 -30 83 -80q30 -51 31 -113q-1 -62 -31 -113q-31 -50 -83 -80q-51 -30 -115 -31v0zM48 16h107q77 2 128 52q51 49 53 124q-2 75 -53 124q-51 50 -128 52h-107v-352v0z" />
    <glyph glyph-name="e" unicode="e" horiz-adv-x="320" 
d="M320 -8q-2 -22 -24 -24h-272q-22 2 -24 24v400q2 22 24 24h272q22 -2 24 -24q-2 -22 -24 -24h-248v-152h184q22 -2 24 -24q-2 -22 -24 -24h-184v-152h248q22 -2 24 -24v0z" />
    <glyph glyph-name="e" unicode="E" horiz-adv-x="320" 
d="M320 -8q-2 -22 -24 -24h-272q-22 2 -24 24v400q2 22 24 24h272q22 -2 24 -24q-2 -22 -24 -24h-248v-152h184q22 -2 24 -24q-2 -22 -24 -24h-184v-152h248q22 -2 24 -24v0z" />
    <glyph glyph-name="f" unicode="f" horiz-adv-x="320" 
d="M320 392q-2 -22 -24 -24h-248v-152h184q22 -2 24 -24q-2 -22 -24 -24h-184v-176q-2 -22 -24 -24q-22 2 -24 24v400q2 22 24 24h272q22 -2 24 -24v0z" />
    <glyph glyph-name="f" unicode="F" horiz-adv-x="320" 
d="M320 392q-2 -22 -24 -24h-248v-152h184q22 -2 24 -24q-2 -22 -24 -24h-184v-176q-2 -22 -24 -24q-22 2 -24 24v400q2 22 24 24h272q22 -2 24 -24v0z" />
    <glyph glyph-name="g" unicode="g" horiz-adv-x="448" 
d="M222 -32q-66 1 -116 32v0q-50 31 -78 82v0q-28 50 -28 109q1 63 31 114q29 50 80 80q50 30 112 31q49 -1 86 -17t58 -35q21 -20 22 -31q-1 -14 -10 -19t-15 -5q-11 1 -27 16q-15 14 -42 28q-26 14 -72 15q-74 -2 -124 -51q-49 -50 -51 -126q-1 -21 13 -62t52 -76t110 -37
q28 -1 66 13t70 47q31 33 39 91h-150q-22 2 -24 24q2 22 23 24h175q22 -2 23 -24q0 -71 -33 -121q-33 -49 -84 -75t-106 -27v0z" />
    <glyph glyph-name="g" unicode="G" horiz-adv-x="448" 
d="M222 -32q-66 1 -116 32v0q-50 31 -78 82v0q-28 50 -28 109q1 63 31 114q29 50 80 80q50 30 112 31q49 -1 86 -17t58 -35q21 -20 22 -31q-1 -14 -10 -19t-15 -5q-11 1 -27 16q-15 14 -42 28q-26 14 -72 15q-74 -2 -124 -51q-49 -50 -51 -126q-1 -21 13 -62t52 -76t110 -37
q28 -1 66 13t70 47q31 33 39 91h-150q-22 2 -24 24q2 22 23 24h175q22 -2 23 -24q0 -71 -33 -121q-33 -49 -84 -75t-106 -27v0z" />
    <glyph glyph-name="h" unicode="h" horiz-adv-x="384" 
d="M384 392v-400q-2 -22 -24 -24q-22 2 -24 24v200h-288v-200q-2 -22 -24 -24q-22 2 -24 24v400q2 22 24 24q22 -2 24 -24v-152h288v152q2 22 24 24q22 -2 24 -24v0z" />
    <glyph glyph-name="h" unicode="H" horiz-adv-x="384" 
d="M384 392v-400q-2 -22 -24 -24q-22 2 -24 24v200h-288v-200q-2 -22 -24 -24q-22 2 -24 24v400q2 22 24 24q22 -2 24 -24v-152h288v152q2 22 24 24q22 -2 24 -24v0z" />
    <glyph glyph-name="i" unicode="i" horiz-adv-x="320" 
d="M320 -8q-2 -22 -24 -24h-272q-22 2 -24 24q2 22 24 24h112v352h-112q-22 2 -24 24q2 22 24 24h272q22 -2 24 -24q-2 -22 -24 -24h-112v-352h112q22 -2 24 -24v0z" />
    <glyph glyph-name="i" unicode="I" horiz-adv-x="320" 
d="M320 -8q-2 -22 -24 -24h-272q-22 2 -24 24q2 22 24 24h112v352h-112q-22 2 -24 24q2 22 24 24h272q22 -2 24 -24q-2 -22 -24 -24h-112v-352h112q22 -2 24 -24v0z" />
    <glyph glyph-name="j" unicode="j" horiz-adv-x="320" 
d="M160 -32q-68 2 -113 45v0q-45 44 -47 109v46q2 22 24 24q22 -2 24 -24v-46q1 -45 33 -75q31 -30 79 -31q48 1 79 31q32 30 33 75v270q2 22 24 24q22 -2 24 -24v-270q-2 -65 -47 -109q-45 -43 -113 -45v0z" />
    <glyph glyph-name="j" unicode="J" horiz-adv-x="320" 
d="M160 -32q-68 2 -113 45v0q-45 44 -47 109v46q2 22 24 24q22 -2 24 -24v-46q1 -45 33 -75q31 -30 79 -31q48 1 79 31q32 30 33 75v270q2 22 24 24q22 -2 24 -24v-270q-2 -65 -47 -109q-45 -43 -113 -45v0z" />
    <glyph glyph-name="k" unicode="k" horiz-adv-x="320" 
d="M316 6q11 -19 -6 -34q-7 -4 -14 -4q-12 0 -20 10l-148 212l-80 -81v-117q-2 -22 -24 -24q-22 2 -24 24v400q2 22 24 24q22 -2 24 -24v-215l231 232q17 14 34 0q14 -17 0 -34l-151 -152v0l1 -1l153 -216v0z" />
    <glyph glyph-name="k" unicode="K" horiz-adv-x="320" 
d="M316 6q11 -19 -6 -34q-7 -4 -14 -4q-12 0 -20 10l-148 212l-80 -81v-117q-2 -22 -24 -24q-22 2 -24 24v400q2 22 24 24q22 -2 24 -24v-215l231 232q17 14 34 0q14 -17 0 -34l-151 -152v0l1 -1l153 -216v0z" />
    <glyph glyph-name="l" unicode="l" horiz-adv-x="320" 
d="M296 -32h-240q-22 2 -24 24v400q2 22 24 24q22 -2 24 -24v-376h216q22 -2 24 -24q-2 -22 -24 -24v0z" />
    <glyph glyph-name="l" unicode="L" horiz-adv-x="320" 
d="M296 -32h-240q-22 2 -24 24v400q2 22 24 24q22 -2 24 -24v-376h216q22 -2 24 -24q-2 -22 -24 -24v0z" />
    <glyph glyph-name="m" unicode="m" horiz-adv-x="448" 
d="M424 -32q-22 2 -24 24v320l-156 -237q-7 -10 -20 -10t-20 10l-156 237v-320q-2 -22 -24 -24q-22 2 -24 24v400q1 17 17 23q17 4 27 -10l180 -273l180 273q10 14 27 10q16 -6 17 -23v-400q-2 -22 -24 -24v0z" />
    <glyph glyph-name="m" unicode="M" horiz-adv-x="448" 
d="M424 -32q-22 2 -24 24v320l-156 -237q-7 -10 -20 -10t-20 10l-156 237v-320q-2 -22 -24 -24q-22 2 -24 24v400q1 17 17 23q17 4 27 -10l180 -273l180 273q10 14 27 10q16 -6 17 -23v-400q-2 -22 -24 -24v0z" />
    <glyph glyph-name="n" unicode="n" horiz-adv-x="384" 
d="M360 -32q-11 0 -18 9l-294 349v-334q-2 -22 -24 -24q-22 2 -24 24v400q1 16 16 23q15 4 26 -8l294 -349v334q2 22 24 24q22 -2 24 -24v-400q-1 -16 -16 -23q-4 -1 -8 -1v0z" />
    <glyph glyph-name="n" unicode="N" horiz-adv-x="384" 
d="M360 -32q-11 0 -18 9l-294 349v-334q-2 -22 -24 -24q-22 2 -24 24v400q1 16 16 23q15 4 26 -8l294 -349v334q2 22 24 24q22 -2 24 -24v-400q-1 -16 -16 -23q-4 -1 -8 -1v0z" />
    <glyph glyph-name="o" unicode="o" horiz-adv-x="448" 
d="M224 -32q-62 1 -113 31v0q-50 30 -80 80v0q-30 51 -31 113q1 62 31 113q30 50 80 80q51 30 113 31q62 -1 113 -31q50 -30 80 -80q30 -51 31 -113q-1 -62 -31 -113q-30 -50 -80 -80q-51 -30 -113 -31v0zM224 368q-75 -2 -125 -51v0q-49 -50 -51 -125q2 -75 52 -125
q49 -49 124 -51q75 2 124 52q50 49 52 124q-2 75 -52 124q-49 50 -124 52v0z" />
    <glyph glyph-name="o" unicode="O" horiz-adv-x="448" 
d="M224 -32q-62 1 -113 31v0q-50 30 -80 80v0q-30 51 -31 113q1 62 31 113q30 50 80 80q51 30 113 31q62 -1 113 -31q50 -30 80 -80q30 -51 31 -113q-1 -62 -31 -113q-30 -50 -80 -80q-51 -30 -113 -31v0zM224 368q-75 -2 -125 -51v0q-49 -50 -51 -125q2 -75 52 -125
q49 -49 124 -51q75 2 124 52q50 49 52 124q-2 75 -52 124q-49 50 -124 52v0z" />
    <glyph glyph-name="p" unicode="p" horiz-adv-x="320" 
d="M24 -32q-22 2 -24 24v400q2 22 24 24h144q64 -2 107 -45t45 -107q-2 -64 -45 -107q-42 -43 -107 -45h-120v-120q-2 -22 -24 -24v0zM48 160h120q44 1 74 30q29 30 30 74q-1 44 -31 74q-29 29 -73 30h-120v-208v0z" />
    <glyph glyph-name="p" unicode="P" horiz-adv-x="320" 
d="M24 -32q-22 2 -24 24v400q2 22 24 24h144q64 -2 107 -45t45 -107q-2 -64 -45 -107q-42 -43 -107 -45h-120v-120q-2 -22 -24 -24v0zM48 160h120q44 1 74 30q29 30 30 74q-1 44 -31 74q-29 29 -73 30h-120v-208v0z" />
    <glyph glyph-name="q" unicode="q" horiz-adv-x="448" 
d="M388 40q58 62 60 152q-1 62 -31 113q-29 50 -80 80q-50 30 -112 31q-62 -1 -113 -31t-81 -80q-30 -51 -31 -113q1 -62 31 -113q29 -50 80 -80q50 -30 112 -31q72 1 128 40l54 -63q9 -9 19 -9q12 1 18 8q6 8 6 16t-6 15l-54 65v0zM224 16q-75 2 -124 52v0q-50 49 -52 124
q2 75 51 124q50 50 125 52q75 -2 125 -52q49 -49 51 -124q-1 -68 -43 -115l-91 106q-7 9 -18 9q-12 -1 -18 -8q-5 -8 -5 -16t6 -15l90 -108q-43 -28 -97 -29v0z" />
    <glyph glyph-name="q" unicode="Q" horiz-adv-x="448" 
d="M388 40q58 62 60 152q-1 62 -31 113q-29 50 -80 80q-50 30 -112 31q-62 -1 -113 -31t-81 -80q-30 -51 -31 -113q1 -62 31 -113q29 -50 80 -80q50 -30 112 -31q72 1 128 40l54 -63q9 -9 19 -9q12 1 18 8q6 8 6 16t-6 15l-54 65v0zM224 16q-75 2 -124 52v0q-50 49 -52 124
q2 75 51 124q50 50 125 52q75 -2 125 -52q49 -49 51 -124q-1 -68 -43 -115l-91 106q-7 9 -18 9q-12 -1 -18 -8q-5 -8 -5 -16t6 -15l90 -108q-43 -28 -97 -29v0z" />
    <glyph glyph-name="r" unicode="r" horiz-adv-x="320" 
d="M203 161q50 5 83 40v0q33 36 34 87q-2 54 -38 90q-36 37 -90 38h-168q-22 -2 -24 -24v-400q2 -22 24 -24q22 2 24 24v168h96l133 -182q7 -10 19 -10q8 0 14 5q17 14 5 33l-112 155v0zM48 368h144q34 -1 57 -23q22 -23 23 -57q-1 -34 -23 -57q-23 -22 -57 -23h-144v160v0z
" />
    <glyph glyph-name="r" unicode="R" horiz-adv-x="320" 
d="M203 161q50 5 83 40v0q33 36 34 87q-2 54 -38 90q-36 37 -90 38h-168q-22 -2 -24 -24v-400q2 -22 24 -24q22 2 24 24v168h96l133 -182q7 -10 19 -10q8 0 14 5q17 14 5 33l-112 155v0zM48 368h144q34 -1 57 -23q22 -23 23 -57q-1 -34 -23 -57q-23 -22 -57 -23h-144v160v0z
" />
    <glyph glyph-name="s" unicode="s" horiz-adv-x="384" 
d="M350 65q-10 -53 -54 -78q-39 -20 -85 -19q-52 1 -97 14q-46 13 -67 22q-20 10 -13 31q10 20 31 13q66 -26 121 -31t86 12q25 14 31 45q7 38 -22 58q-29 19 -96 37q-38 10 -76 25q-38 16 -60 45q-23 29 -15 79q9 47 49 74q70 44 211 7q22 -7 18 -29q-7 -21 -29 -17
q-75 18 -116 15q-41 -4 -58 -17q-27 -20 -28 -41q-7 -39 22 -58q29 -20 95 -37q39 -10 77 -26q38 -15 60 -44q23 -29 15 -80v0z" />
    <glyph glyph-name="s" unicode="S" horiz-adv-x="384" 
d="M350 65q-10 -53 -54 -78q-39 -20 -85 -19q-52 1 -97 14q-46 13 -67 22q-20 10 -13 31q10 20 31 13q66 -26 121 -31t86 12q25 14 31 45q7 38 -22 58q-29 19 -96 37q-38 10 -76 25q-38 16 -60 45q-23 29 -15 79q9 47 49 74q70 44 211 7q22 -7 18 -29q-7 -21 -29 -17
q-75 18 -116 15q-41 -4 -58 -17q-27 -20 -28 -41q-7 -39 22 -58q29 -20 95 -37q39 -10 77 -26q38 -15 60 -44q23 -29 15 -80v0z" />
    <glyph glyph-name="t" unicode="t" horiz-adv-x="384" 
d="M384 392q-2 -22 -24 -24h-144v-376q-2 -22 -24 -24q-22 2 -24 24v376h-144q-22 2 -24 24q2 22 24 24h336q22 -2 24 -24v0z" />
    <glyph glyph-name="t" unicode="T" horiz-adv-x="384" 
d="M384 392q-2 -22 -24 -24h-144v-376q-2 -22 -24 -24q-22 2 -24 24v376h-144q-22 2 -24 24q2 22 24 24h336q22 -2 24 -24v0z" />
    <glyph glyph-name="u" unicode="u" horiz-adv-x="384" 
d="M192 -32q-81 2 -136 55v0q-54 54 -56 134v235q2 22 24 24q22 -2 24 -24v-235q2 -60 42 -100q41 -39 102 -41q61 2 102 41q40 40 42 100v235q2 22 24 24q22 -2 24 -24v-235q-2 -80 -56 -134q-55 -53 -136 -55v0z" />
    <glyph glyph-name="u" unicode="U" horiz-adv-x="384" 
d="M192 -32q-81 2 -136 55v0q-54 54 -56 134v235q2 22 24 24q22 -2 24 -24v-235q2 -60 42 -100q41 -39 102 -41q61 2 102 41q40 40 42 100v235q2 22 24 24q22 -2 24 -24v-235q-2 -80 -56 -134q-55 -53 -136 -55v0z" />
    <glyph glyph-name="v" unicode="v" horiz-adv-x="384" 
d="M192 -32q-16 1 -22 15l-168 400q-7 21 13 31q21 7 31 -13l146 -347l146 347q10 20 31 13q20 -10 13 -31l-168 -400q-6 -14 -22 -15v0z" />
    <glyph glyph-name="v" unicode="V" horiz-adv-x="384" 
d="M192 -32q-16 1 -22 15l-168 400q-7 21 13 31q21 7 31 -13l146 -347l146 347q10 20 31 13q20 -10 13 -31l-168 -400q-6 -14 -22 -15v0z" />
    <glyph glyph-name="w" unicode="w" horiz-adv-x="576" 
d="M408 -32h-1q-16 1 -22 17l-97 323l-98 -323q-6 -16 -22 -17q-17 1 -23 16l-144 400q-6 21 14 31q22 5 32 -15l119 -331l99 330q6 16 23 17q17 -1 23 -17l99 -330l119 331q10 20 31 15q20 -10 15 -31l-144 -400q-7 -15 -23 -16v0z" />
    <glyph glyph-name="w" unicode="W" horiz-adv-x="576" 
d="M408 -32h-1q-16 1 -22 17l-97 323l-98 -323q-6 -16 -22 -17q-17 1 -23 16l-144 400q-6 21 14 31q22 5 32 -15l119 -331l99 330q6 16 23 17q17 -1 23 -17l99 -330l119 331q10 20 31 15q20 -10 15 -31l-144 -400q-7 -15 -23 -16v0z" />
    <glyph glyph-name="x" unicode="x" horiz-adv-x="384" 
d="M378 7q13 -18 -3 -33q-7 -6 -15 -6q-11 0 -18 9l-150 178l-150 -178q-7 -9 -18 -9q-8 0 -15 6q-16 15 -3 33l155 185l-155 185q-13 18 3 33q18 13 33 -3l150 -178l150 178q15 16 33 3q16 -15 3 -33l-155 -185l155 -185v0z" />
    <glyph glyph-name="x" unicode="X" horiz-adv-x="384" 
d="M378 7q13 -18 -3 -33q-7 -6 -15 -6q-11 0 -18 9l-150 178l-150 -178q-7 -9 -18 -9q-8 0 -15 6q-16 15 -3 33l155 185l-155 185q-13 18 3 33q18 13 33 -3l150 -178l150 178q15 16 33 3q16 -15 3 -33l-155 -185l155 -185v0z" />
    <glyph glyph-name="y" unicode="y" horiz-adv-x="384" 
d="M379 378l-163 -226v-160q-2 -22 -24 -24q-22 2 -24 24v160l-163 226q-12 19 5 33q19 12 33 -5l149 -205l149 205q14 17 33 5q17 -14 5 -33v0z" />
    <glyph glyph-name="y" unicode="Y" horiz-adv-x="384" 
d="M379 378l-163 -226v-160q-2 -22 -24 -24q-22 2 -24 24v160l-163 226q-12 19 5 33q19 12 33 -5l149 -205l149 205q14 17 33 5q17 -14 5 -33v0z" />
    <glyph glyph-name="z" unicode="z" horiz-adv-x="384" 
d="M360 -32h-336q-15 1 -22 14q-6 14 4 25l303 361h-285q-22 2 -24 24q2 22 24 24h336q15 -1 22 -14q6 -14 -4 -25l-302 -361h284q22 -2 24 -24q-2 -22 -24 -24v0z" />
    <glyph glyph-name="z" unicode="Z" horiz-adv-x="384" 
d="M360 -32h-336q-15 1 -22 14q-6 14 4 25l303 361h-285q-22 2 -24 24q2 22 24 24h336q15 -1 22 -14q6 -14 -4 -25l-302 -361h284q22 -2 24 -24q-2 -22 -24 -24v0z" />
    <glyph glyph-name="bracket-square" unicode="[" horiz-adv-x="192" 
d="M120 416h-88q-14 0 -23 -9t-9 -23v-384q0 -14 9 -23t23 -9h88q22 2 24 23q0 10 -7 17q-7 8 -17 8h-72v352h72q22 2 24 24q-2 22 -24 24v0z" />
    <glyph glyph-name="slash-back" unicode="\" horiz-adv-x="320" 
d="M296 -64q-13 0 -21 12l-272 464q-9 20 9 33q20 9 33 -9l272 -464q9 -20 -9 -33q-6 -3 -12 -3v0z" />
    <glyph glyph-name="bracket-square-right" unicode="]" horiz-adv-x="192" 
d="M48 393q2 -23 23 -25h73v-352h-73q-21 -2 -23 -23q0 -10 7 -17q7 -8 17 -8h88q14 0 23 9t9 23v384q0 14 -9 23t-23 9h-88q-22 -2 -24 -23v0z" />
    <glyph glyph-name="accent-grave" unicode="`" horiz-adv-x="192" 
d="M40 357l68 -115q11 -18 32 -18q6 0 12 2q26 12 23 40l-22 132q-5 28 -30 42q-13 8 -28 8q-20 0 -36 -11q-16 -10 -22 -28q-11 -27 3 -52v0zM81 392q3 7 14 8q2 0 4 -1q6 -3 7 -9l11 -69l-35 61q-3 5 -1 10v0z" />
    <glyph glyph-name="bracket-curly" unicode="{" horiz-adv-x="256" 
d="M200 416h-80q-24 -1 -40 -16q-15 -16 -16 -40v-78q0 -16 -12 -28l-45 -45q-7 -7 -7 -17t7 -17l45 -45q12 -12 12 -29v-77q1 -24 16 -40q16 -15 40 -16h80q22 2 24 24q-2 22 -24 24h-80q-7 1 -8 8v77q-1 37 -26 63l-28 28l28 28q26 26 26 62v78q1 7 8 8h80q22 2 24 24
q-2 22 -24 24v0z" />
    <glyph glyph-name="pipe" unicode="|" horiz-adv-x="64" 
d="M32 -64q-22 2 -24 24v464q2 22 24 24q22 -2 24 -24v-464q-2 -22 -24 -24v0z" />
    <glyph glyph-name="bracket-curly-right" unicode="}" horiz-adv-x="256" 
d="M32 393q2 -23 23 -25h81q7 -1 8 -8v-78q1 -36 26 -62l28 -28l-28 -28q-26 -26 -26 -63v-77q-1 -7 -8 -8h-81q-21 -2 -23 -23q0 -10 7 -17q7 -8 16 -8h81q24 1 40 16q15 16 16 40v77q0 17 12 29l45 45q7 7 7 17t-7 17l-45 45q-12 12 -12 28v78q-1 24 -16 40q-16 15 -40 16
h-81q-21 -2 -23 -23v0z" />
    <glyph glyph-name="tilde" unicode="&#xf69f;" horiz-adv-x="448" 
d="M448 264v-89q-1 -47 -33 -78q-31 -32 -78 -33q-29 0 -54 14t-41 39l-77 125q-19 29 -54 30q-27 -1 -44 -19q-18 -17 -19 -44v-89q-2 -22 -24 -24q-22 2 -24 24v89q1 47 33 78q31 32 78 33q29 0 55 -14q25 -14 40 -39l77 -125q19 -29 54 -30q27 1 44 19q18 17 19 44v89
q2 22 24 24q22 -2 24 -24v0z" />
    <glyph glyph-name="tilde" unicode="~" horiz-adv-x="448" 
d="M448 264v-89q-1 -47 -33 -78q-31 -32 -78 -33q-29 0 -54 14t-41 39l-77 125q-19 29 -54 30q-27 -1 -44 -19q-18 -17 -19 -44v-89q-2 -22 -24 -24q-22 2 -24 24v89q1 47 33 78q31 32 78 33q29 0 55 -14q25 -14 40 -39l77 -125q19 -29 54 -30q27 1 44 19q18 17 19 44v89
q2 22 24 24q22 -2 24 -24v0z" />
    <glyph glyph-name="caravan-simple" unicode="&#xe000;" horiz-adv-x="640" 
d="M96 288q0 14 9 23v0q9 9 23 9h128q14 0 23 -9t9 -23v-64q0 -14 -9 -23t-23 -9h-128q-14 0 -23 9t-9 23v64v0zM416 320q14 0 23 -9v0q9 -9 9 -23v-64q0 -14 -9 -23t-23 -9h-64q-14 0 -23 9t-9 23v64q0 14 9 23t23 9h64v0zM96 32h-16q-34 1 -57 23q-22 23 -23 57v224
q1 34 23 57q23 22 57 23h336q68 -2 113 -47t47 -113v-176h40q22 -2 24 -24q-2 -22 -24 -24h-328q-1 -41 -28 -68t-68 -28q-41 1 -68 28t-28 68v0zM48 336v-224q0 -14 9 -23t23 -9h29q13 22 34 35q22 13 49 13t49 -13q21 -13 34 -35h253v176q-1 48 -33 79q-31 32 -79 33h-336
q-14 0 -23 -9t-9 -23v0zM192 80q-20 -1 -34 -14v0q-13 -14 -14 -34q1 -20 14 -34q14 -13 34 -14q20 1 34 14q13 14 14 34q-1 20 -14 34q-14 13 -34 14v0z" />
    <glyph glyph-name="cat-space" unicode="&#xe001;" horiz-adv-x="640" 
d="M203 363l16 -40q2 -3 5 -3t5 3l16 40l40 16q3 2 3 5t-3 5l-40 16l-16 40q-2 3 -6 3q-3 0 -4 -3l-16 -40l-41 -16q-3 -2 -3 -5q1 -3 3 -5l41 -16v0zM463 448q-75 -2 -124 -52v0q-50 -49 -52 -124v-4q-49 -8 -90 -33q-41 -26 -70 -64v93q-1 37 -26 62q-24 25 -62 26
q-13 0 -20 -12q-6 -12 0 -24q8 -12 22 -12q17 0 28 -13q11 -12 11 -30v-212q1 -56 26 -84q25 -29 62 -29h184q7 0 11 5q4 4 4 11q0 14 -9 23t-23 9h-15q0 11 -2 22l82 48v-70q0 -20 14 -34q14 -13 34 -14h32q20 1 34 14q13 14 14 34v124q50 20 80 64q31 43 32 100
q-2 75 -52 124q-50 50 -125 52v0zM463 400q40 0 73 -23l-41 -41h-64l-41 41q34 23 73 23v0zM519 272q-1 -15 -16 -16q-15 1 -16 16q1 14 16 15q7 0 11 -5q5 -4 5 -10v0zM439 272q-1 -15 -16 -16q-15 1 -16 16q1 14 16 15q7 0 11 -5q5 -4 5 -10v0zM303 53q-18 38 -53 63
q-14 7 -23 -6l-7 -13q-6 -12 4 -21q45 -35 48 -92h-105q-17 0 -28 12q-11 11 -12 28q1 76 47 129q46 54 121 68q12 -39 38 -68q27 -29 65 -44l-95 -56v0zM479 -16h-32v98q0 8 -4 15q18 -2 36 0v-113v0zM463 144q-54 1 -90 38v0q-36 36 -38 90q1 49 32 84v-84q1 -41 28 -68
t68 -28q41 1 68 28q27 26 28 67v84q31 -35 32 -84q-1 -54 -37 -90t-91 -37v0z" />
    <glyph glyph-name="coffee-pot" unicode="&#xe002;" 
d="M428 273l52 143h-392q-37 -1 -62 -26t-26 -62v-80q2 -22 23 -24q10 0 17 7q8 7 8 17v80q0 17 12 28q11 12 28 12h26l34 -96q-39 -30 -61 -73q-23 -44 -23 -96q0 -38 13 -65q13 -28 37 -52q17 -18 41 -18h266q24 0 41 18q24 24 37 51q13 28 13 66q0 52 -22 96
q-23 43 -62 74v0zM412 368l-30 -80h-188l-29 80h247v0zM114 128q13 71 72 112h206q58 -41 70 -112h-348v0z" />
    <glyph glyph-name="comet" unicode="&#xe003;" 
d="M308 185l-61 9l-27 55q-4 8 -12 8t-12 -8l-27 -55l-62 -9q-8 -3 -10 -10q-3 -8 3 -14l44 -43l-10 -61q-1 -8 5 -13q7 -5 14 -1l55 29l55 -29q7 -4 14 1q6 5 5 13l-10 61l44 43q6 6 3 14q-3 7 -11 10v0zM502 438q-14 14 -33 9q-22 -7 -65 -21t-88 -32q-7 16 -22 23
q-17 5 -32 -2q-22 -11 -59 -32q-36 -21 -76 -48q-39 -27 -68 -56q-59 -62 -59 -142t59 -141q61 -59 141 -59t142 59q29 29 56 68t48 76t33 59q7 15 2 32q-7 15 -23 22q18 45 32 88q14 42 21 65q5 18 -9 32v0zM431 210q-19 -36 -52 -89v0q-34 -53 -71 -92q-45 -44 -108 -45
q-62 1 -107 45q-45 47 -45 108q0 60 45 107q39 38 94 72q54 34 87 51q2 -6 4 -13q2 -8 7 -25l25 11q37 16 76 29q40 14 70 24q-9 -31 -23 -70q-13 -40 -29 -77l-11 -25q13 -4 20 -6q14 -4 18 -5v0z" />
    <glyph glyph-name="fan-table" unicode="&#xe004;" horiz-adv-x="448" 
d="M353 182q8 -2 14 4q6 5 6 13q0 26 -13 47q-14 21 -37 32q-24 11 -49 8q-24 -3 -45 -20l-33 92q-3 5 -9 9q-7 4 -17 0q-31 -19 -40 -54q-8 -26 4 -57q12 -32 51 -47l-63 -77q-6 -8 -3 -15q3 -8 8 -11q33 -18 67 -9q34 10 53 41q16 28 10 60l96 -16v0zM224 208
q-15 1 -16 16q1 15 16 16q15 -1 16 -16q-1 -15 -16 -16v0zM360 -16h-112v17q86 11 142 73q56 61 58 150q-1 63 -31 113q-29 51 -80 80q-50 30 -113 31q-63 -1 -113 -31q-51 -29 -80 -80q-30 -50 -31 -113q2 -89 58 -150q56 -62 142 -73v-17h-112q-22 -2 -24 -24
q2 -22 24 -24h272q22 2 24 24q-2 22 -24 24v0zM48 224q2 75 52 124v0q49 50 124 52q75 -2 124 -52q50 -49 52 -124q-2 -75 -52 -124q-49 -50 -124 -52q-75 2 -124 52q-50 49 -52 124v0z" />
    <glyph glyph-name="faucet" unicode="&#xe005;" 
d="M512 80v-32q-1 -20 -14 -34q-14 -13 -34 -14h-64q-20 1 -34 14q-13 14 -14 34v16h-29q-37 -46 -99 -48q-62 2 -99 48h-101q-22 2 -24 24q2 22 24 24h127q10 -22 29 -35q20 -13 44 -13t44 13q19 13 29 35h71q14 0 23 -9t9 -23v-32h64v32q-1 41 -28 68t-68 28h-71
q-10 22 -29 35q-20 13 -44 13t-44 -13q-19 -13 -29 -35h-127q-22 2 -24 24q2 22 24 24h101q29 36 75 46v30q-2 0 -31 -3q-28 -3 -57 -6t-32 -3q-15 1 -16 17v30q1 16 16 17v0q-1 0 5 -1q6 0 31 -3t84 -9v29q1 15 16 16h16q15 -1 16 -16v-29q52 5 78 8q32 4 37 5q6 0 5 0
q15 -1 16 -17v-30q-1 -16 -16 -17q-3 0 -32 3t-57 6q-29 3 -31 3v-30q46 -10 75 -46h45q61 -2 102 -42q40 -41 42 -102v0z" />
    <glyph glyph-name="faucet-drip" unicode="&#x1f6b0;" 
d="M416 -32q0 -14 9 -23v0q9 -9 23 -9t23 9t9 23q-2 16 -16 39t-16 25q-2 -2 -16 -25t-16 -39v0zM368 288h-45q-29 36 -75 46v30q2 0 31 -3q28 -3 57 -6t32 -3q15 1 16 17v30q-1 16 -16 17v0q1 0 -5 0q-6 -1 -31 -4t-84 -9v29q-1 15 -16 16h-16q-15 -1 -16 -16v-29
q-52 5 -78 8q-32 4 -37 5q-6 0 -5 0q-15 -1 -16 -17v-30q1 -16 16 -17q3 0 32 3t57 6q29 3 31 3v-30q-46 -10 -75 -46h-102q-21 -2 -23 -23q0 -10 7 -17q7 -8 16 -8h128q10 22 29 35q20 13 44 13t44 -13q19 -13 29 -35h71q41 -1 68 -28t28 -68v-32h-64v32q0 14 -9 23t-23 9
h-71q-10 -22 -29 -35q-20 -13 -44 -13t-44 13q-19 13 -29 35h-128q-21 -2 -23 -23q0 -10 7 -17q7 -8 16 -8h101q38 -46 100 -48q62 2 99 48h29v-16q1 -20 14 -34q14 -13 34 -14h64q20 1 34 14q13 14 14 34v32q-2 61 -42 102q-41 40 -102 42v0z" />
    <glyph glyph-name="faucet-drip" unicode="&#xe006;" 
d="M416 -32q0 -14 9 -23v0q9 -9 23 -9t23 9t9 23q-2 16 -16 39t-16 25q-2 -2 -16 -25t-16 -39v0zM368 288h-45q-29 36 -75 46v30q2 0 31 -3q28 -3 57 -6t32 -3q15 1 16 17v30q-1 16 -16 17v0q1 0 -5 0q-6 -1 -31 -4t-84 -9v29q-1 15 -16 16h-16q-15 -1 -16 -16v-29
q-52 5 -78 8q-32 4 -37 5q-6 0 -5 0q-15 -1 -16 -17v-30q1 -16 16 -17q3 0 32 3t57 6q29 3 31 3v-30q-46 -10 -75 -46h-102q-21 -2 -23 -23q0 -10 7 -17q7 -8 16 -8h128q10 22 29 35q20 13 44 13t44 -13q19 -13 29 -35h71q41 -1 68 -28t28 -68v-32h-64v32q0 14 -9 23t-23 9
h-71q-10 -22 -29 -35q-20 -13 -44 -13t-44 13q-19 13 -29 35h-128q-21 -2 -23 -23q0 -10 7 -17q7 -8 16 -8h101q38 -46 100 -48q62 2 99 48h29v-16q1 -20 14 -34q14 -13 34 -14h64q20 1 34 14q13 14 14 34v32q-2 61 -42 102q-41 40 -102 42v0z" />
    <glyph glyph-name="galaxy" unicode="&#xe008;" 
d="M507 181q-14 56 -55 95v0q-41 40 -97 52q-31 6 -61 3q18 31 50 46q25 12 22 39q-5 27 -32 31q-34 3 -67 -4q-56 -14 -95 -55q-40 -41 -52 -97q-6 -31 -3 -61q-31 18 -46 51q-12 24 -39 21q-27 -5 -31 -32q-3 -34 5 -67q13 -56 54 -95q41 -40 97 -52q31 -6 61 -3
q-18 -31 -51 -46q-24 -12 -21 -39q5 -27 32 -31q10 -1 20 -1q24 0 47 5q56 14 95 55q40 41 52 97q6 31 3 61q31 -18 46 -50q12 -25 39 -22q27 5 31 32q3 34 -4 67v0zM365 214q-13 2 -22 -8q-8 -11 -4 -23q13 -40 5 -80q-9 -44 -41 -76t-80 -41q45 38 54 96q2 13 -8 22
q-11 8 -23 4q-40 -13 -80 -5q-44 9 -76 42q-32 32 -41 79q38 -45 96 -54q13 -2 22 8q8 11 4 23q-13 40 -5 80q9 44 41 76q33 32 80 41q-45 -38 -54 -96q-2 -13 8 -22q11 -8 24 -4q39 13 79 5q44 -9 76 -42q32 -32 41 -79q-37 45 -96 54v0zM255 233q-17 -1 -28 -12v0
q-11 -11 -12 -28q1 -17 12 -28q11 -12 28 -12t28 12q12 11 12 28q0 16 -11 28q-11 11 -29 12v0z" />
    <glyph glyph-name="garage" unicode="&#xe009;" horiz-adv-x="640" 
d="M323 397q-3 1 -7 0l-253 -103q-14 -7 -15 -22v-312q-2 -22 -24 -24q-22 2 -24 24v312q0 22 12 40t33 26l253 103q22 9 43 0l254 -103q21 -8 33 -26t12 -40v-312q-2 -22 -24 -24q-22 2 -24 24v312q-1 15 -15 22l-254 103v0zM143 80v-120q-1 -22 -24 -24q-10 0 -17 7t-7 17
v256q1 17 12 28q12 12 28 12h369q17 0 28 -12q12 -11 12 -28v-256q-2 -22 -24 -24q-22 2 -24 24v120h-353v0zM143 128h353v80h-353v-80v0zM360 32q22 -2 24 -24q-2 -22 -24 -24h-81q-10 0 -17 7t-7 17t7 17t17 7h81v0z" />
    <glyph glyph-name="garage-car" unicode="&#xe00a;" horiz-adv-x="640" 
d="M323 397q-3 1 -7 0l-253 -103q-14 -7 -15 -22v-312q-2 -22 -24 -24q-22 2 -24 24v312q0 22 12 40t33 26l253 103q22 9 43 0l254 -103q21 -8 33 -26t12 -40v-312q-2 -22 -24 -24q-22 2 -24 24v312q-1 15 -15 22l-254 103v0zM143 208v-248q-1 -22 -24 -24q-10 0 -17 7
t-7 17v256q1 17 12 28q12 12 28 12h369q17 0 28 -12q12 -11 12 -28v-256q-2 -22 -24 -24q-22 2 -24 24v248h-353v0zM212 86l14 49q5 19 20 30q14 11 34 11h80q19 0 34 -11q14 -11 20 -30l14 -50q26 -19 28 -53v-72q-2 -22 -24 -24q-22 2 -24 24v8h-177v-8q-1 -22 -24 -24
q-10 0 -17 7t-7 17v72q2 34 29 54v0v0zM265 96h110l-7 26q-2 6 -8 6h-80q-6 0 -8 -6l-7 -26v0zM392 48h-145q-14 -1 -16 -16v-16h177v16q-1 15 -16 16v0z" />
    <glyph glyph-name="garage-open" unicode="&#xe00b;" horiz-adv-x="640" 
d="M323 397q-3 1 -7 0l-253 -103q-14 -7 -15 -22v-312q-2 -22 -24 -24q-22 2 -24 24v312q0 22 12 40t33 26l253 103q22 9 43 0l254 -103q21 -8 33 -26t12 -40v-312q-2 -22 -24 -24q-22 2 -24 24v312q-1 15 -15 22l-254 103v0zM143 128v-168q-1 -22 -24 -24q-10 0 -17 7
t-7 17v256q1 17 12 28q12 12 28 12h369q17 0 28 -12q12 -11 12 -28v-256q-2 -22 -24 -24q-22 2 -24 24v168h-353v0zM496 176v32h-353v-32h353v0zM207 -64q-10 0 -17 7v0q-7 7 -7 17v72q1 27 19 45q19 18 45 19h145q27 -1 45 -19t19 -45v-72q-2 -22 -24 -24q-22 2 -24 24v8
h-177v-8q-1 -22 -24 -24v0zM247 48q-14 -1 -16 -16v-16h177v16q-1 15 -16 16h-145v0z" />
    <glyph glyph-name="heat" unicode="&#xe00c;" horiz-adv-x="448" 
d="M48 292v36q-2 22 -24 24q-22 -2 -24 -24v-36q1 -77 55 -133q40 -41 41 -99v-68q2 -22 24 -24q22 2 24 24v68q-1 77 -55 133q-40 41 -41 99v0zM393 193q-40 41 -41 99v36q-2 22 -24 24q-22 -2 -24 -24v-36q1 -77 55 -133q40 -41 41 -99v-68q2 -22 24 -24q22 2 24 24v68
q-1 77 -55 133v0zM200 292v100q-2 22 -24 24q-22 -2 -24 -24v-100q1 -77 55 -133q40 -41 41 -99v-68q2 -22 24 -24q22 2 24 24v68q-1 77 -55 133q-40 41 -41 99v0z" />
    <glyph glyph-name="house-chimney-window" unicode="&#xe00d;" horiz-adv-x="576" 
d="M208 232q0 17 12 28v0q11 12 28 12h80q17 0 28 -12q12 -11 12 -28v-80q0 -17 -12 -28q-11 -12 -28 -12h-80q-17 0 -28 12q-12 11 -12 28v80v0zM320 160v64h-64v-64h64v0zM273 442q15 12 31 0l160 -136v86q2 22 24 25q22 -3 24 -25v-127l56 -47q15 -15 2 -34
q-15 -15 -33 -2l-25 20v-186q-1 -34 -23 -57q-23 -22 -57 -23h-288q-34 1 -57 23q-22 23 -23 57v186l-24 -20q-19 -13 -34 2q-13 19 2 34l265 224v0zM112 243v-227q0 -14 9 -23t23 -9h288q14 0 23 9t9 23v227l-176 150l-176 -150v0z" />
    <glyph glyph-name="house-day" unicode="&#xe00e;" horiz-adv-x="640" 
d="M202 388l55 17q10 3 16 -4q7 -7 4 -16l-16 -55l31 -18l-54 -44q2 9 2 19q-1 34 -23 57q-23 22 -57 23q-34 -1 -57 -23q-22 -23 -23 -57q1 -34 23 -56q23 -23 57 -24h3l-38 -31l-7 11l-55 -16q-9 -3 -16 4q-7 6 -4 16l17 55l-52 28q-8 4 -8 15q0 8 8 13l52 28l-17 55
q-3 9 4 16t16 4l55 -17l28 52q5 8 14 8t14 -8l28 -52v0zM208 289q-1 -21 -14 -34v0q-14 -14 -34 -14t-34 14q-13 13 -14 34q1 20 14 34q14 13 34 14q20 -1 34 -15q13 -13 14 -33v0zM352 137q0 10 7 17v0q7 7 17 7h48q10 0 17 -7t7 -17v-49q-2 -22 -24 -24h-48q-22 2 -24 24
v49v0zM631 171q9 -8 9 -19q0 -8 -5 -15q-16 -15 -34 -4l-25 21v-162q-1 -24 -16 -40q-16 -15 -40 -16h-240q-24 1 -40 16q-15 16 -16 40v162l-25 -21q-18 -11 -34 4q-5 8 -5 17q0 10 9 17l216 176q15 10 30 0l216 -176v0zM528 193l-128 105l-128 -105v-201q1 -7 8 -8h240
q7 1 8 8v201v0z" />
    <glyph glyph-name="house-person-leave" unicode="&#xe00f;" horiz-adv-x="640" 
d="M363 58l2 3l7 19h-260v198l128 114l104 -92q16 15 37 24l6 2l-131 116q-16 12 -32 0l-216 -192q-15 -16 -2 -34q16 -15 34 -2l24 21v-163q0 -17 12 -28q11 -11 27 -11l234 -1l26 26v0zM175 257q-15 -1 -16 -16v-64q1 -15 16 -16h64q15 1 16 16v64q-1 15 -16 16h-64v0z
M528 352q20 0 34 14v0q13 14 14 34q-1 20 -14 34q-14 13 -34 14q-20 -1 -34 -14q-13 -14 -14 -34q1 -20 14 -34q14 -14 34 -14v0zM633 177l-30 29q-1 1 -2 3l-12 40q-12 33 -39 52t-61 19q-23 0 -41 -5q-19 -6 -44 -17q-5 -2 -11 -4q-32 -13 -48 -45l-14 -31q-8 -22 11 -31
q19 -10 32 11l14 30q7 15 23 21q4 2 8 3q23 10 36 14l-20 -79q-7 -29 15 -54l79 -72q9 -9 12 -21l19 -85q4 -12 13 -15q9 -4 16 -3q21 7 18 29l-20 85q-6 26 -26 45l-53 49l26 105q4 -5 7 -12t8 -25q3 -7 7 -18q4 -13 13 -23l30 -28q18 -15 33 -1t1 34v0zM422 117l-28 -68
q-3 -7 -9 -13l-58 -59q-14 -17 0 -34q17 -14 34 0l58 59q13 13 20 29l19 50l-21 21l-15 15v0z" />
    <glyph glyph-name="house-night" unicode="&#xe010;" horiz-adv-x="640" 
d="M88 360q1 -37 26 -62v0q25 -25 62 -26h8q7 1 10 -4q3 -4 0 -9q-32 -34 -82 -35q-48 1 -79 33q-32 31 -33 79q1 48 33 79q31 32 79 33q6 0 11 -1q6 -1 6 -6q1 -5 -4 -9q-35 -26 -37 -72v0v0zM352 136q2 22 24 24h48q22 -2 24 -24v-48q-2 -22 -24 -24h-48q-22 2 -24 24v48
v0zM631 171q15 -16 4 -34q-16 -15 -34 -4l-25 21v-162q-1 -24 -16 -40q-16 -15 -40 -16h-240q-24 1 -40 16q-15 16 -16 40v162l-25 -21q-18 -11 -34 4q-12 18 4 34l216 176q15 10 30 0l216 -176v0zM528 193l-128 105l-128 -105v-201q1 -7 8 -8h240q7 1 8 8v201v0zM249 436
q2 5 7 5v0q5 0 8 -5l11 -33l33 -12q5 -2 5 -7t-5 -8l-33 -11l-11 -33q-3 -5 -8 -5t-7 5l-12 33l-33 11q-5 3 -5 8t5 7l33 12l12 33v0zM115 83l33 -12q5 -2 5 -7t-5 -8l-33 -11l-11 -33q-3 -5 -8 -5t-7 5l-12 33l-33 11q-5 3 -5 8t5 7l33 12l12 33q2 5 7 5t8 -5l11 -33v0z
" />
    <glyph glyph-name="house-person-return" unicode="&#xe011;" horiz-adv-x="640" 
d="M112 278l128 114l116 -103q13 20 33 35l-133 118q-16 12 -32 0l-216 -192q-15 -16 -2 -34q16 -15 34 -2l24 21v-163q0 -17 12 -28q11 -12 28 -12h232l5 25q3 12 9 23h-238v198v0zM175 257q-15 -1 -16 -16v-64q1 -15 16 -16h64q15 1 16 16v64q-1 15 -16 16h-64v0zM432 352
q21 0 34 14v0q13 14 14 34q-1 20 -14 34q-13 13 -34 14q-20 -1 -34 -14q-13 -14 -14 -34q1 -20 14 -34q14 -14 34 -14v0zM525 187l-20 79q13 -4 36 -14q4 -1 8 -3q15 -6 23 -21l14 -30q13 -21 32 -11q19 9 11 31l-14 31q-16 32 -48 45q-6 2 -11 4q-25 11 -44 17q-18 5 -41 5
q-34 0 -61 -19t-38 -52l-13 -39q-1 -2 -2 -3l-30 -29q-14 -20 1 -34t33 -1l30 28q9 10 13 23q4 11 7 19q5 18 8 24q3 7 7 12l26 -105l-54 -49q-19 -19 -25 -45l-20 -85q-3 -22 18 -29q7 -1 16 3t13 15l19 85q3 12 12 21l79 72q22 26 15 55v0zM632 -22l-58 59q-6 5 -9 13
l-28 68q-2 -3 -15 -16q-13 -12 -21 -20l19 -50q7 -17 20 -29l59 -60q17 -14 34 0q14 17 -1 35v0z" />
    <glyph glyph-name="house-signal" unicode="&#xe012;" horiz-adv-x="576" 
d="M321 443q15 10 30 0l216 -176q15 -16 4 -34q-16 -15 -34 -4l-25 21v-162q-1 -24 -16 -40q-16 -15 -40 -16h-160q-6 25 -16 48h176q7 1 8 8v201l-128 104l-128 -104v-114q-22 19 -48 33v42l-25 -21q-5 -4 -12 -5q-9 4 -19 6l-3 3q-12 18 4 34l216 176v0zM360 256
q22 -2 24 -24v-48q-2 -22 -24 -24h-48q-22 2 -24 24v48q2 22 24 24h48v0zM256 -40q-2 -22 -24 -24q-22 2 -24 24q-2 78 -54 130t-130 54q-22 2 -24 24q2 22 24 24q65 -1 117 -32t83 -83t32 -117v0zM0 -32q0 14 9 23v0q9 9 23 9t23 -9t9 -23t-9 -23t-23 -9t-23 9t-9 23v0z
M0 72q2 22 24 24q58 -1 96 -40q39 -38 40 -96q-2 -22 -24 -24q-22 2 -24 24q-1 37 -26 62t-62 26q-22 2 -24 24v0z" />
    <glyph glyph-name="lamp-desk" unicode="&#xe014;" 
d="M393 169q14 -9 31 -9q18 0 36 13q19 13 20 43q0 16 -10 31l-77 -78v0zM512 348q0 15 -10 25v0q-10 10 -25 11h-85l-36 35q-29 29 -68 29q-30 0 -56 -18q-39 -30 -40 -78q0 -22 11 -44l-100 -99q-7 -7 -7 -17q0 -3 1 -7l58 -201h-131q-22 -2 -24 -24q2 -22 24 -24h336
q22 2 24 24q-2 22 -24 24h-156l-57 201l86 86l23 -23v-85q0 -15 10 -25t25 -10t25 10l186 185q10 11 10 25v0zM304 194v74l-50 50q-14 14 -14 33q2 28 19 38q18 11 29 10q19 0 34 -14l50 -49h74l-142 -142v0z" />
    <glyph glyph-name="lamp-floor" unicode="&#xe015;" horiz-adv-x="384" 
d="M381 235l-71 192q-7 20 -29 21h-178q-22 -1 -30 -21l-71 -192q-5 -16 4 -29t26 -14h136v-208h-80q-22 -2 -24 -24q2 -22 24 -24h208q22 2 24 24q-2 22 -24 24h-80v208h136q17 1 26 14t3 29v0zM55 240l59 160h156l60 -160h-275v0z" />
    <glyph glyph-name="light-ceiling" unicode="&#xe016;" 
d="M320 1h-128q1 -27 19 -45t44 -19q27 0 45 18q19 18 20 46v0zM0 68q-1 -14 8 -25v0q9 -10 24 -10h448q15 0 24 11q9 10 8 25q-15 89 -78 149t-154 70v137q-2 22 -24 24q-22 -2 -24 -24v-137q-91 -11 -154 -71t-78 -149v0zM51 80q19 71 74 115v0q56 44 131 45
q75 -1 131 -45t74 -115h-410v0z" />
    <glyph glyph-name="light-switch" unicode="&#xe017;" horiz-adv-x="384" 
d="M320 448h-256q-27 -1 -45 -19t-19 -45v-384q1 -27 19 -45t45 -19h256q27 1 45 19t19 45v384q-1 27 -19 45t-45 19v0zM336 0q-1 -15 -16 -16h-106q-6 15 -22 16q-16 -1 -22 -16h-106q-15 1 -16 16v384q1 15 16 16h106q6 -15 22 -16q16 1 22 16h106q15 -1 16 -16v-384v0z
M240 353h-96q-20 -1 -34 -14q-13 -14 -14 -33v-224q1 -21 14 -34q14 -14 34 -14h96q20 0 34 14q13 13 14 34v224q-1 19 -14 33q-14 13 -34 14v0zM240 80h-96v88h96v-88v0zM240 216h-96v88h96v-88v0z" />
    <glyph glyph-name="light-switch-off" unicode="&#xe018;" horiz-adv-x="384" 
d="M320 448h-256q-27 -1 -45 -19t-19 -45v-384q1 -27 19 -45t45 -19h256q27 1 45 19t19 45v384q-1 27 -19 45t-45 19v0zM336 0q-1 -15 -16 -16h-106q-6 15 -22 16q-16 -1 -22 -16h-106q-15 1 -16 16v384q1 15 16 16h106q6 -15 22 -16q16 1 22 16h106q15 -1 16 -16v-384v0z
M240 353h-96q-20 -1 -34 -14q-13 -14 -14 -33v-224q1 -21 14 -34q14 -14 34 -14h96q20 0 34 14q13 13 14 34v224q-1 19 -14 33q-14 13 -34 14v0zM240 192h-96v112h96v-112v0z" />
    <glyph glyph-name="light-switch-on" unicode="&#xe019;" horiz-adv-x="384" 
d="M320 448h-256q-27 -1 -45 -19t-19 -45v-384q1 -27 19 -45t45 -19h256q27 1 45 19t19 45v384q-1 27 -19 45t-45 19v0zM336 0q-1 -15 -16 -16h-106q-6 15 -22 16q-16 -1 -22 -16h-106q-15 1 -16 16v384q1 15 16 16h106q6 -15 22 -16q16 1 22 16h106q15 -1 16 -16v-384v0z
M240 353h-96q-20 -1 -34 -14q-13 -14 -14 -34v-223q1 -21 14 -34q14 -14 34 -14h96q20 0 34 14q13 13 14 34v223q-1 20 -14 33q-14 14 -34 15v0zM240 80h-96v96h96v-96v0z" />
    <glyph glyph-name="microwave" unicode="&#xe01b;" horiz-adv-x="576" 
d="M432 312q2 22 24 24q22 -2 24 -24v-208q-2 -22 -24 -24q-22 2 -24 24v208v0zM360 320q22 -2 24 -24v-176q-2 -22 -24 -24h-240q-22 2 -24 24v176q2 22 24 24h240v0zM512 416q27 -1 45 -19v0q18 -18 19 -45v-288q-1 -27 -19 -45t-45 -19v-8q-2 -22 -24 -24q-22 2 -24 24v8
h-352v-8q-2 -22 -24 -24q-22 2 -24 24v8q-27 1 -45 19t-19 45v288q1 27 19 45t45 19h448v0zM512 368h-448q-15 -1 -16 -16v-288q1 -15 16 -16h448q15 1 16 16v288q-1 15 -16 16v0z" />
    <glyph glyph-name="outlet" unicode="&#xe01c;" horiz-adv-x="448" 
d="M384 417h-320q-27 -1 -45 -19t-19 -44v-320q1 -27 19 -45q18 -19 45 -19h320q27 0 45 19q18 18 19 45v320q-1 26 -19 44t-45 19v0zM400 32q-1 -15 -16 -16h-320q-15 1 -16 16v320q1 15 16 16h320q15 -1 16 -16v-320v0zM309 304h-170q-8 0 -13 -5q-44 -42 -46 -107
q2 -65 46 -107q5 -5 13 -5h170q8 0 13 5q44 43 46 107q-2 65 -46 107q-5 5 -13 5v0zM176 192q-1 -15 -16 -16q-15 1 -16 16v48q1 15 16 16q15 -1 16 -16v-48v0zM248 112h-48v24q2 22 24 24q22 -2 24 -24v-24v0zM304 192q-1 -15 -16 -16q-15 1 -16 16v48q1 15 16 16
q15 -1 16 -16v-48v0z" />
    <glyph glyph-name="oven" unicode="&#xe01d;" horiz-adv-x="448" 
d="M112 16h224q14 0 23 9t9 23v128q0 14 -9 23t-23 9h-224q-14 0 -23 -9t-9 -23v-128q0 -14 9 -23t23 -9v0zM160 168h128q15 -1 16 -16q-1 -15 -16 -16h-128q-15 1 -16 16q1 15 16 16v0zM104 368q-22 -2 -24 -24q2 -22 24 -24q22 2 24 24q-2 22 -24 24v0zM352 448h-256
q-41 -1 -68 -28t-28 -68v-352q1 -27 19 -45t45 -19h320q27 1 45 19t19 45v352q-1 41 -28 68t-68 28v0zM400 0q-1 -15 -16 -16h-320q-15 1 -16 16v240h352v-240v0zM400 288h-352v64q1 20 14 34q14 13 34 14h256q20 -1 34 -14q13 -14 14 -34v-64v0zM344 368q-22 -2 -24 -24
q2 -22 24 -24q22 2 24 24q-2 22 -24 24v0zM184 368q-22 -2 -24 -24q2 -22 24 -24q22 2 24 24q-2 22 -24 24v0zM264 368q-22 -2 -24 -24q2 -22 24 -24q22 2 24 24q-2 22 -24 24v0z" />
    <glyph glyph-name="planet-moon" unicode="&#xe01f;" horiz-adv-x="576" 
d="M512 448q-27 -1 -45 -19v0q-18 -18 -19 -45q1 -27 19 -45q18 -17 45 -18q27 1 45 19q18 17 19 44q-1 27 -19 45t-45 19v0zM224 384q-63 -1 -113 -31v0q-51 -29 -80 -80v0q-30 -50 -31 -113q1 -63 31 -113q29 -51 80 -80q50 -30 113 -31q63 1 113 31q51 29 80 80
q30 50 31 113q-1 63 -31 113q-29 51 -80 80q-50 30 -113 31v0zM224 -16q-75 2 -124 52v0q-50 49 -52 124q0 40 18 77q9 -13 24 -13h25q13 0 22 -9l55 -55v-32q0 -14 9 -23t23 -9v-63q0 -7 5 -12q6 -5 13 -4q5 0 10 1q14 3 21 16l40 80q7 14 7 29v17q0 14 -9 23t-23 9h-64
q-16 0 -27 11q-9 9 -9 21q-1 13 8 22l49 58q8 13 10 29q63 -12 103 -60q41 -47 42 -113q-2 -75 -52 -124q-49 -50 -124 -52v0z" />
    <glyph glyph-name="planet-ringed" unicode="&#x1fa90;" 
d="M503 439q-19 17 -63 2v0q-44 -15 -104 -57q-39 16 -80 16q-88 -2 -147 -61q-58 -58 -60 -146q0 -42 16 -80q-42 -60 -57 -104q-15 -45 2 -63q18 -17 63 -2q44 15 104 57q38 -16 80 -16q88 2 147 61q58 58 60 146q0 42 -16 80q42 60 57 104t-2 63v0zM64 0q-11 14 26 67
q18 -23 41 -41q-53 -37 -67 -26v0zM173 56q-35 22 -56 57v0q-21 35 -21 79q2 68 47 113t113 47q44 -1 79 -21q35 -21 57 -56q-42 -53 -104 -115t-115 -104v0zM256 32q-16 0 -32 3q52 42 99 90q48 47 90 99q3 -16 3 -32q-2 -68 -47 -113t-113 -47v0zM381 358q53 37 67 26
q11 -14 -26 -67q-18 23 -41 41v0z" />
    <glyph glyph-name="planet-ringed" unicode="&#xe020;" 
d="M503 439q-19 17 -63 2v0q-44 -15 -104 -57q-39 16 -80 16q-88 -2 -147 -61q-58 -58 -60 -146q0 -42 16 -80q-42 -60 -57 -104q-15 -45 2 -63q18 -17 63 -2q44 15 104 57q38 -16 80 -16q88 2 147 61q58 58 60 146q0 42 -16 80q42 60 57 104t-2 63v0zM64 0q-11 14 26 67
q18 -23 41 -41q-53 -37 -67 -26v0zM173 56q-35 22 -56 57v0q-21 35 -21 79q2 68 47 113t113 47q44 -1 79 -21q35 -21 57 -56q-42 -53 -104 -115t-115 -104v0zM256 32q-16 0 -32 3q52 42 99 90q48 47 90 99q3 -16 3 -32q-2 -68 -47 -113t-113 -47v0zM381 358q53 37 67 26
q11 -14 -26 -67q-18 23 -41 41v0z" />
    <glyph glyph-name="police-box" unicode="&#xe021;" horiz-adv-x="384" 
d="M104 304q1 7 8 8h24v-32h-32v24v0zM104 264h32v-32h-24q-7 1 -8 8v24v0zM184 304v-24h-32v32h24q7 -1 8 -8v0zM152 264h32v-24q-1 -7 -8 -8h-24v32v0zM232 312v-32h-32v24q1 7 8 8h24v0zM232 232h-24q-7 1 -8 8v24h32v-32v0zM248 312h24q7 -1 8 -8v-24h-32v32v0zM280 240
q-1 -7 -8 -8h-24v32h32v-24v0zM104 200q1 15 16 16h48q15 -1 16 -16v-48q-1 -15 -16 -16h-48q-15 1 -16 16v48v0zM192 448q15 -1 16 -16v-16h80q14 0 23 -9t9 -23q14 0 23 -9t9 -23v-368h8q22 -2 24 -24q-2 -22 -24 -24h-336q-22 2 -24 24q2 22 24 24h8v368q0 14 9 23t23 9
q0 14 9 23t23 9h80v16q1 15 16 16v0zM80 -16h224v352h-224v-352v0z" />
    <glyph glyph-name="person-to-portal" unicode="&#xe022;" 
d="M416 448q-30 3 -58 -37v0q-27 -39 -36 -152q-16 48 -65 60l-78 18q-40 8 -73 -16l-49 -38q-16 -14 -4 -33q15 -16 34 -4l48 37q15 11 33 7l15 -3l-35 -87q-8 -20 -1 -39q6 -19 24 -30l84 -51q3 -2 4 -7q0 -1 -1 -2l-33 -104q-3 -10 2 -19q5 -8 14 -11q4 -1 7 -1
q17 1 23 17l33 105q6 19 -1 36t-23 27l-52 31l42 105q4 -5 6 -12l14 -46q6 -18 20 -28q15 -11 34 -11h48q22 2 24 24q-2 22 -24 24h-24q1 82 15 136t33 56q20 -2 34 -61q13 -59 14 -147q-1 -88 -14 -147q-14 -59 -34 -61q-16 1 -28 41q-13 39 -18 103h-48q4 -76 25 -133
q21 -56 69 -59q22 -1 44 19q22 21 37 77q14 55 15 160q0 60 -7 118q-8 59 -29 98t-60 40v0zM272 352q20 1 34 14v0q13 13 14 33q-1 20 -14 34q-14 14 -34 15q-20 -1 -34 -14q-13 -14 -14 -34q1 -20 14 -34q14 -13 34 -14v0zM126 131l-20 -46q-2 -5 -7 -5h-75q-22 -2 -24 -24
q2 -22 24 -24h75q36 2 52 33l13 32l-9 6q-18 11 -29 28v0z" />
    <glyph glyph-name="person-from-portal" unicode="&#xe023;" 
d="M368 352q20 1 34 14v0q13 13 14 33q-1 20 -14 34q-14 14 -34 15q-20 -1 -34 -14q-13 -14 -14 -34q1 -20 14 -34q14 -13 34 -14v0zM488 208h-48q-6 0 -8 6l-14 45q-16 48 -65 60l-78 18q-40 8 -73 -16l-17 -13q-8 59 -28 99q-21 39 -61 41q-22 1 -44 -19q-22 -21 -37 -76
q-14 -56 -15 -160q0 -60 7 -119q8 -59 29 -98t60 -40q19 -1 38 13q18 14 33 51h-52q-9 -16 -19 -16q-20 2 -34 61q-13 59 -14 147q1 88 14 147q14 59 34 61q20 -2 34 -61q13 -59 14 -147q0 -63 -8 -112h-16q-22 -2 -24 -24q2 -22 24 -24h75q36 2 52 33l13 32l-10 6
q-17 11 -28 28l-20 -46q-2 -5 -7 -5h-9q6 46 6 112q0 29 -2 59l41 32q15 11 33 7l15 -3l-35 -87q-8 -20 -1 -39q6 -19 24 -30l84 -51q3 -2 4 -7q0 -1 -1 -2l-33 -104q-3 -10 2 -19q5 -8 14 -11q4 -1 7 -1q17 1 23 17l33 105q6 19 -1 36t-23 27l-52 31l42 105q4 -5 6 -12
l14 -45q6 -18 20 -29q15 -11 34 -11h48q22 2 24 24q-2 22 -24 24v0z" />
    <glyph glyph-name="radar" unicode="&#xe024;" 
d="M316 286q-27 18 -60 18q-48 -1 -79 -33q-32 -31 -33 -79q1 -48 33 -79q31 -32 79 -33q48 1 79 33q32 31 33 79h48q-1 -60 -37 -103t-93 -54q-12 12 -30 13q-18 -1 -30 -13q-49 10 -83 44t-44 83q12 12 13 30q-1 18 -13 30q11 57 54 93t103 37q54 -1 95 -31l34 34
q-54 44 -129 45q-79 -2 -135 -50t-70 -124q-18 -12 -19 -34q1 -22 19 -34q12 -67 58 -113t113 -58q12 -18 34 -19q22 1 34 19q76 13 124 70q48 56 50 135h48q-1 -72 -35 -129q-34 -58 -92 -92q-57 -34 -129 -35q-72 1 -129 35q-58 34 -92 92q-34 57 -35 129q1 72 35 129
q34 58 92 92q57 34 129 35q95 -2 163 -59l44 44q17 14 33 0q15 -17 0 -34l-181 -182q5 -12 5 -25q-1 -27 -19 -45t-45 -19q-27 1 -45 19t-19 45q1 27 19 45t45 19q14 0 24 -5l36 35v0z" />
    <glyph glyph-name="raygun" unicode="&#xe025;" horiz-adv-x="576" 
d="M112 297q-22 -2 -24 -24q2 -22 24 -24q22 2 24 24q0 10 -7 17t-17 7v0zM208 297q-22 -2 -24 -24q2 -22 24 -24q22 2 24 24q0 10 -7 17t-17 7v0zM311 416q-21 -2 -23 -24v-19q-23 11 -48 11h-48l-105 62q-8 4 -15 0q-8 -5 -8 -14v-59q-29 -14 -46 -41q-18 -26 -18 -60
q1 -42 27 -72q25 -30 66 -37l-71 -122q-9 -19 -4 -37q5 -20 22 -30l55 -32q18 -9 37 -4t29 22l120 208l4 2q1 1 3 2v-20q2 -22 24 -24q22 2 24 24v240q-2 22 -25 24v0zM119 -16l-55 32l83 144h74l-102 -176v0zM288 230q-19 -21 -48 -22h-128q-27 1 -45 19t-19 45q1 27 19 45
t45 19h128q29 -1 48 -22v-84v0zM555 330l-75 -25h-64v55q-2 22 -24 24q-22 -2 -24 -24v-176q2 -22 24 -24q22 2 24 24v57h64l75 -25q8 -2 14 2q7 4 7 12v84q0 8 -7 13q-6 4 -14 3v0z" />
    <glyph glyph-name="refrigerator" unicode="&#xe026;" horiz-adv-x="384" 
d="M288 448h-192q-41 -1 -68 -28t-28 -68v-352q1 -27 19 -45t45 -19h256q27 1 45 19t19 45v352q-1 41 -28 68t-68 28v0zM336 0q-1 -15 -16 -16h-256q-15 1 -16 16v240h192v-136q2 -22 24 -24q22 2 24 24v136h48v-240v0zM336 288h-48v40q-2 22 -24 24q-22 -2 -24 -24v-40
h-192v64q1 20 14 34q14 13 34 14h192q20 -1 34 -14q13 -14 14 -34v-64v0z" />
    <glyph glyph-name="rocket-launch" unicode="&#x1f680;" 
d="M408 305q0 -18 -12 -29v0q-11 -11 -28 -11t-28 11q-12 11 -12 29q0 16 12 28q11 11 28 12q17 -1 28 -12q12 -12 12 -28v0zM384 136v-82q-1 -41 -35 -62l-89 -53q-12 -6 -24 0q-12 7 -12 21v115q0 35 -25 61q-25 24 -60 24h-115q-14 0 -21 12q-6 12 0 24l53 89
q21 34 62 36h82q42 64 93 93q52 28 102 32q50 5 89 -3q18 -5 23 -23q8 -39 3 -89q-4 -50 -33 -102q-28 -51 -93 -93v0v0zM198 194q20 -9 34 -25q17 -16 26 -35q79 23 121 57q43 33 61 69q18 35 22 71t0 67q-31 4 -67 0t-72 -22q-35 -18 -68 -61q-34 -42 -57 -121v0v0z
M42 102q27 26 62 26v0q35 0 63 -26q25 -27 25 -62t-25 -62q-27 -24 -66 -33q-38 -8 -68 -9h-33v33q1 30 9 69q9 38 33 64v0v0zM65 1q1 -1 21 0v0q20 2 34 13q8 9 8 21t-8 21q-9 8 -21 8t-21 -8q-11 -14 -13 -34q-1 -19 0 -21v0v0z" />
    <glyph glyph-name="rocket-launch" unicode="&#xe027;" 
d="M408 305q0 -18 -12 -29v0q-11 -11 -28 -11t-28 11q-12 11 -12 29q0 16 12 28q11 11 28 12q17 -1 28 -12q12 -12 12 -28v0zM384 136v-82q-1 -41 -35 -62l-89 -53q-12 -6 -24 0q-12 7 -12 21v115q0 35 -25 61q-25 24 -60 24h-115q-14 0 -21 12q-6 12 0 24l53 89
q21 34 62 36h82q42 64 93 93q52 28 102 32q50 5 89 -3q18 -5 23 -23q8 -39 3 -89q-4 -50 -33 -102q-28 -51 -93 -93v0v0zM198 194q20 -9 34 -25q17 -16 26 -35q79 23 121 57q43 33 61 69q18 35 22 71t0 67q-31 4 -67 0t-72 -22q-35 -18 -68 -61q-34 -42 -57 -121v0v0z
M42 102q27 26 62 26v0q35 0 63 -26q25 -27 25 -62t-25 -62q-27 -24 -66 -33q-38 -8 -68 -9h-33v33q1 30 9 69q9 38 33 64v0v0zM65 1q1 -1 21 0v0q20 2 34 13q8 9 8 21t-8 21q-9 8 -21 8t-21 -8q-11 -14 -13 -34q-1 -19 0 -21v0v0z" />
    <glyph glyph-name="sensor" unicode="&#xe028;" horiz-adv-x="448" 
d="M144 184q-2 -22 -24 -24q-22 2 -24 24v112q2 22 24 24q22 -2 24 -24v-112v0zM240 184q-2 -22 -24 -24q-22 2 -24 24v112q2 22 24 24q22 -2 24 -24v-112v0zM0 352q1 27 19 45v0q18 18 45 19h320q27 -1 45 -19t19 -45v-320q-1 -27 -19 -45t-45 -19h-320q-27 1 -45 19
t-19 45v320v0zM48 352v-320q1 -15 16 -16h320q15 1 16 16v320q-1 15 -16 16h-320q-15 -1 -16 -16v0z" />
    <glyph glyph-name="sensor-triangle-exclamation" unicode="&#xe029;" horiz-adv-x="640" 
d="M48 352v-320q1 -15 16 -16h169q-9 -16 -9 -36v-4v-8h-160q-27 1 -45 19t-19 45v320q1 27 19 45t45 19h320q27 -1 45 -19t19 -45v-32q-28 0 -48 -18v50q-1 15 -16 16h-320q-15 -1 -16 -16v0zM144 184q-2 -22 -24 -24q-22 2 -24 24v112q2 22 24 24q22 -2 24 -24v-112v0z
M240 184q-2 -22 -24 -24q-22 2 -24 24v112q2 22 24 24q22 -2 24 -24v-112v0zM262 2l150 265q12 21 36 21t36 -21l150 -265q6 -10 6 -22q0 -19 -13 -31q-12 -13 -31 -13h-296q-19 0 -31 13q-13 12 -13 31q-1 12 6 22v0v0zM463 176q-1 15 -16 16q-14 -1 -16 -16v-88
q2 -15 16 -16q15 1 16 16v88v0zM448 -8q22 2 24 24q-2 22 -24 24q-22 -2 -24 -24q2 -22 24 -24v0z" />
    <glyph glyph-name="sensor-fire" unicode="&#xe02a;" horiz-adv-x="640" 
d="M48 352v-320q1 -15 16 -16h242q12 -26 32 -48h-274q-27 1 -45 19t-19 45v320q1 27 19 45t45 19h320q27 -1 45 -19t19 -45v-32q-20 2 -35 -12q-7 -6 -13 -11v55q-1 15 -16 16h-320q-15 -1 -16 -16v0zM144 184q-2 -22 -24 -24q-22 2 -24 24v112q2 22 24 24q22 -2 24 -24
v-112v0zM240 184q-2 -22 -24 -24q-22 2 -24 24v112q2 22 24 24q22 -2 24 -24v-112v0zM509 227q12 15 27 29q10 8 20 0q37 -36 60 -81q23 -44 24 -77q-2 -68 -47 -114t-113 -48q-69 2 -114 48q-44 46 -46 114q1 41 32 91t82 95q9 8 20 0q29 -26 55 -57v0v0zM550 111
q-3 6 -7 12l-36 -42q-1 1 -15 19q-15 19 -30 37q-15 19 -18 23q-22 -27 -33 -46q-11 -18 -11 -36q1 -37 24 -57q22 -21 56 -21q28 0 50 15q23 17 28 44q5 26 -8 52v0z" />
    <glyph glyph-name="sensor-on" unicode="&#xe02b;" horiz-adv-x="640" 
d="M120 320q22 -2 24 -24v-112q-2 -22 -24 -24q-22 2 -24 24v112q2 22 24 24v0zM216 320q22 -2 24 -24v-112q-2 -22 -24 -24q-22 2 -24 24v112q2 22 24 24v0zM384 416q27 -1 45 -19v0q18 -18 19 -45v-320q-1 -27 -19 -45t-45 -19h-320q-27 1 -45 19t-19 45v320q1 27 19 45
t45 19h320v0zM384 368h-320q-15 -1 -16 -16v-320q1 -15 16 -16h320q15 1 16 16v320q-1 15 -16 16v0zM549 309q-19 -12 -33 6q-10 19 7 33l48 32q19 10 32 -7q12 -19 -6 -32l-48 -32v0zM616 216q22 -2 24 -24q-2 -22 -24 -24h-80q-22 2 -24 24q2 22 24 24h80v0zM597 44
q18 -14 6 -33q-13 -18 -32 -6l-48 32q-17 13 -7 32q14 17 33 7l48 -32v0z" />
    <glyph glyph-name="sensor-cloud" unicode="&#xe02c;" horiz-adv-x="640" 
d="M48 352v-320q1 -15 16 -16h160q0 -26 11 -48h-171q-27 1 -45 19t-19 45v320q1 27 19 45t45 19h320q27 -1 45 -19t19 -45v-139q-22 11 -48 11v128q-1 15 -16 16h-320q-15 -1 -16 -16v0zM144 184q-2 -22 -24 -24q-22 2 -24 24v112q2 22 24 24q22 -2 24 -24v-112v0zM240 184
q-2 -22 -24 -24q-22 2 -24 24v112q2 22 24 24q22 -2 24 -24v-112v0zM336 -64q-34 1 -57 23v0q-22 23 -23 57q1 30 19 52q18 21 47 27q-2 8 -2 17q1 34 23 57q23 22 57 23q27 0 47 -15t29 -39q16 21 44 22q24 -1 40 -16q15 -16 16 -40q0 -5 -1 -9q28 -6 46 -28q18 -21 19 -51
q-1 -34 -23 -57q-23 -22 -57 -23h-224v0z" />
    <glyph glyph-name="siren" unicode="&#xe02d;" horiz-adv-x="448" 
d="M188 272q-22 2 -28 -20l-16 -96q-2 -22 20 -28h4q19 1 24 20l16 96q1 22 -20 28v0zM401 112l-36 194q-5 21 -20 33q-15 13 -36 13h-170q-21 0 -36 -13q-15 -12 -19 -33l-37 -194q-21 -1 -34 -14q-13 -14 -13 -34v-48q1 -20 14 -34q14 -13 34 -14h352q20 1 34 14
q13 14 14 34v48q0 20 -14 34q-13 13 -33 14v0zM131 297q1 7 8 7h171q6 0 7 -7l35 -185h-256l35 185v0zM400 16h-352v48h352v-48v0z" />
    <glyph glyph-name="siren-on" unicode="&#xe02e;" horiz-adv-x="640" 
d="M112 224q-2 22 -24 24h-64q-22 -2 -24 -24q2 -22 24 -24h64q22 2 24 24v0zM91 340q11 -8 24 -2q12 6 14 20q0 14 -12 22l-48 32q-11 8 -24 2q-12 -7 -13 -20q-1 -14 11 -22l48 -32v0zM536 336q7 0 13 4l48 32q12 8 11 22q-1 13 -13 20q-13 5 -24 -2l-48 -32
q-14 -10 -10 -27q6 -16 23 -17v0zM616 248h-64q-22 -2 -24 -24q2 -22 24 -24h64q22 2 24 24q-2 22 -24 24v0zM497 112l-36 194q-5 21 -20 33q-15 13 -36 13h-170q-21 0 -36 -13q-15 -12 -19 -33l-37 -194q-21 -1 -34 -14q-13 -14 -13 -34v-48q1 -20 14 -34q14 -13 34 -14
h352q20 1 34 14q13 14 14 34v48q0 20 -14 34q-13 13 -33 14v0zM227 297q1 7 8 7h171q6 0 7 -7l35 -185h-256l35 185v0zM496 16h-352v48h352v-48v0zM284 272q-22 2 -28 -20l-16 -96q-2 -22 20 -28h4q19 1 24 20l16 96q1 22 -20 28v0z" />
    <glyph glyph-name="solar-system" unicode="&#xe02f;" 
d="M255 256q-27 -1 -45 -19v0q-17 -18 -18 -44q1 -27 19 -45t45 -19q27 1 45 18q18 18 19 45q-1 27 -19 45t-46 19v0zM256 176q-15 1 -16 16q1 15 16 16q15 -1 16 -16q-1 -15 -16 -16v0zM470 53q9 -18 4 -37v0q-4 -19 -19 -31q-16 -12 -35 -12t-35 12q-16 13 -20 31
q-4 19 4 37q10 18 27 26q17 9 37 4q37 62 30 133q-8 70 -60 124q-46 45 -107 57t-121 -13q-6 19 -21 34l-4 4l-2 2q75 33 152 20q78 -13 137 -71q65 -68 74 -156q8 -88 -41 -164v0zM358 -34l4 -4v0l2 -2q-75 -33 -152 -20q-78 14 -137 71q-65 68 -74 156q-8 88 41 165
q-9 18 -4 37q4 18 19 31q16 12 35 12t35 -12q16 -13 20 -32q4 -18 -4 -36q-9 -18 -27 -26q-17 -8 -37 -3q-37 -63 -30 -133q8 -70 60 -124q46 -45 107 -57t121 12q6 -21 21 -35v0zM392 328q-13 12 -30 13v0q-16 1 -31 -9q-36 20 -75 20q-55 -1 -97 -33t-57 -86
q-14 -53 6 -102t68 -77q49 -27 101 -20t92 46q38 39 45 90t-17 98q9 14 8 30q-1 17 -13 30v0zM335 113q-32 -31 -74 -34v0q-43 -2 -78 26q-34 29 -39 71q-6 42 19 79q26 36 67 46q41 9 81 -12q1 -16 13 -29q13 -12 29 -13q18 -33 14 -70q-5 -36 -32 -64v0z" />
    <glyph glyph-name="circle-sort" unicode="&#xe030;" 
d="M348 176h-183q-13 -1 -18 -11q-4 -11 4 -20l92 -92q5 -5 13 -5t13 5l92 92q8 9 4 20q-5 10 -17 11v0zM269 331q-5 5 -13 5t-13 -5l-92 -92q-8 -9 -4 -20q5 -10 18 -11h183q12 1 17 11q4 11 -4 20l-92 92v0zM256 448q-72 -1 -129 -35v0q-58 -34 -92 -92v0
q-34 -57 -35 -129q1 -72 35 -129q34 -58 92 -92q57 -34 129 -35q72 1 129 35q58 34 92 92q34 57 35 129q-1 72 -35 129q-34 58 -92 92q-57 34 -129 35v0zM256 -16q-88 2 -147 61v0q-59 59 -61 147q2 88 61 147t147 61q88 -2 147 -61t61 -147q-2 -88 -61 -147t-147 -61v0z
" />
    <glyph glyph-name="circle-sort-down" unicode="&#xe031;" 
d="M269 331q-5 5 -13 5t-13 -5l-92 -92q-8 -9 -4 -20q5 -10 18 -11h183q12 1 17 11q4 11 -4 20l-92 92v0zM197 240l59 58l59 -58h-118v0zM348 176h-183q-13 -1 -18 -11q-4 -11 4 -20l92 -92q5 -5 13 -5t13 5l92 92q8 9 4 20q-5 10 -17 11v0zM256 448q-72 -1 -129 -35v0
q-58 -34 -92 -92v0q-34 -57 -35 -129q1 -72 35 -129q34 -58 92 -92q57 -34 129 -35q72 1 129 35q58 34 92 92q34 57 35 129q-1 72 -35 129q-34 58 -92 92q-57 34 -129 35v0zM256 -16q-88 2 -147 61v0q-59 59 -61 147q2 88 61 147t147 61q88 -2 147 -61t61 -147
q-2 -88 -61 -147t-147 -61v0z" />
    <glyph glyph-name="circle-sort-up" unicode="&#xe032;" 
d="M269 331q-5 5 -13 5t-13 -5l-92 -92q-8 -9 -4 -20q5 -10 18 -11h183q12 1 17 11q4 11 -4 20l-92 92v0zM348 176h-183q-13 -1 -18 -11q-4 -11 4 -20l92 -92q5 -5 13 -5t13 5l92 92q8 9 4 20q-5 10 -17 11v0zM256 85l-59 59h118l-59 -59v0zM256 448q-72 -1 -129 -35v0
q-58 -34 -92 -92v0q-34 -57 -35 -129q1 -72 35 -129q34 -58 92 -92q57 -34 129 -35q72 1 129 35q58 34 92 92q34 57 35 129q-1 72 -35 129q-34 58 -92 92q-57 34 -129 35v0zM256 -16q-88 2 -147 61v0q-59 59 -61 147q2 88 61 147t147 61q88 -2 147 -61t61 -147
q-2 -88 -61 -147t-147 -61v0z" />
    <glyph glyph-name="space-station-moon" unicode="&#xe033;" 
d="M0 192q1 72 35 129v0q34 58 92 92v0q57 34 129 35q72 -1 129 -35q58 -34 92 -92q34 -57 35 -129q-1 -72 -35 -129q-34 -58 -92 -92q-57 -34 -129 -35q-72 1 -129 35q-58 34 -92 92q-34 57 -35 129v0zM256 400q-25 0 -48 -6q29 -10 46 -34q18 -24 18 -56q-1 -41 -28 -68
t-68 -28q-41 1 -68 28t-28 67q-31 -49 -32 -111q0 -19 3 -37q1 -1 2 -1v0q25 -10 74 -22q48 -11 129 -12q81 1 129 12q49 12 74 22h1q0 1 1 1q3 18 3 37q-2 88 -61 147t-147 61v0v0zM441 97q-29 -9 -74 -17v0q-46 -8 -111 -8t-111 8q-45 8 -74 17q26 -51 75 -82
q49 -30 110 -31q61 1 110 31q49 31 75 82v0v0zM176 256q20 1 34 14v0q13 14 14 34q-1 20 -14 34q-14 13 -34 14q-20 -1 -34 -14q-13 -14 -14 -34q1 -20 14 -34q14 -13 34 -14v0z" />
    <glyph glyph-name="space-station-moon-construction" unicode="&#xe034;" 
d="M272 304q-1 -41 -28 -68v0q-27 -27 -69 -28q-40 1 -67 28t-28 67q-32 -49 -33 -111q1 -19 4 -37l2 -1q25 -10 74 -22q48 -11 128 -12q81 1 130 12q49 12 74 22v0q5 18 5 37v1q2 22 24 24q22 -2 24 -24v-1q0 -30 -8 -59l-1 -3q-4 -12 -15 -16q-6 -2 -13 -4
q-26 -11 -79 -23q-53 -13 -141 -14q-64 0 -110 8q-45 8 -74 17q26 -51 75 -82q48 -30 109 -31q51 0 93 21t71 58q15 16 34 4q15 -15 4 -34q-36 -45 -88 -71q-51 -25 -113 -26q-72 1 -129 35q-58 34 -92 92q-34 57 -35 129q1 72 35 129q34 58 92 92q57 34 129 35
q68 -1 123 -31q55 -31 91 -84q7 -12 1 -24q-7 -12 -21 -13h-82q-22 2 -24 24q2 22 24 24h29q-57 54 -141 56q-25 0 -48 -6q29 -10 46 -34q18 -24 18 -56v0v0zM175 352q-20 -1 -33 -14v0q-14 -14 -15 -34q1 -20 15 -34q13 -13 33 -14q21 1 34 14q14 14 14 34t-14 34
q-13 13 -34 14v0zM424 264q22 -2 24 -24q-2 -22 -24 -24h-48q-22 2 -24 24q2 22 24 24h48v0z" />
    <glyph glyph-name="sprinkler" unicode="&#xe035;" 
d="M24 344q-22 -2 -24 -24q2 -22 24 -24q22 2 24 24q-2 22 -24 24v0zM24 240q-22 -2 -24 -24q2 -22 24 -24q22 2 24 24q-2 22 -24 24v0zM88 352q22 2 24 24q-2 22 -24 24q-22 -2 -24 -24q2 -22 24 -24v0zM360 296q22 2 24 24q-2 22 -24 24q-22 -2 -24 -24q2 -22 24 -24v0z
M24 448q-22 -2 -24 -24q2 -22 24 -24q22 2 24 24q-2 22 -24 24v0zM152 296q22 2 24 24q-2 22 -24 24q-22 -2 -24 -24q2 -22 24 -24v0zM488 400q22 2 24 24q-2 22 -24 24q-22 -2 -24 -24q2 -22 24 -24v0zM488 240q-22 -2 -24 -24q2 -22 24 -24q22 2 24 24q-2 22 -24 24v0z
M488 344q-22 -2 -24 -24q2 -22 24 -24q22 2 24 24q-2 22 -24 24v0zM424 400q-22 -2 -24 -24q2 -22 24 -24q22 2 24 24q-2 22 -24 24v0zM424 288q-22 -2 -24 -24q2 -22 24 -24q22 2 24 24q-2 22 -24 24v0zM112 264q-2 22 -24 24q-22 -2 -24 -24q2 -22 24 -24q22 2 24 24v0z
M398 192h-118v168q-2 22 -24 24q-22 -2 -24 -24v-168h-118q-11 0 -16 -10t2 -19l67 -78l25 -25v-108q1 -15 16 -16h96q15 1 16 16v108l25 25l67 79q7 8 2 18t-16 10v0zM272 80v-96h-32v96l-60 64h152l-60 -64v0z" />
    <glyph glyph-name="star-shooting" unicode="&#x1f320;" 
d="M364 181l-105 15l-46 95q-7 13 -21 13t-21 -13l-47 -95l-104 -15q-15 -3 -19 -16q-4 -12 6 -24l76 -74l-17 -104q-2 -11 5 -19q6 -8 17 -8q5 0 10 3l94 49l94 -49q5 -3 10 -3q11 0 18 8t5 19l-18 104l76 74q10 12 6 24q-4 13 -19 16v0zM250 84l13 -79l-71 37l-71 -37
l13 79l-57 56l79 12l36 72l36 -72l79 -12l-57 -56v0zM311 248q7 -8 17 -8t17 7l160 160q14 17 0 34q-17 14 -34 0l-160 -160q-14 -17 0 -33v0zM248 352q10 0 17 7l48 48q14 17 0 34q-17 14 -34 0l-48 -48q-14 -17 0 -34q7 -7 17 -7v0zM471 249l-48 -48q-14 -17 0 -34
q7 -7 17 -7t17 7l48 48q14 17 0 34q-17 14 -34 0v0z" />
    <glyph glyph-name="star-shooting" unicode="&#xe036;" 
d="M364 181l-105 15l-46 95q-7 13 -21 13t-21 -13l-47 -95l-104 -15q-15 -3 -19 -16q-4 -12 6 -24l76 -74l-17 -104q-2 -11 5 -19q6 -8 17 -8q5 0 10 3l94 49l94 -49q5 -3 10 -3q11 0 18 8t5 19l-18 104l76 74q10 12 6 24q-4 13 -19 16v0zM250 84l13 -79l-71 37l-71 -37
l13 79l-57 56l79 12l36 72l36 -72l79 -12l-57 -56v0zM311 248q7 -8 17 -8t17 7l160 160q14 17 0 34q-17 14 -34 0l-160 -160q-14 -17 0 -33v0zM248 352q10 0 17 7l48 48q14 17 0 34q-17 14 -34 0l-48 -48q-14 -17 0 -34q7 -7 17 -7v0zM471 249l-48 -48q-14 -17 0 -34
q7 -7 17 -7t17 7l48 48q14 17 0 34q-17 14 -34 0v0z" />
    <glyph glyph-name="starfighter" unicode="&#xe037;" horiz-adv-x="640" 
d="M352 192v-48q-1 -15 -16 -16h-32q-15 1 -16 16v48q0 14 9 23t23 9t23 -9t9 -23v0zM254 413q3 15 13 25v0q11 10 27 10h52q15 0 26 -10t14 -25l25 -206q6 1 13 1h32q24 -1 40 -16q15 -16 16 -40v-56h56v184q-22 2 -24 24q2 22 24 24v24q2 22 24 24q22 -2 24 -24v-24
q22 -2 24 -24q-2 -22 -24 -24v-280q-2 -22 -24 -24q-22 2 -24 24v3l-88 -30v-5q0 -14 -9 -23t-23 -9t-23 9t-9 23v1q-13 1 -24 10q-14 -11 -32 -11h-80q-18 0 -32 11q-11 -9 -24 -10v-1q0 -14 -9 -23t-23 -9t-23 9t-9 23v5l-88 30v-3q-2 -22 -24 -24q-22 2 -24 24v280
q-22 2 -24 24q2 22 24 24v24q2 22 24 24q22 -2 24 -24v-24q22 -2 24 -24q-2 -22 -24 -24v-184h56v56q1 24 16 40q16 15 40 16h32q7 0 13 -1l25 206v0zM368 24v142l-29 234h-38l-30 -234v-142q1 -7 8 -8h81q7 1 8 8v0v0zM416 152v-128q1 -7 8 -8h32q7 1 8 8v128q-1 7 -8 8
h-32q-7 -1 -8 -8v0zM184 160q-7 -1 -8 -8v-128q1 -7 8 -8h32q7 1 8 8v128q-1 7 -8 8h-32v0z" />
    <glyph glyph-name="starfighter-twin-ion-engine" unicode="&#xe038;" horiz-adv-x="576" 
d="M24 416q22 -2 24 -24v-138l106 25q22 34 57 53q34 20 77 20t77 -20q35 -19 57 -53l106 -25v138q2 22 24 24q22 -2 24 -24v-400q-2 -22 -24 -24q-22 2 -24 24v138l-106 -25q-22 -33 -57 -53q-34 -20 -77 -20t-77 20q-35 20 -57 53l-106 25v-138q-2 -22 -24 -24
q-22 2 -24 24v400q2 22 24 24v0zM445 159l83 21v25l-83 20q3 -16 3 -33t-3 -33v0v0zM131 159q-3 16 -3 33t3 33l-83 -20v-25l83 -21v0zM272 81v33q-15 3 -28 11l-23 -23q22 -17 51 -21v0v0zM198 125l23 23q-8 13 -11 28h-33q4 -28 21 -51v0v0zM177 208h33q3 15 11 28l-23 23
q-17 -22 -21 -51v0v0zM221 282l23 -23q13 8 27 11v33q-28 -4 -50 -21v0v0zM332 125q-13 -8 -28 -11v-33q28 4 51 21l-23 23v0zM378 125q17 23 21 51h-33q-3 -15 -11 -28l23 -23v0zM355 236q8 -13 11 -28h33q-4 29 -21 51l-23 -23v0zM355 282q-23 17 -51 21v-33q15 -3 28 -11
l23 23v0zM311 169q9 9 9 23q0 13 -9 22v1q-9 9 -23 9v0q-14 0 -22 -9l-1 -1q-9 -9 -9 -22q0 -14 9 -23t23 -9t23 9v0v0z" />
    <glyph glyph-name="starship" unicode="&#xe039;" horiz-adv-x="640" 
d="M528 192q-1 -34 -23 -57v0q-23 -22 -57 -23q-34 1 -57 23q-22 23 -23 57q1 34 23 57q23 22 57 23q34 -1 57 -23q22 -23 23 -57v0zM448 224q-14 0 -23 -9v0q-9 -9 -9 -23t9 -23t23 -9t23 9t9 23t-9 23t-23 9v0zM0 352q1 27 19 45v0q18 18 45 19h128q27 -1 45 -19t19 -45
q-1 -27 -19 -45t-45 -19h-27l38 -26l70 8q23 51 69 82q47 31 106 32q82 -2 136 -56t56 -136q-2 -82 -56 -136t-136 -56q-59 1 -106 32q-46 31 -69 82l-70 8l-38 -26h27q27 -1 45 -19t19 -45q-1 -27 -19 -45t-45 -19h-128q-27 1 -45 19t-19 45q1 27 19 45t45 19h17l50 35
l-14 1q-23 4 -38 20q-15 17 -15 40t15 40t38 20l14 1l-50 35h-17q-27 1 -45 19t-19 45v0v0zM64 368q-15 -1 -16 -16q1 -15 16 -16h128q15 1 16 16q-1 15 -16 16h-128v0zM112 192q1 -10 11 -11l135 -17q-2 14 -2 28q0 15 2 28l-135 -16q-11 -2 -12 -12h1v0zM64 16h128
q15 1 16 16q-1 15 -16 16h-128q-15 -1 -16 -16q1 -15 16 -16v0zM448 48q61 2 102 42v0q40 41 42 102q-2 61 -42 102q-41 40 -102 42q-61 -2 -102 -42q-40 -41 -42 -102q2 -61 42 -102q41 -40 102 -42v0z" />
    <glyph glyph-name="starship-freighter" unicode="&#xe03a;" horiz-adv-x="576" 
d="M71 193q2 14 16 16q15 -2 16 -16q-1 -15 -16 -16q-14 1 -16 16v0zM135 289q-1 -15 -16 -16q-14 1 -16 16q2 14 16 16q15 -2 16 -16v0zM103 96q2 15 16 16q15 -1 16 -16q-1 -15 -16 -16q-14 1 -16 16v0zM556 72l-57 -22q13 -18 13 -42q-1 -31 -21 -51t-51 -21h-72
q-35 1 -57 28l-10 13q-38 -9 -77 -9q-63 1 -113 31q-51 29 -80 80q-30 50 -31 113q1 63 31 113q29 51 80 80q50 30 113 31q64 0 124 -23l208 -81q19 -9 20 -30v-180q-1 -21 -20 -30v0v0zM223 369q-74 -2 -124 -52v0q-50 -50 -52 -124q2 -76 52 -125q50 -50 124 -52
q23 0 44 5l-60 76q-34 7 -57 33q-22 26 -23 63q1 41 28 68t68 28q42 -1 69 -28t28 -68v-2q-1 -2 0 -3l60 -78q20 37 20 83q-2 74 -52 124q-49 50 -125 52v0v0zM440 80h3l85 33v56h-81q-6 -49 -29 -89h22v0zM528 217v54l-118 46q30 -45 37 -100h81v0zM223 241q-20 -1 -33 -15
v0q-14 -13 -15 -33q1 -21 15 -34q13 -14 33 -14q21 0 34 14q14 13 14 34q0 20 -14 33q-13 14 -34 15v0zM368 -16h72q22 2 24 24q-2 22 -24 24h-60l-79 102q-15 -19 -38 -30l86 -111q7 -9 19 -9v0v0z" />
    <glyph glyph-name="sword-laser" unicode="&#xe03b;" 
d="M177 224q-6 5 -12 0l-11 -11q-5 -5 0 -11l4 -5l-142 -142q-16 -17 -16 -39q0 -21 16 -38l26 -26q17 -16 38 -16q22 0 39 16l142 142l6 -5q6 -5 11 0l12 11q4 6 0 11l-113 113v0zM85 -13q-5 -4 -9 0l-26 26q-4 4 0 9l63 63l35 -35l-63 -63v0zM160 60l-36 36l12 11l35 -35
l-11 -12v0zM182 83l-35 35l11 12l35 -36l-11 -11v0zM205 106l-35 35l11 11l35 -35l-11 -11v0zM503 439q-9 9 -20 9v0q-12 0 -21 -8l-238 -218l62 -62l218 238q8 9 8 21q0 11 -9 20v0z" />
    <glyph glyph-name="sword-laser-alt" unicode="&#xe03c;" 
d="M119 -47l212 213q7 8 3 17t-15 10l-159 -1q-7 0 -12 -5l-132 -132q-16 -17 -16 -39q0 -21 16 -38l26 -26q17 -16 38 -16q22 0 39 17v0zM173 145h70l-70 -70l-35 35l35 35v0zM50 12q-4 4 0 9l65 65l11 -10l-70 -70l-6 6v0zM76 -13l-6 6l70 70l10 -11l-65 -65q-5 -5 -9 0v0
zM503 439q-9 9 -20 9v0q-12 0 -21 -8l-235 -216h117l160 173q16 22 -1 42v0z" />
    <glyph glyph-name="swords-laser" unicode="&#xe03d;" horiz-adv-x="640" 
d="M137 439q-9 -9 -9 -20v0q0 -12 8 -21l215 -235v117l-173 160q-9 8 -21 8q-11 0 -20 -9v0zM623 55l-213 211q-7 7 -17 4q-9 -4 -10 -15v-159q0 -7 5 -12l132 -132q17 -16 39 -16t38 16l26 26q17 17 17 38q0 22 -17 39v0zM431 109v70l70 -70l-35 -35l-35 35v0zM564 -14
q-1 -2 -4 -2t-5 2l-65 65l10 11l70 -70l-6 -6v0zM590 12l-6 -6l-70 70l11 10l65 -65q4 -5 0 -9v0zM415 301l89 97q16 20 -1 41q-9 9 -20 9q-12 0 -21 -8l-118 -109l35 -32q10 4 21 4q7 0 15 -2v0zM241 237l-40 -37l-24 24q-6 5 -12 0l-11 -11q-5 -5 0 -11l4 -5l-142 -142
q-16 -17 -16 -38q0 -22 16 -39l26 -26q17 -16 38 -16q22 0 39 16l142 143l6 -6q6 -5 11 0l12 11q4 6 0 11l-26 26l34 37l-57 63v0zM85 -13q-5 -4 -9 0l-26 26q-4 4 0 9l63 63l35 -35l-63 -63v0zM160 60l-36 36l12 11l35 -35l-11 -12v0zM182 83l-35 35l11 11l35 -35l-11 -11
v0zM205 106l-35 35l11 11l35 -35l-11 -11v0z" />
    <glyph glyph-name="telescope" unicode="&#x1f52d;" horiz-adv-x="640" 
d="M639 231l-86 206q-7 13 -21 9l-117 -49q-13 -6 -9 -21l3 -7l-335 -163q-13 -7 -9 -21l9 -21l-64 -26q-9 -5 -10 -15q0 -3 1 -6l20 -49q5 -9 15 -10q3 0 6 2l64 26l9 -21q6 -12 21 -8l127 43v0h1l-47 -131q-5 -21 15 -31q4 -2 7 -2q16 1 23 16l43 122q7 -2 14 -2q8 0 15 2
l42 -122q8 -15 23 -16q4 0 8 1q20 10 15 31l-47 132q16 18 16 44v0v1l97 33l3 -8q7 -13 21 -8l117 48q14 8 10 21v0zM319 121q-22 2 -24 24q2 22 24 24q22 -2 24 -24q-1 -22 -24 -24v0zM375 190q-21 25 -55 26q-30 -1 -50 -20q-20 -20 -22 -50l-100 -35l-27 65l307 149
l42 -102l-95 -33v0zM523 218l-61 148l58 24l61 -148l-58 -24v0z" />
    <glyph glyph-name="telescope" unicode="&#xe03e;" horiz-adv-x="640" 
d="M639 231l-86 206q-7 13 -21 9l-117 -49q-13 -6 -9 -21l3 -7l-335 -163q-13 -7 -9 -21l9 -21l-64 -26q-9 -5 -10 -15q0 -3 1 -6l20 -49q5 -9 15 -10q3 0 6 2l64 26l9 -21q6 -12 21 -8l127 43v0h1l-47 -131q-5 -21 15 -31q4 -2 7 -2q16 1 23 16l43 122q7 -2 14 -2q8 0 15 2
l42 -122q8 -15 23 -16q4 0 8 1q20 10 15 31l-47 132q16 18 16 44v0v1l97 33l3 -8q7 -13 21 -8l117 48q14 8 10 21v0zM319 121q-22 2 -24 24q2 22 24 24q22 -2 24 -24q-1 -22 -24 -24v0zM375 190q-21 25 -55 26q-30 -1 -50 -20q-20 -20 -22 -50l-100 -35l-27 65l307 149
l42 -102l-95 -33v0zM523 218l-61 148l58 24l61 -148l-58 -24v0z" />
    <glyph glyph-name="temperature-arrow-down" unicode="&#xe03f;" 
d="M192 80q-1 -20 -14 -34v0q-14 -14 -34 -14t-34 14q-13 14 -14 34q2 33 32 45v19q2 15 15 16q14 -1 15 -16v-19q32 -12 34 -45v0zM255 169q31 -37 32 -89q-1 -61 -42 -102q-40 -40 -101 -42q-61 2 -101 42q-41 41 -43 102q1 52 32 89v167q1 48 33 79q31 32 79 33
q48 -1 79 -33q31 -31 32 -79v-167v0zM240 80q0 20 -7 35v0q-7 15 -14 25l-11 13v183q-1 27 -19 45t-45 19q-27 -1 -45 -19t-19 -45v-183l-10 -14q-8 -9 -15 -24t-7 -35q1 -41 28 -68t68 -28q41 1 68 28t28 68v0zM504 90q-18 13 -34 -2l-30 -34v338q-2 22 -24 24
q-22 -2 -24 -24v-338l-30 34q-16 15 -34 2q-15 -16 -2 -34l72 -80q7 -8 18 -8t18 8l72 80q13 18 -2 34v0z" />
    <glyph glyph-name="temperature-arrow-up" unicode="&#xe040;" 
d="M192 80q-1 -20 -14 -34v0q-14 -14 -34 -14t-34 14q-13 14 -14 34q2 33 32 45v211q1 15 16 16q14 -1 15 -16v-211q31 -12 33 -45v0zM255 169q31 -37 32 -89q-1 -61 -42 -102q-40 -40 -101 -42q-61 2 -101 42q-41 41 -43 102q1 52 32 89v167q1 48 33 79q31 32 79 33
q48 -1 79 -33q31 -31 32 -79v-167v0zM240 80q0 20 -7 35v0q-7 15 -14 25l-11 13v183q-1 27 -19 45t-45 19q-27 -1 -45 -19t-19 -45v-183l-10 -14q-8 -9 -15 -24t-7 -35q1 -41 28 -68t68 -28q41 1 68 28t28 68v0zM504 294q-18 -13 -34 2l-30 33v-337q-2 -22 -24 -24
q-22 2 -24 24v337l-30 -33q-16 -15 -34 -2q-15 16 -2 34l72 80q7 8 18 8t18 -8l72 -80q13 -17 -2 -34v0z" />
    <glyph glyph-name="trailer" unicode="&#xe041;" horiz-adv-x="640" 
d="M136 336q22 -2 24 -24v-96q-2 -22 -24 -24q-22 2 -24 24v96q2 22 24 24v0zM232 336q22 -2 24 -24v-96q-2 -22 -24 -24q-22 2 -24 24v96q2 22 24 24v0zM328 336q22 -2 24 -24v-144q-2 -22 -24 -24q-22 2 -24 24v144q2 22 24 24v0zM424 336q22 -2 24 -24v-144
q-2 -22 -24 -24q-22 2 -24 24v144q2 22 24 24v0zM192 -32q-41 1 -68 28v0q-27 27 -28 68h-32q-27 1 -45 19t-19 45v224q1 27 19 45t45 19h432q27 -1 45 -19t19 -45v-240h56q22 -2 24 -24q-2 -22 -24 -24h-328q-1 -41 -28 -68t-68 -28v0zM64 368q-15 -1 -16 -16v-224
q1 -15 16 -16h45q13 22 34 35q22 13 49 13t49 -13q21 -13 34 -35h237v240q-1 15 -16 16h-432v0zM192 112q-20 -1 -34 -14v0q-13 -14 -14 -34q1 -20 14 -34q14 -13 34 -14q20 1 34 14q13 14 14 34q-1 20 -14 34q-14 13 -34 14v0z" />
    <glyph glyph-name="transporter" unicode="&#xe042;" 
d="M256 352q20 1 34 14v0q13 14 14 34q-1 20 -14 34q-14 13 -34 14q-20 -1 -34 -14q-13 -14 -14 -34q1 -20 14 -34q14 -13 34 -14v0zM94 340l-30 12l-12 30q-2 2 -4 2t-4 -2l-12 -30l-30 -12q-2 -2 -2 -4t2 -4l30 -12l12 -30q2 -2 4 -2t4 2l12 30l30 12q2 2 2 4t-2 4v0z
M510 404l-30 12l-12 30q-2 2 -4 2t-4 -2l-12 -30l-30 -12q-2 -2 -2 -4t2 -4l30 -12l12 -30q2 -2 4 -2t4 2l12 30l30 12q2 2 2 4t-2 4v0zM392 -16h-72v253l53 -68q15 -16 34 -4q16 15 4 34l-78 100q-18 20 -44 21h-65q-27 -1 -44 -21l-79 -100q-12 -19 4 -34q19 -12 34 4
l53 68v-253h-72q-22 -2 -24 -24q2 -22 24 -24h272q22 2 24 24q-2 22 -24 24v0zM264 -16h-16v144h16v-144v0z" />
    <glyph glyph-name="transporter-1" unicode="&#xe043;" 
d="M120 160q11 0 19 9l53 68v-109h-16q-15 -1 -16 -16q1 -15 16 -16h160q15 1 16 16q-1 15 -16 16h-16v109l53 -68q15 -16 34 -4q16 15 4 34l-78 100q-18 20 -45 21h-64q-27 -1 -44 -21l-79 -100q-9 -12 -3 -26q7 -12 22 -13v0zM336 64h-160q-15 -1 -16 -16q1 -15 16 -16
h160q15 1 16 16q-1 15 -16 16v0zM256 352q20 1 34 14v0q13 14 14 34q-1 20 -14 34q-14 13 -34 14q-20 -1 -34 -14q-13 -14 -14 -34q1 -20 14 -34q14 -13 34 -14v0zM94 84l-30 12l-12 30q-2 2 -4 2t-4 -2l-12 -30l-30 -12q-2 -2 -2 -4t2 -4l30 -12l12 -30q2 -2 4 -2t4 2
l12 30l30 12q2 2 2 4t-2 4v0zM510 276l-30 12l-12 30q-2 2 -4 2t-4 -2l-12 -30l-30 -12q-2 -2 -2 -4t2 -4l30 -12l12 -30q2 -2 4 -2t4 2l12 30l30 12q2 2 2 4t-2 4v0zM392 -16h-40q-1 15 -16 16h-160q-15 -1 -16 -16h-40q-22 -2 -24 -24q2 -22 24 -24h272q22 2 24 24
q-2 22 -24 24v0z" />
    <glyph glyph-name="transporter-2" unicode="&#xe044;" 
d="M112 160h288q15 1 16 16q-1 15 -16 16h-288q-15 -1 -16 -16q1 -15 16 -16v0zM333 299q-18 20 -44 21h-65q-27 -1 -44 -21l-59 -75h270l-58 75v0zM256 352q20 1 34 14v0q13 14 14 34q-1 20 -14 34q-14 13 -34 14q-20 -1 -34 -14q-13 -14 -14 -34q1 -20 14 -34
q14 -13 34 -14v0zM336 128h-160q-15 -1 -16 -16q1 -15 16 -16h160q15 1 16 16q-1 15 -16 16v0zM392 -16h-40q-1 15 -16 16h-160q-15 -1 -16 -16h-40q-22 -2 -24 -24q2 -22 24 -24h272q22 2 24 24q-2 22 -24 24v0zM510 84l-30 12l-12 30q-2 2 -4 2t-4 -2l-12 -30l-30 -12
q-2 -2 -2 -4t2 -4l30 -12l12 -30q2 -2 4 -2t4 2l12 30l30 12q2 2 2 4t-2 4v0zM94 404l-30 12l-12 30q-2 2 -4 2t-4 -2l-12 -30l-30 -12q-2 -2 -2 -4t2 -4l30 -12l12 -30q2 -2 4 -2t4 2l12 30l30 12q2 2 2 4t-2 4v0zM336 64h-160q-15 -1 -16 -16q1 -15 16 -16h160q15 1 16 16
q-1 15 -16 16v0z" />
    <glyph glyph-name="transporter-3" unicode="&#xe045;" 
d="M144 224h224q15 1 16 16q-1 15 -16 16h-224q-15 -1 -16 -16q1 -15 16 -16v0zM176 288h160q15 1 16 16q-1 15 -16 16h-160q-15 -1 -16 -16q1 -15 16 -16v0zM94 308l-30 12l-12 30q-2 2 -4 2t-4 -2l-12 -30l-30 -12q-2 -2 -2 -4t2 -4l30 -12l12 -30q2 -2 4 -2t4 2l12 30
l30 12q2 2 2 4t-2 4v0zM256 352q20 1 34 14v0q13 14 14 34q-1 20 -14 34q-14 13 -34 14q-20 -1 -34 -14q-13 -14 -14 -34q1 -20 14 -34q14 -13 34 -14v0zM510 404l-30 12l-12 30q-2 2 -4 2t-4 -2l-12 -30l-30 -12q-2 -2 -2 -4t2 -4l30 -12l12 -30q2 -2 4 -2t4 2l12 30l30 12
q2 2 2 4t-2 4v0zM392 -16h-40q-1 15 -16 16h-160q-15 -1 -16 -16h-40q-22 -2 -24 -24q2 -22 24 -24h272q22 2 24 24q-2 22 -24 24v0zM400 192h-288q-15 -1 -16 -16q1 -15 16 -16h288q15 1 16 16q-1 15 -16 16v0zM176 96h160q15 1 16 16q-1 15 -16 16h-160q-15 -1 -16 -16
q1 -15 16 -16v0zM176 32h160q15 1 16 16q-1 15 -16 16h-160q-15 -1 -16 -16q1 -15 16 -16v0z" />
    <glyph glyph-name="transporter-empty" unicode="&#xe046;" horiz-adv-x="320" 
d="M296 -16h-273q-21 -2 -23 -24q2 -22 23 -24h272q23 2 25 24q-2 22 -24 24v0z" />
    <glyph glyph-name="ufo" unicode="&#x1f6f8;" horiz-adv-x="640" 
d="M152 136q-2 -22 -24 -24q-22 2 -24 24q2 22 24 24q22 -2 24 -24v0zM344 96q-2 -22 -24 -24q-22 2 -24 24q2 22 24 24q22 -2 24 -24v0zM488 136q2 22 24 24q22 -2 24 -24q-2 -22 -24 -24q-22 2 -24 24v0zM587 225q23 -15 38 -35v0q14 -21 15 -47q-2 -38 -31 -63
q-27 -26 -71 -43q-43 -18 -99 -27q-56 -10 -119 -10q-130 1 -218 37q-44 17 -71 43q-29 25 -31 63q1 26 15 47q15 20 38 35q43 28 108 44q18 52 61 83t98 32q55 -1 98 -32t61 -83q65 -16 108 -44v0zM177 202l-18 -17q-6 6 -6 15q-1 8 -1 17q-46 -13 -72 -31q-34 -26 -32 -43
q-1 -11 16 -29q18 -17 56 -33q38 -15 89 -24t111 -9t111 9t89 24q38 16 56 33q17 18 16 29q2 17 -31 43q-27 18 -74 31q1 -9 0 -17q0 -9 -6 -15l-18 17q13 -12 16 -15l2 -2v0v0v1v-1h-1v0q-1 -2 -2 -3q-3 -2 -8 -6q-10 -8 -29 -16q-39 -21 -121 -23q-82 2 -121 23
q-19 8 -29 16q-5 4 -8 6q-1 1 -2 3v0q-1 -1 0 0l-1 1v-1v0v0l2 2q3 3 16 15v0v0zM439 213q0 54 -35 88v0q-34 34 -84 35q-50 -1 -85 -35q-34 -34 -35 -88q6 -4 19 -10q29 -16 101 -19q72 3 101 19q13 6 18 10v0v0z" />
    <glyph glyph-name="ufo" unicode="&#xe047;" horiz-adv-x="640" 
d="M152 136q-2 -22 -24 -24q-22 2 -24 24q2 22 24 24q22 -2 24 -24v0zM344 96q-2 -22 -24 -24q-22 2 -24 24q2 22 24 24q22 -2 24 -24v0zM488 136q2 22 24 24q22 -2 24 -24q-2 -22 -24 -24q-22 2 -24 24v0zM587 225q23 -15 38 -35v0q14 -21 15 -47q-2 -38 -31 -63
q-27 -26 -71 -43q-43 -18 -99 -27q-56 -10 -119 -10q-130 1 -218 37q-44 17 -71 43q-29 25 -31 63q1 26 15 47q15 20 38 35q43 28 108 44q18 52 61 83t98 32q55 -1 98 -32t61 -83q65 -16 108 -44v0zM177 202l-18 -17q-6 6 -6 15q-1 8 -1 17q-46 -13 -72 -31q-34 -26 -32 -43
q-1 -11 16 -29q18 -17 56 -33q38 -15 89 -24t111 -9t111 9t89 24q38 16 56 33q17 18 16 29q2 17 -31 43q-27 18 -74 31q1 -9 0 -17q0 -9 -6 -15l-18 17q13 -12 16 -15l2 -2v0v0v1v-1h-1v0q-1 -2 -2 -3q-3 -2 -8 -6q-10 -8 -29 -16q-39 -21 -121 -23q-82 2 -121 23
q-19 8 -29 16q-5 4 -8 6q-1 1 -2 3v0q-1 -1 0 0l-1 1v-1v0v0l2 2q3 3 16 15v0v0zM439 213q0 54 -35 88v0q-34 34 -84 35q-50 -1 -85 -35q-34 -34 -35 -88q6 -4 19 -10q29 -16 101 -19q72 3 101 19q13 6 18 10v0v0z" />
    <glyph glyph-name="ufo-beam" unicode="&#xe048;" horiz-adv-x="576" 
d="M49 321q37 22 92 35q19 42 59 67q39 24 88 25q49 -1 88 -25q40 -25 59 -67q55 -13 92 -35q20 -12 34 -30q14 -17 15 -41q-2 -34 -29 -56q-25 -22 -64 -36q-81 -29 -196 -29q-56 0 -106 7q-49 8 -88 22t-64 36q-27 22 -29 56q1 24 15 41q14 18 34 30v0v0zM153 285l-17 -17
q-7 6 -7 14q-2 9 -1 18v3q-33 -10 -54 -23q-30 -21 -27 -30q-1 -6 14 -20t49 -27q69 -26 177 -27q110 1 179 27q34 13 49 27q14 14 13 20q0 4 -5 12t-21 18q-21 13 -54 23q0 -10 -1 -21q0 -8 -7 -14l-16 17q12 -13 14 -15q3 -3 2 -2v0v-1v0v0h-1v-1q0 1 -1 0q0 -1 -1 -1
q-3 -3 -7 -6q-10 -7 -28 -15q-36 -17 -114 -19q-78 2 -114 19q-18 8 -28 15q-4 3 -7 6q-1 0 -1 1q-1 1 -1 0l-1 1v0v0v1v0q-1 -1 2 2l15 15v0v0zM399 298q-1 43 -32 72v0q-32 29 -79 30q-47 -1 -79 -30q-31 -29 -33 -72q6 -5 17 -10q27 -14 95 -16q69 2 95 16q12 5 16 10v0
v0zM45 -51q-12 -19 -32 -10q-19 12 -10 32l72 136q12 19 32 10q9 -4 12 -14q3 -9 -2 -18l-72 -136v0zM573 -29q9 -20 -10 -32q-9 -5 -18 -2q-10 3 -14 12l-72 136q-5 9 -2 18q3 10 12 14q20 9 32 -10l72 -136v0z" />
    <glyph glyph-name="user-alien" unicode="&#xe04a;" horiz-adv-x="448" 
d="M249 216h20q22 1 36 14q14 14 15 34v6q-1 9 -11 10h-20q-20 -1 -34 -14q-14 -14 -15 -34v-6q1 -9 9 -10v0zM197 216q10 1 11 10v6q-1 20 -15 34q-14 13 -35 14h-20q-9 -1 -10 -10v-6q1 -20 15 -34q14 -13 34 -14h20v0zM330 94q-26 -26 -51 -46h36q30 -1 52 -18
q23 -18 30 -46h-346q7 28 30 46q22 17 52 18h36q-25 20 -51 46q-51 -7 -84 -43t-34 -88q2 -25 27 -27h394q25 2 27 27q-1 52 -34 88t-84 43v0zM209 56q7 -4 15 -5q8 0 15 5q24 19 60 52q36 34 64 76t29 85q-1 81 -47 129q-46 49 -121 50q-75 -1 -121 -50q-46 -48 -47 -129
q1 -43 29 -85t64 -76q36 -33 60 -52v0zM224 400q55 -1 87 -36v0q32 -34 33 -95q-1 -31 -32 -74q-32 -43 -88 -89q-56 46 -88 89q-31 43 -32 74q1 61 33 95q32 35 87 36v0z" />
    <glyph glyph-name="user-robot" unicode="&#xe04b;" horiz-adv-x="448" 
d="M208 272q0 -14 -9 -23v0q-9 -9 -23 -9t-23 9t-9 23t9 23t23 9t23 -9t9 -23v0zM240 272q0 14 9 23v0q9 9 23 9t23 -9t9 -23t-9 -23t-23 -9t-23 9t-9 23v0zM240 384h64q34 -1 57 -23q22 -23 23 -57v-96q-1 -34 -23 -57q-23 -22 -57 -23h-160q-34 1 -57 23q-22 23 -23 57v96
q1 34 23 57q23 22 57 23h64v48q1 15 16 16q15 -1 16 -16v-48v0zM336 304q0 14 -9 23v0q-9 9 -23 9h-160q-14 0 -23 -9t-9 -23v-96q0 -14 9 -23t23 -9v16q1 15 16 16q15 -1 16 -16v-16h32v16q1 15 16 16q15 -1 16 -16v-16h32v16q1 15 16 16q15 -1 16 -16v-16q14 0 23 9t9 23
v96v0zM48 -64q-20 1 -34 14v0q-13 14 -14 34v16q1 41 28 68t68 28h256q41 -1 68 -28t28 -68v-16q-1 -20 -14 -34q-14 -13 -34 -14h-352v0zM400 0q-1 20 -14 34v0q-14 13 -34 14h-256q-20 -1 -34 -14q-13 -14 -14 -34v-16h96v32q1 15 16 16q15 -1 16 -16v-32h32v32
q1 15 16 16q15 -1 16 -16v-32h32v32q1 15 16 16q15 -1 16 -16v-32h96v16v0zM32 304v-96q-1 -15 -16 -16q-15 1 -16 16v96q1 15 16 16q15 -1 16 -16v0zM448 208q-1 -15 -16 -16q-15 1 -16 16v96q1 15 16 16q15 -1 16 -16v-96v0z" />
    <glyph glyph-name="user-visor" unicode="&#xe04c;" horiz-adv-x="448" 
d="M275 144h-102q-73 -2 -122 -51t-51 -122q0 -15 10 -25t25 -10h378q15 0 25 10t10 25q-2 73 -51 122t-122 51v0zM49 -16q6 48 40 80v0q35 31 84 32h102q49 -1 83 -32q35 -32 41 -80h-350v0zM105 273q15 -36 46 -58v0q32 -22 73 -23q41 1 73 23q31 22 45 58q24 7 26 31v48
q0 14 -9 23t-23 9h-2q-17 29 -45 46q-29 18 -65 18t-65 -18q-28 -17 -45 -46h-2q-14 0 -23 -9t-9 -23v-48q2 -24 25 -31v0zM224 240q-40 2 -64 32h128q-24 -30 -64 -32v0zM224 400q27 -1 48 -16h-95q20 15 47 16v0zM128 336h192v-16h-192v16v0zM309 79q25 -31 27 -76
q0 -2 -2 -3h-2t-2 1q-16 20 -18 21h-1q-2 1 -33 -21q-2 -1 -4 0t-2 3q5 46 32 75q1 1 3 1q1 0 2 -1v0z" />
    <glyph glyph-name="vacuum" unicode="&#xe04d;" horiz-adv-x="640" 
d="M640 328q-1 51 -35 85v0q-34 34 -85 35h-210q-44 -1 -76 -27t-42 -68l-62 -289h-34q-41 -1 -68 -28t-28 -68v-16q1 -15 16 -16h208q14 0 23 9t9 23v64q0 14 -9 23t-23 9h-45l60 279q6 25 25 41q20 15 46 16h210q26 0 45 -15q19 -16 25 -41q6 -24 -5 -47q-10 -22 -33 -33
q-57 55 -136 56h-32q-14 0 -23 -9t-9 -23v-171q23 11 48 11v144h16q61 -2 102 -42q40 -41 42 -102v-128q-1 -15 -16 -16h-37q-8 -28 -29 -48h66q27 1 45 19t19 45v128q0 53 -27 98q27 16 43 42q16 27 16 60v0zM208 16v-32h-157q12 30 45 32h112v0zM400 96q-34 -1 -57 -23v0
q-22 -23 -23 -57q1 -34 23 -57q23 -22 57 -23q34 1 57 23q22 23 23 57q-1 34 -23 57q-23 22 -57 23v0zM400 0q-15 1 -16 16q1 15 16 16q15 -1 16 -16q-1 -15 -16 -16v0z" />
    <glyph glyph-name="vacuum-robot" unicode="&#xe04e;" 
d="M139 139q-11 10 -22 0q-10 -11 0 -22l64 -64q5 -5 11 -5t11 5q10 11 0 22l-64 64v0zM235 235q-11 10 -22 0q-10 -11 0 -22l64 -64q5 -5 11 -4q6 0 11 5q10 11 0 22l-64 63v0zM155 219q-11 10 -22 0q-10 -11 0 -22l128 -128q5 -5 11 -5t11 5q10 11 0 22l-128 128v0z
M256 352q-66 -1 -113 -47q-14 -17 0 -34q17 -14 34 0q32 32 79 33q48 -1 79 -33q32 -31 33 -79q-1 -46 -33 -79q-14 -17 0 -34q7 -7 17 -7t17 7q46 47 47 113q-2 68 -47 113t-113 47v0zM256 448q-72 -1 -129 -35v0q-58 -34 -92 -92v0q-34 -57 -35 -129q1 -72 35 -129
q34 -58 92 -92q57 -34 129 -35q72 1 129 35q58 34 92 92q34 57 35 129q-1 72 -35 129q-34 58 -92 92q-57 34 -129 35v0zM256 -16q-88 2 -147 61v0q-59 59 -61 147q2 88 61 147t147 61q88 -2 147 -61t61 -147q-2 -88 -61 -147t-147 -61v0z" />
    <glyph glyph-name="window-frame" unicode="&#x1fa9f;" 
d="M488 -16h-8v432q0 14 -9 23t-23 9h-384q-14 0 -23 -9t-9 -23v-432h-9q-21 -2 -23 -23q0 -10 7 -17q7 -8 16 -8h465q22 2 24 23q0 10 -7 17q-7 8 -17 8v0zM232 -16h-152v192h152v-192v0zM232 224h-152v176h152v-176v0zM432 -16h-152v192h152v-192v0zM432 224h-152v176h152
v-176v0z" />
    <glyph glyph-name="window-frame" unicode="&#xe04f;" 
d="M488 -16h-8v432q0 14 -9 23t-23 9h-384q-14 0 -23 -9t-9 -23v-432h-9q-21 -2 -23 -23q0 -10 7 -17q7 -8 16 -8h465q22 2 24 23q0 10 -7 17q-7 8 -17 8v0zM232 -16h-152v192h152v-192v0zM232 224h-152v176h152v-176v0zM432 -16h-152v192h152v-192v0zM432 224h-152v176h152
v-176v0z" />
    <glyph glyph-name="window-frame-open" unicode="&#xe050;" 
d="M488 -16h-8v144h-48v-144h-352v144h-48v-144h-9q-21 -2 -23 -23q0 -10 7 -17q7 -8 16 -8h465q22 2 24 23q0 10 -7 17q-7 8 -17 8v0zM480 416q0 14 -9 23v0q-9 9 -23 9h-384q-14 0 -23 -9t-9 -23v-240h448v240v0zM232 224h-152v176h152v-176v0zM432 224h-152v176h152v-176
v0z" />
    <glyph glyph-name="coffin-cross" unicode="&#xe051;" horiz-adv-x="384" 
d="M375 333l-108 106q-10 9 -23 9h-104q-13 0 -23 -9l-108 -106q-12 -13 -8 -31l87 -342q7 -23 32 -24h144q25 1 32 24l87 342q4 18 -8 31v0zM253 -16h-121l-82 321l97 95h91l96 -95l-81 -321v0zM216 328q-2 22 -24 24q-22 -2 -25 -24v-40h-48q-21 -2 -23 -23q0 -10 7 -17
q7 -8 16 -8h48v-119q0 -11 7 -18t17 -7q22 2 24 24v120h48q22 2 24 24q-1 22 -23 24h-48v40v0z" />
    <glyph glyph-name="folder-arrow-down" unicode="&#xe053;" 
d="M448 352h-172l-49 45q-19 19 -45 19h-118q-27 -1 -45 -19t-19 -45v-320q1 -27 19 -45t45 -19h384q27 1 45 19t19 45v256q-1 27 -19 45t-45 19v0zM464 32q-1 -15 -16 -16h-384q-15 1 -16 16v320q1 15 16 16h118q6 0 11 -5l63 -59h192q15 -1 16 -16v-256v0zM319 177
l-39 -39v102q-2 22 -24 24q-22 -2 -24 -24v-102l-40 39q-17 14 -34 0q-14 -17 0 -34l80 -80q9 -7 18 -7q10 0 17 7l80 80q14 17 0 34q-17 14 -34 0v0z" />
    <glyph glyph-name="folder-arrow-up" unicode="&#xe054;" 
d="M272 257q-17 14 -34 0l-80 -80q-14 -17 0 -34q17 -14 34 0l40 39v-102q2 -22 24 -24q22 2 24 24v102l39 -39q7 -7 17 -7t17 7q14 17 0 34l-81 80v0zM448 352h-172l-49 45q-19 19 -45 19h-118q-27 -1 -45 -19t-19 -45v-320q1 -27 19 -45t45 -19h384q27 1 45 19t19 45v256
q-1 27 -19 45t-45 19v0zM464 32q-1 -15 -16 -16h-384q-15 1 -16 16v320q1 15 16 16h118q6 0 11 -5l63 -59h192q15 -1 16 -16v-256v0z" />
    <glyph glyph-name="user-unlock" unicode="&#xe058;" horiz-adv-x="640" 
d="M224 192q54 1 91 37v0q36 37 37 91q-1 54 -37 91q-37 36 -91 37q-54 -1 -91 -37q-36 -37 -37 -91q1 -54 37 -91q37 -36 91 -37v0zM224 400q34 -1 57 -23v0q22 -23 23 -57q-1 -34 -23 -57q-23 -22 -57 -23q-34 1 -57 23q-22 23 -23 57q1 34 23 57q23 22 57 23v0zM592 160
h-128v80q0 14 9 23t23 9t23 -9t9 -23v-16h48v11q-1 33 -20 57q-20 23 -52 28h-8q-34 0 -57 -23q-22 -23 -23 -57v-80h-16q-20 -1 -34 -14q-13 -14 -14 -34v-128q1 -20 14 -34q14 -13 34 -14h192q20 1 34 14q13 14 14 34v128q-1 20 -14 34q-14 13 -34 14v0zM496 16
q-14 0 -23 9v0q-9 9 -9 23t9 23t23 9t23 -9t9 -23t-9 -23t-23 -9v0zM320 -16q1 -28 16 -48h-304q-14 0 -23 9t-9 23q2 75 52 124q49 50 124 52h96q27 0 52 -8q-4 -11 -4 -24v-26q-23 10 -48 10h-96q-50 -1 -85 -32q-35 -32 -42 -80h271v0z" />
    <glyph glyph-name="bacteria" unicode="&#xe059;" horiz-adv-x="640" 
d="M191 320q-15 -1 -16 -16q1 -15 16 -16q15 1 16 16q-1 15 -16 16v0zM111 224q-14 -2 -15 -15q2 -15 15 -17q15 1 16 16q-1 15 -16 16v0zM399 64q-14 -2 -15 -15q2 -14 15 -16q15 1 16 16q-1 14 -16 15v0zM614 217l13 4q15 6 12 22q-7 15 -22 12l-13 -4q-13 21 -35 33l3 14
q3 16 -12 21q-17 3 -22 -12l-4 -14v0q-4 1 -17 -1q-12 -1 -30 -11l-9 10q-4 3 -11 5t-15 -5q-10 -12 0 -25l10 -10q-10 -14 -13 -32q-1 -6 -3 -11q0 -2 -1 -3l-9 4q-15 6 -23 -8q-6 -15 8 -24l9 -4q-14 -21 -35 -34l-4 9q-8 14 -23 9q-15 -8 -9 -23l4 -9q-2 -1 -4 -1l-8 -2
q-19 -4 -34 -14l-11 9q-12 10 -25 -1q-10 -13 2 -25l10 -10q-12 -21 -11 -47l-13 -4q-15 -6 -12 -22q6 -15 22 -12l13 4q13 -22 35 -33l-3 -14q-3 -16 13 -21q16 -3 21 12l4 14q5 -1 16 1q11 1 32 7l4 -11q7 -15 23 -11q15 7 11 23l-4 11q23 10 44 23l7 -9q11 -12 25 -4
q12 11 3 25l-7 9q19 16 35 35l9 -7q15 -8 25 4q9 14 -3 25l-10 7q13 21 23 44l11 -4q16 -4 23 11q4 16 -11 22l-11 4q4 14 6 29q2 10 1 20v0zM370 8h-6q-13 0 -23 9q-10 8 -13 21q-2 15 7 27q8 11 23 15q54 9 91 47q38 37 47 91q7 28 36 30h6q14 -3 23 -15t6 -27
q-13 -77 -67 -130q-53 -54 -130 -68v0zM272 222q15 8 9 23l-4 9q2 1 4 1l8 2q19 4 34 14l11 -9q12 -10 25 1q10 13 -2 25l-10 10q12 21 11 47l13 4q15 6 12 22q-6 15 -22 12l-13 -4q-13 22 -35 33l3 14q3 16 -12 21q-17 3 -22 -12l-4 -14q-5 1 -16 -1q-11 -1 -32 -7l-4 11
q-7 15 -24 11q-14 -7 -10 -23l4 -11q-23 -10 -44 -23l-7 9q-11 12 -24 4q-13 -11 -4 -25l7 -9q-19 -16 -35 -35l-9 6q-15 9 -25 -3q-9 -14 4 -25l9 -7q-13 -21 -23 -44l-11 4q-16 4 -23 -11q-4 -16 11 -22l12 -4q-5 -14 -7 -29q-2 -10 -1 -20l-13 -4q-15 -6 -12 -22
q7 -15 22 -12l13 4q13 -21 35 -33l-3 -14q-2 -6 2 -14q4 -7 15 -8q13 1 17 13l4 14v0q4 -1 17 1q12 1 30 11l9 -10q3 -3 11 -5q7 -2 15 5q10 12 0 25l-10 10q10 14 13 32q1 6 3 11q0 2 1 3l9 -5q15 -5 23 10q6 14 -8 23l-9 4q14 21 35 34l4 -9q8 -14 23 -9v0zM144 166
q-1 -6 -10 -19v0q-10 -13 -32 -11q-15 3 -23 15q-9 12 -7 27q14 77 68 130q53 54 130 68q22 2 32 -11q9 -12 10 -19q2 -15 -7 -27q-8 -12 -23 -15q-55 -9 -92 -46t-46 -92v0z" />
    <glyph glyph-name="bacterium" unicode="&#xe05a;" horiz-adv-x="576" 
d="M543 345q-8 20 -30 16l-18 -5q-16 29 -46 44l5 18q3 22 -17 29q-22 4 -29 -17l-5 -17q-11 0 -22 -2q-22 -4 -43 -10l-5 15q-9 20 -30 14q-20 -9 -15 -30l5 -14q-30 -14 -58 -32l-9 13q-15 16 -33 5q-17 -15 -5 -33l9 -13q-25 -21 -46 -47l-13 10q-19 11 -33 -6
q-11 -18 5 -33l13 -9q-18 -27 -31 -58l-15 5q-21 5 -30 -15q-5 -21 15 -30l15 -5q-6 -19 -9 -38q-2 -13 -1 -26l-18 -6q-20 -8 -16 -29q6 -16 23 -17q3 0 7 1l18 5q16 -28 46 -44l-5 -18q-3 -22 17 -29q3 -1 6 -1q18 1 23 18l5 18h2q1 -1 2 -1q32 1 59 17l12 -13q8 -7 18 -7
q9 0 16 6q14 17 1 34l-14 13q13 19 18 43q1 9 4 18l13 -5q5 -3 10 -3q14 1 21 14q8 20 -11 31l-12 6q18 28 46 46l6 -13q7 -13 22 -14q4 0 9 2q19 11 12 31l-5 12l4 2q6 1 11 2q26 5 46 20l14 -13q7 -6 16 -6q10 0 17 8q13 17 -1 33l-14 13q16 28 14 62l18 6q20 8 16 29v0z
M452 267q-15 -21 -41 -26q-67 -12 -114 -58q-46 -47 -58 -114q-4 -23 -22 -38q-17 -14 -41 -15q-5 0 -11 1q-26 5 -41 26t-11 48q19 108 94 182q74 74 183 94q5 1 10 1q24 0 41 -15q18 -15 22 -38q4 -27 -11 -48v0zM192 160q-14 0 -22 -9v0q-9 -9 -9 -22t9 -22t22 -9t22 9
t9 22t-9 22q-8 9 -22 9v0zM272 264q-22 -2 -24 -23q2 -22 24 -24q21 2 23 23q-1 22 -23 24v0z" />
    <glyph glyph-name="box-tissue" unicode="&#xe05b;" 
d="M133 128h246q16 1 22 17l62 192q3 11 -4 21t-19 10h-105q-30 1 -41 29q-5 18 -25 34q-19 16 -61 17h-136q-11 0 -19 -9q-7 -9 -4 -20l61 -272q5 -18 23 -19v0zM208 400q25 -1 32 -7v0q8 -7 9 -11v0v0q10 -28 33 -45t53 -17h72l-46 -144h-208l-51 224h106v0zM460 224
l-15 -48h11q7 -1 8 -8v-88h-416v88q1 7 8 8h15l-11 48h-4q-24 -1 -40 -16q-15 -16 -16 -40v-176q1 -24 16 -40q16 -15 40 -16h400q24 1 40 16q15 16 16 40v176q-1 23 -15 38q-15 15 -37 18v0zM464 -8q-1 -7 -8 -8h-400q-7 1 -8 8v40h416v-40v0z" />
    <glyph glyph-name="hand-holding-medical" unicode="&#xe05c;" horiz-adv-x="576" 
d="M551 136q-24 19 -49 16v0q-24 -3 -39 -14l-61 -46h-3q0 29 -19 48q-20 19 -49 20h-144q-44 0 -79 -26l-28 -22h-56q-22 -2 -24 -24q2 -22 24 -24h72l41 31q22 17 50 17h144q21 -3 21 -20q0 -18 -22 -20h-60q-13 -2 -14 -14q1 -13 14 -14h134q15 0 27 9l62 46q14 10 28 0
q8 -7 7 -16q0 -8 -8 -15l-101 -75q-11 -9 -26 -9h-369q-22 -2 -24 -24q2 -22 24 -24h369q31 0 55 18l101 76q25 20 27 52q1 32 -25 54v0zM160 272h64v-64q1 -15 16 -16h64q15 1 16 16v64h64q15 1 16 16v64q-1 15 -16 16h-64v64q-1 15 -16 16h-64q-15 -1 -16 -16v-64h-64
q-15 -1 -16 -16v-64q1 -15 16 -16v0z" />
    <glyph glyph-name="hand-sparkles" unicode="&#xe05d;" horiz-adv-x="640" 
d="M80 256q4 0 6 4l21 49l21 9v36l-21 9l-21 49q-2 4 -6 4t-6 -4l-21 -49l-49 -21q-4 -2 -4 -5q0 -4 4 -6l49 -21l21 -49q2 -5 6 -5v0zM639 16q0 4 -4 6l-49 21l-21 49q-1 4 -5 4t-6 -4l-21 -49l-49 -21q-4 -2 -4 -6t4 -6l49 -21l21 -49q2 -4 6 -4t6 4l21 49l49 21q3 2 3 6
v0zM308 126q-2 2 -4 2t-4 -2l-12 -30l-30 -12q-2 -2 -2 -3q0 -2 2 -4l30 -12l12 -30q2 -3 4 -3t4 2l12 31l30 12q2 1 2 4q0 2 -2 3l-30 12l-12 30v0zM474 53l35 14l16 38q7 13 19 19q-1 1 0 3v1v168q-1 31 -21 51t-50 21q-6 0 -12 -1q-7 22 -26 35q-18 14 -42 14
q-10 0 -19 -2q-22 32 -62 34q-41 -2 -61 -34q-9 2 -19 2q-30 -1 -50 -21t-21 -51v-122q-9 2 -17 2v0v0q-34 -1 -56 -23q-23 -23 -24 -57q0 -31 21 -55l82 -87q30 -32 69 -49t83 -17h33q71 1 122 44l-3 1q-22 12 -23 35q0 2 1 5v1q-40 -37 -97 -38h-33q-69 1 -117 51l-80 86
q-9 10 -9 24q0 16 11 24q10 7 20 7q13 0 23 -10l27 -29q3 -2 6 -2q7 0 8 8v201q2 22 23 24q10 0 17 -7t7 -17v-152q2 -15 16 -16q14 2 15 15l2 185q2 22 24 24q22 -2 24 -24v-184q2 -15 15 -16q15 2 16 15v152q2 22 24 24q22 -2 24 -24v-151q1 -15 16 -16q15 1 16 16v104
q2 22 24 24q23 -2 25 -24v-168q-1 -42 -22 -75v0z" />
    <glyph glyph-name="hands-bubbles" unicode="&#xe05e;" horiz-adv-x="576" 
d="M576 256q-1 34 -23 57v0q-23 22 -57 23h-4q-2 -1 -3 -1q21 19 23 49q-1 27 -19 45t-45 19q-27 -1 -45 -19t-19 -45q1 -27 19 -45t45 -19v0h1q-31 -23 -33 -64q0 -15 6 -29h-36q-1 4 -4 13l12 39q9 30 -8 57q-13 20 -35 28q-2 6 -6 13q-13 19 -35 27q-3 7 -7 13
q-18 26 -49 31h-8q-21 0 -38 -12q-6 2 -12 2q-3 1 -7 1q-23 0 -40 -13q-18 -13 -25 -35l-19 -61q-1 0 -2 1h-2q-29 -1 -49 -20q-19 -19 -20 -47v-92q1 -44 24 -80q-24 -8 -40 -28q-16 -21 -16 -48q1 -34 23 -57q23 -22 57 -23q24 0 42 12q19 12 29 32q42 -42 105 -44h169
q31 1 52 25q14 18 15 41q23 17 26 52q6 5 11 11q19 24 14 55q-6 25 -25 41q-1 13 -3 17v1q27 6 44 27q16 21 17 50v0zM448 368q-15 1 -16 16q1 15 16 16q15 -1 16 -16q-1 -15 -16 -16v0zM310 305q9 18 25 13v0q16 -5 13 -24l-6 -19q-11 4 -22 4q-10 0 -19 -3l9 29v0z
M307 334l-20 -62l-46 -14h1v1l27 86q9 19 25 14q16 -6 13 -25v0zM80 263q2 18 20 20q18 -2 20 -20l1 -41l49 155q8 18 25 13q16 -5 12 -25l-31 -99q-1 -6 4 -8h2q5 0 7 4l38 124q9 18 25 13t13 -24l-35 -112q-1 -5 3 -8l-20 -6q-47 -16 -75 -54q-27 -39 -28 -88v-5
q-28 28 -30 70v91v0zM80 -16q-14 0 -23 9v0q-9 9 -9 23t9 23t23 9t23 -9t9 -23t-9 -23t-23 -9v0zM477 88h-130q-6 -1 -7 -7q1 -5 7 -6h103q15 -1 20 -16q1 -9 -5 -16q-5 -7 -14 -7h-104q-6 -1 -7 -7q1 -5 7 -6h77q15 -1 20 -16q1 -9 -5 -16q-5 -7 -14 -7h-169q-42 1 -69 29
q-28 27 -29 68v27q0 33 19 58q19 26 50 37l88 27q3 1 5 1q14 -1 19 -14q4 -17 -13 -24l-38 -14h162q15 -1 20 -16q1 -9 -5 -16q-5 -7 -14 -7h-104q-6 -1 -7 -7q1 -5 7 -6h129q15 -1 20 -16q1 -9 -5 -16q-5 -7 -14 -7v0zM496 224q-14 0 -23 9v0q-9 9 -9 23t9 23t23 9t23 -9
t9 -23t-9 -23t-23 -9v0z" />
    <glyph glyph-name="handshake-simple-slash" unicode="&#xe05f;" horiz-adv-x="640" 
d="M347 53q-4 -4 -9 -5q-6 0 -9 2l-37 32l-16 -19q-11 -13 -26 -15q-16 -2 -29 8l-97 88h-100q-22 -2 -24 -24q2 -22 24 -24h81l85 -76q24 -19 52 -20q29 -1 53 16q19 -16 41 -16q28 0 49 24q17 -6 35 -2l-60 47l-13 -16v0zM616 96q22 2 24 24q-2 22 -24 24h-196l-83 66
l40 37q10 11 1 22l-11 12q-11 10 -23 1l-46 -42l-38 29l61 56q12 11 27 11h58q26 0 45 -17l48 -47h117q22 2 24 24q-2 22 -24 24h-97l-26 27q-38 36 -91 37h-167q-47 -1 -82 -30l-114 89q-7 5 -15 5q-11 0 -19 -9q-12 -19 4 -34l592 -464q19 -12 34 4q12 19 -4 34l-146 114
q0 1 1 1v2h130v0zM222 299l-32 25q17 12 36 13h35l-38 -36v-1q-1 0 -1 -1v0zM24 272h77l-61 49l-16 -1q-22 -2 -24 -24q2 -22 24 -24v0z" />
    <glyph glyph-name="handshake-slash" unicode="&#xe060;" horiz-adv-x="640" 
d="M575 64h64v256h-134q-14 17 -45 40q-31 22 -77 31q-36 5 -64 -18q-27 23 -62 18q-31 -5 -54 -17q-24 -13 -41 -27l-123 96q-7 5 -15 5q-11 0 -19 -9q-12 -19 4 -34l591 -463q19 -12 34 4q12 19 -4 34l-291 228l34 34q14 17 0 34q-17 14 -34 0l-37 -39l-28 22l73 75
q13 12 29 10q46 -10 73 -35t28 -29q5 -6 12 -8h55v-176q0 -14 9 -23t22 -9v0zM591 128q14 -2 15 -15q-1 -15 -15 -16q-14 1 -16 16q2 13 16 15v0zM236 289l-35 27q25 20 63 28q11 1 21 -5l-49 -50v0zM373 44q-5 -4 -7 -4q-3 -1 -7 2l-33 27l-15 -13l-3 -3q-9 -11 -23 -13
q-15 -1 -25 7l-90 81h-74v148l-56 44h-40v-256h63q18 1 27 16h61l77 -69q24 -19 53 -19h8q21 3 38 14l1 -1q19 -15 43 -13q20 3 33 16q18 -7 36 -1l-59 46l-8 -9v0zM48 96q-14 1 -15 16q2 14 15 15q13 -1 15 -15q0 -15 -15 -16v0z" />
    <glyph glyph-name="head-side-cough" unicode="&#xe061;" horiz-adv-x="640" 
d="M480 89q-21 -2 -23 -24q2 -22 23 -24q10 0 17 7t7 17q-2 22 -24 24v0zM477 173q-12 29 -26 73v0q-12 34 -24 65v0q-11 32 -23 49q-29 41 -74 64q-44 24 -96 24h-35q-80 -2 -137 -53t-62 -132q-1 -45 16 -83q17 -39 48 -67v-153q2 -22 24 -24q21 2 23 23v176l-15 14
q-36 33 -45 79q-10 47 13 93q20 38 56 58q36 21 78 21h35q39 0 74 -18q34 -18 57 -50q7 -10 15 -31t16 -45q5 -13 9 -26q6 -16 12 -31q4 -12 8 -23h-56v-53l-56 -8q-22 -4 -24 -27q2 -23 24 -27l56 -8v-21q-1 -15 -16 -16h-81v-56q2 -22 24 -24q22 2 23 23v9h32q27 1 45 19
q19 18 19 44l1 97h32q19 1 28 15q9 13 2 30v0zM608 89q-22 -2 -24 -24q2 -22 24 -24q22 2 24 24q-2 22 -24 24v0zM608 137q22 2 24 24q-2 22 -24 24q-22 -2 -24 -24q2 -22 24 -24v0zM544 41q-21 -2 -23 -24q2 -22 23 -24q10 0 17 7t7 17q-2 22 -24 24v0zM544 137
q-21 -2 -23 -24q2 -22 23 -24q10 0 17 7t7 17q-2 22 -24 24v0zM608 -7q-22 -2 -24 -24q2 -22 24 -24q22 2 24 24q-2 22 -24 24v0zM320 224q14 0 23 9v0q9 9 9 23t-9 23t-22 9q-14 0 -23 -9q-10 -9 -10 -23t9 -23t23 -9v0z" />
    <glyph glyph-name="head-side-cough-slash" unicode="&#xe062;" horiz-adv-x="640" 
d="M631 -21l-190 149h7q18 1 27 14q9 14 2 30q-12 29 -26 73q-12 34 -24 66q-11 31 -23 48q-29 42 -74 65q-44 24 -96 24h-35q-66 -1 -118 -38l-42 33q-7 5 -15 5q-11 0 -19 -9q-12 -19 4 -34l591 -463q19 -12 34 4q13 17 -3 33v0zM379 176l-62 48h2h1q14 0 23 9t9 23t-9 23
t-22 9q-14 0 -23 -9q-10 -9 -10 -23q0 -5 2 -10l-169 133q36 20 77 21h35q39 0 74 -18q34 -18 57 -50q7 -10 15 -31t16 -45q5 -13 9 -26q6 -16 12 -31q4 -12 8 -23h-45v0zM58 306l-39 31q-17 -34 -19 -74q-1 -45 16 -83q17 -39 48 -67v-153q2 -22 24 -24q21 2 23 23v176
l-15 14q-33 30 -43 72q-11 42 5 85v0zM288 88q2 -23 24 -27l56 -8v-21q-1 -15 -16 -16h-81v-56q2 -22 24 -24q22 2 23 23v9h32q26 1 43 17q18 16 21 41l-111 87q-14 -7 -15 -25v0zM607 137q22 2 24 23q-2 21 -24 23q-21 -2 -23 -23q2 -21 23 -23v0zM607 41q22 2 24 24
q-2 21 -24 23q-22 -2 -24 -24q3 -21 24 -23v0zM543 89q22 2 24 24q-2 21 -24 23q-22 -2 -24 -24q3 -21 24 -23v0z" />
    <glyph glyph-name="head-side-mask" unicode="&#xe063;" 
d="M352 288q-14 0 -23 -9v0q-9 -9 -9 -23t9 -23t23 -9t22 9q9 9 9 23t-9 23q-8 9 -22 9v0zM509 173q-12 29 -26 73v0q-12 34 -24 65v0q-11 32 -23 49q-29 41 -74 64q-44 24 -96 24h-68q-80 -2 -137 -53q-56 -52 -61 -132q-1 -45 16 -84q17 -38 48 -66v-153q2 -22 24 -24
q22 2 24 24v175l-16 14q-43 40 -48 99l176 -119v-161q0 -14 9 -23t23 -9h115q28 0 51 16q22 16 32 42l55 152q6 12 0 27v0zM440 96h-104q-15 -1 -16 -16q1 -15 16 -16h92l-12 -32h-80q-15 -1 -16 -16q1 -15 16 -16h67q-12 -15 -32 -16h-99v144h179l-11 -32v0zM240 176
l-184 125q3 10 7 19q20 38 56 59t79 21h68q40 0 74 -18t57 -50q9 -13 20 -43t20 -59q10 -29 19 -54h-216v0z" />
    <glyph glyph-name="head-side-virus" unicode="&#xe064;" 
d="M321 145q5 0 10 4q8 11 0 21l-8 7q-13 15 -6 31q6 16 26 18h11q13 1 14 14q-1 13 -14 14h-11q-20 2 -26 18q-7 16 6 31l8 7q8 10 0 20q-11 9 -21 0l-7 -7q-15 -13 -31 -6t-18 27v10q-1 13 -14 14q-13 -1 -14 -14v-11q-2 -20 -18 -26q-16 -7 -31 6l-7 7q-10 9 -21 0
q-8 -10 0 -20l8 -7q13 -15 6 -31q-6 -16 -26 -18h-11q-13 -1 -14 -14q1 -13 14 -14h10q20 -2 26 -18q7 -16 -6 -31l-6 -7q-9 -10 0 -21q4 -4 10 -4q5 0 10 4l7 8q15 13 31 6q16 -6 18 -26v-11q1 -13 14 -14q13 1 14 14v11q2 20 18 26q16 7 31 -6l7 -8q5 -4 11 -4v0zM208 241
q-14 1 -15 15q1 15 16 16q14 -2 15 -15q-1 -15 -16 -16v0zM272 209q-15 1 -16 16q1 15 16 16q15 -1 16 -16q-1 -15 -16 -16v0zM509 173q-12 29 -26 73v0q-12 34 -24 66v0q-11 31 -23 48q-29 41 -74 64q-44 24 -96 24h-66q-81 -2 -138 -53t-62 -132q-1 -45 16 -83
q17 -39 48 -67v-153q2 -22 24 -24q21 2 23 23v176l-15 14q-36 33 -45 79q-10 47 13 93q20 38 56 58q36 21 78 21h67q39 0 74 -18q34 -18 57 -50q7 -10 15 -31t16 -45q5 -13 9 -26q6 -16 12 -31q4 -12 8 -23h-56v-112q-1 -15 -16 -16h-80v-88q2 -22 24 -24q21 2 23 23v41h32
q27 1 45 19t18 44v65h32q19 1 29 15q9 13 2 30v0z" />
    <glyph glyph-name="house-chimney-user" unicode="&#xe065;" horiz-adv-x="576" 
d="M224 224q1 27 19 45v0q18 18 45 19q27 -1 45 -19t19 -45q-1 -27 -19 -45t-45 -19q-27 1 -45 19t-19 45v0zM176 48q1 34 23 57v0q23 22 57 23h64q34 -1 57 -23q22 -23 23 -57q-1 -15 -16 -16h-192q-15 1 -16 16v0zM464 306v86q2 22 24 25q22 -3 24 -25v-127l56 -47
q15 -15 2 -34q-15 -15 -33 -2l-25 20v-186q-1 -34 -23 -57q-23 -22 -57 -23h-288q-34 1 -57 23q-22 23 -23 57v186l-24 -20q-19 -13 -34 2q-13 19 2 34l265 224q15 12 31 0l160 -136v0zM144 -16h288q14 0 23 9t9 23v227l-176 150l-176 -150v-227q0 -14 9 -23t23 -9v0z" />
    <glyph glyph-name="house-laptop" unicode="&#xe066;" horiz-adv-x="640" 
d="M225 443q15 10 30 0l216 -176q15 -16 4 -34q-16 -15 -34 -4l-25 21v-42h-48v81l-128 104l-128 -104v-201q1 -7 8 -8h152v-48h-152q-24 1 -40 16q-15 16 -16 40v162l-25 -21q-18 -11 -34 4q-12 18 4 34l216 176v0zM288 232v-46q-10 -10 -13 -24q-5 -2 -11 -2h-48
q-22 2 -24 24v48q2 22 24 24h48q22 -2 24 -24v0zM336 176h224q14 0 23 -9t9 -23v-160h36q11 -1 12 -12q0 -15 -11 -25q-10 -11 -25 -11h-312q-15 0 -25 11q-11 10 -11 25q1 11 12 12h36v160q0 14 9 23t23 9v0zM352 128v-144h192v144h-192v0z" />
    <glyph glyph-name="lungs-virus" unicode="&#xe067;" horiz-adv-x="640" 
d="M196 3q-3 3 -4 6v0l-2 2q-7 -6 -18 -9q-18 -5 -30 -8q-25 -7 -32 -9q-7 -1 -12 -1q-24 0 -39 17q-15 16 -9 44q31 116 96 218q2 2 3 4q15 24 21 31q7 7 16 6q20 -2 22 -18v-25q10 5 22 5q14 0 26 -8v28q-1 28 -20 47q-20 18 -50 19q-29 -1 -45 -16t-30 -39q-2 -4 -5 -8
q-69 -109 -102 -231q-4 -15 -4 -30q1 -40 29 -66q29 -25 69 -26q10 0 21 2t37 10q12 3 29 7q33 10 52 35q-4 0 -8 -1q-19 1 -33 14v0zM343 297v128q-1 21 -24 23q-22 -2 -24 -23v-128q11 7 23 7q14 0 25 -7v0zM422 26q9 12 0 23l-9 8q-14 17 -7 35q8 19 30 20h12q15 1 16 16
q-1 15 -16 17h-12q-22 1 -30 20q-7 18 7 35l9 8q9 11 0 23q-11 9 -23 0l-8 -9q-17 -15 -35 -8q-18 8 -20 30v12q-1 14 -16 15q-15 -1 -16 -15v-12q-2 -22 -20 -30q-18 -7 -35 7l-8 9q-12 9 -23 0q-9 -12 0 -23l9 -8q14 -17 7 -35q-8 -19 -30 -20h-12q-15 -1 -16 -16
q1 -15 16 -16h12q22 -2 30 -20q7 -18 -7 -35l-9 -8q-9 -12 0 -23q5 -5 11 -5q7 0 12 5l8 9q17 14 35 7q18 -8 20 -30v-12q1 -15 16 -16q15 1 16 16v12q2 22 20 30q18 7 35 -7l8 -9q5 -5 12 -5q6 1 11 5v0zM288 145q-15 1 -16 15q1 15 16 17q15 -2 16 -15q-1 -17 -16 -17v0z
M352 81q-15 1 -16 16q1 14 16 15q15 -1 16 -16q-1 -14 -16 -15v0zM636 58q-33 122 -102 231q-3 4 -5 8q-14 24 -30 39t-45 16q-30 -1 -50 -19q-19 -19 -20 -47v-27q12 7 27 8q11 -1 21 -6v25q2 16 22 18q9 1 16 -6q6 -7 21 -31q1 -2 3 -4q65 -102 96 -218q6 -28 -9 -44
q-15 -17 -39 -17q-5 0 -12 1q-7 2 -31 9q-13 3 -31 8q-11 3 -18 9l-2 -2q-1 -3 -4 -5q-14 -14 -33 -15q-4 1 -8 1q19 -25 52 -34q17 -5 29 -8q26 -7 37 -10q11 -2 21 -2q40 1 69 26q28 26 29 66v6q-1 12 -4 24v0z" />
    <glyph glyph-name="people-arrows" unicode="&#xe068;" horiz-adv-x="576" 
d="M112 105v-145q2 -22 24 -24q22 2 24 24v97l-48 47v1v0zM48 224q1 15 16 16h64q15 -1 16 -16v-9l32 33l8 6q-18 32 -56 34h-64q-27 -1 -45 -19t-19 -45v-96q0 -14 9 -23t22 -9l1 -136q2 -22 24 -24q22 2 24 24v184h-32v80v0zM96 320q27 1 45 19v0q18 18 19 45
q-1 27 -19 45t-45 19q-27 -1 -45 -19t-19 -45q1 -27 19 -45t45 -19v0zM480 320q27 1 45 19v0q18 18 19 45q-1 27 -19 45t-45 19q-27 -1 -45 -19t-19 -45q1 -27 19 -45t45 -19v0zM416 57v-97q2 -22 24 -24q22 2 24 24v145v0v-1l-48 -47v0zM512 288h-64q-38 -2 -56 -34l8 -6
l32 -33v9q1 15 16 16h64q15 -1 16 -16v-80h-32v-184q2 -22 24 -24q22 2 24 24v136q14 0 23 9t9 23v96q-1 27 -19 45t-45 19v0zM440 161l-64 64q-17 14 -34 0q-14 -17 0 -34l24 -23h-156l23 23q14 17 0 34q-17 14 -34 0l-64 -64q-14 -17 0 -34l64 -64q7 -7 17 -7t17 7
q14 17 0 34l-23 23h156l-23 -23q-14 -17 0 -34q7 -7 17 -7t17 7l64 64q14 17 -1 34v0z" />
    <glyph glyph-name="plane-slash" unicode="&#xe069;" horiz-adv-x="640" 
d="M236 289l-37 118q-5 15 5 28q10 12 26 13h64q19 -1 27 -16l100 -160h74q21 0 47 -10t45 -28q20 -18 21 -42q-1 -25 -21 -43q-19 -17 -45 -27t-46 -10h-36l171 -133q16 -15 4 -34q-15 -16 -34 -4l-592 464q-16 15 -4 34q15 16 34 4l197 -154v0zM303 236l97 -76h95
q22 1 42 12t22 20q-3 9 -23 20t-41 12h-100l-110 176h-33l51 -164v0zM33 296q-3 13 5 27l49 -40l27 -91l-28 -96h27l48 64h83l47 -38l-55 -138h49l60 96l39 -30l-62 -98q-9 -16 -28 -16h-64q-16 0 -26 12q-10 13 -5 29l43 135h-57l-39 -52q-10 -12 -25 -12h-57q-15 0 -25 12
q-9 12 -5 28l30 104l-31 104v0z" />
    <glyph glyph-name="pump-medical" unicode="&#xe06a;" horiz-adv-x="384" 
d="M187 155v40q-1 12 -14 13h-26q-13 -1 -14 -13v-40h-40q-12 -1 -13 -14v-26q1 -13 13 -14h40v-40q1 -12 14 -13h26q13 1 14 13v40h40q12 1 13 14v26q-1 12 -13 14h-40v0zM376 345l-56 56q-6 7 -16 7h-64v8q0 14 -9 23t-23 9h-96q-14 0 -23 -9t-9 -23v-96q-24 -3 -40 -18
q-17 -16 -19 -40l-21 -256q-2 -29 17 -49q18 -20 47 -21h191q29 1 47 21q19 20 17 49l-21 256q-2 24 -18 40q-16 15 -40 18v40h54l49 -49q7 -7 17 -7t17 7q14 17 -1 34v0zM128 400h64v-80h-64v80v0zM252 258l20 -257q0 -15 -17 -17h-191q-15 1 -16 18l20 255q3 14 16 15h152
q13 -1 16 -14v0z" />
    <glyph glyph-name="pump-soap" unicode="&#xe06b;" horiz-adv-x="384" 
d="M152 205q-14 -19 -32 -48v0q-18 -30 -20 -50q1 -25 18 -42q17 -16 42 -17q25 1 42 17q17 17 18 42q-2 20 -20 50q-18 29 -32 47q-9 8 -16 1v0zM376 345l-56 56q-6 7 -16 7h-64v8q0 14 -9 23t-23 9h-96q-14 0 -23 -9t-9 -23v-96q-24 -3 -40 -18q-17 -16 -19 -40l-21 -256
q-2 -29 17 -49q18 -20 47 -21h191q29 1 47 21q19 20 17 49l-21 256q-2 24 -18 40q-16 15 -40 18v40h54l49 -49q7 -7 17 -7t17 7q14 17 -1 34v0zM128 400h64v-80h-64v80v0zM252 258l20 -257q0 -15 -17 -17h-191q-15 1 -16 18l20 255q3 14 16 15h152q13 -1 16 -14v0z" />
    <glyph glyph-name="shield-virus" unicode="&#xe06c;" 
d="M240 337v-12q0 -15 -10 -23q-9 -9 -22 -9q-12 0 -23 9l-8 8q-5 5 -11 4q-15 -1 -16 -15q-1 -6 4 -11l9 -8q9 -12 9 -24q0 -13 -9 -22q-8 -10 -23 -10h-12q-15 -1 -16 -16q1 -15 16 -16h12q15 -1 23 -10q9 -9 9 -22q0 -12 -9 -23l-9 -8q-4 -5 -4 -12q1 -13 16 -15
q6 0 11 5l8 9q11 9 23 9q13 0 22 -9q10 -8 10 -23v-12q1 -15 16 -16q15 1 16 16v12q0 15 10 23q9 9 22 9q12 0 23 -9l8 -9q5 -5 12 -5q14 2 16 15q0 7 -5 12l-9 8q-9 11 -9 23q0 13 9 22q8 10 23 10h12q15 1 16 16q-1 15 -16 16h-12q-15 0 -23 10q-9 9 -9 22q0 12 9 23l9 8
q5 5 5 12q-2 13 -16 15q-7 0 -12 -5l-8 -8q-11 -9 -23 -9q-13 0 -22 9q-10 8 -10 23v13q-1 15 -16 16q-15 -2 -16 -16v0zM224 225q-14 1 -15 16q1 15 16 16q14 -1 15 -16q-1 -15 -16 -16v0zM288 193q15 -2 16 -15q-1 -14 -16 -15q-15 1 -16 15q1 13 16 15v0zM467 364
l-192 80q-9 4 -19 4q-9 0 -18 -4l-192 -80q-29 -13 -30 -44q3 -129 51 -214t104 -128q57 -42 85 -42q29 0 85 43q57 42 104 128q48 85 51 213q-1 31 -29 44v0zM256 400v0v0v0zM255 -16q-47 20 -90 65v0q-44 46 -72 114v0q-28 69 -29 157v0v0l191 80v0h1l192 -80
q-2 -101 -35 -171t-78 -111q-45 -40 -80 -54v0z" />
    <glyph glyph-name="sink" unicode="&#xe06d;" 
d="M488 161l-88 -1v32h56q22 2 24 23q0 10 -7 17t-17 7l-72 1q-14 0 -23 -9t-9 -23v-47h-72v200q1 18 13 29q13 12 31 11q16 -2 26 -14t10 -28v-15q2 -21 23 -23q10 0 17 7q7 6 7 16v16q-1 40 -29 65q-27 25 -68 23q-35 -5 -56 -31q-22 -25 -23 -61l1 -195l-72 -1v48
q0 14 -9 23t-23 9l-73 1q-9 0 -16 -7t-7 -17t7 -17t16 -7l57 -1v-32l-89 1q-9 0 -16 -7t-7 -17t7 -17t16 -7l9 -1v-80q1 -41 28 -68t68 -28h256q41 1 68 28t28 68v80h8q22 2 24 23q0 10 -7 18q-7 7 -17 8v0zM432 33q-1 -20 -14 -34v0q-14 -14 -34 -14h-256q-20 0 -34 14
q-13 14 -14 34v80h352v-80v0z" />
    <glyph glyph-name="soap" unicode="&#x1f9fc;" 
d="M384 384q14 0 23 9v0q9 9 9 23t-9 23t-23 9t-23 -9t-9 -23t9 -23t23 -9v0zM208 352q20 1 34 14v0q13 14 14 34q-1 20 -14 34q-14 13 -34 14q-20 -1 -34 -14q-13 -14 -14 -34q1 -20 14 -34q14 -13 34 -14v0zM416 256h-18q2 8 2 16q-1 34 -23 57q-23 22 -57 23
q-34 -1 -57 -23q-22 -23 -23 -57q0 -8 2 -16h-146q-41 -1 -68 -28t-28 -68v-128q1 -41 28 -68t68 -28h320q41 1 68 28t28 68v128q-1 41 -28 68t-68 28v0zM320 304q14 0 23 -9v0q9 -9 9 -23t-9 -23t-23 -9t-23 9t-9 23t9 23t23 9v0zM464 32q-1 -20 -14 -34v0q-14 -13 -34 -14
h-320q-20 1 -34 14q-13 14 -14 34v128q1 20 14 34q14 13 34 14h177q20 -15 47 -16q27 1 47 16h49q20 -1 34 -14q13 -14 14 -34v-128v0zM352 160h-192q-27 -1 -45 -19t-19 -45q1 -27 19 -45t45 -19h192q27 1 45 19t19 45q-1 27 -19 45t-45 19v0zM352 64h-192q-14 0 -23 9
t-9 23t9 23t23 9h192q14 0 23 -9t9 -23t-9 -23t-23 -9v0z" />
    <glyph glyph-name="soap" unicode="&#xe06e;" 
d="M384 384q14 0 23 9v0q9 9 9 23t-9 23t-23 9t-23 -9t-9 -23t9 -23t23 -9v0zM208 352q20 1 34 14v0q13 14 14 34q-1 20 -14 34q-14 13 -34 14q-20 -1 -34 -14q-13 -14 -14 -34q1 -20 14 -34q14 -13 34 -14v0zM416 256h-18q2 8 2 16q-1 34 -23 57q-23 22 -57 23
q-34 -1 -57 -23q-22 -23 -23 -57q0 -8 2 -16h-146q-41 -1 -68 -28t-28 -68v-128q1 -41 28 -68t68 -28h320q41 1 68 28t28 68v128q-1 41 -28 68t-68 28v0zM320 304q14 0 23 -9v0q9 -9 9 -23t-9 -23t-23 -9t-23 9t-9 23t9 23t23 9v0zM464 32q-1 -20 -14 -34v0q-14 -13 -34 -14
h-320q-20 1 -34 14q-13 14 -14 34v128q1 20 14 34q14 13 34 14h177q20 -15 47 -16q27 1 47 16h49q20 -1 34 -14q13 -14 14 -34v-128v0zM352 160h-192q-27 -1 -45 -19t-19 -45q1 -27 19 -45t45 -19h192q27 1 45 19t19 45q-1 27 -19 45t-45 19v0zM352 64h-192q-14 0 -23 9
t-9 23t9 23t23 9h192q14 0 23 -9t9 -23t-9 -23t-23 -9v0z" />
    <glyph glyph-name="stopwatch-20" unicode="&#xe06f;" horiz-adv-x="448" 
d="M236 192q1 22 15 37v0q15 14 37 15q22 -1 37 -15q14 -15 15 -37v-96q-1 -22 -15 -37q-15 -14 -37 -15q-22 1 -37 15q-14 15 -15 37v96v0zM288 204q-11 -1 -12 -12v-96q1 -11 12 -12q11 1 12 12v96q-1 11 -12 12v0zM154 194q-6 -17 -24 -12q-17 6 -13 24l1 2q5 16 19 27
q13 10 31 10q22 -1 37 -16q14 -15 15 -38v-2q0 -20 -14 -36l-39 -44q-9 -11 -11 -25h44q18 -1 20 -20q-2 -18 -20 -20h-64q-19 2 -20 20v16q0 31 21 55l39 44q4 5 4 10v2q-1 12 -12 14q-9 -1 -12 -10l-2 -1v0zM280 448q22 -2 24 -24q-2 -22 -24 -24h-32v-49q66 -9 114 -51
l29 29q17 14 33 0q15 -17 0 -33l-30 -32q37 -52 38 -120q-2 -88 -61 -147t-147 -61q-88 2 -147 61t-61 147q2 82 53 139q52 57 131 68v49h-32q-22 2 -24 24q2 22 24 24h112v0zM224 304q-68 -2 -113 -47v0q-45 -45 -47 -113q2 -68 47 -113t113 -47q68 2 113 47t47 113
q-2 68 -47 113t-113 47v0z" />
    <glyph glyph-name="shop-slash" unicode="&#xe070;" horiz-adv-x="640" 
d="M77 413l5 10q15 24 43 25h391q27 -1 42 -25l77 -142q5 -9 5 -19q0 -16 -11 -27t-27 -11h-26v-202l55 -43q16 -15 4 -34q-15 -16 -34 -4l-592 464q-16 15 -4 34q15 16 34 4l38 -30v0zM115 383l142 -111h328l-69 128h-391l-10 -17v0zM318 224l210 -165v165h-210v0zM0 262
q0 10 5 19l26 47l38 -30l-14 -26h47l61 -48h-52v-96h173l100 -79v-73q0 -17 -12 -28q-11 -12 -28 -12h-241q-16 0 -28 12q-11 11 -12 28v248h-25q-16 0 -27 11t-11 27v0v0zM336 -16v96h-224v-96h224v0z" />
    <glyph glyph-name="store-slash" unicode="&#xe071;" horiz-adv-x="640" 
d="M95 399l23 36q8 13 24 13h356q16 0 24 -13l58 -91q21 -37 6 -74q-16 -37 -58 -45q-6 -1 -13 -1q-29 1 -52 17q-7 5 -13 12q-6 -6 -13 -12q-22 -16 -52 -17q-30 0 -52 18q-7 4 -13 11q-6 -7 -13 -11q-3 -3 -6 -5l159 -125h36v82q9 -2 19 -2q9 0 17 1v0q5 1 12 2v-148
l87 -68q16 -15 4 -34q-15 -16 -34 -4l-592 464q-16 15 -4 34q15 16 34 4l56 -44v0zM133 369l124 -97q17 1 27 13q15 16 36 16t36 -16q11 -12 29 -13q18 1 30 13q14 16 35 16t36 -16q11 -12 29 -13h6q14 2 20 16q7 16 -2 30l-51 82h-336l-19 -31v0zM49 313l106 -83
q-14 -6 -31 -6q-6 0 -12 1q-33 5 -50 31t-13 57v0v0zM144 64v-64q1 -15 16 -16h307l48 -38q-15 -10 -35 -10h-320q-27 1 -45 19t-19 45v195q6 -1 11 -2h1q8 -1 16 -1q10 0 20 2v-82h161l61 -48h-222v0z" />
    <glyph glyph-name="toilet-paper-slash" unicode="&#xe072;" horiz-adv-x="640" 
d="M631 -21l-113 89q39 14 64 65q25 52 26 123q-2 82 -33 136q-32 54 -80 56h-320q-44 -2 -76 -53l-60 48q-7 5 -15 5q-11 0 -19 -9q-12 -19 4 -34l591 -463q19 -12 34 4q13 17 -3 33v0zM383 257v-84l-246 193q20 33 38 34h246q-17 -27 -27 -64q-11 -36 -11 -79v0zM495 112
q-21 1 -41 40v0q-21 38 -23 104q2 66 23 104q20 39 41 40q21 -1 42 -40q20 -38 22 -104q-1 -66 -22 -104q-21 -39 -42 -40v0zM365 -16h-272q9 27 14 50q5 22 5 50v172v4v3l-45 36q-3 -21 -3 -42v-172q0 -25 -5 -47q-6 -22 -17 -54q-4 -12 -9 -26q-3 -18 15 -20l329 -2
q22 1 30 22q11 29 18 60l-43 34q-4 -30 -13 -57q-2 -6 -4 -11v0zM495 304q-10 -1 -16 -14v0q-7 -14 -7 -34t7 -34q7 -13 16 -14q11 1 18 14q7 14 7 34t-7 34q-7 13 -18 14v0z" />
    <glyph glyph-name="users-slash" unicode="&#xe073;" horiz-adv-x="640" 
d="M178 -16q9 28 33 46v0q25 17 58 18h101q10 0 20 -2l-64 50h-56q-60 -1 -100 -39t-42 -94q0 -12 8 -19q8 -8 20 -8h328q18 1 26 16l-41 32h-291v0zM397 162q26 29 27 70q-1 44 -31 74q-29 29 -72 30q-56 -2 -86 -46l-42 32q15 20 15 46q-1 34 -23 57q-23 22 -57 23
q-37 -1 -60 -28l-29 23q-7 5 -15 5q-11 0 -19 -9q-12 -19 4 -34l591 -463q19 -12 34 4q12 19 -4 34l-233 182v0zM359 193l-87 67q16 27 48 28q24 -1 39 -16q16 -16 17 -40q-1 -24 -17 -39v0zM512 288q34 1 57 23v0q22 23 23 57q-1 34 -23 57q-23 22 -57 23q-34 -1 -57 -23
q-22 -23 -23 -57q1 -34 23 -57q23 -22 57 -23v0zM490 256q-19 0 -36 -8q1 -3 1 -5q1 -5 1 -11q-1 -51 -33 -88h199q16 2 18 19q-1 39 -26 66q-25 26 -62 27h-62v0zM186 205l-64 51h-34q-37 -1 -62 -27q-25 -27 -26 -66q2 -17 18 -19h199q-22 26 -31 61v0z" />
    <glyph glyph-name="virus" unicode="&#xe074;" 
d="M256 224q0 -14 -9 -23v0q-9 -9 -23 -9t-23 9t-9 23t9 23t23 9t23 -9t9 -23v0zM280 144q2 22 24 24q22 -2 24 -24q-2 -22 -24 -24q-22 2 -24 24v0zM120 373l8 -8q30 -25 61 -12q32 13 35 51v12q0 14 9 23t23 9t23 -9t9 -23v-12q3 -38 35 -51q31 -13 61 12l8 8q10 9 22 9
q13 0 23 -9q9 -10 9 -23q0 -12 -9 -22l-8 -8q-25 -30 -12 -61q13 -32 52 -35h11q14 0 23 -9t9 -23t-9 -23t-23 -9h-11q-39 -3 -52 -35q-13 -31 12 -61l8 -8q9 -10 9 -22q0 -13 -9 -23q-10 -9 -23 -9q-12 0 -22 9l-8 8q-30 25 -61 12q-32 -13 -35 -52v-11q0 -14 -9 -23
t-23 -9t-23 9t-9 23v11q-3 39 -35 52q-31 13 -61 -12l-8 -8q-10 -9 -22 -9q-13 0 -23 9q-9 10 -9 23q0 12 9 22l8 8q25 30 12 61q-13 32 -51 35h-12q-14 0 -23 9t-9 23t9 23t23 9h12q38 3 51 35q13 31 -12 61l-8 8q-9 10 -9 22q0 13 9 23q10 9 23 9q12 0 22 -9v0v0zM256 343
q-18 -26 -47 -38v0q-29 -11 -59 -7q4 -30 -7 -59q-12 -29 -38 -47q26 -18 38 -47q11 -28 7 -60q30 5 59 -6q28 -12 46 -38q19 26 48 38q29 11 60 6q-5 32 6 60q12 29 38 47q-26 18 -38 47q-11 29 -6 59q-31 -4 -60 7q-29 12 -48 38h1v0z" />
    <glyph glyph-name="virus-slash" unicode="&#xe075;" horiz-adv-x="640" 
d="M135 368q0 1 1 2v0q1 1 2 3q11 9 23 9q13 0 23 -9l8 -8q29 -25 61 -12q31 13 34 51v12q1 14 10 23t22 9q14 0 24 -9q9 -9 9 -23v-12q3 -38 35 -51q31 -13 61 12l8 8q10 9 22 9q13 0 23 -9q9 -10 9 -23q0 -12 -9 -22l-8 -8q-25 -30 -12 -61q13 -32 51 -35h12q14 0 23 -9
t9 -23t-9 -23t-23 -9h-11q-27 -1 -43 -19q-15 -18 -13 -41l154 -121q16 -15 4 -34q-15 -16 -34 -4l-592 464q-16 15 -4 34q15 16 34 4l96 -75v0zM225 297l54 -42q4 1 8 1q14 0 23 -9t9 -23v0v-2l111 -86q11 34 41 56q-26 18 -38 47q-11 29 -6 59q-31 -4 -60 7q-29 12 -48 38
q-16 -23 -41 -35t-53 -11v0v0zM108 224q22 1 37 14l40 -32q-7 -8 -16 -14q26 -18 38 -47q11 -28 7 -60q30 5 59 -6q28 -12 46 -38q15 20 36 32l46 -38q-20 -2 -34 -17t-15 -39v-11q0 -14 -9 -23q-10 -9 -24 -9q-13 0 -22 9t-10 23v11q-3 39 -34 52q-32 13 -61 -12l-8 -8
q-10 -9 -23 -9q-12 0 -23 9q-9 10 -9 23q0 12 9 22l9 8q25 30 12 61q-13 32 -51 35h-13q-13 0 -22 9t-10 23q1 14 10 23t22 9h13v0z" />
    <glyph glyph-name="viruses" unicode="&#xe076;" horiz-adv-x="640" 
d="M224 256q-15 -1 -16 -16q1 -15 16 -16q15 1 16 16q-1 15 -16 16v0zM176 296q-22 -2 -24 -24q2 -22 24 -24q22 2 24 24q-2 22 -24 24v0zM624 96h-12q-22 2 -30 20q-7 18 7 35l9 8q9 12 0 23q-5 5 -11 5q-7 0 -12 -5l-8 -9q-11 -9 -23 -9q-13 0 -22 9q-10 8 -10 23v12
q-1 15 -16 16q-15 -1 -16 -16v-12q0 -15 -10 -23q-9 -9 -22 -9q-12 0 -23 9l-8 9q-5 5 -12 5q-6 0 -11 -5q-9 -11 0 -23l9 -8q14 -17 7 -35q-8 -18 -30 -20h-12q-15 -1 -16 -16q1 -15 16 -16h12q22 -2 30 -20q7 -18 -7 -35l-9 -8q-9 -12 0 -23q5 -5 11 -5q7 0 12 5l8 9
q11 9 23 9q13 0 22 -9q10 -8 10 -23v-12q1 -15 16 -16q15 1 16 16v12q0 15 10 23q9 9 22 9q12 0 23 -9l8 -9q5 -5 12 -5q6 0 11 5q9 11 0 23l-9 8q-14 17 -7 35q8 18 30 20h12q15 1 16 16q-1 15 -16 16v0zM464 56q-22 2 -24 24q2 22 24 24q22 -2 24 -24q-2 -22 -24 -24v0z
M347 235h16q19 1 21 21q-2 20 -21 21h-16q-30 2 -40 27q-10 24 9 46l12 12q12 15 0 30q-7 6 -15 6q-9 0 -15 -6l-12 -12q-13 -12 -30 -12t-29 11q-13 12 -14 31v17q-2 19 -21 21q-20 -2 -21 -21v-16q-1 -20 -14 -32q-12 -11 -29 -11t-30 12l-12 12q-6 6 -15 6q-8 0 -15 -6
q-12 -15 0 -30l12 -12q19 -22 9 -46q-10 -25 -40 -27h-16q-19 -2 -21 -21q2 -20 21 -21h16q30 -2 40 -27q10 -24 -9 -46l-12 -12q-12 -15 0 -30q7 -6 15 -6q9 0 15 6l12 12q13 13 30 12q17 0 29 -11q13 -12 14 -31v-17q2 -19 21 -21q20 2 21 21v16q1 20 14 32q12 11 29 11
t30 -12l12 -12q6 -6 15 -6q8 0 15 6q12 15 0 30l-12 12q-19 22 -9 46q10 25 40 27v0zM263 227q-7 -17 -7 -35q-38 -1 -64 -26q-26 25 -64 26q0 18 -7 35q-8 17 -19 29q12 12 19 29t7 35q38 2 64 26q26 -25 64 -26q0 -18 7 -35t19 -29q-12 -12 -19 -29v0z" />
    <glyph glyph-name="vest" unicode="&#xe085;" horiz-adv-x="448" 
d="M439 196l-39 66v130q0 22 -14 37q-13 15 -34 18v1h-39q-15 -1 -21 -14l-10 -7q-27 -17 -58 -17t-58 17l-10 7q-6 13 -21 14h-39v-1q-21 -3 -34 -18q-14 -15 -14 -37v-130l-38 -64q-10 -15 -10 -32v-174q1 -24 16 -40q16 -15 40 -16h336q24 1 40 16q15 16 16 40v174
q0 18 -9 30v0zM268 368l-44 -122l-44 122q22 -6 44 -6t44 6v0zM52 -14l85 85q14 17 0 34q-17 14 -34 0l-55 -55v116q0 2 2 6l43 72q3 5 3 12v136q1 7 8 8h14l81 -226l-6 -14q-1 -4 -1 -8v-168h-136q-2 0 -4 2v0zM240 -16v164l90 252h14q7 -1 8 -8v-136q0 -7 3 -12l44 -73
q1 -3 1 -5v-115l-55 55q-17 14 -34 0q-14 -17 0 -34l85 -85q-1 -1 -1 -2q-1 -1 -3 -1h-152v0z" />
    <glyph glyph-name="vest-patches" unicode="&#xe086;" horiz-adv-x="448" 
d="M439 196l-39 66v130q0 22 -14 37q-13 15 -34 18v1h-39q-15 -1 -21 -14l-10 -7q-27 -17 -58 -17t-58 17l-10 7q-6 13 -21 14h-39v-1q-21 -3 -34 -18q-14 -15 -14 -37v-130l-38 -64q-10 -15 -10 -32v-174q1 -24 16 -40q16 -15 40 -16h336q24 1 40 16q15 16 16 40v174
q0 18 -9 30v0zM193 160q-1 -4 -1 -8v-168h-136q-7 1 -8 8v174q0 2 2 6l43 72q3 5 3 12v136q1 7 8 8h14l81 -226l-6 -14v0zM180 368q22 -6 44 -6t44 6l-44 -122l-44 122v0zM400 -8q-1 -7 -8 -8h-152v164l90 252h14q7 -1 8 -8v-136q0 -7 3 -12l44 -73q1 -3 1 -5v-174v0z
M343 161h-6v6q-1 21 -22 25q-11 1 -19 -6q-7 -8 -8 -19v-48q-1 -6 7 -7h48q11 1 18 8q8 8 7 19q-4 21 -25 22v0zM112 88q-17 0 -28 -12v0q-12 -11 -12 -28t12 -28q11 -12 28 -12t28 12q12 11 12 28t-12 28q-11 12 -28 12v0zM85 187q-10 -11 0 -22l12 -13l-12 -13
q-10 -11 0 -22q5 -5 11 -5t11 5l13 12l13 -12q5 -5 11 -5t11 5q10 11 0 22l-12 13l12 13q10 11 0 22q-11 10 -22 0l-13 -12l-13 12q-11 10 -22 0v0z" />
    <glyph glyph-name="airplay" unicode="&#xe089;" horiz-adv-x="576" 
d="M488 416h-400q-37 -1 -62 -26t-26 -62v-208q1 -37 26 -62t62 -26q22 2 24 24q-2 22 -24 24q-17 0 -28 12q-12 11 -12 28v208q0 17 12 28q11 12 28 12h400q17 0 28 -12q12 -11 12 -28v-208q0 -17 -12 -28q-11 -12 -28 -12q-22 -2 -24 -24q2 -22 24 -24q37 1 62 26t26 62
v208q-1 37 -26 62t-62 26v0zM322 162q-15 14 -34 14v0q-19 0 -34 -14l-112 -112q-22 -25 -10 -52q11 -28 44 -30h224q33 2 44 30q12 27 -10 52l-112 112v0zM176 17l111 112l112 -112h-223v0z" />
    <glyph glyph-name="alt" unicode="&#xe08a;" horiz-adv-x="640" 
d="M416 24q2 -22 24 -24h176q22 2 24 24q-2 22 -24 24h-176q-22 -2 -24 -24v0zM640 360q-2 22 -24 24h-129q-42 -1 -69 -33l-234 -288q-12 -15 -30 -15h-130q-22 -2 -24 -24q2 -22 24 -24h130q41 1 68 33l234 288q12 15 31 15h129q22 2 24 24v0z" />
    <glyph glyph-name="angle" unicode="&#xe08c;" horiz-adv-x="448" 
d="M64 16h360q22 -2 24 -24q-2 -22 -24 -24h-400q-13 0 -21 11q-6 12 0 24l208 400q12 19 32 10q19 -12 10 -32l-189 -365v0zM241 272q41 -30 71 -71l-41 -26q-23 30 -52 54l22 43v0zM323 56q-8 42 -27 78l41 26q25 -48 35 -104h-49v0z" />
    <glyph glyph-name="angle-90" unicode="&#xe08d;" horiz-adv-x="448" 
d="M316 48h48q-9 65 -42 120l-41 -24q26 -44 35 -96v0zM264 170l41 25q-33 45 -78 78l-25 -41q36 -26 62 -62v0zM424 16h-376v376q-2 22 -24 24q-22 -2 -24 -24v-400q2 -22 24 -24h400q22 2 24 24q-2 22 -24 24v0zM200 290q-55 33 -120 42v-49q52 -8 96 -34l24 41v0z" />
    <glyph glyph-name="apple-core" unicode="&#xe08f;" horiz-adv-x="384" 
d="M190 336q15 0 36 4v0q21 5 38 20q21 26 23 55q2 30 0 32q0 1 -13 1q-15 0 -36 -4q-21 -5 -38 -20q-21 -26 -23 -55q-2 -30 0 -32q0 -1 13 -1v0zM287 144q1 46 21 84v0q21 38 57 62q-24 23 -56 29q-8 1 -17 1q-26 0 -53 -8q-27 -7 -48 -17q-20 10 -47 17q-27 8 -53 8
q-9 0 -17 -1q-32 -6 -56 -29q36 -24 56 -62q21 -38 21 -84t-21 -84t-57 -62q21 -28 50 -45q30 -17 68 -17q20 0 42 12q7 4 15 4q7 0 14 -4q23 -12 43 -12q38 0 67 17q30 17 50 45q-36 24 -57 62t-22 84v0zM249 -16q-6 -1 -20 6q-17 10 -37 10t-37 -10q-14 -7 -20 -6
q-26 0 -46 13q53 63 54 147q-1 71 -39 127q17 -2 35 -8q18 -5 32 -12l20 -9l20 9q14 7 32 12q18 6 36 8q-39 -56 -40 -127q1 -85 55 -148q-19 -12 -45 -12v0z" />
    <glyph glyph-name="arrow-down-from-dotted-line" unicode="&#xe090;" horiz-adv-x="448" 
d="M224 353q14 0 23 9v0q9 9 9 23q0 13 -9 23q-9 9 -23 9t-23 -9q-9 -10 -9 -23q0 -14 9 -23t23 -9v0zM416 353q14 0 23 9v0q9 9 9 23q0 13 -9 23q-9 9 -23 9t-23 -9q-9 -10 -9 -23q0 -14 9 -23t23 -9v0zM320 353q14 0 23 9v0q9 9 9 23q0 13 -9 23q-9 9 -23 9t-23 -9
q-9 -10 -9 -23q0 -14 9 -23t23 -9v0zM128 353q14 0 23 9v0q9 9 9 23q0 13 -9 23q-9 9 -23 9t-23 -9q-9 -10 -9 -23q0 -14 9 -23t23 -9v0zM32 353q14 0 23 9v0q9 9 9 23q0 13 -9 23q-9 9 -23 9t-23 -9q-9 -10 -9 -23q0 -14 9 -23t23 -9v0zM207 -25q7 -7 17 -7v0q10 0 17 7
l128 136q14 18 -1 34q-17 14 -34 -1l-86 -92v212q-2 22 -24 24q-22 -2 -24 -24v-212l-87 92q-7 8 -17 8q-9 0 -16 -7q-15 -16 -1 -34l128 -136v0z" />
    <glyph glyph-name="arrow-down-left" unicode="&#xe091;" horiz-adv-x="320" 
d="M312 312l-230 -232h182q22 -2 24 -24q-2 -22 -24 -24h-240q-22 2 -24 24v240q2 22 24 24q22 -2 24 -24v-182l231 231q17 14 34 0q14 -17 -1 -33v0z" />
    <glyph glyph-name="arrow-down-left-and-arrow-up-right-to-center" unicode="&#xe092;" 
d="M287 210q4 -2 9 -2h144q22 2 24 24q-2 22 -24 24h-86l135 135q14 17 0 34q-17 14 -34 0l-135 -135v86q-2 22 -24 24q-22 -2 -24 -24v-144q0 -5 2 -9q3 -9 13 -13v0zM225 174q-4 2 -9 2h-144q-22 -2 -24 -24q2 -22 24 -24h86l-135 -135q-14 -17 0 -34q17 -14 34 0l135 135
v-86q2 -22 24 -24q22 2 24 24v144q0 5 -2 9q-4 10 -13 13v0z" />
    <glyph glyph-name="arrow-down-right" unicode="&#xe093;" horiz-adv-x="320" 
d="M320 296v-240q-2 -22 -24 -24h-240q-22 2 -24 24q2 22 24 24h182l-231 232q-14 17 0 34q17 14 34 0l231 -232v182q2 22 24 24q22 -2 24 -24v0z" />
    <glyph glyph-name="arrow-down-to-bracket" unicode="&#xe094;" horiz-adv-x="448" 
d="M352 -64h-256q-41 1 -68 28t-28 68v72q2 22 24 24q22 -2 24 -24v-72q1 -20 14 -34q14 -13 34 -14h256q20 1 34 14q13 14 14 34v72q2 22 24 24q22 -2 24 -24v-72q-1 -41 -28 -68t-68 -28v0zM240 102l136 128q15 17 1 34q-16 15 -33 1l-96 -89v248q-2 22 -24 24
q-22 -2 -24 -24v-248l-96 89q-17 14 -33 -1q-7 -7 -7 -16q0 -10 8 -17l136 -128q16 -14 32 -1v0z" />
    <glyph glyph-name="arrow-down-to-dotted-line" unicode="&#xe095;" horiz-adv-x="448" 
d="M224 32q-14 0 -23 -9v0q-9 -9 -9 -23t9 -23t23 -9t23 9t9 23t-9 23t-23 9v0zM32 32q-14 0 -23 -9v0q-9 -9 -9 -23t9 -23t23 -9t23 9t9 23t-9 23t-23 9v0zM128 32q-14 0 -23 -9v0q-9 -9 -9 -23t9 -23t23 -9t23 9t9 23t-9 23t-23 9v0zM320 32q-14 0 -23 -9v0q-9 -9 -9 -23
t9 -23t23 -9t23 9t9 23t-9 23t-23 9v0zM416 32q-14 0 -23 -9v0q-9 -9 -9 -23t9 -23t23 -9t23 9t9 23t-9 23t-23 9v0zM207 87q7 -7 17 -7v0q10 0 17 7l128 136q14 18 -1 34q-17 14 -34 -1l-86 -92v212q-2 22 -24 24q-22 -2 -24 -24v-212l-87 92q-7 8 -17 8q-9 0 -16 -7
q-15 -16 -1 -34l128 -136v0z" />
    <glyph glyph-name="arrow-down-to-square" unicode="&#xe096;" 
d="M416 320h-40q-22 -2 -24 -24q2 -22 24 -24h40q15 -1 16 -16v-256q-1 -15 -16 -16h-320q-15 1 -16 16v256q1 15 16 16h40q22 2 24 24q-2 22 -24 24h-40q-27 -1 -45 -19t-19 -45v-256q1 -27 19 -45t45 -19h320q27 1 45 19t19 45v256q-1 27 -19 45t-45 19v0zM144 209
q-16 -16 -2 -34l96 -104q8 -7 18 -7t18 7l96 104q13 18 -2 34q-17 14 -34 -1l-54 -59v275q-2 22 -24 24q-22 -2 -24 -24v-275l-54 59q-8 8 -18 8q-9 0 -16 -7v0z" />
    <glyph glyph-name="arrow-trend-down" unicode="&#xe097;" horiz-adv-x="576" 
d="M376 80h118l-174 174l-112 -110q-16 -15 -33 0l-168 168q-14 16 0 33q17 14 34 0l151 -151l111 111q17 14 33 0l192 -191v118q2 22 24 24q22 -2 24 -24v-176q-2 -22 -24 -24h-176q-22 2 -24 24q2 22 24 24v0z" />
    <glyph glyph-name="arrow-trend-up" unicode="&#xe098;" horiz-adv-x="576" 
d="M352 328q2 22 24 24h176q22 -2 24 -24v-176q-2 -22 -24 -24q-22 2 -24 24v118l-192 -190q-16 -15 -33 0l-111 110l-151 -150q-17 -15 -34 0q-14 16 0 33l168 168q17 14 33 0l112 -111l174 174h-118q-22 2 -24 24v0v0z" />
    <glyph glyph-name="arrow-up-arrow-down" unicode="&#xe099;" horiz-adv-x="448" 
d="M240 271q15 16 2 34l-96 104q-8 7 -18 7t-18 -7l-96 -104q-13 -18 2 -34q7 -7 16 -7q10 0 18 8l54 59v-339q2 -22 24 -24q22 2 24 24v339l54 -59q17 -15 34 -1v0zM432 113q-17 14 -34 -1l-54 -59v339q-2 22 -24 24q-22 -2 -24 -24v-339l-54 59q-8 8 -18 8q-9 0 -16 -7
q-15 -16 -2 -34l95 -104q8 -7 18 -7t18 7l95 104q15 18 0 34v0z" />
    <glyph glyph-name="arrow-up-from-bracket" unicode="&#xe09a;" horiz-adv-x="448" 
d="M424 128q22 -2 24 -24v-72q-1 -41 -28 -68t-68 -28h-256q-41 1 -68 28t-28 68v72q2 22 24 24q22 -2 24 -24v-72q1 -20 14 -34q14 -13 34 -14h256q20 1 34 14q13 14 14 34v72q2 22 24 24v0zM208 441l-136 -127q-15 -17 -1 -34q16 -15 33 -1l96 89v-248q2 -22 24 -24
q22 2 24 23v249l96 -89q17 -14 33 1q7 7 7 16q0 10 -8 17l-136 128q-16 14 -32 0v0z" />
    <glyph glyph-name="arrow-up-from-dotted-line" unicode="&#xe09b;" horiz-adv-x="448" 
d="M224 32q-14 0 -23 -9v0q-9 -9 -9 -23t9 -23t23 -9t23 9t9 23t-9 23t-23 9v0zM32 32q-14 0 -23 -9v0q-9 -9 -9 -23t9 -23t23 -9t23 9t9 23t-9 23t-23 9v0zM128 32q-14 0 -23 -9v0q-9 -9 -9 -23t9 -23t23 -9t23 9t9 23t-9 23t-23 9v0zM320 32q-14 0 -23 -9v0q-9 -9 -9 -23
t9 -23t23 -9t23 9t9 23t-9 23t-23 9v0zM416 32q-14 0 -23 -9v0q-9 -9 -9 -23t9 -23t23 -9t23 9t9 23t-9 23t-23 9v0zM242 409q-8 7 -18 7v0q-10 0 -17 -7l-128 -136q-14 -18 1 -34q17 -14 33 1l87 92v-212q2 -22 24 -24q22 2 24 24v212l87 -92q7 -7 17 -7q9 0 16 6
q15 17 1 34l-127 136v0z" />
    <glyph glyph-name="arrow-up-from-square" unicode="&#xe09c;" 
d="M416 288h-8q-22 -2 -24 -24q2 -22 24 -24h8q15 -1 16 -16v-224q-1 -15 -16 -16h-320q-15 1 -16 16v224q1 15 16 16h8q22 2 24 24q-2 22 -24 24h-8q-27 -1 -45 -19t-19 -45v-224q1 -27 19 -45t45 -19h320q27 1 45 19t19 45v224q-1 27 -19 45t-45 19v0zM160 296q10 0 18 8
l54 59v-235q2 -22 24 -24q22 2 24 24v235l54 -59q8 -8 18 -8q22 2 24 24q0 9 -6 17l-96 104q-8 7 -18 7t-18 -7l-96 -104q-6 -8 -7 -17q0 -10 8 -17q7 -7 17 -7v0z" />
    <glyph glyph-name="arrow-up-left" unicode="&#xe09d;" horiz-adv-x="320" 
d="M312 40q-6 -8 -16 -8t-17 7l-231 231v-182q-2 -22 -24 -24q-22 2 -24 24v240q2 22 24 24h240q22 -2 24 -24q-2 -22 -24 -24h-182l231 -231q14 -17 -1 -33v0z" />
    <glyph glyph-name="arrow-up-left-from-circle" unicode="&#xe09e;" 
d="M312 112q10 0 17 7q14 17 0 34l-247 247h110q22 2 24 24q-2 22 -24 24h-168q-22 -2 -24 -24v-168q2 -22 24 -24q22 2 24 24v110l247 -247q7 -7 17 -7v0zM288 384q-22 -2 -24 -24q2 -22 24 -24q75 -2 124 -52q50 -49 52 -124q-2 -75 -52 -124q-49 -50 -124 -52
q-75 2 -124 52q-50 49 -52 124q-2 22 -24 24q-22 -2 -24 -24q1 -62 31 -113q30 -50 80 -80q51 -30 113 -31q62 1 113 31q50 30 80 80q30 51 31 113q-1 62 -31 113q-30 50 -80 80q-51 30 -113 31v0z" />
    <glyph glyph-name="arrow-up-right" unicode="&#xe09f;" horiz-adv-x="320" 
d="M320 328v-240q-2 -22 -24 -24q-22 2 -24 24v182l-231 -231q-7 -7 -17 -7t-17 7q-14 17 0 34l231 231h-182q-22 2 -24 24q2 22 24 24h240q22 -2 24 -24v0z" />
    <glyph glyph-name="arrow-up-right-and-arrow-down-left-from-center" unicode="&#xe0a0;" 
d="M497 446q-4 2 -9 2h-143q-23 -2 -25 -24q2 -22 24 -24h86l-135 -135q-14 -17 0 -34q17 -14 34 0l135 135v-86q2 -22 24 -24q22 2 24 25v143q0 5 -2 9q-4 9 -13 13v0zM15 -62q4 -2 9 -2h143q23 2 25 24q-2 22 -24 24h-86l135 135q14 17 0 34q-17 14 -34 0l-135 -135v86
q-2 22 -24 24q-22 -2 -24 -24v-144q0 -5 2 -9q4 -9 13 -13v0z" />
    <glyph glyph-name="arrow-up-to-dotted-line" unicode="&#xe0a1;" horiz-adv-x="448" 
d="M224 353q14 0 23 9v0q9 9 9 23q0 13 -9 23q-9 9 -23 9t-23 -9q-9 -10 -9 -23q0 -14 9 -23t23 -9v0zM416 353q14 0 23 9v0q9 9 9 23q0 13 -9 23q-9 9 -23 9t-23 -9q-9 -10 -9 -23q0 -14 9 -23t23 -9v0zM320 353q14 0 23 9v0q9 9 9 23q0 13 -9 23q-9 9 -23 9t-23 -9
q-9 -10 -9 -23q0 -14 9 -23t23 -9v0zM128 353q14 0 23 9v0q9 9 9 23q0 13 -9 23q-9 9 -23 9t-23 -9q-9 -10 -9 -23q0 -14 9 -23t23 -9v0zM32 353q14 0 23 9v0q9 9 9 23q0 13 -9 23q-9 9 -23 9t-23 -9q-9 -10 -9 -23q0 -14 9 -23t23 -9v0zM242 297q-8 7 -18 7v0q-10 0 -17 -7
l-128 -137q-14 -17 1 -33q17 -14 34 1l86 92v-212q2 -22 24 -24q22 2 24 24v212l87 -92q7 -7 17 -7q9 0 16 6q15 17 1 34l-127 136v0z" />
    <glyph glyph-name="arrows-cross" unicode="&#xe0a2;" horiz-adv-x="448" 
d="M424 416h-143q-23 -2 -25 -24q2 -22 24 -24h86l-359 -359q-14 -17 0 -34q17 -14 34 0l359 359v-86q2 -22 24 -24q22 2 24 25v143q-2 22 -24 24v0zM167 215l34 34l-160 160q-17 14 -34 0q-14 -17 0 -34l160 -160v0zM424 160q-22 -2 -24 -24v-86l-119 119l-34 -34l119 -119
h-86q-22 -2 -24 -24q2 -22 24 -24h144q22 2 24 24v144q-2 22 -24 24v0z" />
    <glyph glyph-name="arrows-from-dotted-line" unicode="&#xe0a3;" horiz-adv-x="448" 
d="M224 225q-14 0 -23 -9v0q-9 -10 -9 -23q0 -14 9 -23t23 -9t23 9t9 23q0 13 -9 23q-9 9 -23 9v0zM32 225q-14 0 -23 -9v0q-9 -10 -9 -23q0 -14 9 -23t23 -9t23 9t9 23q0 13 -9 23q-9 9 -23 9v0zM152 329q10 0 17 7l31 30v-86q2 -22 24 -24q22 2 24 24v86l31 -31
q7 -7 17 -6q14 1 19 9q5 9 5 14q0 10 -7 17l-72 72q-10 8 -18 7q-7 1 -17 -7l-72 -72q-6 -7 -6 -17q2 -22 24 -23v0zM416 225q-14 0 -23 -9v0q-9 -10 -9 -23q0 -14 9 -23t23 -9t23 9t9 23q0 13 -9 23q-9 9 -23 9v0zM320 225q-14 0 -23 -9v0q-9 -10 -9 -23q0 -14 9 -23t23 -9
t23 9t9 23q0 13 -9 23q-9 9 -23 9v0zM160 193q0 13 -9 23v0q-9 9 -23 9q-14 -1 -23 -10t-9 -22t9 -22q9 -10 23 -10t23 9t9 23v0zM296 57q-10 0 -17 -7l-31 -32v86q-2 22 -24 24q-22 -2 -24 -24v-86l-31 31q-7 7 -17 8q-22 -2 -24 -24q0 -10 7 -17l72 -72q4 -7 17 -8
q13 2 17 7l72 72q7 7 7 18q0 10 -7 17t-17 7v0z" />
    <glyph glyph-name="arrows-from-line" unicode="&#xe0a4;" horiz-adv-x="448" 
d="M296 57q-10 0 -17 -7l-31 -32v86q-2 22 -24 24q-22 -2 -24 -24v-86l-31 31q-7 7 -17 8q-22 -2 -24 -24q0 -10 7 -17l72 -72q4 -7 17 -8q13 2 17 7l72 72q7 7 7 18q0 10 -7 17t-17 7v0zM152 329q10 0 17 7l31 30v-86q2 -22 24 -24q22 2 24 24v86l31 -31q7 -7 17 -6
q14 1 19 9q5 9 5 14q0 10 -7 17l-72 72q-10 8 -18 7q-5 1 -16 -7l-72 -72q-7 -7 -7 -17q2 -22 24 -23v0zM424 216h-400q-22 -2 -24 -23q0 -10 7 -17q7 -8 17 -8h400q22 2 24 24q-2 22 -24 24v0z" />
    <glyph glyph-name="arrows-minimize" unicode="&#xe0a5;" 
d="M200 416q-22 -2 -24 -24v-86l-119 119q-17 14 -34 0q-14 -17 0 -34l119 -119h-86q-22 -2 -24 -24q2 -22 24 -24h144q5 0 9 2q9 4 13 13q2 4 2 9v144q-2 22 -24 24v0zM303 226q4 -2 9 -2h144q22 2 24 24q-2 22 -24 24h-86l119 119q14 17 0 34q-17 14 -34 0l-119 -119v86
q-2 22 -24 24q-22 -2 -24 -24v-144q0 -5 2 -9q3 -9 13 -13v0zM370 112h86q22 2 24 24q-2 22 -24 24h-144q-5 0 -9 -2q-9 -4 -13 -13q-2 -4 -2 -9v-144q2 -22 24 -24q22 2 24 24v86l119 -119q17 -14 34 0q14 17 0 34l-119 119v0zM209 158q-4 2 -9 2h-144q-22 -2 -24 -24
q2 -22 24 -24h86l-119 -119q-14 -17 0 -34q17 -14 34 0l119 119v-86q2 -22 24 -24q22 2 24 24v144q0 5 -2 9q-4 10 -13 13v0z" />
    <glyph glyph-name="arrows-to-dotted-line" unicode="&#xe0a6;" horiz-adv-x="448" 
d="M32 224q-14 0 -23 -9v0q-9 -9 -9 -23t9 -23t23 -9t23 9t9 23t-9 23t-23 9v0zM192 192q0 -14 9 -23v0q9 -9 23 -9t23 9t9 23t-9 23t-23 9t-23 -9t-9 -23v0zM207 264q4 -7 17 -8q13 2 17 7l72 72q7 7 7 17q-2 22 -24 24q-10 0 -17 -7l-31 -31v86q-2 22 -24 24
q-22 -2 -24 -24v-86l-32 31q-6 7 -16 7q-22 -2 -24 -24q0 -10 7 -17l72 -71v0zM320 224q-14 0 -23 -9v0q-9 -9 -9 -23t9 -23t23 -9t23 9t9 23t-9 23t-23 9v0zM416 224q-14 0 -23 -9v0q-9 -9 -9 -23t9 -23t23 -9t23 9t9 23t-9 23t-23 9v0zM240 121q-9 8 -16 7q-7 1 -17 -7
l-72 -72q-7 -7 -7 -17q2 -22 24 -24q10 0 17 7l31 31v-86q2 -22 24 -24q22 2 24 24v86l31 -31q7 -7 17 -7q14 1 19 9q5 9 5 15q0 10 -7 17l-73 72v0zM160 192q0 14 -9 23v0q-9 9 -23 9t-23 -9t-9 -23t9 -23t23 -9t23 9t9 23v0z" />
    <glyph glyph-name="arrows-to-line" unicode="&#xe0a7;" horiz-adv-x="448" 
d="M207 264q4 -7 17 -8q13 2 17 7l72 72q7 7 7 17q-2 22 -24 24q-10 0 -17 -7l-31 -31v86q-2 22 -24 24q-22 -2 -24 -24v-86l-32 31q-6 7 -16 7q-22 -2 -24 -24q0 -10 7 -17l72 -71v0zM240 121q-9 8 -16 7q-7 1 -17 -7l-72 -72q-7 -7 -7 -17q2 -22 24 -24q10 0 17 7l31 31
v-86q2 -22 24 -24q22 2 24 24v86l31 -31q7 -7 17 -7q14 1 19 9q5 9 5 15q0 10 -7 17l-73 72v0zM424 216h-400q-22 -2 -24 -23q0 -10 7 -17q7 -8 17 -8h400q22 2 24 24q-2 22 -24 24v0z" />
    <glyph glyph-name="audio-description-slash" unicode="&#xe0a8;" horiz-adv-x="640" 
d="M96 16q-15 1 -16 16v257l-48 37v-294q1 -27 19 -45t45 -19h393l-61 48h-332v0zM173 216l-42 -85q-8 -21 10 -33q21 -8 32 11l10 19h82l10 -19q7 -13 21 -13q5 0 11 2q4 3 7 7l-80 63h-31l9 17l-39 31v0zM631 -21l-31 24q7 13 8 29v320q-1 27 -19 45t-45 19h-448
q-10 0 -19 -3l-38 30q-19 12 -34 -4q-12 -19 4 -34l591 -463q8 -6 15 -6q11 0 19 9q13 19 -3 34v0zM420 144l-36 28v68h32q20 -1 34 -14q14 -14 14 -34q0 -19 -13 -33q-12 -13 -31 -15v0zM560 34l-96 75q22 13 35 35q13 21 13 48q-1 41 -28 68t-68 28h-56q-22 -2 -24 -24
v-54l-202 158h410q15 -1 16 -16v-318v0z" />
    <glyph glyph-name="austral-sign" unicode="&#xe0a9;" horiz-adv-x="448" 
d="M321 224h103q22 -2 24 -24q-2 -22 -24 -24h-83l20 -48h63q22 -2 24 -24q-2 -22 -24 -24h-43l33 -79q7 -20 -13 -31q-21 -7 -31 13l-41 97h-211l-40 -97q-10 -20 -31 -13q-20 11 -13 31l33 79h-43q-22 2 -24 24q2 22 24 24h63l20 48h-83q-22 2 -24 24q2 22 24 24h103
l75 177q6 14 22 15q16 -1 22 -15l75 -177v0zM269 224l-45 107l-44 -107h89v0zM159 176l-20 -48h170l-20 48h-130v0z" />
    <glyph glyph-name="avocado" unicode="&#xe0aa;" 
d="M512 306q-1 56 -39 98v0q-38 42 -101 44q-62 -1 -109 -45q-48 -47 -112 -64q-20 -4 -55 -25t-65 -63q-29 -42 -31 -110q2 -87 60 -145q59 -58 145 -60q82 0 145 60q24 25 36 49q11 25 19 49q8 25 20 52q13 26 40 54l4 4q43 44 43 102v0zM463 306q0 -40 -28 -68l-4 -4
q-27 -28 -43 -59t-28 -62q-19 -53 -50 -90t-105 -39q-35 0 -71 18t-60 53q-25 35 -26 86q1 56 33 97q32 40 82 55q51 14 79 33q29 19 47 36q18 16 36 27t47 11q43 -2 67 -31q24 -28 24 -63v0zM247 257q-47 -2 -82 -37v0q-35 -35 -37 -82q-1 -24 15 -47q17 -24 57 -26
q48 2 83 37t36 82q1 23 -15 47t-57 26v0z" />
    <glyph glyph-name="award-simple" unicode="&#xe0ab;" horiz-adv-x="384" 
d="M384 256q0 16 -6 28v0q-5 11 -10 18v0v0l-1 1v0v1v0q1 9 0 22q-1 12 -9 26t-19 21q-10 7 -18 11v0h-1v1q-4 8 -11 18q-7 11 -21 19q-16 10 -37 10q-5 0 -11 -1v0h-1l-1 1v0q-7 5 -18 10q-12 6 -28 6t-28 -6q-11 -5 -18 -10l-1 -1v0h-1v0q-6 1 -10 1q-22 0 -38 -10
q-14 -8 -21 -19q-7 -10 -11 -18v-1v0h-1q-8 -4 -18 -11q-11 -7 -19 -21t-9 -26q-1 -13 0 -22v0v-1v0l-1 -1q-5 -7 -10 -18q-6 -12 -6 -28t6 -28q5 -11 10 -18l1 -1v0v-1v0v0q-1 -9 0 -21q1 -13 9 -27t19 -21q10 -7 18 -11h1v-1q4 -8 11 -18q7 -11 21 -19l1 -1h2l-28 -134
q-2 -10 6 -16q7 -5 17 -1l98 49l98 -49q10 -4 17 1q8 6 6 16l-28 134h2l1 1q14 8 21 19q7 10 11 18v0v1v0v0h1q8 4 18 11q11 7 19 21t9 26q1 13 0 22v0v1v0l1 1v0q5 7 10 18q6 12 6 28v0zM319 222q-2 -8 -1 -17v0q2 -12 -2 -21q-6 -8 -17 -13q-8 -3 -14 -9q-5 -6 -9 -14
q-5 -11 -13 -17q-6 -3 -13 -3q-4 0 -8 1h-7q-5 0 -10 -1q-6 -2 -13 -7q-9 -8 -20 -9q-11 1 -20 8q-7 6 -14 8h-2q-4 2 -7 2h-8q-4 -1 -8 -1q-7 0 -13 3q-8 6 -13 17q-4 8 -9 13q-6 6 -14 9q-11 5 -17 13q-4 9 -2 21q1 9 -1 17q-2 7 -7 14q-8 9 -9 20q1 11 8 20q6 7 8 14
q2 8 1 17q-2 12 2 21q6 8 17 13q8 3 14 9t9 14q5 11 13 17q6 3 14 3q3 0 7 -1h8t9 1q7 2 14 7q9 8 20 9q11 -1 20 -9q7 -5 14 -7q5 -1 9 -1h8q4 1 8 1q7 0 13 -3q8 -6 13 -17q3 -8 9 -14t14 -9q11 -5 17 -13q4 -9 2 -21q-1 -9 1 -17q2 -7 7 -14q8 -9 9 -20q-1 -11 -9 -21
q-5 -6 -8 -13v0zM192 320q-27 -1 -45 -19v0q-18 -18 -19 -45q1 -27 19 -45t45 -19q27 1 45 19t19 45q-1 27 -19 45t-45 19v0z" />
    <glyph glyph-name="baht-sign" unicode="&#xe0ac;" horiz-adv-x="320" 
d="M160 424v-40h20q46 -1 76 -32q31 -30 32 -76q-1 -42 -27 -72q27 -13 43 -39q16 -25 16 -57q-1 -46 -32 -76q-30 -31 -76 -32h-52v-40q-2 -22 -24 -24q-22 2 -24 24v40h-70q-18 0 -30 12t-12 30v304q0 16 11 27t27 11h74v40q2 22 24 24q22 -2 24 -24v0v0zM112 336h-64
v-120h64v120v0zM180 216q25 1 42 18v0q17 17 18 42q-1 25 -18 42t-42 18h-20v-120h20v0zM112 168h-64v-120h64v120v0zM212 48q25 1 42 18v0q17 17 18 42q-1 25 -18 42t-42 18h-52v-120h52v0z" />
    <glyph glyph-name="bars-filter" unicode="&#xe0ad;" horiz-adv-x="448" 
d="M0 360q2 22 24 24h400q22 -2 24 -24q-2 -22 -24 -24h-400q-22 2 -24 24v0zM64 200q2 22 24 24h272q22 -2 24 -24q-2 -22 -24 -24h-272q-22 2 -24 24v0zM264 16h-80q-22 2 -24 24q2 22 24 24h80q22 -2 24 -24q-2 -22 -24 -24v0z" />
    <glyph glyph-name="bars-sort" unicode="&#xe0ae;" horiz-adv-x="448" 
d="M0 360q2 22 24 24h400q22 -2 24 -24q-2 -22 -24 -24h-400q-22 2 -24 24v0zM0 200q2 22 24 24h272q22 -2 24 -24q-2 -22 -24 -24h-272q-22 2 -24 24v0zM168 16h-144q-22 2 -24 24q2 22 24 24h144q22 -2 24 -24q-2 -22 -24 -24v0z" />
    <glyph glyph-name="basket-shopping-simple" unicode="&#xe0af;" horiz-adv-x="576" 
d="M192 152q-2 -22 -24 -24q-22 2 -24 24q2 22 24 24q22 -2 24 -24v0zM384 152q2 22 24 24q22 -2 24 -24q-2 -22 -24 -24q-22 2 -24 24v0zM243 445q19 -12 10 -32l-81 -157h232l-81 157q-9 20 10 32q20 9 32 -10l93 -179h94q22 -2 24 -24q-2 -22 -24 -24h-20l-56 -224
q-6 -21 -23 -34q-17 -14 -39 -14h-253q-22 0 -39 14q-16 13 -22 34l-56 224h-20q-22 2 -24 24q2 22 24 24h94l93 179q12 19 32 10v0v0zM483 208h-390l53 -212q4 -11 15 -12h253q12 1 16 12l53 212v0z" />
    <glyph glyph-name="battery-exclamation" unicode="&#xe0b0;" horiz-adv-x="576" 
d="M80 352h128v-48h-128q-14 0 -23 -9t-9 -23v-160q0 -14 9 -23t23 -9h114q-2 -8 -2 -16q0 -17 7 -32h-119q-34 1 -57 23q-22 23 -23 57v160q1 34 23 57q23 22 57 23v0v0zM352 64q0 8 -2 16h114q14 0 23 9t9 23v160q0 14 -9 23t-23 9h-128v48h128q34 -1 57 -23
q22 -23 23 -57v-16q14 0 23 -9t9 -23v-64q0 -14 -9 -23t-23 -9v-16q-1 -34 -23 -57q-23 -22 -57 -23h-119q7 15 7 32v0zM304 64q0 -14 -9 -23v0q-9 -9 -23 -9t-23 9t-9 23t9 23t23 9t23 -9t9 -23v0zM296 152q-2 -22 -24 -24q-22 2 -24 24v176q2 22 24 24q22 -2 24 -24v-176
v0z" />
    <glyph glyph-name="battery-low" unicode="&#xe0b1;" horiz-adv-x="576" 
d="M160 128h-64v128h64v-128v0zM0 272q1 34 23 57v0q23 22 57 23h384q34 -1 57 -23q22 -23 23 -57v-16q14 0 23 -9t9 -23v-64q0 -14 -9 -23t-23 -9v-16q-1 -34 -23 -57q-23 -22 -57 -23h-384q-34 1 -57 23q-22 23 -23 57v160v0zM80 304q-14 0 -23 -9v0q-9 -9 -9 -23v-160
q0 -14 9 -23t23 -9h384q14 0 23 9t9 23v160q0 14 -9 23t-23 9h-384v0z" />
    <glyph glyph-name="bee" unicode="&#xe0b2;" horiz-adv-x="576" 
d="M448 353q-42 -2 -81 -23v1q1 2 1 6q-1 31 -20 53l31 32q10 11 0 22q-11 10 -22 0l-35 -35q-16 7 -34 8q-18 -1 -34 -9l-35 35q-11 10 -22 0q-10 -11 0 -22l31 -32q-19 -22 -20 -52v-4q1 -2 1 -3q-39 21 -81 23q-54 -1 -90 -33q-37 -32 -38 -79q1 -48 37 -80t90 -33
q11 0 22 2q9 -51 42 -95q33 -43 64 -71q31 -27 33 -28v0q2 1 33 28t64 71t42 95q11 -2 21 -2q54 1 90 33q37 31 38 78q-1 48 -37 80q-37 32 -91 34v0zM196 144h184q0 -16 -7 -32h-170q-7 16 -7 32v0zM207 192q6 11 15 21q28 27 66 27t66 -27q9 -10 15 -21h-162v0zM151 179
q-11 -3 -24 -3q-33 1 -56 19q-22 18 -23 46q1 26 23 44q23 18 56 19q22 0 45 -11q23 -10 44 -25q-50 -30 -65 -89v0zM288 -1q-30 27 -58 65h116q-28 -38 -58 -65v0zM448 176q-11 0 -23 3q-15 59 -66 89q21 15 44 25q23 11 45 11q34 -1 57 -19q22 -18 23 -45q-1 -27 -23 -45
q-23 -18 -57 -19v0z" />
    <glyph glyph-name="beer-mug" unicode="&#xe0b3;" 
d="M423 291h-40v13q21 29 14 66q-5 23 -20 39q-16 17 -38 23q-33 8 -61 -10q-6 -2 -7 1v0q-27 25 -63 25q-37 0 -64 -25l-1 -1q-2 -2 -6 1q-28 17 -61 9q-22 -6 -38 -23q-15 -16 -20 -39q-7 -37 14 -66v-288q1 -34 23 -57q23 -22 57 -23h192q30 1 52 19q21 18 27 47l76 35
q25 10 39 32q14 21 14 48v86q-1 38 -26 63q-25 24 -63 25v0zM335 16q0 -14 -9 -23v0q-9 -9 -23 -9h-192q-14 0 -23 9t-9 23v258q32 -7 60 11q1 0 4 -2q28 -27 64 -27q37 0 64 26q2 2 3 2h1q28 -18 60 -11v-257v0zM344 330q-8 -9 -19 -11v0q-12 -2 -22 5q-15 10 -33 8
q-17 -2 -31 -15q-13 -12 -31 -12t-31 12q-16 15 -38 15q-14 1 -27 -8q-10 -6 -22 -5q-11 2 -19 12q-9 12 -6 29q5 19 23 25q16 3 24 -3q16 -10 34 -9q17 2 31 15q13 12 31 12t31 -12q14 -13 31 -15q18 -1 34 9q8 6 24 3q18 -6 23 -25q3 -17 -7 -30v0zM463 117
q-1 -25 -24 -36l-56 -25v187h40q17 0 28 -11q12 -12 12 -29v-86v0zM159 208v-168q-1 -15 -16 -16q-15 1 -16 16v168q1 15 16 16q15 -1 16 -16v0zM223 208v-168q-1 -15 -16 -16q-15 1 -16 16v168q1 15 16 16q15 -1 16 -16v0zM287 208v-168q-1 -15 -16 -16q-15 1 -16 16v168
q1 15 16 16q15 -1 16 -16v0z" />
    <glyph glyph-name="bitcoin-sign" unicode="&#xe0b4;" horiz-adv-x="320" 
d="M64 424q2 22 24 24q22 -2 24 -24v-40h32v40q2 22 24 24q22 -2 24 -24v-41q41 -5 68 -35q27 -29 28 -72q-1 -42 -27 -72q27 -13 43 -39q16 -25 16 -57q-1 -46 -32 -76q-30 -31 -76 -32h-20v-40q-2 -22 -24 -24q-22 2 -24 24v40h-32v-40q-2 -22 -24 -24q-22 2 -24 24v40
h-22q-18 0 -30 12t-12 30v304q0 16 11 27t27 11h26v40v0zM180 216q25 1 42 18v0q17 17 18 42q-1 25 -18 42t-42 18h-132v-120h132v0zM48 168v-120h164q25 1 42 18t18 42q-1 25 -18 42t-42 18h-164v0z" />
    <glyph glyph-name="block-quote" unicode="&#xe0b5;" horiz-adv-x="448" 
d="M424 376q22 -2 24 -24q-2 -22 -24 -24h-400q-22 2 -24 24q2 22 24 24h400v0zM424 216q22 -2 24 -24q-2 -22 -24 -24h-272q-22 2 -24 24q2 22 24 24h272v0zM128 32q2 22 24 24h272q22 -2 24 -24q-2 -22 -24 -24h-272q-22 2 -24 24v0zM0 200q2 22 24 24q22 -2 24 -24v-176
q-2 -22 -24 -24q-22 2 -24 24v176v0z" />
    <glyph glyph-name="bolt-auto" unicode="&#xe0b6;" horiz-adv-x="576" 
d="M264 224h85q15 0 25 -10t10 -25q0 -16 -12 -27l-259 -219q-8 -7 -19 -7q-14 1 -23 11q-8 11 -4 26l53 187h-86q-15 0 -24 10q-10 9 -10 24t12 25l259 222q8 7 19 7q14 -1 23 -11q8 -11 4 -26l-53 -187v0zM152 208q12 0 19 -10q7 -9 4 -21l-45 -157l184 156h-82
q-12 0 -19 9q-7 10 -4 22l45 156l-182 -155h80v0zM464 160q15 -1 22 -13l88 -176q7 -21 -11 -33q-21 -7 -32 11l-14 27h-106l-13 -27q-12 -18 -33 -11q-18 12 -10 33l88 176q7 12 21 13v0v0zM435 24h58l-29 58l-29 -58v0z" />
    <glyph glyph-name="bolt-lightning" unicode="&#xe0b7;" horiz-adv-x="384" 
d="M381 275q-7 13 -21 13h-157l51 127q5 12 -2 22q-8 11 -20 11h-176q-20 -1 -24 -21l-32 -240q-1 -11 6 -19t18 -8h146l-41 -194q-3 -19 14 -27q4 -3 9 -3q12 0 20 10l208 304q7 12 1 25v0zM201 74l22 105q3 11 -4 20q-8 9 -19 9h-149l26 192h120l-51 -127q-5 -12 2 -23
q7 -10 20 -10h147l-114 -166v0z" />
    <glyph glyph-name="bolt-slash" unicode="&#xe0b8;" horiz-adv-x="640" 
d="M228 295l171 146q8 7 19 7q14 -1 23 -11q8 -11 4 -26l-53 -187h85q15 0 25 -10t10 -25q0 -16 -12 -27l-50 -42l181 -141q16 -15 4 -34q-15 -16 -34 -4l-592 464q-16 15 -4 34q15 16 34 4l189 -148v0zM266 264l72 -55l44 154l-116 -99v0zM379 176l33 -25l30 25h-63v0z
M337 87l38 -30l-134 -114q-8 -7 -19 -7q-14 1 -23 11q-8 11 -4 26l52 184l41 -31l-30 -106l79 67v0zM154 231l90 -71h-82q-15 0 -24 10q-10 9 -10 24t12 25l14 12v0z" />
    <glyph glyph-name="book-arrow-right" unicode="&#xe0b9;" horiz-adv-x="640" 
d="M424 160q-22 -2 -24 -24v-40h-320q-17 0 -32 -7v279q0 14 9 23t23 9h320v-56q2 -22 24 -24q22 2 24 24v56q-1 20 -14 34q-14 13 -34 14h-320q-34 -1 -57 -23q-22 -23 -23 -57v-352q1 -34 23 -57q23 -22 57 -23h344q22 2 24 24q-2 22 -24 24h-8v67q30 12 32 45v40
q-2 22 -24 24v0zM368 -16h-288q-14 0 -23 9t-9 23t9 23t23 9h288v-64v0zM632 257l-80 80q-17 14 -34 0q-14 -17 0 -34l40 -39h-278q-22 -2 -24 -24q2 -22 24 -24h278l-39 -39q-7 -7 -7 -17t7 -17q17 -14 34 0l80 80q14 17 -1 34v0z" />
    <glyph glyph-name="book-arrow-up" unicode="&#xe0ba;" horiz-adv-x="448" 
d="M448 96v304q-1 20 -14 34q-14 13 -34 14h-320q-34 -1 -57 -23q-22 -23 -23 -57v-352q1 -34 23 -57q23 -22 57 -23h72q22 2 24 24q-2 22 -24 24h-72q-14 0 -23 9t-9 23t9 23t23 9h72q22 2 24 24q-2 22 -24 24h-72q-17 0 -32 -7v279q0 14 9 23t23 9h320v-304h-72
q-22 -2 -24 -24q2 -22 24 -24h40v-64h-40q-22 -2 -24 -24q2 -22 24 -24h96q22 2 24 24q-2 22 -24 24h-8v67q30 12 32 45v0zM336 200q14 17 0 34l-80 80q-17 14 -34 0l-80 -80q-14 -17 0 -34q17 -14 34 0l40 38v-278q2 -22 24 -24q22 2 24 24v278l39 -39q7 -7 17 -7t16 8v0z
" />
    <glyph glyph-name="book-bookmark" unicode="&#xe0bb;" horiz-adv-x="448" 
d="M448 96v304q-1 20 -14 34q-14 13 -34 14h-320q-34 -1 -57 -23q-22 -23 -23 -57v-352q1 -34 23 -57q23 -22 57 -23h344q22 2 24 24q-2 22 -24 24h-8v67q30 12 32 45v0zM368 -16h-288q-14 0 -23 9t-9 23t9 23t23 9h288v-64v0zM400 96h-320q-17 0 -32 -7v279q0 14 9 23t23 9
h112v-159q1 -10 9 -15q8 -4 16 2l55 44l54 -44q9 -6 17 -2t9 15v159h48v-304v0z" />
    <glyph glyph-name="book-circle-arrow-right" unicode="&#xe0bc;" horiz-adv-x="640" 
d="M349 -16h-269q-14 0 -23 9t-9 23t9 23t23 9h243q-3 16 -3 32q0 8 1 16h-241q-17 0 -32 -7v279q0 14 9 23t23 9h320v-173q22 15 48 22v151q-1 20 -14 34q-14 13 -34 14h-320q-34 -1 -57 -23q-22 -23 -23 -57v-352q1 -34 23 -57q23 -22 57 -23h315q-28 20 -46 48v0z
M496 224q-61 -2 -102 -42v0q-40 -41 -42 -102q2 -61 42 -102q41 -40 102 -42q61 2 102 42q40 41 42 102q-2 61 -42 102q-41 40 -102 42v0zM571 69l-56 -56q-5 -5 -11 -5t-11 5q-10 11 0 22l28 29h-89q-14 1 -15 16q1 15 15 16h89l-28 29q-10 11 0 22q11 10 22 0l56 -56
q10 -11 0 -22v0z" />
    <glyph glyph-name="book-circle-arrow-up" unicode="&#xe0bd;" horiz-adv-x="640" 
d="M349 -16h-269q-14 0 -23 9t-9 23t9 23t23 9h243q-3 16 -3 32q0 8 1 16h-241q-17 0 -32 -7v279q0 14 9 23t23 9h320v-173q22 15 48 22v151q-1 20 -14 34q-14 13 -34 14h-320q-34 -1 -57 -23q-22 -23 -23 -57v-352q1 -34 23 -57q23 -22 57 -23h315q-28 20 -46 48v0z
M496 224q-61 -2 -102 -42v0q-40 -41 -42 -101q2 -61 42 -102q41 -41 102 -43q61 2 102 42q40 41 42 102q-2 61 -42 102q-41 40 -102 42v0zM563 77q-11 -10 -22 0l-29 28v-89q-1 -14 -16 -15q-15 1 -16 15v89l-29 -28q-11 -10 -22 0q-10 11 0 22l56 56q11 10 22 0l56 -56
q5 -5 5 -11t-5 -11v0z" />
    <glyph glyph-name="book-copy" unicode="&#xe0be;" horiz-adv-x="576" 
d="M576 192v208q-1 20 -14 34q-14 13 -34 14h-256q-34 -1 -57 -23q-22 -23 -23 -57v-256q1 -34 23 -57q23 -22 57 -23h280q22 2 24 24q-2 22 -24 24h-8v67q30 12 32 45v0zM496 80h-224q-14 0 -23 9t-9 23t9 23t23 9h224v-64v0zM528 192h-256q-17 0 -32 -7v183q0 14 9 23
t23 9h256v-208v0zM360 -16h-8v16h-48v-16h-224q-14 0 -23 9t-9 23t9 23t23 9h100q-14 21 -18 48h-82q-17 0 -32 -7v183q0 14 9 23t23 9h80v48h-80q-34 -1 -57 -23q-22 -23 -23 -57v-256q1 -34 23 -57q23 -22 57 -23h280q22 2 24 24q-2 22 -24 24v0z" />
    <glyph glyph-name="book-font" unicode="&#xe0bf;" horiz-adv-x="448" 
d="M448 96v304q-1 20 -14 34q-14 13 -34 14h-320q-34 -1 -57 -23q-22 -23 -23 -57v-352q1 -34 23 -57q23 -22 57 -23h344q22 2 24 24q-2 22 -24 24h-8v67q30 12 32 45v0zM368 -16h-288q-14 0 -23 9t-9 23t9 23t23 9h288v-64v0zM400 96h-320q-17 0 -32 -7v279q0 14 9 23t23 9
h320v-304v0zM141 146q21 -8 33 11l17 35h98l18 -35q7 -13 21 -13q5 0 11 3q18 11 10 32l-88 176q-7 12 -21 12t-21 -12l-88 -176q-8 -21 10 -33v0zM240 290l25 -50h-50l25 50v0z" />
    <glyph glyph-name="book-open-cover" unicode="&#xe0c0;" horiz-adv-x="640" 
d="M600 415l-8 -2v-368l-272 -61l-272 61v368l-8 2q-16 3 -28 -6q-11 -9 -12 -25v-351q2 -25 25 -31l288 -63q7 -2 14 0l288 63q23 6 25 30v352q-1 16 -12 25q-12 9 -28 6v0zM98 73l216 -56q2 -1 6 -1t6 1l216 56q17 5 18 23v328q0 11 -9 18q-8 7 -19 6l-212 -40l-212 40
q-11 1 -19 -6q-9 -7 -9 -18v-328q1 -18 18 -23v0zM344 364l168 31v-280l-168 -44v293v0zM128 395l168 -31v-293l-168 44v280v0z" />
    <glyph glyph-name="book-section" unicode="&#xe0c1;" horiz-adv-x="448" 
d="M448 96v304q-1 20 -14 34q-14 13 -34 14h-320q-34 -1 -57 -23q-22 -23 -23 -57v-352q1 -34 23 -57q23 -22 57 -23h344q22 2 24 24q-2 22 -24 24h-8v67q30 12 32 45v0zM368 -16h-288q-14 0 -23 9t-9 23t9 23t23 9h288v-64v0zM400 96h-320q-17 0 -32 -7v279q0 14 9 23t23 9
h320v-304v0zM229 161q-9 2 -19 5v0q-6 2 -12 3l-5 2q-15 3 -20 -10q-3 -15 10 -21l5 -1q18 -6 37 -10q9 -1 18 -1q54 1 64 41q4 29 -15 41q12 10 15 26q4 31 -18 43q-21 13 -45 18v0l-7 2q-24 6 -29 11q-6 5 -4 11q7 18 47 14q13 -2 23 -6q15 -3 20 11q3 14 -10 20
q-17 5 -28 7q-34 4 -56 -6q-22 -11 -27 -34q-4 -29 15 -41q-12 -10 -15 -26q-4 -31 17 -43q21 -13 39 -16v0l7 -2q26 -7 34 -12t6 -12q-7 -18 -47 -14v0zM276 241q-2 -7 -9 -10v0q-7 -3 -14 -3q-3 0 -9 2t-7 2q-24 6 -29 11q-6 6 -4 11q2 8 9 11t14 3q1 0 4 -1q4 -1 5 -1v0
q27 -7 34 -12q8 -5 6 -13v0z" />
    <glyph glyph-name="bookmark-slash" unicode="&#xe0c2;" horiz-adv-x="640" 
d="M631 -21l-119 94v327q-1 20 -14 34q-14 13 -34 14h-288q-20 -1 -34 -14q-13 -14 -14 -34v-27l-89 70q-19 12 -34 -4q-12 -19 4 -34l592 -464q7 -5 14 -5q11 0 19 9q13 19 -3 34v0zM464 110l-288 225v59q1 6 5 6h276q7 0 7 -6v-284v0zM320 80l-144 -84v218l-48 37v-283
q1 -19 16 -28q15 -8 32 0l144 84l144 -84q13 -7 25 -2q13 4 19 15l-83 66l-105 61v0z" />
    <glyph glyph-name="bowling-ball-pin" unicode="&#xe0c3;" horiz-adv-x="576" 
d="M123 224q-25 -2 -27 -27q2 -24 27 -26q24 2 26 26q-2 25 -26 27v0zM197 181q-24 -2 -26 -26q2 -25 26 -27q25 2 27 27q-2 24 -27 26v0zM197 269q-24 -2 -26 -26q2 -25 26 -27q25 2 27 27q-2 24 -27 26v0zM529 262q1 10 7 25v0q11 23 13 66q-1 47 -26 71q-26 24 -59 24
t-59 -24q-25 -24 -26 -71q2 -43 13 -66q6 -15 7 -25q-1 -13 -5 -26q-26 52 -75 84q-49 31 -111 32q-88 -2 -147 -61t-61 -147q2 -88 61 -147t147 -61q49 0 90 20t70 55q11 -31 26 -53q15 -21 46 -22h48q36 2 55 37q19 34 26 72q7 37 7 49q0 26 -8 50t-18 47q-18 39 -21 71v0
zM208 -16q-68 2 -113 47v0q-45 45 -47 113q2 68 47 113t113 47q68 -2 113 -47t47 -113q-2 -68 -47 -113t-113 -47v0zM464 400q15 0 26 -12v0q11 -12 11 -35q-1 -27 -10 -48q-2 -8 -5 -17h-44q-3 9 -5 17q-9 21 -10 48q0 24 11 35q11 12 26 12v0zM498 -10q-3 -6 -10 -6h-48
q-6 0 -10 7q-18 32 -28 79q13 35 14 74v8q0 2 -1 3q4 9 7 17q16 34 23 68h38q8 -35 23 -69q19 -40 22 -77q-1 -32 -10 -57q-9 -26 -20 -47v0z" />
    <glyph glyph-name="box-circle-check" unicode="&#xe0c4;" horiz-adv-x="576" 
d="M48 32q1 -15 16 -16h203q12 -26 29 -48h-232q-27 1 -45 19t-19 45v226q0 14 6 26l41 94q18 36 59 38h236q41 -2 59 -38l42 -94q5 -12 5 -26v-3q-8 1 -16 1q-40 0 -73 -16h-311v-208v0zM342 368h-94v-80h140l-31 70q-4 10 -15 10v0v0zM60 288h140v80h-94q-11 0 -15 -10
l-31 -70v0zM576 80q-2 -61 -42 -102v0q-41 -40 -102 -42q-61 2 -102 42q-40 41 -42 102q2 61 42 102q41 40 102 42q61 -2 102 -42q40 -41 42 -102v0zM477 123l-61 -60l-29 28q-11 10 -22 0q-10 -11 0 -22l40 -40q11 -10 22 0l72 72q10 11 0 22q-11 10 -22 0v0v0z" />
    <glyph glyph-name="brackets-round" unicode="&#xe0c5;" 
d="M148 371q18 13 9 33q-13 18 -33 9q-5 -2 -35 -27q-29 -24 -58 -73q-29 -48 -31 -121q2 -73 31 -121q29 -49 58 -73q30 -25 35 -27q6 -3 12 -3q13 0 21 12q9 20 -9 33q-3 1 -27 21q-25 20 -48 60t-25 99q2 58 25 97t47 60q24 20 28 21v0zM388 413q-20 9 -33 -9
q-9 -20 9 -33q3 -1 28 -21q24 -20 47 -60q23 -39 25 -97q-2 -58 -25 -98q-23 -39 -47 -60q-25 -20 -28 -22q-18 -12 -9 -32q8 -12 21 -12q6 0 12 3q5 1 35 26q29 24 58 73q29 48 31 121q-2 73 -31 121q-29 49 -58 73q-30 25 -35 27v0z" />
    <glyph glyph-name="brain-circuit" unicode="&#xe0c6;" 
d="M32 72v2q-31 31 -32 79q1 41 27 72q-3 11 -3 24q2 50 41 78q8 45 46 68q11 24 32 38q21 15 49 15q38 -1 64 -28q25 27 64 28q28 0 49 -15q21 -14 32 -38q38 -23 46 -68q39 -28 41 -78q0 -13 -3 -24q26 -31 27 -72q-1 -48 -33 -79v-1l1 -1v0q-1 -36 -23 -62t-56 -33
q-27 -39 -77 -41q-42 1 -68 31q-27 -30 -68 -31q-50 2 -77 41q-34 7 -56 33t-23 62v0zM232 161h-40q-15 -2 -16 -16v-12q23 -11 24 -37q0 -17 -12 -28q-11 -12 -28 -12t-28 12q-12 11 -12 28q1 26 24 37v12q1 20 14 33q14 14 34 15h40v96h-19q-11 -23 -37 -24q-17 0 -28 11
q-12 11 -12 29q0 16 12 28q11 11 28 12q26 -2 37 -24h19v40q0 16 -12 28q-11 11 -28 12q-17 -1 -28 -12q-12 -12 -12 -28v-2q-33 -7 -40 -41v-5q-1 -10 3 -17q-12 -2 -21 -8q-19 -12 -22 -35v-4q1 -24 17 -37q-24 -10 -35 -34q-6 -12 -7 -26q2 -38 34 -56l4 -2q-1 -2 -1 -4
q-4 -8 -4 -18q0 -17 10 -29q9 -12 25 -17q6 -2 13 -2q8 0 16 3q1 -15 9 -26q13 -16 35 -17q17 0 29 12q13 11 15 28v0v137v0zM320 401q-17 -1 -28 -12v0q-12 -12 -12 -28v-40h40q20 -1 34 -15q13 -13 14 -33v-12q23 -11 24 -36q0 -18 -12 -29q-11 -11 -28 -11t-28 11
q-12 11 -12 29q1 25 24 36v12q-1 14 -16 16h-40v-160h51q11 22 37 24q17 -1 28 -12q12 -12 12 -29t-12 -28q-11 -12 -28 -12q-26 1 -37 24h-51v-72v0q2 -17 14 -28q12 -12 30 -12q22 1 34 17q10 11 9 26q8 -3 17 -3q7 0 13 2q16 5 25 17q10 12 10 29q0 10 -4 18q0 2 -1 4
l4 2q31 18 33 56q0 14 -6 26q-11 24 -35 34q16 13 17 37v4q-3 23 -21 35q-11 6 -22 8q3 7 3 17v5q-7 34 -41 41l1 1q0 17 -12 28q-11 12 -28 12v1v0zM176 289q15 1 16 16q-1 14 -16 16q-15 -2 -16 -16q1 -15 16 -16v0zM160 80q15 1 16 16q-1 15 -16 16q-15 -1 -16 -16
q1 -15 16 -16v0zM368 225q-1 14 -16 16q-15 -2 -16 -16q1 -15 16 -16q15 1 16 16v0zM368 96q15 1 16 16q-1 15 -16 17q-15 -2 -16 -17q1 -15 16 -16v0z" />
    <glyph glyph-name="brake-warning" unicode="&#xe0c7;" horiz-adv-x="640" 
d="M320 320q22 -2 24 -24v-112q-2 -22 -24 -24q-22 2 -24 24v112q2 22 24 24v0zM352 96q0 -14 -9 -23v0q-9 -9 -23 -9t-23 9t-9 23t9 23t23 9t23 -9t9 -23v0zM96 192q1 63 31 113v0q29 51 80 80v0q50 30 113 31q63 -1 113 -31q51 -29 80 -80q30 -50 31 -113q-1 -63 -31 -113
q-29 -51 -80 -80q-50 -30 -113 -31q-63 1 -113 31q-51 29 -80 80q-30 50 -31 113v0zM320 16q75 2 124 52v0q50 49 52 124q-2 75 -52 124q-49 50 -124 52q-75 -2 -124 -52q-50 -49 -52 -124q2 -75 52 -124q49 -50 124 -52v0zM84 372q17 -14 7 -32q-42 -66 -43 -147
q1 -84 43 -148q10 -20 -7 -33q-20 -11 -33 8q-50 75 -51 173q1 96 51 172q13 17 33 7v0v0zM556 372q20 10 33 -7q50 -76 51 -172q-1 -98 -51 -173q-13 -19 -33 -8q-17 13 -7 33q42 64 43 148q-1 81 -43 147q-10 18 7 32v0v0z" />
    <glyph glyph-name="briefcase-blank" unicode="&#xe0c8;" 
d="M448 352h-64v32q-1 27 -19 45t-45 19h-128q-27 -1 -45 -19t-19 -45v-32h-64q-27 -1 -45 -19t-19 -45v-256q1 -27 19 -45t45 -19h384q27 1 45 19t19 45v256q-1 27 -19 45t-45 19v0zM176 384q1 15 16 16h128q15 -1 16 -16v-32h-160v32v0zM464 32q-1 -15 -16 -16h-384
q-15 1 -16 16v256q1 15 16 16h384q15 -1 16 -16v-256v0z" />
    <glyph glyph-name="brightness" unicode="&#xe0c9;" 
d="M232 424q2 22 24 24q22 -2 24 -24v-64q-2 -22 -24 -24q-22 2 -24 24v64v0zM160 192q1 41 28 68v0q27 27 68 28q41 -1 68 -28t28 -68q-1 -41 -28 -68t-68 -28q-41 1 -68 28t-28 68v0zM256 144q20 1 34 14v0q13 14 14 34q-1 20 -14 34q-14 13 -34 14q-20 -1 -34 -14
q-13 -14 -14 -34q1 -20 14 -34q14 -13 34 -14v0zM0 192q2 22 24 24h64q22 -2 24 -24q-2 -22 -24 -24h-64q-22 2 -24 24v0zM488 216q22 -2 24 -24q-2 -22 -24 -24h-64q-22 2 -24 24q2 22 24 24h64v0zM256 -64q-22 2 -24 24v64q2 22 24 24q22 -2 24 -24v-64q-2 -22 -24 -24v0z
M75 373q17 14 34 0l45 -45q14 -17 0 -34q-17 -14 -34 0l-45 45q-14 17 0 34v0v0zM437 45q14 -17 0 -34q-17 -14 -34 0l-45 45q-14 17 0 34q17 14 34 0l45 -45v0zM75 11q-14 17 0 34l45 45q17 14 34 0q14 -17 0 -34l-45 -45q-17 -14 -34 0v0zM403 373q17 14 34 0
q14 -17 0 -34l-45 -45q-17 -14 -34 0q-14 17 0 34l45 45v0z" />
    <glyph glyph-name="brightness-low" unicode="&#xe0ca;" horiz-adv-x="448" 
d="M256 368q0 -14 -9 -23v0q-9 -9 -23 -9t-23 9t-9 23t9 23t23 9t23 -9t9 -23v0zM128 192q1 41 28 68v0q27 27 68 28q41 -1 68 -28t28 -68q-1 -41 -28 -68t-68 -28q-41 1 -68 28t-28 68v0zM224 144q20 1 34 14v0q13 14 14 34q-1 20 -14 34q-14 13 -34 14q-20 -1 -34 -14
q-13 -14 -14 -34q1 -20 14 -34q14 -13 34 -14v0zM192 16q0 14 9 23v0q9 9 23 9t23 -9t9 -23t-9 -23t-23 -9t-23 9t-9 23v0zM400 160q-14 0 -23 9v0q-9 9 -9 23t9 23t23 9t23 -9t9 -23t-9 -23t-23 -9v0zM48 224q14 0 23 -9v0q9 -9 9 -23t-9 -23t-23 -9t-23 9t-9 23t9 23t23 9
v0zM128 320q0 -14 -9 -23v0q-9 -9 -23 -9t-23 9t-9 23t9 23t23 9t23 -9t9 -23v0zM352 32q-14 0 -23 9v0q-9 9 -9 23t9 23t23 9t23 -9t9 -23t-9 -23t-23 -9v0zM384 320q0 -14 -9 -23v0q-9 -9 -23 -9t-23 9t-9 23t9 23t23 9t23 -9t9 -23v0zM96 96q14 0 23 -9v0q9 -9 9 -23
t-9 -23t-23 -9t-23 9t-9 23t9 23t23 9v0z" />
    <glyph glyph-name="browsers" unicode="&#xe0cb;" horiz-adv-x="576" 
d="M512 448q27 -1 45 -19v0q18 -18 19 -45v-288q-1 -27 -19 -45t-45 -19h-352q-27 1 -45 19t-19 45v288q1 27 19 45t45 19h352v0zM160 80h352q15 1 16 16v224h-384v-224q1 -15 16 -16v0zM48 72q1 -37 26 -62v0q25 -25 62 -26h320q22 -2 24 -24q-2 -22 -24 -24h-320
q-58 1 -96 40q-39 38 -40 96v256q2 22 24 24q22 -2 24 -24v-256v0z" />
    <glyph glyph-name="buildings" unicode="&#xe0cc;" 
d="M336 144q1 15 16 16h32q15 -1 16 -16v-32q-1 -15 -16 -16h-32q-15 1 -16 16v32v0zM336 336q1 15 16 16h32q15 -1 16 -16v-32q-1 -15 -16 -16h-32q-15 1 -16 16v32v0zM352 192q-15 1 -16 16v32q1 15 16 16h32q15 -1 16 -16v-32q-1 -15 -16 -16h-32v0zM448 448
q27 -1 45 -19v0q18 -18 19 -45v-384q-1 -27 -19 -45t-45 -19h-160q-27 1 -45 19t-19 45v384q1 27 19 45t45 19h160v0zM448 400h-160q-15 -1 -16 -16v-384q1 -15 16 -16h160q15 1 16 16v384q-1 15 -16 16v0zM192 272h-120q-22 -2 -24 -24v-240q2 -22 24 -24h121q5 -28 23 -48
h-144q-31 1 -51 21t-21 51v240q1 31 21 51t51 21h120v-48v0zM144 128q15 -1 16 -16v-32q-1 -15 -16 -16h-32q-15 1 -16 16v32q1 15 16 16h32v0zM144 224q15 -1 16 -16v-32q-1 -15 -16 -16h-32q-15 1 -16 16v32q1 15 16 16h32v0z" />
    <glyph glyph-name="burger-fries" unicode="&#xe0cd;" horiz-adv-x="640" 
d="M238 -15q9 -29 30 -48h-182q-11 -1 -20 6q-10 7 -12 18l-54 243v8q1 3 4 7l1 1l4 2q0 1 1 1q3 2 6 2h34q5 -1 10 -4q4 -3 5 -7q8 -30 43 -49q34 -19 84 -20q21 -1 41 3q-2 -19 2 -38q-3 -5 -5 -11q-19 -2 -38 -2q-69 -3 -127 37l34 -149h139v0zM101 210l-37 197q-1 5 1 9
t5 7l29 22q3 2 7 3q4 0 8 -1q4 -2 7 -5q2 -3 3 -7l4 -20v-226q-16 8 -27 21v0v0zM17 257l-17 92q0 4 1 8t4 7q4 3 8 4q4 0 8 -1l19 -6l20 -107q-2 1 -4 1l-6 2h-33v0zM160 179v254q0 3 2 7q2 3 6 6q3 2 7 2t8 -2l32 -16q4 -2 7 -6q2 -4 2 -7v-238q-32 -6 -64 0v0zM371 276
q-22 -6 -43 -16l18 102l17 5q4 1 8 0q4 0 8 -3q3 -3 4 -7v-3q1 -2 1 -5l-13 -73v0zM256 202v195q1 3 4 5q2 2 5 3l34 10q4 1 8 0q4 0 8 -3q3 -3 4 -7v-3q1 -2 1 -5l-28 -160q-20 -15 -36 -35v0v0zM437 189q-5 4 -5 12q0 4 3 8q2 4 7 6q4 2 9 1t8 -5q4 -3 5 -8q0 -2 -1 -6v-3
q-2 -5 -6 -7q-4 -3 -9 -2q-7 0 -11 4v0zM517 173q-5 4 -5 12q0 4 3 8q2 4 7 6q4 2 9 1t8 -5q4 -3 5 -8q0 -2 -1 -6v-3q-2 -5 -6 -7q-4 -3 -9 -2q-7 0 -11 4v0v0zM357 173q-5 4 -5 12q0 4 3 8q2 4 7 6q4 2 9 1t8 -5q4 -3 5 -8q0 -2 -1 -6v-3q-2 -5 -6 -7q-4 -3 -9 -2
q-7 0 -11 4v0zM637 56q-4 -7 -10 -13q4 -10 5 -20v-2q-1 -36 -25 -60t-59 -24h-200q-35 0 -59 24t-25 60q0 11 5 22q-7 7 -10 14q-3 8 -3 18q0 8 5 15q4 8 11 13q-10 19 -8 38q2 20 13 36q31 39 76 60q45 20 95 20q50 1 95 -20t76 -60q11 -16 13 -36q1 -19 -8 -38
q7 -5 12 -14q4 -8 4 -16q0 -9 -3 -17v0v0zM316 151q-3 -7 -5 -13q1 -7 4 -12q3 -7 9 -11q5 -3 12 -2h224q7 -1 12 2q6 4 9 10t3 13q-1 6 -4 13q-25 28 -59 43q-35 16 -73 15q-38 1 -72 -15q-35 -15 -59 -43h-1v0zM574 -6q10 11 10 27q0 4 -3 7q-4 4 -9 5h-248q-5 -1 -8 -5
q-4 -3 -4 -7q0 -16 11 -27q10 -9 25 -9h200q15 0 26 9v0z" />
    <glyph glyph-name="burger-glass" unicode="&#xe0ce;" horiz-adv-x="640" 
d="M238 -16q9 -27 30 -47q-3 -1 -6 -1h-165q-25 1 -44 17q-18 17 -20 42l-33 419q0 6 2 13q2 6 6 11q5 5 11 7q6 3 13 3h288q7 0 13 -3q6 -2 10 -7q5 -5 7 -11t2 -13l-9 -148q-27 -11 -50 -28v2h-231l19 -241q0 -6 5 -11q4 -4 11 -4h141v0zM58 288h238l6 112h-253l9 -112v0z
M517 173q-5 4 -5 11q0 5 3 9q2 4 7 6q4 2 9 1t8 -5q4 -3 5 -8q0 -2 -1 -6v-3q-2 -5 -6 -7q-4 -3 -9 -3q-7 0 -11 5v0v0zM637 56q-4 -7 -10 -13q4 -10 5 -21v-2q-1 -35 -25 -59t-59 -25h-200q-35 1 -59 25t-25 59q0 12 5 23q-7 7 -10 14q-3 8 -3 18q0 8 5 15q4 8 11 13
q-10 19 -8 38q2 20 13 36q31 39 76 60q45 20 95 19q50 2 95 -19t76 -60q11 -16 13 -36q1 -19 -8 -38q7 -5 12 -14q4 -8 4 -17q0 -8 -3 -16v0v0zM316 151q-3 -7 -5 -13q1 -7 4 -12q3 -7 9 -11q5 -3 12 -3h224q7 0 12 3q6 4 9 10t3 13q-1 6 -4 13q-25 28 -59 43q-35 16 -73 14
q-38 2 -72 -14q-35 -15 -59 -43h-1v0zM574 -6q10 11 10 26q0 5 -3 8q-4 4 -9 4h-248q-5 0 -8 -4q-4 -3 -4 -8q0 -15 11 -26q10 -10 25 -10h200q15 0 26 10v0zM437 189q-5 4 -5 11q0 5 3 9q2 4 7 6q4 2 9 1t8 -5q4 -3 5 -8q0 -2 -1 -6v-3q-2 -5 -6 -7q-4 -3 -9 -3q-7 0 -11 5
v0zM357 173q-5 4 -5 11q0 5 3 9q2 4 7 6q4 2 9 1t8 -5q4 -3 5 -8q0 -2 -1 -6v-3q-2 -5 -6 -7q-4 -3 -9 -3q-7 0 -11 5v0z" />
    <glyph glyph-name="calendar-arrow-down" unicode="&#xe0d0;" horiz-adv-x="448" 
d="M248 98l39 39q17 14 33 0q15 -17 0 -33l-80 -80q-16 -15 -33 0l-80 80q-14 16 0 33q17 14 33 0l40 -39v102q2 22 24 24q22 -2 24 -24v-102v0zM128 448q22 -2 24 -24v-40h144v40q2 22 24 24q22 -2 24 -24v-40h40q27 -1 45 -19t19 -45v-320q-1 -27 -19 -45t-45 -19h-320
q-27 1 -45 19t-19 45v320q1 27 19 45t45 19h40v40q2 22 24 24v0zM400 256h-352v-256q1 -15 16 -16h320q15 1 16 16v256v0z" />
    <glyph glyph-name="calendar-arrow-up" unicode="&#xe0d1;" horiz-adv-x="448" 
d="M200 142l-40 -38q-16 -15 -33 0q-14 16 0 33l80 80q17 14 33 0l80 -80q15 -17 0 -33q-16 -15 -33 0l-39 38v-102q-2 -22 -24 -24q-22 2 -24 24v102v0zM128 448q22 -2 24 -24v-40h144v40q2 22 24 24q22 -2 24 -24v-40h40q27 -1 45 -19t19 -45v-320q-1 -27 -19 -45t-45 -19
h-320q-27 1 -45 19t-19 45v320q1 27 19 45t45 19h40v40q2 22 24 24v0zM400 256h-352v-256q1 -15 16 -16h320q15 1 16 16v256v0z" />
    <glyph glyph-name="calendar-clock" unicode="&#xe0d2;" horiz-adv-x="576" 
d="M127 448q23 -2 24 -24v-40h145v40q2 22 24 24q22 -2 24 -24v-40h40q27 -1 45 -19t19 -45v-64h-401v-256q2 -15 16 -16h222q18 -28 46 -48h-267q-27 1 -45 19t-19 45v320q1 27 19 45t45 19h40v40q2 22 24 24h-1v0zM576 80q-2 -61 -42 -102v0q-41 -40 -102 -42
q-61 2 -102 42q-41 41 -43 102q2 61 43 102q41 40 102 42q61 -2 102 -42q40 -41 42 -102v0zM415 144v-64q2 -15 16 -16h49q15 1 16 16q-1 15 -16 16h-33v48q-1 15 -16 16q-14 -1 -16 -16v0v0z" />
    <glyph glyph-name="calendar-heart" unicode="&#xe0d3;" horiz-adv-x="448" 
d="M213 27l-93 93q-17 17 -17 40t17 40t40 17t40 -17l24 -24l24 24q17 17 40 17t40 -17t17 -40t-17 -40l-93 -93q-11 -9 -22 0v0v0zM128 448q22 -2 24 -24v-40h144v40q2 22 24 24q22 -2 24 -24v-40h40q27 -1 45 -19t19 -45v-320q-1 -27 -19 -45t-45 -19h-320q-27 1 -45 19
t-19 45v320q1 27 19 45t45 19h40v40q2 22 24 24v0zM400 256h-352v-256q1 -15 16 -16h320q15 1 16 16v256v0z" />
    <glyph glyph-name="calendar-image" unicode="&#xe0d4;" horiz-adv-x="448" 
d="M173 119l11 -15l58 84q6 7 14 7t13 -7l83 -131q5 -9 1 -17q-4 -7 -14 -8h-226q-11 1 -15 9t2 17l47 61q13 13 26 0v0v0zM96 192q0 14 9 23v0q9 9 23 9t23 -9t9 -23t-9 -23t-23 -9t-23 9t-9 23v0zM152 384h144v40q2 22 24 24q22 -2 24 -24v-40h40q27 -1 45 -19t19 -45
v-320q-1 -27 -19 -45t-45 -19h-320q-27 1 -45 19t-19 45v320q1 27 19 45t45 19h40v40q2 22 24 24q22 -2 24 -24v-40v0zM48 0q1 -15 16 -16h320q15 1 16 16v256h-352v-256v0z" />
    <glyph glyph-name="calendar-lines" unicode="&#xe0d5;" horiz-adv-x="448" 
d="M96 168q2 22 24 24h208q22 -2 24 -24q-2 -22 -24 -24h-208q-22 2 -24 24v0zM232 96q22 -2 24 -24q-2 -22 -24 -24h-112q-22 2 -24 24q2 22 24 24h112v0zM152 384h144v40q2 22 24 24q22 -2 24 -24v-40h40q27 -1 45 -19t19 -45v-320q-1 -27 -19 -45t-45 -19h-320
q-27 1 -45 19t-19 45v320q1 27 19 45t45 19h40v40q2 22 24 24q22 -2 24 -24v-40v0zM48 0q1 -15 16 -16h320q15 1 16 16v256h-352v-256v0z" />
    <glyph glyph-name="calendar-range" unicode="&#xe0d6;" horiz-adv-x="448" 
d="M96 160q0 14 9 23v0q9 9 23 9t23 -9t9 -23t-9 -23t-23 -9t-23 9t-9 23v0zM320 96q14 0 23 -9v0q9 -9 9 -23t-9 -23t-23 -9t-23 9t-9 23t9 23t23 9v0zM192 160q2 22 24 24h112q22 -2 24 -24q-2 -22 -24 -24h-112q-22 2 -24 24v0zM232 88q22 -2 24 -24q-2 -22 -24 -24h-112
q-22 2 -24 24q2 22 24 24h112v0zM152 384h144v40q2 22 24 24q22 -2 24 -24v-40h40q27 -1 45 -19t19 -45v-320q-1 -27 -19 -45t-45 -19h-320q-27 1 -45 19t-19 45v320q1 27 19 45t45 19h40v40q2 22 24 24q22 -2 24 -24v-40v0zM48 0q1 -15 16 -16h320q15 1 16 16v256h-352
v-256v0z" />
    <glyph glyph-name="calendars" unicode="&#xe0d7;" 
d="M224 448q22 -2 24 -24v-40h112v40q2 22 24 24q22 -2 24 -24v-40h40q27 -1 45 -19t19 -45v-224q-1 -27 -19 -45t-45 -19h-288q-27 1 -45 19t-19 45v224q1 27 19 45t45 19h40v40q2 22 24 24v0zM144 96q1 -15 16 -16h288q15 1 16 16v160h-320v-160v0zM48 56q1 -31 21 -51v0
q20 -20 51 -21h272q22 -2 24 -24q-2 -22 -24 -24h-272q-51 1 -85 35t-35 85v208q2 22 24 24q22 -2 24 -24v-208v0z" />
    <glyph glyph-name="camera-rotate" unicode="&#xe0d8;" 
d="M448 352h-72l-8 23q-8 18 -24 30q-16 11 -36 11h-104q-20 0 -36 -11t-23 -30l-9 -23h-72q-27 -1 -45 -19t-19 -45v-256q1 -27 19 -45t45 -19h384q27 1 45 19t19 45v256q-1 27 -19 45t-45 19v0zM464 32q-1 -15 -16 -16h-384q-15 1 -16 16v256q1 15 16 16h105l20 54
q5 9 15 10h104q10 -1 15 -10l20 -54h105q15 -1 16 -16v-256v0zM347 260l-15 -14q-32 28 -76 29q-56 -1 -91 -44q-12 -19 5 -34q18 -12 33 4q18 22 46 24q27 3 49 -13l-14 -15q-6 -6 -3 -13t11 -8h67q8 1 9 9v67q-1 8 -8 11t-13 -3v0zM309 119q-18 -22 -46 -24v0
q-27 -3 -49 13l14 15q6 6 3 13t-11 8h-67q-8 0 -9 -9v-67q1 -8 8 -11t13 3l15 14q32 -28 76 -29q56 1 91 44q12 19 -4 34q-19 12 -34 -4v0z" />
    <glyph glyph-name="camera-slash" unicode="&#xe0d9;" horiz-adv-x="640" 
d="M155 352h48l10 31q12 31 46 33h122q34 -2 46 -33l10 -31h75q27 -1 45 -19t19 -45v-256q0 -5 -1 -10l56 -43q16 -15 4 -34q-15 -16 -34 -4l-592 464q-16 15 -4 34q15 16 34 4l116 -91v0zM216 304l55 -43q23 11 49 11q48 -1 79 -33q32 -31 33 -79q0 -12 -2 -23l98 -78v229
q-1 15 -16 16h-109l-22 64h-122l-22 -64h-21v0zM383 173q-6 23 -23 37v0q-17 14 -40 14h-1h-1l65 -51v0zM320 48q-48 1 -79 33v0q-32 31 -33 79q0 13 2 26l47 -36q4 -24 21 -39q18 -15 42 -15h5l46 -35q-23 -13 -51 -13v0v0zM128 16h299l60 -48h-359q-27 1 -45 19t-19 45
v256q0 6 1 13l47 -37v-232q1 -15 16 -16v0v0z" />
    <glyph glyph-name="camera-viewfinder" unicode="&#xe0da;" 
d="M0 424q2 22 24 24h112q22 -2 24 -24q-2 -22 -24 -24h-88v-88q-2 -22 -24 -24q-22 2 -24 24v112v0zM200 192q1 24 16 40v0q16 15 40 16q24 -1 40 -16q15 -16 16 -40q-1 -24 -16 -40q-16 -15 -40 -16q-24 1 -40 16q-15 16 -16 40v0zM301 352q26 -1 37 -24l4 -8h10
q27 -1 45 -19t19 -45v-128q-1 -27 -19 -45t-45 -19h-192q-27 1 -45 19t-19 45v128q1 27 19 45t45 19h11l3 8q11 23 37 24h90v0zM202 272h-42q-15 -1 -16 -16v-128q1 -15 16 -16h192q15 1 16 16v128q-1 15 -16 16h-42l-14 32h-80l-14 -32v0zM488 448q22 -2 24 -24v-112
q-2 -22 -24 -24q-22 2 -24 24v88h-88q-22 2 -24 24q2 22 24 24h112v0zM0 72q2 22 24 24q22 -2 24 -24v-88h88q22 -2 24 -24q-2 -22 -24 -24h-112q-22 2 -24 24v112v0zM376 -64q-22 2 -24 24q2 22 24 24h88v88q2 22 24 24q22 -2 24 -24v-112q-2 -22 -24 -24h-112v0z" />
    <glyph glyph-name="cart-minus" unicode="&#xe0db;" horiz-adv-x="576" 
d="M0 424q2 22 24 24h72q19 -1 24 -20l42 -220h316l43 160h-49q-22 2 -24 24q2 22 24 24h80q12 0 19 -9q7 -10 4 -21l-56 -208q-5 -17 -23 -18h-325l9 -48h308q22 -2 24 -24q-2 -22 -24 -24h-329q-18 1 -23 19l-60 317h-52q-22 2 -24 24v0v0zM224 -16q-1 -20 -14 -34v0
q-14 -13 -34 -14q-20 1 -34 14q-13 14 -14 34q1 20 14 34q14 13 34 14q20 -1 34 -14q13 -14 14 -34v0zM416 -16q1 20 14 34v0q14 13 34 14q20 -1 34 -14q13 -14 14 -34q-1 -20 -14 -34q-14 -13 -34 -14q-20 1 -34 14q-13 14 -14 34v0zM384 344q22 -2 24 -24q-2 -22 -24 -24
h-128q-22 2 -24 24q2 22 24 24h128v0z" />
    <glyph glyph-name="cart-shopping-fast" unicode="&#xe0dc;" horiz-adv-x="640" 
d="M64 424q2 22 24 24h72q19 -1 24 -20l1 -12h421q16 -1 25 -13t6 -28l-54 -192q-8 -22 -31 -23h-317l9 -48h308q22 -2 24 -24q-2 -22 -24 -24h-329q-18 1 -23 19l-60 317h-52q-22 2 -24 24v0v0zM195 368l31 -160h314l45 160h-390v0zM288 -16q-1 -20 -14 -34v0
q-14 -13 -34 -14q-20 1 -34 14q-13 14 -14 34q1 20 14 34q14 13 34 14q20 -1 34 -14q13 -14 14 -34v0zM480 -16q1 20 14 34v0q14 13 34 14q20 -1 34 -14q13 -14 14 -34q-1 -20 -14 -34q-14 -13 -34 -14q-20 1 -34 14q-13 14 -14 34v0zM104 352q22 -2 24 -24q-2 -22 -24 -24
h-80q-22 2 -24 24q2 22 24 24h80v0zM120 272q22 -2 24 -24q-2 -22 -24 -24h-96q-22 2 -24 24q2 22 24 24h96v0zM136 192q22 -2 24 -24q-2 -22 -24 -24h-112q-22 2 -24 24q2 22 24 24h112v0z" />
    <glyph glyph-name="cart-xmark" unicode="&#xe0dd;" horiz-adv-x="576" 
d="M96 448q19 -1 24 -20l42 -220h316l43 160h-49q-22 2 -24 24q2 22 24 24h80q12 0 19 -9q7 -10 4 -21l-56 -208q-5 -17 -23 -18h-325l9 -48h308q22 -2 24 -24q-2 -22 -24 -24h-329q-18 1 -23 19l-60 317h-52q-22 2 -24 24q2 22 24 24h72v0zM128 -16q1 20 14 34v0
q14 13 34 14q20 -1 34 -14q13 -14 14 -34q-1 -20 -14 -34q-14 -13 -34 -14q-20 1 -34 14q-13 14 -14 34v0zM512 -16q-1 -20 -14 -34v0q-14 -13 -34 -14q-20 1 -34 14q-13 14 -14 34q1 20 14 34q14 13 34 14q20 -1 34 -14q13 -14 14 -34v0zM258 382q17 14 34 0l28 -28l28 28
q17 14 34 0q14 -17 0 -34l-28 -28l28 -28q14 -17 0 -34q-17 -14 -34 0l-28 28l-28 -28q-17 -14 -34 0q-14 17 0 34l28 28l-28 28q-14 17 0 34v0v0z" />
    <glyph glyph-name="castle" unicode="&#xe0de;" horiz-adv-x="640" 
d="M176 384h64v40q2 22 24 24q22 -2 24 -24v-40h64v40q2 22 24 24q22 -2 24 -24v-40h64v40q2 22 24 24q22 -2 24 -24v-200h80v40q2 22 24 24q22 -2 24 -24v-256q-1 -31 -21 -51t-51 -21h-496q-31 1 -51 21t-21 51v256q2 22 24 24q22 -2 24 -24v-40h80v200q2 22 24 24
q22 -2 24 -24v-40v0zM176 336v-112h288v112h-288v0zM48 176v-168q2 -22 24 -24h184v80q1 27 19 45t45 19q27 -1 45 -19t19 -45v-80h184q22 2 24 24v168h-544v0z" />
    <glyph glyph-name="cedi-sign" unicode="&#xe0df;" horiz-adv-x="320" 
d="M184 448q22 -2 24 -24v-48q57 -5 102 -36q17 -15 6 -34q-7 -8 -16 -10q-10 -1 -18 4q-32 23 -74 27v-270q42 4 74 27q8 5 18 4q9 -2 16 -10q5 -8 4 -18q-2 -9 -10 -16q-45 -30 -102 -36v-48q-2 -22 -24 -24q-22 2 -24 24v51q-69 13 -114 62q-44 49 -46 119q2 70 46 119
q45 49 114 62v51q2 22 24 24v0v0zM160 60v264q-50 -11 -80 -48q-31 -36 -32 -84q1 -48 32 -84q30 -37 80 -48v0z" />
    <glyph glyph-name="chart-bullet" unicode="&#xe0e1;" 
d="M264 416q22 -2 24 -24v-8h176q20 -1 34 -14q13 -14 14 -34v-64q-1 -20 -14 -34q-14 -13 -34 -14h-176v-8q-2 -22 -24 -24q-22 2 -24 24v8h-192q-20 1 -34 14q-13 14 -14 34v64q1 20 14 34q14 13 34 14h192v8q2 22 24 24v0zM160 272h80v64h-80v-64v0zM288 336v-64h176v64
h-176v0zM112 336h-64v-64h64v64v0zM360 192q22 -2 24 -24v-8h80q20 -1 34 -14q13 -14 14 -34v-64q-1 -20 -14 -34q-14 -13 -34 -14h-80v-8q-2 -22 -24 -24q-22 2 -24 24v8h-288q-20 1 -34 14q-13 14 -14 34v64q1 20 14 34q14 13 34 14h288v8q2 22 24 24v0zM224 48h112v64
h-112v-64v0zM384 112v-64h80v64h-80v0zM176 112h-128v-64h128v64v0z" />
    <glyph glyph-name="chart-candlestick" unicode="&#xe0e2;" 
d="M48 40q2 -22 24 -24h416q22 -2 24 -24q-2 -22 -24 -24h-416q-31 1 -51 21t-21 51v352q2 22 24 24q22 -2 24 -24v-352v0zM320 352q14 0 23 -9v0q9 -9 9 -23v-96q0 -14 -9 -23t-23 -9v-48q-1 -15 -16 -16q-15 1 -16 16v48q-14 0 -23 9t-9 23v96q0 14 9 23t23 9v48
q1 15 16 16q15 -1 16 -16v-48v0zM384 224q0 14 9 23v0q9 9 23 9v48q1 15 16 16q15 -1 16 -16v-48q14 0 23 -9t9 -23v-64q0 -14 -9 -23t-23 -9v-48q-1 -15 -16 -16q-15 1 -16 16v48q-14 0 -23 9t-9 23v64v0zM160 368q1 15 16 16q15 -1 16 -16v-48q14 0 23 -9t9 -23v-128
q0 -14 -9 -23t-23 -9v-48q-1 -15 -16 -16q-15 1 -16 16v48q-14 0 -23 9t-9 23v128q0 14 9 23t23 9v48v0z" />
    <glyph glyph-name="chart-column" unicode="&#xe0e3;" 
d="M24 416q22 -2 24 -24v-352q2 -22 24 -24h416q22 -2 24 -24q-2 -22 -24 -24h-416q-31 1 -51 21t-21 51v352q2 22 24 24v0zM168 224q22 -2 24 -24v-80q-2 -22 -24 -24q-22 2 -24 24v80q2 22 24 24v0zM288 120q-2 -22 -24 -24q-22 2 -24 24v176q2 22 24 24q22 -2 24 -24
v-176v0zM360 256q22 -2 24 -24v-112q-2 -22 -24 -24q-22 2 -24 24v112q2 22 24 24v0zM480 120q-2 -22 -24 -24q-22 2 -24 24v240q2 22 24 24q22 -2 24 -24v-240v0z" />
    <glyph glyph-name="chart-gantt" unicode="&#xe0e4;" 
d="M24 416q22 -2 24 -24v-352q2 -22 24 -24h416q22 -2 24 -24q-2 -22 -24 -24h-416q-31 1 -51 21t-21 51v352q2 22 24 24v0zM128 312q2 22 24 24h112q22 -2 24 -24q-2 -22 -24 -24h-112q-22 2 -24 24v0zM360 240q22 -2 24 -24q-2 -22 -24 -24h-144q-22 2 -24 24q2 22 24 24
h144v0zM456 144q22 -2 24 -24q-2 -22 -24 -24h-80q-22 2 -24 24q2 22 24 24h80v0z" />
    <glyph glyph-name="chart-line-up" unicode="&#xe0e5;" 
d="M48 40q2 -22 24 -24h416q22 -2 24 -24q-2 -22 -24 -24h-416q-31 1 -51 21t-21 51v352q2 22 24 24q22 -2 24 -24v-352v0zM344 320h112q22 -2 24 -24v-112q-2 -22 -24 -24q-22 2 -24 24v54l-112 -110q-16 -15 -33 0l-80 78l-63 -62q-16 -15 -33 0q-14 16 0 33l80 80
q17 14 33 0l80 -79l94 94h-54q-22 2 -24 24q2 22 24 24v0v0z" />
    <glyph glyph-name="chart-pyramid" unicode="&#xe0e6;" 
d="M215 376q15 24 41 24v0q26 0 42 -24l196 -336q13 -25 0 -48q-13 -22 -42 -24h-392q-29 2 -42 24q-13 23 0 48l197 336v0zM256 352l-56 -95h112l-56 95v0zM387 128l-47 81h-168l-47 -81h262v0zM97 80l-37 -64h392l-37 64h-318v0z" />
    <glyph glyph-name="chart-radar" unicode="&#xe0e7;" 
d="M330 167q28 -9 30 -39q0 -17 -12 -28q-11 -12 -28 -12q-25 1 -36 23l-97 19q-11 -10 -27 -10q-17 0 -28 12q-12 11 -12 28t12 28q11 12 28 12l58 77q-2 5 -2 11q0 17 12 28q11 12 28 12t28 -12q12 -11 12 -28q0 -12 -6 -21l40 -100v0zM202 176l79 -16l-31 79l-48 -63v0z
M109 388q18 27 49 28h196q31 -1 48 -28l97 -168q16 -28 0 -56l-97 -168q-17 -27 -48 -28h-196q-31 1 -49 28l-96 168q-16 28 0 56l96 168v0zM158 368q-4 0 -6 -4l-98 -167q-2 -5 0 -9l98 -168q2 -4 6 -4h196q4 0 7 4l97 168q2 4 0 9l-97 167q-3 4 -7 4h-196v0z" />
    <glyph glyph-name="chart-scatter-3d" unicode="&#xe0e8;" 
d="M0 384q0 14 9 23v0q9 9 23 9t23 -9t9 -23t-9 -23t-23 -9t-23 9t-9 23v0zM280 171l191 -161q16 -15 3 -33q-15 -16 -33 -3l-186 155l-184 -155q-18 -13 -33 3q-13 18 3 33l190 161v221q0 10 7 17t17 7q23 -2 25 -24v-221v0zM352 384q0 14 9 23v0q9 9 23 9t23 -9t9 -23
t-9 -23t-23 -9t-23 9t-9 23v0zM416 192q0 -14 -9 -23v0q-9 -9 -23 -9t-23 9t-9 23t9 23t23 9t23 -9t9 -23v0zM448 288q0 14 9 23v0q9 9 23 9t23 -9t9 -23t-9 -23t-23 -9t-23 9t-9 23v0zM160 288q0 -14 -9 -23v0q-9 -9 -23 -9t-23 9t-9 23t9 23t23 9t23 -9t9 -23v0zM64 192
q0 -14 -9 -23v0q-9 -9 -23 -9t-23 9t-9 23t9 23t23 9t23 -9t9 -23v0zM224 0q0 14 9 23v0q9 9 23 9t23 -9t9 -23t-9 -23t-23 -9t-23 9t-9 23v0z" />
    <glyph glyph-name="chart-scatter-bubble" unicode="&#xe0e9;" 
d="M24 416q22 -2 24 -24v-352q2 -22 24 -24h416q22 -2 24 -24q-2 -22 -24 -24h-416q-31 1 -51 21t-21 51v352q2 22 24 24v0zM128 144q1 20 14 34v0q14 13 34 14q20 -1 34 -14q13 -14 14 -34q-1 -20 -14 -34q-14 -13 -34 -14q-20 1 -34 14q-13 14 -14 34v0zM416 160
q-1 -27 -19 -45v0q-18 -18 -45 -19q-27 1 -45 19t-19 45q1 27 19 45t45 19q27 -1 45 -19t19 -45v0zM352 184q-22 -2 -24 -24q2 -22 24 -24q22 2 24 24q-2 22 -24 24v0zM192 272q1 20 14 34v0q14 13 34 14q20 -1 34 -14q13 -14 14 -34q-1 -20 -14 -34q-14 -13 -34 -14
q-20 1 -34 14q-13 14 -14 34v0zM448 320q-1 -27 -19 -45v0q-18 -18 -45 -19q-27 1 -45 19t-19 45q1 27 19 45t45 19q27 -1 45 -19t19 -45v0zM384 344q-22 -2 -24 -24q2 -22 24 -24q22 2 24 24q-2 22 -24 24v0z" />
    <glyph glyph-name="chart-tree-map" unicode="&#xe0ea;" 
d="M176 416q20 -1 34 -14v0q13 -14 14 -34v-112q-1 -20 -14 -34q-14 -13 -34 -14h-128q-20 1 -34 14q-13 14 -14 34v112q1 20 14 34q14 13 34 14h128v0zM176 368h-128v-112h128v112v0zM176 176q20 -1 34 -14v0q13 -14 14 -34v-112q-1 -20 -14 -34q-14 -13 -34 -14h-128
q-20 1 -34 14q-13 14 -14 34v112q1 20 14 34q14 13 34 14h128v0zM176 128h-128v-112h128v112v0zM256 368q1 20 14 34v0q14 13 34 14h160q20 -1 34 -14q13 -14 14 -34v-32q-1 -20 -14 -34q-14 -13 -34 -14h-160q-20 1 -34 14q-13 14 -14 34v32v0zM304 336h160v32h-160v-32v0z
M464 256q20 -1 34 -14v0q13 -14 14 -34v-32q-1 -20 -14 -34q-14 -13 -34 -14h-160q-20 1 -34 14q-13 14 -14 34v32q1 20 14 34q14 13 34 14h160v0zM464 208h-160v-32h160v32v0zM256 48q1 20 14 34v0q14 13 34 14h160q20 -1 34 -14q13 -14 14 -34v-32q-1 -20 -14 -34
q-14 -13 -34 -14h-160q-20 1 -34 14q-13 14 -14 34v32v0zM304 16h160v32h-160v-32v0z" />
    <glyph glyph-name="chart-waterfall" unicode="&#xe0eb;" 
d="M24 416q22 -2 24 -24v-352q2 -22 24 -24h416q22 -2 24 -24q-2 -22 -24 -24h-416q-31 1 -51 21t-21 51v352q2 22 24 24v0zM168 224q22 -2 24 -24v-80q-2 -22 -24 -24q-22 2 -24 24v80q2 22 24 24v0zM288 216q-2 -22 -24 -24q-22 2 -24 24v80q2 22 24 24q22 -2 24 -24v-80
v0zM360 384q22 -2 24 -24v-80q-2 -22 -24 -24q-22 2 -24 24v80q2 22 24 24v0zM480 120q-2 -22 -24 -24q-22 2 -24 24v240q2 22 24 24q22 -2 24 -24v-240v0z" />
    <glyph glyph-name="cherries" unicode="&#xe0ec;" horiz-adv-x="640" 
d="M539 224q-30 0 -71 -14q-18 65 -56 118q-37 54 -73 87q-37 32 -51 33q-19 -1 -24 -20q-21 -104 -48 -156t-41 -64q-10 4 -30 10q-21 5 -44 6q-46 -1 -68 -22q-21 -21 -27 -46q-7 -25 -6 -38q0 -42 22 -84q22 -41 64 -69q43 -28 105 -29q81 2 128 46q48 -44 128 -46
q63 1 105 29q43 28 65 69q22 42 22 84q1 13 -5 38t-28 46q-21 21 -67 22v0zM303 381q27 -23 60 -66v0q33 -43 54 -102q-40 12 -60 11q-21 0 -37 -6q-16 6 -37 6q-19 0 -42 -5q15 24 32 64q16 39 30 98v0zM48 118q-1 19 9 38v0q10 19 44 20q44 -3 91 -27v0h1q24 12 46 19
q22 8 44 8q34 -1 44 -20t9 -38q1 -12 -10 -43q-10 -32 -41 -61q-31 -28 -93 -30q-62 2 -93 31q-31 28 -42 60q-10 32 -9 43v0zM591 118q1 -12 -9 -43v0q-11 -32 -42 -61v0q-31 -28 -93 -30q-34 1 -58 11t-38 23q32 49 32 100q0 22 -5 37q-5 14 -8 20q39 -7 71 -23q3 -1 6 -3
h1q24 12 46 19q22 8 44 8q35 -1 44 -20q10 -19 9 -38v0z" />
    <glyph glyph-name="circle-0" unicode="&#xe0ed;" 
d="M256 448q-72 -1 -129 -35v0q-58 -34 -92 -92v0q-34 -57 -35 -129q1 -72 35 -129q34 -58 92 -92q57 -34 129 -35q72 1 129 35q58 34 92 92q34 57 35 129q-1 72 -35 129q-34 58 -92 92q-57 34 -129 35v0zM256 -16q-88 2 -147 61v0q-59 59 -61 147q2 88 61 147t147 61
q88 -2 147 -61t61 -147q-2 -88 -61 -147t-147 -61v0zM256 320q-41 -1 -68 -28v0q-27 -27 -28 -68v-64q1 -41 28 -68t68 -28q41 1 68 28t28 68v64q-1 41 -28 68t-68 28v0zM304 160q-1 -20 -14 -34v0q-14 -13 -34 -14q-20 1 -34 14q-13 14 -14 34v64q1 20 14 34q14 13 34 14
q20 -1 34 -14q13 -14 14 -34v-64v0z" />
    <glyph glyph-name="circle-1" unicode="&#xe0ee;" 
d="M256 448q-72 -1 -129 -35v0q-58 -34 -92 -92v0q-34 -57 -35 -129q1 -72 35 -129q34 -58 92 -92q57 -34 129 -35q72 1 129 35q58 34 92 92q34 57 35 129q-1 72 -35 129q-34 58 -92 92q-57 34 -129 35v0zM256 -16q-88 2 -147 61v0q-59 59 -61 147q2 88 61 147t147 61
q88 -2 147 -61t61 -147q-2 -88 -61 -147t-147 -61v0zM320 112h-40v184q0 14 -13 21q-12 6 -24 -1l-52 -35q-17 -14 -7 -32q14 -17 33 -7l15 9v-139h-40q-22 -2 -24 -24q2 -22 24 -24h128q22 2 24 24q-2 22 -24 24v0z" />
    <glyph glyph-name="circle-2" unicode="&#xe0ef;" 
d="M256 448q-72 -1 -129 -35v0q-58 -34 -92 -92v0q-34 -57 -35 -129q1 -72 35 -129q34 -58 92 -92q57 -34 129 -35q72 1 129 35q58 34 92 92q34 57 35 129q-1 72 -35 129q-34 58 -92 92q-57 34 -129 35v0zM256 -16q-88 2 -147 61v0q-59 59 -61 147q2 88 61 147t147 61
q88 -2 147 -61t61 -147q-2 -88 -61 -147t-147 -61v0zM328 112h-82l63 57q26 26 27 63q-1 36 -27 62q-27 26 -63 26t-63 -26l-11 -11q-14 -16 0 -33q17 -15 34 -1l11 11q12 12 29 12t30 -12q11 -12 12 -28q-1 -17 -12 -28l-108 -98q-11 -11 -6 -27q6 -14 22 -15h144
q22 2 24 24q-2 22 -24 24v0z" />
    <glyph glyph-name="circle-3" unicode="&#xe0f0;" 
d="M256 448q-72 -1 -129 -35v0q-58 -34 -92 -92v0q-34 -57 -35 -129q1 -72 35 -129q34 -58 92 -92q57 -34 129 -35q72 1 129 35q58 34 92 92q34 57 35 129q-1 72 -35 129q-34 58 -92 92q-57 34 -129 35v0zM256 -16q-88 2 -147 61v0q-59 59 -61 147q2 88 61 147t147 61
q88 -2 147 -61t61 -147q-2 -88 -61 -147t-147 -61v0zM277 231l51 47q11 12 6 27q-6 14 -22 15h-128q-22 -2 -24 -24q2 -22 24 -24h66l-50 -46q-11 -12 -6 -27q6 -14 22 -15h52q15 0 25 -11q11 -10 11 -25t-11 -25q-10 -11 -25 -11h-45q-12 1 -16 12q-9 20 -31 15
q-20 -9 -15 -30q7 -21 24 -33t38 -12h45q36 1 59 25q24 23 25 59q-1 33 -22 56t-53 27v0z" />
    <glyph glyph-name="circle-4" unicode="&#xe0f1;" 
d="M256 448q-72 -1 -129 -35v0q-58 -34 -92 -92v0q-34 -57 -35 -129q1 -72 35 -129q34 -58 92 -92q57 -34 129 -35q72 1 129 35q58 34 92 92q34 57 35 129q-1 72 -35 129q-34 58 -92 92q-57 34 -129 35v0zM256 -16q-88 2 -147 61v0q-59 59 -61 147q2 88 61 147t147 61
q88 -2 147 -61t61 -147q-2 -88 -61 -147t-147 -61v0zM328 176h-8v51q-2 22 -24 24q-22 -2 -24 -24v-51h-65l47 110q7 21 -12 32q-21 7 -33 -13l-62 -144q-5 -11 2 -22q8 -11 20 -11h103v-40q2 -22 24 -24q22 2 24 24v40h8q22 2 24 24q-2 22 -24 24v0z" />
    <glyph glyph-name="circle-5" unicode="&#xe0f2;" 
d="M256 448q-72 -1 -129 -35v0q-58 -34 -92 -92v0q-34 -57 -35 -129q1 -72 35 -129q34 -58 92 -92q57 -34 129 -35q72 1 129 35q58 34 92 92q34 57 35 129q-1 72 -35 129q-34 58 -92 92q-57 34 -129 35v0zM256 -16q-88 2 -147 61v0q-59 59 -61 147q2 88 61 147t147 61
q88 -2 147 -61t61 -147q-2 -88 -61 -147t-147 -61v0zM282 222l-62 7l9 43h83q22 2 24 24q-2 22 -24 24h-103q-19 -1 -24 -20l-17 -88q-1 -10 5 -18t16 -10l88 -10q25 -5 27 -31q0 -13 -9 -22t-23 -9h-49q-12 1 -16 12q-4 10 -13 14q-8 4 -18 1q-20 -9 -15 -30q7 -21 24 -33
t38 -12h50q33 1 56 23q22 23 23 56q-1 31 -20 53q-20 21 -50 26v0z" />
    <glyph glyph-name="circle-6" unicode="&#xe0f3;" 
d="M256 448q-72 -1 -129 -35v0q-58 -34 -92 -92v0q-34 -57 -35 -129q1 -72 35 -129q34 -58 92 -92q57 -34 129 -35q72 1 129 35q58 34 92 92q34 57 35 129q-1 72 -35 129q-34 58 -92 92q-57 34 -129 35v0zM256 -16q-88 2 -147 61v0q-59 59 -61 147q2 88 61 147t147 61
q88 -2 147 -61t61 -147q-2 -88 -61 -147t-147 -61v0zM282 252l30 26q15 16 2 34q-8 8 -18 8q-9 0 -16 -6l-80 -70q-11 -8 -25 -30q-14 -23 -15 -54q1 -41 28 -68t68 -28q41 1 68 28t28 68q-1 33 -20 58t-50 34v0zM256 112q-20 1 -34 14v0q-13 14 -14 34q0 7 2 14q5 15 17 24
q13 10 29 10q20 -1 34 -14q13 -14 14 -34q-1 -20 -14 -34q-14 -13 -34 -14v0z" />
    <glyph glyph-name="circle-7" unicode="&#xe0f4;" 
d="M256 448q-72 -1 -129 -35v0q-58 -34 -92 -92v0q-34 -57 -35 -129q1 -72 35 -129q34 -58 92 -92q57 -34 129 -35q72 1 129 35q58 34 92 92q34 57 35 129q-1 72 -35 129q-34 58 -92 92q-57 34 -129 35v0zM256 -16q-88 2 -147 61v0q-59 59 -61 147q2 88 61 147t147 61
q88 -2 147 -61t61 -147q-2 -88 -61 -147t-147 -61v0zM328 320h-144q-22 -2 -24 -24q2 -22 24 -24h104l-93 -173q-9 -20 10 -32q5 -3 10 -3q14 0 21 13l112 208q6 12 0 23q-6 12 -20 12v0z" />
    <glyph glyph-name="circle-8" unicode="&#xe0f5;" 
d="M256 448q-72 -1 -129 -35v0q-58 -34 -92 -92v0q-34 -57 -35 -129q1 -72 35 -129q34 -58 92 -92q57 -34 129 -35q72 1 129 35q58 34 92 92q34 57 35 129q-1 72 -35 129q-34 58 -92 92q-57 34 -129 35v0zM256 -16q-88 2 -147 61v0q-59 59 -61 147q2 88 61 147t147 61
q88 -2 147 -61t61 -147q-2 -88 -61 -147t-147 -61v0zM336 248q-1 31 -21 51v0q-20 20 -51 21h-16q-31 -1 -51 -21t-21 -51q0 -24 14 -42q-29 -23 -30 -62q1 -34 23 -57q23 -22 57 -23h32q34 1 57 23q22 23 23 57q-1 39 -30 62q14 18 14 42v0zM248 272h16q22 -2 24 -24
q-2 -22 -24 -24h-16q-22 2 -24 24q2 22 24 24v0zM272 112h-32q-14 0 -23 9t-9 23t9 23t23 9h32q14 0 23 -9t9 -23t-9 -23t-23 -9v0z" />
    <glyph glyph-name="circle-9" unicode="&#xe0f6;" 
d="M256 448q-72 -1 -129 -35v0q-58 -34 -92 -92v0q-34 -57 -35 -129q1 -72 35 -129q34 -58 92 -92q57 -34 129 -35q72 1 129 35q58 34 92 92q34 57 35 129q-1 72 -35 129q-34 58 -92 92q-57 34 -129 35v0zM256 -16q-88 2 -147 61v0q-59 59 -61 147q2 88 61 147t147 61
q88 -2 147 -61t61 -147q-2 -88 -61 -147t-147 -61v0zM256 320q-41 -1 -68 -28v0q-27 -27 -28 -68q1 -33 20 -58t50 -34l-30 -26q-15 -16 -2 -34q8 -8 18 -8q9 0 16 6l80 70q11 8 25 30q14 23 15 54q-1 41 -28 68t-68 28v0zM302 210q-5 -15 -17 -24v0q-13 -10 -29 -10
q-20 1 -34 14q-13 14 -14 34q1 20 14 34q14 13 34 14q20 -1 34 -14q13 -14 14 -34q0 -7 -2 -14v0z" />
    <glyph glyph-name="circle-a" unicode="&#xe0f7;" 
d="M256 448q-72 -1 -129 -35v0q-58 -34 -92 -92v0q-34 -57 -35 -129q1 -72 35 -129q34 -58 92 -92q57 -34 129 -35q72 1 129 35q58 34 92 92q34 57 35 129q-1 72 -35 129q-34 58 -92 92q-57 34 -129 35v0zM256 -16q-88 2 -147 61v0q-59 59 -61 147q2 88 61 147t147 61
q88 -2 147 -61t61 -147q-2 -88 -61 -147t-147 -61v0zM278 323q-7 13 -22 13v0q-15 0 -22 -13l-96 -208q-7 -21 12 -32q21 -7 32 12l12 26h124l12 -26q7 -14 22 -14q5 0 10 2q19 11 12 32l-96 208v0zM215 168l41 87l40 -87h-81v0z" />
    <glyph glyph-name="circle-ampersand" unicode="&#xe0f8;" 
d="M256 448q-72 -1 -129 -35v0q-58 -34 -92 -92v0q-34 -57 -35 -129q1 -72 35 -129q34 -58 92 -92q57 -34 129 -35q72 1 129 35q58 34 92 92q34 57 35 129q-1 72 -35 129q-34 58 -92 92q-57 34 -129 35v0zM256 -16q-88 2 -147 61v0q-59 59 -61 147q2 88 61 147t147 61
q88 -2 147 -61t61 -147q-2 -88 -61 -147t-147 -61v0zM332 133l28 41q10 19 -7 33q-19 11 -33 -6l-22 -32l-30 33l20 16q21 17 22 44q-1 25 -17 41q-17 16 -41 17h-23q-25 -1 -41 -17t-17 -41q0 -25 17 -44l11 -11l-30 -24q-24 -20 -25 -52q1 -29 19 -47q19 -19 48 -20h32
q37 1 60 28l19 -20q8 -8 18 -8q9 0 16 6q15 17 2 34l-26 29v0zM229 272h23q9 -1 10 -10q-1 -4 -4 -7l-22 -18l-12 14q-5 5 -5 11q1 9 10 10v0zM268 125q-9 -13 -25 -13h-32q-17 2 -19 19q0 9 7 14l32 26l39 -43l-2 -3v0z" />
    <glyph glyph-name="circle-arrow-down-left" unicode="&#xe0f9;" 
d="M327 297l-135 -135v97q-2 22 -24 24q-22 -2 -24 -24v-155q2 -22 24 -24h155q22 2 24 24q-2 22 -24 24h-97l135 135q14 17 0 34q-17 14 -34 0v0zM256 448q-72 -1 -129 -35v0q-58 -34 -92 -92v0q-34 -57 -35 -129q1 -72 35 -129q34 -58 92 -92q57 -34 129 -35q72 1 129 35
q58 34 92 92q34 57 35 129q-1 72 -35 129q-34 58 -92 92q-57 34 -129 35v0zM256 -16q-88 2 -147 61v0q-59 59 -61 147q2 88 61 147t147 61q88 -2 147 -61t61 -147q-2 -88 -61 -147t-147 -61v0z" />
    <glyph glyph-name="circle-arrow-down-right" unicode="&#xe0fa;" 
d="M344 283q-22 -2 -24 -24v-97l-136 135q-17 14 -34 0q-14 -17 0 -34l136 -135h-97q-22 -2 -24 -24q2 -22 24 -24h155q22 2 24 24v155q-2 22 -24 24v0zM256 448q-72 -1 -129 -35v0q-58 -34 -92 -92v0q-34 -57 -35 -129q1 -72 35 -129q34 -58 92 -92q57 -34 129 -35
q72 1 129 35q58 34 92 92q34 57 35 129q-1 72 -35 129q-34 58 -92 92q-57 34 -129 35v0zM256 -16q-88 2 -147 61v0q-59 59 -61 147q2 88 61 147t147 61q88 -2 147 -61t61 -147q-2 -88 -61 -147t-147 -61v0z" />
    <glyph glyph-name="circle-arrow-up-left" unicode="&#xe0fb;" 
d="M226 256h97q22 2 24 24q-2 22 -24 24h-155q-22 -2 -24 -24v-155q2 -22 24 -24q22 2 24 24v97l135 -135q7 -7 17 -7t17 7q14 17 0 34l-135 135v0zM256 448q-72 -1 -129 -35v0q-58 -34 -92 -92v0q-34 -57 -35 -129q1 -72 35 -129q34 -58 92 -92q57 -34 129 -35q72 1 129 35
q58 34 92 92q34 57 35 129q-1 72 -35 129q-34 58 -92 92q-57 34 -129 35v0zM256 -16q-88 2 -147 61v0q-59 59 -61 147q2 88 61 147t147 61q88 -2 147 -61t61 -147q-2 -88 -61 -147t-147 -61v0z" />
    <glyph glyph-name="circle-arrow-up-right" unicode="&#xe0fc;" 
d="M344 304h-155q-22 -2 -24 -24q2 -22 24 -24h97l-135 -135q-14 -17 0 -34q7 -7 17 -7t17 7l135 135v-97q2 -22 24 -24q22 2 24 24v155q-2 22 -24 24v0zM256 448q-72 -1 -129 -35v0q-58 -34 -92 -92v0q-34 -57 -35 -129q1 -72 35 -129q34 -58 92 -92q57 -34 129 -35
q72 1 129 35q58 34 92 92q34 57 35 129q-1 72 -35 129q-34 58 -92 92q-57 34 -129 35v0zM256 -16q-88 2 -147 61v0q-59 59 -61 147q2 88 61 147t147 61q88 -2 147 -61t61 -147q-2 -88 -61 -147t-147 -61v0z" />
    <glyph glyph-name="circle-b" unicode="&#xe0fd;" 
d="M256 448q-72 -1 -129 -35v0q-58 -34 -92 -92v0q-34 -57 -35 -129q1 -72 35 -129q34 -58 92 -92q57 -34 129 -35q72 1 129 35q58 34 92 92q34 57 35 129q-1 72 -35 129q-34 58 -92 92q-57 34 -129 35v0zM256 -16q-88 2 -147 61v0q-59 59 -61 147q2 88 61 147t147 61
q88 -2 147 -61t61 -147q-2 -88 -61 -147t-147 -61v0zM338 200q14 19 14 44q-1 32 -22 54q-22 21 -54 22h-92q-22 -2 -24 -24v-208q2 -22 24 -24h108q32 1 54 22q21 22 22 54q-1 38 -30 60v0zM208 272h68q12 0 20 -8t8 -20t-8 -20t-20 -8h-68v56v0zM292 112h-84v56h84
q12 0 20 -8t8 -20t-8 -20t-20 -8v0z" />
    <glyph glyph-name="circle-bolt" unicode="&#xe0fe;" 
d="M314 317q9 -8 5 -19l-39 -90h64q11 -1 15 -11q3 -9 -5 -17l-136 -112q-10 -7 -20 -1q-9 8 -5 19l39 91h-64q-11 0 -15 10q-3 10 5 17l136 112q10 8 20 1v0v0zM512 192q-1 -72 -35 -129v0q-34 -58 -92 -92v0q-57 -34 -129 -35q-72 1 -129 35q-58 34 -92 92q-34 57 -35 129
q1 72 35 129q34 58 92 92q57 34 129 35q72 -1 129 -35q58 -34 92 -92q34 -57 35 -129v0zM256 400q-88 -2 -147 -61v0q-59 -59 -61 -147q2 -88 61 -147t147 -61q88 2 147 61t61 147q-2 88 -61 147t-147 61v0z" />
    <glyph glyph-name="circle-book-open" unicode="&#xe0ff;" 
d="M375 275q-32 13 -59 13q-29 -2 -44 -8v0v-183q9 7 36 13q27 5 65 -9q9 -4 11 5v156q0 9 -9 13v0zM137 275q-9 -3 -9 -13v-156q2 -8 11 -6q38 15 65 9t36 -13v184q-15 6 -44 8q-28 0 -59 -13v0zM256 448q-72 -1 -129 -35v0q-58 -34 -92 -92v0q-34 -57 -35 -129
q1 -72 35 -129q34 -58 92 -92q57 -34 129 -35q72 1 129 35q58 34 92 92q34 57 35 129q-1 72 -35 129q-34 58 -92 92q-57 34 -129 35v0zM256 -16q-88 2 -147 61v0q-59 59 -61 147q2 88 61 147t147 61q88 -2 147 -61t61 -147q-2 -88 -61 -147t-147 -61v0z" />
    <glyph glyph-name="circle-bookmark" unicode="&#xe100;" 
d="M309 304h-106q-25 -2 -27 -27v-165q1 -10 9 -14t16 2l55 44l54 -44q9 -6 17 -2t9 15v164q-2 25 -27 27v0zM256 448q-72 -1 -129 -35v0q-58 -34 -92 -92v0q-34 -57 -35 -129q1 -72 35 -129q34 -58 92 -92q57 -34 129 -35q72 1 129 35q58 34 92 92q34 57 35 129
q-1 72 -35 129q-34 58 -92 92q-57 34 -129 35v0zM256 -16q-88 2 -147 61v0q-59 59 -61 147q2 88 61 147t147 61q88 -2 147 -61t61 -147q-2 -88 -61 -147t-147 -61v0z" />
    <glyph glyph-name="circle-c" unicode="&#xe101;" 
d="M256 448q-72 -1 -129 -35v0q-58 -34 -92 -92v0q-34 -57 -35 -129q1 -72 35 -129q34 -58 92 -92q57 -34 129 -35q72 1 129 35q58 34 92 92q34 57 35 129q-1 72 -35 129q-34 58 -92 92q-57 34 -129 35v0zM256 -16q-88 2 -147 61v0q-59 59 -61 147q2 88 61 147t147 61
q88 -2 147 -61t61 -147q-2 -88 -61 -147t-147 -61v0zM310 249q17 -15 34 -1q14 17 0 34q-38 37 -90 37q-51 0 -90 -37q-37 -39 -37 -90t37 -90q39 -37 91 -38v0v0q53 1 90 38q14 17 0 33q-17 14 -34 0q-23 -23 -56 -23q-32 0 -56 23q-23 25 -23 57t23 57q24 22 56 22t55 -22
v0z" />
    <glyph glyph-name="circle-calendar" unicode="&#xe102;" 
d="M208 336q15 -1 16 -16v-16h64v16q1 15 16 16q15 -1 16 -16v-16h16q20 -1 34 -14q13 -14 14 -34v-128q-1 -20 -14 -34q-14 -13 -34 -14h-160q-20 1 -34 14q-13 14 -14 34v128q1 20 14 34q14 13 34 14h16v16q1 15 16 16v0zM336 128v96h-160v-96h160v0zM512 192
q-1 -72 -35 -129v0q-34 -58 -92 -92v0q-57 -34 -129 -35q-72 1 -129 35q-58 34 -92 92q-34 57 -35 129q1 72 35 129q34 58 92 92q57 34 129 35q72 -1 129 -35q58 -34 92 -92q34 -57 35 -129v0zM256 400q-88 -2 -147 -61v0q-59 -59 -61 -147q2 -88 61 -147t147 -61
q88 2 147 61t61 147q-2 88 -61 147t-147 61v0z" />
    <glyph glyph-name="circle-camera" unicode="&#xe103;" 
d="M352 288h-36l-6 16q-7 15 -23 16h-62q-17 -1 -23 -16l-6 -16h-36q-14 0 -23 -9t-9 -23v-128q0 -14 9 -23t23 -9h192q14 0 23 9t9 23v128q0 14 -9 23t-23 9v0zM256 144q-20 1 -34 14v0q-13 14 -14 34q1 20 14 34q14 13 34 14q20 -1 34 -14q13 -14 14 -34q-1 -20 -14 -34
q-14 -13 -34 -14v0zM256 448q-72 -1 -129 -35v0q-58 -34 -92 -92v0q-34 -57 -35 -129q1 -72 35 -129q34 -58 92 -92q57 -34 129 -35q72 1 129 35q58 34 92 92q34 57 35 129q-1 72 -35 129q-34 58 -92 92q-57 34 -129 35v0zM256 -16q-88 2 -147 61v0q-59 59 -61 147
q2 88 61 147t147 61q88 -2 147 -61t61 -147q-2 -88 -61 -147t-147 -61v0z" />
    <glyph glyph-name="circle-d" unicode="&#xe104;" 
d="M256 448q-72 -1 -129 -35v0q-58 -34 -92 -92v0q-34 -57 -35 -129q1 -72 35 -129q34 -58 92 -92q57 -34 129 -35q72 1 129 35q58 34 92 92q34 57 35 129q-1 72 -35 129q-34 58 -92 92q-57 34 -129 35v0zM256 -16q-88 2 -147 61v0q-59 59 -61 147q2 88 61 147t147 61
q88 -2 147 -61t61 -147q-2 -88 -61 -147t-147 -61v0zM254 320h-70q-22 -2 -24 -24v-208q2 -22 24 -24h70q55 1 92 38q37 36 38 90q-1 54 -38 90q-37 37 -92 38v0zM254 112h-46v160h46q35 -1 58 -23q23 -23 24 -57q-1 -34 -24 -57q-23 -22 -58 -23v0z" />
    <glyph glyph-name="circle-dashed" unicode="&#xe105;" 
d="M28 216q-11 0 -18 8v0q-7 7 -5 18q10 51 38 92q6 9 16 9q11 1 19 -7q13 -15 2 -33q-19 -30 -27 -66q-5 -19 -25 -21v0zM145 368q-18 -11 -33 2q-8 8 -7 19q0 10 9 16q41 28 92 38q11 2 18 -5q8 -7 8 -18q-2 -20 -21 -25q-36 -8 -66 -27v0v0zM280 -36q2 20 21 25
q36 8 67 27q17 11 32 -2q8 -8 7 -19q0 -10 -9 -16q-41 -28 -92 -38q-11 -2 -18 5q-8 7 -8 18v0v0zM459 147q5 19 25 21q11 0 18 -8q7 -7 5 -18q-10 -51 -38 -92q-6 -9 -16 -9q-11 -1 -19 7q-13 15 -2 32q19 31 27 67v0zM145 16q30 -19 66 -27q19 -5 21 -25q0 -11 -8 -18
q-7 -7 -18 -5q-51 10 -92 38q-9 6 -9 16q-1 11 7 19q15 13 33 2v0v0zM5 142q-2 11 5 18v0q7 8 18 8q20 -2 25 -21q8 -36 27 -67q11 -17 -2 -32q-8 -8 -19 -7q-10 0 -16 9q-28 41 -38 92v0v0zM368 368q-31 19 -67 27q-19 5 -21 25q0 11 8 18q7 7 18 5q51 -10 92 -38
q9 -6 9 -16q1 -11 -7 -19q-15 -13 -32 -2v0v0zM432 303q-11 18 2 33q8 8 19 7q10 0 16 -9q28 -41 38 -92q2 -11 -5 -18q-7 -8 -18 -8q-20 2 -25 21q-8 36 -27 66v0v0z" />
    <glyph glyph-name="circle-divide" unicode="&#xe106;" 
d="M224 288q0 14 9 23v0q9 9 23 9t23 -9t9 -23t-9 -23t-23 -9t-23 9t-9 23v0zM344 216q22 -2 24 -24q-2 -22 -24 -24h-176q-22 2 -24 24q2 22 24 24h176v0zM288 96q0 -14 -9 -23v0q-9 -9 -23 -9t-23 9t-9 23t9 23t23 9t23 -9t9 -23v0zM512 192q-1 -72 -35 -129v0
q-34 -58 -92 -92v0q-57 -34 -129 -35q-72 1 -129 35q-58 34 -92 92q-34 57 -35 129q1 72 35 129q34 58 92 92q57 34 129 35q72 -1 129 -35q58 -34 92 -92q34 -57 35 -129v0zM256 400q-88 -2 -147 -61v0q-59 -59 -61 -147q2 -88 61 -147t147 -61q88 2 147 61t61 147
q-2 88 -61 147t-147 61v0z" />
    <glyph glyph-name="circle-down-left" unicode="&#xe107;" 
d="M341 288q-17 14 -34 0l-65 -64l-42 41q-6 7 -16 7q-5 0 -9 -2q-14 -6 -15 -22v-128q2 -22 24 -24h128q16 1 22 15t-5 26l-41 41l64 65q14 17 0 34l-11 11v0zM256 448q-72 -1 -129 -35v0q-58 -34 -92 -92v0q-34 -57 -35 -129q1 -72 35 -129q34 -58 92 -92q57 -34 129 -35
q72 1 129 35q58 34 92 92q34 57 35 129q-1 72 -35 129q-34 58 -92 92q-57 34 -129 35v0zM256 -16q-88 2 -147 61v0q-59 59 -61 147q2 88 61 147t147 61q88 -2 147 -61t61 -147q-2 -88 -61 -147t-147 -61v0z" />
    <glyph glyph-name="circle-down-right" unicode="&#xe108;" 
d="M337 270q-4 2 -9 2q-10 0 -17 -7l-41 -41l-65 64q-17 14 -34 0l-11 -11q-14 -17 0 -34l64 -65l-41 -41q-11 -12 -5 -26t22 -15h128q22 2 24 24v128q-1 16 -15 22v0zM256 448q-72 -1 -129 -35v0q-58 -34 -92 -92v0q-34 -57 -35 -129q1 -72 35 -129q34 -58 92 -92
q57 -34 129 -35q72 1 129 35q58 34 92 92q34 57 35 129q-1 72 -35 129q-34 58 -92 92q-57 34 -129 35v0zM256 -16q-88 2 -147 61v0q-59 59 -61 147q2 88 61 147t147 61q88 -2 147 -61t61 -147q-2 -88 -61 -147t-147 -61v0z" />
    <glyph glyph-name="circle-e" unicode="&#xe109;" 
d="M256 448q-72 -1 -129 -35v0q-58 -34 -92 -92v0q-34 -57 -35 -129q1 -72 35 -129q34 -58 92 -92q57 -34 129 -35q72 1 129 35q58 34 92 92q34 57 35 129q-1 72 -35 129q-34 58 -92 92q-57 34 -129 35v0zM256 -16q-88 2 -147 61v0q-59 59 -61 147q2 88 61 147t147 61
q88 -2 147 -61t61 -147q-2 -88 -61 -147t-147 -61v0zM328 272q22 2 24 24q-2 22 -24 24h-144q-22 -2 -24 -24v-208q2 -22 24 -24h144q22 2 24 24q-2 22 -24 24h-120v56h88q22 2 24 24q-2 22 -24 24h-88v56h120v0z" />
    <glyph glyph-name="circle-ellipsis" unicode="&#xe10a;" 
d="M256 224q14 0 23 -9v0q9 -9 9 -23t-9 -23t-23 -9t-23 9t-9 23t9 23t23 9v0zM352 160q-14 0 -23 9v0q-9 9 -9 23t9 23t23 9t23 -9t9 -23t-9 -23t-23 -9v0zM160 224q14 0 23 -9v0q9 -9 9 -23t-9 -23t-23 -9t-23 9t-9 23t9 23t23 9v0zM256 -64q-72 1 -129 35v0
q-58 34 -92 92v0q-34 57 -35 129q1 72 35 129q34 58 92 92q57 34 129 35q72 -1 129 -35q58 -34 92 -92q34 -57 35 -129q-1 -72 -35 -129q-34 -58 -92 -92q-57 -34 -129 -35v0zM464 192q-2 88 -61 147v0q-59 59 -147 61q-88 -2 -147 -61t-61 -147q2 -88 61 -147t147 -61
q88 2 147 61t61 147v0z" />
    <glyph glyph-name="circle-ellipsis-vertical" unicode="&#xe10b;" 
d="M224 192q0 14 9 23v0q9 9 23 9t23 -9t9 -23t-9 -23t-23 -9t-23 9t-9 23v0zM288 288q0 -14 -9 -23v0q-9 -9 -23 -9t-23 9t-9 23t9 23t23 9t23 -9t9 -23v0zM224 96q0 14 9 23v0q9 9 23 9t23 -9t9 -23t-9 -23t-23 -9t-23 9t-9 23v0zM512 192q-1 -72 -35 -129v0
q-34 -58 -92 -92v0q-57 -34 -129 -35q-72 1 -129 35q-58 34 -92 92q-34 57 -35 129q1 72 35 129q34 58 92 92q57 34 129 35q72 -1 129 -35q58 -34 92 -92q34 -57 35 -129v0zM256 400q-88 -2 -147 -61v0q-59 -59 -61 -147q2 -88 61 -147t147 -61q88 2 147 61t61 147
q-2 88 -61 147t-147 61v0z" />
    <glyph glyph-name="circle-envelope" unicode="&#xe10c;" 
d="M256 160q-4 0 -6 1l-122 49v-82q0 -14 9 -23t23 -9h192q14 0 23 9t9 23v82l-122 -49q-3 -1 -6 -1v0zM352 288h-192q-14 0 -23 -9t-9 -23v-12l128 -51l128 51v12q0 14 -9 23t-23 9v0zM256 448q-72 -1 -129 -35v0q-58 -34 -92 -92v0q-34 -57 -35 -129q1 -72 35 -129
q34 -58 92 -92q57 -34 129 -35q72 1 129 35q58 34 92 92q34 57 35 129q-1 72 -35 129q-34 58 -92 92q-57 34 -129 35v0zM256 -16q-88 2 -147 61v0q-59 59 -61 147q2 88 61 147t147 61q88 -2 147 -61t61 -147q-2 -88 -61 -147t-147 -61v0z" />
    </font>
</defs>
</svg>
