<?xml version="1.0" standalone="no"?>
<!DOCTYPE svg PUBLIC "-//W3C//DTD SVG 1.1//EN" "http://www.w3.org/Graphics/SVG/1.1/DTD/svg11.dtd" >
<svg xmlns="http://www.w3.org/2000/svg" xmlns:xlink="http://www.w3.org/1999/xlink" version="1.1">
<metadata>
Created by FontForge 20200511 at Tue Aug 30 15:46:26 2022
 By convertio
Copyright (c) Font Awesome
</metadata>
<defs>
<font id="FontAwesome6Pro-Thin" horiz-adv-x="512" >
  <font-face 
    font-family="Font Awesome 6 Pro Thin"
    font-weight="100"
    font-stretch="normal"
    units-per-em="512"
    panose-1="2 0 3 3 0 0 0 0 0 0"
    ascent="448"
    descent="-64"
    x-height="414"
    bbox="-1.16667 -72 640.364 449.125"
    underline-thickness="25"
    underline-position="-49"
    unicode-range="U+0022-1FAE5"
  />
<missing-glyph horiz-adv-x="384" 
d="M352 448h-320q-14 0 -23 -9t-9 -23v-448q0 -14 9 -23t23 -9h320q14 0 23 9t9 23v448q0 14 -9 23t-23 9v0zM368 416v-448v-1v-1l-166 226l166 226v-1v-1v0zM352 432q3 0 5 -1l-165 -226l-165 226q2 1 5 1h320v0zM16 -34v1v0v1v448v1v1l166 -226l-166 -226v0zM32 -48
q-3 0 -5 1l165 225l165 -225q-2 -1 -5 -1h-320v0z" />
    <glyph glyph-name=".notdef" horiz-adv-x="384" 
d="M352 448h-320q-14 0 -23 -9t-9 -23v-448q0 -14 9 -23t23 -9h320q14 0 23 9t9 23v448q0 14 -9 23t-23 9v0zM368 416v-448v-1v-1l-166 226l166 226v-1v-1v0zM352 432q3 0 5 -1l-165 -226l-165 226q2 1 5 1h320v0zM16 -34v1v0v1v448v1v1l166 -226l-166 -226v0zM32 -48
q-3 0 -5 1l165 225l165 -225q-2 -1 -5 -1h-320v0z" />
    <glyph glyph-name="exclamation" unicode="&#xf12a;" horiz-adv-x="128" 
d="M64 64q7 1 8 8v336q-1 7 -8 8q-7 -1 -8 -8v-336q1 -7 8 -8v0zM64 16q-15 -1 -16 -16q1 -15 16 -16q15 1 16 16q-1 15 -16 16v0z" />
    <glyph glyph-name="exclamation" unicode="&#x2757;" horiz-adv-x="128" 
d="M64 64q7 1 8 8v336q-1 7 -8 8q-7 -1 -8 -8v-336q1 -7 8 -8v0zM64 16q-15 -1 -16 -16q1 -15 16 -16q15 1 16 16q-1 15 -16 16v0z" />
    <glyph glyph-name="exclamation" unicode="&#x2755;" horiz-adv-x="128" 
d="M64 64q7 1 8 8v336q-1 7 -8 8q-7 -1 -8 -8v-336q1 -7 8 -8v0zM64 16q-15 -1 -16 -16q1 -15 16 -16q15 1 16 16q-1 15 -16 16v0z" />
    <glyph glyph-name="exclamation" unicode="!" horiz-adv-x="128" 
d="M64 64q7 1 8 8v336q-1 7 -8 8q-7 -1 -8 -8v-336q1 -7 8 -8v0zM64 16q-15 -1 -16 -16q1 -15 16 -16q15 1 16 16q-1 15 -16 16v0z" />
    <glyph glyph-name="ditto" unicode="&#x22;" horiz-adv-x="320" 
d="M305 393q-19 23 -50 23q-30 0 -49 -23q-19 -24 -14 -55l25 -145q4 -15 14 -24q11 -9 24 -9q14 0 24 9q11 9 14 24l25 145q6 31 -13 55v0zM303 341l-25 -145q-5 -19 -23 -20q-18 1 -22 20l-24 145q-4 24 10 42q14 17 36 17t37 -17q15 -18 11 -42v0zM64 416q-29 0 -49 -23
q-19 -24 -14 -55l25 -145q3 -15 13 -24q11 -9 25 -9t25 9q10 9 13 24l25 145q5 31 -14 55q-20 23 -49 23v0zM111 341l-25 -145q-5 -19 -23 -20q-18 1 -22 20l-24 145q-4 24 10 42q14 17 36 17t37 -17q15 -18 11 -42v0z" />
    <glyph glyph-name="hashtag" unicode="&#xf292;" horiz-adv-x="448" 
d="M440 296h-109l21 110q1 8 -7 10q-7 1 -9 -7l-21 -113h-152l21 110q1 8 -6 10q-8 1 -10 -7l-21 -113h-107q-7 -1 -8 -8q1 -7 8 -8h104l-32 -176h-104q-7 -1 -8 -8q1 -7 8 -8h101l-21 -110q-1 -8 7 -10v0h1q6 0 8 7l21 113h152l-21 -110q-1 -8 7 -10v0h1q6 0 8 7l21 113
h115q7 1 8 8q-1 7 -8 8h-112l32 175h112q7 1 8 8q-1 9 -8 9v0zM280 104h-152l32 176h152l-32 -176v0z" />
    <glyph glyph-name="hashtag" unicode="#" horiz-adv-x="448" 
d="M440 296h-109l21 110q1 8 -7 10q-7 1 -9 -7l-21 -113h-152l21 110q1 8 -6 10q-8 1 -10 -7l-21 -113h-107q-7 -1 -8 -8q1 -7 8 -8h104l-32 -176h-104q-7 -1 -8 -8q1 -7 8 -8h101l-21 -110q-1 -8 7 -10v0h1q6 0 8 7l21 113h152l-21 -110q-1 -8 7 -10v0h1q6 0 8 7l21 113
h115q7 1 8 8q-1 7 -8 8h-112l32 175h112q7 1 8 8q-1 9 -8 9v0zM280 104h-152l32 176h152l-32 -176v0z" />
    <glyph glyph-name="dollar-sign" unicode="&#x1f4b2;" horiz-adv-x="320" 
d="M168 384q56 -5 96 -16q7 -2 6 -9q-3 -7 -10 -6q-27 7 -63 12t-72 3q-35 -3 -60 -18q-24 -14 -31 -48q-5 -25 4 -40q8 -16 26 -28q39 -21 96 -34h1h2q28 -7 54 -15q27 -9 48 -22q21 -12 32 -33t5 -51q-11 -48 -61 -67q-32 -12 -73 -12v-56q-1 -7 -8 -8q-7 1 -8 8v57
q-14 1 -28 3v0q-21 3 -49 10q-27 7 -54 18q-7 3 -4 10t10 4q26 -10 52 -17t48 -10q64 -8 108 8q43 17 51 55q5 26 -3 41q-8 16 -28 27q-38 22 -97 34l-1 1v0q-28 7 -54 15q-27 8 -47 21q-22 13 -33 34t-5 50q9 40 38 59q30 17 68 20q14 1 28 0v56q1 7 8 8q7 -1 8 -8v-56v0z
" />
    <glyph glyph-name="dollar-sign" unicode="&#xf155;" horiz-adv-x="320" 
d="M168 384q56 -5 96 -16q7 -2 6 -9q-3 -7 -10 -6q-27 7 -63 12t-72 3q-35 -3 -60 -18q-24 -14 -31 -48q-5 -25 4 -40q8 -16 26 -28q39 -21 96 -34h1h2q28 -7 54 -15q27 -9 48 -22q21 -12 32 -33t5 -51q-11 -48 -61 -67q-32 -12 -73 -12v-56q-1 -7 -8 -8q-7 1 -8 8v57
q-14 1 -28 3v0q-21 3 -49 10q-27 7 -54 18q-7 3 -4 10t10 4q26 -10 52 -17t48 -10q64 -8 108 8q43 17 51 55q5 26 -3 41q-8 16 -28 27q-38 22 -97 34l-1 1v0q-28 7 -54 15q-27 8 -47 21q-22 13 -33 34t-5 50q9 40 38 59q30 17 68 20q14 1 28 0v56q1 7 8 8q7 -1 8 -8v-56v0z
" />
    <glyph glyph-name="dollar-sign" unicode="$" horiz-adv-x="320" 
d="M168 384q56 -5 96 -16q7 -2 6 -9q-3 -7 -10 -6q-27 7 -63 12t-72 3q-35 -3 -60 -18q-24 -14 -31 -48q-5 -25 4 -40q8 -16 26 -28q39 -21 96 -34h1h2q28 -7 54 -15q27 -9 48 -22q21 -12 32 -33t5 -51q-11 -48 -61 -67q-32 -12 -73 -12v-56q-1 -7 -8 -8q-7 1 -8 8v57
q-14 1 -28 3v0q-21 3 -49 10q-27 7 -54 18q-7 3 -4 10t10 4q26 -10 52 -17t48 -10q64 -8 108 8q43 17 51 55q5 26 -3 41q-8 16 -28 27q-38 22 -97 34l-1 1v0q-28 7 -54 15q-27 8 -47 21q-22 13 -33 34t-5 50q9 40 38 59q30 17 68 20q14 1 28 0v56q1 7 8 8q7 -1 8 -8v-56v0z
" />
    <glyph glyph-name="percent" unicode="&#xf541;" horiz-adv-x="384" 
d="M382 382q-6 4 -12 0l-368 -368q-4 -6 0 -12q3 -2 6 -2t6 2l368 368q4 6 0 12v0zM64 256q27 1 45 19v0q18 18 19 45q-1 27 -19 45t-45 19q-27 -1 -45 -19t-19 -45q1 -27 19 -45t45 -19v0zM64 368q20 -1 34 -14v0q13 -14 14 -34q-1 -20 -14 -34q-14 -13 -34 -14
q-20 1 -34 14q-13 14 -14 34q1 20 14 34q14 13 34 14v0zM320 128q-27 -1 -45 -19v0q-18 -18 -19 -45q1 -27 19 -45t45 -19q27 1 45 19t19 45q-1 27 -19 45t-45 19v0zM320 16q-20 1 -34 14v0q-13 14 -14 34q1 20 14 34q14 13 34 14q20 -1 34 -14q13 -14 14 -34
q-1 -20 -14 -34q-14 -13 -34 -14v0z" />
    <glyph glyph-name="percent" unicode="&#xf295;" horiz-adv-x="384" 
d="M382 382q-6 4 -12 0l-368 -368q-4 -6 0 -12q3 -2 6 -2t6 2l368 368q4 6 0 12v0zM64 256q27 1 45 19v0q18 18 19 45q-1 27 -19 45t-45 19q-27 -1 -45 -19t-19 -45q1 -27 19 -45t45 -19v0zM64 368q20 -1 34 -14v0q13 -14 14 -34q-1 -20 -14 -34q-14 -13 -34 -14
q-20 1 -34 14q-13 14 -14 34q1 20 14 34q14 13 34 14v0zM320 128q-27 -1 -45 -19v0q-18 -18 -19 -45q1 -27 19 -45t45 -19q27 1 45 19t19 45q-1 27 -19 45t-45 19v0zM320 16q-20 1 -34 14v0q-13 14 -14 34q1 20 14 34q14 13 34 14q20 -1 34 -14q13 -14 14 -34
q-1 -20 -14 -34q-14 -13 -34 -14v0z" />
    <glyph glyph-name="percent" unicode="%" horiz-adv-x="384" 
d="M382 382q-6 4 -12 0l-368 -368q-4 -6 0 -12q3 -2 6 -2t6 2l368 368q4 6 0 12v0zM64 256q27 1 45 19v0q18 18 19 45q-1 27 -19 45t-45 19q-27 -1 -45 -19t-19 -45q1 -27 19 -45t45 -19v0zM64 368q20 -1 34 -14v0q13 -14 14 -34q-1 -20 -14 -34q-14 -13 -34 -14
q-20 1 -34 14q-13 14 -14 34q1 20 14 34q14 13 34 14v0zM320 128q-27 -1 -45 -19v0q-18 -18 -19 -45q1 -27 19 -45t45 -19q27 1 45 19t19 45q-1 27 -19 45t-45 19v0zM320 16q-20 1 -34 14v0q-13 14 -14 34q1 20 14 34q14 13 34 14q20 -1 34 -14q13 -14 14 -34
q-1 -20 -14 -34q-14 -13 -34 -14v0z" />
    <glyph glyph-name="ampersand" unicode="&#x26;" horiz-adv-x="384" 
d="M382 -19l-79 84l80 114q3 7 -2 12q-7 3 -12 -2l-77 -112l-134 140l76 60q29 24 30 61q-1 33 -24 55q-22 22 -56 23h-48q-34 -1 -57 -23t-24 -55q1 -36 26 -63l53 -57l-97 -78q-36 -29 -37 -75q1 -41 29 -69q28 -27 71 -28h69q31 0 58 14t45 39l21 30l77 -81q3 -2 5 -2
q3 0 6 2q6 6 1 11v0zM93 285q-21 23 -22 53q1 26 19 44q19 17 46 18h48q27 -1 45 -18q18 -18 19 -44q-1 -29 -24 -48l-77 -62l-54 57v0zM259 30q-33 -45 -90 -46h-69q-36 1 -59 24q-24 23 -25 57q1 38 31 63l99 79l136 -144l-23 -33v0z" />
    <glyph glyph-name="apostrophe" unicode="'" horiz-adv-x="192" 
d="M192 336q-1 34 -23 57v0q-23 22 -57 23q-34 -1 -57 -23q-22 -23 -23 -57q1 -34 23 -57q23 -22 57 -23q41 2 64 32v-24q-1 -37 -26 -62t-62 -26h-16q-7 -1 -8 -8q1 -7 8 -8h16q44 1 73 31q30 29 31 73v64v1q-1 0 -1 1t1 2v4v0zM112 272q-27 1 -45 19v0q-18 18 -19 45
q1 27 19 45t45 19q27 -1 45 -19t19 -45q-1 -27 -19 -45t-45 -19v0z" />
    <glyph glyph-name="bracket-round" unicode="(" horiz-adv-x="192" 
d="M141 -10q5 -4 1 -11q-2 -3 -6 -3q-2 0 -5 2q-3 1 -27 25t-47 71t-25 118q2 71 25 118t47 71t27 26q7 3 11 -2q4 -7 -1 -11v0q-3 -1 -25 -24q-23 -23 -44 -67q-22 -45 -24 -111q2 -66 23 -110q22 -44 44 -67q23 -23 26 -24v-1v0z" />
    <glyph glyph-name="bracket-round-right" unicode=")" horiz-adv-x="192" 
d="M143 193q-2 66 -23 110v0q-22 45 -44 67v0q-23 23 -26 24v0v0q-4 4 0 11q4 5 11 2q3 -2 27 -26t47 -71t25 -118q-2 -71 -25 -118t-47 -71t-27 -25q-2 -2 -5 -2q-4 0 -6 3q-4 7 1 11v1q4 1 26 24t43 67q21 45 23 111v0z" />
    <glyph glyph-name="asterisk" unicode="&#xf069;" horiz-adv-x="448" 
d="M412 91q6 -4 3 -11q-2 -4 -7 -4q-2 0 -4 1l-172 101v-202q-1 -7 -8 -8q-7 1 -8 8v202l-172 -101q-2 -1 -4 -1q-4 0 -7 4q-3 7 3 11l172 101l-172 101q-6 4 -3 11q4 6 11 3l172 -101v202q1 7 8 8q7 -1 8 -8v-202l172 101q7 3 10 -3q3 -7 -3 -11l-171 -101l172 -101v0z" />
    <glyph glyph-name="asterisk" unicode="&#x2731;" horiz-adv-x="448" 
d="M412 91q6 -4 3 -11q-2 -4 -7 -4q-2 0 -4 1l-172 101v-202q-1 -7 -8 -8q-7 1 -8 8v202l-172 -101q-2 -1 -4 -1q-4 0 -7 4q-3 7 3 11l172 101l-172 101q-6 4 -3 11q4 6 11 3l172 -101v202q1 7 8 8q7 -1 8 -8v-202l172 101q7 3 10 -3q3 -7 -3 -11l-171 -101l172 -101v0z" />
    <glyph glyph-name="asterisk" unicode="*" horiz-adv-x="448" 
d="M412 91q6 -4 3 -11q-2 -4 -7 -4q-2 0 -4 1l-172 101v-202q-1 -7 -8 -8q-7 1 -8 8v202l-172 -101q-2 -1 -4 -1q-4 0 -7 4q-3 7 3 11l172 101l-172 101q-6 4 -3 11q4 6 11 3l172 -101v202q1 7 8 8q7 -1 8 -8v-202l172 101q7 3 10 -3q3 -7 -3 -11l-171 -101l172 -101v0z" />
    <glyph glyph-name="plus" unicode="&#xf067;" horiz-adv-x="448" 
d="M432 192q-1 -7 -8 -8h-192v-192q-1 -7 -8 -8q-7 1 -8 8v192h-192q-7 1 -8 8q1 7 8 8h192v192q1 7 8 8q7 -1 8 -8v-192h192q7 -1 8 -8v0z" />
    <glyph glyph-name="plus" unicode="&#x2795;" horiz-adv-x="448" 
d="M432 192q-1 -7 -8 -8h-192v-192q-1 -7 -8 -8q-7 1 -8 8v192h-192q-7 1 -8 8q1 7 8 8h192v192q1 7 8 8q7 -1 8 -8v-192h192q7 -1 8 -8v0z" />
    <glyph glyph-name="plus" unicode="+" horiz-adv-x="448" 
d="M432 192q-1 -7 -8 -8h-192v-192q-1 -7 -8 -8q-7 1 -8 8v192h-192q-7 1 -8 8q1 7 8 8h192v192q1 7 8 8q7 -1 8 -8v-192h192q7 -1 8 -8v0z" />
    <glyph glyph-name="comma" unicode="," horiz-adv-x="192" 
d="M97 144q15 0 27 -8v0q12 -8 17 -21q7 -19 -3 -38l-68 -115q-6 -10 -17 -10q-4 0 -8 1q-14 7 -13 23l23 132q4 20 22 31q9 5 20 5v0zM97 161v0q-15 0 -28 -8q-25 -14 -30 -42l-22 -132q-3 -28 23 -40q6 -3 12 -2h1q20 0 31 18l68 115q13 25 4 52q-7 17 -23 28t-36 11v0z
" />
    <glyph glyph-name="hyphen" unicode="-" horiz-adv-x="320" 
d="M8 184h304q7 1 8 8q-1 7 -8 8h-304q-7 -1 -8 -8q1 -7 8 -8v0z" />
    <glyph glyph-name="period" unicode="." horiz-adv-x="128" 
d="M64 80q20 -1 34 -14v0q13 -14 14 -34q-1 -20 -14 -34q-14 -13 -34 -14q-20 1 -34 14q-13 14 -14 34q1 20 14 34q14 13 34 14v0zM64 96q-27 -1 -45 -19v0q-18 -18 -19 -45q1 -27 19 -45t45 -19q27 1 45 19t19 45q-1 27 -19 45t-45 19v0z" />
    <glyph glyph-name="slash-forward" unicode="/" horiz-adv-x="320" 
d="M319 436l-304 -496q-3 -4 -7 -4q-2 0 -4 1q-6 5 -3 11l304 495q5 6 11 3t3 -10v0z" />
    <glyph glyph-name="0" unicode="0" horiz-adv-x="320" 
d="M160 416q-68 -2 -113 -47v0q-45 -45 -47 -113v-127q2 -68 47 -113t113 -47q68 2 113 47t47 113v127q-2 68 -47 113t-113 47v0zM304 128q-2 -61 -42 -102v0q-41 -40 -102 -42q-61 2 -102 42q-40 41 -42 102v128q2 61 42 102q41 40 102 42q61 -2 102 -42q40 -41 42 -102
v-128v0z" />
    <glyph glyph-name="1" unicode="1" horiz-adv-x="256" 
d="M256 -24q-1 -7 -8 -8h-240q-7 1 -8 8q1 7 8 8h112v410l-84 -49q-7 -3 -11 3q-3 7 3 11l96 56q4 2 8 0t4 -7v-424h112q7 -1 8 -8v0z" />
    <glyph glyph-name="2" unicode="2" horiz-adv-x="320" 
d="M320 -24q0 -7 -9 -8h-303q-5 0 -7 5t2 9l226 202q39 35 43 83t-29 88q-34 40 -87 45q-52 3 -92 -31l-34 -29q-6 -4 -12 1q-4 6 1 11l34 30q46 38 105 34q59 -6 97 -50q37 -46 33 -100t-48 -94l-211 -188h282q9 -1 9 -8v0z" />
    <glyph glyph-name="3" unicode="3" horiz-adv-x="320" 
d="M320 92q-1 -52 -36 -88v0q-36 -35 -88 -36h-108q-30 0 -54 17t-34 46q-1 7 5 10q8 2 11 -5q8 -24 27 -38q20 -14 45 -14h108q46 1 76 32q31 30 32 76q-1 46 -32 77q-30 30 -76 32h-124q-5 0 -7 5t2 8l201 186h-260q-7 1 -7 8t7 8h279q5 0 8 -5q1 -5 -2 -9l-201 -185h104
q52 -2 88 -37q35 -35 36 -88v0z" />
    <glyph glyph-name="4" unicode="4" horiz-adv-x="384" 
d="M383 105q-1 -7 -8 -8h-55v-119q-1 -8 -8 -8t-8 8v120h-296q-4 0 -7 4q-2 3 0 7l144 304q4 7 10 4q7 -4 4 -11l-138 -292h283v199q1 7 8 8q7 -1 8 -8v-200h56q7 -1 7 -8v0z" />
    <glyph glyph-name="5" unicode="5" horiz-adv-x="320" 
d="M320 92q-1 -52 -36 -88v0q-36 -35 -88 -36h-106q-31 0 -55 18q-24 17 -35 46q-1 8 5 10q8 2 11 -5q8 -24 28 -38q20 -15 46 -15h105q46 1 76 32q31 30 32 76q-1 46 -32 77q-30 30 -76 32h-187q-4 0 -6 3q-3 3 -2 6l47 200q3 6 9 6h223q7 -1 7 -8t-6 -8h-218l-44 -183h178
q52 -2 88 -37q35 -35 36 -88v0z" />
    <glyph glyph-name="6" unicode="6" horiz-adv-x="320" 
d="M0 128q2 -68 47 -113v0q45 -45 113 -47q68 2 113 47t47 113q-2 68 -47 113t-113 47q-32 0 -59 -12l121 126q4 6 0 12q-4 2 -6 2q-3 0 -6 -2q-36 -38 -65 -68q-58 -58 -89 -93q-32 -36 -44 -64q-13 -27 -12 -61v0zM304 128q-2 -61 -42 -102v0q-41 -40 -102 -42
q-61 2 -102 42q-40 41 -42 102q2 61 42 102q41 40 102 42q61 -2 102 -42q40 -41 42 -102v0z" />
    <glyph glyph-name="7" unicode="7" horiz-adv-x="320" 
d="M319 404l-272 -432q-3 -4 -7 -4q-2 0 -4 1q-6 5 -3 11l265 420h-290q-7 1 -8 8q1 7 8 8h304q5 0 7 -4t0 -8v0z" />
    <glyph glyph-name="8" unicode="8" horiz-adv-x="320" 
d="M231 196q29 15 47 42v0q18 27 18 62q-1 49 -34 82t-82 34h-40q-49 -1 -82 -34t-34 -82q0 -35 18 -62t47 -42q-39 -10 -64 -40q-24 -30 -25 -72q1 -49 34 -82t82 -34h88q49 1 82 34t34 82q-1 42 -25 72q-25 30 -64 40v0zM40 300q1 42 29 71v0q29 28 71 29h40q42 -1 71 -29
q28 -29 29 -71q-1 -42 -29 -71q-29 -28 -71 -29h-40q-42 1 -71 29q-28 29 -29 71v0zM204 -16h-88q-42 1 -71 29q-28 29 -29 71q1 42 29 71q29 28 71 29h88q42 -1 71 -29q28 -29 29 -71q-1 -42 -29 -71q-29 -28 -71 -29v0z" />
    <glyph glyph-name="9" unicode="9" horiz-adv-x="320" 
d="M320 256q-2 68 -47 113v0q-45 45 -113 47q-68 -2 -113 -47t-47 -113q2 -68 47 -113t113 -47q32 0 59 12l-121 -127q-4 -5 0 -11q2 -2 6 -2q3 0 6 2q39 41 69 72q56 56 87 91q30 35 42 62q13 27 12 61v0zM16 256q2 61 42 102v0q41 40 102 42q61 -2 102 -42q40 -41 42 -102
q-2 -61 -42 -102q-41 -40 -102 -42q-61 2 -102 42q-40 41 -42 102v0z" />
    <glyph glyph-name="colon" unicode=":" horiz-adv-x="128" 
d="M64 128q-27 -1 -45 -19v0q-18 -18 -19 -45q1 -27 19 -45t45 -19q27 1 45 19t19 45q-1 27 -19 45t-45 19v0zM64 16q-20 1 -34 14v0q-13 14 -14 34q1 20 14 34q14 13 34 14q20 -1 34 -14q13 -14 14 -34q-1 -20 -14 -34q-14 -13 -34 -14v0zM64 256q27 1 45 19v0q18 18 19 45
q-1 27 -19 45t-45 19q-27 -1 -45 -19t-19 -45q1 -27 19 -45t45 -19v0zM64 368q20 -1 34 -14v0q13 -14 14 -34q-1 -20 -14 -34q-14 -13 -34 -14q-20 1 -34 14q-13 14 -14 34q1 20 14 34q14 13 34 14v0z" />
    <glyph glyph-name="semicolon" unicode=";" horiz-adv-x="192" 
d="M96 256q27 1 45 19v0q18 18 19 45q-1 27 -19 45t-45 19q-27 -1 -45 -19q-17 -18 -18 -45q0 -27 18 -45t45 -19v0zM96 368q20 -1 34 -14v0q13 -14 14 -34q-1 -20 -14 -34q-14 -13 -34 -14q-20 1 -34 14q-13 14 -14 34q1 20 14 34q14 13 34 14v0zM97 161q-15 0 -28 -8
q-25 -14 -30 -42l-22 -132q-3 -28 23 -40q6 -3 12 -2h1q20 0 31 18l68 115q13 25 4 52q-7 17 -23 28t-36 11v0zM138 77l-68 -115q-6 -10 -17 -10q-4 0 -8 1q-14 7 -13 23l23 132q4 20 22 31q9 5 20 5q15 0 27 -8t17 -21q7 -19 -3 -38v0z" />
    <glyph glyph-name="less-than" unicode="&#xf536;" horiz-adv-x="384" 
d="M356 39q6 -4 3 -11q-3 -5 -11 -3l-320 159q-4 3 -4 9q0 5 4 7l320 159q7 3 11 -3q3 -7 -3 -11l-306 -152l306 -154v0z" />
    <glyph glyph-name="less-than" unicode="&#x3c;" horiz-adv-x="384" 
d="M356 39q6 -4 3 -11q-3 -5 -11 -3l-320 159q-4 3 -4 9q0 5 4 7l320 159q7 3 11 -3q3 -7 -3 -11l-306 -152l306 -154v0z" />
    <glyph glyph-name="equals" unicode="&#xf52c;" horiz-adv-x="448" 
d="M8 280h432q7 1 8 8q-1 7 -8 8h-432q-7 -1 -8 -8q1 -7 8 -8v0zM440 104h-432q-7 -1 -8 -8q1 -7 8 -8h432q7 1 8 8q-1 7 -8 8v0z" />
    <glyph glyph-name="equals" unicode="=" horiz-adv-x="448" 
d="M8 280h432q7 1 8 8q-1 7 -8 8h-432q-7 -1 -8 -8q1 -7 8 -8v0zM440 104h-432q-7 -1 -8 -8q1 -7 8 -8h432q7 1 8 8q-1 7 -8 8v0z" />
    <glyph glyph-name="greater-than" unicode="&#xf531;" horiz-adv-x="384" 
d="M356 199l-320 160q-7 3 -11 -3q-3 -7 3 -11l306 -153l-306 -153q-6 -4 -3 -10q2 -5 7 -5q2 0 4 1l320 160q4 2 4 7t-4 7v0z" />
    <glyph glyph-name="greater-than" unicode="&#x3e;" horiz-adv-x="384" 
d="M356 199l-320 160q-7 3 -11 -3q-3 -7 3 -11l306 -153l-306 -153q-6 -4 -3 -10q2 -5 7 -5q2 0 4 1l320 160q4 2 4 7t-4 7v0z" />
    <glyph glyph-name="question" unicode="&#xf128;" horiz-adv-x="320" 
d="M144 16q-15 -1 -16 -16q1 -15 16 -16q15 1 16 16q-1 15 -16 16v0zM211 416h-102q-46 -1 -77 -32q-31 -32 -32 -79v-9q1 -7 8 -8q7 1 8 8v9q1 41 27 67q26 27 66 28h102q40 -1 66 -28q26 -26 27 -67q0 -26 -13 -47q-13 -22 -35 -35l-95 -61q-24 -14 -25 -43v-47q1 -7 8 -8
q7 1 8 8v47q1 19 17 29l95 61q26 15 41 40q15 26 15 56q-1 47 -32 79q-31 31 -77 32v0z" />
    <glyph glyph-name="question" unicode="&#x2754;" horiz-adv-x="320" 
d="M144 16q-15 -1 -16 -16q1 -15 16 -16q15 1 16 16q-1 15 -16 16v0zM211 416h-102q-46 -1 -77 -32q-31 -32 -32 -79v-9q1 -7 8 -8q7 1 8 8v9q1 41 27 67q26 27 66 28h102q40 -1 66 -28q26 -26 27 -67q0 -26 -13 -47q-13 -22 -35 -35l-95 -61q-24 -14 -25 -43v-47q1 -7 8 -8
q7 1 8 8v47q1 19 17 29l95 61q26 15 41 40q15 26 15 56q-1 47 -32 79q-31 31 -77 32v0z" />
    <glyph glyph-name="question" unicode="&#x2753;" horiz-adv-x="320" 
d="M144 16q-15 -1 -16 -16q1 -15 16 -16q15 1 16 16q-1 15 -16 16v0zM211 416h-102q-46 -1 -77 -32q-31 -32 -32 -79v-9q1 -7 8 -8q7 1 8 8v9q1 41 27 67q26 27 66 28h102q40 -1 66 -28q26 -26 27 -67q0 -26 -13 -47q-13 -22 -35 -35l-95 -61q-24 -14 -25 -43v-47q1 -7 8 -8
q7 1 8 8v47q1 19 17 29l95 61q26 15 41 40q15 26 15 56q-1 47 -32 79q-31 31 -77 32v0z" />
    <glyph glyph-name="question" unicode="?" horiz-adv-x="320" 
d="M144 16q-15 -1 -16 -16q1 -15 16 -16q15 1 16 16q-1 15 -16 16v0zM211 416h-102q-46 -1 -77 -32q-31 -32 -32 -79v-9q1 -7 8 -8q7 1 8 8v9q1 41 27 67q26 27 66 28h102q40 -1 66 -28q26 -26 27 -67q0 -26 -13 -47q-13 -22 -35 -35l-95 -61q-24 -14 -25 -43v-47q1 -7 8 -8
q7 1 8 8v47q1 19 17 29l95 61q26 15 41 40q15 26 15 56q-1 47 -32 79q-31 31 -77 32v0z" />
    <glyph glyph-name="at" unicode="&#xf1fa;" 
d="M263 432q-101 2 -174 -68q-72 -71 -73 -172q1 -67 33 -121t86 -86t121 -33q7 1 8 7q-1 7 -8 8q-62 1 -113 31q-50 31 -80 81q-30 51 -31 113q1 94 68 161q33 32 75 48t88 15q60 -3 109 -34q49 -32 78 -84t30 -116v-10q-1 -29 -20 -48q-19 -18 -48 -19q-29 1 -48 19
q-19 19 -20 48v116q-1 7 -8 7q-7 -1 -8 -7v-41q-14 22 -37 35q-23 14 -51 14q-44 -1 -74 -30q-29 -30 -30 -73q1 -44 30 -73q30 -29 74 -30q31 0 55 16t38 41q8 -25 30 -41q21 -16 49 -16q36 1 59 24q24 24 25 59v9q-1 68 -32 124q-31 55 -83 89q-53 34 -118 37v0zM240 104
q-37 1 -62 26v0q-25 24 -26 61q1 37 26 62q25 24 62 25q37 -1 62 -25q25 -25 26 -62q-1 -37 -26 -61q-25 -25 -62 -26v0z" />
    <glyph glyph-name="at" unicode="@" 
d="M263 432q-101 2 -174 -68q-72 -71 -73 -172q1 -67 33 -121t86 -86t121 -33q7 1 8 7q-1 7 -8 8q-62 1 -113 31q-50 31 -80 81q-30 51 -31 113q1 94 68 161q33 32 75 48t88 15q60 -3 109 -34q49 -32 78 -84t30 -116v-10q-1 -29 -20 -48q-19 -18 -48 -19q-29 1 -48 19
q-19 19 -20 48v116q-1 7 -8 7q-7 -1 -8 -7v-41q-14 22 -37 35q-23 14 -51 14q-44 -1 -74 -30q-29 -30 -30 -73q1 -44 30 -73q30 -29 74 -30q31 0 55 16t38 41q8 -25 30 -41q21 -16 49 -16q36 1 59 24q24 24 25 59v9q-1 68 -32 124q-31 55 -83 89q-53 34 -118 37v0zM240 104
q-37 1 -62 26v0q-25 24 -26 61q1 37 26 62q25 24 62 25q37 -1 62 -25q25 -25 26 -62q-1 -37 -26 -61q-25 -25 -62 -26v0z" />
    <glyph glyph-name="a" unicode="a" horiz-adv-x="384" 
d="M383 -21l-184 433q-2 4 -7 4t-7 -4l-184 -433q-3 -7 4 -10t10 4l46 107h262l46 -107q2 -5 6 -5q2 0 3 1q8 3 5 10v0zM68 96l124 292l124 -292h-248v0z" />
    <glyph glyph-name="a" unicode="A" horiz-adv-x="384" 
d="M383 -21l-184 433q-2 4 -7 4t-7 -4l-184 -433q-3 -7 4 -10t10 4l46 107h262l46 -107q2 -5 6 -5q2 0 3 1q8 3 5 10v0zM68 96l124 292l124 -292h-248v0z" />
    <glyph glyph-name="b" unicode="b" horiz-adv-x="320" 
d="M236 202q31 13 49 40v0q19 27 19 62q-1 48 -33 79q-31 32 -79 33h-184q-7 -1 -8 -8v-432q1 -7 8 -8h192q51 1 85 35t35 85q-1 41 -24 71t-60 43v0zM16 400h176q41 -1 68 -28t28 -68q-1 -41 -28 -68t-68 -28h-176v192v0zM200 -16h-184v208h184q44 -1 74 -30q29 -30 30 -74
q-1 -44 -31 -74q-29 -29 -73 -30v0z" />
    <glyph glyph-name="b" unicode="B" horiz-adv-x="320" 
d="M236 202q31 13 49 40v0q19 27 19 62q-1 48 -33 79q-31 32 -79 33h-184q-7 -1 -8 -8v-432q1 -7 8 -8h192q51 1 85 35t35 85q-1 41 -24 71t-60 43v0zM16 400h176q41 -1 68 -28t28 -68q-1 -41 -28 -68t-68 -28h-176v192v0zM200 -16h-184v208h184q44 -1 74 -30q29 -30 30 -74
q-1 -44 -31 -74q-29 -29 -73 -30v0z" />
    <glyph glyph-name="c" unicode="c" horiz-adv-x="384" 
d="M224 -32q-64 1 -114 31v0q-50 30 -80 80v0q-29 51 -30 112q1 62 30 113q30 51 80 81t114 31q51 -1 86 -17q36 -17 55 -34t19 -20q-1 -8 -8 -8q-3 0 -13 9q-15 14 -49 33t-90 21q-90 -2 -148 -61t-60 -147q2 -88 60 -146q58 -59 148 -61q56 2 90 21q35 19 50 33q9 9 12 9
q7 -1 8 -8q0 -4 -19 -21t-54 -34q-36 -16 -87 -17v0z" />
    <glyph glyph-name="c" unicode="C" horiz-adv-x="384" 
d="M224 -32q-64 1 -114 31v0q-50 30 -80 80v0q-29 51 -30 112q1 62 30 113q30 51 80 81t114 31q51 -1 86 -17q36 -17 55 -34t19 -20q-1 -8 -8 -8q-3 0 -13 9q-15 14 -49 33t-90 21q-90 -2 -148 -61t-60 -147q2 -88 60 -146q58 -59 148 -61q56 2 90 21q35 19 50 33q9 9 12 9
q7 -1 8 -8q0 -4 -19 -21t-54 -34q-36 -16 -87 -17v0z" />
    <glyph glyph-name="d" unicode="d" horiz-adv-x="384" 
d="M160 -32h-152q-7 1 -8 8v432q1 7 8 8h152q62 -1 113 -31q50 -29 80 -80q30 -50 31 -112q-1 -62 -31 -113t-80 -81q-51 -30 -113 -31v0zM16 -16h144q88 2 147 61t61 147q-2 88 -61 147t-147 61h-144v-416v0z" />
    <glyph glyph-name="d" unicode="D" horiz-adv-x="384" 
d="M160 -32h-152q-7 1 -8 8v432q1 7 8 8h152q62 -1 113 -31q50 -29 80 -80q30 -50 31 -112q-1 -62 -31 -113t-80 -81q-51 -30 -113 -31v0zM16 -16h144q88 2 147 61t61 147q-2 88 -61 147t-147 61h-144v-416v0z" />
    <glyph glyph-name="e" unicode="e" horiz-adv-x="320" 
d="M320 -24q-1 -7 -8 -8h-304q-7 1 -8 8v432q1 7 8 8h304q7 -1 8 -8q-1 -7 -8 -8h-296v-200h232q7 -1 8 -8q-1 -7 -8 -8h-232v-200h296q7 -1 8 -8v0z" />
    <glyph glyph-name="e" unicode="E" horiz-adv-x="320" 
d="M320 -24q-1 -7 -8 -8h-304q-7 1 -8 8v432q1 7 8 8h304q7 -1 8 -8q-1 -7 -8 -8h-296v-200h232q7 -1 8 -8q-1 -7 -8 -8h-232v-200h296q7 -1 8 -8v0z" />
    <glyph glyph-name="f" unicode="f" horiz-adv-x="320" 
d="M320 408q-1 -7 -8 -8h-296v-209h232q7 0 8 -8q-1 -7 -8 -8h-232v-199q-1 -7 -8 -8q-7 1 -8 8v432q1 7 8 8h304q7 -1 8 -8v0z" />
    <glyph glyph-name="f" unicode="F" horiz-adv-x="320" 
d="M320 408q-1 -7 -8 -8h-296v-209h232q7 0 8 -8q-1 -7 -8 -8h-232v-199q-1 -7 -8 -8q-7 1 -8 8v432q1 7 8 8h304q7 -1 8 -8v0z" />
    <glyph glyph-name="g" unicode="g" horiz-adv-x="448" 
d="M224 -32q-61 1 -111 30v0q-51 28 -81 79v0q-31 50 -32 115q1 65 32 116q31 50 81 79q51 28 110 29q51 -1 87 -17q36 -17 55 -34t19 -20q-1 -8 -8 -8q-3 0 -13 9q-15 14 -49 33t-91 21q-86 -2 -145 -59q-60 -57 -62 -148q3 -92 63 -149q60 -56 144 -58q61 1 107 30
q47 29 74 72q27 44 27 88v1h-200q-7 1 -8 8q1 7 8 8h208q9 -3 9 -10q-1 -70 -37 -118q-35 -48 -87 -72q-51 -25 -100 -25v0z" />
    <glyph glyph-name="g" unicode="G" horiz-adv-x="448" 
d="M224 -32q-61 1 -111 30v0q-51 28 -81 79v0q-31 50 -32 115q1 65 32 116q31 50 81 79q51 28 110 29q51 -1 87 -17q36 -17 55 -34t19 -20q-1 -8 -8 -8q-3 0 -13 9q-15 14 -49 33t-91 21q-86 -2 -145 -59q-60 -57 -62 -148q3 -92 63 -149q60 -56 144 -58q61 1 107 30
q47 29 74 72q27 44 27 88v1h-200q-7 1 -8 8q1 7 8 8h208q9 -3 9 -10q-1 -70 -37 -118q-35 -48 -87 -72q-51 -25 -100 -25v0z" />
    <glyph glyph-name="h" unicode="h" horiz-adv-x="384" 
d="M384 408v-432q-1 -7 -8 -8q-7 1 -8 8v233h-352v-233q-1 -7 -8 -8q-7 1 -8 8v432q1 7 8 8q7 -1 8 -8v-183h352v183q1 7 8 8q7 -1 8 -8v0z" />
    <glyph glyph-name="h" unicode="H" horiz-adv-x="384" 
d="M384 408v-432q-1 -7 -8 -8q-7 1 -8 8v233h-352v-233q-1 -7 -8 -8q-7 1 -8 8v432q1 7 8 8q7 -1 8 -8v-183h352v183q1 7 8 8q7 -1 8 -8v0z" />
    <glyph glyph-name="i" unicode="i" horiz-adv-x="320" 
d="M320 -24q-1 -7 -8 -8h-304q-7 1 -8 8q1 7 8 8h144v416h-144q-7 1 -8 8q1 7 8 8h304q7 -1 8 -8q-1 -7 -8 -8h-144v-416h144q7 -1 8 -8v0z" />
    <glyph glyph-name="i" unicode="I" horiz-adv-x="320" 
d="M320 -24q-1 -7 -8 -8h-304q-7 1 -8 8q1 7 8 8h144v416h-144q-7 1 -8 8q1 7 8 8h304q7 -1 8 -8q-1 -7 -8 -8h-144v-416h144q7 -1 8 -8v0z" />
    <glyph glyph-name="j" unicode="j" horiz-adv-x="320" 
d="M160 -32q-68 2 -113 47v0q-45 45 -47 113v56q1 7 8 8q7 -1 8 -8v-56q2 -61 42 -102q41 -40 102 -42q61 2 102 42q40 41 42 102v280q1 7 8 8q7 -1 8 -8v-280q-2 -68 -47 -113t-113 -47v0z" />
    <glyph glyph-name="j" unicode="J" horiz-adv-x="320" 
d="M160 -32q-68 2 -113 47v0q-45 45 -47 113v56q1 7 8 8q7 -1 8 -8v-56q2 -61 42 -102q41 -40 102 -42q61 2 102 42q40 41 42 102v280q1 7 8 8q7 -1 8 -8v-280q-2 -68 -47 -113t-113 -47v0z" />
    <glyph glyph-name="k" unicode="k" horiz-adv-x="320" 
d="M318 -19q4 -6 -1 -11q-2 -2 -6 -2t-6 3l-181 244l-108 -105v-134q-1 -7 -7 -8q-9 1 -9 8v432q1 7 7 8q7 -1 7 -8v-276l291 282q5 4 11 0q5 -6 0 -12l-180 -176l182 -245v0z" />
    <glyph glyph-name="k" unicode="K" horiz-adv-x="320" 
d="M318 -19q4 -6 -1 -11q-2 -2 -6 -2t-6 3l-181 244l-108 -105v-134q-1 -7 -7 -8q-9 1 -9 8v432q1 7 7 8q7 -1 7 -8v-276l291 282q5 4 11 0q5 -6 0 -12l-180 -176l182 -245v0z" />
    <glyph glyph-name="l" unicode="l" horiz-adv-x="320" 
d="M312 -32h-272q-7 1 -8 8v432q1 7 8 8q7 -1 8 -8v-424h264q7 -1 8 -8q-1 -7 -8 -8v0z" />
    <glyph glyph-name="l" unicode="L" horiz-adv-x="320" 
d="M312 -32h-272q-7 1 -8 8v432q1 7 8 8q7 -1 8 -8v-424h264q7 -1 8 -8q-1 -7 -8 -8v0z" />
    <glyph glyph-name="m" unicode="m" horiz-adv-x="448" 
d="M440 -32q-7 1 -8 7v407l-201 -291q-7 -6 -14 0l-201 291v-406q-1 -7 -8 -7t-8 7v432q0 6 6 8q5 1 9 -3l209 -303l209 303q4 4 9 3q6 -2 6 -8v-431q-1 -9 -8 -9v0z" />
    <glyph glyph-name="m" unicode="M" horiz-adv-x="448" 
d="M440 -32q-7 1 -8 7v407l-201 -291q-7 -6 -14 0l-201 291v-406q-1 -7 -8 -7t-8 7v432q0 6 6 8q5 1 9 -3l209 -303l209 303q4 4 9 3q6 -2 6 -8v-431q-1 -9 -8 -9v0z" />
    <glyph glyph-name="n" unicode="n" horiz-adv-x="384" 
d="M376 -32q-4 0 -6 3l-354 415v-410q-1 -7 -8 -8q-7 1 -8 8v432q0 5 5 7t9 -2l354 -415v410q1 7 8 8q7 -1 8 -8v-432q0 -5 -5 -8h-3v0z" />
    <glyph glyph-name="n" unicode="N" horiz-adv-x="384" 
d="M376 -32q-4 0 -6 3l-354 415v-410q-1 -7 -8 -8q-7 1 -8 8v432q0 5 5 7t9 -2l354 -415v410q1 7 8 8q7 -1 8 -8v-432q0 -5 -5 -8h-3v0z" />
    <glyph glyph-name="o" unicode="o" horiz-adv-x="448" 
d="M224 -32q-62 1 -113 31v0q-50 30 -80 80v0q-30 51 -31 113q1 62 31 113q30 50 80 80q51 30 113 31q62 -1 113 -31q50 -30 80 -80q30 -51 31 -113q-1 -62 -31 -113q-30 -50 -80 -80q-51 -30 -113 -31v0zM224 400q-88 -2 -147 -61v0q-59 -59 -61 -147q2 -88 61 -147
t147 -61q88 2 147 61t61 147q-2 88 -61 147t-147 61v0z" />
    <glyph glyph-name="o" unicode="O" horiz-adv-x="448" 
d="M224 -32q-62 1 -113 31v0q-50 30 -80 80v0q-30 51 -31 113q1 62 31 113q30 50 80 80q51 30 113 31q62 -1 113 -31q50 -30 80 -80q30 -51 31 -113q-1 -62 -31 -113q-30 -50 -80 -80q-51 -30 -113 -31v0zM224 400q-88 -2 -147 -61v0q-59 -59 -61 -147q2 -88 61 -147
t147 -61q88 2 147 61t61 147q-2 88 -61 147t-147 61v0z" />
    <glyph glyph-name="p" unicode="p" horiz-adv-x="320" 
d="M8 -32q-7 1 -8 8v432q1 7 8 8h176q58 -1 96 -40q39 -38 40 -96q-1 -58 -40 -96q-38 -39 -96 -40h-168v-168q-1 -7 -8 -8v0zM16 160h168q51 1 85 35t35 85q-1 51 -35 85t-85 35h-168v-240v0z" />
    <glyph glyph-name="p" unicode="P" horiz-adv-x="320" 
d="M8 -32q-7 1 -8 8v432q1 7 8 8h176q58 -1 96 -40q39 -38 40 -96q-1 -58 -40 -96q-38 -39 -96 -40h-168v-168q-1 -7 -8 -8v0zM16 160h168q51 1 85 35t35 85q-1 51 -35 85t-85 35h-168v-240v0z" />
    <glyph glyph-name="q" unicode="q" horiz-adv-x="448" 
d="M377 29q33 31 52 73v0q19 41 19 90q-1 62 -31 113q-29 50 -80 80q-50 30 -112 31q-62 -1 -112 -31q-51 -30 -81 -80q-30 -51 -30 -113t30 -113q30 -50 81 -80q50 -30 112 -31q82 2 141 50l69 -79q1 -3 5 -3q6 -1 8 8q0 3 -2 5l-69 80v0zM224 -16q-88 2 -147 61v0
q-59 59 -61 147q2 88 61 147t147 61q88 -2 147 -61t61 -147q0 -45 -18 -84q-17 -38 -47 -67l-129 148q-2 3 -6 3q-6 1 -8 -8q0 -3 2 -5l129 -149q-55 -45 -131 -46v0z" />
    <glyph glyph-name="q" unicode="Q" horiz-adv-x="448" 
d="M377 29q33 31 52 73v0q19 41 19 90q-1 62 -31 113q-29 50 -80 80q-50 30 -112 31q-62 -1 -112 -31q-51 -30 -81 -80q-30 -51 -30 -113t30 -113q30 -50 81 -80q50 -30 112 -31q82 2 141 50l69 -79q1 -3 5 -3q6 -1 8 8q0 3 -2 5l-69 80v0zM224 -16q-88 2 -147 61v0
q-59 59 -61 147q2 88 61 147t147 61q88 -2 147 -61t61 -147q0 -45 -18 -84q-17 -38 -47 -67l-129 148q-2 3 -6 3q-6 1 -8 -8q0 -3 2 -5l129 -149q-55 -45 -131 -46v0z" />
    <glyph glyph-name="r" unicode="r" horiz-adv-x="320" 
d="M201 160q51 5 84 41v0q34 35 35 87q-2 54 -38 90q-36 37 -90 38h-185q-6 -1 -7 -8v-432q1 -7 7 -8q6 1 7 8v183h169v0q0 -2 1 -3l119 -184q6 -4 8 -4t4 1q6 5 3 11l-117 180v0zM15 400h176q47 -1 79 -33t33 -79q-1 -48 -33 -80q-32 -31 -79 -33h-176v225v0z" />
    <glyph glyph-name="r" unicode="R" horiz-adv-x="320" 
d="M201 160q51 5 84 41v0q34 35 35 87q-2 54 -38 90q-36 37 -90 38h-185q-6 -1 -7 -8v-432q1 -7 7 -8q6 1 7 8v183h169v0q0 -2 1 -3l119 -184q6 -4 8 -4t4 1q6 5 3 11l-117 180v0zM15 400h176q47 -1 79 -33t33 -79q-1 -48 -33 -80q-32 -31 -79 -33h-176v225v0z" />
    <glyph glyph-name="s" unicode="s" horiz-adv-x="384" 
d="M212 -32q-77 0 -175 37q-6 4 -4 11q3 7 10 4q63 -25 133 -34q69 -9 116 15q35 19 42 60q7 39 -13 62q-19 24 -54 37q-35 14 -77 24v0q-44 11 -82 26t-60 42q-21 27 -14 73q8 42 45 67q70 45 224 6q6 -2 5 -9q-2 -7 -9 -6q-146 36 -211 -5q-19 -13 -28 -28q-8 -15 -10 -27
q-7 -40 13 -63q19 -23 54 -36q35 -14 77 -24v0q44 -11 82 -26q38 -16 60 -42q21 -27 14 -74q-9 -48 -50 -71q-34 -19 -88 -19v0z" />
    <glyph glyph-name="s" unicode="S" horiz-adv-x="384" 
d="M212 -32q-77 0 -175 37q-6 4 -4 11q3 7 10 4q63 -25 133 -34q69 -9 116 15q35 19 42 60q7 39 -13 62q-19 24 -54 37q-35 14 -77 24v0q-44 11 -82 26t-60 42q-21 27 -14 73q8 42 45 67q70 45 224 6q6 -2 5 -9q-2 -7 -9 -6q-146 36 -211 -5q-19 -13 -28 -28q-8 -15 -10 -27
q-7 -40 13 -63q19 -23 54 -36q35 -14 77 -24v0q44 -11 82 -26q38 -16 60 -42q21 -27 14 -74q-9 -48 -50 -71q-34 -19 -88 -19v0z" />
    <glyph glyph-name="t" unicode="t" horiz-adv-x="384" 
d="M384 408q-1 -7 -8 -8h-176v-424q-1 -7 -8 -8q-7 1 -8 8v424h-176q-7 1 -8 8q1 7 8 8h368q7 -1 8 -8v0z" />
    <glyph glyph-name="t" unicode="T" horiz-adv-x="384" 
d="M384 408q-1 -7 -8 -8h-176v-424q-1 -7 -8 -8q-7 1 -8 8v424h-176q-7 1 -8 8q1 7 8 8h368q7 -1 8 -8v0z" />
    <glyph glyph-name="u" unicode="u" horiz-adv-x="384" 
d="M192 -32q-81 2 -136 56v0q-54 55 -56 136v248q1 7 8 8q7 -1 8 -8v-248q2 -75 52 -124q49 -50 124 -52q75 2 124 52q50 49 52 124v248q1 7 8 8q7 -1 8 -8v-248q-2 -81 -56 -136q-55 -54 -136 -56v0z" />
    <glyph glyph-name="u" unicode="U" horiz-adv-x="384" 
d="M192 -32q-81 2 -136 56v0q-54 55 -56 136v248q1 7 8 8q7 -1 8 -8v-248q2 -75 52 -124q49 -50 124 -52q75 2 124 52q50 49 52 124v248q1 7 8 8q7 -1 8 -8v-248q-2 -81 -56 -136q-55 -54 -136 -56v0z" />
    <glyph glyph-name="v" unicode="v" horiz-adv-x="384" 
d="M192 -32q-5 0 -7 5l-184 432q-3 7 4 10t10 -4l177 -415l177 415q3 7 10 4t4 -10l-183 -432q-3 -5 -8 -5v0z" />
    <glyph glyph-name="v" unicode="V" horiz-adv-x="384" 
d="M192 -32q-5 0 -7 5l-184 432q-3 7 4 10t10 -4l177 -415l177 415q3 7 10 4t4 -10l-183 -432q-3 -5 -8 -5v0z" />
    <glyph glyph-name="w" unicode="w" horiz-adv-x="576" 
d="M416 -32v0v0q-1 0 0 0q-6 0 -8 6l-120 406l-120 -406q-2 -6 -8 -6q-5 0 -8 5l-152 432q-1 7 5 11q7 1 11 -5l143 -409l121 408q2 5 8 5t8 -5l120 -408l144 409q3 6 10 5q6 -3 5 -11l-151 -431q-3 -6 -8 -6v0z" />
    <glyph glyph-name="w" unicode="W" horiz-adv-x="576" 
d="M416 -32v0v0q-1 0 0 0q-6 0 -8 6l-120 406l-120 -406q-2 -6 -8 -6q-5 0 -8 5l-152 432q-1 7 5 11q7 1 11 -5l143 -409l121 408q2 5 8 5t8 -5l120 -408l144 409q3 6 10 5q6 -3 5 -11l-151 -431q-3 -6 -8 -6v0z" />
    <glyph glyph-name="x" unicode="x" horiz-adv-x="384" 
d="M382 -19q4 -6 -1 -11q-2 -2 -5 -2q-4 0 -6 3l-178 209l-178 -209q-2 -3 -6 -3q-3 0 -5 2q-5 5 -1 11l180 211l-180 211q-4 6 1 11q6 4 11 -1l178 -209l178 209q5 5 11 1q5 -5 1 -11l-180 -211l180 -211v0z" />
    <glyph glyph-name="x" unicode="X" horiz-adv-x="384" 
d="M382 -19q4 -6 -1 -11q-2 -2 -5 -2q-4 0 -6 3l-178 209l-178 -209q-2 -3 -6 -3q-3 0 -5 2q-5 5 -1 11l180 211l-180 211q-4 6 1 11q6 4 11 -1l178 -209l178 209q5 5 11 1q5 -5 1 -11l-180 -211l180 -211v0z" />
    <glyph glyph-name="y" unicode="y" horiz-adv-x="384" 
d="M382 403l-182 -246v-181q-1 -7 -8 -8q-7 1 -8 8v181l-182 246q-4 7 1 11q7 4 11 -1l178 -240l178 240q5 5 11 1q5 -4 1 -11v0z" />
    <glyph glyph-name="y" unicode="Y" horiz-adv-x="384" 
d="M382 403l-182 -246v-181q-1 -7 -8 -8q-7 1 -8 8v181l-182 246q-4 7 1 11q7 4 11 -1l178 -240l178 240q5 5 11 1q5 -4 1 -11v0z" />
    <glyph glyph-name="z" unicode="z" horiz-adv-x="384" 
d="M376 -32h-368q-5 0 -7 5q-2 4 1 8l357 419h-351q-7 1 -8 8q1 7 8 8h368q5 0 7 -5q2 -4 -1 -8l-357 -419h351q7 -1 8 -8q-1 -7 -8 -8v0z" />
    <glyph glyph-name="z" unicode="Z" horiz-adv-x="384" 
d="M376 -32h-368q-5 0 -7 5q-2 4 1 8l357 419h-351q-7 1 -8 8q1 7 8 8h368q5 0 7 -5q2 -4 -1 -8l-357 -419h351q7 -1 8 -8q-1 -7 -8 -8v0z" />
    <glyph glyph-name="bracket-square" unicode="[" horiz-adv-x="192" 
d="M40 400h80q7 1 8 8q-1 7 -8 8h-80q-17 0 -28 -12q-12 -11 -12 -28v-368q0 -17 12 -28q11 -12 28 -12h80q7 1 8 8q-1 7 -8 8h-80q-22 2 -24 24v368q2 22 24 24v0z" />
    <glyph glyph-name="slash-back" unicode="\" horiz-adv-x="320" 
d="M316 -63q-2 -1 -4 -1q-4 0 -7 4l-304 496q-3 6 3 11q6 3 11 -3l304 -496q3 -6 -3 -11v0z" />
    <glyph glyph-name="bracket-square-right" unicode="]" horiz-adv-x="192" 
d="M176 376v-368q-2 -22 -24 -24h-80q-7 -1 -8 -8q1 -7 8 -8h80q17 0 28 12q12 11 12 28v368q0 17 -12 28q-11 12 -28 12h-80q-7 -1 -8 -8q1 -7 8 -8h80q22 -2 24 -24v0z" />
    <glyph glyph-name="accent-grave" unicode="`" horiz-adv-x="192" 
d="M95 432q11 0 20 -5q18 -11 22 -31l23 -132q1 -16 -13 -23q-4 -1 -7 -1q-12 0 -18 10l-68 115q-10 19 -3 38q5 13 17 21t27 8v0zM95 448q-20 0 -36 -11v0q-16 -10 -22 -28q-11 -27 3 -52l68 -115q11 -18 32 -18q6 0 12 2q26 12 23 40l-22 132q-5 28 -30 42q-13 8 -28 8v0
v0z" />
    <glyph glyph-name="bracket-curly" unicode="{" horiz-adv-x="256" 
d="M80 295v49q1 24 16 40q16 15 40 16h48q7 1 8 8q-1 7 -8 8h-48q-31 -1 -51 -21t-21 -51v-48q0 -32 -16 -57q-16 -26 -44 -40q-4 -2 -4 -7t4 -7q28 -14 44 -40q16 -25 16 -57v-48q1 -31 21 -51t51 -21h48q7 1 8 8q-1 7 -8 8h-48q-24 1 -40 16q-15 16 -16 40v48q0 33 -15 60
t-41 44q26 17 41 44t15 59v0z" />
    <glyph glyph-name="pipe" unicode="|" horiz-adv-x="64" 
d="M40 440v-496q-1 -7 -8 -8q-7 1 -8 8v496q1 7 8 8q7 -1 8 -8v0z" />
    <glyph glyph-name="bracket-curly-right" unicode="}" horiz-adv-x="256" 
d="M232 192q-26 -17 -41 -44v0q-15 -27 -15 -60v-48q-1 -24 -16 -40q-16 -15 -40 -16h-48q-7 -1 -8 -8q1 -7 8 -8h48q31 1 51 21t21 51v48q0 32 16 57q16 26 44 40q4 2 4 7t-4 7q-28 14 -44 40q-16 25 -16 56v49q-1 31 -21 51t-51 21h-48q-7 -1 -8 -8q1 -7 8 -8h48
q24 -1 40 -16q15 -16 16 -40v-48q0 -33 15 -60t41 -44v0z" />
    <glyph glyph-name="tilde" unicode="&#xf69f;" horiz-adv-x="448" 
d="M448 288v-84q-1 -46 -32 -76q-30 -31 -76 -32q-58 1 -91 45l-65 92q-29 38 -76 39q-39 -1 -65 -27t-27 -65v-84q-1 -7 -8 -8q-7 1 -8 8v84q1 46 32 76q30 31 76 32q55 -1 89 -45l65 -92q29 -38 76 -39q40 1 67 27q26 26 27 65v84q1 7 8 8q7 -1 8 -8v0z" />
    <glyph glyph-name="tilde" unicode="~" horiz-adv-x="448" 
d="M448 288v-84q-1 -46 -32 -76q-30 -31 -76 -32q-58 1 -91 45l-65 92q-29 38 -76 39q-39 -1 -65 -27t-27 -65v-84q-1 -7 -8 -8q-7 1 -8 8v84q1 46 32 76q30 31 76 32q55 -1 89 -45l65 -92q29 -38 76 -39q40 1 67 27q26 26 27 65v84q1 7 8 8q7 -1 8 -8v0z" />
    <glyph glyph-name="caravan-simple" unicode="&#xe000;" horiz-adv-x="640" 
d="M224 320q14 0 23 -9v0q9 -9 9 -23v-64q0 -14 -9 -23t-23 -9h-128q-14 0 -23 9t-9 23v64q0 14 9 23t23 9h128v0zM224 304h-128q-15 -1 -16 -16v-64q1 -15 16 -16h128q15 1 16 16v64q-1 15 -16 16v0zM320 288q0 14 9 23v0q9 9 23 9h64q14 0 23 -9t9 -23v-64q0 -14 -9 -23
t-23 -9h-64q-14 0 -23 9t-9 23v64v0zM336 288v-64q1 -15 16 -16h64q15 1 16 16v64q-1 15 -16 16h-64q-15 -1 -16 -16v0zM96 32h-16q-34 1 -57 23q-22 23 -23 57v224q1 34 23 57q23 22 57 23h336q68 -2 113 -47t47 -113v-208h56q7 -1 8 -8q-1 -7 -8 -8h-344q-1 -41 -28 -68
t-68 -28q-41 1 -68 28t-28 68v0zM16 336v-224q1 -27 19 -45t45 -19h17q7 35 33 57t62 23q36 -1 62 -23t33 -57h273v208q-2 61 -42 102q-41 40 -102 42h-336q-27 -1 -45 -19t-19 -45v0zM192 112q-34 -1 -57 -23v0q-22 -23 -23 -57q1 -34 23 -57q23 -22 57 -23q34 1 57 23
q22 23 23 57q-1 34 -23 57q-23 22 -57 23v0z" />
    <glyph glyph-name="cat-space" unicode="&#xe001;" horiz-adv-x="640" 
d="M440 304q-15 -2 -16 -15q2 -14 15 -16q15 1 17 15q-1 15 -16 16v0zM503 288q2 -15 15 -16q15 1 18 16q-1 15 -16 16q-15 -1 -17 -16v0zM480 448q-68 -2 -113 -47v0q-45 -45 -47 -112q0 -6 1 -11q0 -2 1 -5h-26q-63 -1 -111 -34q-49 -33 -73 -88v97q-1 44 -30 74
q-30 29 -74 30q-7 -1 -8 -8q1 -7 8 -8q37 -1 62 -26t26 -62v-224q1 -37 26 -62q25 -24 62 -25h176q7 1 8 7v32q0 17 -12 28q-11 12 -28 12h-21l101 65v-113q0 -14 9 -22q9 -9 23 -9h32q14 0 23 9t9 22v162q59 10 97 54q38 43 39 104q-2 68 -47 113t-113 47v0zM480 432
q46 -1 82 -26l-55 -54h-52l-55 54q33 25 80 26v0zM560 382v-110q-1 -34 -23 -56q-23 -22 -57 -23q-34 1 -57 23q-22 23 -23 56v110l45 -44q2 -2 6 -2h58q4 0 6 2l45 44v0zM488 -32q-1 -15 -16 -16h-32q-15 1 -16 16v128q-2 11 -12 7l-124 -80v9q-1 41 -28 68t-68 28
q-7 -1 -8 -8q1 -7 8 -8q34 -1 57 -23q22 -23 23 -57v-24q1 -7 8 -8h48q22 -2 24 -24v-24h-168q-31 1 -51 21t-21 51v48q2 78 54 130t130 54h27q13 -56 55 -91q43 -36 102 -37h4q2 1 4 1v-161v0zM480 144q-61 2 -102 42v0q-40 41 -42 102q2 65 48 106v-122q1 -41 28 -68
t68 -28q41 1 68 28t28 68v123q46 -42 48 -107q-2 -61 -42 -102q-41 -40 -102 -42v0zM168 376h48v-48q1 -7 8 -7t8 7v48h48q7 1 8 8q-1 7 -8 8h-48v48q-1 7 -8 8q-7 -1 -8 -8v-48h-48q-7 -1 -8 -7q1 -7 8 -9v0z" />
    <glyph glyph-name="coffee-pot" unicode="&#xe002;" 
d="M432 270l48 146h-408q-31 -1 -51 -21t-21 -51v-112q1 -7 8 -8q7 1 8 8v112q1 24 16 40q16 15 40 16h29l44 -130q-38 -30 -59 -73q-22 -43 -22 -94q0 -38 13 -65q13 -28 37 -52q17 -18 41 -18h266q24 0 41 18q24 24 37 51q13 28 13 66q0 51 -22 94q-21 43 -58 73v0z
M118 400h340l-43 -128h-254l-43 128v0zM153 256h271q53 -45 68 -112h-408q15 66 69 112v0zM451 -3q-12 -13 -30 -13h-266q-17 0 -30 13q-20 21 -33 46q-12 25 -12 60q0 13 2 25h412q2 -12 2 -25q0 -36 -12 -60q-13 -25 -33 -46v0z" />
    <glyph glyph-name="comet" unicode="&#xe003;" 
d="M505 441q-10 10 -24 6l-64 -20q-47 -15 -110 -37l-3 10q-3 11 -13 15t-20 -1q-23 -11 -60 -33q-38 -21 -79 -49q-40 -28 -72 -58l-2 -2q-58 -61 -58 -139q0 -79 58 -139q57 -57 139 -58q81 1 139 58l3 3q29 31 57 72q27 40 49 78q22 37 33 60q5 10 1 20t-15 13l-10 3
q21 59 36 106t21 69q4 13 -6 23v0zM496 422q-7 -22 -22 -71v0q-16 -49 -38 -110l-2 -8l26 -8q3 -1 4 -4q2 -4 0 -7q-11 -22 -33 -59q-21 -37 -48 -77t-55 -70l-3 -3q-53 -52 -128 -53q-74 1 -127 53q-53 56 -53 128t54 129l2 1q32 30 73 58t78 49t55 30q2 1 4 1q1 0 2 -1
q4 -1 5 -4l8 -26l8 2q64 23 113 39q50 16 67 21q4 1 8 -2q3 -3 2 -8v0zM301 179l-62 9l-27 56q-7 12 -20 12q-14 0 -20 -12l-28 -56l-61 -9q-13 -2 -18 -15q-4 -13 6 -23l44 -43l-10 -62q-2 -13 9 -22q6 -4 12 -4t11 3l55 29l55 -29q12 -6 23 2t9 21l-10 62l44 43
q10 10 6 23q-5 13 -18 15v0zM302 152l-50 -49l11 -69q1 -4 -2 -6q-3 -3 -7 -1l-62 33l-63 -33q-4 -2 -6 0q-3 1 -3 7l12 69l-50 49q-3 3 -2 7t5 4l70 11l31 63q2 3 6 3t6 -3l31 -63l69 -11q4 0 6 -4q1 -4 -2 -7v0z" />
    <glyph glyph-name="fan-table" unicode="&#xe004;" horiz-adv-x="448" 
d="M224 236q-11 -1 -12 -12q1 -11 12 -12q11 1 12 12q-1 11 -12 12v0zM381 178q9 8 9 20q0 30 -15 54q-16 24 -43 37q-24 11 -50 9q-25 -2 -47 -17l-33 86q-4 11 -16 16q-11 4 -21 -2q-36 -21 -47 -61q-8 -31 4 -64q13 -33 49 -51l-59 -72q-8 -12 -6 -21q3 -12 13 -18
q24 -14 50 -13q26 0 49 13q23 12 38 36q15 27 12 57l92 -15q12 -2 21 6v0zM249 207l2 -12q6 -30 -9 -57q-19 -30 -51 -39q-33 -8 -64 9q-4 2 -5 7t2 8l73 89l-11 4q-38 16 -49 46q-10 31 -3 54q9 33 39 51q2 2 5 2q1 0 3 -1q5 -2 6 -6l41 -106l8 7q19 16 43 19t47 -7
q22 -11 35 -31t13 -45q0 -5 -3 -8q-4 -3 -9 -2l-113 18v0zM448 224q-1 62 -31 113v0q-30 50 -80 80v0q-51 30 -113 31q-62 -1 -113 -31q-50 -30 -80 -80q-30 -51 -31 -113q2 -93 63 -155q61 -63 153 -69v-48h-144q-7 -1 -8 -8q1 -7 8 -8h304q7 1 8 8q-1 7 -8 8h-144v48
q92 6 153 69q61 62 63 155v0zM224 16q-88 2 -147 61v0q-59 59 -61 147q2 88 61 147t147 61q88 -2 147 -61t61 -147q-2 -88 -61 -147t-147 -61v0z" />
    <glyph glyph-name="faucet" unicode="&#xe005;" 
d="M352 192h-39q-33 28 -81 31v1v0v46l134 -14h2q15 2 16 17v62q-1 16 -16 17h-2l-134 -15v39q-1 7 -8 8q-7 -1 -8 -8v-39l-134 15h-2q-15 -1 -16 -17v-62q1 -16 16 -17h2l134 14v-46v0v-1q-48 -3 -81 -31h-103q-14 0 -23 -9t-9 -23v-64q0 -14 9 -23t23 -9h77q16 -29 46 -46
q30 -18 69 -18t69 18q30 17 46 46h13q14 0 23 -9t9 -23t9 -23t23 -9h64q13 0 22 9q10 8 10 22q-1 68 -46 114q-46 45 -114 47v0zM368 336v-64l-136 14v35l136 15v0zM80 273v63l136 -15v-35l-136 -13v0zM480 16h-64q-7 0 -11 5q-5 5 -5 11q0 20 -14 34q-15 14 -34 14h-22
l-5 -8q-14 -26 -41 -41t-60 -15t-60 15t-41 41l-5 8h-86q-15 1 -16 16v64q1 15 16 16h109l4 4q33 28 79 28t79 -28l5 -4h44q60 -1 102 -43q42 -43 42 -102q-2 -14 -16 -15v0z" />
    <glyph glyph-name="faucet-drip" unicode="&#x1f6b0;" 
d="M441 28q-4 -6 -15 -25v0q-11 -19 -13 -32q1 -15 10 -25q10 -10 25 -10t24 10q10 10 11 25q-2 13 -13 32t-15 26q-7 6 -14 -1v0zM448 -48q-17 2 -19 19q1 5 6 16q6 11 13 22q7 -11 13 -22q5 -11 6 -16q-2 -17 -19 -19v0zM352 256h-39q-33 28 -81 31v1v0v46l134 -14h2
q15 2 16 17v62q-1 16 -16 17h-2v0l-134 -15v39q-1 7 -8 8q-7 -1 -8 -8v-39l-134 15v0h-2q-15 -1 -16 -17v-62q1 -16 16 -17h2l134 14v-46v0v-1q-48 -3 -81 -31h-103q-14 0 -23 -9t-9 -23v-64q0 -14 9 -23t23 -9h77q16 -29 46 -46q30 -18 69 -18t69 18q30 17 46 46h13
q14 0 23 -9t9 -23t9 -23t23 -9h64q13 0 22 9q10 8 10 22q-1 68 -46 114q-46 45 -114 47v0zM232 385l136 15v-64l-136 14v35v0zM216 350l-136 -13v63l136 -15v-35v0zM480 80h-64q-7 0 -11 5q-5 5 -5 11q0 20 -14 34q-15 14 -34 14h-22l-5 -8q-14 -26 -41 -41t-60 -15t-60 15
t-41 41l-5 8h-86q-15 1 -16 16v64q1 15 16 16h109l4 4q33 28 79 28t79 -28l5 -4h44q60 -1 102 -43q42 -43 42 -102q-2 -14 -16 -15v0z" />
    <glyph glyph-name="faucet-drip" unicode="&#xe006;" 
d="M441 28q-4 -6 -15 -25v0q-11 -19 -13 -32q1 -15 10 -25q10 -10 25 -10t24 10q10 10 11 25q-2 13 -13 32t-15 26q-7 6 -14 -1v0zM448 -48q-17 2 -19 19q1 5 6 16q6 11 13 22q7 -11 13 -22q5 -11 6 -16q-2 -17 -19 -19v0zM352 256h-39q-33 28 -81 31v1v0v46l134 -14h2
q15 2 16 17v62q-1 16 -16 17h-2v0l-134 -15v39q-1 7 -8 8q-7 -1 -8 -8v-39l-134 15v0h-2q-15 -1 -16 -17v-62q1 -16 16 -17h2l134 14v-46v0v-1q-48 -3 -81 -31h-103q-14 0 -23 -9t-9 -23v-64q0 -14 9 -23t23 -9h77q16 -29 46 -46q30 -18 69 -18t69 18q30 17 46 46h13
q14 0 23 -9t9 -23t9 -23t23 -9h64q13 0 22 9q10 8 10 22q-1 68 -46 114q-46 45 -114 47v0zM232 385l136 15v-64l-136 14v35v0zM216 350l-136 -13v63l136 -15v-35v0zM480 80h-64q-7 0 -11 5q-5 5 -5 11q0 20 -14 34q-15 14 -34 14h-22l-5 -8q-14 -26 -41 -41t-60 -15t-60 15
t-41 41l-5 8h-86q-15 1 -16 16v64q1 15 16 16h109l4 4q33 28 79 28t79 -28l5 -4h44q60 -1 102 -43q42 -43 42 -102q-2 -14 -16 -15v0z" />
    <glyph glyph-name="galaxy" unicode="&#xe008;" 
d="M507 179q-14 55 -55 94v0q-41 39 -96 51q-19 4 -39 4q-19 0 -37 -4q18 46 64 67q20 10 18 32q-5 21 -26 24q-10 1 -20 1q-24 0 -47 -5q-55 -14 -94 -55q-39 -40 -51 -96q-8 -38 -1 -76q-45 18 -66 64q-8 18 -27 18q-25 -2 -29 -26q-3 -33 4 -67q14 -55 55 -94
q40 -39 96 -51q19 -4 39 -4q19 0 37 4q-18 -46 -64 -67q-20 -10 -18 -32q5 -21 26 -24q10 -1 20 -1q24 0 47 5q55 14 94 55q39 40 51 96q8 38 1 76q46 -18 66 -64q8 -17 27 -18q25 2 29 26q3 33 -4 67v0zM495 114q-2 -12 -13 -12q-8 0 -12 8q-14 33 -42 54q-27 21 -62 26
q16 -47 6 -95q-11 -51 -46 -88q-36 -37 -87 -50q-22 -5 -43 -5q-9 0 -18 1q-10 2 -12 11q-1 9 8 14q33 14 54 42q21 27 26 62q-28 -10 -59 -10q-18 0 -36 4q-51 11 -88 46q-37 36 -50 87q-7 30 -4 61q2 12 13 12q8 0 12 -8q14 -33 42 -54q27 -21 62 -26q-16 46 -6 95
q11 51 46 88q36 37 87 50q21 5 43 5q9 0 18 -1q10 -2 12 -11q1 -9 -8 -14q-33 -14 -54 -42q-21 -27 -26 -62q28 10 59 10q18 0 36 -4q51 -11 88 -46q37 -36 50 -87q7 -30 4 -61v0zM255 241q-20 -1 -33 -15v0q-14 -14 -15 -34q1 -20 14 -34q14 -13 34 -14q21 1 34 14
q14 14 15 34q0 20 -14 34t-35 15v0zM255 160q-13 0 -22 9v0q-9 9 -10 23q0 14 9 23t22 9q14 0 22 -9q9 -9 9 -23q-1 -29 -30 -32v0z" />
    <glyph glyph-name="garage" unicode="&#xe009;" horiz-adv-x="640" 
d="M329 428q-9 3 -18 0l-270 -111q-24 -10 -25 -37v-335q-1 -8 -8 -8t-8 8v335q2 36 35 52l270 110q15 6 30 0l270 -110q33 -16 35 -52v-335q-1 -8 -8 -8t-8 8v335q-1 27 -25 37l-270 111v0zM111 112v-167q0 -8 -8 -8q-7 0 -8 8v288q0 10 7 17t17 7h401q10 0 17 -7t7 -17
v-288q-1 -8 -8 -8t-8 8v167h-417v0zM119 241q-7 -1 -8 -8v-105h417v105q-1 7 -8 8h-401v0zM376 32q7 -1 8 -8q-1 -7 -8 -8h-113q-7 1 -8 8q1 7 8 8h113v0z" />
    <glyph glyph-name="garage-car" unicode="&#xe00a;" horiz-adv-x="640" 
d="M329 428q-9 3 -18 0l-270 -111q-24 -10 -25 -37v-335q-1 -8 -8 -8t-8 8v335q2 36 35 52l270 110q15 6 30 0l270 -110q33 -16 35 -52v-335q-1 -8 -8 -8t-8 8v335q-1 27 -25 37l-270 111v0zM119 241q-7 -1 -8 -8v-288q0 -8 -8 -8q-7 0 -8 8v288q0 10 7 17t17 7h401
q10 0 17 -7t7 -17v-288q-1 -8 -8 -8t-8 8v288q-1 7 -8 8h-401v0zM207 48q2 15 16 16q15 -1 16 -16q-1 -15 -16 -16q-14 1 -16 16v0zM432 48q-1 -15 -16 -16q-15 1 -16 16q1 15 16 16q15 -1 16 -16v0zM194 110l22 70q10 27 38 28h132q27 -1 38 -28l23 -70q31 -12 33 -46v-120
q-1 -7 -8 -8q-7 1 -8 8v40h-289v-40q0 -7 -8 -8q-7 1 -8 8v120q0 16 10 29q10 12 25 17v0v0zM211 112h217l-19 63q-7 16 -23 17h-132q-17 -1 -22 -17l-21 -63v0zM207 96q-13 0 -22 -9v0q-9 -9 -10 -23v-64h289v64q0 14 -9 23t-23 9h-225v0z" />
    <glyph glyph-name="garage-open" unicode="&#xe00b;" horiz-adv-x="640" 
d="M41 317q-24 -10 -25 -37v-335q-1 -8 -8 -8t-8 8v335q2 36 35 52l270 110q15 6 30 0l270 -110q33 -16 35 -52v-335q-1 -8 -8 -8t-8 8v335q-1 27 -25 37l-270 111q-9 3 -18 0l-270 -111v0zM112 160v-215q-1 -8 -8 -8t-8 8v288q0 10 7 17t17 7h400q10 0 17 -7t7 -17v-288
q-1 -8 -8 -8t-8 8v215h-416v0zM112 176h416v57q-1 7 -8 8h-400q-7 -1 -8 -8v-57v0zM208 48q1 15 16 16q15 -1 16 -16q-1 -15 -16 -16q-15 1 -16 16v0zM432 48q-1 -15 -16 -16q-15 1 -16 16q1 15 16 16q15 -1 16 -16v0zM216 128l-5 -16h217l-4 16h17l6 -18q31 -12 33 -46
v-120q-1 -7 -8 -8q-7 1 -8 8v40h-289v-40q0 -7 -8 -8q-7 1 -8 8v120q0 16 10 29q10 12 25 17l5 18h17v0zM208 96q-14 0 -23 -9v0q-9 -9 -9 -23v-64h288v64q0 14 -9 23t-23 9h-224v0z" />
    <glyph glyph-name="heat" unicode="&#xe00c;" horiz-adv-x="448" 
d="M64 278v66q-1 7 -8 8q-7 -1 -8 -8v-66q1 -80 50 -143q45 -59 46 -134v-25q1 -7 8 -8q7 1 8 8v25q-1 80 -50 144q-45 59 -46 133v0zM220 188q-36 54 -36 120v100q-1 7 -8 8q-7 -1 -8 -8v-100q0 -70 39 -129l21 -31q36 -54 36 -120v-52q1 -7 8 -8q7 1 8 8v52q0 70 -39 129
l-21 31v0zM366 145q-45 59 -46 133v66q-1 7 -8 8q-7 -1 -8 -8v-66q1 -80 50 -143q45 -59 46 -134v-25q1 -7 8 -8q7 1 8 8v25q-1 80 -50 144v0z" />
    <glyph glyph-name="house-chimney-window" unicode="&#xe00d;" horiz-adv-x="576" 
d="M336 264q22 -2 24 -24v-96q-2 -22 -24 -24h-96q-22 2 -24 24v96q2 22 24 24h96v0zM232 144q1 -7 8 -8h96q7 1 8 8v96q-1 7 -8 8h-96q-7 -1 -8 -8v-96v0zM283 446q5 4 10 0l91 -80v26q2 22 24 24h80q22 -2 24 -24v-140l61 -54q6 -5 0 -11q-4 -6 -10 0l-51 44v-231
q-1 -27 -19 -45t-45 -19h-320q-27 1 -45 19t-19 45v231l-51 -44q-6 -6 -11 0q-4 6 1 11l280 248v0zM384 344v0l-96 85l-208 -184v-245q1 -20 14 -34q14 -13 34 -14h320q20 1 34 14q13 14 14 34v245l-112 100v-1v0zM400 392v-41l96 -85v126q-1 7 -8 8h-80q-7 -1 -8 -8v0v0z
" />
    <glyph glyph-name="house-day" unicode="&#xe00e;" horiz-adv-x="640" 
d="M161 440q5 8 14 8t14 -8l32 -58l62 19q10 2 16 -4q6 -7 4 -16l-20 -69q-3 -7 -10 -6q-7 3 -6 10l21 69l-69 -20q-6 -2 -9 3l-35 64l-34 -64q-3 -5 -9 -3l-69 20l20 -69q2 -6 -3 -9l-65 -34l65 -35q5 -3 3 -8l-20 -70l69 21q7 1 10 -6q1 -6 -6 -10l-69 -20q-9 -3 -16 4
q-6 6 -4 15l19 63l-58 31q-8 6 -8 15t8 14l58 31l-19 63q-2 9 4 16q7 6 16 4l63 -19l31 58v0zM118 274q1 24 17 39v0q15 16 39 16t39 -16q16 -15 17 -39q-1 -24 -17 -40q-15 -15 -39 -16q-24 1 -39 17q-16 15 -17 39v0zM174 234q16 1 28 12v0q11 11 12 28q-1 17 -12 28
q-12 11 -28 11q-17 0 -28 -11t-12 -28q1 -17 12 -28t28 -12v0zM336 153q0 10 7 17v0q7 7 17 7h80q10 0 17 -7t7 -17v-81q-2 -22 -24 -24h-80q-22 2 -24 24v81v0zM360 161q-7 -1 -8 -8v-81q1 -7 8 -8h80q7 1 8 8v81q-1 7 -8 8h-80v0zM637 150q3 -3 3 -6t-2 -5q-5 -5 -11 -1
l-51 44v-190q-1 -24 -16 -40q-16 -15 -40 -16h-240q-24 1 -40 16q-15 16 -16 40v190l-51 -44q-6 -4 -11 1q-2 2 -2 6q0 3 3 5l232 200q5 4 10 0l232 -200v0zM560 195l-160 138l-160 -138v-203q0 -17 12 -28q11 -12 28 -12h240q17 0 28 12q12 11 12 28v203v0z" />
    <glyph glyph-name="house-person-leave" unicode="&#xe00f;" horiz-adv-x="640" 
d="M290 48h-187q-21 2 -23 23v215l159 143l103 -92q4 -3 9 -1v1q7 5 2 12l-109 97q-5 4 -10 0l-231 -207q-5 -7 -1 -12q5 -5 11 -1l51 45v-199q0 -17 12 -28q11 -11 27 -11h186q4 0 6 2v1h1q4 3 2 8q-2 4 -8 4v0zM143 265q-21 -2 -23 -24v-64q2 -22 23 -23h64q22 2 23 23v63
q-2 22 -23 24h-64v1zM215 240v-64q-1 -7 -8 -8h-64q-7 1 -8 8v64q1 7 8 8h64q8 -1 8 -8v0zM458 54q-7 2 -10 -5l-6 -15q-5 -11 -12 -18l-56 -58q-16 -12 -31 1q-13 16 -1 32l48 48q10 11 15 24l13 31q2 7 -5 11q-7 1 -10 -5l-13 -31q-4 -10 -11 -18l-48 -49q-11 -12 -11 -27
q0 -16 11 -27q12 -12 28 -12q14 0 26 11l57 57q10 10 15 24l6 15q3 7 -5 11v0zM523 345q22 0 37 15v0q15 15 15 37q0 21 -15 36q-14 14 -37 15q-22 -1 -37 -15q-14 -15 -15 -37q1 -22 16 -36q15 -15 36 -15v0zM523 433q15 -1 26 -11v0q10 -10 10 -24q0 -15 -10 -26
q-11 -10 -26 -10t-25 10q-10 11 -11 26q1 14 11 24t25 11v0zM619 213v0v0v0l-20 10l-8 25q-13 36 -41 58q-29 21 -66 22h-1q-23 0 -41 -5q-18 -6 -39 -15l-12 -5q-35 -15 -53 -49l-6 -14q-7 -15 -2 -29q5 -15 19 -23q15 -7 30 -2t22 19l7 14q4 7 12 11l11 4l-11 -44
q-8 -36 16 -65l58 -64q10 -10 13 -23l17 -72q5 -16 18 -24q10 -6 20 -6q5 0 10 1q16 5 24 18q8 14 4 30l-21 87q-5 17 -17 31l-41 45l9 38q11 -21 31 -32l23 -12q15 -7 30 -2t22 20t2 30t-19 23v0zM622 167q-11 -18 -31 -11l-22 12q-20 10 -27 32l-5 16q-3 6 -8 5
q-6 0 -8 -6l-16 -67q-1 -4 1 -7l44 -49q10 -10 13 -24l22 -87q3 -21 -17 -28q-21 -3 -28 17l-18 71q-4 17 -16 31l-58 64q-19 22 -13 50l15 60q1 9 -8 10q-2 -1 -15 -6q-12 -5 -14 -5q-13 -6 -20 -19l-6 -14q-11 -18 -31 -10q-17 11 -10 31l7 14q14 28 44 41q4 2 7 3
q26 11 43 16q16 5 37 5q32 -1 56 -19q25 -19 35 -50l10 -29q1 -3 4 -4l22 -12q18 -11 11 -31v0z" />
    <glyph glyph-name="house-night" unicode="&#xe010;" horiz-adv-x="640" 
d="M148 442q5 -2 4 -8v0q0 -5 -6 -8q-19 -9 -30 -26q-12 -18 -12 -40q1 -31 21 -51t51 -21q11 0 21 3q6 1 10 -2q4 -4 2 -9q-15 -26 -40 -41q-26 -15 -57 -15q-48 1 -79 33q-32 31 -33 79q1 48 33 79q31 32 79 33q19 0 36 -6v0v0zM88 360q2 46 36 71q-6 1 -12 1
q-41 -1 -68 -28t-28 -68q1 -41 28 -68t68 -28q44 1 72 32h-8q-37 1 -62 26t-26 62v0zM336 152q2 22 24 24h80q22 -2 24 -24v-80q-2 -22 -24 -24h-80q-22 2 -24 24v80v0zM360 160q-7 -1 -8 -8v-80q1 -7 8 -8h80q7 1 8 8v80q-1 7 -8 8h-80v0zM637 150q5 -5 1 -11q-5 -5 -11 -1
l-51 44v-190q-1 -24 -16 -40q-16 -15 -40 -16h-240q-24 1 -40 16q-15 16 -16 40v190l-51 -44q-6 -4 -11 1q-4 6 1 11l232 200q5 4 10 0l232 -200v0zM560 195l-160 138l-161 -138v-203q1 -17 12 -28q12 -12 28 -12h241q17 0 28 12q12 11 12 28v203v0zM256 448q7 -1 8 -8v-48
h48q7 -1 8 -8q-1 -7 -8 -8h-48v-48q-1 -7 -8 -8q-7 1 -8 8v48h-48q-7 1 -8 8q1 7 8 8h48v48q1 7 8 8v0zM96 128q7 -1 8 -8v-48h48q7 -1 8 -8q-1 -7 -8 -8h-48v-48q-1 -7 -8 -8q-7 1 -8 8v48h-48q-7 1 -8 8q1 7 8 8h48v48q1 7 8 8v0z" />
    <glyph glyph-name="house-person-return" unicode="&#xe011;" horiz-adv-x="640" 
d="M436 345q22 0 37 15v0q14 15 15 37q-1 22 -15 37q-15 14 -37 15q-22 -1 -37 -15q-14 -15 -15 -37q1 -23 15 -37q15 -15 37 -15v0zM436 433q15 -1 25 -11v0q11 -10 11 -24q0 -15 -11 -26q-10 -10 -25 -10t-25 10q-11 11 -11 26q0 14 11 24q10 10 25 11v0zM312 49h-208
q-22 2 -24 24v213l160 143l111 -99q6 -4 10 0q5 6 0 12l-116 104q-5 4 -10 0l-232 -208q-5 -5 -1 -11q5 -5 11 -1l51 45v-199q0 -17 12 -28q11 -12 28 -12h208q7 1 8 8q-1 8 -8 9v0zM540 190l-11 44l11 -4q8 -4 12 -11l7 -14q7 -14 22 -20q15 -4 30 3q14 8 19 22q5 15 -2 30
l-6 14q-18 34 -53 49l-12 5q-21 9 -39 15q-18 5 -41 5h-1q-37 -1 -66 -22q-28 -22 -41 -58l-8 -25l-20 -10v0v0q-14 -8 -19 -23t1 -30q7 -15 23 -20q14 -5 29 2l23 12q21 11 31 32l9 -38l-41 -45q-12 -14 -16 -31l-22 -87q-4 -16 4 -30q9 -13 24 -18q5 -1 10 -1q10 0 20 6
q14 8 18 24l17 72q4 13 13 23l58 64q25 29 17 65v0zM454 72q-12 -13 -16 -31l-18 -71q-7 -20 -28 -17q-20 7 -17 28l22 87q3 14 12 24l45 49q2 3 1 7l-16 67q-2 6 -8 6q-5 0 -8 -5l-5 -16q-7 -22 -27 -32l-22 -12q-20 -7 -31 11q-7 20 11 31l22 12q3 1 4 4l10 29
q10 31 35 50q24 18 56 19q21 0 37 -5q17 -5 43 -16q3 -1 7 -3q30 -13 44 -41l7 -14q7 -20 -11 -31q-19 -8 -30 10l-6 14q-7 13 -21 19q-1 0 -14 5q-12 5 -14 6q-9 -2 -8 -10l14 -60q7 -28 -12 -50l-58 -64v0zM629 2l-48 48q-7 8 -11 19l-13 31q-3 6 -10 4q-7 -3 -5 -10
l13 -31q5 -13 15 -24l48 -48q12 -16 -1 -32q-15 -14 -31 -1l-57 58q-7 7 -12 18l-6 15q-3 7 -10 5q-7 -4 -5 -11l7 -15q5 -14 15 -24l57 -57q12 -11 26 -11q16 0 28 12q11 11 11 27q0 15 -11 27v0zM144 265q-22 -2 -24 -24v-64q2 -22 24 -24h64q22 2 24 24v64q-2 22 -24 24
h-64v0zM216 241v-64q-1 -7 -8 -8h-64q-7 1 -8 8v64q1 7 8 8h64q7 -1 8 -8v0z" />
    <glyph glyph-name="house-signal" unicode="&#xe012;" horiz-adv-x="576" 
d="M331 446q5 4 10 0l232 -200q5 -5 1 -11q-5 -5 -11 -1l-51 44v-190q-1 -24 -16 -40q-16 -15 -40 -16h-160q-1 8 -4 16h164q17 0 28 12q12 11 12 28v203l-160 138l-160 -138v-92q-8 5 -16 9v70l-51 -44q-6 -4 -11 1q-4 6 1 11l232 200v0zM376 272q22 -2 24 -24v-80
q-2 -22 -24 -24h-80q-22 2 -25 24v80q3 22 25 24h80v0zM287 168q1 -7 9 -8h80q7 1 8 8v80q-1 7 -8 8h-80q-8 -1 -9 -8v-80v0zM256 -56q-1 -7 -8 -8q-7 1 -8 8q-1 65 -32 117t-83 83t-117 32q-7 1 -8 8q1 7 8 8q69 -1 125 -34t89 -89t34 -125v0zM64 -32q0 -14 -9 -23v0
q-9 -9 -23 -9t-23 9t-9 23t9 23t23 9t23 -9t9 -23v0zM32 -16q-15 -1 -16 -16q1 -15 16 -16q15 1 16 16q-1 15 -16 16v0zM0 88q1 7 8 8q65 -2 107 -45q43 -42 45 -107q-1 -7 -8 -8q-7 1 -8 8q-1 58 -40 96q-38 39 -96 40q-7 1 -8 8v0z" />
    <glyph glyph-name="lamp-desk" unicode="&#xe014;" 
d="M512 359q0 13 -9 22v0q-9 9 -23 10h-127l-36 36q-22 21 -51 21q-32 -1 -52 -22q-21 -20 -22 -52q0 -29 21 -51l17 -17l-108 -108q-2 -3 -3 -5v-2l63 -239h-174q-7 -1 -8 -8q1 -7 8 -8h368q7 1 8 8q-1 7 -8 8h-178l-61 238l105 104l7 -7v-127q0 -14 10 -23q9 -9 22 -9
t22 9l200 200q9 9 9 22v0zM496 359q0 -6 -5 -11l-199 -199q-5 -5 -11 -5q-14 1 -16 16v133l-41 41q-16 18 -16 40q0 24 16 41q16 16 42 17q22 0 40 -16l41 -41h133q15 -2 16 -16v0zM460 257q-7 -1 -8 -8q0 -4 4 -8q6 -6 8 -24q0 -16 -12 -29q-12 -11 -28 -11q-19 1 -24 8
q-4 3 -8 3q-7 0 -8 -8q1 -6 13 -13q12 -6 27 -6q22 0 39 16q17 17 17 40q-1 15 -7 27t-13 13v0z" />
    <glyph glyph-name="lamp-floor" unicode="&#xe015;" horiz-adv-x="384" 
d="M381 269l-68 160q-9 18 -30 19h-182q-21 -1 -30 -19l-68 -160q-7 -16 2 -31q10 -14 27 -14h152v-272h-112q-7 -1 -8 -8q1 -7 8 -8h240q7 1 8 8q-1 7 -8 8h-112v272h152q17 0 27 14q9 15 2 31v0zM366 247q-6 -7 -14 -7h-320q-9 0 -13 7q-5 7 -2 15l69 160q4 10 15 10h182
q11 0 15 -10l69 -160q3 -8 -1 -15v0z" />
    <glyph glyph-name="light-ceiling" unicode="&#xe016;" 
d="M264 288v153q-1 7 -8 7q-7 -1 -8 -7v-153q-97 -4 -165 -65t-83 -154q-1 -15 8 -25q9 -11 24 -11h448q15 0 24 11q9 10 8 25q-15 93 -83 153q-68 61 -165 66v0zM492 54q-5 -6 -13 -6h-446q-8 0 -13 6q-4 3 -4 12q15 90 81 148q67 57 159 59q92 -2 158 -59t82 -147
q0 -10 -4 -13v0zM312 9q-7 -1 -8 -8q-1 -20 -14 -34q-14 -14 -34 -14t-34 14q-13 14 -14 34q-1 7 -8 8q-7 -1 -8 -8q1 -27 19 -45t44 -19q27 1 45 19t19 45q1 7 -7 8v0z" />
    <glyph glyph-name="light-switch" unicode="&#xe017;" horiz-adv-x="384" 
d="M320 448h-256q-27 -1 -45 -19t-19 -45v-384q1 -27 19 -45t45 -19h256q27 1 45 19t19 45v384q-1 27 -19 45t-45 19v0zM368 1q-1 -20 -14 -34v0q-14 -14 -34 -14h-256q-20 0 -34 14q-13 14 -14 34v384q1 20 14 34q14 13 34 14h256q20 -1 34 -14q13 -14 14 -34v-384v0z
M192 377q15 1 16 16q-1 15 -16 16q-15 -1 -16 -16q1 -15 16 -16v0zM192 9q-15 -1 -16 -16q1 -15 16 -16q15 1 16 16q-1 15 -16 16v0zM240 353h-96q-20 -1 -34 -14q-13 -13 -14 -33v-224q1 -21 14 -34q14 -14 34 -14h96q20 0 34 14q13 13 14 34v224q-1 19 -14 33
q-14 13 -34 14v0zM272 81q0 -14 -9 -23v0q-9 -9 -23 -9h-96q-14 0 -23 9t-9 23v104h160v-104v0zM272 201h-160v104q0 13 9 23q9 9 23 9h96q14 0 23 -9q9 -10 9 -23v-104v0z" />
    <glyph glyph-name="light-switch-off" unicode="&#xe018;" horiz-adv-x="384" 
d="M192 9q-15 -1 -16 -16q1 -15 16 -16q15 1 16 16q-1 15 -16 16v0zM192 377q15 1 16 16q-1 15 -16 16q-15 -1 -16 -16q1 -15 16 -16v0zM240 353h-96q-20 -1 -34 -14q-13 -13 -14 -33v-224q1 -21 14 -34q14 -14 34 -14h96q20 0 34 14q13 13 14 34v224q-1 19 -14 33
q-14 13 -34 14v0zM272 81q0 -14 -9 -23v0q-9 -9 -23 -9h-96q-14 0 -23 9t-9 23v104h160v-104v0zM272 201h-160v104q0 13 9 23q9 9 23 9h96q14 0 23 -9q9 -10 9 -23v-104v0zM320 448h-256q-27 -1 -45 -19t-19 -45v-384q1 -27 19 -45t45 -19h256q27 1 45 19t19 45v384
q-1 27 -19 45t-45 19v0zM368 1q-1 -20 -14 -34v0q-14 -14 -34 -14h-256q-20 0 -34 14q-13 14 -14 34v384q1 20 14 34q14 13 34 14h256q20 -1 34 -14q13 -14 14 -34v-384v0zM152 81h80q15 1 16 16v48q-1 15 -16 16h-80q-15 -1 -16 -16v-48q1 -15 16 -16v0zM152 145h80v-48
h-80v48v0z" />
    <glyph glyph-name="light-switch-on" unicode="&#xe019;" horiz-adv-x="384" 
d="M192 377q15 1 16 16q-1 15 -16 16q-15 -1 -16 -16q1 -15 16 -16v0zM192 9q-15 -1 -16 -16q1 -15 16 -16q15 1 16 16q-1 15 -16 16v0zM144 33h96q20 0 34 14q13 14 14 34v224q-1 20 -14 34q-14 13 -34 14h-96q-20 -1 -34 -14q-13 -14 -14 -34v-223q1 -22 14 -35
q14 -14 34 -14v0zM112 305q0 13 9 23v0q9 9 23 9h96q14 0 23 -9q9 -10 9 -23v-104h-160v104v0zM112 185h160v-104q0 -14 -9 -23t-23 -9h-96q-14 0 -23 9t-9 23v104v0zM64 -63h256q27 1 45 19t19 45v384q-1 27 -19 45t-45 19h-256q-27 -1 -45 -19t-19 -45v-384q1 -28 19 -46
t45 -18v0zM16 385q1 20 14 34v0q14 13 34 14h256q20 -1 34 -14q13 -14 14 -34v-384q-1 -20 -14 -34q-14 -14 -34 -14h-256q-20 0 -34 14q-13 14 -14 34v384v0zM232 305h-80q-15 -1 -16 -16v-48q1 -15 16 -16h80q15 1 16 16v48q-1 14 -16 16v0zM232 241h-80v48h80v-48v0z" />
    <glyph glyph-name="microwave" unicode="&#xe01b;" horiz-adv-x="576" 
d="M496 344q1 7 8 8q7 -1 8 -8v-272q-1 -7 -8 -8q-7 1 -8 8v272v0zM80 312q2 22 24 24h304q22 -2 24 -24v-208q-2 -22 -24 -24h-304q-22 2 -24 24v208v0zM96 312v-208q1 -7 8 -8h304q7 1 8 8v208q-1 7 -8 8h-304q-7 -1 -8 -8v0zM512 416q27 -1 45 -19v0q18 -18 19 -45v-288
q-1 -27 -19 -45t-45 -19v-24q-1 -7 -8 -8q-7 1 -8 8v24h-416v-24q-1 -7 -8 -8q-7 1 -8 8v24q-27 1 -45 19t-19 45v288q1 27 19 45t45 19h448v0zM512 400h-448q-20 -1 -34 -14q-13 -14 -14 -34v-288q1 -20 14 -34q14 -13 34 -14h448q20 1 34 14q13 14 14 34v288q-1 20 -14 34
q-14 13 -34 14v0z" />
    <glyph glyph-name="outlet" unicode="&#xe01c;" horiz-adv-x="448" 
d="M224 176q-14 0 -23 -9v0q-9 -9 -9 -23v-24q1 -7 8 -8h48q7 1 8 8v24q0 14 -9 23t-23 9v0zM240 128h-32v16q1 15 16 16q15 -1 16 -16v-16v0zM160 256q-7 -1 -8 -8v-64q1 -7 8 -8q7 1 8 8v64q-1 7 -8 8v0zM288 256q-7 -1 -8 -8v-64q1 -7 8 -8q7 1 8 8v64q-1 7 -8 8v0z
M384 417h-320q-27 -1 -45 -19t-19 -44v-320q1 -27 19 -45q18 -19 45 -19h320q27 0 45 19q18 18 19 45v320q-1 26 -19 44t-45 19v0zM432 32q-1 -20 -14 -34v0q-14 -13 -34 -14h-320q-20 1 -34 14q-13 14 -14 34v320q1 20 14 34q14 13 34 14h320q20 -1 34 -14q13 -14 14 -34
v-320v0zM319 320v-16q2 0 2 -1q46 -45 47 -111q-1 -65 -47 -111q-1 -1 -2 -1h-190q-2 0 -2 1q-46 46 -47 111q1 65 47 111q0 1 2 1h190v16h-190q-8 0 -14 -5q-49 -49 -51 -122q2 -74 51 -123q6 -5 14 -5h190q8 0 14 5q49 48 51 123q-2 74 -51 122q-7 5 -14 5v0z" />
    <glyph glyph-name="oven" unicode="&#xe01d;" horiz-adv-x="448" 
d="M80 368q-15 -1 -16 -16q1 -15 16 -16q15 1 16 16q-1 15 -16 16v0zM96 0h256q14 0 23 9t9 23v160q0 14 -9 23t-23 9h-256q-14 0 -23 -9t-9 -23v-160q0 -14 9 -23t23 -9v0zM80 192q1 15 16 16h256q15 -1 16 -16v-160q-1 -15 -16 -16h-256q-15 1 -16 16v160v0zM368 368
q-15 -1 -16 -16q1 -15 16 -16q15 1 16 16q-1 15 -16 16v0zM176 368q-15 -1 -16 -16q1 -15 16 -16q15 1 16 16q-1 15 -16 16v0zM384 448h-320q-27 -1 -45 -19t-19 -45v-384q1 -27 19 -45t45 -19h320q27 1 45 19t19 45v384q-1 27 -19 45t-45 19v0zM432 0q-1 -20 -14 -34v0
q-14 -13 -34 -14h-320q-20 1 -34 14q-13 14 -14 34v272h416v-272v0zM432 288h-416v96q1 20 14 34q14 13 34 14h320q20 -1 34 -14q13 -14 14 -34v-96v0zM272 368q-15 -1 -16 -16q1 -15 16 -16q15 1 16 16q-1 15 -16 16v0zM120 144h208q7 1 8 8q-1 7 -8 8h-208q-7 -1 -8 -8
q1 -7 8 -8v0z" />
    <glyph glyph-name="planet-moon" unicode="&#xe01f;" horiz-adv-x="576" 
d="M288 168h-64q-13 0 -21 9q-14 16 -1 32l50 58q12 19 12 40q0 16 -10 26t-25 11q-8 -1 -8 -8t7 -8q18 -2 20 -21q0 -17 -9 -30l-49 -57q-11 -13 -10 -28q0 -15 12 -27q13 -13 32 -13h64q22 -2 24 -24v-17q0 -13 -6 -25l-40 -81q-5 -9 -15 -11q-5 -1 -10 -1v0q-10 2 -9 8
v71h-8q-22 2 -24 24v35l-57 57q-12 12 -28 12h-25q-13 1 -16 11q-2 10 -2 14q-1 7 -8 8v0v0q-7 -2 -8 -9q0 -12 7 -25q7 -14 27 -15h25q10 0 17 -7l52 -52v-29q0 -15 9 -25q9 -11 23 -14v-56q0 -11 8 -18q7 -6 16 -6q6 0 13 1q19 4 27 20l40 81q8 16 8 32v17q0 17 -12 28
q-11 12 -28 12v0zM512 448q-27 -1 -45 -19v0q-18 -18 -19 -45q1 -27 19 -45q18 -17 45 -18q27 1 45 19q18 17 19 44q-1 27 -19 45t-45 19v0zM512 336q-20 1 -34 14v0q-13 14 -14 34q1 20 14 34q14 13 34 14q20 -1 34 -14q13 -14 14 -34q-1 -20 -14 -34q-14 -13 -34 -14v0z
M224 384q-63 -1 -113 -31v0q-51 -29 -80 -80v0q-30 -50 -31 -113q1 -63 31 -113q29 -51 80 -80q50 -30 113 -31q63 1 113 31q51 29 80 80q30 50 31 113q-1 63 -31 113q-29 51 -80 80q-50 30 -113 31v0zM224 -48q-88 2 -147 61v0q-59 59 -61 147q2 88 61 147t147 61
q88 -2 147 -61t61 -147q-2 -88 -61 -147t-147 -61v0z" />
    <glyph glyph-name="planet-ringed" unicode="&#x1fa90;" 
d="M501 437q-31 30 -121 -20q-6 -4 -3 -11q4 -6 11 -3q78 42 102 23q10 -11 3 -39q-6 -28 -29 -68q-10 -17 -22 -35q-26 52 -75 84q-49 31 -111 32q-88 -2 -147 -61q-58 -58 -60 -146q1 -62 32 -111q32 -49 84 -75q-18 -12 -35 -22q-40 -23 -68 -30q-28 -6 -39 4
q-19 24 23 102q3 7 -3 11q-8 2 -12 -4q-50 -90 -20 -121q12 -11 31 -11q22 1 47 11t48 23q21 12 44 28q35 -14 75 -14q88 2 147 61q58 59 60 146q0 40 -14 75q16 23 28 44q21 35 31 70q11 36 -7 57v0zM64 193q2 81 56 135v0q54 54 135 56q60 -1 106 -32q47 -32 70 -83
q-47 -67 -117 -136q-69 -69 -136 -117q-51 23 -82 70t-32 107v0zM447 193q-2 -82 -56 -135v0q-54 -54 -135 -56q-31 0 -59 9q64 47 130 112q65 66 112 130q8 -31 8 -60v0z" />
    <glyph glyph-name="planet-ringed" unicode="&#xe020;" 
d="M501 437q-31 30 -121 -20q-6 -4 -3 -11q4 -6 11 -3q78 42 102 23q10 -11 3 -39q-6 -28 -29 -68q-10 -17 -22 -35q-26 52 -75 84q-49 31 -111 32q-88 -2 -147 -61q-58 -58 -60 -146q1 -62 32 -111q32 -49 84 -75q-18 -12 -35 -22q-40 -23 -68 -30q-28 -6 -39 4
q-19 24 23 102q3 7 -3 11q-8 2 -12 -4q-50 -90 -20 -121q12 -11 31 -11q22 1 47 11t48 23q21 12 44 28q35 -14 75 -14q88 2 147 61q58 59 60 146q0 40 -14 75q16 23 28 44q21 35 31 70q11 36 -7 57v0zM64 193q2 81 56 135v0q54 54 135 56q60 -1 106 -32q47 -32 70 -83
q-47 -67 -117 -136q-69 -69 -136 -117q-51 23 -82 70t-32 107v0zM447 193q-2 -82 -56 -135v0q-54 -54 -135 -56q-31 0 -59 9q64 47 130 112q65 66 112 130q8 -31 8 -60v0z" />
    <glyph glyph-name="police-box" unicode="&#xe021;" horiz-adv-x="384" 
d="M80 176q1 15 16 16h64q15 -1 16 -16v-64q-1 -15 -16 -16h-64q-15 1 -16 16v64v0zM96 112h64v64h-64v-64v0zM288 320q15 -1 16 -16v-64q-1 -15 -16 -16h-64q-15 1 -16 16v64q1 15 16 16h64v0zM288 304h-24v-24h24v24v0zM224 280h24v24h-24v-24v0zM224 240h24v24h-24v-24v0
zM288 264h-24v-24h24v24v0zM80 304q1 15 16 16h64q15 -1 16 -16v-64q-1 -15 -16 -16h-64q-15 1 -16 16v64v0zM136 280h24v24h-24v-24v0zM120 304h-24v-24h24v24v0zM120 264h-24v-24h24v24v0zM136 240h24v24h-24v-24v0zM200 416h96q22 -2 24 -24v-8q14 0 23 -9t9 -23v-400h24
q7 -1 8 -8q-1 -7 -8 -8h-368q-7 1 -8 8q1 7 8 8h24v400q0 14 9 23t23 9v8q2 22 24 24h96v24q1 7 8 8q7 -1 8 -8v-24v0zM320 368h-256q-15 -1 -16 -16v-400h288v400q-1 15 -16 16v0zM88 400q-7 -1 -8 -8v-8h224v8q-1 7 -8 8h-208v0z" />
    <glyph glyph-name="person-to-portal" unicode="&#xe022;" 
d="M276 344q22 1 37 15v0q14 15 15 37q-1 22 -15 37q-15 14 -37 15q-22 -1 -37 -15q-14 -15 -15 -37q1 -22 15 -37q15 -14 37 -15v0zM276 432q15 0 25 -11v0q11 -10 11 -25t-11 -25q-10 -11 -25 -11t-25 11q-11 10 -11 25t11 25q10 11 25 11v0zM287 187q14 -26 43 -27h53
q14 0 23 9t9 22q0 14 -9 23t-23 9h-44l-26 53q-20 40 -62 51l-70 22q-12 3 -22 3q-33 0 -59 -20l-40 -30q-10 -9 -12 -21q-1 -13 7 -24q10 -13 25 -13q10 0 19 7l40 30q9 7 20 7h5l15 -5l-37 -87q-9 -23 -2 -45q7 -23 27 -36l85 -50l-26 -87q-4 -13 2 -25q6 -11 18 -16
q5 -1 10 -1q22 1 31 22l31 102q4 16 -1 30q-6 15 -20 24l-62 37l32 78l20 -42v0zM252 234l-31 -78q-4 -12 6 -20l61 -36q20 -13 15 -36l-32 -101q-4 -10 -15 -11q-2 0 -5 1q-6 2 -9 8t-1 12l27 88q3 11 -7 18l-85 50q-16 10 -21 27q-6 16 1 33l38 88q2 7 0 13q-4 6 -10 9
l-16 4q-4 1 -9 1q-16 0 -30 -10l-39 -30q-5 -4 -10 -4q-8 1 -13 7q-7 12 3 22l40 31q22 16 49 17q9 0 17 -2l72 -21q34 -10 52 -43l26 -53q4 -10 14 -10h44q15 -1 16 -16q-1 -15 -16 -16h-54q-19 1 -29 18l-20 41q-5 9 -14 9h-1q-10 0 -14 -10v0zM146 83l-15 -24
q-7 -11 -20 -11h-79q-15 1 -16 16q1 15 16 16h63q5 0 7 4l25 40q3 6 -3 11q-6 3 -11 -3l-22 -36h-59q-14 0 -23 -9t-9 -23t9 -23t23 -9h79q21 1 33 18l16 25q3 6 -3 11q-6 3 -11 -3v0zM431 448q-26 -1 -45 -42v0q-20 -42 -29 -117q0 -7 7 -9q7 0 9 7q10 72 26 108
q17 37 33 37q24 -2 43 -67q20 -65 21 -173q-1 -108 -21 -173q-19 -65 -43 -67q-16 0 -32 37q-17 36 -26 107q-2 7 -9 7q-8 -1 -7 -9q9 -75 28 -117q20 -41 46 -42q26 2 43 40q18 38 28 96q9 58 9 122t-9 122q-10 58 -28 95t-44 38v0z" />
    <glyph glyph-name="person-from-portal" unicode="&#xe023;" 
d="M372 344q22 1 37 15v0q14 15 15 37q-1 22 -15 37q-15 14 -37 15q-22 -1 -37 -15q-14 -15 -15 -37q1 -22 15 -37q15 -14 37 -15v0zM372 432q15 0 25 -11v0q11 -10 11 -25t-11 -25q-10 -11 -25 -11t-25 11q-11 10 -11 25t11 25q10 11 25 11v0zM104 -28q-9 -17 -24 -20
q-24 2 -43 67q-20 65 -21 173q1 108 21 173q19 65 43 67q10 1 23 -18t24 -64q3 -7 10 -6q7 3 6 10q-24 92 -63 94q-26 -1 -44 -39q-18 -37 -27 -95t-9 -121t9 -121t27 -95q18 -38 44 -39q21 0 38 28q3 6 -3 11q-7 1 -11 -5v0zM480 225h-44l-26 53q-21 40 -62 51l-71 21
q-11 3 -22 3q-33 0 -59 -20l-39 -30q-11 -9 -13 -21q-1 -13 7 -24q10 -13 25 -13q11 0 20 7l39 29q9 7 20 7h5l15 -5l-37 -87q-10 -23 -2 -45q7 -23 28 -36l85 -50l-27 -87q-4 -13 2 -25q6 -11 18 -16q5 -1 10 -1q22 1 31 22l31 102q4 16 -1 30q-6 15 -20 24l-62 36l32 78
l20 -41q14 -26 43 -27h54q14 0 23 9t9 22q0 14 -9 24t-23 10v0zM480 176h-54q-19 1 -29 18l-20 41q-5 9 -14 9h-1q-10 0 -14 -10l-31 -78q-4 -12 6 -20l61 -36q20 -13 15 -36l-32 -101q-4 -10 -15 -11q-2 0 -5 1q-6 2 -9 8t-1 12l27 88q3 11 -7 18l-85 50q-16 10 -21 27
q-6 16 1 33l38 88q3 7 0 13q-4 6 -10 9l-16 4q-4 1 -9 1q-16 0 -30 -10l-39 -30q-5 -4 -10 -4q-8 1 -13 7q-8 12 3 22l40 31q22 16 49 17q9 0 17 -2l72 -21q34 -10 52 -43l26 -53q4 -10 14 -10h44q15 -1 16 -16q-1 -15 -16 -16v0zM242 83l-15 -24q-7 -11 -20 -11h-79
q-15 1 -16 16q1 15 16 16h63q5 0 7 4l25 40q3 6 -3 11q-6 3 -11 -3l-22 -36l-59 1q-14 0 -23 -9q-9 -10 -9 -23q0 -14 9 -23t23 -9l79 -1q21 1 33 18l16 25q3 6 -3 11q-6 3 -11 -3v0z" />
    <glyph glyph-name="radar" unicode="&#xe024;" 
d="M256 432q-67 -1 -121 -33v0q-54 -32 -86 -86v0q-32 -54 -33 -121q1 -67 33 -121t86 -86t121 -33q67 1 121 33t86 86t33 121q1 7 8 8q7 -1 8 -8q-1 -72 -35 -129q-34 -58 -92 -92q-57 -34 -129 -35q-72 1 -129 35q-58 34 -92 92q-34 57 -35 129q1 72 35 129q34 58 92 92
q57 34 129 35q51 0 96 -19q45 -18 79 -50l43 43q6 4 12 0q4 -6 0 -12l-224 -224q-6 -4 -12 0q-4 6 0 12l34 33q-13 9 -28 9q-20 -1 -34 -14q-13 -14 -14 -34q1 -20 14 -34q14 -13 34 -14q20 1 34 14q13 14 14 34q1 7 8 8q7 -1 8 -8q-1 -27 -19 -45t-45 -19q-27 1 -45 19
t-19 45q1 27 19 45t45 19q23 0 39 -13l57 56q-39 36 -96 37q-44 -1 -78 -23q-35 -23 -53 -60q-3 -7 -10 -4t-4 10q20 42 58 67t87 26q63 -1 107 -41l56 56q-32 31 -73 48q-42 17 -90 17v0v0zM56 192q0 17 12 28v0q11 12 28 12t28 -12q12 -11 12 -28t-12 -28q-11 -12 -28 -12
t-28 12q-12 11 -12 28v0zM96 216q-22 -2 -24 -24q2 -22 24 -24q22 2 24 24q-2 22 -24 24v0zM296 32q0 -17 -12 -28v0q-11 -12 -28 -12t-28 12q-12 11 -12 28t12 28q11 12 28 12t28 -12q12 -11 12 -28v0zM256 8q22 2 24 24q-2 22 -24 24q-22 -2 -24 -24q2 -22 24 -24v0z
M323 47q-7 -3 -10 4t4 10q37 18 60 53q22 34 23 78q1 7 8 8q7 -1 8 -8q-1 -49 -26 -87t-67 -58v0v0zM195 61q7 -3 4 -10t-10 -4q-53 25 -78 78q-3 7 4 10t10 -4q23 -47 70 -70v0v0z" />
    <glyph glyph-name="raygun" unicode="&#xe025;" horiz-adv-x="576" 
d="M112 288q-15 -1 -16 -16q1 -15 16 -16q15 1 16 16q-2 15 -16 16v0zM208 288q-15 -1 -16 -16q1 -15 16 -16q15 1 16 16q-1 15 -16 16v0zM572 344q-4 2 -8 0l-94 -64h-54v64q-1 7 -8 8q-7 -1 -8 -8v-64h-48v96q-1 7 -8 8q-7 -1 -8 -8v-19q-21 26 -56 27h-87l-117 63
q-4 2 -8 0q-4 -3 -4 -7v-67q-29 -14 -46 -41q-18 -26 -18 -60q1 -48 33 -79q31 -32 79 -33h168q35 1 56 27v-19q1 -7 8 -8q7 1 8 8v96h48v-64q1 -7 8 -8q7 1 8 8v64h54l94 -63q2 -1 4 -1t4 1q4 3 4 7v128q0 4 -4 8v0zM80 427l79 -43h-47q-17 0 -32 -5v48v0zM336 232
q-1 -24 -16 -40v0q-16 -15 -40 -16h-168q-41 1 -68 28t-28 68q1 41 28 67q27 27 68 28h168q24 -1 40 -16q15 -16 16 -39v-80v0zM560 223l-74 49l74 50v-99v0zM255 124l-89 -154q-8 -13 -22 -17q-14 -3 -27 4l-52 29q-13 8 -17 22q-3 14 4 27l48 81q3 7 -3 11q-7 3 -11 -3
l-47 -81q-10 -18 -5 -39q6 -21 24 -32l51 -29q12 -7 26 -7q7 0 13 2q21 6 32 24l89 154q3 7 -3 11q-7 3 -11 -3v0z" />
    <glyph glyph-name="refrigerator" unicode="&#xe026;" horiz-adv-x="384" 
d="M320 448h-256q-27 -1 -45 -19t-19 -45v-416q0 -14 9 -23t23 -9h320q14 0 23 9t9 23v416q-1 27 -19 45t-45 19v0zM368 -32q-1 -15 -16 -16h-320q-15 1 -16 16v288h272v-184q1 -7 8 -8q7 1 8 8v184h64v-288v0zM368 272h-64v104q-1 7 -8 8q-7 -1 -8 -8v-104h-272v112
q1 20 14 34q14 13 34 14h256q20 -1 34 -14q13 -14 14 -34v-112v0z" />
    <glyph glyph-name="rocket-launch" unicode="&#x1f680;" 
d="M424 305q-1 -24 -16 -40v0q-16 -16 -40 -16t-40 16q-15 16 -16 40q1 23 16 39q16 16 40 17q24 -1 40 -17q15 -16 16 -39v0zM368 265q17 0 28 11v0q12 11 12 29q0 16 -12 28q-11 11 -28 12q-17 -1 -28 -12q-12 -12 -12 -28q0 -18 12 -29q11 -11 28 -11v0zM353 -12l-94 -48
q-13 -5 -24 2q-10 7 -11 20v110q0 36 -26 62t-62 26h-110q-14 1 -21 11q-6 11 -1 24l48 95q16 30 50 31h95q43 62 95 90q53 29 103 34q51 5 89 -2q18 -5 23 -23q7 -38 2 -89q-5 -50 -34 -103q-28 -52 -91 -95v-95q-1 -34 -31 -50v0v0zM239 90q93 24 147 64v0q53 40 78 87
q25 48 29 94q5 47 -2 82q-3 8 -10 10q-35 7 -82 2q-46 -4 -94 -29q-47 -25 -87 -78q-40 -54 -64 -148q32 -5 56 -28q22 -24 29 -56v0v0zM240 -38q2 -10 12 -7l94 47q21 11 22 36v85q-51 -30 -129 -49l1 -2v-110v0zM138 176q19 77 49 129h-85q-25 -1 -36 -23l-47 -94
q-3 -10 7 -12h110h2v0zM167 -22q-27 -24 -66 -33v0q-38 -8 -68 -9v0h-33v0v0v33q1 30 9 69q9 38 33 64q27 26 62 26t63 -26q25 -27 25 -62t-25 -62v0zM155 91q-22 21 -51 21v0q-28 0 -51 -21q-15 -16 -23 -40q-8 -25 -11 -51q-3 -27 -3 -45q-1 -1 0 -2v0q2 -1 3 -1v0
q7 0 15 1q13 0 29 2q27 3 51 11q25 8 41 23q21 22 21 51t-21 51v0v0z" />
    <glyph glyph-name="rocket-launch" unicode="&#xe027;" 
d="M424 305q-1 -24 -16 -40v0q-16 -16 -40 -16t-40 16q-15 16 -16 40q1 23 16 39q16 16 40 17q24 -1 40 -17q15 -16 16 -39v0zM368 265q17 0 28 11v0q12 11 12 29q0 16 -12 28q-11 11 -28 12q-17 -1 -28 -12q-12 -12 -12 -28q0 -18 12 -29q11 -11 28 -11v0zM353 -12l-94 -48
q-13 -5 -24 2q-10 7 -11 20v110q0 36 -26 62t-62 26h-110q-14 1 -21 11q-6 11 -1 24l48 95q16 30 50 31h95q43 62 95 90q53 29 103 34q51 5 89 -2q18 -5 23 -23q7 -38 2 -89q-5 -50 -34 -103q-28 -52 -91 -95v-95q-1 -34 -31 -50v0v0zM239 90q93 24 147 64v0q53 40 78 87
q25 48 29 94q5 47 -2 82q-3 8 -10 10q-35 7 -82 2q-46 -4 -94 -29q-47 -25 -87 -78q-40 -54 -64 -148q32 -5 56 -28q22 -24 29 -56v0v0zM240 -38q2 -10 12 -7l94 47q21 11 22 36v85q-51 -30 -129 -49l1 -2v-110v0zM138 176q19 77 49 129h-85q-25 -1 -36 -23l-47 -94
q-3 -10 7 -12h110h2v0zM167 -22q-27 -24 -66 -33v0q-38 -8 -68 -9v0h-33v0v0v33q1 30 9 69q9 38 33 64q27 26 62 26t63 -26q25 -27 25 -62t-25 -62v0zM155 91q-22 21 -51 21v0q-28 0 -51 -21q-15 -16 -23 -40q-8 -25 -11 -51q-3 -27 -3 -45q-1 -1 0 -2v0q2 -1 3 -1v0
q7 0 15 1q13 0 29 2q27 3 51 11q25 8 41 23q21 22 21 51t-21 51v0v0z" />
    <glyph glyph-name="sensor" unicode="&#xe028;" horiz-adv-x="448" 
d="M96 168q-1 -7 -8 -8q-7 1 -8 8v176q1 7 8 8q7 -1 8 -8v-176v0zM160 168q-1 -7 -8 -8q-7 1 -8 8v176q1 7 8 8q7 -1 8 -8v-176v0zM0 352q1 27 19 45v0q18 18 45 19h320q27 -1 45 -19t19 -45v-320q-1 -27 -19 -45t-45 -19h-320q-27 1 -45 19t-19 45v320v0zM16 352v-320
q1 -20 14 -34q14 -13 34 -14h320q20 1 34 14q13 14 14 34v320q-1 20 -14 34q-14 13 -34 14h-320q-20 -1 -34 -14q-13 -14 -14 -34v0z" />
    <glyph glyph-name="sensor-triangle-exclamation" unicode="&#xe029;" horiz-adv-x="640" 
d="M16 352v-320q1 -20 14 -34q14 -13 34 -14h160v-4v-4v-8h-160q-27 1 -45 19t-19 45v320q1 27 19 45t45 19h320q27 -1 45 -19t19 -45v-32q-8 0 -16 -2v34q-1 20 -14 34q-14 13 -34 14h-320q-20 -1 -34 -14q-13 -14 -14 -34v0v0zM96 168q-1 -7 -8 -8q-7 1 -8 8v176q1 7 8 8
q7 -1 8 -8v-176v0zM160 168q-1 -7 -8 -8q-7 1 -8 8v176q1 7 8 8q7 -1 8 -8v-176v0zM455 64q0 -7 -8 -8q-7 1 -8 8v96q1 7 8 8q8 -1 8 -8v-96v0zM432 16q1 15 16 16q15 -1 16 -16q-1 -15 -16 -16q-15 1 -16 16v0zM448 288q24 0 36 -21l150 -265q6 -10 6 -22q0 -19 -13 -31
q-12 -13 -31 -13h-296q-19 0 -31 13q-13 12 -13 31q-1 12 6 22l150 265q12 21 36 21v0v0zM276 -6q-4 -6 -4 -14q0 -12 8 -20t20 -8h296q12 0 20 8t8 20q0 8 -4 14l-150 265q-8 13 -22 14q-14 -1 -22 -14l-150 -265v0z" />
    <glyph glyph-name="sensor-fire" unicode="&#xe02a;" horiz-adv-x="640" 
d="M16 352v-320q1 -20 14 -34q14 -13 34 -14h261q6 -8 13 -16h-274q-27 1 -45 19t-19 45v320q1 27 19 45t45 19h320q27 -1 45 -19t19 -45v-32q-8 1 -16 -2v34q-1 20 -14 34q-14 13 -34 14h-320q-20 -1 -34 -14q-13 -14 -14 -34v0v0zM96 168q-1 -7 -8 -8q-7 1 -8 8v176
q1 7 8 8q7 -1 8 -8v-176v0zM160 168q-1 -7 -8 -8q-7 1 -8 8v176q1 7 8 8q7 -1 8 -8v-176v0zM442 192q3 1 6 -3q1 -1 2 -3q5 -6 14 -18q9 -11 20 -25l26 -33l34 38q2 3 6 3t6 -3q5 -7 9 -14v0v0q16 -31 9 -64q-6 -32 -34 -52v-1q-27 -17 -59 -17q-41 0 -68 24q-28 25 -29 70
q0 22 14 44q13 21 37 51q2 3 7 3v0v0zM504 92l-33 42q-12 15 -22 27q-4 6 -7 10q-20 -24 -31 -42q-11 -19 -11 -35q1 -38 24 -58q22 -20 57 -20q27 0 50 15q22 16 28 43q5 26 -8 52h-1q0 1 -1 2v2l-33 -38q-2 -3 -6 -3q-1 0 -2 1q-2 0 -4 2v0v0zM498 240q5 -6 9 -11v0l2 -2
l3 3q3 5 7 9l1 1q7 9 16 16q10 8 20 0q37 -36 60 -81q23 -44 24 -77q-2 -68 -47 -114t-113 -48q-69 2 -114 48q-44 46 -46 114q1 41 32 91t82 95q9 8 20 0q23 -21 44 -44v0v0zM509 211q-7 0 -12 5q-25 30 -53 56q-49 -44 -78 -92q-29 -47 -30 -82q1 -61 42 -103
q40 -41 102 -43q61 2 102 43q40 42 42 103q-1 27 -22 70q-22 42 -56 76q-13 -13 -24 -27q-5 -6 -13 -6v0v0zM510 97l-6 -5z" />
    <glyph glyph-name="sensor-on" unicode="&#xe02b;" horiz-adv-x="640" 
d="M88 352q7 -1 8 -8v-176q-1 -7 -8 -8q-7 1 -8 8v176q1 7 8 8v0zM152 352q7 -1 8 -8v-176q-1 -7 -8 -8q-7 1 -8 8v176q1 7 8 8v0zM384 416q27 -1 45 -19v0q18 -18 19 -45v-320q-1 -27 -19 -45t-45 -19h-320q-27 1 -45 19t-19 45v320q1 27 19 45t45 19h320v0zM384 400h-320
q-20 -1 -34 -14q-13 -14 -14 -34v-320q1 -20 14 -34q14 -13 34 -14h320q20 1 34 14q13 14 14 34v320q-1 20 -14 34q-14 13 -34 14v0zM524 321q-7 -3 -11 3q-3 7 3 11l80 48q7 3 11 -3q3 -7 -3 -11l-80 -48v0zM632 200q7 -1 8 -8q-1 -7 -8 -8h-112q-7 1 -8 8q1 7 8 8h112v0z
M604 15q6 -4 3 -11q-4 -6 -11 -3l-80 48q-6 4 -3 11q4 6 11 3l80 -48v0z" />
    <glyph glyph-name="sensor-cloud" unicode="&#xe02c;" horiz-adv-x="640" 
d="M16 352v-320q1 -20 14 -34q14 -13 34 -14h167q3 -8 7 -16h-174q-27 1 -45 19t-19 45v320q1 27 19 45t45 19h320q27 -1 45 -19t19 -45v-135q-6 3 -13 4q-2 0 -3 1v130q-1 20 -14 34q-14 13 -34 14h-320q-20 -1 -34 -14q-13 -14 -14 -34v0zM96 168q-1 -7 -8 -8q-7 1 -8 8
v176q1 7 8 8q7 -1 8 -8v-176v0zM160 168q-1 -7 -8 -8q-7 1 -8 8v176q1 7 8 8q7 -1 8 -8v-176v0zM482 151q13 9 30 9q22 0 37 -14q16 -14 19 -35q31 -7 51 -30q20 -24 21 -57q-1 -37 -26 -62t-62 -26h-208q-37 1 -62 26t-26 62q1 31 18 54q18 22 46 31q3 35 27 59
q24 23 61 24q49 -2 74 -41v0zM336 103q0 -7 -6 -8q-26 -6 -42 -25q-15 -19 -16 -46q1 -31 21 -51t51 -21h208q31 1 51 21t21 51q-1 29 -19 49t-46 23q-7 1 -7 8v0q0 17 -12 28q-11 12 -28 12q-16 0 -27 -10q-3 -3 -7 -2q-4 0 -5 4q-20 38 -65 40q-31 -1 -51 -21t-21 -51v0
v-1v0z" />
    <glyph glyph-name="siren" unicode="&#xe02d;" horiz-adv-x="448" 
d="M55 88q7 0 9 7l24 194q3 20 17 33q15 14 36 14h167q20 0 35 -14q14 -13 17 -33l24 -194q1 -6 8 -7h1q7 2 7 9l-24 194q-4 27 -23 43q-19 17 -45 18h-167q-27 -1 -46 -18t-23 -43l-24 -194q0 -7 7 -9v0zM144 291l-24 -194q0 -7 7 -9q0 1 1 0v0q7 0 8 7l24 194q0 7 -7 9
q-7 0 -9 -7v0zM416 64h-384q-14 0 -23 -9t-9 -23v-32q0 -14 9 -23t23 -9h384q14 0 23 9t9 23v32q0 14 -9 23t-23 9v0zM432 0q-1 -15 -16 -16h-384q-15 1 -16 16v32q1 15 16 16h384q15 -1 16 -16v-32v0z" />
    <glyph glyph-name="siren-on" unicode="&#xe02e;" horiz-adv-x="640" 
d="M240 291l-24 -194q0 -7 7 -9q0 1 1 0v0q7 0 8 7l24 194q0 7 -7 9q-7 0 -9 -7v0zM151 88q7 0 9 7l24 194q3 20 17 33q15 14 36 14h167q20 0 35 -14q14 -13 17 -33l24 -194q1 -6 8 -7h1q7 2 7 9l-24 194q-4 27 -23 43q-19 17 -45 18h-167q-27 -1 -46 -18t-23 -43l-24 -194
q0 -7 7 -9v0zM512 64h-384q-14 0 -23 -9t-9 -23v-32q0 -14 9 -23t23 -9h384q14 0 23 9t9 23v32q0 14 -9 23t-23 9v0zM528 0q-1 -15 -16 -16h-384q-15 1 -16 16v32q1 15 16 16h384q15 -1 16 -16v-32v0zM520 352q2 0 4 1l79 48q6 5 3 11q-4 6 -11 3l-79 -48q-6 -4 -3 -11
q3 -4 7 -4v0zM632 233h-79q-7 -1 -8 -8q1 -7 8 -8h79q7 1 8 8q-1 7 -8 8v0zM87 233h-79q-7 -1 -8 -8q1 -7 8 -8h79q7 1 8 8q0 7 -8 8v0zM116 353q2 -1 4 -1q4 0 7 4q3 7 -3 11l-79 48q-8 3 -12 -3q-3 -6 3 -11l80 -48v0z" />
    <glyph glyph-name="solar-system" unicode="&#xe02f;" 
d="M349 -3q-44 -21 -93 -21q-60 1 -109 30q-49 28 -77 77q-29 49 -30 109q0 64 35 117q9 -5 21 -5q20 1 34 14q13 14 14 34q-1 20 -14 34q-14 13 -34 14q-20 -1 -34 -14q-13 -14 -14 -34q1 -20 14 -33q-37 -57 -38 -127q1 -65 32 -117t83 -83t117 -32q52 0 99 22q7 4 4 11
q-4 6 -10 4v0zM96 384q14 0 23 -9v0q9 -9 9 -23t-9 -23t-23 -9t-23 9t-9 23t9 23t23 9v0zM388 265q12 13 12 31q-1 20 -14 34q-14 13 -34 14q-20 -1 -34 -14q-28 14 -62 14q-64 -2 -107 -45t-45 -107q2 -64 45 -107q42 -43 107 -45q65 2 107 45q43 42 45 107q-1 40 -20 73v0
zM352 328q14 0 23 -9v0q9 -9 9 -23t-9 -23t-23 -9t-23 9t-9 23t9 23t23 9v0zM256 56q-58 1 -96 40v0q-39 38 -40 96q1 58 40 96q38 39 96 40q28 0 53 -11q-5 -9 -5 -21q1 -20 14 -34q14 -13 34 -14q13 0 24 7q15 -29 16 -63q-2 -58 -40 -96q-39 -39 -96 -40v0zM255 256
q-27 -1 -45 -19v0q-17 -18 -18 -44q1 -27 19 -45t45 -19q27 1 45 18q18 18 19 45q-1 27 -19 45t-46 19v0zM256 145q-20 0 -33 14v0q-14 14 -14 34q1 20 14 34q13 13 33 14q20 -1 33 -14q14 -14 14 -34t-13 -34q-14 -14 -34 -14v0zM488 192q-1 65 -32 117v0q-31 52 -83 83v0
q-52 31 -117 32q-52 0 -99 -22q-7 -4 -4 -11q4 -6 10 -4q44 21 93 21q60 -1 109 -30q49 -28 77 -77q29 -49 30 -109q0 -64 -35 -117q-9 5 -21 5q-20 -1 -34 -14q-13 -14 -14 -34q1 -20 14 -34q14 -13 34 -14q20 1 34 14q13 14 14 34q-1 20 -14 33q38 57 38 127v0zM416 0
q-14 0 -23 9v0q-9 9 -9 23t9 23t23 9t23 -9t9 -23t-9 -23t-23 -9v0z" />
    <glyph glyph-name="circle-sort" unicode="&#xe030;" 
d="M336 160h-160q-16 -1 -22 -15q-6 -15 5 -26l80 -80q7 -7 17 -7t17 7l80 80q11 11 5 26q-6 14 -22 15v0zM342 130l-80 -80q-6 -4 -12 0l-80 80q-3 6 -1 9q0 3 7 5h160q7 -2 7 -5v0q2 -3 -1 -9v0zM273 345q-17 13 -34 0l-80 -80q-11 -11 -5 -26q6 -14 22 -15h160
q16 1 22 15q6 15 -5 26l-80 80v0zM343 245q0 -3 -7 -5h-160q-7 2 -7 5q-2 3 1 9l80 80q3 2 6 2t6 -2l80 -80q4 -6 1 -9v0zM256 448q-72 -1 -129 -35v0q-58 -34 -92 -92v0q-34 -57 -35 -129q1 -72 35 -129q34 -58 92 -92q57 -34 129 -35q72 1 129 35q58 34 92 92
q34 57 35 129q-1 72 -35 129q-34 58 -92 92q-57 34 -129 35v0zM256 -48q-67 1 -121 33v0q-54 32 -86 86v0q-32 54 -33 121q1 67 33 121t86 86t121 33q67 -1 121 -33t86 -86t33 -121q-1 -67 -33 -121t-86 -86t-121 -33v0z" />
    <glyph glyph-name="circle-sort-down" unicode="&#xe031;" 
d="M336 160h-160q-16 -1 -22 -15q-6 -15 5 -26l80 -80q7 -7 17 -7t17 7l80 80q11 11 5 26q-6 14 -22 15v0zM342 130l-80 -80q-6 -4 -12 0l-80 80q-3 6 -1 9q0 3 7 5h160q7 -2 7 -5v0q2 -3 -1 -9v0zM273 345q-17 13 -34 0l-85 -83q-4 -6 0 -12q6 -4 12 0l84 84q6 4 12 0
l84 -84q2 -2 6 -2q3 0 6 2q4 6 0 12l-85 83v0zM256 448q-72 -1 -129 -35v0q-58 -34 -92 -92v0q-34 -57 -35 -129q1 -72 35 -129q34 -58 92 -92q57 -34 129 -35q72 1 129 35q58 34 92 92q34 57 35 129q-1 72 -35 129q-34 58 -92 92q-57 34 -129 35v0zM256 -48q-67 1 -121 33
v0q-54 32 -86 86v0q-32 54 -33 121q1 67 33 121t86 86t121 33q67 -1 121 -33t86 -86t33 -121q-1 -67 -33 -121t-86 -86t-121 -33v0z" />
    <glyph glyph-name="circle-sort-up" unicode="&#xe032;" 
d="M346 134l-84 -84q-6 -4 -12 0l-84 84q-3 2 -6 2t-6 -2q-4 -6 0 -12l85 -83q17 -13 34 0l85 83q4 6 0 12q-6 4 -12 0v0zM176 224h160q16 1 22 15q6 15 -5 26l-80 80q-7 7 -17 8q-10 0 -17 -7l-80 -81q-11 -11 -5 -26q6 -14 22 -15v0zM170 254l80 80q6 4 12 0l80 -80
q3 -6 1 -9q0 -3 -7 -5h-160q-7 2 -7 5q-2 3 1 9v0zM256 448q-72 -1 -129 -35v0q-58 -34 -92 -92v0q-34 -57 -35 -129q1 -72 35 -129q34 -58 92 -92q57 -34 129 -35q72 1 129 35q58 34 92 92q34 57 35 129q-1 72 -35 129q-34 58 -92 92q-57 34 -129 35v0zM256 -48
q-67 1 -121 33v0q-54 32 -86 86v0q-32 54 -33 121q1 67 33 121t86 86t121 33q67 -1 121 -33t86 -86t33 -121q-1 -67 -33 -121t-86 -86t-121 -33v0z" />
    <glyph glyph-name="space-station-moon" unicode="&#xe033;" 
d="M208 288q-1 -15 -16 -16q-15 1 -16 16q1 15 16 16q15 -1 16 -16v0zM272 288q-1 -34 -23 -57v0q-23 -22 -57 -23q-34 1 -57 23q-22 23 -23 57q1 34 23 57q23 22 57 23q34 -1 57 -23q22 -23 23 -57v0zM192 352q-27 -1 -45 -19v0q-18 -18 -19 -45q1 -27 19 -45t45 -19
q27 1 45 19t19 45q-1 27 -19 45t-45 19v0zM512 192q-1 -72 -35 -129v0q-34 -58 -92 -92v0q-57 -34 -129 -35q-72 1 -129 35q-58 34 -92 92q-34 57 -35 129q1 72 35 129q34 58 92 92q57 34 129 35q72 -1 129 -35q58 -34 92 -92q34 -57 35 -129v0zM19 156q111 -43 237 -44
q126 1 237 44q3 17 3 36q-1 67 -33 121t-86 86t-121 33q-67 -1 -121 -33t-86 -86t-33 -121q0 -19 3 -36v0zM22 137q20 -81 84 -132v0q63 -51 150 -53q87 2 150 53t84 132q-110 -40 -234 -41q-124 1 -234 41v0v0z" />
    <glyph glyph-name="space-station-moon-construction" unicode="&#xe034;" 
d="M255 432q-66 -1 -121 -33v0q-54 -32 -86 -86v0q-32 -54 -33 -121q1 -19 4 -36q111 -43 236 -44q127 1 238 44q2 14 3 28h-80q-7 1 -8 8q1 7 8 8h88q7 -1 8 -8q0 -22 -4 -43q0 -3 -3 -6h-1l-1 -1q0 1 -1 0h-1q-114 -45 -246 -46q-123 1 -233 41q21 -81 84 -132t149 -53
q63 1 114 28q52 28 85 76h-54q-7 1 -8 8q1 7 8 8h69q4 0 6 -4q3 -4 0 -8q-34 -57 -91 -90t-128 -34q-72 1 -129 35q-58 34 -92 92q-34 57 -35 129q1 72 35 129q34 58 92 92q57 34 129 35q59 0 110 -25q50 -24 86 -66q3 -4 1 -8q-3 -5 -7 -5h-86q-7 1 -8 8q1 7 8 8h67
q-33 34 -77 53t-95 19v0v0zM344 296q1 7 8 8h96q7 -1 8 -8q-1 -7 -8 -8h-96q-7 1 -8 8v0zM344 248q1 7 8 8h96q7 -1 8 -8q-1 -7 -8 -8h-96q-7 1 -8 8v0zM175 288q2 15 16 16q15 -1 16 -16q-1 -15 -16 -16q-14 1 -16 16v0zM111 288q1 34 24 57v0q23 22 56 23q35 -1 57 -23
q23 -23 24 -57q-1 -34 -24 -57q-22 -22 -57 -23q-33 1 -56 23q-23 23 -24 57v0zM191 224q28 1 46 19v0q17 18 18 45q-1 27 -18 45q-18 18 -46 19q-26 -1 -45 -19q-18 -18 -19 -45q1 -27 19 -45q19 -18 45 -19v0z" />
    <glyph glyph-name="sprinkler" unicode="&#xe035;" 
d="M408 192h-144v184q-1 7 -8 8q-7 -1 -8 -8v-184h-144q-5 0 -7 -5q-2 -4 1 -8l94 -118v-117q1 -7 8 -8q7 1 8 8v120q0 3 -2 5l-85 107h270l-85 -107q-2 -2 -2 -5v-120q1 -7 8 -8q7 1 8 8v117l94 118q3 4 1 8q-2 5 -7 5v0zM144 288q15 1 16 16q-1 15 -16 16q-15 -1 -16 -16
q1 -15 16 -16v0zM16 192q-15 -1 -16 -16q1 -15 16 -16q15 1 16 16q-1 15 -16 16v0zM16 320q-15 -1 -16 -16q1 -15 16 -16q15 1 16 16q-1 15 -16 16v0zM16 448q-15 -1 -16 -16q1 -15 16 -16q15 1 16 16q-1 15 -16 16v0zM368 288q15 1 16 16q-1 15 -16 16q-15 -1 -16 -16
q1 -15 16 -16v0zM496 416q15 1 16 16q-1 15 -16 16q-15 -1 -16 -16q1 -15 16 -16v0zM496 320q-15 -1 -16 -16q1 -15 16 -16q15 1 16 16q-1 15 -16 16v0zM432 384q-15 -1 -16 -16q1 -15 16 -16q15 1 16 16q-1 15 -16 16v0zM496 192q-15 -1 -16 -16q1 -15 16 -16q15 1 16 16
q-1 15 -16 16v0zM80 256q-15 -1 -16 -16q1 -15 16 -16q15 1 16 16q-1 15 -16 16v0zM432 256q-15 -1 -16 -16q1 -15 16 -16q15 1 16 16q-1 15 -16 16v0zM80 384q-15 -1 -16 -16q1 -15 16 -16q15 1 16 16q-1 15 -16 16v0z" />
    <glyph glyph-name="star-shooting" unicode="&#x1f320;" 
d="M364 181l-105 15l-46 95q-8 13 -21 13t-21 -13l-47 -95l-104 -15q-15 -3 -19 -16q-4 -12 6 -24l76 -74l-17 -104q-2 -12 4 -19q7 -8 18 -8q5 0 10 3l94 49l94 -49q5 -3 10 -3q8 0 14 4q11 9 9 23l-18 104l76 74q10 11 6 24t-19 16v0zM366 153l-82 -80l19 -112q1 -4 -2 -7
q-2 -1 -5 -1q-1 0 -3 1l-101 53l-101 -54q-2 -1 -3 -1q-4 0 -6 3q-2 2 -1 5l19 113l-82 80q-3 4 -2 8q1 3 6 5l113 16l51 103q3 3 5 3q3 1 6 -4l52 -103l113 -16q5 -2 6 -5t-2 -7v0zM232 352q3 0 6 2l80 80q4 6 0 12q-6 4 -12 0l-80 -80q-4 -6 0 -12q2 -2 6 -2v0zM498 254
l-80 -80q-4 -6 0 -12q2 -2 6 -2t6 2l80 80q4 6 0 12q-6 4 -12 0v0zM322 258q2 -2 6 -2t6 2l176 176q4 6 0 12q-6 4 -12 0l-176 -176q-4 -6 0 -12v0z" />
    <glyph glyph-name="star-shooting" unicode="&#xe036;" 
d="M364 181l-105 15l-46 95q-8 13 -21 13t-21 -13l-47 -95l-104 -15q-15 -3 -19 -16q-4 -12 6 -24l76 -74l-17 -104q-2 -12 4 -19q7 -8 18 -8q5 0 10 3l94 49l94 -49q5 -3 10 -3q8 0 14 4q11 9 9 23l-18 104l76 74q10 11 6 24t-19 16v0zM366 153l-82 -80l19 -112q1 -4 -2 -7
q-2 -1 -5 -1q-1 0 -3 1l-101 53l-101 -54q-2 -1 -3 -1q-4 0 -6 3q-2 2 -1 5l19 113l-82 80q-3 4 -2 8q1 3 6 5l113 16l51 103q3 3 5 3q3 1 6 -4l52 -103l113 -16q5 -2 6 -5t-2 -7v0zM232 352q3 0 6 2l80 80q4 6 0 12q-6 4 -12 0l-80 -80q-4 -6 0 -12q2 -2 6 -2v0zM498 254
l-80 -80q-4 -6 0 -12q2 -2 6 -2t6 2l80 80q4 6 0 12q-6 4 -12 0v0zM322 258q2 -2 6 -2t6 2l176 176q4 6 0 12q-6 4 -12 0l-176 -176q-4 -6 0 -12v0z" />
    <glyph glyph-name="starfighter" unicode="&#xe037;" horiz-adv-x="640" 
d="M280 192q0 17 12 28v0q11 12 28 12t28 -12q12 -11 12 -28v-48q-2 -22 -24 -24h-32q-22 2 -24 24v48v0zM296 192v-48q1 -7 8 -8h32q7 1 8 8v48q-2 22 -24 24q-22 -2 -24 -24v0zM277 421q6 25 32 27h22q26 -2 32 -27l37 -251v-3v-159q0 -17 -12 -28q-11 -12 -28 -12h-80
q-17 0 -28 12q-12 11 -12 28v159v3l37 251v0zM309 432q-13 -1 -16 -14l-37 -250v-1v-159q2 -22 24 -24h80q22 2 24 24v159v0q-1 1 0 1l-37 250q-3 13 -16 14h-22v0zM608 320h16q7 -1 8 -8q-1 -7 -8 -8h-16v-304q-1 -7 -8 -8q-7 1 -8 8v28l-83 -35q-11 -23 -37 -25h-24v-24
q-1 -7 -8 -8q-7 1 -8 8v32q1 7 8 8h32q22 2 24 24v128q-2 22 -24 24h-32q-7 1 -8 8q1 7 8 8h32q17 0 28 -12q12 -11 12 -28v-8h80v176h-16q-7 1 -8 8q1 7 8 8h16v32q1 7 8 8q7 -1 8 -8v-32v0zM512 12l80 33v67h-80v-100v0zM32 352q1 7 8 8q7 -1 8 -8v-32h16q7 -1 8 -8
q-1 -7 -8 -8h-16v-176h80v8q0 17 12 28q11 12 28 12h32q7 -1 8 -8q-1 -7 -8 -8h-32q-22 -2 -24 -24v-128q2 -22 24 -24h32q7 -1 8 -8v-32q-1 -7 -8 -8q-7 1 -8 8v24h-24q-27 2 -37 25l-83 35v-28q-1 -7 -8 -8q-7 1 -8 8v304h-16q-7 1 -8 8q1 7 8 8h16v32v0zM128 112h-80v-67
l80 -33v100v0z" />
    <glyph glyph-name="starfighter-twin-ion-engine" unicode="&#xe038;" horiz-adv-x="576" 
d="M176 192q1 48 33 79v0q31 32 79 33q48 -1 79 -33q32 -31 33 -79q-1 -48 -33 -79q-31 -32 -79 -33q-48 1 -79 33q-32 31 -33 79v0zM316 208q-5 7 -12 12l-4 2l-4 2h-5h-3h-3h-5l-4 -2l-4 -2q-7 -5 -12 -12l-2 -4l-2 -4v-5v-3v-3v-5l2 -4l2 -4q5 -7 12 -12q4 -2 8 -3
q3 -1 5 0h3h3q2 -1 5 0q4 1 8 3q7 5 12 12q2 4 3 8t1 9q0 3 -1 7t-3 8v0v0zM226 119q23 -19 54 -23v49q-12 2 -20 8l-34 -34v0zM316 153q-9 -6 -20 -8v-49q32 4 53 23l-33 34v0zM335 184q-2 -11 -8 -20l34 -33q19 21 23 53h-49v0zM335 200h49q-4 31 -23 54l-34 -34
q6 -8 8 -20v0zM296 239q11 -2 20 -8l33 34q-21 20 -53 23v-49v0zM280 239v49q-31 -3 -54 -23l34 -34q8 6 20 8v0v0zM249 220l-34 34q-20 -23 -23 -54h49q2 12 8 20v0v0zM241 184h-49q3 -32 23 -53l34 33q-6 9 -8 20v0v0zM16 242l133 30q21 36 58 58q36 21 81 22
q45 -1 81 -22q37 -22 58 -58l133 -30v166q1 7 8 8q7 -1 8 -8v-432q-1 -7 -8 -8q-7 1 -8 8v167l-133 -31q-21 -36 -58 -58q-36 -21 -81 -22q-45 1 -81 22q-37 22 -58 58l-133 31v-167q-1 -7 -8 -8q-7 1 -8 8v432q1 7 8 8q7 -1 8 -8v-166v0zM436 253q12 -28 12 -61t-12 -61
l124 27v68l-124 27v0zM128 192q0 33 12 61l-124 -27v-68l124 -27q-12 28 -12 61v0v0zM288 48q61 2 102 42v0q40 41 42 102q-2 61 -42 102q-41 40 -102 42q-61 -2 -102 -42q-40 -41 -42 -102q2 -61 42 -102q41 -40 102 -42v0z" />
    <glyph glyph-name="starship" unicode="&#xe039;" horiz-adv-x="640" 
d="M368 193q1 33 23 56v0q23 23 57 24q34 -1 57 -24q22 -23 23 -56q-1 -35 -23 -57q-23 -23 -57 -24q-34 1 -57 24q-22 22 -23 57v0zM448 129q27 1 45 18v0q18 18 19 46q-1 26 -19 45q-18 18 -45 19q-27 -1 -45 -19q-18 -19 -19 -45q1 -28 19 -46q18 -17 45 -18v0zM640 193
q-2 -82 -56 -137v0q-54 -54 -136 -56q-64 1 -112 36q-49 35 -69 93l-140 19q-17 2 -28 15q-11 12 -11 30q0 16 11 28q11 13 28 15l36 5l-46 48h-77q-17 0 -28 11q-12 11 -12 29q0 16 12 28q11 11 28 12h160q17 -1 28 -12q12 -12 12 -28q0 -18 -12 -29q-11 -11 -28 -11h-61
l44 -45l84 11q20 58 69 93q48 35 112 36q82 -2 136 -56t56 -136v1v0zM448 369q-75 -2 -124 -52v0q-50 -50 -52 -124q2 -76 52 -125q49 -50 124 -52q75 2 124 52q50 49 52 125q-2 74 -52 124q-49 50 -124 52v0zM262 238l-133 -18q-23 -4 -25 -28q2 -23 25 -28l133 -19
q-7 23 -6 47q-1 25 6 46v0v0zM40 305h160q22 1 24 24q0 10 -7 17t-17 7h-160q-10 0 -17 -7t-7 -17q2 -23 24 -24v0zM0 56q0 17 12 28v0q11 12 28 12h160q17 0 28 -12q12 -11 12 -28t-12 -28q-11 -12 -28 -12h-160q-17 0 -28 12q-12 11 -12 28v0zM40 80q-22 -2 -24 -24
q2 -22 24 -24h160q22 2 24 24q-2 22 -24 24h-160v0zM480 193q0 -14 -9 -23v0q-9 -9 -23 -9t-23 9t-9 23q0 13 9 22t23 10q14 -1 23 -10t9 -22v0zM175 155l12 -10l-61 -63l-12 12l61 61v0z" />
    <glyph glyph-name="starship-freighter" unicode="&#xe03a;" horiz-adv-x="576" 
d="M64 192q1 15 16 16q15 -1 16 -16q-1 -15 -16 -16q-15 1 -16 16v0zM128 288q-1 -15 -16 -16q-15 1 -16 16q1 15 16 16q15 -1 16 -16v0zM96 96q1 15 16 16q15 -1 16 -16q-1 -15 -16 -16q-15 1 -16 16v0zM472 -8q-1 -20 -14 -34v0q-14 -13 -34 -14h-56q-25 1 -39 20l-12 17
q-46 -13 -93 -13q-63 1 -113 31q-51 29 -80 80q-30 50 -31 113q1 63 31 113q29 51 80 80q50 30 113 31q64 0 124 -23l208 -81q19 -9 20 -30v-41q0 -14 -9 -23t-23 -9h-97v-1q1 -8 1 -15q0 -10 -1 -16h97q14 -1 23 -10t9 -22v-43q-1 -21 -20 -30l-105 -41q20 -13 21 -39v0v0z
M381 56q47 53 51 128q-1 3 0 5v3v2q-1 3 0 5q-5 86 -63 142q-58 57 -145 59q-88 -2 -147 -61t-61 -147q2 -88 61 -147t147 -61q43 0 80 16l-69 97q-5 -1 -11 -1q-41 1 -68 28t-28 68q1 41 28 68t68 28q41 -1 68 -28t28 -68q0 -20 -8 -38l69 -98v0zM550 87q9 4 10 15v42
q-1 15 -16 16h-98q-11 -68 -55 -117l2 -3h31h2h3l121 47v0zM544 224q15 1 16 16v42q-1 10 -10 16l-192 74q35 -27 58 -65q23 -37 30 -83h98v0zM224 272q-34 -1 -57 -23v0q-22 -23 -23 -57q1 -34 23 -57q23 -22 57 -23q34 1 57 23q22 23 23 57q-1 34 -23 57q-23 22 -57 23v0z
M368 -40h56q14 0 23 9t9 23t-9 23t-23 9h-39l-81 114q-19 -27 -52 -38l90 -127q10 -13 26 -13v0v0z" />
    <glyph glyph-name="sword-laser" unicode="&#xe03b;" 
d="M503 439q-9 9 -22 9v0q-12 0 -21 -8l-239 -219q-5 -6 0 -12q5 -4 11 1l238 219q11 8 21 -1q9 -10 1 -21l-219 -239q-5 -6 0 -11q3 -2 6 -2t6 2l219 239q8 9 8 21q0 13 -9 22v0zM182 214q-6 4 -12 0q-4 -6 0 -12l7 -6l-75 -75l-3 2q-5 5 -11 0l-77 -77q-11 -10 -11 -27
q0 -16 11 -28l44 -44q12 -10 28 -11q16 0 27 11l77 77q2 2 2 6q0 3 -2 5l-2 3l75 75l6 -7q3 -2 6 -2t6 2q4 6 0 12l-96 96v0zM99 -41q-16 -13 -32 0l-44 44q-7 6 -7 16q0 9 7 16l71 71l76 -76l-71 -71v0zM174 49l-61 61l17 17l61 -61l-17 -17v0zM202 77l-61 61l18 18l61 -61
l-18 -18v0zM231 106l-61 61l18 18l61 -61l-18 -18v0z" />
    <glyph glyph-name="sword-laser-alt" unicode="&#xe03c;" 
d="M502 439q-9 9 -21 9v0q-12 0 -22 -8l-233 -215q-4 -5 0 -11q6 -5 11 -1l234 215q10 8 21 0q8 -11 0 -21l-167 -182q-5 -6 0 -12q2 -2 5 -2q4 0 6 3l168 182q8 10 8 22t-10 21v0zM297 192h-128q-10 0 -16 -7l-142 -142q-11 -11 -11 -27q0 -15 11 -26l42 -43q12 -11 27 -11
q16 0 27 11l206 206q10 11 5 25q-6 13 -21 14v0zM22 32l79 79l16 -15l-95 -95q-12 17 0 31v0zM33 -10l95 95l21 -21l-95 -95l-21 21v0zM96 -42q-15 -12 -31 0l95 95l15 -15l-79 -80v0zM302 164l-116 -115l-73 74l51 51q2 2 5 2h128q6 -1 6 -4q2 -3 -1 -8v0z" />
    <glyph glyph-name="swords-laser" unicode="&#xe03d;" horiz-adv-x="640" 
d="M357 324l114 104q11 8 21 0q8 -10 0 -21l-104 -114q-5 -5 0 -11q3 -2 6 -2t6 3l104 113q8 10 8 22t-9 21t-21 9t-22 -8l-113 -105q-5 -5 -1 -11q6 -5 11 0v0zM629 44l-206 206q-11 10 -25 5q-13 -6 -14 -21v-128q0 -10 7 -16l142 -142q11 -11 27 -11q15 0 26 11l43 42
q11 10 11 26t-11 28v0zM402 100q-2 2 -2 5v128q1 6 4 6q1 1 3 1t5 -2l115 -116l-74 -73l-51 51v0zM544 -42l-79 79l15 16l95 -95q-17 -11 -31 0v0zM586 -31l-95 95l21 21l95 -95l-21 -21v0zM617 1l-95 95l16 15l79 -79q7 -7 7 -16q0 -8 -7 -15v0zM175 128q-14 -2 -16 -15
q2 -14 16 -15q15 1 16 15q-1 13 -16 15v0zM210 222q-14 5 -25 -5l-22 -22q-11 7 -24 6q-13 -2 -23 -11q-19 -22 -5 -47l-100 -100q-11 -12 -11 -27t11 -27l42 -42q11 -11 27 -11v0v0q15 0 26 11l111 110q7 7 7 16v128q-1 15 -14 21v0zM207 73q0 -2 -2 -4l-111 -111
q-15 -12 -31 0l-42 43q-12 15 0 30l111 111l-5 6q-12 15 1 31q6 6 15 6t15 -6l6 -6l32 33q5 3 8 1q3 0 4 -6v-128h-1zM169 428l182 -168q6 -4 12 1q4 6 -1 11l-182 168q-10 8 -22 8t-21 -9t-9 -21t8 -22l215 -233q2 -3 6 -3q3 0 5 2q5 5 1 11l-216 234q-7 11 1 21q10 8 21 0
v0zM293 187l-43 -47q-4 -6 1 -11q2 -2 5 -2t6 2l43 47q4 6 -1 11q-6 5 -11 0v0z" />
    <glyph glyph-name="telescope" unicode="&#x1f52d;" horiz-adv-x="640" 
d="M638 238l-82 195q-3 8 -12 12t-18 1l-112 -46q-7 -3 -11 -12q-5 -8 -1 -19l75 -182l-65 -22q-6 -3 -4 -10q1 -6 10 -5l65 23q4 -7 12 -11q8 -5 18 -1l112 45q7 4 12 13q5 8 1 19v0zM620 223l-112 -46q-6 -1 -10 4l-81 195q-1 8 3 9l112 46q8 1 10 -4l81 -196q1 -6 -3 -8
v0zM243 99q-3 6 -10 5l-97 -34q-7 -2 -10 4l-40 96v0v0v0v0l-8 19q-2 6 5 10l293 144q7 4 4 11q-4 6 -11 3l-293 -143q-19 -11 -13 -31l6 -13l-55 -22q-13 -7 -14 -22q0 -4 2 -9l19 -46q7 -13 22 -15q4 1 9 2l54 23l5 -13q9 -18 30 -13l97 34q7 3 5 10v0zM45 73q-6 -1 -9 4
l-19 46q-2 8 4 10l54 23l24 -61l-54 -22v0zM355 101q20 16 21 43q-1 24 -16 40q-16 16 -39 16q-24 0 -40 -16t-16 -40q1 -27 21 -43l-68 -154q-4 -9 6 -11q5 0 7 5l68 151q10 -4 21 -4t21 4l68 -151q2 -5 6 -5q10 2 7 11l-67 154v0zM320 104q-17 1 -28 12v0q-12 11 -12 28
t12 28q11 12 28 12t28 -12q11 -11 11 -28t-11 -28t-28 -12v0z" />
    <glyph glyph-name="telescope" unicode="&#xe03e;" horiz-adv-x="640" 
d="M638 238l-82 195q-3 8 -12 12t-18 1l-112 -46q-7 -3 -11 -12q-5 -8 -1 -19l75 -182l-65 -22q-6 -3 -4 -10q1 -6 10 -5l65 23q4 -7 12 -11q8 -5 18 -1l112 45q7 4 12 13q5 8 1 19v0zM620 223l-112 -46q-6 -1 -10 4l-81 195q-1 8 3 9l112 46q8 1 10 -4l81 -196q1 -6 -3 -8
v0zM243 99q-3 6 -10 5l-97 -34q-7 -2 -10 4l-40 96v0v0v0v0l-8 19q-2 6 5 10l293 144q7 4 4 11q-4 6 -11 3l-293 -143q-19 -11 -13 -31l6 -13l-55 -22q-13 -7 -14 -22q0 -4 2 -9l19 -46q7 -13 22 -15q4 1 9 2l54 23l5 -13q9 -18 30 -13l97 34q7 3 5 10v0zM45 73q-6 -1 -9 4
l-19 46q-2 8 4 10l54 23l24 -61l-54 -22v0zM355 101q20 16 21 43q-1 24 -16 40q-16 16 -39 16q-24 0 -40 -16t-16 -40q1 -27 21 -43l-68 -154q-4 -9 6 -11q5 0 7 5l68 151q10 -4 21 -4t21 4l68 -151q2 -5 6 -5q10 2 7 11l-67 154v0zM320 104q-17 1 -28 12v0q-12 11 -12 28
t12 28q11 12 28 12t28 -12q11 -11 11 -28t-11 -28t-28 -12v0z" />
    <glyph glyph-name="temperature-arrow-down" unicode="&#xe03f;" 
d="M152 95v57q-1 7 -8 8q-7 -1 -8 -8v-57q-17 -3 -29 -16q-11 -13 -11 -31q1 -20 14 -34q14 -13 34 -14q20 1 34 14q13 14 14 34q0 18 -11 31q-12 13 -29 16v0zM144 16q-14 0 -23 9v0q-9 9 -9 23t9 23t23 9t23 -9t9 -23t-9 -23t-23 -9v0zM223 368q-1 34 -23 57v0
q-22 22 -56 23q-34 -1 -57 -23q-22 -23 -23 -57v-243q-31 -31 -32 -77q1 -48 33 -79q31 -32 79 -33q48 1 79 33q32 31 33 79q-1 46 -32 78l-1 242v0zM240 48q-1 -41 -28 -68v0q-27 -27 -68 -28q-41 1 -68 28t-28 68q0 38 27 66l5 6v248q1 27 19 45t45 19q27 -1 45 -19
t19 -45v-248l5 -5q27 -29 27 -67v0zM322 58l88 -88q6 -4 12 0l88 88q4 6 0 12q-6 4 -12 0l-74 -75v413q-1 7 -8 8q-7 -1 -8 -8v-413l-74 75q-3 2 -6 2t-6 -2q-4 -6 0 -12v0z" />
    <glyph glyph-name="temperature-arrow-up" unicode="&#xe040;" 
d="M152 95v281q-1 7 -8 8q-7 -1 -8 -8v-281q-17 -3 -29 -16q-11 -13 -11 -31q1 -20 14 -34q14 -13 34 -14q20 1 34 14q13 14 14 34q0 18 -11 31q-12 13 -29 16v0zM144 16q-14 0 -23 9v0q-9 9 -9 23t9 23t23 9t23 -9t9 -23t-9 -23t-23 -9v0zM223 368q-1 34 -23 57v0
q-22 22 -56 23q-34 -1 -57 -23q-22 -23 -23 -57v-243q-31 -31 -32 -77q1 -48 33 -79q31 -32 79 -33q48 1 79 33q32 31 33 79q-1 46 -32 78l-1 242v0zM240 48q-1 -41 -28 -68v0q-27 -27 -68 -28q-41 1 -68 28t-28 68q0 38 27 66l5 6v248q1 27 19 45t45 19q27 -1 45 -19
t19 -45v-248l5 -5q27 -29 27 -67v0zM510 326l-88 88q-6 4 -12 0l-88 -88q-4 -6 0 -12q6 -4 12 0l74 75v-413q1 -7 8 -8q7 1 8 8v413l74 -75q2 -2 6 -2t6 2q4 6 0 12v0z" />
    <glyph glyph-name="trailer" unicode="&#xe041;" horiz-adv-x="640" 
d="M48 400q-14 0 -23 -9v0q-9 -9 -9 -23v-256q0 -14 9 -23t23 -9h16q7 -1 8 -8q-1 -7 -8 -8h-16q-20 1 -34 14q-13 14 -14 34v256q1 20 14 34q14 13 34 14h432q20 -1 34 -14q13 -14 14 -34v-288h104q7 -1 8 -8q-1 -7 -8 -8h-312q-7 1 -8 8q1 7 8 8h192v288q0 14 -9 23t-23 9
h-432v0zM72 352q7 -1 8 -8v-144q-1 -7 -8 -8q-7 1 -8 8v144q1 7 8 8v0zM168 352q7 -1 8 -8v-144q-1 -7 -8 -8q-7 1 -8 8v144q1 7 8 8v0zM264 352q7 -1 8 -8v-144q-1 -7 -8 -8q-7 1 -8 8v144q1 7 8 8v0zM360 352q7 -1 8 -8v-208q-1 -7 -8 -8q-7 1 -8 8v208q1 7 8 8v0z
M456 352q7 -1 8 -8v-208q-1 -7 -8 -8q-7 1 -8 8v208q1 7 8 8v0zM288 64q-1 -41 -28 -68v0q-27 -27 -68 -28q-41 1 -68 28t-28 68q1 41 28 68t68 28q41 -1 68 -28t28 -68v0zM192 144q-34 -1 -57 -23v0q-22 -23 -23 -57q1 -34 23 -57q23 -22 57 -23q34 1 57 23q22 23 23 57
q-1 34 -23 57q-23 22 -57 23v0z" />
    <glyph glyph-name="transporter" unicode="&#xe042;" 
d="M248 136v-96q1 -7 8 -8q7 1 8 8v96q-1 7 -8 8q-7 -1 -8 -8v0zM256 352q20 1 34 14v0q13 14 14 34q-1 20 -14 34q-14 13 -34 14q-20 -1 -34 -14q-13 -14 -14 -34q1 -20 14 -34q14 -13 34 -14v0zM256 432q14 0 23 -9v0q9 -9 9 -23t-9 -23t-23 -9t-23 9t-9 23t9 23t23 9v0z
M127 161q15 0 25 11l31 38l1 -170q1 -7 8 -8q7 1 8 8v169q0 10 -9 15q-8 3 -13 0t-6 -5l-32 -37q-10 -11 -22 -2q-11 10 -2 22l70 85q15 17 37 17h66q22 0 37 -17l70 -85q9 -12 -2 -22q-12 -8 -22 2l-32 37q-1 2 -6 5t-13 0q-9 -5 -9 -15v-169q1 -7 8 -8q7 1 8 8v169l31 -37
q11 -12 25 -12q11 0 20 7q11 9 12 22t-7 24l-71 84q-19 22 -49 23h-66q-29 -1 -49 -23l-71 -85q-8 -10 -7 -23t12 -22q9 -7 19 -6v0zM504 408h-32v32q-1 7 -8 8q-7 -1 -8 -8v-32h-32q-7 -1 -8 -8q1 -7 8 -8h32v-32q1 -7 8 -8q7 1 8 8v32h32q7 1 8 8q-1 7 -8 8v0zM376 0h-240
q-17 0 -28 -12q-12 -11 -12 -28v-16q1 -7 8 -8q7 1 8 8v16q2 22 24 24h240q22 -2 24 -24v-16q1 -7 8 -8q7 1 8 8v16q0 17 -12 28q-11 12 -28 12v0zM88 344h-32v32q-1 7 -8 8q-7 -1 -8 -8v-32h-32q-7 -1 -8 -8q1 -7 8 -8h32v-32q1 -7 8 -8q7 1 8 8v32h32q7 1 8 8q-1 7 -8 8v0
z" />
    <glyph glyph-name="transporter-1" unicode="&#xe043;" 
d="M320 128h-128q-7 -1 -8 -8q1 -7 8 -8h128q7 1 8 8q-1 7 -8 8v0zM127 161q15 0 25 11l31 38l1 -42q1 -7 8 -8q7 1 8 8v41q0 10 -9 15q-8 3 -13 0t-6 -5l-32 -37q-10 -11 -22 -2q-11 10 -2 22l70 85q15 17 37 17h66q22 0 37 -17l70 -85q9 -12 -2 -22q-12 -8 -22 2l-32 37
q-1 2 -6 5t-13 0q-9 -5 -9 -15v-41q1 -7 8 -8q7 1 8 8v41l31 -38q11 -11 25 -11q11 0 20 7q11 9 12 22t-7 24l-71 84q-19 22 -49 23h-66q-29 -1 -49 -23l-71 -85q-8 -10 -7 -23t12 -22q9 -7 19 -6v0zM256 352q20 1 34 14v0q13 14 14 34q-1 20 -14 34q-14 13 -34 14
q-20 -1 -34 -14q-13 -14 -14 -34q1 -20 14 -34q14 -13 34 -14v0zM256 432q14 0 23 -9v0q9 -9 9 -23t-9 -23t-23 -9t-23 9t-9 23t9 23t23 9v0zM504 280h-32v32q-1 7 -8 8q-7 -1 -8 -8v-32h-32q-7 -1 -8 -8q1 -7 8 -8h32v-32q1 -7 8 -8q7 1 8 8v32h32q7 1 8 8q-1 7 -8 8v0z
M376 0h-240q-17 0 -28 -12q-12 -11 -12 -28v-16q1 -7 8 -8q7 1 8 8v16q2 22 24 24h240q22 -2 24 -24v-16q1 -7 8 -8q7 1 8 8v16q0 17 -12 28q-11 12 -28 12v0zM320 64h-128q-7 -1 -8 -8q1 -7 8 -8h128q7 1 8 8q-1 7 -8 8v0zM88 88h-32v32q-1 7 -8 8q-7 -1 -8 -8v-32h-32
q-7 -1 -8 -8q1 -7 8 -8h32v-32q1 -7 8 -8q7 1 8 8v32h32q7 1 8 8q-1 7 -8 8v0z" />
    <glyph glyph-name="transporter-2" unicode="&#xe044;" 
d="M320 128h-128q-7 -1 -8 -8q1 -7 8 -8h128q7 1 8 8q-1 7 -8 8v0zM104 176h304q7 1 8 8q-1 7 -8 8h-304q-7 -1 -8 -8q1 -7 8 -8v0zM256 352q20 1 34 14v0q13 14 14 34q-1 20 -14 34q-14 13 -34 14q-20 -1 -34 -14q-13 -14 -14 -34q1 -20 14 -34q14 -13 34 -14v0zM256 432
q14 0 23 -9v0q9 -9 9 -23t-9 -23t-23 -9t-23 9t-9 23t9 23t23 9v0zM130 224q4 0 6 3l50 60q15 17 37 17h66q22 0 37 -17l50 -60q2 -3 6 -3q11 3 6 13l-50 60q-19 22 -49 23h-66q-30 -1 -49 -23l-50 -60q-5 -10 6 -13v0zM320 64h-128q-7 -1 -8 -8q1 -7 8 -8h128q7 1 8 8
q-1 7 -8 8v0zM376 0h-240q-17 0 -28 -12q-12 -11 -12 -28v-16q1 -7 8 -8q7 1 8 8v16q2 22 24 24h240q22 -2 24 -24v-16q1 -7 8 -8q7 1 8 8v16q0 17 -12 28q-11 12 -28 12v0zM504 88h-32v32q-1 7 -8 8q-7 -1 -8 -8v-32h-32q-7 -1 -8 -8q1 -7 8 -8h32v-32q1 -7 8 -8q7 1 8 8
v32h32q7 1 8 8q-1 7 -8 8v0zM88 408h-32v32q-1 7 -8 8q-7 -1 -8 -8v-32h-32q-7 -1 -8 -8q1 -7 8 -8h32v-32q1 -7 8 -8q7 1 8 8v32h32q7 1 8 8q-1 7 -8 8v0z" />
    <glyph glyph-name="transporter-3" unicode="&#xe045;" 
d="M192 304h128q7 1 8 8q-1 7 -8 8h-128q-7 -1 -8 -8q1 -7 8 -8v0zM256 352q20 1 34 14v0q13 14 14 34q-1 20 -14 34q-14 13 -34 14q-20 -1 -34 -14q-13 -14 -14 -34q1 -20 14 -34q14 -13 34 -14v0zM256 432q14 0 23 -9v0q9 -9 9 -23t-9 -23t-23 -9t-23 9t-9 23t9 23t23 9v0
zM504 408h-32v32q-1 7 -8 8q-7 -1 -8 -8v-32h-32q-7 -1 -8 -8q1 -7 8 -8h32v-32q1 -7 8 -8q7 1 8 8v32h32q7 1 8 8q-1 7 -8 8v0zM136 240h240q7 1 8 8q-1 7 -8 8h-240q-7 -1 -8 -8q1 -7 8 -8v0zM192 112h128q7 1 8 8q-1 7 -8 8h-128q-7 -1 -8 -8q1 -7 8 -8v0zM408 192h-304
q-7 -1 -8 -8q1 -7 8 -8h304q7 1 8 8q-1 7 -8 8v0zM192 48h128q7 1 8 8q-1 7 -8 8h-128q-7 -1 -8 -8q1 -7 8 -8v0zM376 0h-240q-17 0 -28 -12q-12 -11 -12 -28v-16q1 -7 8 -8q7 1 8 8v16q2 22 24 24h240q22 -2 24 -24v-16q1 -7 8 -8q7 1 8 8v16q0 17 -12 28q-11 12 -28 12v0z
M88 312h-32v32q-1 7 -8 8q-7 -1 -8 -8v-32h-32q-7 -1 -8 -8q1 -7 8 -8h32v-32q1 -7 8 -8q7 1 8 8v32h32q7 1 8 8q-1 7 -8 8v0z" />
    <glyph glyph-name="transporter-empty" unicode="&#xe046;" horiz-adv-x="320" 
d="M320 -40v-16q-1 -7 -8 -8q-7 1 -8 8v16q-2 22 -24 24h-240q-22 -2 -24 -24v-16q-1 -7 -8 -8q-7 1 -8 8v16q0 17 12 28q11 12 28 12h240q17 0 28 -12q12 -11 12 -28v0z" />
    <glyph glyph-name="ufo" unicode="&#x1f6f8;" horiz-adv-x="640" 
d="M168 211l-6 -5q-2 2 -2 4v1q-4 75 43 123t117 50q70 -2 117 -50t42 -123q1 -3 -1 -5l-6 5q7 -7 6 -5v0v0v0l-1 -1l-2 -2q-2 -2 -6 -5q-10 -6 -28 -16q-37 -19 -121 -22q-84 3 -121 22q-18 10 -27 16q-5 3 -7 5q-1 1 -2 1q0 1 -1 1l1 1h-1v0v0q-1 -2 5 5h1v0zM464 215
q2 66 -40 109v0q-41 43 -104 44q-63 -1 -105 -44t-39 -109q1 -2 5 -3q8 -7 25 -15q34 -18 114 -21q80 3 114 21q17 8 25 15q4 1 5 3v0v0zM96 136q0 14 9 23v0q9 9 23 9t23 -9t9 -23t-9 -23t-23 -9t-23 9t-9 23v0zM128 152q-15 -1 -16 -16q1 -15 16 -16q15 1 16 16
q-1 15 -16 16v0zM288 88q0 14 9 23v0q9 9 23 9t23 -9t9 -23t-9 -23t-23 -9t-23 9t-9 23v0zM320 104q-15 -1 -16 -16q1 -15 16 -16q15 1 16 16q-1 15 -16 16v0zM544 136q0 -14 -9 -23v0q-9 -9 -23 -9t-23 9t-9 23t9 23t23 9t23 -9t9 -23v0zM512 120q15 1 16 16q-1 15 -16 16
q-15 -1 -16 -16q1 -15 16 -16v0zM46 199q-30 -27 -30 -54q0 -26 22 -48q23 -24 65 -42q41 -18 97 -28q56 -11 120 -11t120 11q56 10 97 28q42 18 65 42q22 22 22 48q-1 27 -30 54q-30 26 -85 45q-6 3 -5 10q3 6 11 5q56 -19 90 -48q34 -30 35 -66q-1 -34 -27 -60
q-25 -26 -69 -45t-101 -29q-58 -11 -123 -11q-66 0 -123 11q-57 10 -101 29t-69 45q-27 26 -27 60q1 36 35 66q34 29 90 48q8 1 11 -5q1 -7 -5 -10q-55 -19 -85 -45v0v0z" />
    <glyph glyph-name="ufo" unicode="&#xe047;" horiz-adv-x="640" 
d="M168 211l-6 -5q-2 2 -2 4v1q-4 75 43 123t117 50q70 -2 117 -50t42 -123q1 -3 -1 -5l-6 5q7 -7 6 -5v0v0v0l-1 -1l-2 -2q-2 -2 -6 -5q-10 -6 -28 -16q-37 -19 -121 -22q-84 3 -121 22q-18 10 -27 16q-5 3 -7 5q-1 1 -2 1q0 1 -1 1l1 1h-1v0v0q-1 -2 5 5h1v0zM464 215
q2 66 -40 109v0q-41 43 -104 44q-63 -1 -105 -44t-39 -109q1 -2 5 -3q8 -7 25 -15q34 -18 114 -21q80 3 114 21q17 8 25 15q4 1 5 3v0v0zM96 136q0 14 9 23v0q9 9 23 9t23 -9t9 -23t-9 -23t-23 -9t-23 9t-9 23v0zM128 152q-15 -1 -16 -16q1 -15 16 -16q15 1 16 16
q-1 15 -16 16v0zM288 88q0 14 9 23v0q9 9 23 9t23 -9t9 -23t-9 -23t-23 -9t-23 9t-9 23v0zM320 104q-15 -1 -16 -16q1 -15 16 -16q15 1 16 16q-1 15 -16 16v0zM544 136q0 -14 -9 -23v0q-9 -9 -23 -9t-23 9t-9 23t9 23t23 9t23 -9t9 -23v0zM512 120q15 1 16 16q-1 15 -16 16
q-15 -1 -16 -16q1 -15 16 -16v0zM46 199q-30 -27 -30 -54q0 -26 22 -48q23 -24 65 -42q41 -18 97 -28q56 -11 120 -11t120 11q56 10 97 28q42 18 65 42q22 22 22 48q-1 27 -30 54q-30 26 -85 45q-6 3 -5 10q3 6 11 5q56 -19 90 -48q34 -30 35 -66q-1 -34 -27 -60
q-25 -26 -69 -45t-101 -29q-58 -11 -123 -11q-66 0 -123 11q-57 10 -101 29t-69 45q-27 26 -27 60q1 36 35 66q34 29 90 48q8 1 11 -5q1 -7 -5 -10q-55 -19 -85 -45v0v0z" />
    <glyph glyph-name="ufo-beam" unicode="&#xe048;" horiz-adv-x="576" 
d="M304 192q-1 -15 -16 -16q-15 1 -16 16q1 15 16 16q15 -1 16 -16v0zM80 256q1 15 16 16q15 -1 16 -16q-1 -15 -16 -16q-15 1 -16 16v0v0zM496 256q-1 -15 -16 -16q-15 1 -16 16q1 15 16 16q15 -1 16 -16v0zM431 350q63 -14 102 -39q41 -26 43 -64q-1 -28 -24 -49
q-24 -22 -63 -37q-81 -32 -201 -33q-120 1 -201 33q-39 15 -62 37q-24 21 -25 49q2 38 43 64q39 25 102 39q17 45 55 71q39 26 88 27q49 -1 87 -27q39 -26 56 -71v0v0zM137 287q-2 24 3 46q-55 -14 -88 -36q-36 -24 -36 -50q0 -19 19 -37q21 -19 58 -34q77 -31 195 -32
q118 1 195 32q37 15 58 34q19 18 19 37q0 26 -36 50q-33 22 -87 36q4 -22 2 -46q0 -3 -2 -5l-6 6q8 -7 6 -6v0v0v0h-1q0 -1 -1 -2v0q-1 0 -1 -1q-2 -1 -6 -4q-9 -6 -26 -14q-35 -19 -115 -21q-78 2 -114 21q-17 8 -25 14q-4 3 -6 4q0 1 -1 1v0q-1 1 -1 2h-1v0v0v0q-2 -1 6 6
l-6 -6q-2 2 -2 5v0v0zM152 292q2 -2 5 -4q7 -5 23 -13q32 -16 108 -19q76 3 108 19q16 8 23 13q3 2 5 4q2 60 -38 99q-39 40 -98 41q-59 -1 -98 -41q-40 -39 -38 -99v0v0zM15 -60q-4 -6 -11 -3q-6 4 -3 12l88 152q4 5 11 2q6 -4 3 -11l-88 -152v0zM575 -51q3 -8 -3 -12
q-7 -3 -11 3l-88 152q-3 7 2 11q8 3 12 -2l88 -152v0z" />
    <glyph glyph-name="user-alien" unicode="&#xe04a;" horiz-adv-x="448" 
d="M252 192h24q25 1 42 18t18 42v8q-1 11 -12 12h-24q-25 -1 -42 -18t-18 -42v-8q1 -11 12 -12v0zM256 212q0 19 13 31v0q12 13 31 13h20v-4q0 -19 -13 -31q-12 -13 -31 -13h-20v4v0zM196 192q11 1 12 12v8q-1 25 -18 42t-42 18h-24q-11 -1 -12 -12v-8q1 -25 18 -42t42 -18
h24v0zM128 252v4h20q19 0 31 -13q13 -12 13 -31v-4h-20q-19 0 -31 13q-13 12 -13 31v0zM207 70q8 -6 17 -5q9 0 17 6q22 16 56 47q33 32 59 72q27 41 28 84q-2 82 -47 128q-45 45 -113 46q-68 -1 -113 -46q-45 -46 -47 -128q1 -43 28 -84q26 -40 59 -72q34 -32 56 -48v0z
M224 432q65 -1 104 -44v0q39 -43 40 -114q-2 -41 -28 -80q-27 -39 -59 -69q-32 -29 -49 -42q-4 -3 -8 -2q-4 0 -8 2q-17 13 -49 43q-32 29 -59 68q-26 39 -28 80q1 71 40 114t104 44v0zM317 96q-8 -1 -9 -8q1 -7 7 -8q51 -3 83 -34q33 -31 34 -78q-2 -15 -18 -16h-380
q-16 1 -18 16q1 47 34 78q32 31 82 34q7 1 8 8q-2 8 -8 8q-57 -3 -94 -39t-38 -88q0 -14 10 -24q9 -9 24 -9h380q15 0 24 9q10 10 10 24q-1 52 -38 88t-93 39v0z" />
    <glyph glyph-name="user-robot" unicode="&#xe04b;" horiz-adv-x="448" 
d="M200 288q0 -17 -12 -28v0q-11 -12 -28 -12t-28 12q-12 11 -12 28t12 28q11 12 28 12t28 -12q12 -11 12 -28v0zM160 264q22 2 24 24q-2 22 -24 24q-22 -2 -24 -24q2 -22 24 -24v0zM248 288q0 17 12 28v0q11 12 28 12t28 -12q12 -11 12 -28t-12 -28q-11 -12 -28 -12t-28 12
q-12 11 -12 28v0zM288 312q-22 -2 -24 -24q2 -22 24 -24q22 2 24 24q-2 22 -24 24v0zM240 200h56q7 -1 8 -8q-1 -7 -8 -8h-56q-7 1 -8 8q1 7 8 8v0zM152 184q-7 1 -8 8q1 7 8 8h56q7 -1 8 -8q-1 -7 -8 -8h-56v0zM224 448q7 -1 8 -8v-56h80q31 -1 51 -21t21 -51v-112
q-1 -31 -21 -51t-51 -21h-176q-31 1 -51 21t-21 51v112q1 31 21 51t51 21h80v56q1 7 8 8v0zM136 368q-24 -1 -40 -16v0q-15 -16 -16 -40v-112h32q7 -1 8 -8q-1 -7 -8 -8h-30q6 -18 20 -29q15 -11 34 -11h176q19 0 34 11q14 11 20 29h-30q-7 1 -8 8q1 7 8 8h32v112
q-1 24 -16 40q-16 15 -40 16h-176v0zM16 312q1 7 8 8q7 -1 8 -8v-112q-1 -7 -8 -8q-7 1 -8 8v112v0zM424 320q7 -1 8 -8v-112q-1 -7 -8 -8q-7 1 -8 8v112q1 7 8 8v0zM48 -64q-20 1 -34 14v0q-13 14 -14 34v16q1 41 28 68t68 28h256q41 -1 68 -28t28 -68v-16q-1 -20 -14 -34
q-14 -13 -34 -14h-352v0zM16 -16q0 -14 9 -23v0q9 -9 23 -9h48v48q0 14 9 23t23 9h192q14 0 23 -9t9 -23v-48h48q14 0 23 9t9 23v16q-1 34 -23 57q-23 22 -57 23h-256q-34 -1 -57 -23q-22 -23 -23 -57v-16v0zM112 -48h40v64h-24q-15 -1 -16 -16v-48v0zM168 16v-64h48v64h-48
v0zM232 16v-64h48v64h-48v0zM296 16v-64h40v48q-1 15 -16 16h-24v0z" />
    <glyph glyph-name="user-visor" unicode="&#xe04c;" horiz-adv-x="448" 
d="M273 144h-98q-74 -2 -124 -49q-49 -48 -51 -119q0 -17 12 -28q12 -12 29 -12h366q17 0 29 12q12 11 12 28q-2 71 -51 119q-50 47 -124 49v0zM407 -48h-366q-23 2 -25 24q2 64 47 107t112 45h98q67 -2 112 -45t47 -107q-2 -22 -25 -24v0zM319 88q-6 0 -9 -4
q-32 -37 -38 -94q0 -8 6 -12q7 -3 13 1q26 20 32 22q4 -4 15 -20q4 -5 10 -5l4 1q8 3 8 11q-2 56 -32 95q-2 4 -9 5v0zM330 17l-2 2l-7 -1q-9 -3 -32 -20q7 43 30 71q20 -29 24 -68q-8 12 -13 16v0zM102 285q12 -41 45 -67v0q32 -25 77 -26q45 1 77 26q33 26 46 67
q20 11 21 35v32q0 17 -11 28t-28 12q-18 25 -45 41q-27 15 -60 15t-61 -15q-27 -16 -45 -41q-16 -1 -27 -12t-11 -28v-32q1 -24 22 -35v0zM224 208q-36 1 -64 20v0q-27 20 -40 52h208q-13 -32 -40 -52q-28 -19 -64 -20v0zM224 432q52 -2 85 -40h-170q32 38 85 40v0zM96 352
q2 22 24 24h208q22 -2 24 -24v-32q-2 -22 -24 -24h-208q-22 2 -24 24v32v0zM128 328h192q7 1 8 8q-1 7 -8 8h-192q-7 -1 -8 -8q1 -7 8 -8v0z" />
    <glyph glyph-name="vacuum" unicode="&#xe04d;" horiz-adv-x="640" 
d="M368 96q-34 -1 -57 -23v0q-22 -23 -23 -57q1 -34 23 -57q23 -22 57 -23q34 1 57 23q22 23 23 57q-1 34 -23 57q-23 22 -57 23v0zM368 -48q-27 1 -45 19v0q-18 18 -19 45q1 27 19 45t45 19q27 -1 45 -19t19 -45q-1 -27 -19 -45t-45 -19v0zM640 336q-1 48 -33 79v0
q-31 32 -79 33h-193q-49 -1 -86 -30q-36 -29 -47 -77l-72 -325h-74q-24 -1 -40 -16q-15 -16 -16 -40q2 -22 24 -24h152q22 2 24 24v32q-2 22 -24 24h-31l73 323q9 41 41 67q32 25 76 26h193q41 -1 68 -28t28 -68q-1 -34 -21 -60q-21 -25 -54 -34q-23 36 -59 57
q-37 21 -82 21h-16q-17 0 -28 -12q-12 -11 -12 -28v-152q1 -7 8 -8q7 1 8 8v152q2 22 24 24h16q65 -2 107 -45q43 -42 45 -107v-176q-2 -22 -24 -24h-88q-7 -1 -8 -8q1 -7 8 -8h88q17 0 28 12q12 11 12 28v176q-1 42 -19 76q37 11 60 40q22 29 23 68v0zM176 0q7 -1 8 -8v-32
q-1 -7 -8 -8h-152q-7 1 -8 8q0 17 12 28q11 12 28 12h120v0z" />
    <glyph glyph-name="vacuum-robot" unicode="&#xe04e;" 
d="M141 205q-6 5 -11 0q-5 -6 0 -11l128 -128q2 -3 5 -3q4 0 6 3q5 5 0 11l-128 128v0zM213 213q-6 4 -12 0q-4 -6 0 -12l64 -64q3 -2 6 -2t6 2q4 6 0 12l-64 64v0zM134 133q-6 5 -12 0q-4 -5 0 -11l64 -64q3 -2 6 -2t6 2q4 6 0 11l-64 64v0zM256 360q-40 0 -75 -18v0
q-35 -17 -59 -49q-5 -6 1 -11q6 -4 11 1q47 60 122 61q65 -2 107 -45q43 -42 45 -107q-1 -75 -61 -122q-5 -5 -1 -11q2 -3 6 -3q3 0 5 2q32 24 49 59q18 35 18 75q-2 71 -49 119q-48 47 -119 49v0zM256 448q-71 -1 -129 -35v0q-58 -34 -92 -92v0q-34 -58 -35 -129
q1 -71 35 -129t92 -92t129 -35q71 1 129 35t92 92t35 129q-1 71 -35 129t-92 92t-129 35v0zM256 -48q-67 1 -121 33v0q-54 32 -86 86v0q-32 54 -33 121q1 67 33 121t86 86t121 33q67 -1 121 -33t86 -86t33 -121q-1 -67 -33 -121t-86 -86t-121 -33v0z" />
    <glyph glyph-name="window-frame" unicode="&#x1fa9f;" 
d="M504 -48h-24v456q0 17 -12 28q-11 12 -28 12h-368q-17 0 -28 -12q-12 -11 -12 -28v-456h-24q-7 -1 -8 -8q1 -7 8 -8h496q7 1 8 8q-1 7 -8 8v0zM440 432q22 -2 24 -24v-208h-200v232h176v0zM48 408q2 22 24 24h176v-232h-200v208v0zM48 -48v232h200v-232h-200v0zM264 -48
v232h200v-232h-200v0z" />
    <glyph glyph-name="window-frame" unicode="&#xe04f;" 
d="M504 -48h-24v456q0 17 -12 28q-11 12 -28 12h-368q-17 0 -28 -12q-12 -11 -12 -28v-456h-24q-7 -1 -8 -8q1 -7 8 -8h496q7 1 8 8q-1 7 -8 8v0zM440 432q22 -2 24 -24v-208h-200v232h176v0zM48 408q2 22 24 24h176v-232h-200v208v0zM48 -48v232h200v-232h-200v0zM264 -48
v232h200v-232h-200v0z" />
    <glyph glyph-name="window-frame-open" unicode="&#xe050;" 
d="M504 -48h-24v168q-1 7 -8 8q-7 -1 -8 -8v-168h-416v168q-1 7 -8 8q-7 -1 -8 -8v-168h-24q-7 -1 -8 -8q1 -7 8 -8h496q7 1 8 8q-1 7 -8 8v0zM40 160h432q7 1 8 8v240q0 17 -12 28q-11 12 -28 12h-368q-17 0 -28 -12q-12 -11 -12 -28v-240q1 -7 8 -8v0zM264 432h176
q22 -2 24 -24v-232h-200v256v0zM48 408q2 22 24 24h176v-256h-200v232v0z" />
    <glyph glyph-name="coffin-cross" unicode="&#xe051;" horiz-adv-x="384" 
d="M375 333l-108 106q-10 9 -23 9h-104q-13 0 -23 -9l-108 -106q-12 -13 -8 -31l87 -342q7 -23 32 -24h144q25 1 32 24l87 342q4 18 -8 31v0zM280 -36q-4 -11 -16 -12h-144q-13 1 -16 12l-88 342q-1 9 5 15l107 106q5 5 12 5h104q7 0 12 -5l107 -106q7 -6 5 -15l-88 -342v0z
M280 264h-80v80q-1 7 -8 8q-7 -1 -8 -8v-80h-80q-7 -1 -8 -8q1 -7 8 -8h80v-144q1 -7 8 -8q7 1 8 8v144h80q7 1 8 8q-1 7 -8 8v0z" />
    <glyph glyph-name="folder-arrow-down" unicode="&#xe053;" 
d="M464 352h-192l-55 55q-9 9 -22 9h-147q-20 -1 -34 -14q-13 -14 -14 -34v-352q1 -20 14 -34q14 -13 34 -14h416q20 1 34 14q13 14 14 34v288q-1 20 -14 34q-14 13 -34 14v0zM496 16q0 -14 -9 -23v0q-9 -9 -23 -9h-416q-14 0 -23 9t-9 23v352q0 14 9 23t23 9h140
q13 0 23 -9l54 -55h199q14 0 23 -9t9 -23v-288v0zM250 58q3 -2 6 -2t6 2l95 95q4 6 0 12q-6 4 -12 0l-81 -82v173q-1 7 -8 8q-7 -1 -8 -8v-173l-82 83q-3 2 -6 2t-6 -2q-4 -6 0 -12l96 -96v0z" />
    <glyph glyph-name="folder-arrow-up" unicode="&#xe054;" 
d="M464 352h-192l-55 55q-9 9 -22 9h-147q-20 -1 -34 -14q-13 -14 -14 -34v-352q1 -20 14 -34q14 -13 34 -14h416q20 1 34 14q13 14 14 34v288q-1 20 -14 34q-14 13 -34 14v0zM496 16q0 -14 -9 -23v0q-9 -9 -23 -9h-416q-14 0 -23 9t-9 23v352q0 14 9 23t23 9h140
q13 0 23 -9l54 -55h199q14 0 23 -9t9 -23v-288v0zM262 262q-3 2 -6 2t-6 -2l-96 -96q-4 -6 0 -12q6 -4 12 0l82 83v-173q1 -7 8 -8q7 1 8 8v173l82 -83q2 -2 6 -2t6 2q4 6 0 12l-96 96v0z" />
    <glyph glyph-name="user-unlock" unicode="&#xe058;" horiz-adv-x="640" 
d="M224 192q54 1 91 37v0q36 37 37 91q-1 54 -37 91q-37 36 -91 37q-54 -1 -91 -37q-36 -37 -37 -91q1 -54 37 -91q37 -36 91 -37v0zM224 432q48 -1 79 -33v0q32 -31 33 -79q-1 -48 -33 -79q-31 -32 -79 -33q-48 1 -79 33q-32 31 -33 79q1 48 33 79q31 32 79 33v0zM320 -48
h-279q-23 2 -25 24q2 64 47 107t112 45h98q23 0 45 -6q7 -2 10 5q1 8 -6 10q-24 7 -49 7h-98q-74 -2 -124 -49q-49 -48 -51 -119q0 -17 12 -28q12 -12 29 -12h279q7 1 8 8q-1 7 -8 8v0zM576 160h-128v80q1 20 14 34q14 13 34 14q20 -1 34 -14q13 -14 14 -34v-8q1 -7 8 -8
q7 1 8 8v8q-1 27 -19 45t-45 19q-27 -1 -45 -19t-19 -45v-80h-16q-27 -1 -45 -19t-19 -45v-96q1 -27 19 -45t45 -19h160q27 1 45 19t19 45v96q-1 27 -19 45t-45 19v0zM624 0q-1 -20 -14 -34v0q-14 -13 -34 -14h-160q-20 1 -34 14q-13 14 -14 34v96q1 20 14 34q14 13 34 14
h160q20 -1 34 -14q13 -14 14 -34v-96v0zM496 64q-15 -1 -16 -16q1 -15 16 -16q15 1 16 16q-1 15 -16 16v0z" />
    <glyph glyph-name="bacteria" unicode="&#xe059;" horiz-adv-x="640" 
d="M128 257q-14 0 -23 -9v0q-9 -10 -9 -23q0 -14 9 -24q9 -9 23 -9t23 9t9 23t-9 23q-9 10 -23 10v0zM127 209q-15 2 -16 15q2 14 17 16q15 -1 16 -16q-1 -14 -17 -15v0zM208 328q-22 -2 -24 -24q2 -22 24 -24q22 2 24 24q-2 22 -24 24v0zM208 296q-7 1 -8 8q1 7 8 8
q7 -1 8 -8q-1 -7 -8 -8v0zM633 197l-26 2q0 1 1 2v1q1 38 -25 64l12 16q4 6 -1 11q-7 4 -12 -1l-12 -17q-16 11 -36 13q-19 1 -36 -6l-8 21q-4 6 -11 4q-6 -3 -4 -10l9 -22q-25 -17 -34 -47l-26 4q-7 0 -9 -7q0 -7 7 -9l25 -3q-4 -38 -30 -61l-16 21q-5 5 -12 1
q-5 -5 -1 -11l16 -21q-19 -12 -43 -14q-8 -1 -16 -3l-11 25q-4 6 -11 4q-6 -4 -3 -11l10 -24q-32 -18 -41 -54l-24 2q-7 0 -9 -7q0 -7 7 -9l24 -2v0v-1v-6q4 -35 29 -55l-15 -21q-4 -6 1 -11q7 -4 12 2l15 21q20 -11 44 -10q11 1 22 3l5 -28q-1 -6 9 -7q7 2 6 9l-5 29
q32 7 60 22l15 -26q2 -6 10 -3q7 4 4 10l-15 26q28 17 51 39l21 -19q6 -5 12 0q4 6 -1 12l-21 19q21 24 35 53l26 -11q7 -2 10 4q3 7 -4 11l-25 11q12 29 17 62q2 -1 14 -2q11 -1 13 -1q7 1 8 8q0 7 -7 8v0zM372 -16q-32 -1 -50 19v0q-19 20 -19 45q1 26 17 43q17 18 42 21
q42 4 70 32q28 27 32 69q1 20 18 40t51 19q27 -3 43 -22q17 -20 16 -47q-9 -90 -69 -150q-61 -60 -151 -69v0zM236 242q19 12 43 14q8 1 16 3l11 -25q4 -6 11 -4q6 4 4 11l-11 24q32 18 41 54l24 -2q7 0 9 7q0 7 -7 9l-24 2v0v1v6q-4 35 -29 55l15 21q4 6 -1 11q-7 4 -12 -2
l-15 -21q-20 11 -44 10q-11 -1 -22 -3l-5 28q1 6 -10 7q-6 -2 -5 -9l5 -29q-32 -7 -60 -22l-15 26q-2 6 -10 3q-7 -4 -4 -10l15 -26q-28 -17 -51 -39l-21 19q-7 5 -12 0q-4 -6 1 -12l21 -19q-21 -24 -35 -53l-26 11q-7 2 -10 -4q-3 -7 4 -11l25 -11q-12 -29 -17 -62
q-2 1 -14 2q-11 1 -13 1q-7 -1 -8 -8q0 -7 7 -8l26 -3l-1 -1v-1q-1 -38 25 -64l-12 -16q-4 -6 1 -11q7 -4 12 1l12 17q16 -11 36 -13q19 -1 36 6l8 -21q4 -6 11 -4q6 3 4 10l-9 22q25 17 34 47l26 -4q7 0 9 7q0 7 -7 9l-25 3q4 37 30 61l16 -21q5 -5 12 -1q5 5 1 11l-16 21
v0zM176 171q-1 -20 -18 -40v0q-17 -20 -51 -19q-27 3 -43 22q-17 20 -16 47q9 90 69 150q61 60 151 69q32 1 50 -19q19 -20 19 -45q0 -26 -17 -43q-17 -18 -42 -21q-42 -4 -70 -32q-28 -27 -32 -69v0zM416 96q-14 0 -23 -9v0q-9 -9 -9 -23t9 -23t23 -9t23 9t9 23t-9 23
t-23 9v0zM415 48q-15 2 -16 15q2 14 17 17q15 -1 16 -16q-1 -15 -17 -16v0z" />
    <glyph glyph-name="bacterium" unicode="&#xe05a;" horiz-adv-x="576" 
d="M538 287l-27 4q1 17 1 21v1q-2 19 -8 31q-5 12 -6 13l24 15q6 4 3 10q-5 6 -11 3l-24 -15q-14 18 -29 28q-16 9 -24 11l9 29q1 7 -6 10q-7 1 -9 -6l-9 -29q-13 3 -28 3q-14 -1 -37 -5l-5 30q-2 7 -10 6q-7 -2 -6 -9l6 -30q-32 -7 -62 -19l-12 28q-4 6 -11 4q-6 -4 -4 -11
l13 -28q-30 -14 -56 -33l-18 25q-5 5 -11 1q-5 -5 -2 -11l19 -24q-26 -20 -47 -45l-23 19q-6 4 -11 -1q-5 -6 1 -10l22 -19q-20 -25 -35 -54l-26 11q-7 3 -11 -3q-2 -7 4 -11l26 -12q-14 -30 -23 -62l-27 6q-7 1 -9 -6q-1 -7 6 -8l27 -6q-1 -3 -1 -5q-2 -6 -3 -12
q-2 -16 -4 -33v-16l-26 -6q-6 -2 -6 -9q0 -5 9 -6l26 4q3 -17 11 -31q9 -16 22 -27l-15 -20q-4 -6 2 -11q6 -4 11 1l14 20q24 -15 42 -18q19 -3 24 -2v0l2 -25q2 -7 9 -7q7 1 8 8l-2 26q35 6 60 31l20 -20q6 -4 11 1q4 5 -1 11l-20 19q21 28 23 61l30 -3q8 0 9 7q0 7 -7 8
l-29 4q7 32 27 56l21 -19q6 -4 11 1q4 6 -1 11l-20 19q22 21 53 30l6 -27q0 -5 9 -6q7 2 6 9l-5 28h4q3 1 7 1q28 3 51 18l17 -22q5 -5 11 -2q6 5 2 11l-17 22l12 12q17 20 23 45l27 -5q9 1 9 6q1 8 -6 10v0zM407 208q-55 -5 -93 -42v0q-37 -38 -42 -93q-4 -39 -31 -63
q-27 -25 -65 -26h-7q-40 4 -66 34q-25 30 -23 69q7 85 50 153q42 68 110 110t153 50q50 1 76 -28q25 -30 27 -61q2 -40 -23 -69q-25 -30 -66 -34v0zM192 176q-20 -1 -34 -14v0q-13 -14 -14 -34q1 -20 14 -34q14 -13 34 -14q20 1 34 14q13 14 14 34q0 20 -14 34
q-14 13 -34 14v0zM192 97q-14 0 -22 9v0q-9 9 -9 22q0 14 9 22q9 9 22 9t22 -9t9 -22q-2 -29 -31 -31v0zM272 272q-14 0 -23 -9v0q-9 -9 -9 -23t9 -23t23 -9t23 9t9 23t-9 23t-23 9v0zM272 224q-15 1 -16 16q1 15 16 16q15 -1 16 -16q-1 -15 -16 -16v0z" />
    <glyph glyph-name="box-tissue" unicode="&#xe05b;" 
d="M464 224h-16q-7 -1 -8 -8q1 -7 8 -8h16q14 0 23 -9t9 -23v-112h-480v112q0 14 9 23t23 9h16q7 1 8 8q-1 7 -8 8h-16q-20 -1 -34 -14q-13 -14 -14 -34v-208q0 -14 9 -23t23 -9h448q14 0 23 9t9 23v208q-1 20 -14 34q-14 13 -34 14v0zM496 -32q-1 -15 -16 -16h-448
q-15 1 -16 16v80h480v-80v0zM128 144h256q6 0 8 5l64 192q1 4 -1 8q-3 3 -7 3h-109q-21 0 -37 12q-16 11 -22 31q-9 24 -29 38q-20 15 -46 15h-141q-4 0 -6 -3q-3 -3 -2 -7l64 -288q2 -6 8 -6v0zM205 432q21 0 37 -12v0q16 -11 22 -31q9 -24 29 -38q20 -15 46 -15h98
l-59 -176h-244l-60 272h131v0z" />
    <glyph glyph-name="hand-holding-medical" unicode="&#xe05c;" horiz-adv-x="576" 
d="M567 124q-12 16 -32 19t-36 -8l-118 -87h-118q-7 1 -8 8q1 7 8 8h78q16 0 27 10q12 9 15 23q2 19 -9 33q-13 14 -31 14h-160q-44 -1 -79 -28l-44 -36h-52q-7 -1 -8 -8q1 -7 8 -8h58l49 39q30 25 69 25h159q11 0 18 -9q7 -8 6 -19q-5 -19 -26 -20h-78q-22 -2 -24 -24
q0 -10 7 -17t17 -7h123l122 90q11 7 24 6q13 -2 21 -13t6 -24t-13 -21l-135 -99q-24 -19 -57 -19h-346q-7 -1 -8 -8q1 -7 8 -8h346q37 0 67 22l135 99q15 12 19 32q3 19 -8 35v0zM176 272h48v-48q0 -14 9 -23t23 -9h32q14 0 23 9t9 23v48h48q14 0 23 9t9 23v32q0 14 -9 23
t-23 9h-48v48q0 14 -9 23t-23 9h-32q-14 0 -23 -9t-9 -23v-48h-48q-14 0 -23 -9t-9 -23v-32q0 -14 9 -23t23 -9v0zM160 336q1 15 16 16h64v64q1 15 16 16h32q15 -1 16 -16v-64h64q15 -1 16 -16v-32q-1 -15 -16 -16h-64v-64q-1 -15 -16 -16h-32q-15 1 -16 16v64h-64
q-15 1 -16 16v32v0z" />
    <glyph glyph-name="hand-sparkles" unicode="&#xe05d;" horiz-adv-x="640" 
d="M72 232q1 -7 8 -8q7 1 8 8v64h64q7 1 8 8q-1 7 -8 8h-64v64q-1 7 -8 8q-7 -1 -8 -8v-64h-64q-7 -1 -8 -8q1 -7 8 -8h64v-64v0zM304 32q7 1 8 8v32h32q7 1 8 8q-1 7 -8 8h-32v32q-1 7 -8 8q-7 -1 -8 -8v-32h-32q-7 -1 -8 -7q1 -7 8 -9h32v-32q1 -7 8 -8v0zM631 24h-63v64
q-1 7 -8 8q-7 -1 -8 -8v-64h-64q-7 -1 -8 -8q1 -7 8 -8h64v-64q1 -7 8 -8q7 1 8 8v64h64q7 1 8 8q0 7 -9 8v0zM480 -22q-2 0 -9 -4v0q-10 -6 -29 -14v0q-20 -7 -50 -8h-63q-76 1 -131 54l-108 108q-10 11 -10 25q1 13 9 21q9 8 21 8q13 0 22 -9l62 -61q2 -2 6 -2q7 1 8 8
v272q2 22 24 24q22 -2 24 -24v-168q2 -22 24 -24q22 2 24 24v200q2 22 24 24q22 -2 24 -24v-200q2 -22 24 -24q22 2 24 24v168q2 22 24 24q22 -2 24 -24v-168q2 -22 24 -24q22 2 24 24v104q2 22 24 24q22 -2 24 -24v-176q1 -7 8 -8q7 1 8 8v176q0 17 -12 28q-11 12 -29 12
q-17 0 -28 -12q-11 -11 -12 -28v-104q-1 -7 -8 -8q-7 1 -8 8v168q-1 17 -12 28q-11 12 -28 12t-28 -12q-12 -11 -12 -28v-168q-1 -7 -8 -8q-7 1 -8 8v200q-1 17 -12 28q-11 12 -28 12q-16 0 -28 -12q-11 -11 -11 -28v-200q-1 -7 -8 -8q-8 1 -8 8v168q-1 17 -12 28
q-11 12 -28 12t-29 -12q-11 -11 -11 -28v-253l-49 48q-14 13 -33 13q-10 1 -27 -8q-17 -10 -19 -37q0 -20 15 -36l108 -108q59 -58 142 -59h63q37 1 65 13q29 12 31 21q-1 7 -8 8v0z" />
    <glyph glyph-name="hands-bubbles" unicode="&#xe05e;" horiz-adv-x="576" 
d="M448 288q1 -20 14 -34v0q14 -13 34 -14q20 1 34 14q13 14 14 34q-1 20 -14 34q-14 13 -34 14q-20 -1 -34 -14q-13 -14 -14 -34v0zM496 320q14 0 23 -9v0q9 -9 9 -22t-9 -22q-9 -10 -23 -10t-23 9t-9 23q0 13 9 22t23 9v0zM112 32q-20 -1 -34 -14v0q-13 -13 -14 -33
q1 -20 14 -34q14 -14 34 -14t34 14q13 13 14 33q-1 20 -14 34q-14 13 -34 14v0zM112 -48q-14 0 -23 9v0q-9 9 -9 23t9 23t23 9t23 -9t9 -23t-9 -23t-23 -9v0zM503 144q10 14 7 32q-2 14 -13 23t-26 9h-126q11 16 6 36q-10 27 -38 28q-6 0 -12 -2l-108 -33q-44 -15 -70 -51
t-27 -82v-32q1 -8 9 -8v0q6 1 7 8v32q1 41 23 73q23 31 62 45l108 33q3 1 7 1q17 -1 23 -17q4 -21 -16 -30l-47 -17h199q19 -1 25 -19q1 -12 -6 -20q-7 -9 -18 -9h-128q-7 -1 -8 -8q1 -7 8 -8h159q19 -1 25 -19q1 -12 -6 -20q-7 -9 -18 -9h-160q-7 -1 -8 -8q1 -7 8 -8h127
q19 -1 25 -19q1 -12 -6 -20q-7 -9 -18 -9h-128q-7 -1 -8 -8q1 -7 8 -8h95q19 -1 25 -19q1 -12 -6 -20q-7 -9 -18 -9h-208q-19 0 -37 6q-6 2 -9 -4v0q-3 -8 4 -11q21 -7 42 -7h207q13 0 23 7q21 15 17 41q-1 9 -8 16q19 0 31 15q12 14 8 33q0 9 -7 16q19 0 31 15q12 14 8 33
q-6 29 -39 32v0zM63 94q-14 26 -15 57v113q3 22 25 23q22 -2 24 -24l2 -50l60 190q6 17 23 18h3q11 -2 17 -11t3 -21l-35 -111q-2 -9 7 -11q6 1 8 6l45 141q6 17 23 18h2q12 -2 18 -11t3 -20l-32 -102q-1 -11 10 -10q4 2 5 6l22 70q6 16 23 17h3q11 -2 17 -11t3 -20l-12 -38
q-1 -8 7 -10v0q6 0 8 6l2 6q6 16 23 17h3q12 -2 18 -11q5 -9 2 -20l-7 -23q-1 -3 1 -7v0q8 -8 14 2l7 22q4 12 1 24q-9 25 -34 29h-5q-6 0 -13 -2q5 18 -4 34q-11 15 -30 18h-4q-7 0 -13 -2q3 10 1 19q-7 29 -35 33h-4q-28 -2 -38 -28q-11 14 -29 17h-4q-28 -2 -38 -29
l-39 -121q-11 15 -32 16q-17 0 -29 -11q-11 -11 -12 -28v-113q1 -35 17 -65q4 -5 9 -3q5 1 6 7q0 2 -1 4v0zM432 352q20 1 34 14v0q13 14 14 34q-1 20 -14 34q-14 13 -34 14q-20 -1 -34 -14q-13 -14 -14 -34q1 -20 14 -34q14 -13 34 -14v0zM432 432q14 0 23 -9v0q9 -9 9 -23
t-9 -23t-23 -9t-23 9t-9 23t9 23t23 9v0z" />
    <glyph glyph-name="handshake-simple-slash" unicode="&#xe05f;" horiz-adv-x="640" 
d="M283 368q7 1 8 8q-2 7 -8 8q-39 0 -73 -12l15 -12q27 8 58 8v0zM358 298l-26 -24l13 -10l23 22q5 5 1 11q-5 5 -11 1v0zM281 315l52 47q7 6 16 6h9q86 -1 148 -62l3 -2h123q7 1 8 8q-1 7 -8 8h-117q-66 63 -157 64h-9q-15 0 -27 -10l-53 -49l12 -10v0zM391 11
q-8 -9 -20 -11q-12 -1 -21 6l-18 16l-6 4l-5 -5q-15 -18 -38 -21q-23 -2 -41 12l-93 84h-141q-7 0 -8 -8q1 -7 8 -8h135l89 -80q20 -16 45 -16h8q25 3 43 21l12 -11q14 -11 33 -10q18 2 30 17l17 20l-13 10l-16 -20v0zM632 96h-76l20 -16h56q7 1 8 8q-1 8 -8 8v0zM8 305h55
l-20 16h-35q-7 -1 -8 -8q1 -7 8 -8v0zM13 446q-2 2 -5 2q-4 0 -6 -3q-4 -6 1 -11l623 -496q4 -2 5 -2q4 0 6 3q4 6 -1 11l-623 496v0z" />
    <glyph glyph-name="handshake-slash" unicode="&#xe060;" horiz-adv-x="640" 
d="M391 11q-8 -9 -20 -11q-12 -1 -21 6l-24 20l-5 -5q-15 -18 -38 -21q-23 -2 -41 12l-93 84h-45v176l-16 12v-196q-2 -22 -23 -24h-49v240h48l-21 17l-35 -1q-7 0 -8 -8v-256q1 -7 8 -8h56q31 2 38 32h41l89 -80q20 -16 45 -16h8q25 3 43 21l12 -11q14 -11 33 -10
q18 2 30 17l17 20l-13 10l-16 -20v0zM283 368q7 1 8 8q-1 7 -8 8q-38 0 -73 -12l15 -12q28 8 58 8v0zM13 446q-2 2 -5 2q-4 0 -6 -3q-4 -6 1 -11l623 -496q4 -2 5 -2q4 0 6 3q4 6 -1 11l-623 496v0zM632 320h-117q-66 63 -158 64h-8q-15 0 -27 -10l-53 -49l12 -10l52 47
q7 6 16 6h9q86 -1 148 -62l3 -2h27v-192l16 -12v204h72v-240h-27l20 -16h15q7 1 8 8v256q-1 7 -8 8v0zM369 297q-5 5 -11 1l-26 -24l13 -10l23 22q5 6 1 11v0z" />
    <glyph glyph-name="head-side-cough" unicode="&#xe061;" horiz-adv-x="640" 
d="M608 144q15 1 16 16q-2 15 -15 16q-15 -1 -16 -16q1 -15 15 -16v0zM608 80q-15 -1 -16 -16q1 -15 16 -16q15 1 16 16q-1 15 -16 16v0zM608 -16q-15 -1 -16 -16q1 -15 16 -16q15 1 16 16q-1 15 -16 16v0zM544 32q-15 -1 -16 -16q1 -15 16 -16q15 1 16 16q-1 15 -16 16v0z
M544 128q-15 -1 -16 -16q1 -15 16 -16q15 1 16 16q-1 15 -16 16v0zM480 80q-15 -1 -16 -16q1 -15 16 -16q15 1 16 16q-1 15 -16 16v0zM368 256q0 17 -12 28v0q-11 12 -28 12t-28 -12q-12 -11 -12 -28t12 -28q11 -12 27 -12q18 0 29 12q12 11 12 28v0zM304 256q2 22 24 24
q22 -2 24 -24q-2 -22 -24 -24q-22 2 -24 24v0zM477 173q-12 29 -26 73v0q-12 34 -24 65v0q-11 32 -23 49q-29 41 -74 64q-44 24 -96 24h-38q-80 -2 -135 -53q-56 -52 -61 -132q-1 -45 16 -83q17 -39 48 -67v-169q1 -7 8 -8q7 1 8 8v176l-5 5q-28 26 -44 59q-15 34 -15 72
q2 75 52 124q49 50 124 52h42q47 0 88 -22q41 -21 69 -59q10 -16 22 -47t22 -63q15 -44 27 -73q4 -9 -1 -17q-4 -7 -14 -7h-48v-32h-78q-19 0 -33 -12q-14 -11 -16 -30q-2 -22 12 -37q14 -16 36 -17h77q-12 -30 -45 -32h-80v-40q0 -7 7 -8q7 1 8 8v24h64q21 0 38 12
q16 12 23 31q3 8 -2 14q-4 7 -13 7h-76q-13 0 -22 8t-11 21q-1 15 8 25q10 10 24 10h80q15 1 16 16v16h32q18 1 27 15q9 13 2 30v0z" />
    <glyph glyph-name="head-side-cough-slash" unicode="&#xe062;" horiz-adv-x="640" 
d="M560 112q-2 15 -15 16q-11 -1 -15 -10l24 -19q5 4 6 13v0zM608 80q-12 -1 -15 -13l22 -17q8 4 9 14q-1 15 -16 16v0zM608 144q15 1 16 16q-2 15 -15 16q-15 -1 -16 -16q1 -15 15 -16v0zM16 256q0 39 16 73l-13 10q-17 -35 -19 -76q-1 -45 16 -83q17 -39 48 -67v-169
q1 -7 8 -8q7 1 8 8v176l-5 5q-28 26 -44 59q-15 34 -15 72v0zM636 -50l-623 496q-2 2 -5 2q-4 0 -6 -3q-4 -6 1 -11l623 -496q4 -2 5 -2q4 0 6 3q6 6 -1 11v0zM192 432h42q47 0 88 -22q41 -21 69 -59q10 -16 22 -47t22 -63q13 -40 25 -68l20 -16q1 8 -3 16q-12 29 -26 73
q-12 34 -24 65q-11 32 -23 49q-29 41 -74 64q-44 24 -96 24h-38q-35 0 -67 -12l14 -11q23 7 49 7v0zM397 32h-76q-13 0 -22 8t-11 21q-1 15 8 25q10 10 24 11l5 -1l-17 14q-30 -9 -36 -40q-2 -22 12 -37q14 -16 36 -17h77q-12 -30 -45 -32h-80v-40q0 -7 7 -8q7 1 8 8v24h64
q21 0 38 12q16 12 23 31q3 8 -2 14q-4 7 -13 7v0z" />
    <glyph glyph-name="head-side-mask" unicode="&#xe063;" 
d="M320 256q0 -17 12 -28v0q11 -12 28 -12t28 12q12 11 12 28t-12 28q-11 12 -27 12q-18 0 -29 -12q-12 -11 -12 -28v0zM384 256q-2 -22 -24 -24q-22 2 -24 24q2 22 24 24q22 -2 24 -24v0zM511 141h-1v0q-2 3 -7 3h-250l-226 166q20 54 66 88q46 33 107 34h58q49 0 92 -23
q43 -22 71 -62q12 -17 24 -47q12 -31 23 -63t21 -56q2 -5 7 -5q10 2 8 11q-9 23 -20 54l-1 1v1q-12 34 -24 65q-12 30 -24 48q-31 44 -78 68q-46 24 -99 24h-58q-85 -2 -141 -59q-57 -56 -59 -141q0 -42 17 -80q16 -38 47 -67v-157q1 -7 7 -8q7 1 7 8v164l-2 3
q-30 26 -46 62q-16 35 -16 75q1 24 5 46l217 -160v-190q1 -7 7 -8h146q24 0 42 14q19 13 27 35l49 149q6 3 4 6v1v0zM474 72h-154q-7 -1 -7 -8q1 -7 7 -8h149l-15 -48h-133q-7 -1 -7 -8q1 -7 7 -8h128l-1 -2q-7 -17 -22 -27q-14 -11 -32 -11h-139v176h237l-18 -56v0z" />
    <glyph glyph-name="head-side-virus" unicode="&#xe064;" 
d="M509 177q-12 26 -25 65v0l-1 1v1q-12 34 -24 64q-12 31 -24 49q-31 43 -78 67q-46 24 -99 24h-58q-85 -2 -141 -59q-57 -56 -59 -141q0 -42 17 -80q16 -38 47 -67v-157q1 -7 8 -8q7 1 8 8v164l-3 3q-29 26 -45 62q-16 35 -16 75q2 78 54 130t130 54h58q49 0 92 -23
q43 -22 71 -62q12 -17 24 -47q12 -31 23 -63v-1q14 -39 26 -66q5 -12 -2 -23t-20 -11h-40v-64q-1 -24 -16 -40q-16 -16 -40 -16h-72v-72q1 -7 8 -8q7 1 8 8v56h56q31 0 51 21q20 20 21 51v48h24q21 0 33 18t4 39v0zM208 273q-15 -1 -16 -16q2 -14 15 -15q14 1 16 16
q0 13 -15 15v0zM272 209q-14 -1 -15 -16q1 -15 16 -16q15 1 16 16q-3 14 -17 16v0zM314 116q7 -6 17 -6v0q9 0 17 6q14 17 0 34l-9 9q-11 14 -5 26q4 13 22 15h12q22 2 24 24q-2 22 -24 24h-12q-18 2 -22 15q-6 12 5 26l9 9q14 16 0 33q-17 15 -34 0l-9 -8q-14 -11 -26 -5
q-13 4 -15 22v12q-2 22 -24 24q-22 -2 -24 -24v-12q-2 -18 -15 -22q-12 -6 -26 5l-8 8q-17 15 -34 0q-14 -16 0 -33l8 -9q11 -14 5 -26q-4 -13 -22 -15h-12q-22 -2 -24 -24q2 -22 24 -24h12q18 -2 22 -15q6 -12 -5 -26l-8 -9q-15 -16 0 -33q7 -7 16 -7q10 0 17 7l9 8
q14 11 26 5q13 -4 15 -22v-12q2 -22 24 -24q22 2 24 24v12q2 18 15 22q12 6 26 -5l9 -9v0zM273 145q-24 -11 -25 -37v-12q-1 -7 -8 -8q-7 1 -8 8v12q-1 26 -25 37q-7 3 -15 3q-16 0 -28 -12l-9 -8q-5 -5 -11 0q-5 5 0 11l8 9q18 19 9 43q-11 24 -37 25h-12q-7 1 -8 8
q1 7 8 8h12q26 1 37 25q9 24 -9 43l-8 9q-5 5 0 11q6 5 11 0l9 -8q19 -18 43 -9q24 11 25 37v12q1 7 8 8q7 -1 8 -8v-12q1 -26 25 -37q24 -9 43 9l9 8q6 5 11 0t0 -11l-8 -9q-18 -19 -9 -43q11 -24 37 -25h12q7 -1 8 -8q-1 -7 -8 -8h-12q-26 -1 -37 -25q-9 -24 9 -43l8 -9
q5 -5 0 -11q-5 -5 -11 0l-9 8q-19 18 -43 9v0z" />
    <glyph glyph-name="house-chimney-user" unicode="&#xe065;" horiz-adv-x="576" 
d="M352 224q-1 -27 -19 -45v0q-18 -18 -45 -19q-27 1 -45 19t-19 45q1 27 19 45t45 19q27 -1 45 -19t19 -45v0zM288 272q-20 -1 -34 -14v0q-13 -14 -14 -34q1 -20 14 -34q14 -13 34 -14q20 1 34 14q13 14 14 34q-1 20 -14 34q-14 13 -34 14v0zM320 128q34 -1 57 -23v0
q22 -23 23 -57q-1 -15 -16 -16h-192q-15 1 -16 16q1 34 23 57q23 22 57 23h64v0zM256 112q-27 -1 -45 -19v0q-18 -18 -19 -45h192q-1 27 -19 45t-45 19h-64v0zM384 366v26q2 22 24 24h80q22 -2 24 -24v-140l61 -54q6 -5 0 -11q-4 -6 -10 0l-51 44v-231q-1 -27 -19 -45
t-45 -19h-320q-27 1 -45 19t-19 45v231l-51 -44q-6 -6 -11 0q-4 6 1 11l280 248q5 4 10 0l91 -80v0zM288 429l-208 -184v-245q1 -20 14 -34q14 -13 34 -14h320q20 1 34 14q13 14 14 34v245l-112 100v0v-1l-96 85v0zM496 266v126q-1 7 -8 8h-80q-7 -1 -8 -8v-41l96 -85v0z
" />
    <glyph glyph-name="house-laptop" unicode="&#xe066;" horiz-adv-x="640" 
d="M235 446q5 4 10 0l232 -200q5 -5 1 -11q-5 -5 -11 -1l-51 44v-54h-16v67l-160 138l-160 -138v-203q0 -17 12 -28q11 -12 28 -12h152v-16h-152q-24 1 -40 16q-15 16 -16 40v190l-51 -44q-6 -4 -11 1q-4 6 1 11l232 200v0zM304 248v-27q-9 -3 -16 -9v36q-1 7 -8 8h-80
q-7 -1 -8 -8v-80q1 -7 8 -8h72v-16h-72q-22 2 -24 24v80q2 22 24 24h80q22 -2 24 -24v0zM336 192h224q14 0 23 -9t9 -23v-160h32q15 -1 16 -16q-1 -20 -14 -34q-14 -13 -34 -14h-288q-20 1 -34 14q-13 14 -14 34q1 15 16 16h32v160q0 14 9 23t23 9v0zM560 176h-224
q-15 -1 -16 -16v-160h256v160q-1 15 -16 16v0zM272 -16q0 -14 9 -23v0q9 -9 23 -9h288q14 0 23 9t9 23h-352v0z" />
    <glyph glyph-name="lungs-virus" unicode="&#xe067;" horiz-adv-x="640" 
d="M433 60l-8 9q-5 5 -5 10t1 7t4 6t11 4h12q14 0 23 9t9 23t-9 23t-23 9h-12q-7 0 -11 4q-3 4 -4 6t-1 7t5 10l8 9q9 10 10 22q0 13 -10 23q-9 9 -22 9q-14 0 -23 -9l-9 -8q-6 -6 -11 -5q-14 0 -16 16v13q0 13 -9 23q-9 9 -23 9t-23 -9q-9 -10 -9 -23v-13q-2 -16 -16 -16
q-5 -1 -11 5l-9 8q-9 9 -22 9q-14 0 -23 -9q-9 -10 -9 -23q0 -12 9 -22l8 -9q5 -5 5 -10t-1 -7q-1 -6 -15 -9h-12q-14 0 -23 -9q-9 -10 -9 -23q0 -14 9 -23t23 -9h12q7 0 11 -4q3 -4 4 -6t1 -7t-5 -10l-8 -9q-9 -9 -10 -23q1 -13 10 -22t22 -10q14 1 23 10l9 8q6 6 11 5
q14 -1 16 -17v-12q0 -14 9 -23t23 -9t23 9t9 23v12q2 16 16 16q5 1 11 -5l9 -8q9 -9 23 -10q13 1 22 10t10 22q-1 14 -10 23v0zM422 26q-5 -4 -12 -4q-6 0 -11 4l-8 9q-11 9 -23 9q-13 0 -22 -9q-10 -8 -10 -23v-12q-1 -15 -16 -16q-15 1 -16 16v12q0 15 -10 23q-9 9 -22 9
q-12 0 -23 -9l-8 -9q-5 -4 -12 -4q-6 0 -11 4q-9 12 0 23l9 8q14 17 7 35q-8 19 -30 20h-12q-15 1 -16 16q1 15 16 17h12q22 1 30 20q7 18 -7 35l-9 7q-9 12 0 23q5 5 12 4q6 0 11 -4l8 -9q11 -9 23 -9q13 0 22 9q10 8 10 23v12q1 14 16 15q15 -1 16 -15v-12q0 -15 10 -23
q9 -9 22 -9q12 0 23 9l8 9q5 5 12 5q6 0 11 -5q9 -11 0 -23l-9 -8q-14 -17 -7 -35q8 -18 30 -20h12q15 -1 16 -16q-1 -15 -16 -16h-12q-22 -2 -30 -20q-7 -18 7 -35l9 -8q9 -12 0 -23v0zM288 177q-15 -1 -16 -16q1 -15 16 -16q15 1 16 15q-1 14 -16 17v0zM352 113
q-15 -2 -16 -15q1 -14 16 -16q15 1 16 15q-1 14 -16 16v0zM192 -25q-6 -3 -13 -4l-56 -16q-41 -10 -75 15q-31 24 -32 63q0 13 3 26q31 117 95 220l5 8v0q13 23 26 36t37 13q25 0 41 -16t17 -39q1 -8 8 -8t8 8q-1 30 -22 50t-52 21q-30 -1 -47 -17t-30 -39l-5 -8
q-65 -106 -96 -225q-4 -15 -4 -30q1 -47 38 -76q28 -21 62 -21q14 0 28 4l55 15q8 2 16 6q6 3 4 10q-4 7 -11 4v0zM320 321q7 1 8 8v111q0 7 -9 8q-7 -1 -7 -8v-111q1 -7 8 -8v0zM636 63q-31 119 -96 225l-5 8q-13 23 -30 39t-47 17q-32 -1 -52 -21q-21 -20 -22 -50
q1 -8 8 -8t8 8q1 23 17 39q16 15 41 16q24 0 37 -13t26 -36v0l5 -8q64 -103 95 -220q3 -13 3 -26q-1 -39 -32 -63q-34 -25 -75 -15l-56 15q-7 2 -13 5q-7 3 -11 -4q-2 -7 4 -10q8 -4 16 -6l55 -15q14 -4 28 -4q34 0 62 21q37 29 38 76q0 15 -4 30v0z" />
    <glyph glyph-name="people-arrows" unicode="&#xe068;" horiz-adv-x="576" 
d="M480 320q27 1 45 19v0q18 18 19 45q-1 27 -19 45t-45 19q-27 -1 -45 -19t-19 -45q1 -27 19 -45t45 -19v0zM480 432q20 -1 34 -14v0q13 -14 14 -34q-1 -20 -14 -34q-14 -13 -34 -14q-20 1 -34 14q-13 14 -14 34q1 20 14 34q14 13 34 14v0zM504 288h-48q-34 -1 -56 -27
q-4 -6 1 -11q6 -4 11 1q17 20 44 21h48q24 -1 40 -16q15 -16 16 -40v-88q-2 -22 -24 -24q-7 -1 -8 -8v-120q-2 -22 -24 -24h-48q-22 2 -24 24v88q-1 7 -8 8q-7 -1 -8 -8v-88q0 -17 12 -28q11 -12 28 -12h48q17 0 28 12q12 11 12 28v113q14 3 23 14q9 10 9 25v88
q-1 31 -21 51t-51 21v0zM445 150l-80 72q-5 4 -11 -1q-4 -5 1 -11l64 -58h-262l64 58q5 5 1 11q-6 5 -11 1l-80 -72q-6 -8 0 -12l80 -72q5 -4 11 1q4 6 -1 11l-64 58h262l-64 -58q-5 -5 -1 -11q6 -5 11 -1l80 72q6 7 0 12v0zM96 320q27 1 45 19v0q18 18 19 45q-1 27 -19 45
t-45 19q-27 -1 -45 -19t-19 -45q1 -27 19 -45t45 -19v0zM96 432q20 -1 34 -14v0q13 -14 14 -34q-1 -20 -14 -34q-14 -13 -34 -14q-20 1 -34 14q-13 14 -14 34q1 20 14 34q14 13 34 14v0zM152 72q-7 -1 -8 -8v-88q-2 -22 -24 -24h-48q-22 2 -24 24v120q-1 7 -8 8
q-22 2 -24 24v88q1 24 16 40q16 15 40 16h48q27 0 44 -21q5 -5 11 -1q5 5 1 11q-22 26 -56 27h-48q-31 -1 -51 -21t-21 -51v-88q0 -15 9 -25q9 -11 23 -14v-113q0 -17 12 -28q11 -12 28 -12h48q17 0 28 12q12 11 12 28v88q-1 7 -8 8v0z" />
    <glyph glyph-name="plane-slash" unicode="&#xe069;" horiz-adv-x="640" 
d="M351 75l13 -10l-60 -108q-12 -20 -35 -21h-48q-12 0 -19 9t-4 21l45 162h-87l-49 -56q-7 -8 -18 -8h-35q-20 2 -22 22q0 3 1 6l31 100l-31 100q-1 3 -1 6q1 14 12 20l18 -14h-8q-5 0 -6 -6v-2l32 -102v-4l-32 -102v-2q1 -6 6 -6h35q3 0 6 3l50 58q4 4 6 3h101q5 0 7 -3
q3 -3 2 -7l-48 -172q-1 -8 8 -10h48q14 0 21 12l61 111v0zM221 448h48q23 -1 35 -21l95 -171h120q27 0 56 -18q13 -8 23 -19q10 -12 10 -27t-10 -27t-23 -20q-29 -16 -56 -17h-2l-21 16h23q22 0 47 16q25 14 26 32q-1 17 -26 33q-25 15 -47 15h-125q-5 0 -7 4l-97 176
q-7 12 -21 12h-48q-9 -1 -8 -10l19 -69l-21 17l-13 48q-3 12 4 21t19 9v0v0zM636 -50q6 -5 2 -10q-5 -6 -11 -2l-624 496q-5 5 -1 11q5 5 11 1l623 -496v0zM41 295l7 1l-7 -1v0zM48 88l-7 2z" />
    <glyph glyph-name="pump-medical" unicode="&#xe06a;" horiz-adv-x="384" 
d="M236 288h-152q-25 -1 -43 -17t-20 -41l-21 -224q-2 -29 17 -49q18 -20 47 -21h191q29 1 47 21q19 20 17 49l-21 224q-2 25 -19 41q-18 16 -43 17v0zM291 -32q-14 -16 -36 -16h-191q-21 0 -35 16q-14 15 -13 36l21 224q2 19 15 31q13 13 32 13h152q19 0 32 -12
q13 -13 15 -32l21 -223q1 -22 -13 -37v0zM366 334l-47 46q-12 12 -28 12h-67l-1 24q0 14 -9 23t-23 9h-64q-13 0 -23 -9q-9 -9 -9 -23l1 -88q1 -7 8 -8q7 1 8 8v88q1 15 16 16h64q15 -1 16 -16v-88q1 -7 8 -8q7 1 8 8v48h67q10 0 17 -7l46 -47q2 -2 6 -2t6 2q4 6 0 12v0z
M232 168h-32v32q-1 15 -16 16h-48q-15 -1 -16 -16v-32h-32q-15 -1 -16 -16v-48q1 -15 16 -16h32v-32q1 -15 16 -16h48q15 1 16 16v32h32q15 1 16 16v48q-1 15 -16 16v0zM232 104h-48v-48h-48v48h-48v48h48v48h48v-48h48v-48v0z" />
    <glyph glyph-name="pump-soap" unicode="&#xe06b;" horiz-adv-x="384" 
d="M145 194q-20 -26 -38 -55v0q-18 -28 -19 -48q1 -29 21 -47q20 -19 51 -20q31 1 51 20q20 18 21 47q-1 20 -19 48q-18 29 -38 54q-6 7 -15 7t-15 -6v0zM160 40q-24 1 -40 15v0q-15 14 -16 36q2 26 54 92q1 1 2 1t2 -1q52 -66 54 -92q-1 -22 -16 -36q-16 -14 -40 -15v0z
M236 288h-152q-25 -1 -43 -17t-20 -41l-21 -224q-2 -29 17 -49q18 -20 47 -21h191q29 1 47 21q19 20 17 49l-21 224q-2 25 -19 41q-18 16 -43 17v0zM291 -32q-14 -16 -36 -16h-191q-21 0 -35 16q-14 15 -13 36l21 224q2 19 15 31q13 13 32 13h152q19 0 32 -12q13 -13 15 -32
l21 -223q1 -22 -13 -37v0zM366 334l-47 46q-12 12 -28 12h-67l-1 24q0 14 -9 23t-23 9h-64q-13 0 -23 -9q-9 -9 -9 -23l1 -88q1 -7 8 -8q7 1 8 8v88q1 15 16 16h64q15 -1 16 -16v-88q1 -7 8 -8q7 1 8 8v48h67q10 0 17 -7l46 -47q2 -2 6 -2t6 2q4 6 0 12v0z" />
    <glyph glyph-name="shield-virus" unicode="&#xe06c;" 
d="M467 364l-192 80q-9 4 -19 4t-18 -4l-192 -80q-29 -13 -30 -43q3 -129 51 -215q48 -85 104 -128q57 -42 85 -42q29 0 85 43q57 42 104 128q48 85 51 213q-1 31 -29 44v0zM255 -48q-24 0 -77 41v0q-52 41 -98 123v0q-45 81 -48 205q1 21 20 29l191 80q2 1 5 1q5 1 8 1
q6 0 12 -2l192 -80q19 -9 20 -29q-2 -104 -33 -175t-74 -114q-42 -43 -76 -62q-34 -18 -42 -18v0zM288 193q-15 -1 -16 -16q1 -14 16 -15q15 1 16 15q-1 14 -16 16v0zM224 257q-15 -1 -16 -16q2 -15 15 -16q14 1 16 16q-1 15 -15 16v0zM384 241h-12q-10 1 -13 7t-3 9
q-1 5 5 11l8 9q9 10 9 22q0 14 -9 23q-9 8 -22 8q-14 0 -23 -9l-9 -8q-6 -6 -11 -5q-14 0 -16 16v13q0 13 -9 23q-9 9 -23 9t-23 -9q-9 -10 -9 -23v-13q-2 -16 -16 -16q-5 -1 -11 5l-9 8q-9 9 -22 9q-14 0 -23 -9t-9 -22q0 -12 9 -22l8 -9q6 -6 5 -11q0 -3 -3 -9t-13 -7h-12
q-14 0 -23 -9q-9 -10 -9 -23q0 -14 9 -23t23 -9h12q10 -1 13 -7t3 -9q1 -6 -5 -11l-8 -10q-9 -9 -9 -23q0 -13 9 -22t23 -10q13 1 22 10l9 8q6 6 11 5q14 0 16 -16v-12q0 -14 9 -23t23 -9t23 9t9 23v12q2 16 16 16q5 1 11 -5l9 -8q9 -9 23 -10q13 1 22 10t10 22
q-1 14 -10 23l-8 9q-6 5 -5 11q0 3 3 9t13 7h12q14 0 23 9t9 23t-9 23t-23 10v0zM384 193h-12q-15 -1 -23 -10q-9 -10 -9 -22q0 -13 9 -23l9 -8q5 -5 5 -12q-2 -14 -16 -15q-7 0 -12 5l-8 9q-11 9 -23 9q-13 0 -22 -9q-10 -8 -10 -23v-12q-1 -15 -16 -16q-15 1 -16 16v12
q0 15 -10 23q-9 9 -22 9q-12 0 -23 -9l-8 -9q-5 -5 -12 -5q-14 2 -16 15q0 7 5 12l9 8q9 10 9 23q0 12 -9 22q-8 9 -23 10h-12q-15 1 -16 16q1 15 16 16h12q15 0 23 10q9 9 9 22q0 12 -9 23l-9 7q-4 5 -4 12q1 13 16 15q6 0 11 -5l8 -8q11 -9 23 -9q13 0 22 9q10 8 10 23v13
q1 15 16 16q15 -1 16 -16v-12q1 -15 10 -23q9 -9 22 -9q12 0 23 9l8 9q5 4 12 4q14 -1 16 -15q0 -6 -5 -11l-9 -9q-9 -10 -9 -22q0 -13 9 -22q8 -10 23 -10h12q15 -2 16 -16q-1 -15 -16 -17v0z" />
    <glyph glyph-name="sink" unicode="&#xe06d;" 
d="M480 160h-96v24q2 22 24 24h64q7 1 8 8q-1 7 -8 8h-64q-17 0 -28 -12q-12 -11 -12 -28v-24h-104v216q1 24 16 40q16 15 40 16q24 -1 40 -16q15 -16 16 -40v-48q1 -7 8 -7t8 7v48q-1 31 -21 51t-51 21q-31 -1 -51 -21t-21 -51v-216h-104v24q0 17 -12 28q-11 12 -28 12h-64
q-7 -1 -8 -7q1 -7 8 -9h64q22 -2 24 -24v-24h-96q-14 0 -23 -9t-9 -23t9 -23t23 -9h448q14 0 23 9t9 23t-9 23t-23 9v0zM480 112h-448q-15 1 -16 16q1 15 16 16h448q15 -1 16 -16q-1 -15 -16 -16v0zM472 72q-7 -1 -8 -8v-24q-1 -37 -26 -62t-62 -26h-240q-37 1 -62 26
t-26 62v24q-1 7 -8 8q-7 -1 -8 -8v-24q1 -44 30 -73q30 -30 74 -31h240q44 1 74 30q29 30 30 74v23q-1 9 -8 9v0z" />
    <glyph glyph-name="soap" unicode="&#x1f9fc;" 
d="M408 256q-7 -1 -8 -8q1 -7 8 -8q37 -1 62 -26t26 -62v-112q-1 -37 -26 -62t-62 -26h-304q-37 1 -62 26t-26 62v112q1 37 26 62t62 26h120q7 1 8 8q-1 7 -8 8h-120q-44 -1 -74 -31q-29 -29 -30 -73v-112q1 -44 30 -73q30 -30 74 -31h304q44 1 74 30q29 30 30 74v112
q-1 44 -31 73q-29 30 -73 31v0zM160 176q-34 -1 -57 -23v0q-22 -23 -23 -57q1 -34 23 -57q23 -22 57 -23h192q34 1 57 23q22 23 23 57q-1 34 -23 57q-23 22 -57 23h-192v0zM416 96q-1 -27 -19 -45v0q-18 -18 -45 -19h-192q-27 1 -45 19t-19 45q1 27 19 45t45 19h192
q27 -1 45 -19t19 -45v0zM320 208q27 1 45 19v0q18 18 19 45q-1 27 -19 45t-45 19q-27 -1 -45 -19t-19 -45q1 -27 19 -45t45 -19v0zM320 320q20 -1 34 -14v0q13 -14 14 -34q-1 -20 -14 -34q-14 -13 -34 -14q-20 1 -34 14q-13 14 -14 34q1 20 14 34q14 13 34 14v0zM208 352
q20 1 34 14v0q13 14 14 34q-1 20 -14 34q-14 13 -34 14q-20 -1 -34 -14q-13 -14 -14 -34q1 -20 14 -34q14 -13 34 -14v0zM208 432q14 0 23 -9v0q9 -9 9 -23t-9 -23t-23 -9t-23 9t-9 23t9 23t23 9v0zM384 384q14 0 23 9v0q9 9 9 23t-9 23t-23 9t-23 -9t-9 -23t9 -23t23 -9v0z
M384 432q15 -1 16 -16q-1 -15 -16 -16q-15 1 -16 16q1 15 16 16v0z" />
    <glyph glyph-name="soap" unicode="&#xe06e;" 
d="M408 256q-7 -1 -8 -8q1 -7 8 -8q37 -1 62 -26t26 -62v-112q-1 -37 -26 -62t-62 -26h-304q-37 1 -62 26t-26 62v112q1 37 26 62t62 26h120q7 1 8 8q-1 7 -8 8h-120q-44 -1 -74 -31q-29 -29 -30 -73v-112q1 -44 30 -73q30 -30 74 -31h304q44 1 74 30q29 30 30 74v112
q-1 44 -31 73q-29 30 -73 31v0zM160 176q-34 -1 -57 -23v0q-22 -23 -23 -57q1 -34 23 -57q23 -22 57 -23h192q34 1 57 23q22 23 23 57q-1 34 -23 57q-23 22 -57 23h-192v0zM416 96q-1 -27 -19 -45v0q-18 -18 -45 -19h-192q-27 1 -45 19t-19 45q1 27 19 45t45 19h192
q27 -1 45 -19t19 -45v0zM320 208q27 1 45 19v0q18 18 19 45q-1 27 -19 45t-45 19q-27 -1 -45 -19t-19 -45q1 -27 19 -45t45 -19v0zM320 320q20 -1 34 -14v0q13 -14 14 -34q-1 -20 -14 -34q-14 -13 -34 -14q-20 1 -34 14q-13 14 -14 34q1 20 14 34q14 13 34 14v0zM208 352
q20 1 34 14v0q13 14 14 34q-1 20 -14 34q-14 13 -34 14q-20 -1 -34 -14q-13 -14 -14 -34q1 -20 14 -34q14 -13 34 -14v0zM208 432q14 0 23 -9v0q9 -9 9 -23t-9 -23t-23 -9t-23 9t-9 23t9 23t23 9v0zM384 384q14 0 23 9v0q9 9 9 23t-9 23t-23 9t-23 -9t-9 -23t9 -23t23 -9v0z
M384 432q15 -1 16 -16q-1 -15 -16 -16q-15 1 -16 16q1 15 16 16v0z" />
    <glyph glyph-name="stopwatch-20" unicode="&#xe06f;" horiz-adv-x="448" 
d="M240 208q1 20 14 34v0q14 13 34 14q20 -1 34 -14q13 -14 14 -34v-128q-1 -20 -14 -34q-14 -13 -34 -14q-20 1 -34 14q-13 14 -14 34v128v0zM288 240q-14 0 -23 -9v0q-9 -9 -9 -23v-128q0 -14 9 -23t23 -9t23 9t9 23v128q0 14 -9 23t-23 9v0zM128 214q-3 -7 -10 -6
q-7 3 -6 10l1 1q3 17 16 27t31 10q20 -1 33 -14q14 -14 14 -34v-13q0 -22 -14 -38l-42 -47q-23 -25 -24 -59v-3h72q8 -1 8 -8t-8 -8h-80q-7 1 -8 8v11q1 40 28 70l43 47q10 12 10 27v13q0 13 -9 23q-10 9 -23 9q-25 -1 -32 -25v-1v0zM296 448q7 -1 8 -8q-1 -7 -8 -8h-64v-80
q85 -5 141 -63l37 37q6 4 12 0q4 -6 0 -12l-38 -37q46 -56 48 -133q-2 -88 -61 -147t-147 -61q-88 2 -147 61t-61 147q2 86 58 144q57 59 142 64v80h-64q-7 1 -8 8q1 7 8 8h144v0zM223 336q-81 -2 -136 -56v0q-54 -54 -56 -136q2 -82 56 -136q55 -54 136 -56q82 2 137 56
q54 54 56 136q-2 82 -56 136q-55 54 -137 56v0z" />
    <glyph glyph-name="shop-slash" unicode="&#xe070;" horiz-adv-x="640" 
d="M636 -50q6 -5 2 -10q-5 -6 -11 -2l-624 496q-5 5 -1 11q5 5 11 1l623 -496v0zM0 262q0 10 5 19l26 47l13 -10l-25 -45q-3 -5 -3 -11q2 -20 22 -22h105l20 -16h-84v-240q1 -14 10 -23t22 -9h225q14 0 23 9t9 23v78l16 -12v-66q-1 -20 -14 -34q-14 -13 -34 -14h-225
q-20 1 -34 14q-13 14 -14 34v240h-25q-16 0 -27 11t-11 27v0v0zM132 432l-18 15q5 1 11 1h391q27 -1 42 -25l77 -142q5 -9 5 -19q0 -16 -11 -27t-27 -11h-26v-142l-16 12v130h-164l-21 16h227q20 2 22 22q0 6 -3 11l-77 142q-11 16 -28 17h-384v0zM496 -39l32 -25h-8
q-22 2 -24 24v1v0zM512 192v-60l-16 13v47q1 7 8 8q7 -1 8 -8v0v0zM303 88v25l16 -13v-12q-1 -22 -24 -24h-144q-10 0 -17 7t-7 17v104q1 7 8 8q8 -1 8 -8v-104q1 -7 8 -8h144q8 1 8 8v0v0z" />
    <glyph glyph-name="store-slash" unicode="&#xe071;" horiz-adv-x="640" 
d="M636 -50q6 -5 2 -10q-5 -6 -11 -2l-624 496q-5 5 -1 11q5 5 11 1l623 -496v0zM499 -41l13 -11q-18 -12 -40 -12h-305q-30 1 -50 21q-21 20 -22 51v221q-25 10 -37 34q-13 24 -9 51l15 -12q0 -22 13 -40q14 -18 37 -21q5 -1 10 -1q8 0 17 2l15 -12q-15 -6 -32 -6
q-6 0 -12 1h-1v-217q1 -24 17 -40q16 -15 39 -16h305q15 0 27 7v0v0zM498 448q16 0 24 -13l58 -91q19 -33 8 -67q-10 -34 -44 -48v-122l-16 12v106v0q-6 -1 -13 -1q-30 1 -53 18q-4 3 -7 7q-3 2 -5 4l-4 -4l-7 -7q-19 -14 -45 -18l-20 17q6 -1 11 -1q33 1 53 24q5 5 12 5
t12 -5q21 -23 53 -24q6 0 10 1q33 6 46 35q12 29 -5 60l-57 90q-4 6 -11 6h-356q-4 0 -7 -2l-13 10q8 8 20 8h356v0zM183 80h163l20 -16h-183q-10 0 -17 7t-7 17v104q1 7 8 8q8 -1 8 -8v-104q1 -7 8 -8v0z" />
    <glyph glyph-name="toilet-paper-slash" unicode="&#xe072;" horiz-adv-x="640" 
d="M456 256q0 -31 11 -51v0q11 -20 28 -21q17 1 29 21q11 20 12 51q0 31 -11 51t-28 21q-17 -1 -29 -20q-11 -20 -12 -52v0zM520 256q0 -25 -8 -40v0q-7 -16 -15 -16q-9 0 -17 16q-8 15 -9 40q1 24 8 40q7 15 16 16q9 0 17 -16q8 -15 8 -40v0zM163 432h288q-31 -23 -49 -69
q-18 -47 -19 -106v-23l16 -13v35q1 75 28 124q27 50 67 52q40 -2 69 -52q28 -49 29 -124q0 -49 -13 -88t-34 -62l12 -10q23 27 37 68q14 42 14 93q-2 81 -33 135q-32 54 -80 56h-332q-18 0 -34 -12l13 -11q11 7 21 7v0zM362 -29q-8 -20 -23 -19h-284q-8 1 -7 10l9 25
q1 5 3 9q10 27 15 47q5 21 5 44v167q0 18 2 35l-15 12q-3 -22 -3 -47v-167q0 -21 -5 -40t-14 -45q-2 -5 -3 -10l-9 -25q-3 -12 3 -21q7 -9 19 -10h284q27 1 37 27q14 39 20 76l-14 12q-7 -43 -20 -80v0zM636 -50l-623 496q-2 2 -5 2q-4 0 -6 -3q-4 -6 1 -11l623 -496
q4 -2 5 -2q4 0 6 3q6 6 -1 11v0z" />
    <glyph glyph-name="users-slash" unicode="&#xe073;" horiz-adv-x="640" 
d="M512 288q34 1 57 23v0q22 23 23 57q-1 34 -23 57q-23 22 -57 23q-34 -1 -57 -23q-22 -23 -23 -57q1 -34 23 -57q23 -22 57 -23v0zM512 432q27 -1 45 -19v0q18 -18 19 -45q-1 -27 -19 -45t-45 -19q-27 1 -45 19t-19 45q1 27 19 45t45 19v0zM320 320q37 -1 62 -26v0
q25 -25 26 -62q0 -18 -7 -33l13 -10q10 20 10 43q-1 44 -31 74q-29 29 -72 30q-37 -1 -64 -22l13 -10q21 15 50 16v0zM480 256q-9 0 -18 -2q-7 -2 -6 -10q3 -7 10 -6q7 2 14 2h77q28 -1 47 -21t20 -51q-1 -7 -7 -8h-167l20 -16h147q21 2 23 24q-1 37 -24 62q-24 25 -59 26
h-77v0zM494 -18q2 -9 2 -19q-1 -10 -12 -11h-328q-11 1 -12 11q1 49 37 83q36 33 89 34h100v0h1l-20 16h-81q-60 -1 -100 -39t-42 -94q0 -12 8 -19q8 -8 20 -8h328q12 0 20 8q8 7 8 19v3q-1 1 -1 2l-17 14v0zM128 432q27 -1 45 -19v0q18 -18 19 -45v-1v-2l15 -11q1 7 1 14
q-1 34 -23 57q-23 22 -57 23q-17 0 -32 -7l15 -12q8 3 17 3v0zM200 152q-1 7 -8 8h-169q-6 1 -7 8q1 31 20 51t48 21h76q6 0 11 -1l-21 17h-66q-36 -1 -60 -26q-23 -25 -24 -62q2 -22 23 -24h169q7 1 8 8v0zM13 446q-2 2 -5 2q-4 0 -6 -3q-4 -6 1 -11l623 -496q4 -2 5 -2
q4 0 6 3q4 6 -1 11l-623 496v0z" />
    <glyph glyph-name="virus" unicode="&#xe074;" 
d="M426 362q-12 9 -23 0l-8 -8q-24 -23 -52 -22t-49 21q-21 19 -22 51v13q-1 14 -17 16q-14 -2 -16 -16v-13q-1 -32 -21 -51q-21 -20 -49 -21t-52 22l-8 8q-11 9 -23 0q-9 -12 0 -23l8 -8q23 -24 22 -52t-21 -49q-19 -20 -51 -21h-13q-14 -2 -16 -16q2 -15 16 -16h13
q32 -1 51 -22q20 -21 21 -50q1 -28 -22 -52l-8 -8q-9 -11 0 -23q12 -8 23 0l8 8q24 23 52 22t49 -21q20 -19 21 -52v-11q2 -15 16 -16q16 1 17 16v11q1 33 22 52q21 20 49 21t52 -22l8 -8q11 -8 23 0q8 12 0 23l-8 8q-23 24 -22 52t21 49q19 21 52 22h11q15 1 16 16
q-1 15 -16 16h-11q-33 1 -52 22q-20 21 -21 49t22 52l8 8q8 11 0 23l11 11q9 -10 9 -23q0 -12 -9 -22l-8 -8q-25 -30 -12 -61q13 -32 52 -35h11q14 0 23 -9t9 -23t-9 -23t-23 -9h-11q-39 -3 -52 -35q-13 -31 12 -61l8 -8q9 -10 9 -22q0 -13 -9 -23q-10 -9 -23 -9
q-12 0 -22 9l-8 8q-30 25 -61 12q-32 -13 -35 -52v-11q0 -14 -9 -23t-23 -9t-23 9t-9 23v11q-3 39 -35 52q-31 13 -61 -12l-8 -8q-10 -9 -22 -9q-13 0 -23 9q-9 10 -9 23q0 12 9 22l8 8q25 30 12 61q-13 32 -51 35h-12q-14 0 -23 9t-9 23t9 23t23 9h12q38 3 51 35
q13 31 -12 61l-8 8q-9 10 -9 22q0 13 9 23q10 9 23 9q12 0 22 -9l8 -8q30 -25 61 -12q32 13 35 51v12q0 14 9 23t23 9t23 -9t9 -23v-12q3 -38 35 -51q31 -13 61 12l8 8q10 9 22 9q13 0 23 -9l-11 -11v0zM175 225q1 20 15 33v0q13 14 33 15q21 -1 35 -15q14 -13 14 -33
q0 -21 -14 -34q-14 -14 -35 -14q-20 0 -33 14q-14 13 -15 34v0zM223 193q30 2 32 32q0 13 -9 22t-23 10q-13 -1 -22 -10t-10 -22q1 -14 10 -23t22 -9v0zM288 145q1 14 16 16q15 -2 16 -16q-1 -15 -16 -16q-15 1 -16 16v0z" />
    <glyph glyph-name="virus-slash" unicode="&#xe075;" horiz-adv-x="640" 
d="M386 48l16 -13q-20 -2 -35 -17q-14 -15 -15 -39v-11q0 -14 -9 -23q-10 -9 -24 -9q-13 0 -22 9t-10 23v12q-3 38 -34 51q-32 13 -61 -12l-8 -8q-10 -9 -23 -9q-12 0 -23 9q-9 10 -9 23q0 12 9 22l9 8q25 30 12 62t-51 35h-13q-13 0 -22 9t-10 23q1 13 10 22t22 10h13
q23 0 37 13l13 -10q-19 -19 -50 -19h-13q-14 -2 -16 -16q2 -15 16 -16h13q32 -1 51 -22q20 -21 21 -50q1 -28 -21 -52l-9 -8q-9 -11 0 -23q12 -8 23 0l8 8q24 23 52 22t49 -21q20 -19 21 -52v-11q2 -15 16 -16q16 1 17 16v11q1 27 15 44q14 18 35 25v0v0zM287 416
q1 14 10 23v0q9 9 22 9q14 0 24 -9q9 -9 9 -23v-12q3 -38 35 -51q31 -13 61 12l8 8q10 9 22 9q13 0 23 -9q9 -10 9 -23q0 -12 -9 -22l-8 -8q-25 -30 -12 -61q13 -32 52 -35h11q14 0 23 -9t9 -23t-9 -23t-23 -9h-11q-24 -1 -38 -14l-13 10q19 20 51 20h11q15 1 16 16
q-1 15 -16 16h-11q-33 1 -52 22q-20 21 -21 49t22 52l8 8q8 11 0 23q-12 9 -23 0l-8 -8q-24 -23 -52 -22t-49 21q-21 19 -22 51v12q-1 15 -16 16q-15 -1 -16 -16v-12q0 -26 -15 -43q-14 -18 -36 -25l-15 13q20 2 35 17q14 15 15 38l-1 12v0zM636 -50q6 -5 2 -10
q-5 -6 -11 -2l-624 496q-5 5 -1 11q5 5 11 1l623 -496v0zM501 373l-11 -11z" />
    <glyph glyph-name="viruses" unicode="&#xe076;" horiz-adv-x="640" 
d="M340 228h16q12 0 20 8t8 20t-8 20t-20 8h-16q-24 3 -30 21q-8 16 7 36l11 11q8 8 8 20q0 11 -8 20q-9 8 -20 8q-12 0 -20 -8l-11 -11q-20 -15 -36 -7q-18 6 -21 30v16q0 12 -8 20t-20 8t-20 -8t-8 -20v-16q-3 -24 -21 -30q-16 -8 -36 7l-11 11q-8 8 -20 8q-11 0 -20 -8
q-8 -9 -8 -20q0 -12 8 -20l11 -11q15 -20 7 -36q-6 -18 -30 -21h-16q-12 0 -20 -8t-8 -20t8 -20t20 -8h16q24 -3 30 -21q8 -16 -7 -36l-11 -11q-8 -8 -8 -20q0 -11 8 -20q9 -8 20 -8q12 0 20 8l11 11q20 15 36 7q18 -6 21 -30v-16q0 -12 8 -20t20 -8t20 8t8 20v16
q3 24 21 30q16 8 36 -7l11 -11q8 -8 20 -8q11 0 20 8q8 9 8 20q0 12 -8 20l-11 11q-15 20 -7 36q6 18 30 21v0zM306 160l10 -11q4 -4 4 -9t-4 -8q-8 -7 -17 0l-11 10q-24 22 -53 11q-29 -13 -31 -45v-16q-1 -11 -12 -12q-11 1 -12 12v16q-2 32 -31 45q-9 4 -19 4
q-19 0 -34 -15l-11 -10q-9 -7 -17 0q-4 3 -4 8t4 9l11 11q21 23 10 53q-13 29 -45 31h-16q-11 1 -12 12q1 11 12 12h16q32 2 45 31q11 30 -10 53l-11 11q-4 4 -4 9t4 8q8 8 17 0l11 -11q24 -21 53 -10q29 13 31 45v16q1 11 12 12q11 -1 12 -12v-16q2 -32 31 -45
q29 -11 53 10l11 11q9 8 17 0q4 -3 4 -8t-4 -9l-10 -11q-22 -23 -11 -53q13 -29 45 -31h16q11 -1 12 -12q-1 -11 -12 -12h-16q-32 -2 -45 -31q-11 -30 11 -53v0zM160 328q-17 0 -28 -12v0q-12 -11 -12 -28t12 -28q11 -12 28 -12t28 12q12 11 12 28t-12 28q-11 12 -28 12v0z
M160 264q-22 2 -24 24q2 22 24 24q22 -2 24 -24q-2 -22 -24 -24v0zM240 256q-15 -1 -16 -16q1 -15 16 -16q15 1 16 16q-1 15 -16 16v0zM617 103h-12q-16 2 -20 14q-6 11 5 24l8 8q7 7 7 17q-1 9 -7 16q-17 13 -33 0l-8 -8q-13 -10 -24 -5q-12 4 -14 20v12q-2 21 -23 23
q-21 -2 -23 -23v-12q-2 -16 -14 -20q-11 -6 -24 5l-8 8q-17 13 -33 0q-6 -7 -7 -16q1 -10 7 -17l8 -8q11 -13 5 -24q-4 -12 -20 -14h-12q-21 -2 -23 -23q2 -21 23 -23h12q16 -2 20 -14q6 -11 -5 -24l-8 -8q-7 -7 -7 -17q1 -9 7 -16q7 -6 17 -6q9 0 16 6l8 8q13 11 24 5
q12 -4 14 -20v-12q2 -21 23 -23q21 2 23 23v12q2 16 14 20q11 5 24 -5l8 -8q7 -6 17 -6q9 0 16 6q6 7 7 16q0 10 -7 17l-8 8q-11 13 -5 24q4 12 20 14h12q21 2 23 23q-2 21 -23 23v0zM617 73h-12q-24 -1 -35 -24q-9 -23 8 -41l9 -8q2 -3 2 -5q0 -3 -2 -5q-5 -5 -11 0l-8 8
q-18 17 -41 8q-23 -10 -24 -35v-12q-1 -6 -7 -7q-6 1 -7 7v12q-1 25 -24 35q-7 3 -15 3q-15 0 -26 -11l-8 -8q-5 -5 -11 0q-2 2 -2 5q0 2 2 5l9 8q17 18 8 41q-10 23 -35 24h-12q-6 1 -7 7q1 6 7 7h12q25 1 35 24q9 23 -8 41l-9 8q-2 3 -2 5q0 3 2 5q6 5 11 0l8 -8
q18 -17 41 -8q23 10 24 35v12q1 6 7 7q6 -1 7 -7v-12q1 -25 24 -35q23 -9 41 8l8 8q5 5 11 0q2 -2 2 -5q0 -2 -2 -5l-9 -8q-17 -18 -8 -41q10 -23 35 -24h12q6 -1 7 -7q-1 -6 -7 -7v0zM480 128q-14 0 -23 -9v0q-9 -9 -9 -23t9 -23t23 -9t23 9t9 23t-9 23t-23 9v0zM480 80
q-15 1 -16 16q1 15 16 16q15 -1 16 -16q-1 -15 -16 -16v0z" />
    <glyph glyph-name="vest" unicode="&#xe085;" horiz-adv-x="448" 
d="M441 188l-41 70v150q0 17 -12 28q-11 12 -28 12h-40q-8 0 -15 -5q-58 -39 -89 -35q-31 3 -68 31q-2 2 -5 4q-7 5 -15 5h-40q-17 0 -28 -12q-12 -11 -12 -28v-150l-41 -69q-7 -11 -7 -23v-190q0 -17 12 -28q11 -12 28 -12h368q17 0 28 12q12 11 12 28v190q0 13 -7 22v0z
M224 392q40 1 72 26l-72 -183l-72 183q32 -25 72 -26v0zM192 147v-195h-152q-22 2 -24 24v5l109 101q5 6 1 11q-6 5 -11 1l-99 -92v164q0 7 5 14l42 72l1 4v152q2 22 24 24h41l86 -219l-21 -54q-2 -5 -2 -12v0zM432 2l-99 92q-5 4 -11 -1q-4 -5 1 -11l109 -102v-4
q-2 -22 -24 -24h-200v198l111 282h41q22 -2 24 -24v-152q0 -2 1 -4l43 -72q4 -7 4 -14v-164v0z" />
    <glyph glyph-name="vest-patches" unicode="&#xe086;" horiz-adv-x="448" 
d="M441 188l-41 70v150q0 17 -12 28q-11 12 -28 12h-40q-8 0 -15 -5q-58 -39 -89 -35q-31 3 -68 31q-2 2 -5 4q-7 5 -15 5h-40q-17 0 -28 -12q-12 -11 -12 -28v-150l-41 -69q-7 -11 -7 -23v-190q0 -17 12 -28q11 -12 28 -12h368q17 0 28 12q12 11 12 28v190q0 13 -7 22v0z
M224 392q40 1 72 26l-72 -183l-72 183q32 -25 72 -26v0zM192 147v-195h-152q-22 2 -24 24v190q0 7 5 14l42 72l1 4v152q2 22 24 24h41l86 -219l-21 -54q-2 -5 -2 -12v0zM432 -24q-2 -22 -24 -24h-200v198l111 282h41q22 -2 24 -24v-152q0 -2 1 -4l43 -72q4 -7 4 -14v-190v0z
M353 161q-4 27 -29 31q-14 1 -25 -9q-10 -9 -11 -24v-48q0 -6 4 -11q5 -4 11 -4h48q15 1 24 11q10 11 9 25q-4 25 -31 29v0zM364 118q-5 -6 -13 -6l-47 -1v48q0 8 6 13q3 4 11 4h2q13 -3 15 -17l-1 -14h14q14 -1 17 -14q1 -8 -4 -13v0zM112 96q-20 -1 -34 -14v0
q-13 -14 -14 -34q1 -20 14 -34q14 -13 34 -14q20 1 34 14q13 14 14 34q-1 20 -14 34q-14 13 -34 14v0zM112 16q-14 0 -23 9v0q-9 9 -9 23t9 23t23 9t23 -9t9 -23t-9 -23t-23 -9v0zM78 142q3 -2 6 -2t6 2l22 23l22 -23q3 -2 6 -2t6 2q4 6 0 12l-23 22l23 22q4 6 0 12
q-6 4 -12 0l-22 -23l-22 23q-6 4 -12 0q-4 -6 0 -12l23 -22l-23 -22q-4 -6 0 -12v0z" />
    <glyph glyph-name="airplay" unicode="&#xe089;" horiz-adv-x="576" 
d="M504 416h-432q-31 -1 -51 -21t-21 -51v-240q1 -31 21 -51t51 -21h24q7 1 8 8q-1 7 -8 8h-24q-24 1 -40 16q-15 16 -16 40v240q1 24 16 40q16 15 40 16h432q24 -1 40 -16q15 -16 16 -40v-240q-1 -24 -16 -40q-16 -15 -40 -16h-24q-7 -1 -8 -8q1 -7 8 -8h24q31 1 51 21
t21 51v240q-1 31 -21 51t-51 21v0zM308 152q-9 8 -20 8t-19 -8l-133 -137q-12 -14 -6 -30q7 -16 26 -17h264q19 1 26 17q6 16 -6 30l-132 137v0zM431 -9v0v0q-2 -5 -11 -7h-264q-10 2 -11 7q-3 4 3 13l132 137q3 3 8 3t8 -3l133 -136q4 -8 2 -12v-2v0z" />
    <glyph glyph-name="alt" unicode="&#xe08a;" horiz-adv-x="640" 
d="M416 8q1 -7 8 -8h208q7 1 8 8q-1 7 -8 8h-208q-7 -1 -8 -8v0zM640 376q-1 7 -8 8h-137q-35 -1 -57 -28l-249 -319q-17 -21 -44 -21h-137q-7 -1 -8 -8q1 -7 8 -8h137q35 1 57 28l249 319q17 20 44 21h137q7 1 8 8v0z" />
    <glyph glyph-name="angle" unicode="&#xe08c;" horiz-adv-x="448" 
d="M21 -16h419q7 -1 8 -8q-1 -7 -8 -8h-432q-4 0 -7 4q-2 4 0 8l216 432q4 6 11 3q6 -4 3 -11l-210 -420v0zM294 197q4 -6 -2 -11q-6 -4 -11 3q-28 35 -65 63q-5 4 -2 10q4 7 11 4q40 -30 69 -69v0v0zM314 134q-3 7 3 11q7 3 11 -3q23 -47 30 -101q0 -8 -8 -9q-7 1 -8 7
q-7 51 -28 95v0v0z" />
    <glyph glyph-name="angle-90" unicode="&#xe08d;" horiz-adv-x="448" 
d="M440 -16h-424v424q-1 7 -8 8q-7 -1 -8 -8v-432q1 -7 8 -8h432q7 1 8 8q-1 7 -8 8v0zM349 24h1q7 2 7 9q-6 41 -22 79q-3 7 -10 5q-7 -4 -4 -11q14 -36 20 -75q1 -7 8 -7v0zM277 183q2 -3 6 -3q3 0 5 1q6 5 2 12q-29 36 -66 65q-6 4 -11 -2q-4 -6 2 -11q35 -27 62 -62v0z
M63 309q39 -6 75 -21h3q5 0 8 5q2 7 -5 10q-38 16 -79 21q-7 1 -9 -6q0 -8 7 -9v0z" />
    <glyph glyph-name="apple-core" unicode="&#xe08f;" horiz-adv-x="384" 
d="M192 336q56 2 77 31v0q20 29 19 65q-2 14 -16 15q-44 -1 -65 -18q-20 -17 -26 -39t-5 -38q1 -14 16 -16v0zM271 432q1 0 1 -7q2 -18 -13 -44t-66 -29q-1 0 -2 9q-1 18 14 43q16 25 66 28v0zM287 144q1 47 23 86v0q21 39 59 62q-22 20 -40 24q-19 5 -26 4q-30 -1 -62 -11
q-32 -11 -50 -21q-18 10 -50 21q-32 10 -62 11q-7 1 -25 -4q-19 -4 -41 -24q38 -23 60 -62t22 -86q0 -46 -21 -84t-57 -63q25 -34 50 -48q26 -13 52 -13q35 2 56 12q11 4 16 4t16 -4q22 -10 57 -12q26 0 52 13q26 14 51 48q-37 25 -58 63t-22 84v0zM264 -48q-31 2 -50 11v0
q-13 5 -22 5t-22 -5q-20 -9 -50 -11q-44 0 -80 42q34 28 53 67t19 83t-19 83q-18 38 -52 66q27 13 36 11q39 -1 71 -14t44 -20q12 7 44 20t71 14q9 2 36 -11q-34 -28 -52 -66q-19 -39 -19 -83t19 -83t53 -67q-35 -42 -80 -42v0z" />
    <glyph glyph-name="arrow-down-from-dotted-line" unicode="&#xe090;" horiz-adv-x="448" 
d="M320 369q15 1 16 16q-1 15 -16 16q-15 -1 -16 -16q1 -15 16 -16v0zM224 369q15 1 16 16q-1 15 -16 16q-15 -1 -16 -16q1 -15 16 -16v0zM416 369q15 1 16 16q-1 15 -16 16q-15 -1 -16 -16q1 -15 16 -16v0zM128 369q15 1 16 16q-1 15 -16 16q-15 -1 -16 -16q1 -15 16 -16v0
zM32 369q15 1 16 16q-1 15 -16 16q-15 -1 -16 -16q1 -15 16 -16v0zM218 -30q6 -4 12 0l152 152q2 3 2 7t-2 6q-6 4 -12 0l-138 -140v286q-1 7 -8 8q-7 -1 -8 -8v-285l-138 138q-6 4 -12 0q-4 -6 0 -12l152 -152v0z" />
    <glyph glyph-name="arrow-down-left" unicode="&#xe091;" horiz-adv-x="320" 
d="M8 288q7 -1 8 -8v-221l290 291q6 4 12 0q4 -6 0 -12l-291 -290h221q7 -1 8 -8q-1 -7 -8 -8h-240q-7 1 -8 8v241q1 6 8 7v0z" />
    <glyph glyph-name="arrow-down-left-and-arrow-up-right-to-center" unicode="&#xe092;" 
d="M46 -30l162 163v-141q1 -7 8 -8q7 1 8 8v160q-1 7 -8 8h-160q-7 -1 -8 -8q1 -7 8 -8h141l-163 -162q-4 -7 1 -11q4 -5 11 -1v0zM296 224h160q7 1 8 8q-1 7 -8 8h-141l163 162q4 7 -1 11q-4 5 -11 1l-162 -163v141q-1 7 -8 8q-7 -1 -8 -8v-160q1 -7 8 -8v0z" />
    <glyph glyph-name="arrow-down-right" unicode="&#xe093;" horiz-adv-x="320" 
d="M320 281v-240q-1 -9 -8 -9h-241q-6 1 -7 8q1 7 8 8h221l-291 290q-4 6 0 12q6 4 12 0l290 -291v222q1 6 8 7q7 -1 8 -7v0z" />
    <glyph glyph-name="arrow-down-to-bracket" unicode="&#xe094;" horiz-adv-x="448" 
d="M448 -24v80q-1 7 -8 8q-7 -1 -8 -8v-80q-2 -22 -24 -24h-368q-22 2 -24 24v80q-1 7 -8 8q-7 -1 -8 -8v-80q0 -17 12 -28q11 -12 28 -12h368q17 0 28 12q12 11 12 28v0zM230 66l184 184q2 3 2 6t-2 6q-6 4 -12 0l-170 -171v349q-1 7 -8 8q-7 -1 -8 -8v-349l-170 171
q-6 4 -12 0q-2 -3 -2 -6t2 -6l184 -184q2 -2 6 -2t6 2v0z" />
    <glyph glyph-name="arrow-down-to-dotted-line" unicode="&#xe095;" horiz-adv-x="448" 
d="M128 16q-15 -1 -16 -16q1 -15 16 -16q15 1 16 16q-1 15 -16 16v0zM224 16q-15 -1 -16 -16q1 -15 16 -16q15 1 16 16q-1 15 -16 16v0zM32 16q-15 -1 -16 -16q1 -15 16 -16q15 1 16 16q-1 15 -16 16v0zM320 16q-15 -1 -16 -16q1 -15 16 -16q15 1 16 16q-1 15 -16 16v0z
M416 16q-15 -1 -16 -16q1 -15 16 -16q15 1 16 16q-1 15 -16 16v0zM218 82q6 -4 12 0l152 152q2 3 2 7t-2 6q-6 4 -12 0l-138 -140v286q-1 7 -8 8q-7 -1 -8 -8v-285l-138 138q-6 4 -12 0q-4 -6 0 -12l152 -152v0z" />
    <glyph glyph-name="arrow-down-to-square" unicode="&#xe096;" 
d="M440 320h-80q-7 -1 -8 -8q1 -7 8 -8h80q22 -2 24 -24v-304q-2 -22 -24 -24h-368q-22 2 -24 24v304q2 22 24 24h80q7 1 8 8q-1 7 -8 8h-80q-17 0 -28 -12q-12 -11 -12 -28v-304q0 -17 12 -28q11 -12 28 -12h368q17 0 28 12q12 11 12 28v304q0 17 -12 28q-11 12 -28 12v0z
M154 174q-4 -6 0 -12l96 -96q3 -2 6 -2t6 2l96 96q4 6 0 12q-6 4 -12 0l-82 -83v349q-1 7 -8 8q-7 -1 -8 -8v-349l-82 83q-6 4 -12 0v0z" />
    <glyph glyph-name="arrow-trend-down" unicode="&#xe097;" horiz-adv-x="576" 
d="M376 48h173l-229 229l-122 -123q-6 -4 -12 0l-184 184q-4 6 0 12q6 4 12 0l177 -179l123 123q6 4 12 0l234 -235v174q1 7 8 8q7 -1 8 -8v-193q-1 -7 -8 -8h-192q-7 1 -8 8q1 7 8 8v0v0z" />
    <glyph glyph-name="arrow-trend-up" unicode="&#xe098;" horiz-adv-x="576" 
d="M368 344q1 7 8 8h192q7 -1 8 -8v-192q-1 -7 -8 -8q-7 1 -8 8v173l-234 -235q-6 -4 -12 0l-123 123l-177 -179q-6 -4 -12 0q-4 6 0 12l184 184q6 4 12 0l122 -123l229 230h-173q-7 0 -8 8v-1v0z" />
    <glyph glyph-name="arrow-up-arrow-down" unicode="&#xe099;" horiz-adv-x="448" 
d="M227 78q-5 -6 -1 -12l88 -96q6 -5 12 0l88 96q4 6 -1 12q-2 2 -5 2t-6 -3l-74 -81v412q-1 7 -8 8q-7 -1 -8 -8v-412l-74 81q-6 5 -11 1v0zM35 306q2 -2 5 -2t6 3l74 81v-411q1 -9 8 -9q7 1 8 8v412l74 -81q6 -5 11 -1q5 6 1 11l-88 97q-6 4 -12 0l-88 -97q-4 -5 1 -11v0z
" />
    <glyph glyph-name="arrow-up-from-bracket" unicode="&#xe09a;" horiz-adv-x="448" 
d="M432 56v-80q-2 -22 -24 -24h-368q-22 2 -24 24v80q-1 7 -8 8q-7 -1 -8 -8v-80q0 -17 12 -28q11 -12 28 -12h368q17 0 28 12q12 11 12 28v80q-1 7 -8 8q-7 -1 -8 -8v0zM218 446l-184 -184q-2 -3 -2 -6t2 -6q6 -4 12 0l170 171v-349q1 -7 8 -8q7 1 8 8v349l170 -171
q6 -4 12 0q2 3 2 6t-2 6l-184 184q-3 2 -6 2t-6 -2v0z" />
    <glyph glyph-name="arrow-up-from-dotted-line" unicode="&#xe09b;" horiz-adv-x="448" 
d="M128 16q-15 -1 -16 -16q1 -15 16 -16q15 1 16 16q-1 15 -16 16v0zM224 16q-15 -1 -16 -16q1 -15 16 -16q15 1 16 16q-1 15 -16 16v0zM32 16q-15 -1 -16 -16q1 -15 16 -16q15 1 16 16q-1 15 -16 16v0zM320 16q-15 -1 -16 -16q1 -15 16 -16q15 1 16 16q-1 15 -16 16v0z
M416 16q-15 -1 -16 -16q1 -15 16 -16q15 1 16 16q-1 15 -16 16v0zM230 414q-6 4 -12 0l-152 -152q-2 -3 -2 -6t2 -6q6 -4 12 0l138 139v-285q1 -7 8 -8q7 1 8 8v285l138 -139q6 -4 12 0q4 6 0 12l-152 152v0z" />
    <glyph glyph-name="arrow-up-from-square" unicode="&#xe09c;" 
d="M440 288h-48q-7 -1 -8 -8q1 -7 8 -8h48q22 -2 24 -24v-272q-2 -22 -24 -24h-368q-22 2 -24 24v272q2 22 24 24h48q7 1 8 8q-1 7 -8 8h-48q-17 0 -28 -12q-12 -11 -12 -28v-272q0 -17 12 -28q11 -12 28 -12h368q17 0 28 12q12 11 12 28v272q0 17 -12 28q-11 12 -28 12v0z
M160 336q3 0 6 2l82 83v-349q1 -7 8 -8q7 1 8 8v349l82 -83q3 -2 6 -2q8 2 8 8q0 3 -2 6l-96 96q-3 2 -6 2t-6 -2l-96 -96q-2 -2 -2 -6q1 -7 8 -8v0z" />
    <glyph glyph-name="arrow-up-left" unicode="&#xe09d;" horiz-adv-x="320" 
d="M0 104v241q1 6 8 7h240q7 -1 8 -7q-1 -7 -8 -8h-221l291 -290q4 -6 0 -12q-6 -4 -12 0l-291 290v-221q0 -7 -7 -8q-7 1 -8 8v0z" />
    <glyph glyph-name="arrow-up-left-from-circle" unicode="&#xe09e;" 
d="M350 98q4 6 0 12l-323 322h189q7 1 8 8q0 3 -2 6q-3 2 -6 2h-208q-7 -1 -8 -8v-208q1 -7 8 -8q7 1 8 8v189l322 -323q6 -4 12 0v0zM288 384q-34 0 -66 -10q-7 -3 -6 -10q3 -7 10 -5q30 9 62 9q88 -2 147 -61t61 -147q-2 -88 -61 -147t-147 -61q-88 2 -147 61t-61 147
q0 32 9 62q2 7 -5 10q-7 1 -10 -6q-10 -32 -10 -66q1 -62 31 -113q30 -50 80 -80q51 -30 113 -31q62 1 113 31q50 30 80 80q30 51 31 113q-1 62 -31 113q-30 50 -80 80q-51 30 -113 31v0z" />
    <glyph glyph-name="arrow-up-right" unicode="&#xe09f;" horiz-adv-x="320" 
d="M312 96q-7 1 -8 8v221l-290 -291q-6 -4 -12 0q-4 6 0 12l291 290h-222q-6 1 -7 9q1 7 7 7h240q9 -1 9 -7v-240q-1 -9 -8 -9v0z" />
    <glyph glyph-name="arrow-up-right-and-arrow-down-left-from-center" unicode="&#xe0a0;" 
d="M210 158l-194 -195v141q-1 7 -8 8q-7 -1 -8 -8v-159q1 -9 8 -9h159q7 1 8 8q-1 7 -8 8h-140l195 194q4 7 0 12q-5 5 -12 0v0zM504 448h-160q-7 -1 -8 -8q1 -7 8 -8h141l-195 -194q-5 -7 0 -12t12 0l194 195v-141q1 -7 8 -8q7 1 8 9v159q-1 7 -8 8v0z" />
    <glyph glyph-name="arrow-up-to-dotted-line" unicode="&#xe0a1;" horiz-adv-x="448" 
d="M320 369q15 1 16 16q-1 15 -16 16q-15 -1 -16 -16q1 -15 16 -16v0zM224 369q15 1 16 16q-1 15 -16 16q-15 -1 -16 -16q1 -15 16 -16v0zM416 369q15 1 16 16q-1 15 -16 16q-15 -1 -16 -16q1 -15 16 -16v0zM128 369q15 1 16 16q-1 15 -16 16q-15 -1 -16 -16q1 -15 16 -16v0
zM32 369q15 1 16 16q-1 15 -16 16q-15 -1 -16 -16q1 -15 16 -16v0zM230 302q-6 4 -12 0l-152 -152q-2 -3 -2 -6t2 -6q6 -4 12 0l138 139v-285q1 -7 8 -8q7 1 8 8v285l138 -139q6 -4 12 0q4 6 0 12l-152 152v0z" />
    <glyph glyph-name="arrows-cross" unicode="&#xe0a2;" horiz-adv-x="448" 
d="M440 416h-159q-7 -1 -8 -8q1 -7 8 -8h141l-420 -418q-4 -7 0 -11q5 -5 12 -1l418 419v-141q1 -7 8 -8q7 1 8 9v159q-1 7 -8 8v0zM167 237q6 -5 12 0q4 6 0 12l-165 165q-7 4 -11 0q-5 -5 -1 -12l165 -165v0zM440 144q-7 -1 -8 -8v-141l-151 152q-6 4 -12 0q-4 -6 0 -12
l152 -151h-141q-7 -1 -8 -8q1 -7 8 -8h159q9 1 9 8v160q-1 7 -8 8v0z" />
    <glyph glyph-name="arrows-from-dotted-line" unicode="&#xe0a3;" horiz-adv-x="448" 
d="M32 208q-15 -1 -16 -16q1 -15 16 -16q15 1 16 16q-1 15 -16 16v0zM144 192q-1 15 -16 16q-15 -1 -16 -16q1 -15 16 -16q15 1 16 16v0zM208 192q1 -15 16 -16q15 1 16 16q-1 15 -16 16q-15 -1 -16 -16v0zM320 208q-15 -1 -16 -16q1 -15 16 -16q15 1 16 16q-1 15 -16 16v0z
M416 208q-15 -1 -16 -16q1 -15 16 -16q15 1 16 16q-1 15 -16 16v0zM136 344q3 0 6 2l74 75v-157q1 -7 8 -8q7 1 8 8v157l74 -75q3 -2 6 -2q8 2 8 8q0 3 -2 6l-88 88q-3 2 -7 2q-3 0 -4 -2h-1l-88 -88q-2 -3 -2 -6q1 -7 8 -8v0zM312 40q-3 0 -6 -2l-74 -75v157q-1 7 -8 8
q-7 -1 -8 -8v-157l-74 75q-3 2 -6 2q-7 -1 -8 -7q0 -3 2 -6l88 -88q3 -3 6 -3t6 2l88 88q2 3 2 7q-1 6 -8 7v0z" />
    <glyph glyph-name="arrows-from-line" unicode="&#xe0a4;" horiz-adv-x="448" 
d="M136 344q3 0 6 2l74 75v-157q1 -7 8 -8q7 1 8 8v157l74 -75q3 -2 6 -2q8 2 8 8q0 3 -2 6l-88 88q-3 2 -7 2t-6 -2l-88 -88q-1 -3 -1 -6q1 -7 8 -8v0zM312 40q-3 0 -6 -2l-74 -75v157q-1 7 -8 8q-7 -1 -8 -8v-157l-74 75q-3 2 -6 2q-7 -1 -8 -7q0 -3 2 -6l88 -88
q3 -3 6 -3t6 2l88 88q2 3 2 7q-1 6 -8 7v0zM440 200h-432q-7 -1 -8 -7q1 -7 8 -9h432q7 1 8 8q-1 7 -8 8v0z" />
    <glyph glyph-name="arrows-minimize" unicode="&#xe0a5;" 
d="M46 -30l162 163v-141q1 -7 8 -8q7 1 8 8v160q-1 7 -8 8h-160q-7 -1 -8 -8q1 -7 8 -8h141l-162 -162q-5 -7 0 -11q4 -5 11 -1v0zM216 400q-7 -1 -8 -8v-141l-162 163q-7 4 -12 -1q-4 -4 0 -11l163 -162h-141q-7 -1 -8 -8q1 -7 8 -8h160q7 1 8 8v160q-1 7 -8 8v0zM296 -16
q7 1 8 8v141l162 -163q7 -4 11 1q5 4 1 11l-163 162h141q7 1 8 8q-1 7 -8 8h-160q-7 -1 -8 -8v-160q1 -7 8 -8v0zM296 224h160q7 1 8 8q-1 7 -8 8h-141l163 162q4 7 0 11q-5 5 -12 1l-162 -163v141q-1 7 -8 8q-7 -1 -8 -8v-160q1 -7 8 -8v0z" />
    <glyph glyph-name="arrows-to-dotted-line" unicode="&#xe0a6;" horiz-adv-x="448" 
d="M208 192q1 -15 16 -16q15 1 16 16q-1 15 -16 16q-15 -1 -16 -16v0zM144 192q-1 15 -16 16q-15 -1 -16 -16q1 -15 16 -16q15 1 16 16v0zM32 208q-15 -1 -16 -16q1 -15 16 -16q15 1 16 16q-1 15 -16 16v0zM416 208q-15 -1 -16 -16q1 -15 16 -16q15 1 16 16q-1 15 -16 16v0z
M320 208q-15 -1 -16 -16q1 -15 16 -16q15 1 16 16q-1 15 -16 16v0zM218 258q3 -2 6 -2t6 2l88 88q2 3 2 6q-1 7 -8 8q-3 0 -6 -2l-74 -75v157q-1 7 -8 8q-7 -1 -8 -8v-157l-74 75q-3 2 -6 2q-7 -1 -8 -8q0 -3 2 -6l88 -88v0zM230 126q-3 2 -6 2t-6 -2l-88 -88q-2 -2 -2 -6
q1 -7 8 -8q3 0 6 2l74 75v-157q1 -7 8 -8q7 1 8 8v157l74 -75q3 -2 6 -2q8 2 8 8q0 3 -2 6l-88 88v0z" />
    <glyph glyph-name="arrows-to-line" unicode="&#xe0a7;" horiz-adv-x="448" 
d="M230 126q-3 2 -6 2t-6 -2l-88 -88q-2 -2 -2 -6q1 -7 8 -8q3 0 6 2l74 75v-157q1 -7 8 -8q7 1 8 8v157l74 -75q3 -2 6 -2q8 2 8 8q0 3 -2 6l-88 88v0zM218 258q3 -2 6 -2t6 2l88 88q2 3 2 6q-1 7 -8 8q-3 0 -6 -2l-74 -75v157q-1 7 -8 8q-7 -1 -8 -8v-157l-74 75
q-3 2 -6 2q-7 -1 -8 -8q0 -3 2 -6l88 -88v0zM440 200h-432q-7 -1 -8 -7q1 -7 8 -9h432q7 1 8 8q-1 7 -8 8v0z" />
    <glyph glyph-name="audio-description-slash" unicode="&#xe0a8;" horiz-adv-x="640" 
d="M96 -16q-20 1 -34 14v0q-13 14 -14 34v284l-16 13v-297q1 -27 19 -45t45 -19h390l-20 16h-370v0zM544 400q20 -1 34 -14v0q13 -14 14 -34v-284l16 -13v297q-1 27 -19 45t-45 19h-390l20 -16h370v0zM503 138q17 24 17 54q-1 41 -28 68t-68 28h-63q-9 -1 -9 -8v-21l16 -13
v26h56q34 -1 57 -23q22 -23 23 -57q0 -25 -13 -44l12 -10v0zM180 211l-51 -103q-3 -7 3 -11q2 -1 4 -1q5 0 7 4l30 60h72l-21 16h-43l12 25l-13 10v0zM636 -50l-623 496q-2 2 -5 2q-4 0 -6 -3q-4 -6 1 -11l623 -496q4 -2 5 -2q4 0 6 3q6 6 -1 11v0z" />
    <glyph glyph-name="austral-sign" unicode="&#xe0a9;" horiz-adv-x="448" 
d="M318 208h122q7 -1 8 -8q-1 -7 -8 -8h-115l34 -80h81q7 -1 8 -8q-1 -7 -8 -8h-74l49 -117q3 -7 -4 -10t-10 4l-53 123h-248l-53 -123q-3 -7 -10 -4t-4 10l49 117h-74q-7 1 -8 8q1 7 8 8h81l34 80h-115q-7 1 -8 8q1 7 8 8h122l87 203q2 5 7 5t7 -5l87 -203v0zM301 208
l-77 180l-76 -180h153v0zM141 192l-34 -80h234l-34 80h-166v0z" />
    <glyph glyph-name="avocado" unicode="&#xe0aa;" 
d="M512 306q-1 56 -39 98v0q-38 42 -101 44q-62 -1 -109 -45q-48 -47 -112 -64q-20 -4 -55 -25t-65 -63q-29 -42 -31 -110q2 -87 60 -145q59 -58 145 -60q22 -1 61 10t77 43q39 32 59 95q14 48 32 75q18 26 35 44q18 19 30 41q13 22 13 62v0zM495 306q0 -34 -12 -54v0
q-11 -21 -29 -39v0q-17 -19 -36 -47v0q-18 -28 -33 -77q-7 -29 -29 -60t-59 -54q-38 -22 -92 -23q-26 -1 -70 15q-44 17 -80 58t-38 116q1 68 40 117q39 48 99 66q45 13 71 30q27 18 45 35q20 18 41 30q22 13 59 13q58 -2 91 -41q32 -38 32 -85v0zM247 264q-51 -2 -88 -39v0
q-37 -38 -39 -88q0 -31 20 -56q20 -24 59 -25q51 2 89 39q37 37 39 88q-2 46 -28 64t-52 17v0zM312 183q-2 -44 -35 -77v0q-33 -32 -77 -34q-36 2 -50 23q-15 21 -14 42q2 44 35 76q32 33 76 35q36 -1 51 -22q14 -22 14 -43v0z" />
    <glyph glyph-name="award-simple" unicode="&#xe0ab;" horiz-adv-x="384" 
d="M192 344q-37 -1 -62 -26v0q-25 -25 -26 -62q1 -37 26 -62q24 -25 61 -26q37 1 62 26t26 62q-1 37 -25 62q-25 25 -62 26v0zM192 184q-31 1 -51 21v0q-20 20 -21 51q1 31 21 51t51 21q31 -1 51 -21t21 -51q-1 -31 -21 -51t-51 -21v0zM384 256q-1 14 -11 27v0q-7 9 -10 19
t-1 22q2 16 -4 28q-8 11 -23 17q-10 5 -18 12q-7 8 -12 18q-6 15 -17 23q-8 4 -18 4h-10q-5 -1 -10 -1q-6 0 -12 2q-10 3 -19 10q-13 10 -27 11q-14 -1 -27 -11q-9 -7 -19 -10q-5 -2 -12 -2q-5 0 -10 1h-10q-10 0 -18 -4q-12 -8 -18 -23q-4 -10 -11 -18q-8 -7 -18 -12
q-15 -6 -23 -17q-6 -12 -4 -28q2 -12 -1 -22t-10 -19q-10 -13 -11 -27q1 -14 11 -27q7 -9 10 -19t1 -22q-2 -16 4 -28q8 -11 22 -17q11 -5 19 -12q7 -8 12 -18q6 -15 17 -23q8 -4 18 -4h10q5 1 10 1q6 0 12 -2q10 -3 19 -10q13 -10 27 -11q14 1 27 11q9 7 19 10q6 2 12 2
q5 0 10 -1h10q10 0 18 4q11 8 17 23q5 10 12 18q8 7 18 12q15 6 23 17q6 12 4 28q-1 12 1 22q3 10 10 19q10 13 11 27v0zM359 238v0v0q-7 -10 -12 -24q-3 -14 -1 -27v0q1 -12 -2 -19q-4 -6 -16 -11v0q-12 -5 -22 -15t-15 -22v0q-5 -12 -11 -16q-3 -2 -10 -2h-9v0q-6 1 -11 1
q-9 0 -16 -2q-14 -5 -24 -12q-10 -8 -18 -9q-8 1 -18 9q-10 7 -24 12q-7 2 -16 2q-5 0 -11 -1v0h-9q-7 0 -10 2q-6 4 -11 16v0v0q-5 12 -15 22t-22 15v0q-12 5 -16 11q-3 7 -2 19v0v0q2 13 -1 27q-5 14 -12 24v0q-8 10 -9 18q1 8 9 18v0q7 10 12 24q3 14 1 27v0q-1 12 2 20
q4 6 16 11v0q12 4 22 14t15 22v0q5 12 11 16q3 2 10 2h9v0q6 -1 11 -1q9 0 16 2q14 5 24 12q10 8 18 9q8 -1 18 -9v0q10 -7 24 -12q7 -2 16 -2q5 0 11 1v0h9q7 0 10 -2q6 -4 11 -16v0q5 -12 15 -22t22 -15v0v0q12 -5 16 -11q3 -7 2 -19v0v0q-2 -13 1 -27q5 -14 12 -24v0
q8 -10 9 -18q-1 -8 -9 -18v0zM286 64q-7 -2 -6 -10l21 -102l-105 55q-4 2 -8 0l-105 -55l21 102q1 8 -6 10q-8 1 -10 -6l-20 -103q-2 -9 5 -16q8 -5 17 -1l102 53l102 -53q3 -2 7 -2q5 0 10 3q7 7 5 16l-20 103q-2 7 -10 6v0z" />
    <glyph glyph-name="baht-sign" unicode="&#xe0ac;" horiz-adv-x="320" 
d="M144 440v-56h28q42 -1 71 -29q28 -29 29 -71q0 -28 -13 -50t-36 -36q36 -7 58 -34t23 -64q-1 -42 -29 -71q-29 -28 -71 -29h-60v-56q-1 -7 -8 -8q-7 1 -8 8v56h-74q-16 0 -27 11t-11 27v313q0 14 10 23q9 10 23 10h79v56q1 7 8 8q7 -1 8 -8v0v0zM128 368h-79
q-16 -1 -17 -17v-151h96v168v0zM172 200q36 1 59 25v0q24 23 25 59q-1 36 -25 59q-23 24 -59 25h-28v-168h28v0zM128 184h-96v-146q2 -20 22 -22h74v168v0zM204 16q36 1 59 25v0q24 23 25 59q-1 36 -25 59q-23 24 -59 25h-60v-168h60v0z" />
    <glyph glyph-name="bars-filter" unicode="&#xe0ad;" horiz-adv-x="448" 
d="M0 360q1 7 8 8h432q7 -1 8 -8q-1 -7 -8 -8h-432q-7 1 -8 8v0zM64 200q1 7 8 8h304q7 -1 8 -8q-1 -7 -8 -8h-304q-7 1 -8 8v0zM280 32h-112q-7 1 -8 8q1 7 8 8h112q7 -1 8 -8q-1 -7 -8 -8v0z" />
    <glyph glyph-name="bars-sort" unicode="&#xe0ae;" horiz-adv-x="448" 
d="M0 360q1 7 8 8h432q7 -1 8 -8q-1 -7 -8 -8h-432q-7 1 -8 8v0zM0 200q1 7 8 8h304q7 -1 8 -8q-1 -7 -8 -8h-304q-7 1 -8 8v0zM184 32h-176q-7 1 -8 8q1 7 8 8h176q7 -1 8 -8q-1 -7 -8 -8v0z" />
    <glyph glyph-name="basket-shopping-simple" unicode="&#xe0af;" horiz-adv-x="576" 
d="M128 161q0 13 9 22v0q9 9 23 10q14 -1 23 -10t9 -22q0 -14 -9 -23t-23 -9t-23 9t-9 23v0zM160 177q-15 -2 -16 -16q1 -15 16 -16q15 1 16 16q-1 14 -16 16v0zM448 161q0 -14 -9 -23v0q-9 -9 -23 -9t-23 9t-9 23q0 13 9 22t23 10q14 -1 23 -10t9 -22v0zM416 145
q15 1 16 16q-1 14 -16 16q-15 -2 -16 -16q1 -15 16 -16v0zM336 436q-2 7 4 11q7 3 11 -3l102 -188h115q7 -1 8 -8q-1 -7 -8 -8h-28l-64 -256q-6 -21 -23 -34q-17 -14 -39 -14h-253q-22 0 -39 14q-16 13 -22 34l-64 256h-28q-7 1 -8 8q1 7 8 8h115l101 188q5 6 12 3
q6 -4 3 -11l-98 -180h294l-99 180v0zM524 240h-472l63 -252q5 -16 17 -26q13 -10 29 -10h253q17 0 30 10q12 10 17 26l63 252v0z" />
    <glyph glyph-name="battery-exclamation" unicode="&#xe0b0;" horiz-adv-x="576" 
d="M272 304q7 -1 8 -8v-144q-1 -7 -8 -8q-7 1 -8 8v144q1 7 8 8v0zM288 96q-1 -15 -16 -16q-15 1 -16 16q1 15 16 16q15 -1 16 -16v0zM448 32h-368q-34 1 -57 23q-22 23 -23 57v160q1 34 23 57q23 22 57 23h368q34 -1 57 -23q22 -23 23 -57v-16h16q14 0 23 -9t9 -23v-64
q0 -14 -9 -23t-23 -9h-16v-16q-1 -34 -23 -57q-23 -22 -57 -23v0zM80 336q-27 -1 -45 -19v0q-18 -18 -19 -45v-160q1 -27 19 -45t45 -19h368q27 1 45 19t19 45v160q-1 27 -19 45t-45 19h-368v0zM544 144q15 1 16 16v64q-1 15 -16 16h-16v-96h16v0z" />
    <glyph glyph-name="battery-low" unicode="&#xe0b1;" horiz-adv-x="576" 
d="M64 240q1 20 14 34v0q14 13 34 14q20 -1 34 -14q13 -14 14 -34v-96q-1 -20 -14 -34q-14 -13 -34 -14q-20 1 -34 14q-13 14 -14 34v96v0zM112 272q-14 0 -23 -9v0q-9 -9 -9 -23v-96q0 -14 9 -23t23 -9t23 9t9 23v96q0 14 -9 23t-23 9v0zM448 32h-368q-34 1 -57 23
q-22 23 -23 57v160q1 34 23 57q23 22 57 23h368q34 -1 57 -23q22 -23 23 -57v-16h16q14 0 23 -9t9 -23v-64q0 -14 -9 -23t-23 -9h-16v-16q-1 -34 -23 -57q-23 -22 -57 -23v0zM80 336q-27 -1 -45 -19v0q-18 -18 -19 -45v-160q1 -27 19 -45t45 -19h368q27 1 45 19t19 45v160
q-1 27 -19 45t-45 19h-368v0zM544 144q15 1 16 16v64q-1 15 -16 16h-16v-96h16v0z" />
    <glyph glyph-name="bee" unicode="&#xe0b2;" horiz-adv-x="576" 
d="M448 353q-42 -2 -81 -23v1q1 2 1 6q-1 34 -23 56l37 43q4 6 -1 11q-6 4 -11 -1l-37 -43q-20 13 -45 14q-25 -1 -44 -15l-38 43q-5 5 -11 1q-5 -5 -2 -11l37 -43q-21 -22 -22 -55v-4q1 -2 1 -3q-39 21 -81 23q-54 -1 -90 -33q-37 -32 -38 -79q1 -43 31 -72q29 -30 76 -38
q8 0 9 8v0q-1 5 -7 7q-40 6 -66 32t-27 62q1 41 33 68q31 27 78 28q45 -2 86 -28q7 -18 20 -31q-39 -16 -62 -51q-24 -34 -25 -79q3 -54 37 -101q35 -48 68 -79q34 -30 37 -31q3 1 37 31q33 31 67 79q34 47 37 101q-1 45 -25 79q-23 34 -62 51q13 13 20 31q41 26 86 29
q48 -1 79 -28q32 -27 33 -68q-1 -36 -27 -62t-66 -32q-6 -2 -7 -8v0q1 -8 9 -8q47 7 76 37q30 30 31 72q-1 48 -37 79q-37 32 -91 34v0zM288 -44q-10 9 -27 24v0q-16 15 -34 36h122q-38 -42 -61 -60v0zM363 33h-150q-24 30 -39 64h227q-14 -36 -38 -64v0zM413 147
q0 -17 -6 -35h-238q-6 18 -6 35q0 15 4 29h242q4 -14 4 -29v0zM376 235q19 -19 28 -43h-232q9 24 28 43q36 36 88 37q51 0 88 -37v0zM323 283q-17 5 -35 5t-35 -5q-27 18 -29 54q1 26 18 44l8 -9q3 -4 6 -4t5 2q5 5 1 11l-8 9q15 10 34 10t34 -10l-8 -9q-4 -6 1 -11
q2 -2 5 -2t6 3l8 9q17 -18 18 -43q-2 -36 -29 -54v0z" />
    <glyph glyph-name="beer-mug" unicode="&#xe0b3;" 
d="M115 315q7 4 15 4q13 0 23 -9q23 -21 54 -22q32 1 55 22q10 9 23 9q8 0 15 -4q17 -11 35 -11q31 1 50 23q18 23 13 55q-4 18 -17 30q-12 13 -30 18q-7 2 -16 2q-17 0 -33 -9q-9 -5 -18 -5q-13 0 -22 8q-21 21 -55 22q-32 -1 -53 -22q-10 -8 -23 -8q-9 0 -18 5
q-15 9 -33 9q-8 0 -16 -2q-18 -5 -30 -17q-13 -13 -17 -31q-5 -32 13 -55q19 -22 49 -23q21 0 36 11v0zM33 379q7 27 35 35q1 1 2 1q5 2 10 1q13 0 24 -7q13 -7 27 -7q19 0 33 13q19 17 43 17q25 0 45 -17q14 -13 33 -13q14 0 27 7q11 7 23 7q6 0 12 -2q28 -8 35 -35
q5 -23 -10 -41q-13 -18 -37 -18q-14 0 -26 8q-11 7 -24 7q-19 0 -34 -14q-18 -17 -44 -17t-43 17q-14 14 -34 14q-13 0 -24 -7q-11 -8 -27 -8q-21 0 -36 18t-10 41v0zM135 216v-208q1 -7 8 -8q7 1 8 8v208q-1 7 -8 8q-7 -1 -8 -8v0zM439 288h-64q-7 -1 -8 -8v-280
q0 -20 -14 -34q-14 -13 -34 -14h-224q-20 1 -34 14q-13 14 -14 34v280q-1 7 -8 8q-7 -1 -8 -8v-280q1 -27 19 -45t45 -19h223q27 1 45 19q19 18 19 45v11l56 28q39 21 40 65v144q1 17 -10 28q-11 12 -29 12v0zM463 103q-1 -33 -31 -50l-49 -24v243h56q22 -2 24 -24v-145v0z
M199 216v-208q1 -7 8 -8q7 1 8 8v208q-1 7 -8 8q-7 -1 -8 -8v0zM263 216v-208q1 -7 8 -8q7 1 8 8v208q-1 7 -8 8q-7 -1 -8 -8v0z" />
    <glyph glyph-name="bitcoin-sign" unicode="&#xe0b4;" horiz-adv-x="320" 
d="M80 440q1 7 8 8q7 -1 8 -8v-56h64v56q1 7 8 8q7 -1 8 -8v-56q41 -3 68 -31t28 -69q0 -28 -13 -50t-36 -36q36 -7 58 -34t23 -64q-1 -42 -29 -71q-29 -28 -71 -29h-28v-56q-1 -7 -8 -8q-7 1 -8 8v56h-64v-56q-1 -7 -8 -8q-7 1 -8 8v56h-26q-16 0 -27 11t-11 27v313
q0 14 10 23q9 10 23 10h31v56v0zM32 351v-151h140q36 1 59 25q24 23 25 59q-1 36 -25 59q-23 24 -59 25h-123q-16 -1 -17 -17v0v0zM32 184v-146q2 -20 22 -22h150q36 1 59 25q24 23 25 59q-1 36 -25 59q-23 24 -59 25h-172v0z" />
    <glyph glyph-name="block-quote" unicode="&#xe0b5;" horiz-adv-x="448" 
d="M440 360q7 -1 8 -8q-1 -7 -8 -8h-432q-7 1 -8 8q1 7 8 8h432v0zM440 200q7 -1 8 -8q-1 -7 -8 -8h-304q-7 1 -8 8q1 7 8 8h304v0zM128 32q1 7 8 8h304q7 -1 8 -8q-1 -7 -8 -8h-304q-7 1 -8 8v0zM0 216q1 7 8 8q7 -1 8 -8v-208q-1 -7 -8 -8q-7 1 -8 8v208v0z" />
    <glyph glyph-name="bolt-auto" unicode="&#xe0b6;" horiz-adv-x="576" 
d="M317 413l-81 -189h123q23 -1 25 -25q-1 -11 -8 -18l-270 -239q-7 -6 -16 -6q-14 1 -21 11q-7 11 -2 24l81 189h-125q-21 2 -23 23q0 11 8 18l270 241q7 6 16 6q14 -1 21 -11q7 -11 2 -24v0v0zM18 189q-2 -2 -2 -6q1 -6 7 -7h137q4 0 7 -4q2 -3 0 -7l-86 -201
q-2 -10 9 -12q3 0 5 2l270 240q2 2 3 5q-1 8 -9 9h-135q-4 0 -7 4q-2 3 0 7l86 201q2 10 -9 12q-3 0 -5 -2l-271 -241v0zM464 160q5 0 7 -4l104 -208q3 -7 -3 -11q-7 -3 -11 3l-22 44h-150l-22 -44q-4 -6 -11 -3q-6 4 -3 11l104 208q2 4 7 4v0v0zM397 0h134l-67 134
l-67 -134v0z" />
    <glyph glyph-name="bolt-lightning" unicode="&#xe0b7;" horiz-adv-x="384" 
d="M381 275q-7 13 -21 13h-157l51 127q5 12 -2 22q-8 11 -20 11h-176q-20 -1 -24 -21l-32 -240q-1 -11 6 -19t18 -8h146l-41 -194q-3 -19 14 -27q4 -3 9 -3q12 0 20 10l208 304q7 12 1 25v0zM367 259l-208 -304q-3 -3 -7 -3q-2 0 -3 1q-6 2 -5 9l42 194q1 18 -16 20h-146
q-4 0 -6 3q-2 2 -2 7l32 239q1 7 8 7h175q4 0 7 -4q2 -3 1 -7l-50 -127q-3 -8 1 -15q5 -7 13 -7h157q5 0 7 -4q2 -5 0 -9v0z" />
    <glyph glyph-name="bolt-slash" unicode="&#xe0b8;" horiz-adv-x="640" 
d="M356 72l13 -10l-135 -120q-7 -6 -16 -6q-14 1 -21 11q-7 11 -2 24l73 170l13 -10l-72 -167q-2 -10 9 -12q3 0 6 2l132 118v0zM224 176l20 -16h-93q-21 2 -23 23q0 11 8 18l27 24l12 -11l-28 -25q-3 -2 -3 -6q1 -6 7 -7h73v0zM284 312l-12 10l134 120q7 6 16 6
q14 -1 21 -11q7 -11 2 -24l-73 -170l-13 10l72 167q2 10 -9 12q-3 0 -5 -2l-133 -118v0zM512 199q-1 -11 -8 -18l-26 -22l-12 10l27 25q2 2 3 5q-1 8 -9 9h-71l-20 16h91q23 -1 25 -25v0v0zM636 -50q6 -5 2 -10q-5 -6 -11 -2l-624 496q-5 5 -1 11q5 5 11 1l623 -496v0z" />
    <glyph glyph-name="book-arrow-right" unicode="&#xe0b9;" horiz-adv-x="640" 
d="M440 176q-7 -1 -8 -8v-104q-1 -14 -16 -15h-360q-24 -1 -40 -17v352q1 20 14 34q14 13 34 14h352q15 -1 16 -16v-104q1 -7 8 -8q7 1 8 8v104q0 14 -9 23t-23 9h-352q-27 -1 -45 -19t-19 -45v-391q1 -24 16 -40q16 -15 40 -16l383 -1q9 1 9 8q-1 7 -8 8h-24v80q14 0 23 9
t9 23v104q-1 7 -8 8v0zM400 -47h-344q-18 0 -30 13q-11 12 -10 31q2 16 14 26t28 10l342 -1v-79v0zM638 245l-108 108q-3 2 -6 2t-6 -2q-4 -6 0 -11l95 -95h-349q-7 0 -8 -8q1 -7 8 -8h349l-93 -93q-5 -5 0 -11q5 -5 11 0l107 107q4 5 0 11v0z" />
    <glyph glyph-name="book-arrow-up" unicode="&#xe0ba;" horiz-adv-x="448" 
d="M353 199q5 6 0 12l-107 107q-5 4 -11 0l-108 -108q-2 -3 -2 -6t2 -6q6 -4 11 0l95 95v-349q0 -7 8 -8q7 1 8 8v349l93 -93q5 -5 11 -1v0zM448 64v352q0 14 -9 23t-23 9h-352q-27 -1 -45 -19t-19 -45v-391q1 -24 16 -40q16 -15 40 -16h128q7 1 8 8q-1 7 -8 8h-128
q-18 0 -30 13q-11 12 -10 31q2 16 14 26t28 10h126q7 1 8 8q-1 7 -8 8h-128q-24 -1 -40 -17v352q1 20 14 34q14 13 34 14h352q15 -1 16 -16v-352q-1 -14 -16 -15h-120q-7 -1 -8 -8q1 -8 8 -9h104v-80h-104q-7 -1 -8 -8q1 -7 8 -8h143q9 1 9 8q-1 7 -8 8h-24v80q14 0 23 9
t9 23v0z" />
    <glyph glyph-name="book-bookmark" unicode="&#xe0bb;" horiz-adv-x="448" 
d="M448 64v352q0 14 -9 23t-23 9h-352q-27 -1 -45 -19t-19 -45v-391q1 -24 16 -40q16 -15 40 -16l383 -1q9 1 9 8q-1 7 -8 8h-24v80q14 0 23 9t9 23v0zM176 432h160v-215l-75 61q-2 2 -5 2t-5 -2l-75 -61v215v0zM400 -47h-344q-18 0 -30 13q-11 12 -10 31q2 16 14 26t28 10
l342 -1v-79v0zM56 49q-24 -1 -40 -17v352q1 20 14 34q14 13 34 14h96v-232q0 -5 5 -7q4 -2 8 1l83 68l83 -68q2 -2 5 -2q2 0 3 1q5 2 5 7v232h64q15 -1 16 -16v-352q-1 -14 -16 -15h-360v0z" />
    <glyph glyph-name="book-circle-arrow-right" unicode="&#xe0bc;" horiz-adv-x="640" 
d="M360 -47h-304q-18 0 -30 13q-11 12 -10 31q2 16 14 26t28 10l254 -1q7 1 8 8q-1 7 -8 8h-256q-24 -1 -40 -17v353q1 20 14 34q14 13 34 14h352q15 -1 16 -16v-152q1 -7 8 -8q7 1 8 8v152q0 14 -9 23t-23 9h-352q-27 -1 -45 -19t-19 -45v-391q1 -24 16 -40q16 -15 40 -16
l304 -1q7 1 8 8q-1 8 -8 9v0zM510 150q-6 4 -12 0q-4 -6 0 -12l51 -50h-125q-7 -1 -8 -8q1 -7 8 -8h125l-51 -50q-4 -6 0 -12q3 -2 6 -2t6 2l64 64q4 6 0 12l-64 64v0zM496 224q-61 -2 -102 -42v0q-40 -41 -42 -102q2 -61 42 -102q41 -40 102 -42q61 2 102 42q40 41 42 102
q-2 61 -42 102q-41 40 -102 42v0zM496 -48q-54 1 -90 38v0q-37 36 -38 90q1 54 38 90q36 37 90 38q54 -1 90 -38q37 -36 38 -90q-1 -54 -38 -90q-36 -37 -90 -38v0z" />
    <glyph glyph-name="book-circle-arrow-up" unicode="&#xe0bd;" horiz-adv-x="640" 
d="M360 -47h-304q-18 0 -30 13q-11 12 -10 31q2 16 14 26t28 10l254 -1q7 1 8 8q-1 7 -8 8h-256q-24 -1 -40 -17v353q1 20 14 34q14 13 34 14h352q15 -1 16 -16v-152q1 -7 8 -8q7 1 8 8v152q0 14 -9 23t-23 9h-352q-27 -1 -45 -19t-19 -45v-391q1 -24 16 -40q16 -15 40 -16
l304 -1q7 1 8 8q-1 8 -8 9v0zM496 224q-61 -2 -102 -42v0q-40 -41 -42 -101q2 -62 42 -103q41 -40 102 -42q61 2 102 42q40 41 42 102q-2 61 -42 102q-41 40 -102 42v0zM496 -48q-54 1 -90 38v0q-37 36 -38 90q1 54 38 90q36 37 90 38q54 -1 90 -37q37 -36 38 -90
q-1 -55 -38 -91q-36 -37 -90 -38v0zM502 158q-6 4 -12 0l-64 -64q-4 -6 0 -12q6 -4 12 0l50 51v-125q1 -7 8 -8q7 1 8 8v125l50 -51q6 -4 12 0q2 3 2 6t-2 6l-64 64v0z" />
    <glyph glyph-name="book-copy" unicode="&#xe0be;" horiz-adv-x="576" 
d="M375 -47h-23v40q-1 6 -8 7q-7 -1 -8 -8v-40h-280q-18 1 -30 13q-11 13 -10 31q2 16 14 26t28 10l94 1q7 1 8 8q-1 7 -8 8h-96q-24 -1 -40 -17v256q1 20 14 34q14 13 34 14h88q7 1 8 8q-1 7 -8 8h-88q-27 -1 -45 -19t-19 -45v-295q1 -24 16 -40q16 -15 40 -16l319 -1
q9 1 9 8q0 8 -9 9v0zM576 160v256q0 14 -9 23t-23 9h-288q-27 -1 -45 -19t-19 -45v-295q1 -24 16 -40q16 -15 40 -16h319q9 0 9 8q-1 7 -8 8h-24v79q14 0 23 9t9 23v0zM528 49h-280q-18 0 -30 13q-11 12 -10 31q2 16 14 26t28 10l278 -1v-79v0zM248 145q-24 -1 -40 -17v256
q1 20 14 34q14 13 34 14h288q15 -1 16 -16v-256q-1 -15 -16 -16l-296 1v0z" />
    <glyph glyph-name="book-font" unicode="&#xe0bf;" horiz-adv-x="448" 
d="M231 348q-7 8 -14 0l-104 -208q-3 -7 3 -11q7 -3 11 3l30 60h134l30 -60q2 -4 7 -4q2 0 4 1q6 4 3 11l-104 208v0zM165 208l59 118l59 -118h-118v0zM448 64v352q0 14 -9 23t-23 9h-352q-27 -1 -45 -19t-19 -45v-391q1 -24 16 -40q16 -15 39 -16h383q10 0 10 8q-1 7 -8 8
h-24v79q14 0 23 9t9 23v0zM400 -47h-344q-18 0 -30 13q-11 12 -10 31q2 16 14 26t28 10l342 -1v-79v0zM56 49q-24 -1 -40 -17v352q1 20 14 34q14 13 34 14h352q15 -1 16 -16v-352q-1 -15 -16 -16l-360 1v0z" />
    <glyph glyph-name="book-open-cover" unicode="&#xe0c0;" horiz-adv-x="640" 
d="M632 416q-7 -1 -8 -8v-370q-1 -18 -18 -23l-281 -62q-5 -2 -10 0l-281 62q-17 5 -18 23v370q-1 7 -8 8q-7 -1 -8 -8v-370q2 -30 31 -39l281 -62q4 -1 8 -1t9 1l280 62q29 9 31 39v370q-1 7 -8 8v0zM89 51l231 -51l231 51q23 7 25 32v326q0 16 -12 28q-11 11 -27 11h-6
l-211 -33l-211 33h-6q-16 0 -27 -11q-12 -12 -12 -28v-326q2 -25 25 -32v0zM328 400l205 32h4q10 0 16 -7q7 -6 7 -16v-326q-1 -13 -13 -16l-219 -49v382v0zM80 409q0 9 7 16t16 8h4l205 -33v-382l-219 49q-12 4 -13 16v326v0z" />
    <glyph glyph-name="book-section" unicode="&#xe0c1;" horiz-adv-x="448" 
d="M286 191q27 11 33 35q5 32 -20 46q-25 13 -57 19v0l-10 3q-30 7 -45 17q-14 9 -10 27q4 17 25 25q22 8 55 3q14 -1 35 -7q7 -2 10 5q1 7 -6 10q-22 6 -37 8q-40 5 -66 -5q-26 -11 -32 -36q-4 -20 6 -33q10 -12 27 -19q-27 -11 -33 -35q-4 -32 20 -45q24 -14 47 -18v0
l10 -2q34 -8 51 -18q18 -9 14 -29q-4 -17 -26 -25q-21 -8 -54 -4q-23 4 -45 12v0l-8 2q-8 1 -10 -5q-1 -7 6 -10l7 -3q23 -7 48 -11q12 -2 24 -2q63 1 74 43q4 20 -6 32q-9 13 -27 20v0zM242 204l-10 2q-30 8 -45 17q-14 10 -10 28q3 14 16 21q13 6 28 8q3 0 9 -2q7 -2 8 -2
q34 -7 51 -17q18 -10 14 -30q-4 -14 -16 -21q-13 -6 -28 -8q-8 2 -17 4v0zM448 64v352q0 14 -9 23t-23 9h-352q-27 -1 -45 -19t-19 -45v-391q1 -24 16 -40q16 -15 40 -16l383 -1q9 1 9 8q-1 7 -8 8h-24v80q14 0 23 9t9 23v0zM400 -47h-344q-18 0 -30 13q-11 12 -10 31
q2 16 14 26t28 10l342 -1v-79v0zM56 49q-24 -1 -40 -17v352q1 20 14 34q14 13 34 14h352q15 -1 16 -16v-352q-1 -14 -16 -15h-360v0z" />
    <glyph glyph-name="bookmark-slash" unicode="&#xe0c2;" horiz-adv-x="640" 
d="M192 432h256q20 -1 34 -14q13 -14 14 -34v-240l16 -13v253q-1 27 -19 45t-45 19h-256q-30 -1 -50 -23l13 -10q15 16 37 17v0zM144 -47v287l-16 13v-301q1 -10 8 -14q8 -4 16 0l168 98l168 -98q14 -6 21 7l-189 110l-176 -102v0zM636 -50l-623 496q-2 2 -5 2q-4 0 -6 -3
q-4 -6 1 -11l623 -496q4 -2 5 -2q4 0 6 3q6 6 -1 11v0z" />
    <glyph glyph-name="bowling-ball-pin" unicode="&#xe0c3;" horiz-adv-x="576" 
d="M208 352q-88 -2 -147 -61v0q-59 -59 -61 -147q2 -88 61 -147t147 -61q88 2 147 61t61 147q-2 88 -61 147t-147 61v0zM208 -48q-81 2 -136 56v0q-54 55 -56 136q2 81 56 136q55 54 136 56q81 -2 136 -56q54 -55 56 -136q-2 -81 -56 -136q-55 -54 -136 -56v0zM520 272
q1 21 10 41v0q12 25 14 63q-1 35 -20 54q-19 18 -44 18q-26 0 -44 -18q-19 -18 -20 -54q2 -39 14 -63q9 -20 10 -40q0 -22 -8 -44q5 -12 8 -25q12 30 15 61h50q6 -49 28 -95q1 -1 1 -2q23 -46 26 -88q-1 -36 -12 -66q-11 -29 -24 -52l-1 -1q-4 -9 -14 -9h-58q-10 0 -15 10
q-13 24 -25 55q-5 -9 -11 -16q11 -27 22 -48q10 -16 29 -17h58q19 1 29 17q0 1 1 2q13 23 24 55q12 31 13 70q0 24 -9 48q-8 24 -19 48t-19 48q-9 24 -9 48v0zM505 280h-50q-3 21 -10 39v0q-11 23 -13 57q1 29 15 42q14 14 33 14t33 -14q14 -13 15 -42q-2 -34 -13 -57v0
q-8 -18 -10 -39v0zM123 264q-15 0 -25 -10v0q-10 -10 -10 -25q0 -14 10 -24t25 -10q14 0 24 10t10 24q0 15 -10 25t-24 10v0zM123 211q-17 2 -19 18q2 17 19 19q17 -2 18 -19q-2 -16 -18 -18v0zM197 221q-14 0 -24 -10v0q-10 -10 -10 -24q0 -15 10 -25t24 -10q15 0 25 10
t10 25q0 14 -10 24t-25 10v0zM197 168q-17 2 -18 19q1 17 18 18q17 -1 19 -18q-2 -17 -19 -19v0zM197 309q-14 0 -24 -10v0q-10 -10 -10 -24q0 -15 10 -25t24 -10q15 0 25 10t10 25q0 14 -10 24t-25 10v0zM197 256q-17 2 -18 19q1 17 18 18q17 -1 19 -18q-2 -17 -19 -19v0z
" />
    <glyph glyph-name="box-circle-check" unicode="&#xe0c4;" horiz-adv-x="576" 
d="M15 32q1 -20 14 -34v0q14 -13 34 -14h222q5 -8 11 -16h-232q-27 1 -45 19t-19 45v226q0 14 6 26l41 94q18 36 59 38h236q41 -2 59 -38l42 -94q5 -12 5 -26v-2h-432l-1 -224v0zM231 272h199q-1 3 -2 5v1l-42 93q-13 28 -44 29h-111v-128v0zM215 400h-109q-31 -1 -44 -29
l-42 -93v-1q-1 -2 -2 -5h197v128v0zM502 126q4 -6 0 -12l-80 -80q-6 -4 -12 0l-48 48q-4 6 0 12q6 4 12 0l42 -43l74 75q6 4 12 0v0v0zM287 80q2 61 43 102v0q41 40 102 42q61 -2 102 -42q40 -41 42 -102q-2 -61 -42 -102q-41 -40 -102 -42q-61 2 -102 42q-41 41 -43 102v0z
M432 -48q54 1 91 37v0q36 37 37 91q-1 54 -37 91q-37 36 -91 37q-54 -1 -91 -37q-36 -37 -37 -91q1 -54 37 -91q37 -36 91 -37v0z" />
    <glyph glyph-name="brackets-round" unicode="&#xe0c5;" 
d="M141 394q5 4 1 11q-4 5 -11 2q-3 -2 -27 -26t-47 -71t-25 -117q2 -70 25 -117q23 -48 47 -72t27 -26q2 -1 5 -1q4 0 6 3q4 7 -1 11q-2 0 -25 23q-22 22 -44 67t-24 112q2 66 23 110q22 44 44 67q22 22 26 23v1v0zM381 407q-7 3 -11 -2q-4 -7 1 -11v-1q4 -1 26 -24
q22 -22 44 -67q21 -44 23 -109q-2 -66 -24 -110q-21 -45 -44 -68q-22 -23 -25 -24v0q-5 -4 -1 -11q2 -3 6 -3q3 0 5 1q3 1 27 25t47 72q23 47 25 118q-2 71 -25 118t-47 70q-24 24 -27 26v0z" />
    <glyph glyph-name="brain-circuit" unicode="&#xe0c6;" 
d="M138 400q5 21 22 34v0q17 14 40 14q38 -2 56 -33q18 31 56 33q23 0 40 -14q16 -13 22 -34q25 -3 41 -21q16 -17 17 -43q0 -7 -2 -14q0 -2 -1 -5q23 -7 37 -26q14 -18 14 -43q0 -19 -9 -34q39 -23 41 -70q0 -25 -14 -45q-13 -20 -35 -29q1 -7 1 -14q-1 -31 -21 -51
t-51 -21q-5 0 -11 1q-7 -22 -24 -35q-17 -14 -41 -14q-41 2 -60 36q-20 -34 -60 -36q-24 0 -41 14q-18 13 -24 35q-6 -1 -11 -1q-31 1 -51 21t-21 51q0 7 1 14q-22 9 -35 29q-14 20 -14 45q2 47 41 70q-9 15 -9 34q0 25 14 43q14 19 37 26q-3 9 -3 19q1 26 17 43
q16 18 41 21v0v0zM153 391l-1 -7h-8q-20 -1 -34 -14q-13 -14 -14 -34q0 -12 4 -21l6 -9l-11 -3q-20 -3 -34 -18q-13 -16 -14 -37q1 -19 12 -33l6 -8l-10 -4q-17 -7 -28 -23q-12 -16 -12 -36q1 -22 13 -38q13 -17 33 -23l8 -3l-2 -7q-3 -8 -4 -17q1 -24 17 -40q16 -15 39 -16
q9 0 16 2l8 2l2 -9q3 -18 17 -31q14 -12 33 -12q22 0 37 14q14 14 16 34l-1 2v158h-56q-10 0 -17 -7t-7 -17v-9q23 -7 24 -31q0 -14 -9 -23t-23 -9q-13 0 -22 9t-10 23q2 24 24 31v9q1 17 12 28q12 12 28 12h56v120h-41q-6 -22 -31 -24q-13 0 -22 9t-10 23q1 14 10 23t22 9
q25 -2 31 -24h41v72q0 20 -14 34q-13 13 -34 14q-18 0 -31 -12q-13 -11 -15 -29v0v0zM264 296v-208h73q7 22 31 24q14 0 23 -9t9 -23t-9 -23t-23 -9q-24 2 -31 24h-73v-70v-2q2 -20 16 -34q15 -14 36 -14q20 0 34 12q14 13 17 31l2 9l8 -2q7 -2 15 -2q24 1 40 16
q15 16 16 40q0 9 -2 17l-3 7l8 3q19 6 32 23q13 16 13 38q0 20 -11 36t-28 23l-10 4l6 8q11 14 11 33q0 21 -14 37q-13 15 -34 18l-10 3l5 9q5 9 5 21q-1 20 -14 34q-14 13 -34 14h-7l-1 7q-3 18 -16 29q-13 12 -32 12q-20 -1 -34 -14q-13 -14 -14 -34v-72h56q17 0 28 -12
q12 -11 12 -28v-17q22 -7 24 -31q0 -14 -9 -23t-23 -9t-23 9t-9 23q2 24 24 31v17q-2 22 -24 24h-56v0zM176 288q15 1 16 16q-1 15 -16 16q-15 -1 -16 -16q1 -15 16 -16v0zM160 80q15 1 16 16q-1 15 -16 16q-15 -1 -16 -16q1 -15 16 -16v0zM368 224q-1 15 -16 16
q-15 -1 -16 -16q1 -15 16 -16q15 1 16 16v0zM368 64q15 1 16 16q-1 15 -16 16q-15 -1 -16 -16q1 -15 16 -16v0z" />
    <glyph glyph-name="brake-warning" unicode="&#xe0c7;" horiz-adv-x="640" 
d="M328 152q-1 -7 -8 -8q-7 1 -8 8v160q1 7 8 8q7 -1 8 -8v-160v0zM304 96q1 15 16 16q15 -1 16 -16q-1 -15 -16 -16q-15 1 -16 16v0zM96 192q1 63 31 113v0q29 51 80 80v0q50 30 113 31q63 -1 113 -31q51 -29 80 -80q30 -50 31 -113q-1 -63 -31 -113q-29 -51 -80 -80
q-50 -30 -113 -31q-63 1 -113 31q-51 29 -80 80q-30 50 -31 113v0zM320 -16q88 2 147 61v0q59 59 61 147q-2 88 -61 147t-147 61q-88 -2 -147 -61t-61 -147q2 -88 61 -147t147 -61v0zM16 192q1 -89 47 -160q3 -6 -3 -11q-6 -3 -11 3q-48 74 -49 168q1 94 49 168q5 6 11 3
q6 -5 3 -11q-46 -71 -47 -160v0zM640 192q-1 -94 -49 -168q-5 -6 -11 -3q-7 5 -3 11q46 71 47 160q-1 89 -47 160q-4 6 3 11q6 3 11 -3q48 -74 49 -168v0z" />
    <glyph glyph-name="briefcase-blank" unicode="&#xe0c8;" 
d="M464 352h-80v56q0 17 -12 28q-11 12 -28 12h-176q-17 0 -28 -12q-12 -11 -12 -28v-56h-80q-20 -1 -34 -14q-13 -14 -14 -34v-288q1 -20 14 -34q14 -13 34 -14h416q20 1 34 14q13 14 14 34v288q-1 20 -14 34q-14 13 -34 14v0zM144 408q2 22 24 24h176q22 -2 24 -24v-56
h-224v56v0zM496 16q0 -14 -9 -23v0q-9 -9 -23 -9h-416q-14 0 -23 9t-9 23v288q0 14 9 23t23 9h416q14 0 23 -9t9 -23v-288v0z" />
    <glyph glyph-name="brightness" unicode="&#xe0c9;" 
d="M248 440q1 7 8 8q7 -1 8 -8v-96q-1 -7 -8 -8q-7 1 -8 8v96v0zM160 192q1 41 28 68v0q27 27 68 28q41 -1 68 -28t28 -68q-1 -41 -28 -68t-68 -28q-41 1 -68 28t-28 68v0zM256 112q34 1 57 23v0q22 23 23 57q-1 34 -23 57q-23 22 -57 23q-34 -1 -57 -23q-22 -23 -23 -57
q1 -34 23 -57q23 -22 57 -23v0zM256 -64q-7 1 -8 8v96q1 7 8 8q7 -1 8 -8v-96q-1 -7 -8 -8v0zM0 192q1 7 8 8h96q7 -1 8 -8q-1 -7 -8 -8h-96q-7 1 -8 8v0zM504 200q7 -1 8 -8q-1 -7 -8 -8h-96q-7 1 -8 8q1 7 8 8h96v0zM75 11q-5 6 0 11l68 68q5 5 11 0q5 -5 0 -11l-68 -68
q-5 -5 -11 0v0v0zM426 373q5 5 11 0q5 -6 0 -11l-68 -68q-6 -5 -11 0q-5 6 0 11l68 68v0zM75 373q6 5 11 0l68 -68q5 -5 0 -11q-6 -5 -11 0l-68 68q-5 5 0 11v0v0zM437 22q5 -5 0 -11q-6 -5 -11 0l-68 68q-5 6 0 11t11 0l68 -68v0z" />
    <glyph glyph-name="brightness-low" unicode="&#xe0ca;" horiz-adv-x="448" 
d="M240 368q-1 -15 -16 -16q-15 1 -16 16q1 15 16 16q15 -1 16 -16v0zM128 192q1 41 28 68v0q27 27 68 28q41 -1 68 -28t28 -68q-1 -41 -28 -68t-68 -28q-41 1 -68 28t-28 68v0zM224 112q34 1 57 23v0q22 23 23 57q-1 34 -23 57q-23 22 -57 23q-34 -1 -57 -23
q-22 -23 -23 -57q1 -34 23 -57q23 -22 57 -23v0zM208 16q1 15 16 16q15 -1 16 -16q-1 -15 -16 -16q-15 1 -16 16v0zM400 176q-15 1 -16 16q1 15 16 16q15 -1 16 -16q-1 -15 -16 -16v0zM48 208q15 -1 16 -16q-1 -15 -16 -16q-15 1 -16 16q1 15 16 16v0zM112 320
q-1 -15 -16 -16q-15 1 -16 16q1 15 16 16q15 -1 16 -16v0zM352 48q-15 1 -16 16q1 15 16 16q15 -1 16 -16q-1 -15 -16 -16v0zM368 320q-1 -15 -16 -16q-15 1 -16 16q1 15 16 16q15 -1 16 -16v0zM96 80q15 -1 16 -16q-1 -15 -16 -16q-15 1 -16 16q1 15 16 16v0z" />
    <glyph glyph-name="browsers" unicode="&#xe0cb;" horiz-adv-x="576" 
d="M512 448q27 -1 45 -19v0q18 -18 19 -45v-288q-1 -27 -19 -45t-45 -19h-352q-27 1 -45 19t-19 45v288q1 27 19 45t45 19h352v0zM512 432h-312v-80h360v32q-1 20 -14 34q-14 13 -34 14v0zM112 384v-32h72v80h-24q-20 -1 -34 -14q-13 -14 -14 -34v0zM160 48h352q20 1 34 14
q13 14 14 34v240h-448v-240q1 -20 14 -34q14 -13 34 -14v0zM16 56q1 -44 30 -74v0q30 -29 74 -30h352q7 -1 8 -8q-1 -7 -8 -8h-352q-51 1 -85 35t-35 85v288q1 7 8 8q7 -1 8 -8v-288v0z" />
    <glyph glyph-name="buildings" unicode="&#xe0cc;" 
d="M368 104q2 22 24 24h32q22 -2 24 -24v-32q-2 -22 -24 -24h-32q-22 2 -24 24v32v0zM424 64q7 1 8 8v32q-1 7 -8 8h-32q-7 -1 -8 -8v-32q1 -7 8 -8h32v0zM392 176q-22 2 -24 24v32q2 22 24 24h32q22 -2 24 -24v-32q-2 -22 -24 -24h-32v0zM384 200q1 -7 8 -8h32q7 1 8 8v32
q-1 7 -8 8h-32q-7 -1 -8 -8v-32v0zM256 104q2 22 24 24h32q22 -2 24 -24v-32q-2 -22 -24 -24h-32q-22 2 -24 24v32v0zM312 64q7 1 8 8v32q-1 7 -8 8h-32q-7 -1 -8 -8v-32q1 -7 8 -8h32v0zM312 376q22 -2 24 -24v-32q-2 -22 -24 -24h-32q-22 2 -24 24v32q2 22 24 24h32v0z
M272 320q1 -7 8 -8h32q7 1 8 8v32q-1 7 -8 8h-32q-7 -1 -8 -8v-32v0zM256 232q2 22 24 24h32q22 -2 24 -24v-32q-2 -22 -24 -24h-32q-22 2 -24 24v32v0zM312 192q7 1 8 8v32q-1 7 -8 8h-32q-7 -1 -8 -8v-32q1 -7 8 -8h32v0zM424 376q22 -2 24 -24v-32q-2 -22 -24 -24h-32
q-22 2 -24 24v32q2 22 24 24h32v0zM384 320q1 -7 8 -8h32q7 1 8 8v32q-1 7 -8 8h-32q-7 -1 -8 -8v-32v0zM192 384q1 27 19 45v0q18 18 45 19h192q27 -1 45 -19t19 -45v-384q-1 -27 -19 -45t-45 -19h-192q-27 1 -45 19t-19 45v384v0zM208 384v-384q1 -20 14 -34
q14 -13 34 -14h192q20 1 34 14q13 14 14 34v384q-1 20 -14 34q-14 13 -34 14h-192q-20 -1 -34 -14q-13 -14 -14 -34v0zM160 320q7 -1 8 -8q-1 -7 -8 -8h-104q-17 0 -28 -12q-12 -11 -12 -28v-272q0 -17 12 -28q11 -12 28 -12h120q7 -1 8 -8q-1 -7 -8 -8h-120q-24 1 -40 16
q-15 16 -16 40v272q1 24 16 40q16 15 40 16h104v0zM64 104q2 22 24 24h32q22 -2 24 -24v-32q-2 -22 -24 -24h-32q-22 2 -24 24v32v0zM88 112q-7 -1 -8 -8v-32q1 -7 8 -8h32q7 1 8 8v32q-1 7 -8 8h-32v0zM120 256q22 -2 24 -24v-32q-2 -22 -24 -24h-32q-22 2 -24 24v32
q2 22 24 24h32v0zM80 200q1 -7 8 -8h32q7 1 8 8v32q-1 7 -8 8h-32q-7 -1 -8 -8v-32v0z" />
    <glyph glyph-name="burger-fries" unicode="&#xe0cd;" horiz-adv-x="640" 
d="M263 385q-1 -1 -2 -3q-1 -1 -3 -1q-1 -1 -3 -1q-2 1 -4 1q0 1 -1 2v0q-2 2 -2 3v3q-1 2 0 3q1 0 1 1q2 4 6 7q3 3 8 5l34 10q6 2 12 0q6 -1 11 -5q4 -4 7 -10q2 -6 1 -12l-23 -121q0 -2 -1 -3q0 -1 -1 -1l-1 -2q-3 -1 -5 -1t-4 1q-2 2 -3 4t0 4l22 122v2q-1 1 0 2
q-1 2 -3 3q-1 1 -2 1l-1 1h-4l-35 -11v0q-2 1 -4 -4v0v0zM56 398q-1 7 2 13q2 6 8 11l28 21q5 4 11 5t12 -2q6 -2 9 -7q5 -5 6 -11l4 -20q1 -1 -1 -3q1 -1 0 -3l-2 -2q-2 -1 -3 -1q-4 -1 -6 1q-3 2 -4 5l-3 20l-2 4l-2 2q-1 0 -1 1h-4q-3 0 -4 -2l-29 -21q-2 -2 -2 -4
q-1 -2 -1 -4l37 -189v-4q0 -1 -1 -2l-1 -1q-1 0 -1 -2q-2 0 -3 -1h-2q-3 0 -5 2t-3 5l-37 189v0zM239 -57q-1 -1 -1 -2v0v-2q-1 -1 -4 -2q-1 -1 -3 0h-145q-11 -1 -20 6q-10 7 -12 18l-54 243v8q1 3 4 7l1 1l4 2q0 1 1 1q3 2 6 2h34q5 -1 10 -4q4 -3 5 -7q8 -30 43 -49
q34 -19 84 -20q16 -1 31 2q2 0 4 -1q1 1 2 -1h1q1 -1 2 -3v-3q0 -3 -2 -5q-2 -3 -4 -3q-4 0 -8 -1q-13 -2 -26 -1q-55 0 -93 22q-39 22 -49 58h-34l54 -245q1 -5 6 -9q4 -3 10 -2h145q1 -1 2 -1q2 -1 3 -2q2 -1 3 -3v-4v0zM1 333q-2 8 1 16q2 8 9 14q5 5 13 7q8 1 15 -1
q2 0 3 -1l2 -2t2 -3q0 -2 -1 -3q0 -2 -1 -3l-2 -2q-2 -1 -3 -1q-2 -1 -4 0q-3 1 -7 0t-7 -3q-3 -3 -4 -6q-1 -5 -1 -8l16 -80v-3q0 -1 -1 -3l-2 -2q-2 -1 -3 0q-1 -1 -2 0h-1q-2 0 -4 1l-1 1q-1 2 -2 3l-15 79v0zM154 174q-2 2 -2 5v246q0 5 3 11q3 5 9 8q5 4 10 4
q7 0 13 -3l32 -16q6 -3 9 -8q4 -6 4 -12v-230q0 -2 -2 -5v-1h-2q-3 -2 -4 -2q-2 0 -4 2h-2v1q-2 3 -2 5v229q0 2 -1 4l-3 3l-32 16q-3 1 -4 1q-3 0 -4 -1q-2 -1 -3 -3v-1q-2 -1 -1 -2v-246q0 -1 -1 -2q0 -2 -1 -3q-3 -3 -6 -3t-6 3v0zM344 353q-4 1 -4 5v0v0q0 3 2 6
q2 2 5 3q7 1 14 -1t12 -6q7 -6 9 -14q3 -7 2 -16l-7 -31q0 -2 -2 -4l-4 -2t-4 0q-2 0 -3 1v1q-2 1 -2 4q-1 1 -1 4l7 30q0 4 -1 8q-1 3 -4 6q-2 3 -6 4t-7 0q-4 0 -6 2v0zM359 161q-2 1 -3 2q-2 2 -3 4v1q-2 2 -1 5q0 2 2 6q2 3 5 4q4 1 7 1q4 -1 7 -4q2 -2 3 -6v-3
q-1 -2 -1 -4q-1 -3 -4 -4q-3 -3 -6 -2h-1q-2 -1 -5 0v0zM634 88q6 -11 5 -23q1 -14 -5 -25q-7 -11 -18 -17v-42q-1 -19 -13 -32q-13 -12 -31 -12h-248q-18 0 -31 12q-13 13 -13 32v42q-11 6 -18 17q-6 11 -6 25q0 12 6 23q7 11 18 17v40q0 16 8 32q6 16 19 28q61 51 141 52
v0v0q80 -1 141 -52q12 -12 20 -28q7 -16 7 -32v-40q11 -6 18 -17v0zM296 111q1 0 2 1v0q3 0 6 1h288q3 -1 6 -1q1 -1 2 -1v34q0 13 -6 26t-16 22q-57 47 -130 48v0q-74 -1 -130 -48q-11 -9 -16 -22q-6 -13 -6 -26v-34v0zM600 17q-3 -1 -5 0v0h-3h-288h-3q-2 -1 -5 0v-36
q0 -13 8 -21q9 -7 20 -7h248q11 0 20 7q7 8 8 21v36v0zM615 41q9 10 9 24q0 12 -9 22q-10 9 -23 10h-288q-13 -1 -23 -10q-9 -10 -9 -22q0 -14 9 -24q10 -8 23 -8h288q13 0 23 8v0zM443 181q-2 1 -3 2q-2 2 -3 4v1q-2 2 -1 5q0 2 2 6q2 3 5 4q4 1 7 1q4 -1 7 -4q2 -2 3 -6
v-3q-1 -2 -1 -4q-1 -3 -4 -4q-3 -3 -6 -2h-1q-2 -1 -5 0v0v0zM527 161q-2 1 -3 2q-2 2 -3 4v1q-2 2 -1 5q0 2 2 6q2 3 5 4q4 1 7 1q4 -1 7 -4q2 -2 3 -6v-3q-1 -2 -1 -4q-1 -3 -4 -4q-3 -3 -6 -2h-1q-2 -1 -5 0v0v0z" />
    <glyph glyph-name="burger-glass" unicode="&#xe0ce;" horiz-adv-x="640" 
d="M634 88q6 -11 5 -24q1 -13 -5 -24q-7 -11 -18 -17v-43q-1 -18 -13 -31q-13 -12 -31 -13h-248q-18 1 -31 13q-12 13 -14 31v43q-10 6 -17 17q-6 11 -6 24t6 24q7 11 17 17v40q2 16 8 32q8 16 20 28q61 51 141 52v0v0q80 -1 141 -52q13 -12 20 -28t7 -32v-40q11 -6 18 -17
v0zM296 111q4 1 8 1h288q4 0 8 -1v34q0 13 -6 26t-16 22q-57 47 -130 48v0q-74 -1 -130 -48q-11 -9 -16 -22t-7 -26l1 -34v0zM600 17h-3v0q-3 0 -5 -1h-289q-1 1 -4 1h-4v-37q1 -11 9 -20q9 -7 20 -8h248q11 1 20 8q7 9 8 20v37v0zM615 41q9 10 9 23t-9 23q-10 9 -23 9h-289
q-12 0 -22 -9q-9 -10 -10 -23q1 -13 10 -23q10 -9 22 -9h289q13 0 23 9v0zM527 161q-2 1 -3 2q-2 2 -3 4q0 1 -1 1q-1 2 0 4q0 4 2 7t5 4q4 1 7 1q4 -1 7 -4q2 -2 3 -6v-3q-1 -2 -1 -4q-1 -3 -4 -4q-3 -3 -7 -3q-2 0 -5 1v0v0zM359 161q-2 1 -3 2q-2 2 -3 4q0 1 -1 1
q-1 2 0 4q0 4 2 7t5 4q4 1 7 1q4 -1 7 -4q2 -2 3 -6v-3q-1 -2 -1 -4q-1 -3 -4 -4q-3 -3 -7 -3q-2 0 -5 1v0zM443 181q-2 1 -3 2q-2 2 -3 4q0 1 -1 1q-1 2 0 4q0 4 2 7t5 4q4 1 7 1q4 -1 7 -4q2 -2 3 -6v-3q-1 -2 -1 -4q-1 -3 -4 -4q-3 -3 -6 -2h-1q-2 -1 -5 0v0v0zM254 -50
q1 -3 1 -6v0v0v0q0 -3 -1 -6q-2 -2 -7 -2h-184q-11 0 -21 9q-9 8 -11 22l-31 447q0 7 2 13t7 11q4 5 10 7q7 3 12 3h288q8 0 14 -3q6 -2 10 -7q5 -5 7 -11t2 -13l-10 -143q-1 -6 -5 -11q-5 -4 -11 -4h-299l20 -289q2 -6 6 -11q3 -3 8 -4h2h184q5 0 7 -2v0v0zM26 273h300
l10 142q0 3 -1 7q-1 3 -3 5l-6 4h-1q-2 2 -6 2h-288q-1 -1 -3 -1q-1 -1 -2 -1l-6 -4q-2 -3 -3 -6q-1 -1 -1 -3q0 -1 -1 -3l11 -142v0z" />
    <glyph glyph-name="calendar-arrow-down" unicode="&#xe0d0;" horiz-adv-x="448" 
d="M232 43l74 75q6 4 12 0q4 -6 0 -12l-88 -88q-6 -4 -12 0l-88 88q-4 6 0 12q6 4 12 0l73 -75v157q1 7 8 8q9 -1 9 -8v-157v0zM128 384h192v56q1 7 8 8q7 -1 8 -8v-56h48q27 -1 45 -19t19 -45v-320q-1 -27 -19 -45t-45 -19h-320q-27 1 -45 19t-19 45v320q1 27 19 45t45 19
h48v56q1 7 8 8q7 -1 8 -8v-56v0zM16 0q1 -20 14 -34v0q14 -13 34 -14h320q20 1 34 14q13 14 14 34v256h-416v-256v0zM64 368q-20 -1 -34 -14v0q-13 -14 -14 -34v-48h416v48q-1 20 -14 34q-14 13 -34 14h-48v-40q-1 -7 -8 -8q-7 1 -8 8v40h-192v-40q-1 -7 -8 -8q-7 1 -8 8v40
h-48v0z" />
    <glyph glyph-name="calendar-arrow-up" unicode="&#xe0d1;" horiz-adv-x="448" 
d="M216 181l-74 -75q-6 -4 -12 0q-4 6 0 12l88 88q6 4 12 0l88 -88q4 -6 0 -12q-6 -4 -12 0l-74 75v-157q-1 -7 -8 -8q-7 1 -8 8v157v0zM128 384h192v56q1 7 8 8q7 -1 8 -8v-56h48q27 -1 45 -19t19 -45v-320q-1 -27 -19 -45t-45 -19h-320q-27 1 -45 19t-19 45v320
q1 27 19 45t45 19h48v56q1 7 8 8q7 -1 8 -8v-56v0zM16 0q1 -20 14 -34v0q14 -13 34 -14h320q20 1 34 14q13 14 14 34v256h-416v-256v0zM64 368q-20 -1 -34 -14v0q-13 -14 -14 -34v-48h416v48q-1 20 -14 34q-14 13 -34 14h-48v-40q-1 -7 -8 -8q-7 1 -8 8v40h-192v-40
q-1 -7 -8 -8q-7 1 -8 8v40h-48v0z" />
    <glyph glyph-name="calendar-clock" unicode="&#xe0d2;" horiz-adv-x="576" 
d="M120 448q7 -1 8 -8v-56h192v56q1 7 8 8q7 -1 8 -8v-56h48q27 -1 45 -19t19 -45v-65q-8 1 -16 1h-416v-256q1 -20 14 -34q14 -13 34 -14h247q9 -9 20 -16h-267q-27 1 -45 19t-19 45v320q1 27 19 45t45 19h48v56q1 7 8 8v0zM112 328v40h-48q-20 -1 -34 -14q-13 -14 -14 -34
v-48h416v48q-1 20 -14 34q-14 13 -34 14h-48v-40q-1 -7 -8 -8q-7 1 -8 8v40h-192v-40q-1 -7 -8 -8q-7 1 -8 8v0zM431 160q8 -1 8 -8v-64h49q7 -1 8 -8q-1 -7 -8 -8h-57q-7 1 -8 8v72q1 7 8 8v0v0zM288 80q2 61 42 102v0q41 40 102 42q61 -2 102 -42q40 -41 42 -102
q-2 -61 -42 -102q-41 -40 -102 -42q-61 2 -102 42q-40 41 -42 102v0zM432 -48q54 1 91 37v0q36 37 37 91q-1 54 -37 91q-37 36 -91 37q-54 -1 -91 -37q-36 -37 -37 -91q1 -54 37 -91q37 -36 91 -37v0z" />
    <glyph glyph-name="calendar-heart" unicode="&#xe0d3;" horiz-adv-x="448" 
d="M224 165l13 13q18 17 40 17q23 0 40 -17q16 -17 16 -39q0 -21 -16 -39l-76 -78q-17 -14 -34 0l-76 78q-16 18 -16 39q0 22 16 39q17 17 40 17q22 0 40 -17l13 -13v0zM142 112l76 -79q6 -5 12 0l76 79q11 12 11 27q0 16 -11 28q-13 12 -29 12t-28 -12l-25 -25l-25 25
q-12 12 -28 12t-29 -12q-11 -12 -11 -28q0 -15 11 -27v0zM128 384h192v56q1 7 8 8q7 -1 8 -8v-56h48q27 -1 45 -19t19 -45v-320q-1 -27 -19 -45t-45 -19h-320q-27 1 -45 19t-19 45v320q1 27 19 45t45 19h48v56q1 7 8 8q7 -1 8 -8v-56v0zM16 0q1 -20 14 -34v0q14 -13 34 -14
h320q20 1 34 14q13 14 14 34v256h-416v-256v0zM64 368q-20 -1 -34 -14v0q-13 -14 -14 -34v-48h416v48q-1 20 -14 34q-14 13 -34 14h-48v-40q-1 -7 -8 -8q-7 1 -8 8v40h-192v-40q-1 -7 -8 -8q-7 1 -8 8v40h-48v0z" />
    <glyph glyph-name="calendar-image" unicode="&#xe0d4;" horiz-adv-x="448" 
d="M237 171q7 9 19 9v0q12 0 20 -10l95 -132q9 -13 3 -25t-21 -13h-258q-15 1 -21 13t2 25l51 71q6 9 17 10t19 -7l20 -20l54 79v0zM263 161q-7 7 -13 0l-59 -86q-3 -3 -6 -2q-4 -1 -7 1l-26 27q-7 6 -12 -1l-51 -71q-5 -11 6 -13h258q11 2 6 13l-96 132v0zM144 176
q0 -14 -9 -23v0q-9 -9 -23 -9t-23 9t-9 23t9 23t23 9t23 -9t9 -23v0zM112 160q15 1 16 16q-1 15 -16 16q-15 -1 -16 -16q1 -15 16 -16v0zM120 448q7 -1 8 -8v-56h192v56q1 7 8 8q7 -1 8 -8v-56h48q27 -1 45 -19t19 -45v-320q-1 -27 -19 -45t-45 -19h-320q-27 1 -45 19
t-19 45v320q1 27 19 45t45 19h48v56q1 7 8 8v0zM432 256h-416v-256q1 -20 14 -34q14 -13 34 -14h320q20 1 34 14q13 14 14 34v256v0zM112 328v40h-48q-20 -1 -34 -14q-13 -14 -14 -34v-48h416v48q-1 20 -14 34q-14 13 -34 14h-48v-40q-1 -7 -8 -8q-7 1 -8 8v40h-192v-40
q-1 -7 -8 -8q-7 1 -8 8v0z" />
    <glyph glyph-name="calendar-lines" unicode="&#xe0d5;" horiz-adv-x="448" 
d="M96 56q1 7 8 8h144q7 -1 8 -8q-1 -7 -8 -8h-144q-7 1 -8 8v0zM344 160q7 -1 8 -8q-1 -7 -8 -8h-240q-7 1 -8 8q1 7 8 8h240v0zM120 448q7 -1 8 -8v-56h192v56q1 7 8 8q7 -1 8 -8v-56h48q27 -1 45 -19t19 -45v-320q-1 -27 -19 -45t-45 -19h-320q-27 1 -45 19t-19 45v320
q1 27 19 45t45 19h48v56q1 7 8 8v0zM432 256h-416v-256q1 -20 14 -34q14 -13 34 -14h320q20 1 34 14q13 14 14 34v256v0zM112 328v40h-48q-20 -1 -34 -14q-13 -14 -14 -34v-48h416v48q-1 20 -14 34q-14 13 -34 14h-48v-40q-1 -7 -8 -8q-7 1 -8 8v40h-192v-40q-1 -7 -8 -8
q-7 1 -8 8v0z" />
    <glyph glyph-name="calendar-range" unicode="&#xe0d6;" horiz-adv-x="448" 
d="M376 168q-1 -7 -8 -8h-192q-7 1 -8 8q1 7 8 8h192q7 -1 8 -8v0zM80 32q-7 1 -8 8q1 7 8 8h192q7 -1 8 -8q-1 -7 -8 -8h-192v0zM136 160q0 -17 -12 -28v0q-11 -12 -28 -12t-28 12q-12 11 -12 28t12 28q11 12 28 12t28 -12q12 -11 12 -28v0zM72 160q2 -22 24 -24
q22 2 24 24q-2 22 -24 24q-22 -2 -24 -24v0zM312 32q0 17 12 28v0q11 12 28 12t28 -12q12 -11 12 -28t-12 -28q-11 -12 -28 -12t-28 12q-12 11 -12 28v0zM376 32q-2 22 -24 24q-22 -2 -24 -24q2 -22 24 -24q22 2 24 24v0zM120 448q7 -1 8 -8v-56h192v56q1 7 8 8q7 -1 8 -8
v-56h48q27 -1 45 -19t19 -45v-320q-1 -27 -19 -45t-45 -19h-320q-27 1 -45 19t-19 45v320q1 27 19 45t45 19h48v56q1 7 8 8v0zM432 256h-416v-256q1 -20 14 -34q14 -13 34 -14h320q20 1 34 14q13 14 14 34v256v0zM112 328v40h-48q-20 -1 -34 -14q-13 -14 -14 -34v-48h416v48
q-1 20 -14 34q-14 13 -34 14h-48v-40q-1 -7 -8 -8q-7 1 -8 8v40h-192v-40q-1 -7 -8 -8q-7 1 -8 8v0z" />
    <glyph glyph-name="calendars" unicode="&#xe0d7;" 
d="M216 448q7 -1 8 -8v-56h160v56q1 7 8 8q7 -1 8 -8v-56h48q27 -1 45 -19t19 -45v-224q-1 -27 -19 -45t-45 -19h-288q-27 1 -45 19t-19 45v224q1 27 19 45t45 19h48v56q1 7 8 8v0zM208 328v40h-48q-20 -1 -34 -14q-13 -14 -14 -34v-48h384v48q-1 20 -14 34q-14 13 -34 14
h-48v-40q-1 -7 -8 -8q-7 1 -8 8v40h-160v-40q-1 -7 -8 -8q-7 1 -8 8v0zM112 256v-160q1 -20 14 -34q14 -13 34 -14h288q20 1 34 14q13 14 14 34v160h-384v0zM0 225q0 22 14 39v0q13 16 34 22v-17q-30 -12 -32 -44v-225q1 -20 14 -34q14 -13 34 -14h288q33 2 45 32h16
q-5 -21 -22 -34q-16 -14 -39 -14h-288q-27 1 -45 19t-19 45v225v0z" />
    <glyph glyph-name="camera-rotate" unicode="&#xe0d8;" 
d="M464 352h-88l-12 33q-13 29 -45 31h-126q-32 -2 -45 -31l-12 -33h-88q-20 -1 -34 -14q-13 -14 -14 -34v-288q1 -20 14 -34q14 -13 34 -14h416q20 1 34 14q13 14 14 34v288q-1 20 -14 34q-14 13 -34 14v0zM496 16q0 -14 -9 -23v0q-9 -9 -23 -9h-416q-14 0 -23 9t-9 23v288
q0 14 9 23t23 9h99l16 43q9 20 30 21h126q21 -1 30 -21l16 -43h99q14 0 23 -9t9 -23v-288v0zM352 264q-7 -1 -8 -8v-38q-32 45 -88 46q-34 0 -61 -19t-39 -50q-2 -7 4 -11q7 -1 10 5q11 27 34 43t52 16q26 0 47 -13t33 -35h-48q-7 -1 -8 -8q1 -7 8 -8h64q7 1 8 8v64
q-1 7 -8 8v0zM352 135q-7 2 -10 -4q-11 -27 -34 -43t-52 -16q-26 0 -47 13t-33 35h48q7 1 8 8q-1 7 -8 8h-64q-7 -1 -8 -8v-64q1 -7 8 -8q7 1 8 8v38q32 -44 88 -46q34 0 61 19t40 50q1 7 -5 10v0z" />
    <glyph glyph-name="camera-slash" unicode="&#xe0d9;" horiz-adv-x="640" 
d="M636 -50q6 -5 2 -10q-5 -6 -11 -2l-624 496q-5 5 -1 11q5 5 11 1l623 -496v0zM467 -16l21 -16h-360q-27 1 -45 19t-19 45v256q0 7 1 13l15 -11v-2v-256q1 -20 14 -34q14 -13 34 -14h339v0zM259 416h122q34 -2 46 -33l10 -31h75q27 -1 45 -19t19 -45v-206l-16 12v194
q-1 20 -14 34q-14 13 -34 14h-86l-14 42q-8 21 -31 22h-122q-23 -1 -31 -22l-6 -17l-13 10l4 12q12 31 46 33v0v0zM208 160q0 14 3 26l14 -11q-1 -7 -1 -15q1 -41 28 -68t68 -28q20 0 37 7l14 -11q-23 -12 -51 -12q-48 1 -79 33q-32 31 -33 79v0v0zM424 202l-88 69
q31 -5 54 -23t34 -46v0v0z" />
    <glyph glyph-name="camera-viewfinder" unicode="&#xe0da;" 
d="M152 448q7 -1 8 -8q-1 -7 -8 -8h-112q-22 -2 -24 -24v-112q-1 -7 -8 -8q-7 1 -8 8v112q0 17 12 28q11 12 28 12h112v0zM512 296q-1 -7 -8 -8q-7 1 -8 8v112q-2 22 -24 24h-112q-7 1 -8 8q1 7 8 8h112q17 0 28 -12q12 -11 12 -28v-112v0zM320 192q-1 -27 -19 -45v0
q-18 -18 -45 -19q-27 1 -45 19t-19 45q1 27 19 45t45 19q27 -1 45 -19t19 -45v0zM256 240q-20 -1 -34 -14v0q-13 -14 -14 -34q1 -20 14 -34q14 -13 34 -14q20 1 34 14q13 14 14 34q-1 20 -14 34q-14 13 -34 14v0zM326 336l6 -16h36q20 -1 34 -14q13 -14 14 -34v-160
q-1 -20 -14 -34q-14 -13 -34 -14h-224q-20 1 -34 14q-13 14 -14 34v160q1 20 14 34q14 13 34 14h36l6 16q7 15 23 16h94q16 -1 23 -16v0zM144 304q-14 0 -23 -9v0q-9 -9 -9 -23v-160q0 -14 9 -23t23 -9h224q14 0 23 9t9 23v160q0 14 -9 23t-23 9h-47l-10 27q-2 5 -8 5h-94
q-6 0 -8 -5l-10 -27h-47v0zM0 88q1 7 8 8q7 -1 8 -8v-112q2 -22 24 -24h112q7 -1 8 -8q-1 -7 -8 -8h-112q-17 0 -28 12q-12 11 -12 28v112v0zM360 -64q-7 1 -8 8q1 7 8 8h112q22 2 24 24v112q1 7 8 8q7 -1 8 -8v-112q0 -17 -12 -28q-11 -12 -28 -12h-112v0z" />
    </font>
</defs>
</svg>
