<?xml version="1.0" standalone="no"?>
<!DOCTYPE svg PUBLIC "-//W3C//DTD SVG 1.1//EN" "http://www.w3.org/Graphics/SVG/1.1/DTD/svg11.dtd" >
<svg xmlns="http://www.w3.org/2000/svg" xmlns:xlink="http://www.w3.org/1999/xlink" version="1.1">
<metadata>
Created by FontForge 20170731 at Wed Oct  7 06:47:07 2020
 By Aleksey,,,
Copyright (c) 2019 by studioJASO. All rights reserved. |DCNT
</metadata>
<defs>
<font id="CarmenSans-ExtraBold" horiz-adv-x="1329" >
  <font-face 
    font-family="Carmen Sans ExtraBold"
    font-weight="800"
    font-stretch="normal"
    units-per-em="2048"
    panose-1="2 11 9 4 0 0 0 0 0 0"
    ascent="1583"
    descent="-465"
    x-height="1040"
    cap-height="1448"
    bbox="-182 -530 2773 2093"
    underline-thickness="102"
    underline-position="-634"
    unicode-range="U+0020-2193"
  />
<missing-glyph horiz-adv-x="1843" 
d="M1337 1421v-1581h-833v1581h833zM1280 1360h-717v-1458h717v1458z" />
    <glyph glyph-name="cid18375" unicode="ff" horiz-adv-x="1814" 
d="M1413 1130v-90h361v-272h-361v-836h-311v836h-527v-836h-311v836h-227v272h227v93q0 226 110 343t318 117q80 0 155 -18t122 -49l-66 -246q-68 39 -162 39q-80 0 -123 -48t-43 -141v-90h527v93q0 226 110 343t318 117q79 0 154 -18t122 -49l-65 -246q-68 39 -162 39
q-80 0 -123 -48t-43 -141z" />
    <glyph glyph-name="cid18376" unicode="ft" horiz-adv-x="1855" 
d="M1741 217l65 -246q-47 -31 -122 -49t-154 -18q-208 0 -318 117.5t-110 343.5v403h-527v-836h-311v836h-227v272h227v93q0 226 110 343t318 117q80 0 155 -18t122 -49l-66 -246q-68 39 -162 39q-80 0 -123 -48t-43 -141v-90h527v291h311v-291h352v-272h-352v-401
q0 -187 166 -187q95 0 162 37z" />
    <glyph glyph-name="cid18377" unicode="fft" horiz-adv-x="2693" 
d="M2578 217l66 -246q-47 -31 -122 -49t-155 -18q-208 0 -318 117.5t-110 343.5v403h-526v-836h-311v836h-527v-836h-311v836h-227v272h227v93q0 226 110 343t318 117q80 0 155 -18t122 -49l-66 -246q-68 39 -162 39q-80 0 -123 -48t-43 -141v-90h527v93q0 226 110 343
t318 117q79 0 154 -18t122 -49l-65 -246q-68 39 -162 39q-80 0 -123 -48t-43 -141v-90h526v291h312v-291h352v-272h-352v-401q0 -187 166 -187q94 0 161 37z" />
    <glyph glyph-name="cid18378" unicode="tt" horiz-adv-x="1855" 
d="M1741 217l65 -246q-47 -31 -122 -49t-154 -18q-208 0 -318 117.5t-110 343.5v403h-527v-401q0 -187 166 -187q95 0 162 37l66 -246q-47 -31 -122 -49t-155 -18q-208 0 -318 117.5t-110 343.5v403h-227v272h227v291h311v-291h527v291h311v-291h352v-272h-352v-401
q0 -187 166 -187q95 0 162 37z" />
    <glyph glyph-name=".notdef" horiz-adv-x="1843" 
d="M1337 1421v-1581h-833v1581h833zM1280 1360h-717v-1458h717v1458z" />
    <glyph glyph-name=".null" horiz-adv-x="0" 
 />
    <glyph glyph-name="nonmarkingreturn" horiz-adv-x="682" 
 />
    <glyph glyph-name="cid1" unicode=" " horiz-adv-x="491" 
 />
    <glyph glyph-name="cid1" unicode="&#xa0;" horiz-adv-x="491" 
 />
    <glyph glyph-name="cid2" unicode="!" horiz-adv-x="610" 
d="M479 1448l-30 -1032h-287l-31 1032h348zM104 96q0 82 57.5 137.5t143.5 55.5t143.5 -55.5t57.5 -137.5q0 -84 -57 -139t-144 -55t-144 55t-57 139z" />
    <glyph glyph-name="cid3" unicode="&#x22;" horiz-adv-x="894" 
d="M395 1448l-41 -508h-229l-39 508h309zM811 1448l-41 -508h-231l-39 508h311z" />
    <glyph glyph-name="cid4" unicode="#" horiz-adv-x="1398" 
d="M53 289v231h215l66 340h-191v232h236l70 356h264l-70 -356h268l70 356h264l-69 -356h172v-232h-218l-65 -340h192v-231h-237l-68 -357h-266l70 357h-269l-67 -357h-266l69 357h-170zM868 862h-270l-68 -344h273z" />
    <glyph glyph-name="cid5" unicode="$" horiz-adv-x="1310" 
d="M793 -47v-205h-263v203q-162 24 -281 105t-183 206l251 135q44 -82 136 -133t211 -51q113 0 186.5 43.5t73.5 112.5q0 67 -56 107.5t-192 76.5l-174 45q-190 50 -288.5 150.5t-98.5 248.5q0 166 112 282.5t303 147.5v205h263v-207q144 -25 254 -99.5t165 -186.5
l-249 -135q-37 74 -122.5 119.5t-189.5 45.5q-101 0 -166 -43t-65 -114q0 -62 55.5 -100.5t194.5 -75.5l174 -45q190 -50 288.5 -152.5t98.5 -255.5q0 -166 -118.5 -282.5t-319.5 -147.5z" />
    <glyph glyph-name="cid6" unicode="%" horiz-adv-x="1943" 
d="M70 1075q0 169 114.5 285.5t282.5 116.5t282.5 -116.5t114.5 -285.5t-114.5 -285t-282.5 -116t-282.5 116t-114.5 285zM1606 1448l-1016 -1516h-252l1018 1516h250zM641 1075q0 82 -48.5 135.5t-125.5 53.5q-78 0 -127 -53.5t-49 -135.5q0 -80 49.5 -134t126.5 -54
t125.5 53t48.5 135zM1081 305q0 169 115 285.5t283 116.5t282.5 -116.5t114.5 -285.5t-114.5 -285t-282.5 -116t-283 116t-115 285zM1653 305q0 82 -48.5 135.5t-125.5 53.5q-78 0 -127 -53.5t-49 -135.5q0 -80 49.5 -134t126.5 -54t125.5 53t48.5 135z" />
    <glyph glyph-name="cid7" unicode="&#x26;" horiz-adv-x="1617" 
d="M1616 -66h-387l-139 134q-206 -164 -441 -164q-254 0 -410.5 128.5t-156.5 340.5q0 261 287 391q-76 86 -108 155t-32 150q0 179 134 293.5t354 114.5q218 0 351.5 -112t133.5 -282q0 -104 -58.5 -186.5t-148.5 -128.5l-184 182q44 24 70 59.5t26 77.5q0 61 -52.5 101.5
t-137.5 40.5q-90 0 -141.5 -42.5t-51.5 -115.5q0 -54 47 -119q50 -65 183 -192l321 -307q117 158 199 292l250 -151q-119 -191 -242 -340zM891 256l-342 328q-86 -43 -127 -91.5t-41 -109.5q0 -95 77 -157t199 -62q119 0 234 92z" />
    <glyph glyph-name="cid8" unicode="'" horiz-adv-x="485" 
d="M399 1448l-41 -508h-233l-39 508h313z" />
    <glyph glyph-name="cid9" unicode="(" horiz-adv-x="823" 
d="M141 649q0 289 113 539q111 249 309 428l217 -191q-161 -150 -250.5 -353.5t-89.5 -422.5t89.5 -422.5t250.5 -353.5l-217 -190q-197 179 -309 426q-113 253 -113 540z" />
    <glyph glyph-name="cid10" unicode=")" horiz-adv-x="823" 
d="M385 649q0 219 -89.5 422.5t-250.5 353.5l217 191q195 -176 307 -428q115 -254 115 -539q0 -283 -115 -540q-113 -250 -307 -426l-217 190q161 150 250.5 353.5t89.5 422.5z" />
    <glyph glyph-name="cid11" unicode="*" horiz-adv-x="839" 
d="M285 1071l-240 51l66 207l227 -100l-25 246h215l-24 -246l225 100l68 -207l-242 -51l164 -184l-176 -127l-123 211l-123 -211l-176 127z" />
    <glyph glyph-name="cid12" unicode="+" 
d="M127 559v264h397v406h281v-406h399v-264h-399v-407h-281v407h-397z" />
    <glyph glyph-name="cid13" unicode="," horiz-adv-x="565" 
d="M492 258l-156 -543h-256l80 543h332z" />
    <glyph glyph-name="cid14" unicode="-" horiz-adv-x="1021" 
d="M897 831v-280h-770v280h770z" />
    <glyph glyph-name="cid15" unicode="." horiz-adv-x="565" 
d="M82 96q0 82 57.5 137.5t143.5 55.5t143 -55.5t57 -137.5q0 -84 -56.5 -139t-143.5 -55t-144 55t-57 139z" />
    <glyph glyph-name="cid16" unicode="/" horiz-adv-x="1144" 
d="M1108 1550l-797 -1802h-272l795 1802h274z" />
    <glyph glyph-name="cid17" unicode="0" 
d="M76 690q0 237 70.5 415t204.5 275t315 97q273 0 431 -213.5t158 -573.5q0 -238 -70.5 -415t-204 -274t-314.5 -97t-315 97t-204.5 274.5t-70.5 414.5zM948 690q0 241 -73 368.5t-209 127.5q-137 0 -211 -127.5t-74 -368.5q0 -238 74.5 -365.5t210.5 -127.5
q135 0 208.5 127.5t73.5 365.5z" />
    <glyph glyph-name="cid18" unicode="1" 
d="M582 213v909l-371 -114l-88 266l516 174h254v-1235h371v-281h-1131v281h449z" />
    <glyph glyph-name="cid19" unicode="2" 
d="M840 1006q0 84 -59 134t-158 50q-86 0 -160.5 -48.5t-116.5 -127.5l-270 145q76 149 220.5 233.5t332.5 84.5q234 0 383 -128t149 -327q0 -127 -63 -227q-61 -101 -213 -250l-342 -332h684v-281h-1098v254l516 514q115 115 154 177q41 65 41 129z" />
    <glyph glyph-name="cid20" unicode="3" 
d="M51 221l262 141q42 -83 129 -131.5t201 -48.5q115 0 188.5 58t73.5 145q0 98 -74.5 149.5t-216.5 51.5h-125l-114 219l391 356h-639v287h1032v-272l-420 -377h33q193 0 324 -119.5t131 -294.5q0 -209 -163 -345t-423 -136q-203 0 -359 84t-231 233z" />
    <glyph glyph-name="cid21" unicode="4" 
d="M49 264v248l711 963h321v-945h213v-266h-213v-332h-301v332h-731zM780 1079l-405 -549h405v549z" />
    <glyph glyph-name="cid22" unicode="5" 
d="M51 221l264 144q44 -83 129.5 -131t198.5 -48q117 0 189.5 59t72.5 156q0 109 -79.5 161t-243.5 52h-424l45 834h964v-287h-680l-16 -284h180q273 0 424.5 -126.5t151.5 -349.5q0 -216 -163 -356.5t-423 -140.5q-203 0 -359 84t-231 233z" />
    <glyph glyph-name="cid23" unicode="6" 
d="M78 446q0 99 33 189t116 209l418 604h359l-351 -502q27 10 70 10q140 0 260 -65.5t192 -183.5t72 -261q0 -153 -75.5 -277.5t-209 -194.5t-298.5 -70q-125 0 -234 41t-186 113t-121.5 172.5t-44.5 215.5zM948 444q0 120 -79 197.5t-205 77.5q-128 0 -207.5 -76.5
t-79.5 -198.5q0 -119 79.5 -195.5t207.5 -76.5q127 0 205.5 76.5t78.5 195.5z" />
    <glyph glyph-name="cid24" unicode="7" 
d="M90 1157v291h1102v-277l-578 -1239h-352l574 1225h-746z" />
    <glyph glyph-name="cid25" unicode="8" 
d="M76 356q0 122 71 222t187 143q-97 51 -151 134.5t-54 193.5q0 191 150.5 309.5t386.5 118.5q153 0 274.5 -53t190.5 -151t69 -224q0 -110 -54 -193.5t-151 -134.5q116 -43 187 -143t71 -222q0 -198 -166 -325t-421 -127q-168 0 -302.5 57t-211 160.5t-76.5 234.5z
M909 1022q0 91 -65.5 146t-177.5 55t-178 -54.5t-66 -146.5t66 -146.5t178 -54.5t177.5 55t65.5 146zM954 377q0 98 -79.5 158.5t-208.5 60.5q-131 0 -211 -60.5t-80 -158.5t80 -158.5t211 -60.5q129 0 208.5 60.5t79.5 158.5z" />
    <glyph glyph-name="cid26" unicode="9" 
d="M606 424q-137 -2 -258.5 65t-195 186.5t-70.5 260.5q0 154 75.5 278t209.5 193.5t301 69.5q251 0 417 -153.5t166 -387.5q0 -100 -33 -190t-116 -209l-418 -605h-358l352 504q-34 -12 -72 -12zM952 936q0 119 -78.5 195.5t-205.5 76.5q-128 0 -207.5 -76.5t-79.5 -195.5
q0 -122 79 -198t208 -76q126 0 205 77t79 197z" />
    <glyph glyph-name="cid27" unicode=":" horiz-adv-x="565" 
d="M82 1081q0 82 57.5 137.5t143.5 55.5t143 -55.5t57 -137.5t-57 -137t-143 -55t-143.5 55t-57.5 137zM82 299q0 82 57.5 137.5t143.5 55.5t143 -55.5t57 -137.5t-57 -137.5t-143 -55.5t-143.5 55.5t-57.5 137.5z" />
    <glyph glyph-name="cid28" unicode=";" horiz-adv-x="565" 
d="M82 1081q0 82 57.5 137.5t143.5 55.5t143 -55.5t57 -137.5t-57 -137t-143 -55t-143.5 55t-57.5 137zM492 461l-156 -541h-256l80 541h332z" />
    <glyph glyph-name="cid29" unicode="&#x3c;" 
d="M168 817l983 447v-303l-651 -271l651 -268v-303l-983 446v252z" />
    <glyph glyph-name="cid30" unicode="=" 
d="M1184 1079v-270h-1037v270h1037zM1184 571v-270h-1037v270h1037z" />
    <glyph glyph-name="cid31" unicode="&#x3e;" 
d="M829 690l-649 271v303l983 -447v-252l-983 -446v303z" />
    <glyph glyph-name="cid32" unicode="?" horiz-adv-x="1177" 
d="M625 842q97 63 132.5 104.5t35.5 95.5q0 75 -60.5 119.5t-163.5 44.5q-90 0 -168 -51t-114 -131l-258 125q59 148 207 237q151 91 329 91q241 0 387 -117t146 -307q0 -115 -59 -196.5t-203 -174.5q-75 -49 -104.5 -98.5t-29.5 -124.5v-43h-313v43q2 99 21 156t65.5 106
t149.5 121zM346 96q0 82 56.5 137.5t142.5 55.5t143 -55.5t57 -137.5q0 -85 -56 -139.5t-144 -54.5q-86 0 -142.5 54.5t-56.5 139.5z" />
    <glyph glyph-name="cid33" unicode="@" horiz-adv-x="2099" 
d="M1251 932h262v-666h27q234 0 234 361q0 181 -91.5 311.5t-251 195t-370.5 64.5q-209 0 -374.5 -83t-261 -242t-95.5 -369t95.5 -369t261 -242t374.5 -83q276 0 467 143l141 -180q-125 -88 -282 -135.5t-326 -47.5q-204 -2 -384 64t-310.5 185t-205 291.5t-71.5 373.5
q-3 201 71.5 373.5t205 291t310.5 184.5t384 64q161 2 307 -33.5t264 -105.5t204 -167t131.5 -224.5t43.5 -272.5q0 -257 -123 -407q-122 -152 -344 -152h-117q-84 0 -126 33t-48 102q-47 -67 -121 -103t-165 -36q-117 0 -213 60.5t-150.5 164t-54.5 228.5q0 190 120 321
t298 131q91 0 165.5 -35.5t118.5 -101.5v113zM1249 504q0 100 -62.5 163.5t-160.5 63.5t-160.5 -64t-62.5 -163t62.5 -163.5t160.5 -64.5t160.5 64t62.5 164z" />
    <glyph glyph-name="cid34" unicode="A" horiz-adv-x="1568" 
d="M1204 -68l-112 299h-623l-111 -299h-333l596 1516h329l596 -1516h-342zM569 500h424l-213 567z" />
    <glyph glyph-name="cid35" unicode="B" horiz-adv-x="1490" 
d="M1341 1038q0 -111 -61 -202t-158 -123q115 -23 200 -120.5t85 -227.5q0 -196 -149.5 -314.5t-413.5 -118.5h-707v1516h656q265 0 406.5 -108.5t141.5 -301.5zM1026 1001q0 81 -60 124.5t-180 43.5h-329v-346h329q117 0 178.5 46t61.5 132zM1083 393q0 82 -61.5 125
t-177.5 43h-387v-350h381q122 0 183.5 47.5t61.5 134.5z" />
    <glyph glyph-name="cid36" unicode="C" horiz-adv-x="1601" 
d="M90 690q-2 163 57 310t161.5 252t247 166t306.5 59q212 0 383.5 -95t267.5 -256l-276 -155q-61 98 -158 151.5t-217 53.5q-199 0 -324.5 -138.5t-125.5 -347.5q0 -208 125.5 -345.5t324.5 -137.5q122 0 218 53.5t157 151.5l276 -158q-95 -161 -267 -255.5t-384 -94.5
q-162 -2 -306.5 58.5t-247 165.5t-161.5 251.5t-57 310.5z" />
    <glyph glyph-name="cid37" unicode="D" horiz-adv-x="1587" 
d="M1497 690q0 -166 -56 -306.5t-158 -240t-253 -155.5t-334 -56h-559v1516h559q183 0 334 -56t253 -155.5t158 -240t56 -306.5zM1176 690q0 222 -124.5 344.5t-355.5 122.5h-237v-934h237q231 0 355.5 122.5t124.5 344.5z" />
    <glyph glyph-name="cid38" unicode="E" horiz-adv-x="1316" 
d="M1210 1448v-289h-751v-325h667v-285h-667v-328h772v-289h-1094v1516h1073z" />
    <glyph glyph-name="cid39" unicode="F" horiz-adv-x="1275" 
d="M1202 1448v-291h-743v-362h659v-291h-659v-572h-322v1516h1065z" />
    <glyph glyph-name="cid40" unicode="G" horiz-adv-x="1683" 
d="M90 690q-2 163 58 309.5t165 252t253 166.5t315 59q222 0 398 -94.5t275 -256.5l-274 -155q-60 99 -163.5 153t-235.5 54q-208 0 -338.5 -139t-130.5 -349q0 -211 137 -351t352 -140q118 0 216 28t153 78v213h-396v268h693v-626q-90 -113 -277 -183q-183 -73 -389 -73
q-170 -2 -322 58.5t-260 165.5t-170 251.5t-59 310.5z" />
    <glyph glyph-name="cid41" unicode="H" horiz-adv-x="1605" 
d="M459 1448v-610h688v610h321v-1516h-321v615h-688v-615h-322v1516h322z" />
    <glyph glyph-name="cid42" unicode="I" horiz-adv-x="595" 
d="M459 1448v-1516h-322v1516h322z" />
    <glyph glyph-name="cid43" unicode="J" horiz-adv-x="1247" 
d="M33 211l280 145q33 -71 95 -112t145 -41q244 0 244 342v903h321v-903q0 -306 -145.5 -473.5t-411.5 -167.5q-188 0 -328 90q-139 89 -200 217z" />
    <glyph glyph-name="cid44" unicode="K" horiz-adv-x="1441" 
d="M1440 -68h-398l-583 686v-686h-322v1516h322v-682l547 682h393l-615 -756z" />
    <glyph glyph-name="cid45" unicode="L" horiz-adv-x="1259" 
d="M459 1448v-1225h731v-291h-1053v1516h322z" />
    <glyph glyph-name="cid46" unicode="M" horiz-adv-x="1898" 
d="M453 1448l497 -875l500 875h311v-1516h-313v940l-367 -643h-264l-371 650v-947h-309v1516h316z" />
    <glyph glyph-name="cid47" unicode="N" horiz-adv-x="1587" 
d="M444 1448l689 -981v981h317v-1516h-307l-688 983v-983h-318v1516h307z" />
    <glyph glyph-name="cid48" unicode="O" horiz-adv-x="1722" 
d="M90 690q-2 163 57 310t161.5 252t247 166t306.5 59q161 2 305.5 -59t247.5 -166t162.5 -252t56.5 -310q3 -164 -56.5 -310.5t-162.5 -251.5t-247.5 -165.5t-305.5 -58.5q-162 -2 -306.5 58.5t-247 165.5t-161.5 251.5t-57 310.5zM1311 690q0 209 -126.5 347.5
t-322.5 138.5q-199 0 -324.5 -138.5t-125.5 -347.5q0 -208 125.5 -345.5t324.5 -137.5q196 0 322.5 138t126.5 345z" />
    <glyph glyph-name="cid49" unicode="P" horiz-adv-x="1402" 
d="M1327 918q0 -235 -173 -382t-472 -147h-225v-457h-320v1516h545q300 0 472.5 -146.5t172.5 -383.5zM1008 918q0 243 -326 243h-225v-485h225q326 0 326 242z" />
    <glyph glyph-name="cid50" unicode="Q" horiz-adv-x="1722" 
d="M1649 -80l71 -262q-113 -61 -272 -61q-152 0 -274.5 74t-229.5 237q-70 -4 -82 -4q-162 -2 -306.5 58.5t-247 165.5t-161.5 251.5t-57 310.5q-2 163 57 310t161.5 252t247 166t306.5 59q161 2 305.5 -59t247.5 -166t162.5 -252t56.5 -310q0 -221 -99.5 -402t-272.5 -282
q41 -66 90 -93.5t121 -27.5q98 0 176 35zM862 207q196 0 322.5 138t126.5 345q0 209 -126.5 347.5t-322.5 138.5q-199 0 -324.5 -138.5t-125.5 -347.5q0 -208 125.5 -345.5t324.5 -137.5z" />
    <glyph glyph-name="cid51" unicode="R" horiz-adv-x="1437" 
d="M1425 -68h-362l-309 488q-16 -2 -76 -2h-221v-486h-320v1516h541q294 0 469.5 -141.5t175.5 -376.5q0 -146 -69.5 -257t-200.5 -177zM457 1161v-463h223q324 0 324 232q0 231 -324 231h-223z" />
    <glyph glyph-name="cid52" unicode="S" horiz-adv-x="1372" 
d="M66 240l264 141q49 -89 144 -142t220 -53q119 0 198 46.5t79 119.5q0 69 -60.5 113.5t-203.5 81.5l-183 47q-199 51 -302 157t-103 263q0 203 156 333t411 130q199 0 356 -83.5t230 -230.5l-262 -141q-42 76 -131.5 124t-196.5 48q-106 0 -174 -45.5t-68 -118.5
q0 -67 59 -108t203 -78l183 -47q407 -111 407 -430q0 -133 -76 -238.5t-214 -165t-312 -59.5q-219 0 -382 89.5t-242 246.5z" />
    <glyph glyph-name="cid53" unicode="T" horiz-adv-x="1382" 
d="M57 1157v291h1270v-291h-475v-1225h-322v1225h-473z" />
    <glyph glyph-name="cid54" unicode="U" horiz-adv-x="1564" 
d="M129 616v832h322v-832q0 -210 81.5 -310.5t249.5 -100.5t250 100.5t82 310.5v832h322v-832q0 -347 -171 -529.5t-483 -182.5t-482.5 182.5t-170.5 529.5z" />
    <glyph glyph-name="cid55" unicode="V" horiz-adv-x="1529" 
d="M385 1448l383 -1100l385 1100h344l-567 -1516h-330l-567 1516h352z" />
    <glyph glyph-name="cid56" unicode="W" horiz-adv-x="2275" 
d="M399 1448l293 -1065l279 1057h342l278 -1057l293 1065h348l-471 -1516h-331l-291 1004l-293 -1004h-332l-469 1516h354z" />
    <glyph glyph-name="cid57" unicode="X" horiz-adv-x="1437" 
d="M18 1448h383l322 -490l319 490h377l-512 -756l518 -760h-383l-329 500l-324 -500h-377l516 764z" />
    <glyph glyph-name="cid58" unicode="Y" horiz-adv-x="1529" 
d="M33 1448h358l377 -682l379 682h350l-571 -983v-533h-322v533z" />
    <glyph glyph-name="cid59" unicode="Z" horiz-adv-x="1349" 
d="M852 1161h-754v287h1155v-272l-780 -955h801v-289h-1200v275z" />
    <glyph glyph-name="cid60" unicode="[" horiz-adv-x="839" 
d="M745 1550v-278h-264v-1243h264v-281h-563v1802h563z" />
    <glyph glyph-name="cid61" unicode="\" horiz-adv-x="1144" 
d="M311 1550l797 -1802h-274l-795 1802h272z" />
    <glyph glyph-name="cid62" unicode="]" horiz-adv-x="839" 
d="M358 29v1243h-264v278h563v-1802h-563v281h264z" />
    <glyph glyph-name="cid63" unicode="^" horiz-adv-x="1212" 
d="M723 1475l410 -730h-308l-219 422l-217 -422h-309l409 730h234z" />
    <glyph glyph-name="cid64" unicode="_" horiz-adv-x="1044" 
d="M1044 -78v-244h-1044v244h1044z" />
    <glyph glyph-name="cid65" unicode="`" horiz-adv-x="628" 
d="M391 1516l197 -338h-295l-252 338h350z" />
    <glyph glyph-name="cid66" unicode="a" horiz-adv-x="1404" 
d="M965 1040h311v-1108h-311v148q-55 -86 -144 -131t-200 -45q-154 0 -277.5 76.5t-192.5 210t-69 296.5q0 162 69 295t192.5 210t277.5 77q111 0 200 -45t144 -131v147zM963 487q0 139 -82 224q-82 88 -209 88q-129 0 -213 -90q-80 -89 -80 -222q0 -136 81.5 -224.5
t211.5 -88.5q127 0 209 88t82 225z" />
    <glyph glyph-name="cid67" unicode="b" horiz-adv-x="1404" 
d="M1323 487q0 -163 -70 -296.5t-193.5 -210t-275.5 -76.5q-110 0 -199.5 45.5t-144.5 130.5v-148h-311v1543h311v-582q55 85 144.5 130.5t199.5 45.5q114 0 214.5 -45.5t171.5 -123t112 -185t41 -228.5zM1026 487q0 134 -82 222q-81 90 -211 90q-129 0 -210 -87.5
t-81 -224.5q0 -139 81 -226t210 -87q130 0 211.5 88.5t81.5 224.5z" />
    <glyph glyph-name="cid68" unicode="c" horiz-adv-x="1226" 
d="M82 487q0 164 76 297t212 209t304 76q159 0 290.5 -68t209.5 -190l-256 -143q-38 60 -102 93.5t-142 33.5q-131 0 -213 -88q-82 -85 -82 -220q0 -133 82 -221t213 -88q78 0 142 33.5t102 93.5l256 -141q-79 -122 -210 -191t-290 -69q-126 0 -236.5 44.5t-188.5 121.5
t-122.5 185t-44.5 232z" />
    <glyph glyph-name="cid69" unicode="d" horiz-adv-x="1404" 
d="M965 1475h311v-1543h-311v148q-55 -86 -144 -131t-200 -45q-154 0 -277.5 76.5t-192.5 210t-69 296.5q0 162 69 295t192.5 210t277.5 77q111 0 200 -45t144 -131v582zM963 487q0 139 -82 224q-82 88 -209 88q-129 0 -213 -90q-80 -89 -80 -222q0 -136 81.5 -224.5
t211.5 -88.5q127 0 209 88t82 225z" />
    <glyph glyph-name="cid70" unicode="e" horiz-adv-x="1312" 
d="M1227 383h-844q29 -104 110.5 -159.5t200.5 -55.5q85 0 158 34.5t111 94.5l239 -150q-72 -110 -210.5 -176.5t-297.5 -66.5q-178 0 -318 76t-217 208.5t-77 298.5q0 250 163 416t412 166q164 0 295 -69.5t206 -197t75 -290.5q0 -76 -6 -129zM383 592h549q-11 99 -86 160
t-187 61q-100 0 -175 -58.5t-101 -162.5z" />
    <glyph glyph-name="cid71" unicode="f" horiz-adv-x="976" 
d="M575 1130v-90h361v-272h-361v-836h-311v836h-227v272h227v93q0 226 110 343t318 117q80 0 155 -18t122 -49l-66 -246q-68 39 -162 39q-80 0 -123 -48t-43 -141z" />
    <glyph glyph-name="cid72" unicode="g" horiz-adv-x="1404" 
d="M965 1040h311v-1005q0 -133 -49 -241.5t-134 -178.5t-197.5 -107.5t-242.5 -37.5q-173 0 -310.5 69.5t-217.5 188.5l244 149q42 -67 116.5 -105t167.5 -38q149 0 230.5 77.5t81.5 223.5v90q-54 -77 -143.5 -118.5t-200.5 -41.5q-152 -3 -276.5 70t-194.5 201t-68 282
q0 155 69 281t192.5 198t277.5 72q111 0 200.5 -41.5t143.5 -118.5v131zM963 518q0 127 -80.5 205t-210.5 78t-211.5 -79.5t-81.5 -203.5q0 -125 81.5 -205t211.5 -80q129 0 210 79t81 206z" />
    <glyph glyph-name="cid73" unicode="h" horiz-adv-x="1355" 
d="M1235 561v-629h-311v607q0 128 -58 194t-168 66q-112 0 -185 -80t-73 -213v-574h-311v1543h311v-582q48 82 136 129t198 47q216 0 338.5 -134.5t122.5 -373.5z" />
    <glyph glyph-name="cid74" unicode="i" horiz-adv-x="569" 
d="M94 1350q0 75 55 126.5t136 51.5t135.5 -51.5t54.5 -126.5q0 -76 -54.5 -128.5t-135.5 -52.5t-136 52.5t-55 128.5zM440 1040v-1108h-311v1108h311z" />
    <glyph glyph-name="cid75" unicode="j" horiz-adv-x="569" 
d="M94 1350q0 75 55 126.5t136 51.5t135.5 -51.5t54.5 -126.5q0 -76 -54.5 -128.5t-135.5 -52.5t-136 52.5t-55 128.5zM-182 -481l65 250q61 -23 119 -23q127 0 127 160v1134h311v-1138q0 -209 -98.5 -319.5t-278.5 -110.5q-156 0 -245 47z" />
    <glyph glyph-name="cid76" unicode="k" horiz-adv-x="1232" 
d="M1229 -68h-365l-424 484v-484h-311v1543h311v-912l404 477h360l-473 -551z" />
    <glyph glyph-name="cid77" unicode="l" horiz-adv-x="569" 
d="M440 1475v-1543h-311v1543h311z" />
    <glyph glyph-name="cid78" unicode="m" horiz-adv-x="2048" 
d="M1929 561v-629h-313v607q0 125 -51.5 192.5t-147.5 67.5q-101 0 -167 -82t-66 -211v-574h-312v607q0 125 -51 192.5t-147 67.5q-101 0 -167.5 -82t-66.5 -211v-574h-311v1108h311v-147q48 81 129 128.5t179 47.5q253 0 368 -207q122 207 373 207q204 0 322 -136.5
t118 -371.5z" />
    <glyph glyph-name="cid79" unicode="n" horiz-adv-x="1355" 
d="M1235 561v-629h-311v607q0 128 -58 194t-168 66q-112 0 -185 -80t-73 -213v-574h-311v1108h311v-147q48 82 136 129t198 47q216 0 338.5 -134.5t122.5 -373.5z" />
    <glyph glyph-name="cid80" unicode="o" horiz-adv-x="1345" 
d="M82 487q0 164 76 297t212 209t304 76q166 0 302 -76t213 -209.5t77 -296.5q0 -165 -77 -298.5t-212.5 -209t-302.5 -75.5q-126 0 -236.5 44.5t-188.5 121.5t-122.5 185t-44.5 232zM967 487q0 135 -82 220q-79 88 -211 88q-131 0 -213 -88q-82 -85 -82 -220
q0 -133 82 -221t213 -88q132 0 211 88q82 88 82 221z" />
    <glyph glyph-name="cid81" unicode="p" horiz-adv-x="1404" 
d="M1323 487q0 -163 -70 -296.5t-193.5 -210t-275.5 -76.5q-110 0 -199.5 45.5t-144.5 130.5v-582h-311v1542h311v-147q55 85 144.5 130.5t199.5 45.5q114 0 214.5 -45.5t171.5 -123t112 -185t41 -228.5zM1026 487q0 134 -82 222q-81 90 -211 90q-129 0 -210 -87.5
t-81 -224.5q0 -139 81 -226t210 -87q130 0 211.5 88.5t81.5 224.5z" />
    <glyph glyph-name="cid82" unicode="q" horiz-adv-x="1404" 
d="M965 1040h311v-1542h-311v582q-55 -86 -144 -131t-200 -45q-154 0 -277.5 76.5t-192.5 210t-69 296.5q0 162 69 295t192.5 210t277.5 77q111 0 200 -45t144 -131v147zM963 487q0 139 -82 224q-82 88 -209 88q-129 0 -213 -90q-80 -89 -80 -222q0 -136 81.5 -224.5
t211.5 -88.5q127 0 209 88t82 225z" />
    <glyph glyph-name="cid83" unicode="r" horiz-adv-x="915" 
d="M868 1040v-284q-53 16 -135 16q-131 0 -212 -79t-81 -208v-553h-311v1108h311v-174q39 89 119.5 142t179.5 53q79 0 129 -21z" />
    <glyph glyph-name="cid84" unicode="s" horiz-adv-x="1161" 
d="M45 170l231 131q43 -69 125 -112.5t183 -43.5q99 0 161 26t62 69q0 44 -41.5 68.5t-165.5 53.5l-154 35q-174 38 -260 117t-86 203q0 159 137 255.5t353 96.5q165 0 300.5 -69t199.5 -175l-232 -131q-36 58 -112.5 95.5t-161.5 37.5q-86 0 -138.5 -25.5t-52.5 -68.5
q0 -42 41.5 -65.5t165.5 -53.5l154 -34q175 -39 260.5 -117.5t85.5 -204.5q0 -158 -147 -256t-375 -98q-188 0 -330 80q-137 76 -203 186z" />
    <glyph glyph-name="cid85" unicode="t" horiz-adv-x="1017" 
d="M903 217l66 -246q-47 -31 -122 -49t-155 -18q-208 0 -318 117.5t-110 343.5v403h-227v272h227v291h311v-291h353v-272h-353v-401q0 -187 166 -187q95 0 162 37z" />
    <glyph glyph-name="cid86" unicode="u" horiz-adv-x="1355" 
d="M915 1040h312v-1108h-312v148q-48 -82 -135.5 -129t-197.5 -47q-216 0 -338.5 134.5t-122.5 373.5v628h311v-606q0 -128 58 -194t167 -66q112 0 185 80t73 213v573z" />
    <glyph glyph-name="cid87" unicode="v" horiz-adv-x="1304" 
d="M358 1040l297 -731l299 731h326l-471 -1108h-313l-471 1108h333z" />
    <glyph glyph-name="cid88" unicode="w" horiz-adv-x="1878" 
d="M375 1040l213 -725l213 713h284l213 -713l213 725h332l-381 -1108h-313l-209 652l-211 -652h-313l-379 1108h338z" />
    <glyph glyph-name="cid89" unicode="x" horiz-adv-x="1267" 
d="M18 1040h359l260 -335l262 335h352l-442 -551l448 -557h-358l-270 347l-264 -347h-353l447 557z" />
    <glyph glyph-name="cid90" unicode="y" horiz-adv-x="1304" 
d="M954 1040h326l-471 -1124q-101 -240 -224 -343t-284 -103q-67 0 -139 16.5t-123 42.5l65 250q76 -33 170 -33q86 0 140 39.5t92 132.5l6 16l-487 1106h333l306 -729z" />
    <glyph glyph-name="cid91" unicode="z" horiz-adv-x="1173" 
d="M668 772h-578v268h995v-249l-600 -590h617v-269h-1032v250z" />
    <glyph glyph-name="cid92" unicode="{" horiz-adv-x="886" 
d="M231 66v307q0 63 -26.5 91t-83.5 28h-60v315h60q110 0 110 119v307q0 164 63.5 240.5t207.5 76.5h293v-278h-177q-49 0 -68.5 -23t-19.5 -80v-243q0 -130 -45.5 -197t-144.5 -80q99 -13 144.5 -79.5t45.5 -196.5v-244q0 -56 19.5 -78t68.5 -22h177v-281h-293
q-144 0 -207.5 77t-63.5 241z" />
    <glyph glyph-name="cid93" unicode="|" horiz-adv-x="626" 
d="M444 1550v-1802h-262v1802h262z" />
    <glyph glyph-name="cid94" unicode="}" horiz-adv-x="886" 
d="M358 129v244q0 129 45.5 196t143.5 80q-99 17 -144 83t-45 194v243q0 57 -20 80t-68 23h-176v278h293q141 0 205.5 -77t64.5 -240v-307q0 -61 26.5 -90t82.5 -29h61v-315h-61q-56 0 -82.5 -28.5t-26.5 -90.5v-307q0 -163 -64.5 -240.5t-205.5 -77.5h-293v281h176
q48 0 68 22.5t20 77.5z" />
    <glyph glyph-name="cid95" unicode="~" horiz-adv-x="1314" 
d="M428 901q99 0 229 -65q131 -64 179 -64q84 0 139 131l264 -112q-51 -154 -142.5 -237t-209.5 -83q-105 0 -230 64q-56 26 -80.5 37t-51.5 19.5t-46 8.5q-84 0 -139 -131l-264 113q51 154 142 236.5t210 82.5z" />
    <glyph glyph-name="cid208" unicode="&#xa1;" horiz-adv-x="610" 
d="M104 877q0 82 57.5 137t143.5 55t143.5 -55t57.5 -137q0 -84 -57 -139.5t-144 -55.5t-144 55.5t-57 139.5zM449 557l30 -1034h-348l31 1034h287z" />
    <glyph glyph-name="cid143" unicode="&#xa2;" horiz-adv-x="1226" 
d="M918 487l256 -141q-61 -97 -157.5 -161t-215.5 -87v-213h-262v215q-203 40 -330 197.5t-127 372.5q0 214 127 370.5t330 196.5v215h262v-213q118 -23 214.5 -87.5t158.5 -158.5l-256 -143q-38 60 -102 93.5t-142 33.5q-131 0 -213 -88q-82 -85 -82 -219q0 -133 82 -221
q83 -89 213 -89q78 0 142 33.5t102 93.5z" />
    <glyph glyph-name="cid144" unicode="&#xa3;" horiz-adv-x="1323" 
d="M258 221v303h-127v244h127v199q0 237 139 373.5t379 136.5q178 0 299 -86q122 -84 168 -191l-260 -147q-58 137 -207 137q-91 0 -144.5 -58.5t-53.5 -162.5v-201h391v-244h-391v-303h673v-289h-1120v289h127z" />
    <glyph glyph-name="cid214" unicode="&#xa4;" horiz-adv-x="1513" 
d="M1239 438l205 -205l-203 -202l-199 198q-128 -73 -286 -73q-157 0 -285 73l-201 -198l-200 202l204 205q-61 116 -61 252q0 139 59 254l-202 205l200 203l201 -201q130 74 285 74q157 0 284 -74l201 201l203 -203l-205 -205q61 -119 61 -254q0 -136 -61 -252zM756 408
q118 0 194 79q76 82 76 203q0 124 -74.5 203.5t-195.5 79.5q-118 0 -193.5 -80t-75.5 -203q0 -120 74 -203q76 -79 195 -79z" />
    <glyph glyph-name="cid145" unicode="&#xa5;" horiz-adv-x="1529" 
d="M1497 1448l-465 -737h295v-205h-401v-121h401v-199h-401v-254h-322v254h-403v199h403v121h-403v205h297l-465 737h358l377 -637l379 637h350z" />
    <glyph glyph-name="brokenbar" unicode="&#xa6;" horiz-adv-x="626" 
d="M444 1550v-704h-262v704h262zM444 453v-705h-262v705h262z" />
    <glyph glyph-name="cid155" unicode="&#xa7;" horiz-adv-x="1153" 
d="M1038 57q0 -163 -127.5 -266.5t-332.5 -103.5q-165 0 -292 67.5t-188 188.5l224 123q36 -62 104 -98t154 -36q83 0 132.5 30t49.5 83q0 49 -44 79.5t-157 59.5l-149 37q-160 41 -245 133.5t-85 225.5q0 167 162 274q-129 94 -129 252q0 163 127.5 267t332.5 104
q165 0 292 -67.5t188 -188.5l-224 -123q-35 62 -103.5 97.5t-154.5 35.5q-83 0 -132.5 -30t-49.5 -83q0 -49 43.5 -78t157.5 -59l149 -39q161 -41 245.5 -132.5t84.5 -225.5q0 -168 -162 -275q129 -94 129 -252zM557 436l121 -30q51 17 84 60.5t33 94.5q0 62 -46 101
t-153 65l-121 31q-51 -17 -84 -61t-33 -95q0 -61 45 -99t154 -67z" />
    <glyph glyph-name="cid107" unicode="&#xa8;" horiz-adv-x="862" 
d="M61 1331q0 68 45.5 115t112.5 47t112.5 -47t45.5 -115t-45.5 -114t-112.5 -46t-112.5 46t-45.5 114zM485 1331q0 68 45.5 115t112.5 47t112.5 -47t45.5 -115t-45.5 -114t-112.5 -46t-112.5 46t-45.5 114z" />
    <glyph glyph-name="cid98" unicode="&#xa9;" horiz-adv-x="1648" 
d="M88 631q-3 165 56.5 308t160.5 239.5t236 151t282 52.5q148 2 283 -52t236 -151t160 -240t57 -308q2 -163 -57 -305.5t-159.5 -240.5t-236 -153t-283.5 -53q-146 -2 -281 53t-236 152.5t-160.5 240.5t-57.5 306zM1427 631q2 136 -46.5 255.5t-131.5 201.5t-194 128
t-232 44q-120 2 -230.5 -44t-193.5 -128t-131.5 -201.5t-46.5 -255.5q-2 -136 46.5 -255.5t131.5 -201.5t193.5 -128t230.5 -44q121 -2 232 44t194 128t131.5 201.5t46.5 255.5zM426 631q0 175 117.5 290t294.5 115q114 0 204.5 -47t145.5 -133l-184 -104q-53 88 -166 88
q-88 0 -143.5 -58.5t-55.5 -150.5t55.5 -150.5t143.5 -58.5q54 0 97.5 23.5t68.5 64.5l184 -102q-55 -87 -145.5 -135t-204.5 -48q-177 0 -294.5 115.5t-117.5 290.5z" />
    <glyph glyph-name="cid668" unicode="&#xaa;" horiz-adv-x="1118" 
d="M723 1456h266v-842h-266v105q-70 -125 -236 -125q-174 0 -289.5 126t-115.5 314q0 187 115.5 315t289.5 128q166 0 236 -125v104zM723 1034q0 92 -53.5 149.5t-139.5 57.5t-139 -58t-53 -149t53 -148t139 -57t139.5 56.5t53.5 148.5z" />
    <glyph glyph-name="guillemotleft" unicode="&#xab;" horiz-adv-x="1454" 
d="M473 918h338l-369 -431l369 -432h-338l-367 432zM991 918h336l-369 -431l369 -432h-336l-368 432z" />
    <glyph glyph-name="cid194" unicode="&#xac;" horiz-adv-x="1443" 
d="M127 647v264h1180v-671h-281v407h-899z" />
    <glyph glyph-name="uni00AD" unicode="&#xad;" 
d="M1204 831v-280h-1077v280h1077z" />
    <glyph glyph-name="uni00AD" unicode="&#x2013;" 
d="M1204 831v-280h-1077v280h1077z" />
    <glyph glyph-name="registered" unicode="&#xae;" horiz-adv-x="1204" 
d="M1124 1059q3 -144 -67.5 -268.5t-192.5 -197t-262 -69.5q-140 -3 -261 69.5t-191 197t-68 268.5q0 148 69.5 271t188.5 193t262 70t262.5 -70t189.5 -193t70 -271zM999 1059q0 175 -114.5 294.5t-282.5 119.5q-167 0 -282 -119.5t-115 -294.5q0 -173 115 -292.5
t282 -119.5q168 0 282.5 119t114.5 293zM745 997l140 -213h-146l-114 183h-25h-78v-183h-131v578h209q112 0 179 -54t67 -145q0 -112 -101 -166zM522 1243v-164h78q117 0 117 84q0 80 -117 80h-78z" />
    <glyph glyph-name="overscore" unicode="&#xaf;" horiz-adv-x="815" 
d="M754 1436v-242h-693v242h693z" />
    <glyph glyph-name="cid138" unicode="&#xb0;" horiz-adv-x="833" 
d="M74 1141q0 143 99 239.5t245 96.5t245 -96.5t99 -239.5q0 -145 -99 -241.5t-245 -96.5t-245 96.5t-99 241.5zM559 1141q0 64 -39.5 107.5t-101.5 43.5q-65 0 -104.5 -42t-39.5 -109t39.5 -110.5t104.5 -43.5q62 0 101.5 43.5t39.5 110.5z" />
    <glyph glyph-name="cid130" unicode="&#xb1;" 
d="M147 739v267h377v348h281v-348h379v-267h-379v-348h-281v348h-377zM1184 299v-264h-1037v264h1037z" />
    <glyph glyph-name="uni00B2" unicode="&#xb2;" horiz-adv-x="798" 
d="M473 1372q0 35 -27.5 55.5t-72.5 20.5q-43 0 -79 -20.5t-56 -55.5l-193 94q43 79 132 125.5t204 46.5q139 0 228 -71.5t89 -184.5q0 -70 -36.5 -127.5t-124.5 -132.5l-152 -125h350v-194h-659v180l286 244q65 57 88 86t23 59z" />
    <glyph glyph-name="uni00B3" unicode="&#xb3;" horiz-adv-x="798" 
d="M29 958l198 99q46 -82 158 -82q60 0 92.5 22.5t32.5 63.5q0 43 -32 61.5t-109 18.5h-70l-84 143l197 146h-338v192h622v-182l-227 -166h37q101 0 166 -59t65 -156q0 -118 -97.5 -195.5t-254.5 -77.5q-123 0 -218 46t-138 126z" />
    <glyph glyph-name="cid199" unicode="&#xb4;" horiz-adv-x="628" 
d="M588 1516l-252 -338h-295l197 338h350z" />
    <glyph glyph-name="uni00B5" unicode="&#xb5;" horiz-adv-x="1363" 
d="M924 1040h311v-1108h-311v154q-42 -83 -122.5 -132.5t-176.5 -49.5q-57 0 -106.5 18t-78.5 49v-473h-311v1542h311v-606q0 -128 58 -194t168 -66q112 0 185 80t73 213v573z" />
    <glyph glyph-name="cid244" unicode="&#xb6;" horiz-adv-x="1431" 
d="M76 977q0 211 151 341t412 130h655v-1700h-245v1466h-164v-1466h-246v760q-261 0 -412 129.5t-151 339.5z" />
    <glyph glyph-name="cid104" unicode="&#xb7;" horiz-adv-x="565" 
d="M82 690q0 82 57.5 137.5t143.5 55.5t143 -55.5t57 -137.5t-57 -137t-143 -55t-143.5 55t-57.5 137z" />
    <glyph glyph-name="cid206" unicode="&#xb8;" horiz-adv-x="565" 
d="M524 -70l-139 -368h-344l154 368h329z" />
    <glyph glyph-name="uni00B9" unicode="&#xb9;" horiz-adv-x="798" 
d="M332 997v404l-193 -55l-65 182l293 94h188v-625h205v-194h-678v194h250z" />
    <glyph glyph-name="cid675" unicode="&#xba;" horiz-adv-x="1062" 
d="M82 1034q0 189 128 316t320 127q193 0 322 -127t129 -316t-128.5 -314.5t-322.5 -125.5q-192 0 -320 125.5t-128 314.5zM723 1034q0 89 -54 147t-139 58t-138.5 -58t-53.5 -147t53.5 -146t138.5 -57q86 0 139.5 57.5t53.5 145.5z" />
    <glyph glyph-name="guillemotright" unicode="&#xbb;" horiz-adv-x="1454" 
d="M127 918h336l368 -431l-368 -432h-336l367 432zM643 918h336l369 -431l-369 -432h-336l369 432z" />
    <glyph glyph-name="cid751" unicode="&#xbc;" horiz-adv-x="1869" 
d="M332 836v403l-193 -55l-65 182l293 94h188v-624h205v-195h-678v195h250zM1665 1448l-1016 -1516h-252l1018 1516h250zM1102 78v172l411 504h224v-494h114v-182h-114v-158h-211v158h-424zM1526 504l-201 -244h201v244z" />
    <glyph glyph-name="cid748" unicode="&#xbd;" horiz-adv-x="1992" 
d="M332 836v403l-193 -55l-65 182l293 94h188v-624h205v-195h-678v195h250zM1665 1448l-1016 -1516h-252l1018 1516h250zM1669 489q0 35 -27.5 55.5t-74.5 20.5q-43 0 -78.5 -20.5t-54.5 -55.5l-193 95q43 79 132 125.5t204 46.5q137 0 226 -72t89 -184q0 -71 -36 -128
t-125 -132l-150 -125h350v-195h-659v180l287 244q64 56 87 85.5t23 59.5z" />
    <glyph glyph-name="cid752" unicode="&#xbe;" horiz-adv-x="1767" 
d="M29 797l198 98q46 -82 158 -82q60 0 92.5 22.5t32.5 63.5q0 43 -32 61.5t-109 18.5h-70l-84 143l197 146h-338v192h622v-182l-227 -166h37q101 0 166 -59t65 -156q0 -118 -97.5 -195t-254.5 -77q-123 0 -218 46t-138 126zM1563 1448l-1016 -1516h-252l1018 1516h250z
M999 78v172l412 504h223v-494h115v-182h-115v-158h-211v158h-424zM1423 504l-200 -244h200v244z" />
    <glyph glyph-name="cid209" unicode="&#xbf;" horiz-adv-x="1177" 
d="M432 877q0 82 57.5 137t143.5 55t143.5 -55t57.5 -137q0 -84 -57 -139.5t-144 -55.5t-144 55.5t-57 139.5zM82 -82q0 119 59 199q62 83 201 172q76 51 105.5 100t29.5 123v45h311v-45q-2 -100 -20 -156.5t-64.5 -106t-148.5 -118.5q-98 -64 -134 -106t-36 -97
q0 -75 60 -119.5t163 -44.5q91 0 170 51.5t115 131.5l258 -125q-63 -150 -209 -238q-149 -90 -330 -90q-239 0 -384.5 117t-145.5 307z" />
    <glyph glyph-name="Agrave" unicode="&#xc0;" horiz-adv-x="1568" 
d="M950 1585h-295l-252 338h351zM1204 -68l-112 299h-623l-111 -299h-333l596 1516h329l596 -1516h-342zM569 500h424l-213 567z" />
    <glyph glyph-name="Aacute" unicode="&#xc1;" horiz-adv-x="1568" 
d="M1165 1923l-252 -338h-292l194 338h350zM1204 -68l-112 299h-623l-111 -299h-333l596 1516h329l596 -1516h-342zM569 500h424l-213 567z" />
    <glyph glyph-name="Acircumflex" unicode="&#xc2;" horiz-adv-x="1568" 
d="M784 1780l-125 -195h-268l230 359h329l228 -359h-267zM1204 -68l-112 299h-623l-111 -299h-333l596 1516h329l596 -1516h-342zM569 500h424l-213 567z" />
    <glyph glyph-name="Atilde" unicode="&#xc3;" horiz-adv-x="1568" 
d="M618 1587h-221q0 157 60.5 246.5t169.5 89.5q67 0 180 -61q70 -37 94 -37t37.5 26t13.5 68h222q0 -157 -60.5 -246.5t-171.5 -89.5q-38 0 -75 14t-107 50q-62 36 -90 36q-24 0 -38 -26.5t-14 -69.5zM1204 -68l-112 299h-623l-111 -299h-333l596 1516h329l596 -1516h-342z
M569 500h424l-213 567z" />
    <glyph glyph-name="Adieresis" unicode="&#xc4;" horiz-adv-x="1568" 
d="M416 1739q0 68 45 115t112 47t112.5 -47t45.5 -115t-45.5 -114t-112.5 -46t-112 46t-45 114zM840 1739q0 68 45 115t112 47t112.5 -47t45.5 -115t-45.5 -114t-112.5 -46t-112 46t-45 114zM1204 -68l-112 299h-623l-111 -299h-333l596 1516h329l596 -1516h-342zM569 500
h424l-213 567z" />
    <glyph glyph-name="Aring" unicode="&#xc5;" horiz-adv-x="1568" 
d="M496 1823q0 116 82 192q84 78 206 78q123 0 207 -78t84 -192q0 -115 -84 -193q-82 -76 -207 -76q-124 0 -206 76t-82 193zM678 1823q0 -45 29 -75t77 -30q49 0 79 30t30 75q0 47 -30 76.5t-79 29.5t-77.5 -29t-28.5 -77zM1204 -68l-112 299h-623l-111 -299h-333l596 1516
h329l596 -1516h-342zM569 500h424l-213 567z" />
    <glyph glyph-name="cid666" unicode="&#xc6;" horiz-adv-x="2213" 
d="M1356 221h772v-289h-1094v336h-489l-172 -336h-348l792 1516h1290v-289h-751v-325h667v-285h-667v-328zM682 537h352v684z" />
    <glyph glyph-name="Ccedilla" unicode="&#xc7;" horiz-adv-x="1601" 
d="M1237 412l276 -158q-76 -129 -203.5 -217.5t-287.5 -118.5l-135 -356h-344l149 358q-269 56 -435.5 267t-166.5 503q-2 163 57 310t161.5 252t247 166t306.5 59q212 0 383.5 -95t267.5 -256l-276 -155q-61 98 -158 151.5t-217 53.5q-199 0 -324.5 -138.5t-125.5 -347.5
q0 -208 125.5 -345.5t324.5 -137.5q122 0 218 53.5t157 151.5z" />
    <glyph glyph-name="Egrave" unicode="&#xc8;" horiz-adv-x="1316" 
d="M645 1923l195 -338h-293l-252 338h350zM1210 1448v-289h-751v-325h667v-285h-667v-328h772v-289h-1094v1516h1073z" />
    <glyph glyph-name="Eacute" unicode="&#xc9;" horiz-adv-x="1316" 
d="M1053 1923l-252 -338h-295l196 338h351zM1210 1448v-289h-751v-325h667v-285h-667v-328h772v-289h-1094v1516h1073z" />
    <glyph glyph-name="Ecircumflex" unicode="&#xca;" horiz-adv-x="1316" 
d="M838 1944l229 -359h-268l-125 195l-127 -195h-266l227 359h330zM1210 1448v-289h-751v-325h667v-285h-667v-328h772v-289h-1094v1516h1073z" />
    <glyph glyph-name="Edieresis" unicode="&#xcb;" horiz-adv-x="1316" 
d="M303 1739q0 68 45.5 115t112.5 47t112 -47t45 -115t-45 -114t-112 -46t-112.5 46t-45.5 114zM727 1739q0 68 45.5 115t112.5 47t112 -47t45 -115t-45 -114t-112 -46t-112.5 46t-45.5 114zM1210 1448v-289h-751v-325h667v-285h-667v-328h772v-289h-1094v1516h1073z" />
    <glyph glyph-name="Igrave" unicode="&#xcc;" horiz-adv-x="595" 
d="M266 1923l197 -338h-295l-252 338h350zM459 1448v-1516h-322v1516h322z" />
    <glyph glyph-name="Iacute" unicode="&#xcd;" horiz-adv-x="595" 
d="M680 1923l-252 -338h-295l197 338h350zM459 1448v-1516h-322v1516h322z" />
    <glyph glyph-name="Icircumflex" unicode="&#xce;" horiz-adv-x="595" 
d="M463 1944l229 -359h-268l-125 195l-127 -195h-268l229 359h330zM459 1448v-1516h-322v1516h322z" />
    <glyph glyph-name="Idieresis" unicode="&#xcf;" horiz-adv-x="595" 
d="M-72 1739q0 68 45.5 115t112.5 47t112.5 -47t45.5 -115t-45.5 -114t-112.5 -46t-112.5 46t-45.5 114zM352 1739q0 68 45.5 115t112.5 47t112.5 -47t45.5 -115t-45.5 -114t-112.5 -46t-112.5 46t-45.5 114zM459 1448v-1516h-322v1516h322z" />
    <glyph glyph-name="cid667" unicode="&#xd0;" horiz-adv-x="1691" 
d="M1604 690q1 -164 -56 -305t-160 -241.5t-254.5 -157t-330.5 -54.5h-561v619h-172v280h172v617h561q179 2 330.5 -54.5t254.5 -157t160 -241.5t56 -305zM1280 690q0 222 -124.5 344.5t-352.5 122.5h-238v-326h385v-280h-385v-328h238q228 0 352.5 122.5t124.5 344.5z" />
    <glyph glyph-name="Ntilde" unicode="&#xd1;" horiz-adv-x="1587" 
d="M768 1647q-62 36 -90 36q-24 0 -37.5 -26t-13.5 -70h-221q0 157 60 246.5t169 89.5q67 0 180 -61q70 -37 94 -37t38 26t14 68h221q0 -157 -60.5 -246.5t-171.5 -89.5q-38 0 -75 14t-107 50zM444 1448l689 -981v981h317v-1516h-307l-688 983v-983h-318v1516h307z" />
    <glyph glyph-name="Ograve" unicode="&#xd2;" horiz-adv-x="1722" 
d="M834 1923l194 -338h-293l-252 338h351zM90 690q-2 163 57 310t161.5 252t247 166t306.5 59q161 2 305.5 -59t247.5 -166t162.5 -252t56.5 -310q3 -164 -56.5 -310.5t-162.5 -251.5t-247.5 -165.5t-305.5 -58.5q-162 -2 -306.5 58.5t-247 165.5t-161.5 251.5t-57 310.5z
M1311 690q0 209 -126.5 347.5t-322.5 138.5q-199 0 -324.5 -138.5t-125.5 -347.5q0 -208 125.5 -345.5t324.5 -137.5q196 0 322.5 138t126.5 345z" />
    <glyph glyph-name="Oacute" unicode="&#xd3;" horiz-adv-x="1722" 
d="M1241 1923l-252 -338h-295l197 338h350zM90 690q-2 163 57 310t161.5 252t247 166t306.5 59q161 2 305.5 -59t247.5 -166t162.5 -252t56.5 -310q3 -164 -56.5 -310.5t-162.5 -251.5t-247.5 -165.5t-305.5 -58.5q-162 -2 -306.5 58.5t-247 165.5t-161.5 251.5t-57 310.5z
M1311 690q0 209 -126.5 347.5t-322.5 138.5q-199 0 -324.5 -138.5t-125.5 -347.5q0 -208 125.5 -345.5t324.5 -137.5q196 0 322.5 138t126.5 345z" />
    <glyph glyph-name="Ocircumflex" unicode="&#xd4;" horiz-adv-x="1722" 
d="M1026 1944l229 -359h-268l-125 195l-127 -195h-266l227 359h330zM90 690q-2 163 57 310t161.5 252t247 166t306.5 59q161 2 305.5 -59t247.5 -166t162.5 -252t56.5 -310q3 -164 -56.5 -310.5t-162.5 -251.5t-247.5 -165.5t-305.5 -58.5q-162 -2 -306.5 58.5t-247 165.5
t-161.5 251.5t-57 310.5zM1311 690q0 209 -126.5 347.5t-322.5 138.5q-199 0 -324.5 -138.5t-125.5 -347.5q0 -208 125.5 -345.5t324.5 -137.5q196 0 322.5 138t126.5 345z" />
    <glyph glyph-name="Otilde" unicode="&#xd5;" horiz-adv-x="1722" 
d="M840 1647q-68 36 -95 36q-24 0 -37.5 -26t-13.5 -70h-221q0 157 60.5 246.5t171.5 89.5q38 0 71.5 -12t110.5 -49q64 -37 90 -37q24 0 37.5 26t13.5 68h221q0 -157 -60 -246.5t-169 -89.5q-62 0 -180 64zM90 690q-2 163 57 310t161.5 252t247 166t306.5 59
q161 2 305.5 -59t247.5 -166t162.5 -252t56.5 -310q3 -164 -56.5 -310.5t-162.5 -251.5t-247.5 -165.5t-305.5 -58.5q-162 -2 -306.5 58.5t-247 165.5t-161.5 251.5t-57 310.5zM1311 690q0 209 -126.5 347.5t-322.5 138.5q-199 0 -324.5 -138.5t-125.5 -347.5
q0 -208 125.5 -345.5t324.5 -137.5q196 0 322.5 138t126.5 345z" />
    <glyph glyph-name="Odieresis" unicode="&#xd6;" horiz-adv-x="1722" 
d="M492 1739q0 68 45 115t112 47t112.5 -47t45.5 -115t-45.5 -114t-112.5 -46t-112 46t-45 114zM915 1739q0 68 45.5 115t112.5 47t112.5 -47t45.5 -115t-45.5 -114t-112.5 -46t-112.5 46t-45.5 114zM90 690q-2 163 57 310t161.5 252t247 166t306.5 59q161 2 305.5 -59
t247.5 -166t162.5 -252t56.5 -310q3 -164 -56.5 -310.5t-162.5 -251.5t-247.5 -165.5t-305.5 -58.5q-162 -2 -306.5 58.5t-247 165.5t-161.5 251.5t-57 310.5zM1311 690q0 209 -126.5 347.5t-322.5 138.5q-199 0 -324.5 -138.5t-125.5 -347.5q0 -208 125.5 -345.5
t324.5 -137.5q196 0 322.5 138t126.5 345z" />
    <glyph glyph-name="cid131" unicode="&#xd7;" 
d="M477 690l-321 322l190 188l320 -319l319 319l189 -188l-322 -322l322 -321l-189 -187l-319 320l-320 -320l-190 187z" />
    <glyph glyph-name="cid673" unicode="&#xd8;" horiz-adv-x="1722" 
d="M1634 690q3 -164 -56.5 -310.5t-162.5 -251.5t-247.5 -165.5t-305.5 -58.5q-266 0 -461 143l-133 -143l-155 147l135 146q-158 207 -158 493q-2 163 57 310t161.5 252t247 166t306.5 59q258 0 459 -142l133 142l156 -146l-135 -145q159 -218 159 -496zM471 430l637 678
q-107 70 -246 70q-200 0 -327 -138.5t-127 -349.5q0 -146 63 -260zM1315 690q0 147 -64 260l-637 -678q106 -69 248 -69q198 0 325.5 139t127.5 348z" />
    <glyph glyph-name="Ugrave" unicode="&#xd9;" horiz-adv-x="1564" 
d="M754 1923l196 -338h-295l-252 338h351zM129 616v832h322v-832q0 -210 81.5 -310.5t249.5 -100.5t250 100.5t82 310.5v832h322v-832q0 -347 -171 -529.5t-483 -182.5t-482.5 182.5t-170.5 529.5z" />
    <glyph glyph-name="Uacute" unicode="&#xda;" horiz-adv-x="1564" 
d="M1161 1923l-252 -338h-295l197 338h350zM129 616v832h322v-832q0 -210 81.5 -310.5t249.5 -100.5t250 100.5t82 310.5v832h322v-832q0 -347 -171 -529.5t-483 -182.5t-482.5 182.5t-170.5 529.5z" />
    <glyph glyph-name="Ucircumflex" unicode="&#xdb;" horiz-adv-x="1564" 
d="M948 1944l228 -359h-269l-125 195l-125 -195h-268l227 359h332zM129 616v832h322v-832q0 -210 81.5 -310.5t249.5 -100.5t250 100.5t82 310.5v832h322v-832q0 -347 -171 -529.5t-483 -182.5t-482.5 182.5t-170.5 529.5z" />
    <glyph glyph-name="Udieresis" unicode="&#xdc;" horiz-adv-x="1564" 
d="M414 1739q0 68 45 115t112 47t111.5 -47t44.5 -115t-44.5 -114t-111.5 -46t-112 46t-45 114zM838 1739q0 68 45 115t112 47t111.5 -47t44.5 -115t-44.5 -114t-111.5 -46t-112 46t-45 114zM129 616v832h322v-832q0 -210 81.5 -310.5t249.5 -100.5t250 100.5t82 310.5v832
h322v-832q0 -347 -171 -529.5t-483 -182.5t-482.5 182.5t-170.5 529.5z" />
    <glyph glyph-name="Yacute" unicode="&#xdd;" horiz-adv-x="1529" 
d="M1143 1923l-252 -338h-293l195 338h350zM33 1448h358l377 -682l379 682h350l-571 -983v-533h-322v533z" />
    <glyph glyph-name="cid676" unicode="&#xde;" horiz-adv-x="1402" 
d="M1327 690q0 -235 -173 -381.5t-472 -146.5h-225v-230h-320v1516h320v-227h225q300 0 472.5 -147t172.5 -384zM1008 690q0 122 -80.5 182t-245.5 60h-225v-483h225q326 0 326 241z" />
    <glyph glyph-name="cid768" unicode="&#xdf;" horiz-adv-x="1466" 
d="M524 -25l101 267q94 -64 225 -64q102 0 164.5 57t62.5 148q0 115 -88.5 178.5t-249.5 63.5h-108v268h92q101 0 162 58.5t61 160.5q0 92 -66.5 149.5t-172.5 57.5q-129 0 -198 -63t-69 -181v-1143h-311v1145q0 250 148 383t425 133q246 0 399.5 -132t153.5 -333
q0 -142 -73.5 -237.5t-202.5 -112.5q171 -6 289 -114.5t118 -280.5q0 -210 -147.5 -344.5t-388.5 -134.5q-199 0 -326 71z" />
    <glyph glyph-name="agrave" unicode="&#xe0;" horiz-adv-x="1404" 
d="M862 1178h-293l-252 338h351zM965 1040h311v-1108h-311v148q-55 -86 -144 -131t-200 -45q-154 0 -277.5 76.5t-192.5 210t-69 296.5q0 162 69 295t192.5 210t277.5 77q111 0 200 -45t144 -131v147zM963 487q0 139 -82 224q-82 88 -209 88q-129 0 -213 -90
q-80 -89 -80 -222q0 -136 81.5 -224.5t211.5 -88.5q127 0 209 88t82 225z" />
    <glyph glyph-name="aacute" unicode="&#xe1;" horiz-adv-x="1404" 
d="M1075 1516l-252 -338h-295l197 338h350zM965 1040h311v-1108h-311v148q-55 -86 -144 -131t-200 -45q-154 0 -277.5 76.5t-192.5 210t-69 296.5q0 162 69 295t192.5 210t277.5 77q111 0 200 -45t144 -131v147zM963 487q0 139 -82 224q-82 88 -209 88q-129 0 -213 -90
q-80 -89 -80 -222q0 -136 81.5 -224.5t211.5 -88.5q127 0 209 88t82 225z" />
    <glyph glyph-name="acircumflex" unicode="&#xe2;" horiz-adv-x="1404" 
d="M696 1372l-127 -194h-266l227 358h330l230 -358h-269zM965 1040h311v-1108h-311v148q-55 -86 -144 -131t-200 -45q-154 0 -277.5 76.5t-192.5 210t-69 296.5q0 162 69 295t192.5 210t277.5 77q111 0 200 -45t144 -131v147zM963 487q0 139 -82 224q-82 88 -209 88
q-129 0 -213 -90q-80 -89 -80 -222q0 -136 81.5 -224.5t211.5 -88.5q127 0 209 88t82 225z" />
    <glyph glyph-name="atilde" unicode="&#xe3;" horiz-adv-x="1404" 
d="M528 1180h-221q0 157 60.5 246.5t171.5 89.5q27 0 55 -8t48.5 -17t78.5 -37q64 -37 90 -37q24 0 37.5 26t13.5 68h221q0 -157 -60 -246t-169 -89q-64 0 -180 63q-70 37 -94 37t-38 -26.5t-14 -69.5zM965 1040h311v-1108h-311v148q-55 -86 -144 -131t-200 -45
q-154 0 -277.5 76.5t-192.5 210t-69 296.5q0 162 69 295t192.5 210t277.5 77q111 0 200 -45t144 -131v147zM963 487q0 139 -82 224q-82 88 -209 88q-129 0 -213 -90q-80 -89 -80 -222q0 -136 81.5 -224.5t211.5 -88.5q127 0 209 88t82 225z" />
    <glyph glyph-name="adieresis" unicode="&#xe4;" horiz-adv-x="1404" 
d="M326 1331q0 68 45 115t112 47t112.5 -47t45.5 -115t-45.5 -114t-112.5 -46t-112 46t-45 114zM750 1331q0 68 45 115t112 47t112.5 -47t45.5 -115t-45.5 -114t-112.5 -46t-112 46t-45 114zM965 1040h311v-1108h-311v148q-55 -86 -144 -131t-200 -45q-154 0 -277.5 76.5
t-192.5 210t-69 296.5q0 162 69 295t192.5 210t277.5 77q111 0 200 -45t144 -131v147zM963 487q0 139 -82 224q-82 88 -209 88q-129 0 -213 -90q-80 -89 -80 -222q0 -136 81.5 -224.5t211.5 -88.5q127 0 209 88t82 225z" />
    <glyph glyph-name="aring" unicode="&#xe5;" horiz-adv-x="1404" 
d="M406 1415q0 118 81 193q84 78 209 78q121 0 205 -78t84 -193q0 -114 -84 -192q-82 -76 -205 -76q-127 0 -209 76q-81 75 -81 192zM588 1415q0 -45 29.5 -74.5t78.5 -29.5t78 29.5t29 74.5q0 48 -29 77.5t-78 29.5t-78.5 -29.5t-29.5 -77.5zM965 1040h311v-1108h-311v148
q-55 -86 -144 -131t-200 -45q-154 0 -277.5 76.5t-192.5 210t-69 296.5q0 162 69 295t192.5 210t277.5 77q111 0 200 -45t144 -131v147zM963 487q0 139 -82 224q-82 88 -209 88q-129 0 -213 -90q-80 -89 -80 -222q0 -136 81.5 -224.5t211.5 -88.5q127 0 209 88t82 225z" />
    <glyph glyph-name="cid757" unicode="&#xe6;" horiz-adv-x="2289" 
d="M2204 383h-875q29 -107 115 -163t213 -56q93 0 168.5 35.5t113.5 97.5l240 -150q-72 -110 -210.5 -176.5t-297.5 -66.5q-295 0 -420 174v-146h-286v148q-55 -86 -144 -131t-200 -45q-154 0 -277.5 76.5t-192.5 210t-69 296.5q0 162 69 295t192.5 210t277.5 77
q111 0 200 -45t144 -131v147h286v-143q123 172 383 172q164 0 295 -69.5t206 -197t75 -290.5q0 -76 -6 -129zM1329 592h580q-11 103 -88 163t-201 60q-108 0 -186.5 -58t-104.5 -165zM963 487q0 139 -82 224q-82 88 -209 88q-129 0 -213 -90q-80 -89 -80 -222
q0 -136 81.5 -224.5t211.5 -88.5q127 0 209 88t82 225z" />
    <glyph glyph-name="ccedilla" unicode="&#xe7;" horiz-adv-x="1226" 
d="M918 305l256 -141q-57 -90 -144 -152t-194 -88l-138 -362h-344l152 362q-191 52 -309 203q-115 154 -115 360q0 164 76 297t212 209t304 76q159 0 290.5 -68t209.5 -190l-256 -143q-38 60 -102 93.5t-142 33.5q-131 0 -213 -88q-82 -85 -82 -220q0 -133 82 -221t213 -88
q78 0 142 33.5t102 93.5z" />
    <glyph glyph-name="egrave" unicode="&#xe8;" horiz-adv-x="1312" 
d="M823 1178h-293l-251 338h350zM1227 383h-844q29 -104 110.5 -159.5t200.5 -55.5q85 0 158 34.5t111 94.5l239 -150q-72 -110 -210.5 -176.5t-297.5 -66.5q-178 0 -318 76t-217 208.5t-77 298.5q0 250 163 416t412 166q164 0 295 -69.5t206 -197t75 -290.5q0 -76 -6 -129z
M383 592h549q-11 99 -86 160t-187 61q-100 0 -175 -58.5t-101 -162.5z" />
    <glyph glyph-name="eacute" unicode="&#xe9;" horiz-adv-x="1312" 
d="M1036 1516l-252 -338h-295l197 338h350zM1227 383h-844q29 -104 110.5 -159.5t200.5 -55.5q85 0 158 34.5t111 94.5l239 -150q-72 -110 -210.5 -176.5t-297.5 -66.5q-178 0 -318 76t-217 208.5t-77 298.5q0 250 163 416t412 166q164 0 295 -69.5t206 -197t75 -290.5
q0 -76 -6 -129zM383 592h549q-11 99 -86 160t-187 61q-100 0 -175 -58.5t-101 -162.5z" />
    <glyph glyph-name="ecircumflex" unicode="&#xea;" horiz-adv-x="1312" 
d="M657 1372l-127 -194h-266l228 358h329l230 -358h-269zM1227 383h-844q29 -104 110.5 -159.5t200.5 -55.5q85 0 158 34.5t111 94.5l239 -150q-72 -110 -210.5 -176.5t-297.5 -66.5q-178 0 -318 76t-217 208.5t-77 298.5q0 250 163 416t412 166q164 0 295 -69.5t206 -197
t75 -290.5q0 -76 -6 -129zM383 592h549q-11 99 -86 160t-187 61q-100 0 -175 -58.5t-101 -162.5z" />
    <glyph glyph-name="edieresis" unicode="&#xeb;" horiz-adv-x="1312" 
d="M287 1331q0 68 45 115t112 47t112.5 -47t45.5 -115t-45.5 -114t-112.5 -46t-112 46t-45 114zM711 1331q0 68 45 115t112 47t112.5 -47t45.5 -115t-45.5 -114t-112.5 -46t-112 46t-45 114zM1227 383h-844q29 -104 110.5 -159.5t200.5 -55.5q85 0 158 34.5t111 94.5
l239 -150q-72 -110 -210.5 -176.5t-297.5 -66.5q-178 0 -318 76t-217 208.5t-77 298.5q0 250 163 416t412 166q164 0 295 -69.5t206 -197t75 -290.5q0 -76 -6 -129zM383 592h549q-11 99 -86 160t-187 61q-100 0 -175 -58.5t-101 -162.5z" />
    <glyph glyph-name="igrave" unicode="&#xec;" horiz-adv-x="569" 
d="M313 1516l127 -338h-290l-185 338h348zM440 1040v-1108h-311v1108h311z" />
    <glyph glyph-name="iacute" unicode="&#xed;" horiz-adv-x="569" 
d="M604 1516l-184 -338h-291l127 338h348zM440 1040v-1108h-311v1108h311z" />
    <glyph glyph-name="icircumflex" unicode="&#xee;" horiz-adv-x="569" 
d="M451 1536l227 -358h-268l-125 194l-125 -194h-269l228 358h332zM440 1040v-1108h-311v1108h311z" />
    <glyph glyph-name="idieresis" unicode="&#xef;" horiz-adv-x="569" 
d="M-84 1331q0 68 45.5 115t112.5 47t111 -47t44 -115t-44 -114t-111 -46t-112.5 46t-45.5 114zM340 1331q0 68 45.5 115t112.5 47t111 -47t44 -115t-44 -114t-111 -46t-112.5 46t-45.5 114zM440 1040v-1108h-311v1108h311z" />
    <glyph glyph-name="cid759" unicode="&#xf0;" horiz-adv-x="1333" 
d="M1251 442q0 -152 -75.5 -275.5t-209 -193t-298.5 -69.5q-253 0 -419.5 153t-166.5 385q0 107 42.5 201.5t114 161t167.5 105t200 38.5q54 0 86 -14l-112 162l-265 -95l-71 166l227 80l-139 201h352l70 -100l264 94l72 -166l-230 -82l242 -350q83 -119 116 -209.5
t33 -192.5zM952 440q0 119 -78.5 195t-205.5 76q-128 0 -207.5 -76t-79.5 -195q0 -118 79.5 -193t207.5 -75q127 0 205.5 75t78.5 193z" />
    <glyph glyph-name="ntilde" unicode="&#xf1;" horiz-adv-x="1355" 
d="M530 1180h-221q0 157 60.5 246.5t171.5 89.5q27 0 55 -8t48.5 -17t78.5 -37q64 -37 90 -37q24 0 37.5 26t13.5 68h221q0 -157 -60 -246t-169 -89q-64 0 -180 63q-70 37 -94 37t-38 -26.5t-14 -69.5zM1235 561v-629h-311v607q0 128 -58 194t-168 66q-112 0 -185 -80
t-73 -213v-574h-311v1108h311v-147q48 82 136 129t198 47q216 0 338.5 -134.5t122.5 -373.5z" />
    <glyph glyph-name="ograve" unicode="&#xf2;" horiz-adv-x="1345" 
d="M645 1516l195 -338h-293l-252 338h350zM82 487q0 164 76 297t212 209t304 76q166 0 302 -76t213 -209.5t77 -296.5q0 -165 -77 -298.5t-212.5 -209t-302.5 -75.5q-126 0 -236.5 44.5t-188.5 121.5t-122.5 185t-44.5 232zM967 487q0 135 -82 220q-79 88 -211 88
q-131 0 -213 -88q-82 -85 -82 -220q0 -133 82 -221t213 -88q132 0 211 88q82 88 82 221z" />
    <glyph glyph-name="oacute" unicode="&#xf3;" horiz-adv-x="1345" 
d="M1053 1516l-252 -338h-295l196 338h351zM82 487q0 164 76 297t212 209t304 76q166 0 302 -76t213 -209.5t77 -296.5q0 -165 -77 -298.5t-212.5 -209t-302.5 -75.5q-126 0 -236.5 44.5t-188.5 121.5t-122.5 185t-44.5 232zM967 487q0 135 -82 220q-79 88 -211 88
q-131 0 -213 -88q-82 -85 -82 -220q0 -133 82 -221t213 -88q132 0 211 88q82 88 82 221z" />
    <glyph glyph-name="ocircumflex" unicode="&#xf4;" horiz-adv-x="1345" 
d="M838 1536l229 -358h-268l-125 194l-127 -194h-266l227 358h330zM82 487q0 164 76 297t212 209t304 76q166 0 302 -76t213 -209.5t77 -296.5q0 -165 -77 -298.5t-212.5 -209t-302.5 -75.5q-126 0 -236.5 44.5t-188.5 121.5t-122.5 185t-44.5 232zM967 487q0 135 -82 220
q-79 88 -211 88q-131 0 -213 -88q-82 -85 -82 -220q0 -133 82 -221t213 -88q132 0 211 88q82 88 82 221z" />
    <glyph glyph-name="otilde" unicode="&#xf5;" horiz-adv-x="1345" 
d="M651 1239q-70 37 -94 37t-37.5 -26t-13.5 -70h-221q0 157 60 246.5t171 89.5q27 0 55 -8t48.5 -17t78.5 -37q64 -37 90 -37q24 0 38 26t14 68h221q0 -157 -60.5 -246t-169.5 -89q-64 0 -180 63zM82 487q0 164 76 297t212 209t304 76q166 0 302 -76t213 -209.5t77 -296.5
q0 -165 -77 -298.5t-212.5 -209t-302.5 -75.5q-126 0 -236.5 44.5t-188.5 121.5t-122.5 185t-44.5 232zM967 487q0 135 -82 220q-79 88 -211 88q-131 0 -213 -88q-82 -85 -82 -220q0 -133 82 -221t213 -88q132 0 211 88q82 88 82 221z" />
    <glyph glyph-name="odieresis" unicode="&#xf6;" horiz-adv-x="1345" 
d="M303 1331q0 68 45.5 115t112.5 47t112 -47t45 -115t-45 -114t-112 -46t-112.5 46t-45.5 114zM727 1331q0 68 45.5 115t112.5 47t112 -47t45 -115t-45 -114t-112 -46t-112.5 46t-45.5 114zM82 487q0 164 76 297t212 209t304 76q166 0 302 -76t213 -209.5t77 -296.5
q0 -165 -77 -298.5t-212.5 -209t-302.5 -75.5q-126 0 -236.5 44.5t-188.5 121.5t-122.5 185t-44.5 232zM967 487q0 135 -82 220q-79 88 -211 88q-131 0 -213 -88q-82 -85 -82 -220q0 -133 82 -221t213 -88q132 0 211 88q82 88 82 221z" />
    <glyph glyph-name="cid132" unicode="&#xf7;" 
d="M465 1137q0 85 56.5 138.5t144.5 53.5q87 0 142.5 -54t55.5 -138q0 -82 -56 -137.5t-142 -55.5t-143.5 55.5t-57.5 137.5zM1204 823v-264h-1077v264h1077zM465 244q0 85 56.5 138.5t144.5 53.5q87 0 142.5 -54t55.5 -138q0 -82 -56 -137.5t-142 -55.5t-143.5 55.5
t-57.5 137.5z" />
    <glyph glyph-name="cid766" unicode="&#xf8;" horiz-adv-x="1345" 
d="M674 1069q199 0 348 -104l102 104l123 -121l-100 -102q119 -149 119 -359q0 -165 -77 -298.5t-212.5 -209t-302.5 -75.5q-201 0 -350 104l-103 -104l-123 121l101 102q-117 155 -117 360q0 164 76 297t212 209t304 76zM410 334l417 424q-65 41 -153 41q-133 0 -216 -88
t-83 -224q0 -81 35 -153zM674 174q131 0 213 88q84 90 84 225q0 87 -35 152l-418 -424q71 -41 156 -41z" />
    <glyph glyph-name="ugrave" unicode="&#xf9;" horiz-adv-x="1355" 
d="M842 1178h-295l-252 338h350zM915 1040h312v-1108h-312v148q-48 -82 -135.5 -129t-197.5 -47q-216 0 -338.5 134.5t-122.5 373.5v628h311v-606q0 -128 58 -194t167 -66q112 0 185 80t73 213v573z" />
    <glyph glyph-name="uacute" unicode="&#xfa;" horiz-adv-x="1355" 
d="M1053 1516l-252 -338h-295l196 338h351zM915 1040h312v-1108h-312v148q-48 -82 -135.5 -129t-197.5 -47q-216 0 -338.5 134.5t-122.5 373.5v628h311v-606q0 -128 58 -194t167 -66q112 0 185 80t73 213v573z" />
    <glyph glyph-name="ucircumflex" unicode="&#xfb;" horiz-adv-x="1355" 
d="M674 1372l-125 -194h-268l227 358h332l227 -358h-268zM915 1040h312v-1108h-312v148q-48 -82 -135.5 -129t-197.5 -47q-216 0 -338.5 134.5t-122.5 373.5v628h311v-606q0 -128 58 -194t167 -66q112 0 185 80t73 213v573z" />
    <glyph glyph-name="udieresis" unicode="&#xfc;" horiz-adv-x="1355" 
d="M305 1331q0 68 45.5 115t112.5 47t111 -47t44 -115t-44 -114t-111 -46t-112.5 46t-45.5 114zM729 1331q0 68 45.5 115t112.5 47t111 -47t44 -115t-44 -114t-111 -46t-112.5 46t-45.5 114zM915 1040h312v-1108h-312v148q-48 -82 -135.5 -129t-197.5 -47
q-216 0 -338.5 134.5t-122.5 373.5v628h311v-606q0 -128 58 -194t167 -66q112 0 185 80t73 213v573z" />
    <glyph glyph-name="yacute" unicode="&#xfd;" horiz-adv-x="1304" 
d="M1030 1516l-252 -338h-293l195 338h350zM954 1040h326l-471 -1124q-101 -240 -224 -343t-284 -103q-67 0 -139 16.5t-123 42.5l65 250q76 -33 170 -33q86 0 140 39.5t92 132.5l6 16l-487 1106h333l306 -729z" />
    <glyph glyph-name="cid769" unicode="&#xfe;" horiz-adv-x="1404" 
d="M1323 487q0 -163 -70 -296.5t-193.5 -210t-275.5 -76.5q-110 0 -199.5 45.5t-144.5 130.5v-582h-311v1977h311v-582q55 85 144.5 130.5t199.5 45.5q114 0 214.5 -45.5t171.5 -123t112 -185t41 -228.5zM1026 487q0 134 -82 222q-81 90 -211 90q-129 0 -210 -87.5
t-81 -224.5q0 -139 81 -226t210 -87q130 0 211.5 88.5t81.5 224.5z" />
    <glyph glyph-name="ydieresis" unicode="&#xff;" horiz-adv-x="1304" 
d="M283 1331q0 68 45 115t112 47t112.5 -47t45.5 -115t-45.5 -114t-112.5 -46t-112 46t-45 114zM707 1331q0 68 45 115t112 47t112.5 -47t45.5 -115t-45.5 -114t-112.5 -46t-112 46t-45 114zM954 1040h326l-471 -1124q-101 -240 -224 -343t-284 -103q-67 0 -139 16.5
t-123 42.5l65 250q76 -33 170 -33q86 0 140 39.5t92 132.5l6 16l-487 1106h333l306 -729z" />
    <glyph glyph-name="dotlessi" unicode="&#x131;" horiz-adv-x="569" 
d="M440 1040v-1108h-311v1108h311z" />
    <glyph glyph-name="cid674" unicode="&#x152;" horiz-adv-x="2258" 
d="M1401 221h774v-289h-1096q-109 -28 -217 -28q-162 -2 -306.5 58.5t-247 165.5t-161.5 251.5t-57 310.5q-2 163 57 310t161.5 252t247 166t306.5 59q104 0 217 -29h1075v-289h-753v-325h670v-285h-670v-328zM1079 262v856q-94 58 -217 58q-199 0 -324.5 -138.5
t-125.5 -347.5q0 -208 125.5 -345.5t324.5 -137.5q119 0 217 55z" />
    <glyph glyph-name="cid767" unicode="&#x153;" horiz-adv-x="2205" 
d="M2120 383h-842q29 -104 110.5 -159.5t198.5 -55.5q85 0 157.5 34.5t110.5 94.5l240 -150q-72 -110 -210.5 -176.5t-297.5 -66.5q-142 0 -263.5 49.5t-203.5 140.5q-80 -91 -195 -140.5t-251 -49.5q-126 0 -236.5 44.5t-188.5 121.5t-122.5 185t-44.5 232q0 164 76 297
t212 209t304 76q133 0 247 -48.5t197 -137.5q79 89 191 137.5t241 48.5q164 0 295 -69.5t206 -197t75 -290.5q0 -76 -6 -129zM1278 592h547q-11 99 -85 160t-188 61q-100 0 -175 -58.5t-99 -162.5zM967 487q0 135 -82 220q-79 88 -211 88q-131 0 -213 -88q-82 -85 -82 -220
q0 -133 82 -221t213 -88q132 0 211 88q82 88 82 221z" />
    <glyph glyph-name="cid204" unicode="&#x2da;" horiz-adv-x="702" 
d="M61 1415q0 117 82 193q84 78 209 78q121 0 205 -78t84 -193q0 -114 -84 -192q-82 -76 -205 -76q-127 0 -209 76t-82 192zM459 1415q0 48 -29 77.5t-78 29.5t-78.5 -29.5t-29.5 -77.5q0 -45 29.5 -74.5t78.5 -29.5t78 29.5t29 74.5z" />
    <glyph glyph-name="cid200" unicode="&#x2dc;" horiz-adv-x="901" 
d="M426 1239q-64 37 -90 37t-39.5 -26t-13.5 -70h-222q0 157 60.5 246.5t171.5 89.5q27 0 55 -8t48.5 -17t78.5 -37q64 -37 90 -37q51 0 51 94h224q0 -156 -61 -245.5t-171 -89.5q-38 0 -76 14t-106 49z" />
    <glyph glyph-name="cid110" unicode="&#x2014;" horiz-adv-x="1843" 
d="M1718 831v-280h-1591v280h1591z" />
    <glyph glyph-name="cid110" unicode="&#x2015;" horiz-adv-x="1843" 
d="M1718 831v-280h-1591v280h1591z" />
    <glyph glyph-name="uni2016" unicode="&#x2016;" horiz-adv-x="1028" 
d="M420 1448v-1700h-281v1700h281zM891 1448v-1700h-283v1700h283z" />
    <glyph glyph-name="cid114" unicode="&#x2018;" horiz-adv-x="565" 
d="M487 1612l-79 -541h-334l155 541h258z" />
    <glyph glyph-name="cid115" unicode="&#x2019;" horiz-adv-x="565" 
d="M492 1612l-156 -541h-256l80 541h332z" />
    <glyph glyph-name="cid18379" unicode="&#x201a;" horiz-adv-x="565" 
d="M492 258l-156 -543h-256l80 543h332z" />
    <glyph glyph-name="cid116" unicode="&#x201c;" horiz-adv-x="974" 
d="M483 1612l-80 -541h-329l155 541h254zM897 1612l-80 -541h-330l156 541h254z" />
    <glyph glyph-name="cid117" unicode="&#x201d;" horiz-adv-x="974" 
d="M487 1612l-155 -541h-252l80 541h327zM901 1612l-156 -541h-253l79 541h330z" />
    <glyph glyph-name="cid18380" unicode="&#x201e;" horiz-adv-x="974" 
d="M487 258l-155 -543h-252l80 543h327zM901 258l-156 -543h-253l79 543h330z" />
    <glyph glyph-name="cid245" unicode="&#x2020;" horiz-adv-x="1083" 
d="M1030 1112v-240h-358v-1124h-262v1124h-355v240h355v438h262v-438h358z" />
    <glyph glyph-name="cid246" unicode="&#x2021;" horiz-adv-x="1083" 
d="M1030 872h-358v-444h358v-242h-358v-438h-262v438h-355v242h355v444h-355v240h355v438h262v-438h358v-240z" />
    <glyph glyph-name="cid8607" unicode="&#x2022;" horiz-adv-x="964" 
d="M168 690q0 129 90 217t225 88q134 0 225 -88t91 -217t-91 -217t-225 -88q-135 0 -225 88t-90 217z" />
    <glyph glyph-name="cid105" unicode="&#x2025;" horiz-adv-x="1130" 
d="M82 690q0 82 57.5 137.5t143.5 55.5t143 -55.5t57 -137.5t-57 -137t-143 -55t-143.5 55t-57.5 137zM649 690q0 84 56 138.5t143 54.5q88 0 144.5 -54t56.5 -139q0 -82 -57.5 -137t-143.5 -55t-142.5 55t-56.5 137z" />
    <glyph glyph-name="cid106" unicode="&#x2026;" horiz-adv-x="1697" 
d="M82 690q0 82 57.5 137.5t143.5 55.5t143 -55.5t57 -137.5t-57 -137t-143 -55t-143.5 55t-57.5 137zM649 690q0 84 56 138.5t143 54.5q88 0 144.5 -54t56.5 -139q0 -82 -57.5 -137t-143.5 -55t-142.5 55t-56.5 137zM1214 690q0 85 56.5 139t144.5 54q87 0 143 -54.5
t56 -138.5q0 -82 -56.5 -137t-142.5 -55t-143.5 55t-57.5 137z" />
    <glyph glyph-name="cid216" unicode="&#x2030;" horiz-adv-x="2840" 
d="M70 1075q0 169 114.5 285.5t282.5 116.5t282.5 -116.5t114.5 -285.5t-114.5 -285t-282.5 -116t-282.5 116t-114.5 285zM1606 1448l-1016 -1516h-252l1018 1516h250zM641 1075q0 82 -48.5 135.5t-125.5 53.5q-78 0 -127 -53.5t-49 -135.5q0 -80 49.5 -134t126.5 -54
t125.5 53t48.5 135zM1081 305q0 169 115 285.5t283 116.5t282.5 -116.5t114.5 -285.5t-114.5 -285t-282.5 -116t-283 116t-115 285zM1978 305q0 169 115 285.5t283 116.5t282.5 -116.5t114.5 -285.5t-114.5 -285t-282.5 -116t-283 116t-115 285zM1653 305q0 82 -48.5 135.5
t-125.5 53.5q-78 0 -127 -53.5t-49 -135.5q0 -80 49.5 -134t126.5 -54t125.5 53t48.5 135zM2552 305q0 82 -49 135.5t-127 53.5t-127 -53.5t-49 -135.5q0 -80 49.5 -134t126.5 -54t126.5 54t49.5 134z" />
    <glyph glyph-name="cid139" unicode="&#x2032;" horiz-adv-x="565" 
d="M492 1612l-156 -541h-256l80 541h332z" />
    <glyph glyph-name="cid140" unicode="&#x2033;" horiz-adv-x="974" 
d="M487 1612l-155 -541h-252l80 541h327zM901 1612l-156 -541h-253l79 541h330z" />
    <glyph glyph-name="cid8612" unicode="&#x2039;" horiz-adv-x="935" 
d="M473 918h338l-369 -431l369 -432h-338l-367 432z" />
    <glyph glyph-name="cid8613" unicode="&#x203a;" horiz-adv-x="935" 
d="M127 918h336l368 -431l-368 -432h-336l367 432z" />
    <glyph glyph-name="uni203B" unicode="&#x203b;" horiz-adv-x="1843" 
d="M756 1272q0 70 47 117t119 47t120 -47.5t48 -116.5t-48 -116.5t-120 -47.5t-119 47t-47 117zM842 692l-611 611l82 77l609 -610l610 610l78 -77l-611 -611l611 -608l-78 -82l-610 610l-611 -610l-80 82zM172 690q0 69 48 115.5t120 46.5t120 -46.5t48 -115.5
q0 -68 -48 -115t-120 -47t-120 47t-48 115zM1333 690q0 69 48 115.5t120 46.5q73 0 120.5 -46.5t47.5 -115.5q0 -68 -47.5 -115t-120.5 -47q-72 0 -120 47t-48 115zM756 111q0 69 47 116t119 47t120 -47t48 -116t-48 -116.5t-120 -47.5t-119 47.5t-47 116.5z" />
    <glyph glyph-name="uni203E" unicode="&#x203e;" horiz-adv-x="1843" 
d="M1843 1638v-245h-1843v245h1843z" />
    <glyph glyph-name="uni2074" unicode="&#x2074;" horiz-adv-x="798" 
d="M29 961v172l411 503h224v-493h114v-182h-114v-158h-211v158h-424zM453 1386l-201 -243h201v243z" />
    <glyph glyph-name="Euro" unicode="&#x20ac;" horiz-adv-x="1728" 
d="M1370 408l270 -154q-95 -161 -267 -255.5t-384 -94.5q-266 0 -461 143t-272 381h-182v203h145q-2 14 -2 59q0 48 2 62h-145v202h182q77 239 272 379q196 144 461 144q212 0 383.5 -95t267.5 -256l-270 -153q-61 99 -159.5 154t-221.5 55q-129 0 -230.5 -60t-162.5 -168
h575v-202h-636q-3 -21 -3 -62t3 -59h636v-203h-575q58 -107 161 -168t232 -61q123 0 221.5 55t159.5 154z" />
    <glyph glyph-name="cid260" unicode="&#x2122;" horiz-adv-x="1460" 
d="M53 1266v182h533v-182h-168v-455h-195v455h-170zM838 1448l170 -305l170 305h172v-637h-174v319l-113 -204h-113l-114 209v-324h-172v637h174z" />
    <glyph glyph-name="uni2153" horiz-adv-x="2029" 
d="M332 836v403l-193 -55l-65 182l293 94h188v-624h205v-195h-678v195h250zM1665 1448l-1016 -1516h-252l1018 1516h250zM1260 76l198 98q46 -82 158 -82q60 0 92.5 22.5t32.5 63.5q0 43 -32.5 61.5t-109.5 18.5h-69l-84 143l196 146h-337v192h622v-182l-227 -166h37
q101 0 166 -59t65 -156q0 -118 -97.5 -195t-254.5 -77q-123 0 -218 46t-138 126z" />
    <glyph glyph-name="uni2154" horiz-adv-x="2007" 
d="M473 1210q0 35 -27.5 55.5t-72.5 20.5q-43 0 -79 -20.5t-56 -55.5l-193 95q43 79 132 125.5t204 46.5q139 0 228 -71.5t89 -184.5q0 -70 -36.5 -127.5t-124.5 -132.5l-152 -125h350v-195h-659v180l286 244q65 57 88 86t23 59zM1642 1448l-1015 -1516h-252l1018 1516h249z
M1237 76l199 98q46 -82 157 -82q60 0 92.5 22.5t32.5 63.5q0 43 -32 61.5t-109 18.5h-70l-84 143l197 146h-338v192h623v-182l-228 -166h37q101 0 166.5 -59t65.5 -156q0 -118 -98 -195t-255 -77q-123 0 -218 46t-138 126z" />
    <glyph glyph-name="cid753" horiz-adv-x="1972" 
d="M332 836v403l-193 -55l-65 182l293 94h188v-624h205v-195h-678v195h250zM1665 1448l-1016 -1516h-252l1018 1516h250zM1219 150q0 67 41.5 120t111.5 76q-57 25 -89 71.5t-32 106.5q0 104 90 168t232 64t231.5 -64t89.5 -168q0 -61 -32 -107t-88 -71q70 -23 111.5 -76
t41.5 -120q0 -111 -100 -177q-100 -69 -254 -69t-254 69q-100 66 -100 177zM1694 508q0 38 -32 60t-89 22t-89 -22t-32 -60t32 -60t89 -22t89 22t32 60zM1720 162q0 41 -40 66.5t-107 25.5t-107.5 -25.5t-40.5 -66.5t40.5 -66.5t107.5 -25.5t107 25.5t40 66.5z" />
    <glyph glyph-name="cid754" horiz-adv-x="1869" 
d="M29 797l198 98q46 -82 158 -82q60 0 92.5 22.5t32.5 63.5q0 43 -32 61.5t-109 18.5h-70l-84 143l197 146h-338v192h622v-182l-227 -166h37q101 0 166 -59t65 -156q0 -118 -97.5 -195t-254.5 -77q-123 0 -218 46t-138 126zM1563 1448l-1016 -1516h-252l1018 1516h250z
M1116 150q0 67 42 119.5t112 76.5q-57 25 -89 71.5t-32 106.5q0 104 89.5 168t231.5 64t232 -64t90 -168q0 -60 -32 -106.5t-89 -71.5q70 -24 112 -76.5t42 -119.5q0 -110 -101 -177q-100 -69 -254 -69q-156 0 -255 68t-99 178zM1591 508q0 38 -32 60t-89 22t-88.5 -22
t-31.5 -60t31.5 -60t88.5 -22t89 22t32 60zM1618 162q0 41 -41 66.5t-107 25.5q-67 0 -107 -25.5t-40 -66.5t40 -66.5t107 -25.5q66 0 107 25.5t41 66.5z" />
    <glyph glyph-name="cid755" horiz-adv-x="1869" 
d="M29 797l198 98q46 -82 158 -82q60 0 92.5 24.5t32.5 67.5q0 47 -36 66.5t-124 19.5h-256l27 469h581v-192h-380l-9 -103h80q163 0 253.5 -70t90.5 -192t-97.5 -200t-254.5 -78q-121 0 -216.5 46t-139.5 126zM1563 1448l-1016 -1516h-252l1018 1516h250zM1116 150
q0 67 42 119.5t112 76.5q-57 25 -89 71.5t-32 106.5q0 104 89.5 168t231.5 64t232 -64t90 -168q0 -60 -32 -106.5t-89 -71.5q70 -24 112 -76.5t42 -119.5q0 -110 -101 -177q-100 -69 -254 -69q-156 0 -255 68t-99 178zM1591 508q0 38 -32 60t-89 22t-88.5 -22t-31.5 -60
t31.5 -60t88.5 -22t89 22t32 60zM1618 162q0 41 -41 66.5t-107 25.5q-67 0 -107 -25.5t-40 -66.5t40 -66.5t107 -25.5q66 0 107 25.5t41 66.5z" />
    <glyph glyph-name="cid756" horiz-adv-x="1744" 
d="M53 1260v200h664v-192l-326 -627h-250l322 619h-410zM1440 1448l-1018 -1516h-250l1016 1516h252zM991 150q0 67 42 119.5t112 76.5q-57 25 -89 71.5t-32 106.5q0 104 90 168t232 64t231.5 -64t89.5 -168q0 -60 -32 -106.5t-89 -71.5q70 -24 112 -76.5t42 -119.5
q0 -110 -101 -177q-100 -69 -253 -69q-154 0 -254 69q-101 67 -101 177zM1466 508q0 38 -31.5 60t-88.5 22t-89 -22t-32 -60t32 -60t89 -22t88.5 22t31.5 60zM1493 162q0 41 -40 66.5t-107 25.5t-107.5 -25.5t-40.5 -66.5t40.5 -66.5t107.5 -25.5t107 25.5t40 66.5z" />
    <glyph glyph-name="arrowup" unicode="&#x2191;" horiz-adv-x="1740" 
d="M713 1018q-38 -45 -109 -107l-328 -282l-186 231l780 645l783 -645l-189 -231l-327 282q-52 46 -109 107q4 -118 4 -227v-916h-321v916q0 196 2 227z" />
    <glyph glyph-name="arrowdown" unicode="&#x2193;" horiz-adv-x="1740" 
d="M276 752l328 -283q83 -74 109 -107q-2 31 -2 228v915h321v-915q0 -110 -4 -228q30 34 109 107l327 283l189 -230l-783 -647l-780 647z" />
    <glyph glyph-name="cid14.locl" horiz-adv-x="1021" 
d="M897 627v-281h-770v281h770z" />
    <glyph glyph-name="uni00AD.locl" 
d="M1204 627v-281h-1077v281h1077z" />
    <glyph glyph-name="cid110.locl" horiz-adv-x="1843" 
d="M1718 627v-281h-1591v281h1591z" />
    <glyph glyph-name="cid27.locl" horiz-adv-x="565" 
d="M82 879q0 82 57.5 137t143.5 55t143 -55t57 -137q0 -85 -57 -140t-143 -55q-87 0 -144 55.5t-57 139.5zM82 96q0 82 57.5 137.5t143.5 55.5t143 -55.5t57 -137.5q0 -84 -56.5 -139t-143.5 -55t-144 55t-57 139z" />
    <glyph glyph-name="cid28.locl" horiz-adv-x="565" 
d="M82 879q0 82 57.5 137t143.5 55t143 -55t57 -137q0 -85 -57 -140t-143 -55q-87 0 -144 55.5t-57 139.5zM492 258l-156 -543h-256l80 543h332z" />
    <glyph glyph-name="cid8607.locl" horiz-adv-x="964" 
d="M168 487q0 130 90 217t225 87q134 0 225 -87t91 -217q0 -129 -91 -217t-225 -88q-135 0 -225 88t-90 217z" />
    </font>
</defs>
</svg>
