<?xml version="1.0" standalone="no"?>
<!DOCTYPE svg PUBLIC "-//W3C//DTD SVG 1.1//EN" "http://www.w3.org/Graphics/SVG/1.1/DTD/svg11.dtd" >
<svg xmlns="http://www.w3.org/2000/svg" xmlns:xlink="http://www.w3.org/1999/xlink" version="1.1">
<metadata>
Created by FontForge 20170731 at Wed Oct  7 06:47:06 2020
 By Aleksey,,,
Copyright (c) 2019 by studioJASO. All rights reserved. |DCNT
</metadata>
<defs>
<font id="CarmenSans-Bold" horiz-adv-x="1327" >
  <font-face 
    font-family="Carmen Sans"
    font-weight="700"
    font-stretch="normal"
    units-per-em="2048"
    panose-1="2 11 9 4 0 0 0 0 0 0"
    ascent="1583"
    descent="-465"
    x-height="1036"
    cap-height="1446"
    bbox="-186 -528 2765 2075"
    underline-thickness="102"
    underline-position="-634"
    unicode-range="U+0020-2193"
  />
<missing-glyph horiz-adv-x="1843" 
d="M1337 1421v-1581h-833v1581h833zM1280 1360h-717v-1458h717v1458z" />
    <glyph glyph-name="cid18375" unicode="ff" horiz-adv-x="1802" 
d="M1386 1130v-94h375v-243h-375v-859h-278v859h-555v-859h-279v859h-235v243h235v99q0 225 106 340.5t310 115.5q76 0 150 -18t121 -49l-62 -221q-76 40 -172 40q-174 0 -174 -213v-94h555v99q0 225 106 340.5t310 115.5q75 0 149 -18t121 -49l-61 -221q-76 40 -172 40
q-175 0 -175 -213z" />
    <glyph glyph-name="cid18376" unicode="ft" horiz-adv-x="1843" 
d="M1733 197l61 -224q-47 -31 -121 -49t-149 -18q-204 0 -310 116t-106 343v428h-555v-859h-279v859h-235v243h235v99q0 225 106 340.5t310 115.5q76 0 150 -18t121 -49l-62 -221q-76 40 -172 40q-174 0 -174 -213v-94h555v293h278v-293h367v-243h-367v-426
q0 -104 44.5 -158.5t130.5 -54.5q93 0 172 43z" />
    <glyph glyph-name="cid18377" unicode="fft" horiz-adv-x="2676" 
d="M2566 197l62 -224q-47 -31 -121 -49t-150 -18q-204 0 -309.5 116t-105.5 343v428h-556v-859h-278v859h-555v-859h-279v859h-235v243h235v99q0 225 106 340.5t310 115.5q76 0 150 -18t121 -49l-62 -221q-76 40 -172 40q-174 0 -174 -213v-94h555v99q0 225 106 340.5
t310 115.5q75 0 149 -18t121 -49l-61 -221q-76 40 -172 40q-175 0 -175 -213v-94h556v293h278v-293h367v-243h-367v-426q0 -105 44 -159t130 -54q93 0 172 43z" />
    <glyph glyph-name="cid18378" unicode="tt" horiz-adv-x="1843" 
d="M1733 197l61 -224q-47 -31 -121 -49t-149 -18q-204 0 -310 116t-106 343v428h-555v-426q0 -105 44 -159t130 -54q93 0 172 43l62 -224q-47 -31 -121 -49t-150 -18q-204 0 -310 116t-106 343v428h-235v243h235v293h279v-293h555v293h278v-293h367v-243h-367v-426
q0 -104 44.5 -158.5t130.5 -54.5q93 0 172 43z" />
    <glyph glyph-name=".notdef" horiz-adv-x="1843" 
d="M1337 1421v-1581h-833v1581h833zM1280 1360h-717v-1458h717v1458z" />
    <glyph glyph-name=".null" horiz-adv-x="0" 
 />
    <glyph glyph-name="nonmarkingreturn" horiz-adv-x="682" 
 />
    <glyph glyph-name="cid1" unicode=" " horiz-adv-x="491" 
 />
    <glyph glyph-name="cid1" unicode="&#xa0;" horiz-adv-x="491" 
 />
    <glyph glyph-name="cid2" unicode="!" horiz-adv-x="589" 
d="M451 1446l-27 -1045h-258l-27 1045h312zM113 84q0 75 52 126.5t130 51.5q79 0 131.5 -51.5t52.5 -126.5t-52.5 -126.5t-131.5 -51.5q-78 0 -130 51.5t-52 126.5z" />
    <glyph glyph-name="cid3" unicode="&#x22;" horiz-adv-x="854" 
d="M371 1446l-37 -496h-209l-37 496h283zM766 1446l-39 -496h-209l-35 496h283z" />
    <glyph glyph-name="cid4" unicode="#" horiz-adv-x="1396" 
d="M55 301v209h224l69 362h-203v209h244l70 365h239l-69 -365h293l69 365h240l-70 -365h180v-209h-221l-69 -362h200v-209h-241l-72 -367h-240l72 367h-293l-71 -367h-240l72 367h-183zM883 872h-297l-70 -364h295z" />
    <glyph glyph-name="cid5" unicode="$" horiz-adv-x="1310" 
d="M780 -47v-203h-237v203q-162 23 -284.5 103t-184.5 200l225 125q49 -88 144.5 -140.5t220.5 -52.5q124 0 205 49.5t81 127.5q0 73 -60 118t-202 82l-176 45q-389 99 -389 394q0 162 115 280q113 116 305 143v203h237v-205q146 -23 257.5 -96.5t166.5 -183.5l-225 -123
q-39 76 -129 123t-199 47q-110 0 -182 -48.5t-72 -125.5q0 -69 60 -112.5t202 -80.5l177 -45q389 -101 389 -403q0 -164 -123 -281q-122 -116 -322 -143z" />
    <glyph glyph-name="cid6" unicode="%" horiz-adv-x="1941" 
d="M72 1075q0 170 113 285t280 115t280 -115t113 -285q0 -168 -113 -282.5t-280 -114.5t-280 114.5t-113 282.5zM1593 1446l-1013 -1512h-232l1014 1512h231zM655 1075q0 89 -53 147t-137 58t-136.5 -58t-52.5 -147t52.5 -146t136.5 -57t137 58t53 145zM1083 305
q0 170 113.5 285t280.5 115t280 -115t113 -285q0 -169 -113 -284t-280 -115t-280.5 115t-113.5 284zM1667 305q0 89 -53 147t-137 58t-136.5 -58t-52.5 -147t52.5 -146t136.5 -57t137 58t53 145z" />
    <glyph glyph-name="cid7" unicode="&#x26;" horiz-adv-x="1603" 
d="M1597 -63h-350l-149 143q-207 -174 -453 -174q-250 0 -405.5 127.5t-155.5 335.5q0 263 299 397q-79 86 -112 156.5t-33 152.5q0 175 131.5 287.5t345.5 112.5t346.5 -110t132.5 -278q0 -105 -59.5 -188t-151.5 -127l-166 166q52 25 82.5 65.5t30.5 88.5q0 69 -59 113
t-156 44q-98 0 -155.5 -47t-57.5 -125q0 -57 49 -127q58 -75 192 -200l338 -322q96 124 201 303l225 -137q-132 -223 -239 -344zM918 252l-369 350q-197 -90 -197 -223q0 -103 83 -169.5t216 -66.5q138 0 267 109z" />
    <glyph glyph-name="cid8" unicode="'" horiz-adv-x="460" 
d="M373 1446l-37 -496h-211l-37 496h285z" />
    <glyph glyph-name="cid9" unicode="(" horiz-adv-x="806" 
d="M145 649q0 289 113 539t307 426l195 -174q-162 -150 -254 -358.5t-92 -432.5t92 -432t254 -358l-195 -174q-194 176 -307 426t-113 538z" />
    <glyph glyph-name="cid10" unicode=")" horiz-adv-x="806" 
d="M393 649q0 224 -92 432.5t-254 358.5l195 174q190 -173 305 -426q115 -254 115 -539q0 -284 -115 -538q-115 -253 -305 -426l-195 174q162 150 254 358t92 432z" />
    <glyph glyph-name="cid11" unicode="*" horiz-adv-x="835" 
d="M291 1075l-244 55l64 191l231 -100l-23 252h199l-22 -250l231 98l61 -191l-243 -55l166 -188l-162 -119l-131 217l-129 -217l-162 119z" />
    <glyph glyph-name="cid12" unicode="+" 
d="M129 571v240h410v414h252v-414h407v-240h-407v-415h-252v415h-410z" />
    <glyph glyph-name="cid13" unicode="," horiz-adv-x="544" 
d="M463 233l-148 -518h-231l78 518h301z" />
    <glyph glyph-name="cid14" unicode="-" horiz-adv-x="1019" 
d="M891 817v-252h-762v252h762z" />
    <glyph glyph-name="cid15" unicode="." horiz-adv-x="544" 
d="M90 84q0 75 52 126.5t130 51.5q79 0 132 -51.5t53 -126.5t-53 -126.5t-132 -51.5q-78 0 -130 51.5t-52 126.5z" />
    <glyph glyph-name="cid16" unicode="/" horiz-adv-x="1122" 
d="M1081 1546l-794 -1794h-246l795 1794h245z" />
    <glyph glyph-name="cid17" unicode="0" 
d="M78 690q0 359 158 572t428 213t427.5 -213t157.5 -572t-157.5 -571.5t-427.5 -212.5q-179 0 -312 96.5t-203.5 273.5t-70.5 414zM975 690q0 250 -81.5 386t-229.5 136t-229 -135.5t-81 -386.5t81 -386.5t229 -135.5t229.5 136t81.5 386z" />
    <glyph glyph-name="cid18" unicode="1" 
d="M598 186v967l-387 -123l-80 240l516 176h230v-1260h383v-252h-1123v252h461z" />
    <glyph glyph-name="cid19" unicode="2" 
d="M864 1012q0 92 -66.5 148.5t-176.5 56.5q-94 0 -172.5 -51.5t-124.5 -135.5l-242 133q77 144 219 228t324 84q232 0 379 -126.5t147 -324.5q0 -120 -66 -231q-65 -106 -219 -254l-364 -353h717v-252h-1090v230l524 518q115 115 164 186q47 71 47 144z" />
    <glyph glyph-name="cid20" unicode="3" 
d="M59 219l236 129q45 -87 136.5 -137.5t209.5 -50.5q127 0 208 62t81 159q0 108 -81 163.5t-237 55.5h-123l-104 201l418 387h-670v258h1024v-246l-440 -403h31q205 0 337 -117.5t132 -298.5q0 -207 -161 -341t-415 -134q-198 0 -353.5 83.5t-228.5 229.5z" />
    <glyph glyph-name="cid21" unicode="4" 
d="M51 274v226l731 973h289v-957h217v-242h-217v-340h-270v340h-750zM801 1114l-451 -598h451v598z" />
    <glyph glyph-name="cid22" unicode="5" 
d="M59 219l238 129q45 -87 134.5 -136.5t209.5 -49.5q129 0 209 64.5t80 170.5q0 234 -346 234h-418l43 815h952v-258h-696l-16 -320h196q269 0 420.5 -125.5t151.5 -345.5q0 -213 -161 -352t-415 -139q-198 0 -353.5 83.5t-228.5 229.5z" />
    <glyph glyph-name="cid23" unicode="6" 
d="M82 442q0 99 35 192t116 208l431 604h321l-367 -512q40 18 97 18q141 0 261.5 -65.5t192.5 -183.5t72 -261q0 -152 -74.5 -274.5t-207 -192t-297.5 -69.5t-297.5 69.5t-207.5 192t-75 274.5zM973 442q0 128 -86 210.5t-225 82.5q-136 0 -226 -84q-86 -83 -86 -209
q0 -128 86 -211q90 -84 226 -84q138 0 224.5 83t86.5 212z" />
    <glyph glyph-name="cid24" unicode="7" 
d="M92 1186v260h1094v-248l-590 -1264h-315l587 1252h-776z" />
    <glyph glyph-name="cid25" unicode="8" 
d="M80 352q0 126 74.5 226.5t193.5 142.5q-100 49 -157.5 134.5t-57.5 197.5q0 188 149.5 305t381.5 117q233 0 381.5 -117t148.5 -305q0 -114 -57 -198.5t-158 -133.5q119 -42 193.5 -142.5t74.5 -226.5q0 -197 -164 -321.5t-419 -124.5q-252 0 -418 125.5t-166 320.5z
M932 1030q0 97 -73 156t-195 59q-123 0 -196 -59t-73 -156t73 -156t196 -59q122 0 195 59t73 156zM979 371q0 104 -87 168.5t-228 64.5q-140 0 -228 -64.5t-88 -168.5t88 -169t228 -65q141 0 228 65t87 169z" />
    <glyph glyph-name="cid26" unicode="9" 
d="M614 428q-141 -3 -263.5 63.5t-195 185.5t-69.5 261q0 152 75 274.5t207.5 192.5t297.5 70t297.5 -70t207 -192.5t74.5 -274.5q0 -98 -34.5 -189t-116.5 -208l-428 -607h-324l367 512q-37 -18 -95 -18zM977 938q0 129 -86.5 212t-224.5 83q-136 0 -226 -84
q-86 -83 -86 -211t86 -211q88 -82 226 -82q139 0 225 82.5t86 210.5z" />
    <glyph glyph-name="cid27" unicode=":" horiz-adv-x="544" 
d="M90 1092q0 75 52 126.5t130 51.5q79 0 132 -51.5t53 -126.5t-53 -126t-132 -51q-78 0 -130 51t-52 126zM90 289q0 75 52 126.5t130 51.5q79 0 132 -51.5t53 -126.5t-53 -125.5t-132 -50.5q-78 0 -130 50.5t-52 125.5z" />
    <glyph glyph-name="cid28" unicode=";" horiz-adv-x="544" 
d="M90 1092q0 75 52 126.5t130 51.5q79 0 132 -51.5t53 -126.5t-53 -126t-132 -51q-78 0 -130 51t-52 126zM463 438l-148 -518h-231l78 518h301z" />
    <glyph glyph-name="cid29" unicode="&#x3c;" 
d="M170 805l975 446v-272l-674 -289l674 -289v-270l-975 447v227z" />
    <glyph glyph-name="cid30" unicode="=" 
d="M1178 1065v-242h-1028v242h1028zM1178 559v-244h-1028v244h1028z" />
    <glyph glyph-name="cid31" unicode="&#x3e;" 
d="M858 690l-676 289v272l975 -446v-227l-975 -447v270z" />
    <glyph glyph-name="cid32" unicode="?" horiz-adv-x="1169" 
d="M629 827q105 69 143.5 115t38.5 107q0 82 -68 132t-180 50q-96 0 -178.5 -53t-120.5 -140l-233 115q62 145 205 233q145 89 325 89q236 0 380 -116t144 -302q0 -119 -61 -201q-59 -79 -207 -176q-77 -49 -107 -100t-30 -131v-48h-279v48q0 96 18.5 155t65.5 109.5
t144 113.5zM356 84q0 75 53 126.5t132 51.5q78 0 130 -51.5t52 -126.5t-52 -126.5t-130 -51.5q-79 0 -132 51.5t-53 126.5z" />
    <glyph glyph-name="cid33" unicode="@" horiz-adv-x="2097" 
d="M1268 930h237v-678h29q258 0 258 375q0 183 -95.5 318t-260.5 203.5t-377 68.5q-157 1 -295.5 -49.5t-239 -142t-158 -227t-55.5 -294.5q-2 -159 55.5 -294.5t158 -227t239 -142t295.5 -49.5q280 0 481 148l127 -164q-124 -88 -280.5 -135.5t-327.5 -47.5
q-202 -2 -381.5 64.5t-310 185t-205 291t-70.5 371.5q-3 160 44 303.5t136 254t209 191.5t268.5 122.5t309.5 39.5q160 1 305 -34t262 -104.5t203 -166.5t132 -224t44 -272q0 -256 -123.5 -405.5t-343.5 -149.5h-111q-78 0 -116 34t-43 104q-44 -69 -121.5 -106.5
t-171.5 -37.5q-179 0 -299.5 130.5t-120.5 320.5q0 123 54.5 226t151 163.5t214.5 60.5q95 0 172 -37.5t121 -105.5v119zM1266 504q0 108 -67.5 177t-170.5 69q-105 0 -173.5 -70t-68.5 -176t68.5 -176t173.5 -70q103 0 170.5 69t67.5 177z" />
    <glyph glyph-name="cid34" unicode="A" horiz-adv-x="1550" 
d="M1217 -66l-123 322h-645l-123 -322h-299l600 1512h297l600 -1512h-307zM541 498h460l-229 606z" />
    <glyph glyph-name="cid35" unicode="B" horiz-adv-x="1486" 
d="M1333 1040q0 -114 -64 -205t-165 -124q120 -23 207.5 -120.5t87.5 -228.5q0 -194 -147.5 -311t-411.5 -117h-693v1512h641q264 0 404.5 -108.5t140.5 -297.5zM1051 1008q0 92 -67.5 140t-201.5 48h-348v-385h348q128 0 198.5 52t70.5 145zM1108 387q0 88 -71.5 138
t-198.5 50h-404v-389h400q136 0 205 53t69 148z" />
    <glyph glyph-name="cid36" unicode="C" horiz-adv-x="1599" 
d="M92 690q-3 219 97.5 400.5t278.5 285t392 99.5q206 0 376 -93t271 -252l-247 -141q-63 103 -167 159t-233 56q-210 0 -344.5 -147t-134.5 -367t134.5 -367t344.5 -147q127 0 230 56.5t170 158.5l247 -139q-100 -161 -268.5 -253.5t-378.5 -92.5q-214 -4 -392 100
t-278.5 285.5t-97.5 398.5z" />
    <glyph glyph-name="cid37" unicode="D" horiz-adv-x="1587" 
d="M1495 690q2 -219 -95 -391.5t-280 -270t-422 -94.5h-551v1512h551q239 3 422 -94.5t280 -270t95 -391.5zM1206 690q0 235 -132.5 365.5t-375.5 130.5h-262v-991h262q243 0 375.5 130.5t132.5 364.5z" />
    <glyph glyph-name="cid38" unicode="E" horiz-adv-x="1316" 
d="M1208 1446v-258h-774v-369h690v-256h-690v-368h795v-261h-1082v1512h1061z" />
    <glyph glyph-name="cid39" unicode="F" horiz-adv-x="1275" 
d="M1200 1446v-260h-764v-400h680v-260h-680v-592h-289v1512h1053z" />
    <glyph glyph-name="cid40" unicode="G" horiz-adv-x="1681" 
d="M92 690q-3 164 57 311t165.5 251.5t253.5 165t313 57.5q216 0 390 -93t275 -252l-246 -139q-67 102 -174.5 158.5t-244.5 56.5q-220 0 -360 -147t-140 -369q0 -221 146 -369.5t370 -148.5q124 0 228.5 31.5t166.5 87.5v241h-415v242h682v-612q-88 -111 -275 -182
q-183 -74 -387 -74q-167 -3 -317.5 57.5t-258.5 166t-170 252t-59 308.5z" />
    <glyph glyph-name="cid41" unicode="H" horiz-adv-x="1605" 
d="M436 1446v-625h733v625h289v-1512h-289v629h-733v-629h-289v1512h289z" />
    <glyph glyph-name="cid42" unicode="I" horiz-adv-x="581" 
d="M436 1446v-1512h-289v1512h289z" />
    <glyph glyph-name="cid43" unicode="J" horiz-adv-x="1245" 
d="M39 209l252 131q36 -76 104 -121t156 -45q131 0 199.5 92t68.5 269v911h289v-911q0 -299 -144.5 -464t-406.5 -165q-182 0 -319 88q-137 85 -199 215z" />
    <glyph glyph-name="cid44" unicode="K" horiz-adv-x="1421" 
d="M1415 -66h-358l-621 699v-699h-289v1512h289v-690l584 690h356l-643 -754z" />
    <glyph glyph-name="cid45" unicode="L" horiz-adv-x="1259" 
d="M436 1446v-1251h752v-261h-1041v1512h289z" />
    <glyph glyph-name="cid46" unicode="M" horiz-adv-x="1898" 
d="M430 1446l522 -903l523 903h278v-1512h-280v996l-406 -697h-236l-407 701v-1000h-277v1512h283z" />
    <glyph glyph-name="cid47" unicode="N" horiz-adv-x="1587" 
d="M424 1446l733 -1034v1034h285v-1512h-277l-733 1035v-1035h-285v1512h277z" />
    <glyph glyph-name="cid48" unicode="O" horiz-adv-x="1720" 
d="M92 690q-3 219 97.5 400.5t278.5 285t392 99.5q214 4 392 -99.5t278.5 -285t97.5 -400.5q3 -217 -97.5 -398.5t-278.5 -285.5t-392 -100q-214 -4 -392 100t-278.5 285.5t-97.5 398.5zM1339 690q0 221 -133.5 367.5t-345.5 146.5q-210 0 -344.5 -147t-134.5 -367
t134.5 -367t344.5 -147q212 0 345.5 146.5t133.5 367.5z" />
    <glyph glyph-name="cid49" unicode="P" horiz-adv-x="1396" 
d="M1319 926q0 -233 -171 -376.5t-470 -143.5h-244v-472h-287v1512h531q299 0 470 -143.5t171 -376.5zM1034 926q0 262 -354 262h-246v-526h246q354 0 354 264z" />
    <glyph glyph-name="cid50" unicode="Q" horiz-adv-x="1720" 
d="M1649 -102l67 -236q-106 -61 -268 -61q-149 0 -267.5 73t-226.5 236q-82 -4 -94 -4q-214 -4 -392 100t-278.5 285.5t-97.5 398.5q-3 219 97.5 400.5t278.5 285t392 99.5q214 4 392 -99.5t278.5 -285t97.5 -400.5q0 -226 -104 -408.5t-285 -281.5q47 -75 101 -108t128 -33
q107 0 181 39zM860 176q212 0 345.5 146.5t133.5 367.5t-133.5 367.5t-345.5 146.5q-210 0 -344.5 -147t-134.5 -367t134.5 -367t344.5 -147z" />
    <glyph glyph-name="cid51" unicode="R" horiz-adv-x="1431" 
d="M1413 -66h-326l-327 506q-70 -4 -84 -4h-242v-502h-287v1512h529q292 0 465.5 -138.5t173.5 -369.5q0 -147 -74 -258.5t-211 -173.5zM434 686h242q175 0 263.5 64.5t88.5 187.5t-88 186.5t-264 63.5h-242v-502z" />
    <glyph glyph-name="cid52" unicode="S" horiz-adv-x="1370" 
d="M74 233l237 132q49 -91 150.5 -147t232.5 -56t217 51.5t86 134.5q0 78 -63 125t-213 84l-186 49q-408 105 -408 416q0 198 155 325.5t404 127.5q194 0 350 -83.5t228 -224.5l-236 -127q-43 80 -137.5 129.5t-208.5 49.5q-116 0 -192 -52t-76 -133q0 -73 63 -118t213 -82
l187 -50q407 -105 407 -424q0 -131 -75 -234.5t-210.5 -161.5t-308.5 -58q-213 0 -376.5 88t-239.5 239z" />
    <glyph glyph-name="cid53" unicode="T" horiz-adv-x="1380" 
d="M59 1186v260h1262v-260h-485v-1252h-289v1252h-488z" />
    <glyph glyph-name="cid54" unicode="U" horiz-adv-x="1564" 
d="M139 612v834h289v-834q0 -222 87.5 -329t266.5 -107t268 107t89 329v834h286v-834q0 -343 -167.5 -524.5t-475.5 -181.5t-475.5 181.5t-167.5 524.5z" />
    <glyph glyph-name="cid55" unicode="V" horiz-adv-x="1511" 
d="M352 1446l408 -1137l407 1137h310l-574 -1512h-295l-573 1512h317z" />
    <glyph glyph-name="cid56" unicode="W" horiz-adv-x="2256" 
d="M365 1446l317 -1106l297 1098h307l297 -1098l318 1106h309l-473 -1512h-297l-312 1051l-309 -1051h-297l-475 1512h318z" />
    <glyph glyph-name="cid57" unicode="X" horiz-adv-x="1419" 
d="M20 1446h347l348 -514l344 514h340l-520 -752l526 -760h-346l-352 527l-353 -527h-340l527 762z" />
    <glyph glyph-name="cid58" unicode="Y" horiz-adv-x="1509" 
d="M35 1446h323l400 -707l401 707h316l-576 -975v-537h-289v537z" />
    <glyph glyph-name="cid59" unicode="Z" horiz-adv-x="1347" 
d="M889 1188h-789v258h1147v-246l-813 -1007h834v-259h-1192v246z" />
    <glyph glyph-name="cid60" unicode="[" horiz-adv-x="835" 
d="M739 1546v-250h-278v-1294h278v-250h-546v1794h546z" />
    <glyph glyph-name="cid61" unicode="\" horiz-adv-x="1122" 
d="M287 1546l794 -1794h-245l-795 1794h246z" />
    <glyph glyph-name="cid62" unicode="]" horiz-adv-x="835" 
d="M377 2v1294h-281v250h549v-1794h-549v250h281z" />
    <glyph glyph-name="cid63" unicode="^" horiz-adv-x="1196" 
d="M702 1473l412 -723h-278l-238 446l-238 -446h-278l412 723h208z" />
    <glyph glyph-name="cid64" unicode="_" horiz-adv-x="1036" 
d="M1036 -84v-223h-1036v223h1036z" />
    <glyph glyph-name="cid65" unicode="`" horiz-adv-x="591" 
d="M356 1507l195 -331h-266l-244 331h315z" />
    <glyph glyph-name="cid66" unicode="a" horiz-adv-x="1396" 
d="M979 1036h281v-1102h-281v156q-55 -90 -148 -137t-210 -47q-229 0 -383 167t-154 412q-1 119 40 227t112.5 186.5t172 123.5t212.5 43q117 0 210 -46.5t148 -135.5v153zM979 485q0 151 -87.5 243.5t-225.5 92.5t-228 -96q-86 -95 -86 -240q0 -144 88 -239.5t226 -95.5
t225.5 92t87.5 243z" />
    <glyph glyph-name="cid67" unicode="b" horiz-adv-x="1396" 
d="M1313 485q3 -159 -67 -292.5t-194.5 -211t-275.5 -75.5q-118 0 -210.5 48t-147.5 138v-158h-279v1539h279v-592q55 90 148 137t210 47q150 3 275 -74.5t195 -212t67 -293.5zM1047 485q0 145 -89 240q-90 96 -227 96q-138 0 -224.5 -92.5t-86.5 -243.5t86.5 -243
t224.5 -92t227 95.5t89 239.5z" />
    <glyph glyph-name="cid68" unicode="c" horiz-adv-x="1222" 
d="M84 485q-3 160 74.5 294.5t213.5 211t298 74.5q157 0 286.5 -67.5t204.5 -186.5l-227 -129q-44 64 -112.5 100.5t-151.5 36.5q-139 0 -228.5 -95.5t-89.5 -238.5t88 -237t230 -94q86 0 154.5 35.5t109.5 101.5l227 -131q-76 -118 -205 -186t-286 -68q-162 -2 -298 74.5
t-213.5 210.5t-74.5 294z" />
    <glyph glyph-name="cid69" unicode="d" horiz-adv-x="1396" 
d="M979 1473h281v-1539h-281v156q-55 -90 -148 -137t-210 -47q-229 0 -383 167t-154 412q-1 119 40 227t112.5 186.5t172 123.5t212.5 43q117 0 210 -46.5t148 -135.5v590zM979 485q0 151 -87.5 243.5t-225.5 92.5t-228 -96q-86 -95 -86 -240q0 -144 88 -239.5t226 -95.5
t225.5 92t87.5 243z" />
    <glyph glyph-name="cid70" unicode="e" horiz-adv-x="1306" 
d="M1219 389h-863q26 -117 114.5 -180.5t217.5 -63.5q91 0 168.5 37.5t118.5 100.5l215 -136q-73 -110 -208 -175.5t-294 -65.5q-174 0 -312.5 75.5t-215 208t-76.5 295.5q0 122 43.5 229.5t118.5 184.5t181 121.5t226 44.5q247 0 408.5 -155t161.5 -398q0 -29 -4 -123z
M356 586h598q-11 111 -91.5 178t-207.5 67q-112 0 -193.5 -65t-105.5 -180z" />
    <glyph glyph-name="cid71" unicode="f" horiz-adv-x="968" 
d="M553 1130v-94h375v-243h-375v-859h-279v859h-235v243h235v99q0 225 106 340.5t310 115.5q76 0 150 -18t121 -49l-62 -221q-76 40 -172 40q-174 0 -174 -213z" />
    <glyph glyph-name="cid72" unicode="g" horiz-adv-x="1396" 
d="M979 1036h281v-997q0 -133 -47 -241t-129 -179t-193.5 -109t-241.5 -38q-168 0 -304.5 68t-213.5 181l217 136q45 -69 124 -108.5t177 -39.5q159 0 244.5 84.5t85.5 245.5v96q-55 -81 -148.5 -124.5t-209.5 -43.5q-227 -4 -383.5 157.5t-153.5 391.5q0 235 153.5 392
t383.5 157q117 0 210 -43.5t148 -124.5v139zM979 516q0 139 -86.5 223t-226.5 84q-139 0 -226.5 -86.5t-87.5 -220.5t87.5 -219.5t226.5 -85.5q140 0 226.5 83t86.5 222z" />
    <glyph glyph-name="cid73" unicode="h" horiz-adv-x="1355" 
d="M1227 557v-623h-281v603q0 141 -63 212.5t-185 71.5t-201 -86.5t-79 -224.5v-576h-279v1539h279v-594q48 86 139.5 136t206.5 50q216 0 339.5 -134t123.5 -374z" />
    <glyph glyph-name="cid74" unicode="i" horiz-adv-x="557" 
d="M104 1350q0 70 50.5 118t124.5 48q73 0 123.5 -48.5t50.5 -117.5q0 -72 -49.5 -119t-124.5 -47t-125 47t-50 119zM418 1036v-1102h-279v1102h279z" />
    <glyph glyph-name="cid75" unicode="j" horiz-adv-x="557" 
d="M104 1350q0 70 50.5 118t124.5 48q73 0 123.5 -48.5t50.5 -117.5q0 -72 -49.5 -119t-124.5 -47t-125 47t-50 119zM-186 -477l63 225q52 -27 125 -27q137 0 137 183v1132h279v-1134q0 -209 -95 -318.5t-270 -109.5q-162 0 -239 49z" />
    <glyph glyph-name="cid76" unicode="k" horiz-adv-x="1212" 
d="M1206 -66h-332l-456 496v-496h-279v1539h279v-926l432 489h330l-494 -549z" />
    <glyph glyph-name="cid77" unicode="l" horiz-adv-x="557" 
d="M418 1473v-1539h-279v1539h279z" />
    <glyph glyph-name="cid78" unicode="m" horiz-adv-x="2050" 
d="M1919 557v-623h-279v603q0 139 -56.5 211.5t-162.5 72.5q-109 0 -180.5 -87.5t-71.5 -223.5v-576h-280v603q0 139 -56.5 211.5t-162.5 72.5q-111 0 -181 -88q-71 -89 -71 -223v-576h-279v1102h279v-157q45 86 129 136t188 50q128 0 222.5 -55t148.5 -160q56 101 152 158
t223 57q204 0 321 -135.5t117 -372.5z" />
    <glyph glyph-name="cid79" unicode="n" horiz-adv-x="1355" 
d="M1227 557v-623h-281v603q0 141 -63 212.5t-185 71.5t-201 -86.5t-79 -224.5v-576h-279v1102h279v-157q48 86 139.5 136t206.5 50q216 0 339.5 -134t123.5 -374z" />
    <glyph glyph-name="cid80" unicode="o" horiz-adv-x="1339" 
d="M84 485q-3 160 74.5 294.5t213.5 211t298 74.5q166 0 300.5 -76t209.5 -208.5t75 -295.5q0 -122 -44 -229.5t-121 -184t-186 -121t-234 -44.5q-162 -2 -298 74.5t-213.5 210.5t-74.5 294zM989 485q0 143 -89 238.5t-230 95.5q-139 0 -228.5 -95.5t-89.5 -238.5t88 -237
t230 -94q141 0 229 94q90 96 90 237z" />
    <glyph glyph-name="cid81" unicode="p" horiz-adv-x="1396" 
d="M1313 485q3 -159 -67 -292.5t-194.5 -211t-275.5 -75.5q-118 0 -210.5 48t-147.5 138v-594h-279v1538h279v-155q55 90 148 137t210 47q150 3 275 -74.5t195 -212t67 -293.5zM1047 485q0 145 -89 240q-90 96 -227 96q-138 0 -224.5 -92.5t-86.5 -243.5t86.5 -243
t224.5 -92t227 95.5t89 239.5z" />
    <glyph glyph-name="cid82" unicode="q" horiz-adv-x="1396" 
d="M979 1036h281v-1538h-281v592q-55 -90 -148 -137t-210 -47q-229 0 -383 167t-154 412q-1 119 40 227t112.5 186.5t172 123.5t212.5 43q117 0 210 -46.5t148 -135.5v153zM979 485q0 151 -87.5 243.5t-225.5 92.5t-228 -96q-86 -95 -86 -240q0 -144 88 -239.5t226 -95.5
t225.5 92t87.5 243z" />
    <glyph glyph-name="cid83" unicode="r" horiz-adv-x="905" 
d="M854 1038v-256q-66 17 -131 17q-134 0 -219.5 -87t-85.5 -223v-555h-279v1102h279v-184q42 94 125 149.5t186 55.5q73 0 125 -19z" />
    <glyph glyph-name="cid84" unicode="s" horiz-adv-x="1161" 
d="M51 166l211 121q44 -70 130 -114t192 -44t174.5 30t68.5 79t-43.5 75.5t-171.5 55.5l-161 37q-175 39 -260 115t-85 198q0 155 134.5 250.5t347.5 95.5q166 0 297 -70q135 -72 194 -170l-209 -118q-39 60 -118.5 98.5t-169.5 38.5q-93 0 -152 -30t-59 -79
q0 -47 43.5 -73.5t171.5 -55.5l162 -37q174 -38 259 -115.5t85 -201.5q0 -155 -145 -250.5t-369 -95.5q-178 0 -322 78q-142 77 -205 182z" />
    <glyph glyph-name="cid85" unicode="t" horiz-adv-x="1009" 
d="M899 197l62 -224q-47 -31 -121 -49t-150 -18q-204 0 -310 116t-106 343v428h-235v243h235v293h279v-293h367v-243h-367v-426q0 -105 44 -159t130 -54q93 0 172 43z" />
    <glyph glyph-name="cid86" unicode="u" horiz-adv-x="1355" 
d="M938 1036h281v-1102h-281v158q-45 -86 -136.5 -136t-207.5 -50q-216 0 -339.5 135t-123.5 375v620h279v-602q0 -141 62.5 -212.5t184.5 -71.5q124 0 202.5 86.5t78.5 226.5v573z" />
    <glyph glyph-name="cid87" unicode="v" horiz-adv-x="1286" 
d="M328 1036l319 -764l318 764h295l-478 -1102h-278l-477 1102h301z" />
    <glyph glyph-name="cid88" unicode="w" horiz-adv-x="1859" 
d="M342 1036l236 -755l229 743h254l229 -743l236 755h295l-383 -1102h-281l-227 691l-228 -691h-278l-385 1102h303z" />
    <glyph glyph-name="cid89" unicode="x" horiz-adv-x="1251" 
d="M20 1036h326l283 -356l282 356h320l-447 -547l453 -555h-326l-288 365l-289 -365h-320l451 555z" />
    <glyph glyph-name="cid90" unicode="y" horiz-adv-x="1286" 
d="M965 1036h295l-478 -1122q-109 -251 -227 -344q-119 -98 -270 -98q-137 0 -250 55l63 225q84 -35 166 -35q87 0 145 45t101 152l8 20l-491 1102h301l325 -768z" />
    <glyph glyph-name="cid91" unicode="z" horiz-adv-x="1171" 
d="M707 795h-615v241h987v-225l-635 -635h652v-242h-1024v226z" />
    <glyph glyph-name="cid92" unicode="{" horiz-adv-x="884" 
d="M240 51v330q0 129 -113 129h-64v281h64q57 0 85 30.5t28 96.5v331q0 153 62 225t196 72h290v-250h-188q-51 0 -71.5 -23t-20.5 -79v-276q0 -124 -43 -190t-135 -79q92 -13 135 -78.5t43 -189.5v-275q0 -57 20.5 -80.5t71.5 -23.5h188v-250h-290q-134 0 -196 72.5
t-62 226.5z" />
    <glyph glyph-name="cid93" unicode="|" horiz-adv-x="620" 
d="M428 1546v-1794h-235v1794h235z" />
    <glyph glyph-name="cid94" unicode="}" horiz-adv-x="884" 
d="M377 106v275q0 124 43 189.5t135 78.5q-92 13 -135 79t-43 190v276q0 56 -20.5 79t-71.5 23h-189v250h291q134 0 196 -72t62 -225v-331q0 -66 28 -96.5t85 -30.5h63v-281h-63q-113 0 -113 -129v-330q0 -154 -62 -226.5t-196 -72.5h-291v250h189q51 0 71.5 23.5t20.5 80.5
z" />
    <glyph glyph-name="cid95" unicode="~" horiz-adv-x="1298" 
d="M420 889q98 0 231 -68q137 -67 185 -67q92 0 147 137l238 -100q-48 -144 -137 -226t-205 -82q-99 0 -232 68q-75 37 -114.5 52t-69.5 15q-93 0 -148 -137l-237 101q48 144 137 225.5t205 81.5z" />
    <glyph glyph-name="cid208" unicode="&#xa1;" horiz-adv-x="589" 
d="M113 887q0 75 52 126.5t130 51.5q79 0 131.5 -51.5t52.5 -126.5t-52.5 -125.5t-131.5 -50.5q-78 0 -130 50.5t-52 125.5zM424 569l27 -1044h-312l27 1044h258z" />
    <glyph glyph-name="cid143" unicode="&#xa2;" horiz-adv-x="1222" 
d="M934 473l227 -131q-62 -97 -160.5 -160.5t-220.5 -83.5v-211h-235v215q-203 37 -332 195t-129 371q0 214 128.5 370.5t332.5 196.5v213h235v-209q121 -20 220 -84.5t161 -161.5l-227 -129q-44 64 -112.5 100.5t-151.5 36.5q-140 0 -229 -95t-89 -238q0 -144 88 -238
t230 -94q86 0 154.5 35.5t109.5 101.5z" />
    <glyph glyph-name="cid144" unicode="&#xa3;" horiz-adv-x="1320" 
d="M266 193v344h-133v221h133v211q0 234 137 370t371 136q169 0 291 -84t170 -189l-236 -131q-68 146 -225 146q-101 0 -161 -66t-60 -182v-211h410v-221h-410v-344h692v-259h-1112v259h133z" />
    <glyph glyph-name="cid214" unicode="&#xa4;" horiz-adv-x="1497" 
d="M1219 428l206 -207l-180 -182l-203 203q-127 -80 -292 -80q-166 0 -293 80l-203 -203l-182 182l207 207q-66 123 -66 262t66 262l-207 207l182 182l203 -202q125 82 293 82q167 0 292 -82l203 202l180 -182l-204 -205q65 -127 65 -264q0 -143 -67 -262zM750 389
q125 0 206 84q82 85 82 217t-82 217q-80 86 -206 86q-128 0 -209.5 -86t-81.5 -217t81.5 -216t209.5 -85z" />
    <glyph glyph-name="cid145" unicode="&#xa5;" horiz-adv-x="1509" 
d="M1475 1446l-480 -746h320v-190h-416v-129h416v-186h-416v-261h-289v261h-413v186h413v129h-413v190h317l-479 746h323l400 -655l401 655h316z" />
    <glyph glyph-name="brokenbar" unicode="&#xa6;" horiz-adv-x="620" 
d="M428 1546v-698h-235v698h235zM428 453v-701h-235v701h235z" />
    <glyph glyph-name="cid155" unicode="&#xa7;" horiz-adv-x="1153" 
d="M1032 55q0 -161 -126 -262.5t-326 -101.5q-160 0 -287 66.5t-187 181.5l205 114q37 -64 109 -101.5t162 -37.5q89 0 143.5 35t54.5 96q0 54 -46 86.5t-163 61.5l-153 40q-161 41 -245.5 131t-84.5 220q0 171 168 278q-135 88 -135 250q0 159 126.5 261t325.5 102
q160 0 287 -66.5t187 -181.5l-205 -115q-37 64 -109 101.5t-162 37.5q-88 0 -143 -35t-55 -94q0 -54 45.5 -86t163.5 -63l153 -39q161 -41 245.5 -131t84.5 -221q0 -84 -45.5 -156t-122.5 -121q135 -91 135 -250zM547 430l133 -35q59 13 96 61.5t37 106.5q0 64 -46.5 104
t-160.5 70l-135 35q-57 -17 -94 -64t-37 -104q0 -66 46 -105.5t161 -68.5z" />
    <glyph glyph-name="cid107" unicode="&#xa8;" horiz-adv-x="829" 
d="M61 1323q0 63 42.5 106.5t105.5 43.5t104 -43t41 -107q0 -62 -42 -105.5t-103 -43.5t-104.5 43.5t-43.5 105.5zM475 1323q0 63 42.5 106.5t105.5 43.5t104 -43t41 -107q0 -62 -42 -105.5t-103 -43.5t-104.5 43.5t-43.5 105.5z" />
    <glyph glyph-name="cid98" unicode="&#xa9;" horiz-adv-x="1648" 
d="M92 631q-3 163 56 305.5t160 239.5t236 151.5t281 52.5q146 2 281 -52.5t236.5 -151.5t160.5 -239.5t56 -305.5q3 -163 -56 -305.5t-160 -239.5t-236.5 -152t-281.5 -53q-146 -2 -281 53t-236 152t-160 239.5t-56 305.5zM1432 631q2 109 -29 208t-88.5 176t-133.5 133.5
t-167.5 85.5t-188.5 28q-121 2 -233 -44.5t-195 -128.5t-131.5 -202t-46.5 -256q-2 -136 46.5 -256.5t131.5 -203t195 -129t233 -44.5q120 -2 232 44.5t195.5 129t132.5 203t47 256.5zM430 631q0 174 117.5 289.5t292.5 115.5q111 0 200.5 -47t145.5 -133l-172 -96
q-63 92 -174 92q-92 0 -150.5 -62t-58.5 -159q0 -94 58.5 -156.5t150.5 -62.5q111 0 174 92l172 -98q-56 -85 -146 -132t-200 -47q-175 0 -292.5 115.5t-117.5 288.5z" />
    <glyph glyph-name="cid668" unicode="&#xaa;" horiz-adv-x="1116" 
d="M737 1454h240v-836h-240v111q-73 -131 -248 -131q-174 0 -289.5 125.5t-115.5 312.5t115.5 313t289.5 126q83 0 147.5 -34.5t100.5 -99.5v113zM737 1036q0 99 -59 162.5t-150 63.5q-93 0 -152 -63.5t-59 -162.5t59 -162t152 -63q92 0 150.5 61.5t58.5 163.5z" />
    <glyph glyph-name="guillemotleft" unicode="&#xab;" horiz-adv-x="1406" 
d="M473 911h303l-362 -426l362 -424h-303l-364 424zM975 911h303l-363 -426l363 -424h-303l-365 424z" />
    <glyph glyph-name="cid194" unicode="&#xac;" horiz-adv-x="1441" 
d="M129 666v239h1171v-657h-251v418h-920z" />
    <glyph glyph-name="uni00AD" unicode="&#xad;" 
d="M1198 817v-252h-1069v252h1069z" />
    <glyph glyph-name="uni00AD" unicode="&#x2013;" 
d="M1198 817v-252h-1069v252h1069z" />
    <glyph glyph-name="registered" unicode="&#xae;" horiz-adv-x="1204" 
d="M1120 1059q0 -146 -68.5 -268.5t-188 -193.5t-261.5 -71t-261.5 71t-188 193.5t-68.5 268.5q0 109 40.5 208t109.5 170t165 112.5t203 41.5t203 -41.5t165 -112.5t109.5 -170t40.5 -208zM1001 1059q0 177 -114.5 296.5t-284.5 119.5q-169 0 -283 -119.5t-114 -296.5
t114 -296.5t283 -119.5q170 0 284.5 119.5t114.5 296.5zM741 997l142 -213h-142l-118 185h-23h-82v-185h-125v576h207q112 0 178 -53t66 -144q0 -113 -103 -166zM518 1247v-168h80q123 0 123 84t-123 84h-80z" />
    <glyph glyph-name="overscore" unicode="&#xaf;" horiz-adv-x="794" 
d="M733 1417v-217h-672v217h672z" />
    <glyph glyph-name="cid138" unicode="&#xb0;" horiz-adv-x="823" 
d="M80 1149q0 137 96.5 231.5t235.5 94.5q138 0 234.5 -94t96.5 -232q0 -137 -96 -230.5t-235 -93.5t-235.5 93.5t-96.5 230.5zM559 1149q0 67 -41 111.5t-106 44.5t-105.5 -44.5t-40.5 -111.5t40.5 -111.5t105.5 -44.5t106 44.5t41 111.5z" />
    <glyph glyph-name="cid130" unicode="&#xb1;" 
d="M150 752v237h389v361h252v-361h387v-237h-387v-363h-252v363h-389zM1178 287v-240h-1028v240h1028z" />
    <glyph glyph-name="uni00B2" unicode="&#xb2;" horiz-adv-x="796" 
d="M483 1376q0 37 -30.5 60.5t-81.5 23.5q-92 0 -144 -82l-178 90q42 77 129.5 123.5t200.5 46.5q136 0 225 -71q90 -72 90 -181q0 -71 -37 -129.5t-129 -134.5l-161 -137h366v-180h-655v168l289 248q66 55 91 89t25 66z" />
    <glyph glyph-name="uni00B3" unicode="&#xb3;" horiz-adv-x="796" 
d="M33 958l186 91q50 -86 166 -86q63 0 100 26t37 70q0 47 -36 68.5t-117 21.5h-72l-78 133l211 160h-352v180h616v-172l-235 -176h35q105 0 172 -60t67 -157q0 -117 -97.5 -193t-250.5 -76q-121 0 -215 46t-137 124z" />
    <glyph glyph-name="cid199" unicode="&#xb4;" horiz-adv-x="591" 
d="M551 1507l-244 -331h-266l195 331h315z" />
    <glyph glyph-name="uni00B5" unicode="&#xb5;" horiz-adv-x="1363" 
d="M946 1036h281v-1102h-281v162q-43 -86 -129 -138t-188 -52q-68 0 -124 23.5t-87 64.5v-496h-279v1538h279v-602q0 -141 63 -212.5t185 -71.5q124 0 202 86.5t78 226.5v573z" />
    <glyph glyph-name="cid244" unicode="&#xb6;" horiz-adv-x="1425" 
d="M78 977q0 211 151 340t418 129h631v-1694h-223v1481h-185v-1481h-223v754q-267 0 -418 129t-151 342z" />
    <glyph glyph-name="cid104" unicode="&#xb7;" horiz-adv-x="544" 
d="M90 690q0 75 52 126.5t130 51.5q79 0 132 -51.5t53 -126.5t-53 -125.5t-132 -50.5q-78 0 -130 50.5t-52 125.5z" />
    <glyph glyph-name="cid206" unicode="&#xb8;" horiz-adv-x="532" 
d="M492 -70l-142 -368h-309l154 368h297z" />
    <glyph glyph-name="uni00B9" unicode="&#xb9;" horiz-adv-x="796" 
d="M338 987v428l-199 -57l-61 170l293 94h178v-635h209v-182h-676v182h256z" />
    <glyph glyph-name="cid675" unicode="&#xba;" horiz-adv-x="1058" 
d="M84 1036q0 187 127 313t319 126q191 0 318 -126t127 -313q0 -188 -126.5 -313t-318.5 -125q-193 0 -319.5 125t-126.5 313zM743 1036q0 98 -58.5 161t-154.5 63t-154.5 -63t-58.5 -161q0 -97 60 -161t153 -64t153 64t60 161z" />
    <glyph glyph-name="guillemotright" unicode="&#xbb;" horiz-adv-x="1406" 
d="M129 911h305l363 -426l-363 -424h-305l365 424zM631 911h305l362 -426l-362 -424h-305l364 424z" />
    <glyph glyph-name="cid751" unicode="&#xbc;" horiz-adv-x="1861" 
d="M338 823v428l-199 -57l-61 170l293 94h178v-635h209v-182h-676v182h256zM1653 1446l-1014 -1512h-231l1013 1512h232zM1094 86v160l422 510h206v-500h119v-170h-119v-164h-194v164h-434zM1528 522l-223 -266h223v266z" />
    <glyph glyph-name="cid748" unicode="&#xbd;" horiz-adv-x="1988" 
d="M338 823v428l-199 -57l-61 170l293 94h178v-635h209v-182h-676v182h256zM1653 1446l-1014 -1512h-231l1013 1512h232zM1675 496q0 37 -30.5 60.5t-81.5 23.5q-92 0 -144 -82l-178 90q42 77 129.5 123.5t200.5 46.5q135 0 225 -72t90 -180q0 -71 -37 -129.5t-129 -134.5
l-161 -138h366v-182h-655v170l289 248q65 55 90.5 89t25.5 67z" />
    <glyph glyph-name="cid752" unicode="&#xbe;" horiz-adv-x="1759" 
d="M33 795l186 90q50 -86 166 -86q63 0 100 26t37 70q0 47 -36 68.5t-117 21.5h-72l-78 133l211 160h-352v180h616v-172l-235 -176h35q105 0 172 -60t67 -157q0 -117 -97.5 -192.5t-250.5 -75.5q-121 0 -215 46t-137 124zM1550 1446l-1013 -1512h-232l1014 1512h231zM991 86
v160l422 510h207v-500h119v-170h-119v-164h-195v164h-434zM1425 522l-223 -266h223v266z" />
    <glyph glyph-name="cid209" unicode="&#xbf;" horiz-adv-x="1169" 
d="M446 887q0 75 52.5 126.5t130.5 51.5q79 0 131.5 -51.5t52.5 -126.5t-52.5 -125.5t-131.5 -50.5q-78 0 -130.5 50.5t-52.5 125.5zM84 -86q0 119 59.5 201t208.5 176q77 49 107 100.5t30 130.5v47h279v-47q0 -138 -44 -213t-183 -166q-104 -67 -143.5 -113.5t-39.5 -107.5
q0 -82 68 -132t180 -50q97 0 179 53t120 139l234 -114q-62 -145 -207 -234q-143 -88 -324 -88q-236 0 -380 116t-144 302z" />
    <glyph glyph-name="Agrave" unicode="&#xc0;" horiz-adv-x="1550" 
d="M924 1585h-267l-243 332h315zM1217 -66l-123 322h-645l-123 -322h-299l600 1512h297l600 -1512h-307zM541 498h460l-229 606z" />
    <glyph glyph-name="Aacute" unicode="&#xc1;" horiz-adv-x="1550" 
d="M1137 1917l-244 -332h-266l194 332h316zM1217 -66l-123 322h-645l-123 -322h-299l600 1512h297l600 -1512h-307zM541 498h460l-229 606z" />
    <glyph glyph-name="Acircumflex" unicode="&#xc2;" horiz-adv-x="1550" 
d="M776 1788l-137 -203h-244l232 352h297l233 -352h-246zM1217 -66l-123 322h-645l-123 -322h-299l600 1512h297l600 -1512h-307zM541 498h460l-229 606z" />
    <glyph glyph-name="Atilde" unicode="&#xc3;" horiz-adv-x="1550" 
d="M600 1593h-203q0 150 58.5 236t165.5 86q38 0 74.5 -15t107.5 -53q71 -41 92 -41q57 0 57 105h201q0 -150 -57 -236t-164 -86q-38 0 -74.5 15t-107.5 53q-71 41 -95 41q-55 0 -55 -105zM1217 -66l-123 322h-645l-123 -322h-299l600 1512h297l600 -1512h-307zM541 498h460
l-229 606z" />
    <glyph glyph-name="Adieresis" unicode="&#xc4;" horiz-adv-x="1550" 
d="M422 1733q0 63 42 106t105 43t104.5 -43t41.5 -106q0 -62 -42.5 -106t-103.5 -44t-104 44t-43 106zM836 1733q0 63 42 106t105 43t104 -43t41 -106q0 -62 -42 -106t-103 -44t-104 44t-43 106zM1217 -66l-123 322h-645l-123 -322h-299l600 1512h297l600 -1512h-307z
M541 498h460l-229 606z" />
    <glyph glyph-name="Aring" unicode="&#xc5;" horiz-adv-x="1550" 
d="M498 1817q0 110 80 184t198 74q119 0 199 -74t80 -184q0 -111 -80 -185q-79 -73 -199 -73q-119 0 -198 73q-80 74 -80 185zM666 1817q0 -48 30.5 -78.5t79.5 -30.5t80 30.5t31 78.5q0 47 -31 77.5t-80 30.5t-79.5 -30t-30.5 -78zM1217 -66l-123 322h-645l-123 -322h-299
l600 1512h297l600 -1512h-307zM541 498h460l-229 606z" />
    <glyph glyph-name="cid666" unicode="&#xc6;" horiz-adv-x="2193" 
d="M1311 195h794v-261h-1081v353h-500l-184 -353h-313l800 1512h1258v-258h-774v-369h690v-256h-690v-368zM649 528h375v717z" />
    <glyph glyph-name="Ccedilla" unicode="&#xc7;" horiz-adv-x="1599" 
d="M1260 391l247 -139q-83 -131 -212.5 -218t-288.5 -116l-138 -356h-309l150 358q-272 50 -444.5 264t-172.5 506q-3 219 97.5 400.5t278.5 285t392 99.5q206 0 376 -93t271 -252l-247 -141q-63 103 -167 159t-233 56q-210 0 -344.5 -147t-134.5 -367t134.5 -367
t344.5 -147q127 0 230 56.5t170 158.5z" />
    <glyph glyph-name="Egrave" unicode="&#xc8;" horiz-adv-x="1316" 
d="M635 1917l194 -332h-266l-244 332h316zM1208 1446v-258h-774v-369h690v-256h-690v-368h795v-261h-1082v1512h1061z" />
    <glyph glyph-name="Eacute" unicode="&#xc9;" horiz-adv-x="1316" 
d="M1032 1917l-244 -332h-264l193 332h315zM1208 1446v-258h-774v-369h690v-256h-690v-368h795v-261h-1082v1512h1061z" />
    <glyph glyph-name="Ecircumflex" unicode="&#xca;" horiz-adv-x="1316" 
d="M825 1937l232 -352h-244l-137 203l-135 -203h-246l233 352h297zM1208 1446v-258h-774v-369h690v-256h-690v-368h795v-261h-1082v1512h1061z" />
    <glyph glyph-name="Edieresis" unicode="&#xcb;" horiz-adv-x="1316" 
d="M324 1733q0 63 41 106t104 43t105 -43t42 -106q0 -62 -43 -106t-104 -44t-103 44t-42 106zM737 1733q0 63 41.5 106t104.5 43t105 -43t42 -106q0 -62 -43 -106t-104 -44t-103.5 44t-42.5 106zM1208 1446v-258h-774v-369h690v-256h-690v-368h795v-261h-1082v1512h1061z
" />
    <glyph glyph-name="Igrave" unicode="&#xcc;" horiz-adv-x="581" 
d="M246 1917l192 -332h-264l-246 332h318zM436 1446v-1512h-289v1512h289z" />
    <glyph glyph-name="Iacute" unicode="&#xcd;" horiz-adv-x="581" 
d="M653 1917l-243 -332h-267l195 332h315zM436 1446v-1512h-289v1512h289z" />
    <glyph glyph-name="Icircumflex" unicode="&#xce;" horiz-adv-x="581" 
d="M440 1937l232 -352h-244l-137 203l-135 -203h-246l233 352h297zM436 1446v-1512h-289v1512h289z" />
    <glyph glyph-name="Idieresis" unicode="&#xcf;" horiz-adv-x="581" 
d="M-63 1733q0 63 42 106t105 43t105 -43t42 -106q0 -62 -43 -106t-104 -44t-104 44t-43 106zM352 1733q0 63 41.5 106t104.5 43t105 -43t42 -106q0 -62 -43 -106t-104 -44t-103.5 44t-42.5 106zM436 1446v-1512h-289v1512h289z" />
    <glyph glyph-name="cid667" unicode="&#xd0;" horiz-adv-x="1687" 
d="M1595 690q1 -164 -55 -304.5t-158.5 -241t-253 -156.5t-329.5 -54h-551v631h-178v252h178v629h551q179 2 329.5 -54t253 -156.5t158.5 -241t55 -304.5zM1307 690q0 235 -132.5 365.5t-375.5 130.5h-262v-369h405v-252h-405v-370h262q243 0 375.5 130.5t132.5 364.5z" />
    <glyph glyph-name="Ntilde" unicode="&#xd1;" horiz-adv-x="1587" 
d="M768 1657q-71 41 -94 41q-56 0 -56 -105h-202q0 150 58 236t165 86q38 0 74.5 -15t107.5 -53q71 -41 92 -41q58 0 58 105h200q0 -150 -57 -236t-164 -86q-38 0 -74.5 15t-107.5 53zM424 1446l733 -1034v1034h285v-1512h-277l-733 1035v-1035h-285v1512h277z" />
    <glyph glyph-name="Ograve" unicode="&#xd2;" horiz-adv-x="1720" 
d="M819 1917l195 -332h-266l-244 332h315zM92 690q-3 219 97.5 400.5t278.5 285t392 99.5q214 4 392 -99.5t278.5 -285t97.5 -400.5q3 -217 -97.5 -398.5t-278.5 -285.5t-392 -100q-214 -4 -392 100t-278.5 285.5t-97.5 398.5zM1339 690q0 221 -133.5 367.5t-345.5 146.5
q-210 0 -344.5 -147t-134.5 -367t134.5 -367t344.5 -147q212 0 345.5 146.5t133.5 367.5z" />
    <glyph glyph-name="Oacute" unicode="&#xd3;" horiz-adv-x="1720" 
d="M1217 1917l-244 -332h-264l192 332h316zM92 690q-3 219 97.5 400.5t278.5 285t392 99.5q214 4 392 -99.5t278.5 -285t97.5 -400.5q3 -217 -97.5 -398.5t-278.5 -285.5t-392 -100q-214 -4 -392 100t-278.5 285.5t-97.5 398.5zM1339 690q0 221 -133.5 367.5t-345.5 146.5
q-210 0 -344.5 -147t-134.5 -367t134.5 -367t344.5 -147q212 0 345.5 146.5t133.5 367.5z" />
    <glyph glyph-name="Ocircumflex" unicode="&#xd4;" horiz-adv-x="1720" 
d="M1010 1937l231 -352h-244l-137 203l-135 -203h-246l234 352h297zM92 690q-3 219 97.5 400.5t278.5 285t392 99.5q214 4 392 -99.5t278.5 -285t97.5 -400.5q3 -217 -97.5 -398.5t-278.5 -285.5t-392 -100q-214 -4 -392 100t-278.5 285.5t-97.5 398.5zM1339 690
q0 221 -133.5 367.5t-345.5 146.5q-210 0 -344.5 -147t-134.5 -367t134.5 -367t344.5 -147q212 0 345.5 146.5t133.5 367.5z" />
    <glyph glyph-name="Otilde" unicode="&#xd5;" horiz-adv-x="1720" 
d="M834 1657q-71 41 -93 41q-57 0 -57 -105h-201q0 151 57.5 236.5t164.5 85.5q38 0 74.5 -15t107.5 -53q71 -41 94 -41q55 0 55 105h203q0 -150 -58 -236t-165 -86q-38 0 -74.5 15t-107.5 53zM92 690q-3 219 97.5 400.5t278.5 285t392 99.5q214 4 392 -99.5t278.5 -285
t97.5 -400.5q3 -217 -97.5 -398.5t-278.5 -285.5t-392 -100q-214 -4 -392 100t-278.5 285.5t-97.5 398.5zM1339 690q0 221 -133.5 367.5t-345.5 146.5q-210 0 -344.5 -147t-134.5 -367t134.5 -367t344.5 -147q212 0 345.5 146.5t133.5 367.5z" />
    <glyph glyph-name="Odieresis" unicode="&#xd6;" horiz-adv-x="1720" 
d="M508 1733q0 63 41 106t104 43t105.5 -43t42.5 -106q0 -62 -43.5 -106t-104.5 -44t-103 44t-42 106zM922 1733q0 63 41 106t104 43t105 -43t42 -106q0 -62 -43 -106t-104 -44t-103 44t-42 106zM92 690q-3 219 97.5 400.5t278.5 285t392 99.5q214 4 392 -99.5t278.5 -285
t97.5 -400.5q3 -217 -97.5 -398.5t-278.5 -285.5t-392 -100q-214 -4 -392 100t-278.5 285.5t-97.5 398.5zM1339 690q0 221 -133.5 367.5t-345.5 146.5q-210 0 -344.5 -147t-134.5 -367t134.5 -367t344.5 -147q212 0 345.5 146.5t133.5 367.5z" />
    <glyph glyph-name="cid131" unicode="&#xd7;" 
d="M496 690l-330 330l170 168l328 -328l327 328l170 -168l-327 -330l327 -328l-170 -169l-327 327l-328 -327l-170 169z" />
    <glyph glyph-name="cid673" unicode="&#xd8;" horiz-adv-x="1720" 
d="M1628 690q3 -217 -97.5 -398.5t-278.5 -285.5t-392 -100q-264 0 -463 147l-137 -147l-145 137l141 150q-164 206 -164 497q-3 219 97.5 400.5t278.5 285t392 99.5q266 0 465 -148l137 148l144 -138l-140 -149q162 -207 162 -498zM453 401l682 725q-119 82 -275 82
q-211 0 -346 -148t-135 -370q0 -159 74 -289zM1343 690q0 161 -73 289l-682 -723q116 -82 272 -82q214 0 348.5 146.5t134.5 369.5z" />
    <glyph glyph-name="Ugrave" unicode="&#xd9;" horiz-adv-x="1564" 
d="M741 1917l195 -332h-266l-244 332h315zM139 612v834h289v-834q0 -222 87.5 -329t266.5 -107t268 107t89 329v834h286v-834q0 -343 -167.5 -524.5t-475.5 -181.5t-475.5 181.5t-167.5 524.5z" />
    <glyph glyph-name="Uacute" unicode="&#xda;" horiz-adv-x="1564" 
d="M1139 1917l-244 -332h-264l192 332h316zM139 612v834h289v-834q0 -222 87.5 -329t266.5 -107t268 107t89 329v834h286v-834q0 -343 -167.5 -524.5t-475.5 -181.5t-475.5 181.5t-167.5 524.5z" />
    <glyph glyph-name="Ucircumflex" unicode="&#xdb;" horiz-adv-x="1564" 
d="M932 1937l231 -352h-243l-138 203l-135 -203h-246l234 352h297zM139 612v834h289v-834q0 -222 87.5 -329t266.5 -107t268 107t89 329v834h286v-834q0 -343 -167.5 -524.5t-475.5 -181.5t-475.5 181.5t-167.5 524.5z" />
    <glyph glyph-name="Udieresis" unicode="&#xdc;" horiz-adv-x="1564" 
d="M430 1733q0 63 41 106t104 43t105.5 -43t42.5 -106q0 -62 -43.5 -106t-104.5 -44t-103 44t-42 106zM844 1733q0 63 41 106t104 43t105.5 -43t42.5 -106q0 -62 -43.5 -106t-104.5 -44t-103 44t-42 106zM139 612v834h289v-834q0 -222 87.5 -329t266.5 -107t268 107t89 329
v834h286v-834q0 -343 -167.5 -524.5t-475.5 -181.5t-475.5 181.5t-167.5 524.5z" />
    <glyph glyph-name="Yacute" unicode="&#xdd;" horiz-adv-x="1509" 
d="M1112 1917l-244 -332h-266l195 332h315zM35 1446h323l400 -707l401 707h316l-576 -975v-537h-289v537z" />
    <glyph glyph-name="cid676" unicode="&#xde;" horiz-adv-x="1396" 
d="M1319 690q0 -233 -171 -376.5t-470 -143.5h-244v-236h-287v1512h287v-236h244q299 0 470 -143.5t171 -376.5zM1034 690q0 264 -354 264h-246v-526h246q354 0 354 262z" />
    <glyph glyph-name="cid768" unicode="&#xdf;" horiz-adv-x="1460" 
d="M516 -20l90 239q103 -65 236 -65q115 0 186.5 64t71.5 163q0 124 -94.5 192t-266.5 68h-112v242h94q113 0 180.5 63.5t67.5 171.5q0 99 -73 163.5t-189 64.5q-140 0 -214.5 -69t-74.5 -198v-1145h-279v1149q0 244 146.5 376t416.5 132q242 0 392.5 -129.5t150.5 -326.5
q0 -144 -74 -241t-200 -116q172 -6 288.5 -113.5t116.5 -281.5q0 -212 -148 -344.5t-388 -132.5q-198 0 -324 74z" />
    <glyph glyph-name="agrave" unicode="&#xe0;" horiz-adv-x="1396" 
d="M844 1176h-266l-244 331h315zM979 1036h281v-1102h-281v156q-55 -90 -148 -137t-210 -47q-229 0 -383 167t-154 412q-1 119 40 227t112.5 186.5t172 123.5t212.5 43q117 0 210 -46.5t148 -135.5v153zM979 485q0 151 -87.5 243.5t-225.5 92.5t-228 -96q-86 -95 -86 -240
q0 -144 88 -239.5t226 -95.5t225.5 92t87.5 243z" />
    <glyph glyph-name="aacute" unicode="&#xe1;" horiz-adv-x="1396" 
d="M1047 1507l-244 -331h-264l192 331h316zM979 1036h281v-1102h-281v156q-55 -90 -148 -137t-210 -47q-229 0 -383 167t-154 412q-1 119 40 227t112.5 186.5t172 123.5t212.5 43q117 0 210 -46.5t148 -135.5v153zM979 485q0 151 -87.5 243.5t-225.5 92.5t-228 -96
q-86 -95 -86 -240q0 -144 88 -239.5t226 -95.5t225.5 92t87.5 243z" />
    <glyph glyph-name="acircumflex" unicode="&#xe2;" horiz-adv-x="1396" 
d="M690 1378l-135 -202h-246l234 352h297l231 -352h-244zM979 1036h281v-1102h-281v156q-55 -90 -148 -137t-210 -47q-229 0 -383 167t-154 412q-1 119 40 227t112.5 186.5t172 123.5t212.5 43q117 0 210 -46.5t148 -135.5v153zM979 485q0 151 -87.5 243.5t-225.5 92.5
t-228 -96q-86 -95 -86 -240q0 -144 88 -239.5t226 -95.5t225.5 92t87.5 243z" />
    <glyph glyph-name="atilde" unicode="&#xe3;" horiz-adv-x="1396" 
d="M514 1184h-201q0 151 57.5 236t164.5 85q38 0 75.5 -15t106.5 -52q71 -41 94 -41q55 0 55 104h203q0 -150 -58 -235.5t-165 -85.5q-38 0 -75.5 15t-106.5 52q-71 41 -93 41q-57 0 -57 -104zM979 1036h281v-1102h-281v156q-55 -90 -148 -137t-210 -47q-229 0 -383 167
t-154 412q-1 119 40 227t112.5 186.5t172 123.5t212.5 43q117 0 210 -46.5t148 -135.5v153zM979 485q0 151 -87.5 243.5t-225.5 92.5t-228 -96q-86 -95 -86 -240q0 -144 88 -239.5t226 -95.5t225.5 92t87.5 243z" />
    <glyph glyph-name="adieresis" unicode="&#xe4;" horiz-adv-x="1396" 
d="M338 1323q0 64 41 107t104 43t105.5 -43.5t42.5 -106.5q0 -62 -43.5 -105.5t-104.5 -43.5t-103 43.5t-42 105.5zM752 1323q0 64 41 107t104 43t105 -43.5t42 -106.5q0 -62 -43 -105.5t-104 -43.5t-103 43.5t-42 105.5zM979 1036h281v-1102h-281v156q-55 -90 -148 -137
t-210 -47q-229 0 -383 167t-154 412q-1 119 40 227t112.5 186.5t172 123.5t212.5 43q117 0 210 -46.5t148 -135.5v153zM979 485q0 151 -87.5 243.5t-225.5 92.5t-228 -96q-86 -95 -86 -240q0 -144 88 -239.5t226 -95.5t225.5 92t87.5 243z" />
    <glyph glyph-name="aring" unicode="&#xe5;" horiz-adv-x="1396" 
d="M412 1407q0 110 80 184t198 74q119 0 199 -74t80 -184t-80 -184t-199 -74q-118 0 -198 74t-80 184zM580 1407q0 -48 30.5 -78.5t79.5 -30.5t80 30.5t31 78.5t-31 78.5t-80 30.5t-79.5 -30.5t-30.5 -78.5zM979 1036h281v-1102h-281v156q-55 -90 -148 -137t-210 -47
q-229 0 -383 167t-154 412q-1 119 40 227t112.5 186.5t172 123.5t212.5 43q117 0 210 -46.5t148 -135.5v153zM979 485q0 151 -87.5 243.5t-225.5 92.5t-228 -96q-86 -95 -86 -240q0 -144 88 -239.5t226 -95.5t225.5 92t87.5 243z" />
    <glyph glyph-name="cid757" unicode="&#xe6;" horiz-adv-x="2283" 
d="M2193 389h-888q26 -117 118.5 -182.5t227.5 -65.5q96 0 176.5 39t124.5 103l215 -136q-73 -110 -208 -175.5t-294 -65.5q-296 0 -428 184v-156h-258v156q-55 -90 -148 -137t-210 -47q-229 0 -383 167t-154 412q-1 119 40 227t112.5 186.5t172 123.5t212.5 43
q117 0 210 -46.5t148 -135.5v153h258v-153q126 182 393 182q247 0 408.5 -155t161.5 -398q0 -62 -7 -123zM1305 586h624q-11 114 -94 182t-217 68q-118 0 -202.5 -66.5t-110.5 -183.5zM979 485q0 151 -87.5 243.5t-225.5 92.5t-228 -96q-86 -95 -86 -240q0 -144 88 -239.5
t226 -95.5t225.5 92t87.5 243z" />
    <glyph glyph-name="ccedilla" unicode="&#xe7;" horiz-adv-x="1222" 
d="M934 291l227 -131q-57 -88 -146.5 -150t-197.5 -88l-139 -360h-309l151 360q-196 46 -317 201q-119 152 -119 362q-3 160 74.5 294.5t213.5 211t298 74.5q157 0 286.5 -67.5t204.5 -186.5l-227 -129q-44 64 -112.5 100.5t-151.5 36.5q-139 0 -228.5 -95.5t-89.5 -238.5
t88 -237t230 -94q86 0 154.5 35.5t109.5 101.5z" />
    <glyph glyph-name="egrave" unicode="&#xe8;" horiz-adv-x="1306" 
d="M807 1176h-266l-244 331h315zM1219 389h-863q26 -117 114.5 -180.5t217.5 -63.5q91 0 168.5 37.5t118.5 100.5l215 -136q-73 -110 -208 -175.5t-294 -65.5q-174 0 -312.5 75.5t-215 208t-76.5 295.5q0 122 43.5 229.5t118.5 184.5t181 121.5t226 44.5q247 0 408.5 -155
t161.5 -398q0 -29 -4 -123zM356 586h598q-11 111 -91.5 178t-207.5 67q-112 0 -193.5 -65t-105.5 -180z" />
    <glyph glyph-name="eacute" unicode="&#xe9;" horiz-adv-x="1306" 
d="M1010 1507l-244 -331h-264l192 331h316zM1219 389h-863q26 -117 114.5 -180.5t217.5 -63.5q91 0 168.5 37.5t118.5 100.5l215 -136q-73 -110 -208 -175.5t-294 -65.5q-174 0 -312.5 75.5t-215 208t-76.5 295.5q0 122 43.5 229.5t118.5 184.5t181 121.5t226 44.5
q247 0 408.5 -155t161.5 -398q0 -29 -4 -123zM356 586h598q-11 111 -91.5 178t-207.5 67q-112 0 -193.5 -65t-105.5 -180z" />
    <glyph glyph-name="ecircumflex" unicode="&#xea;" horiz-adv-x="1306" 
d="M653 1378l-135 -202h-246l234 352h297l231 -352h-243zM1219 389h-863q26 -117 114.5 -180.5t217.5 -63.5q91 0 168.5 37.5t118.5 100.5l215 -136q-73 -110 -208 -175.5t-294 -65.5q-174 0 -312.5 75.5t-215 208t-76.5 295.5q0 122 43.5 229.5t118.5 184.5t181 121.5
t226 44.5q247 0 408.5 -155t161.5 -398q0 -29 -4 -123zM356 586h598q-11 111 -91.5 178t-207.5 67q-112 0 -193.5 -65t-105.5 -180z" />
    <glyph glyph-name="edieresis" unicode="&#xeb;" horiz-adv-x="1306" 
d="M301 1323q0 64 41 107t104 43t105.5 -43.5t42.5 -106.5q0 -62 -43.5 -105.5t-104.5 -43.5t-103 43.5t-42 105.5zM715 1323q0 64 41 107t104 43t105.5 -43.5t42.5 -106.5q0 -62 -43.5 -105.5t-104.5 -43.5t-103 43.5t-42 105.5zM1219 389h-863q26 -117 114.5 -180.5
t217.5 -63.5q91 0 168.5 37.5t118.5 100.5l215 -136q-73 -110 -208 -175.5t-294 -65.5q-174 0 -312.5 75.5t-215 208t-76.5 295.5q0 122 43.5 229.5t118.5 184.5t181 121.5t226 44.5q247 0 408.5 -155t161.5 -398q0 -29 -4 -123zM356 586h598q-11 111 -91.5 178t-207.5 67
q-112 0 -193.5 -65t-105.5 -180z" />
    <glyph glyph-name="igrave" unicode="&#xec;" horiz-adv-x="557" 
d="M285 1507l133 -331h-262l-187 331h316zM418 1036v-1102h-279v1102h279z" />
    <glyph glyph-name="iacute" unicode="&#xed;" horiz-adv-x="557" 
d="M586 1507l-185 -331h-262l133 331h314zM418 1036v-1102h-279v1102h279z" />
    <glyph glyph-name="icircumflex" unicode="&#xee;" horiz-adv-x="557" 
d="M428 1528l231 -352h-243l-137 202l-136 -202h-245l233 352h297zM418 1036v-1102h-279v1102h279z" />
    <glyph glyph-name="idieresis" unicode="&#xef;" horiz-adv-x="557" 
d="M-76 1323q0 63 42.5 106.5t105.5 43.5t105 -43.5t42 -106.5q0 -62 -43 -105.5t-104 -43.5t-104.5 43.5t-43.5 105.5zM340 1323q0 64 41 107t104 43t105.5 -43.5t42.5 -106.5q0 -62 -43.5 -105.5t-104.5 -43.5t-103 43.5t-42 105.5zM418 1036v-1102h-279v1102h279z" />
    <glyph glyph-name="cid759" unicode="&#xf0;" horiz-adv-x="1331" 
d="M1245 438q0 -229 -164.5 -380.5t-414.5 -151.5t-415 151.5t-165 380.5q0 141 71.5 258t192.5 182.5t264 65.5q70 0 107 -18l-129 178l-270 -96l-68 155l235 84l-143 199h320l77 -109l271 97l67 -156l-237 -84l250 -352q82 -117 116.5 -209.5t34.5 -194.5zM977 438
q0 126 -86.5 207.5t-224.5 81.5q-136 0 -224 -82t-88 -207t88 -208t224 -83q139 0 225 81.5t86 209.5z" />
    <glyph glyph-name="ntilde" unicode="&#xf1;" horiz-adv-x="1355" 
d="M545 1184h-201q0 151 57 236t164 85q38 0 76 -15t107 -52q71 -41 94 -41q55 0 55 104h203q0 -150 -58 -235.5t-165 -85.5q-38 0 -76 15t-107 52q-71 41 -92 41q-57 0 -57 -104zM1227 557v-623h-281v603q0 141 -63 212.5t-185 71.5t-201 -86.5t-79 -224.5v-576h-279v1102
h279v-157q48 86 139.5 136t206.5 50q216 0 339.5 -134t123.5 -374z" />
    <glyph glyph-name="ograve" unicode="&#xf2;" horiz-adv-x="1339" 
d="M629 1507l194 -331h-266l-244 331h316zM84 485q-3 160 74.5 294.5t213.5 211t298 74.5q166 0 300.5 -76t209.5 -208.5t75 -295.5q0 -122 -44 -229.5t-121 -184t-186 -121t-234 -44.5q-162 -2 -298 74.5t-213.5 210.5t-74.5 294zM989 485q0 143 -89 238.5t-230 95.5
q-139 0 -228.5 -95.5t-89.5 -238.5t88 -237t230 -94q141 0 229 94q90 96 90 237z" />
    <glyph glyph-name="oacute" unicode="&#xf3;" horiz-adv-x="1339" 
d="M1026 1507l-244 -331h-264l193 331h315zM84 485q-3 160 74.5 294.5t213.5 211t298 74.5q166 0 300.5 -76t209.5 -208.5t75 -295.5q0 -122 -44 -229.5t-121 -184t-186 -121t-234 -44.5q-162 -2 -298 74.5t-213.5 210.5t-74.5 294zM989 485q0 143 -89 238.5t-230 95.5
q-139 0 -228.5 -95.5t-89.5 -238.5t88 -237t230 -94q141 0 229 94q90 96 90 237z" />
    <glyph glyph-name="ocircumflex" unicode="&#xf4;" horiz-adv-x="1339" 
d="M819 1528l232 -352h-244l-137 202l-135 -202h-246l233 352h297zM84 485q-3 160 74.5 294.5t213.5 211t298 74.5q166 0 300.5 -76t209.5 -208.5t75 -295.5q0 -122 -44 -229.5t-121 -184t-186 -121t-234 -44.5q-162 -2 -298 74.5t-213.5 210.5t-74.5 294zM989 485
q0 143 -89 238.5t-230 95.5q-139 0 -228.5 -95.5t-89.5 -238.5t88 -237t230 -94q141 0 229 94q90 96 90 237z" />
    <glyph glyph-name="otilde" unicode="&#xf5;" horiz-adv-x="1339" 
d="M643 1247q-71 41 -92 41q-57 0 -57 -104h-201q0 151 57 236t164 85q38 0 75.5 -15t106.5 -52q71 -41 95 -41q55 0 55 104h203q0 -150 -58.5 -235.5t-165.5 -85.5q-38 0 -75.5 15t-106.5 52zM84 485q-3 160 74.5 294.5t213.5 211t298 74.5q166 0 300.5 -76t209.5 -208.5
t75 -295.5q0 -122 -44 -229.5t-121 -184t-186 -121t-234 -44.5q-162 -2 -298 74.5t-213.5 210.5t-74.5 294zM989 485q0 143 -89 238.5t-230 95.5q-139 0 -228.5 -95.5t-89.5 -238.5t88 -237t230 -94q141 0 229 94q90 96 90 237z" />
    <glyph glyph-name="odieresis" unicode="&#xf6;" horiz-adv-x="1339" 
d="M317 1323q0 63 41.5 106.5t104.5 43.5t105 -43.5t42 -106.5q0 -62 -43 -105.5t-104 -43.5t-103.5 43.5t-42.5 105.5zM731 1323q0 63 41.5 106.5t104.5 43.5t105 -43.5t42 -106.5q0 -62 -43 -105.5t-104 -43.5t-103.5 43.5t-42.5 105.5zM84 485q-3 160 74.5 294.5
t213.5 211t298 74.5q166 0 300.5 -76t209.5 -208.5t75 -295.5q0 -122 -44 -229.5t-121 -184t-186 -121t-234 -44.5q-162 -2 -298 74.5t-213.5 210.5t-74.5 294zM989 485q0 143 -89 238.5t-230 95.5q-139 0 -228.5 -95.5t-89.5 -238.5t88 -237t230 -94q141 0 229 94
q90 96 90 237z" />
    <glyph glyph-name="cid132" unicode="&#xf7;" 
d="M481 1128q0 75 52.5 127t130.5 52q79 0 131.5 -51.5t52.5 -127.5q0 -75 -52.5 -125.5t-131.5 -50.5q-78 0 -130.5 50.5t-52.5 125.5zM1198 811v-240h-1069v240h1069zM481 252q0 75 52.5 126.5t130.5 51.5q79 0 131.5 -51.5t52.5 -126.5t-52.5 -125.5t-131.5 -50.5
q-78 0 -130.5 50.5t-52.5 125.5z" />
    <glyph glyph-name="cid766" unicode="&#xf8;" horiz-adv-x="1339" 
d="M670 1065q202 0 348 -107l104 107l117 -115l-102 -104q118 -152 118 -361q0 -122 -44 -229.5t-121 -184t-186 -121t-234 -44.5q-201 0 -348 106l-103 -106l-119 117l103 104q-119 149 -119 358q-3 160 74.5 294.5t213.5 211t298 74.5zM391 311l453 463q-77 47 -174 47
q-141 0 -231.5 -96t-90.5 -240q0 -98 43 -174zM670 150q141 0 231 95.5t90 239.5q0 101 -43 174l-452 -460q76 -49 174 -49z" />
    <glyph glyph-name="ugrave" unicode="&#xf9;" horiz-adv-x="1355" 
d="M827 1176h-266l-244 331h316zM938 1036h281v-1102h-281v158q-45 -86 -136.5 -136t-207.5 -50q-216 0 -339.5 135t-123.5 375v620h279v-602q0 -141 62.5 -212.5t184.5 -71.5q124 0 202.5 86.5t78.5 226.5v573z" />
    <glyph glyph-name="uacute" unicode="&#xfa;" horiz-adv-x="1355" 
d="M1030 1507l-244 -331h-264l193 331h315zM938 1036h281v-1102h-281v158q-45 -86 -136.5 -136t-207.5 -50q-216 0 -339.5 135t-123.5 375v620h279v-602q0 -141 62.5 -212.5t184.5 -71.5q124 0 202.5 86.5t78.5 226.5v573z" />
    <glyph glyph-name="ucircumflex" unicode="&#xfb;" horiz-adv-x="1355" 
d="M674 1378l-135 -202h-246l233 352h297l232 -352h-244zM938 1036h281v-1102h-281v158q-45 -86 -136.5 -136t-207.5 -50q-216 0 -339.5 135t-123.5 375v620h279v-602q0 -141 62.5 -212.5t184.5 -71.5q124 0 202.5 86.5t78.5 226.5v573z" />
    <glyph glyph-name="udieresis" unicode="&#xfc;" horiz-adv-x="1355" 
d="M322 1323q0 64 41 107t104 43t105 -43.5t42 -106.5q0 -62 -43 -105.5t-104 -43.5t-103 43.5t-42 105.5zM735 1323q0 63 41.5 106.5t104.5 43.5t105 -43.5t42 -106.5q0 -62 -43 -105.5t-104 -43.5t-103.5 43.5t-42.5 105.5zM938 1036h281v-1102h-281v158
q-45 -86 -136.5 -136t-207.5 -50q-216 0 -339.5 135t-123.5 375v620h279v-602q0 -141 62.5 -212.5t184.5 -71.5q124 0 202.5 86.5t78.5 226.5v573z" />
    <glyph glyph-name="yacute" unicode="&#xfd;" horiz-adv-x="1286" 
d="M999 1507l-243 -331h-267l195 331h315zM965 1036h295l-478 -1122q-109 -251 -227 -344q-119 -98 -270 -98q-137 0 -250 55l63 225q84 -35 166 -35q87 0 145 45t101 152l8 20l-491 1102h301l325 -768z" />
    <glyph glyph-name="cid769" unicode="&#xfe;" horiz-adv-x="1396" 
d="M1313 485q3 -159 -67 -292.5t-194.5 -211t-275.5 -75.5q-118 0 -210.5 48t-147.5 138v-594h-279v1975h279v-592q55 90 148 137t210 47q150 3 275 -74.5t195 -212t67 -293.5zM1047 485q0 145 -89 240q-90 96 -227 96q-138 0 -224.5 -92.5t-86.5 -243.5t86.5 -243
t224.5 -92t227 95.5t89 239.5z" />
    <glyph glyph-name="ydieresis" unicode="&#xff;" horiz-adv-x="1286" 
d="M289 1323q0 63 42 106.5t105 43.5t104.5 -43.5t41.5 -106.5q0 -62 -42.5 -105.5t-103.5 -43.5t-104 43.5t-43 105.5zM702 1323q0 63 42.5 106.5t105.5 43.5t104 -43t41 -107q0 -62 -42 -105.5t-103 -43.5t-104.5 43.5t-43.5 105.5zM965 1036h295l-478 -1122
q-109 -251 -227 -344q-119 -98 -270 -98q-137 0 -250 55l63 225q84 -35 166 -35q87 0 145 45t101 152l8 20l-491 1102h301l325 -768z" />
    <glyph glyph-name="dotlessi" unicode="&#x131;" horiz-adv-x="557" 
d="M418 1036v-1102h-279v1102h279z" />
    <glyph glyph-name="cid674" unicode="&#x152;" horiz-adv-x="2246" 
d="M1366 195h793v-261h-1082q-109 -28 -217 -28q-214 -4 -392 100t-278.5 285.5t-97.5 398.5q-3 219 97.5 400.5t278.5 285t392 99.5q104 0 217 -29h1061v-258h-772v-369h688v-256h-688v-368zM1077 229v924q-96 51 -217 51q-210 0 -344.5 -147t-134.5 -367t134.5 -367
t344.5 -147q122 0 217 53z" />
    <glyph glyph-name="cid767" unicode="&#x153;" horiz-adv-x="2217" 
d="M2128 389h-862q26 -117 115 -180.5t218 -63.5q88 0 166 37.5t121 100.5l215 -136q-73 -110 -208 -175.5t-294 -65.5q-146 0 -268 53.5t-205 151.5q-80 -98 -198 -151.5t-258 -53.5q-162 -2 -298 74.5t-213.5 210.5t-74.5 294q-3 160 74.5 294.5t213.5 211t298 74.5
q138 0 254.5 -53t197.5 -148q79 95 194.5 148t248.5 53q247 0 408 -155t161 -398q0 -70 -6 -123zM1266 586h598q-8 109 -90.5 177t-206.5 68q-112 0 -193.5 -65t-107.5 -180zM989 485q0 143 -89 238.5t-230 95.5q-139 0 -228.5 -95.5t-89.5 -238.5t88 -237t230 -94
q141 0 229 94q90 96 90 237z" />
    <glyph glyph-name="cid204" unicode="&#x2da;" horiz-adv-x="679" 
d="M61 1407q0 110 80 184t199 74t199 -74q79 -73 79 -184t-79 -184q-80 -74 -199 -74t-199 74t-80 184zM451 1407q0 48 -31 78.5t-80 30.5t-80 -30.5t-31 -78.5t31 -78.5t80 -30.5t80 30.5t31 78.5z" />
    <glyph glyph-name="cid200" unicode="&#x2dc;" horiz-adv-x="878" 
d="M414 1247q-71 41 -95 41q-55 0 -55 -104h-203q0 150 58.5 235.5t165.5 85.5q38 0 75.5 -15t106.5 -52q71 -41 92 -41q57 0 57 104h201q0 -150 -57 -235.5t-164 -85.5q-38 0 -75.5 15t-106.5 52z" />
    <glyph glyph-name="cid110" unicode="&#x2014;" horiz-adv-x="1843" 
d="M1714 817v-252h-1585v252h1585z" />
    <glyph glyph-name="cid110" unicode="&#x2015;" horiz-adv-x="1843" 
d="M1714 817v-252h-1585v252h1585z" />
    <glyph glyph-name="uni2016" unicode="&#x2016;" horiz-adv-x="1015" 
d="M401 1446v-1694h-251v1694h251zM866 1446v-1694h-252v1694h252z" />
    <glyph glyph-name="cid114" unicode="&#x2018;" horiz-adv-x="544" 
d="M461 1608l-78 -518h-299l147 518h230z" />
    <glyph glyph-name="cid115" unicode="&#x2019;" horiz-adv-x="544" 
d="M463 1608l-148 -518h-231l78 518h301z" />
    <glyph glyph-name="cid18379" unicode="&#x201a;" horiz-adv-x="544" 
d="M463 233l-148 -518h-231l78 518h301z" />
    <glyph glyph-name="cid116" unicode="&#x201c;" horiz-adv-x="933" 
d="M459 1608l-78 -518h-297l147 518h228zM850 1608l-78 -518h-297l148 518h227z" />
    <glyph glyph-name="cid117" unicode="&#x201d;" horiz-adv-x="933" 
d="M459 1608l-148 -518h-227l78 518h297zM852 1608l-147 -518h-228l78 518h297z" />
    <glyph glyph-name="cid18380" unicode="&#x201e;" horiz-adv-x="933" 
d="M459 233l-148 -518h-227l78 518h297zM852 233l-147 -518h-228l78 518h297z" />
    <glyph glyph-name="cid245" unicode="&#x2020;" horiz-adv-x="1081" 
d="M1024 1102v-219h-367v-1131h-235v1131h-365v219h365v444h235v-444h367z" />
    <glyph glyph-name="cid246" unicode="&#x2021;" horiz-adv-x="1081" 
d="M1024 883h-367v-467h367v-217h-367v-447h-235v447h-365v217h365v467h-365v219h365v444h235v-444h367v-219z" />
    <glyph glyph-name="cid8607" unicode="&#x2022;" horiz-adv-x="940" 
d="M170 690q0 125 85.5 208t215.5 83q129 0 213 -84q86 -83 86 -207t-86 -207q-82 -82 -213 -82q-130 0 -215 82q-86 83 -86 207z" />
    <glyph glyph-name="cid105" unicode="&#x2025;" horiz-adv-x="1091" 
d="M90 690q0 75 52 126.5t130 51.5q79 0 132 -51.5t53 -126.5t-53 -125.5t-132 -50.5q-78 0 -130 50.5t-52 125.5zM635 690q0 75 52.5 126.5t131.5 51.5q78 0 130 -51.5t52 -126.5t-52 -125.5t-130 -50.5q-79 0 -131.5 50.5t-52.5 125.5z" />
    <glyph glyph-name="cid106" unicode="&#x2026;" horiz-adv-x="1636" 
d="M90 690q0 75 52 126.5t130 51.5q79 0 132 -51.5t53 -126.5t-53 -125.5t-132 -50.5q-78 0 -130 50.5t-52 125.5zM635 690q0 75 52.5 126.5t131.5 51.5q78 0 130 -51.5t52 -126.5t-52 -125.5t-130 -50.5q-79 0 -131.5 50.5t-52.5 125.5zM1182 690q0 75 52 126.5t130 51.5
q79 0 131.5 -51.5t52.5 -126.5t-52.5 -125.5t-131.5 -50.5q-78 0 -130 50.5t-52 125.5z" />
    <glyph glyph-name="cid216" unicode="&#x2030;" horiz-adv-x="2836" 
d="M72 1075q0 170 113 285t280 115t280 -115t113 -285q0 -168 -113 -282.5t-280 -114.5t-280 114.5t-113 282.5zM1593 1446l-1013 -1512h-232l1014 1512h231zM655 1075q0 89 -53 147t-137 58t-136.5 -58t-52.5 -147t52.5 -146t136.5 -57t137 58t53 145zM1083 305
q0 170 113.5 285t280.5 115t280 -115t113 -285q0 -169 -113 -284t-280 -115t-280.5 115t-113.5 284zM1978 305q0 170 113.5 285t280.5 115t280 -115t113 -285q0 -169 -113 -284t-280 -115t-280.5 115t-113.5 284zM1667 305q0 89 -53 147t-137 58t-136.5 -58t-52.5 -147
t52.5 -146t136.5 -57t137 58t53 145zM2560 305q0 89 -52 147t-136 58t-137.5 -58t-53.5 -147q0 -87 53.5 -145t137.5 -58t136 57t52 146z" />
    <glyph glyph-name="cid139" unicode="&#x2032;" horiz-adv-x="544" 
d="M463 1608l-148 -518h-231l78 518h301z" />
    <glyph glyph-name="cid140" unicode="&#x2033;" horiz-adv-x="933" 
d="M459 1608l-148 -518h-227l78 518h297zM852 1608l-147 -518h-228l78 518h297z" />
    <glyph glyph-name="cid8612" unicode="&#x2039;" horiz-adv-x="905" 
d="M473 911h303l-362 -426l362 -424h-303l-364 424z" />
    <glyph glyph-name="cid8613" unicode="&#x203a;" horiz-adv-x="905" 
d="M129 911h305l363 -426l-363 -424h-305l365 424z" />
    <glyph glyph-name="uni203B" unicode="&#x203b;" horiz-adv-x="1843" 
d="M762 1268q0 67 46 112t114 45q69 0 114 -44.5t45 -112.5t-45 -114t-114 -46q-68 0 -114 46t-46 114zM846 692l-598 600l76 74l598 -598l598 598l75 -74l-598 -600l598 -598l-73 -76l-600 598l-598 -598l-76 76zM182 690q0 66 46.5 112t115.5 46t115.5 -45.5t46.5 -112.5
q0 -66 -46.5 -110.5t-115.5 -44.5t-115.5 44.5t-46.5 110.5zM1337 690q0 67 46.5 112.5t115.5 45.5t115.5 -46t46.5 -112t-46.5 -110.5t-115.5 -44.5t-115.5 44.5t-46.5 110.5zM762 115q0 67 46 113t114 46q69 0 114 -45.5t45 -113.5t-45 -114t-114 -46q-68 0 -114 46.5
t-46 113.5z" />
    <glyph glyph-name="uni203E" unicode="&#x203e;" horiz-adv-x="1843" 
d="M1843 1638v-221h-1843v221h1843z" />
    <glyph glyph-name="uni2074" unicode="&#x2074;" horiz-adv-x="796" 
d="M31 967v159l420 510h208v-499h117v-170h-117v-162h-196v162h-432zM463 1403l-223 -266h223v266z" />
    <glyph glyph-name="Euro" unicode="&#x20ac;" horiz-adv-x="1726" 
d="M1393 389l241 -137q-100 -161 -268.5 -253.5t-378.5 -92.5q-262 0 -459.5 145.5t-271.5 384.5h-180v189h145q-2 14 -2 65q0 54 2 68h-145v188h180q74 239 272 384t459 145q207 0 376.5 -93t270.5 -252l-241 -137q-67 104 -170.5 160.5t-235.5 56.5q-145 0 -257 -70
t-173 -194h606v-188h-657q-4 -62 -4 -68q0 -11 4 -65h657v-189h-606q61 -125 173.5 -195.5t256.5 -70.5q131 0 235 57t171 162z" />
    <glyph glyph-name="cid260" unicode="&#x2122;" horiz-adv-x="1466" 
d="M55 1278v168h531v-168h-174v-467h-181v467h-176zM827 1446l181 -322l180 322h160v-635h-162v344l-127 -229h-103l-131 233v-348h-159v635h161z" />
    <glyph glyph-name="uni2153" horiz-adv-x="2023" 
d="M338 823v428l-199 -57l-61 170l293 94h178v-635h209v-182h-676v182h256zM1653 1446l-1014 -1512h-231l1013 1512h232zM1260 78l186 90q50 -86 166 -86q63 0 100 26t37 70q0 47 -36 68.5t-118 21.5h-71l-78 133l211 160h-352v180h616v-172l-235 -176h32q106 0 174 -60
t68 -157q0 -118 -98 -194t-252 -76q-121 0 -214 46t-136 126z" />
    <glyph glyph-name="uni2154" horiz-adv-x="2000" 
d="M483 1212q0 37 -30.5 60.5t-81.5 23.5q-92 0 -144 -82l-178 91q42 77 129.5 123.5t200.5 46.5q135 0 225 -72t90 -180q0 -71 -37.5 -130t-128.5 -135l-161 -137h366v-180h-655v168l289 248q66 55 91 89t25 66zM1630 1446l-1014 -1512h-231l1014 1512h231zM1237 78l186 90
q50 -86 166 -86q63 0 100 26t37 70q0 47 -36 68.5t-117 21.5h-72l-78 133l211 160h-352v180h616v-172l-235 -176h33q105 0 173 -60t68 -157q0 -118 -98 -194t-252 -76q-121 0 -214 46t-136 126z" />
    <glyph glyph-name="cid753" horiz-adv-x="1968" 
d="M338 823v428l-199 -57l-61 170l293 94h178v-635h209v-182h-676v182h256zM1653 1446l-1014 -1512h-231l1013 1512h232zM1217 152q0 66 43.5 119t113.5 77q-125 58 -125 178q0 104 89 168t231 64t230.5 -64t88.5 -168q0 -120 -125 -178q70 -24 114 -77t44 -119
q0 -108 -99 -177t-253 -69t-253 69t-99 177zM1700 512q0 41 -35 65.5t-96 24.5t-96 -24.5t-35 -65.5t35 -64.5t96 -23.5t96 23.5t35 64.5zM1726 162q0 44 -44 72t-113 28q-72 0 -115 -27.5t-43 -72.5q0 -44 43 -71.5t115 -27.5t114.5 27t42.5 72z" />
    <glyph glyph-name="cid754" horiz-adv-x="1863" 
d="M33 795l186 90q50 -86 166 -86q63 0 100 26t37 70q0 47 -36 68.5t-117 21.5h-72l-78 133l211 160h-352v180h616v-172l-235 -176h35q105 0 172 -60t67 -157q0 -117 -97.5 -192.5t-250.5 -75.5q-121 0 -215 46t-137 124zM1550 1446l-1013 -1512h-232l1014 1512h231z
M1114 152q0 66 44 119t114 77q-58 25 -91.5 71.5t-33.5 106.5q0 104 88.5 168t228.5 64q142 0 231 -64t89 -168q0 -60 -33.5 -106.5t-91.5 -71.5q70 -24 114 -77t44 -119q0 -108 -99.5 -177t-253.5 -69q-152 0 -252 69q-98 67 -98 177zM1595 512q0 41 -35 65.5t-96 24.5
q-60 0 -94.5 -24.5t-34.5 -65.5t34.5 -64.5t94.5 -23.5q61 0 96 23.5t35 64.5zM1624 162q0 44 -44 72t-116 28q-69 0 -113 -28t-44 -72q0 -45 42.5 -72t114.5 -27t116 27.5t44 71.5z" />
    <glyph glyph-name="cid755" horiz-adv-x="1863" 
d="M33 795l186 90q50 -86 166 -86q63 0 100 27.5t37 74.5q0 51 -40 73.5t-132 22.5h-252l25 461h575v-180h-387l-8 -117h86q163 0 253.5 -70t90.5 -192q0 -121 -97 -197.5t-251 -76.5q-121 0 -215 46t-137 124zM1550 1446l-1013 -1512h-232l1014 1512h231zM1114 152
q0 66 44 119t114 77q-58 25 -91.5 71.5t-33.5 106.5q0 104 88.5 168t228.5 64q142 0 231 -64t89 -168q0 -60 -33.5 -106.5t-91.5 -71.5q70 -24 114 -77t44 -119q0 -108 -99.5 -177t-253.5 -69q-152 0 -252 69q-98 67 -98 177zM1595 512q0 41 -35 65.5t-96 24.5
q-60 0 -94.5 -24.5t-34.5 -65.5t34.5 -64.5t94.5 -23.5q61 0 96 23.5t35 64.5zM1624 162q0 44 -44 72t-116 28q-69 0 -113 -28t-44 -72q0 -45 42.5 -72t114.5 -27t116 27.5t44 71.5z" />
    <glyph glyph-name="cid756" horiz-adv-x="1738" 
d="M55 1270v188h660v-180l-334 -637h-234l332 629h-424zM1423 1446l-1013 -1512h-232l1014 1512h231zM987 152q0 66 44 119t114 77q-125 58 -125 178q0 104 88.5 168t230.5 64t231 -64t89 -168q0 -120 -125 -178q70 -24 114 -77t44 -119q0 -108 -99.5 -177t-253.5 -69
t-253 69t-99 177zM1470 512q0 41 -35 65.5t-96 24.5t-96 -24.5t-35 -65.5t35 -64.5t96 -23.5t96 23.5t35 64.5zM1497 162q0 44 -44.5 72t-113.5 28q-71 0 -114 -27.5t-43 -72.5t42.5 -72t114.5 -27t115 27.5t43 71.5z" />
    <glyph glyph-name="arrowup" unicode="&#x2191;" horiz-adv-x="1740" 
d="M731 1063q-53 -53 -104 -100l-361 -310l-170 207l774 639l775 -639l-168 -207l-361 310q-82 76 -104 100q2 -29 2 -215v-967h-287v967q0 101 4 215z" />
    <glyph glyph-name="arrowdown" unicode="&#x2193;" horiz-adv-x="1740" 
d="M266 727l361 -309q64 -55 104 -101q-4 114 -4 215v967h287v-967q0 -186 -2 -215q34 43 104 101l361 309l168 -207l-775 -639l-774 639z" />
    <glyph glyph-name="cid14.locl" horiz-adv-x="1019" 
d="M891 612v-252h-762v252h762z" />
    <glyph glyph-name="uni00AD.locl" 
d="M1198 612v-252h-1069v252h1069z" />
    <glyph glyph-name="cid110.locl" horiz-adv-x="1843" 
d="M1714 612v-252h-1585v252h1585z" />
    <glyph glyph-name="cid27.locl" horiz-adv-x="544" 
d="M90 887q0 75 52 126.5t130 51.5q79 0 132 -51.5t53 -126.5t-53 -125.5t-132 -50.5q-78 0 -130 50.5t-52 125.5zM90 84q0 75 52 126.5t130 51.5q79 0 132 -51.5t53 -126.5t-53 -126.5t-132 -51.5q-78 0 -130 51.5t-52 126.5z" />
    <glyph glyph-name="cid28.locl" horiz-adv-x="544" 
d="M90 887q0 75 52 126.5t130 51.5q79 0 132 -51.5t53 -126.5t-53 -125.5t-132 -50.5q-78 0 -130 50.5t-52 125.5zM463 233l-148 -518h-231l78 518h301z" />
    <glyph glyph-name="cid8607.locl" horiz-adv-x="940" 
d="M170 485q0 125 85.5 208t215.5 83q129 0 213 -84q86 -83 86 -207q0 -123 -86 -206q-82 -82 -213 -82q-130 0 -215 82q-86 83 -86 206z" />
    </font>
</defs>
</svg>
