<?xml version="1.0" standalone="no"?>
<!DOCTYPE svg PUBLIC "-//W3C//DTD SVG 1.1//EN" "http://www.w3.org/Graphics/SVG/1.1/DTD/svg11.dtd" >
<svg xmlns="http://www.w3.org/2000/svg" xmlns:xlink="http://www.w3.org/1999/xlink" version="1.1">
<metadata>
Created by FontForge 20170731 at Wed Oct  7 06:47:13 2020
 By Aleksey,,,
Copyright (c) 2019 by studioJASO. All rights reserved. |DCNT
</metadata>
<defs>
<font id="CarmenSans-SemiBold" horiz-adv-x="1325" >
  <font-face 
    font-family="Carmen Sans SemiBold"
    font-weight="600"
    font-stretch="normal"
    units-per-em="2048"
    panose-1="2 11 9 4 0 0 0 0 0 0"
    ascent="1583"
    descent="-465"
    x-height="1030"
    cap-height="1442"
    bbox="-188 -528 2755 2056"
    underline-thickness="102"
    underline-position="-634"
    unicode-range="U+0020-2193"
  />
<missing-glyph horiz-adv-x="1843" 
d="M1337 1421v-1581h-833v1581h833zM1280 1360h-717v-1458h717v1458z" />
    <glyph glyph-name="cid18375" unicode="ff" horiz-adv-x="1787" 
d="M1356 1130v-100h391v-215h-391v-876h-248v876h-578v-876h-247v876h-240v215h240v105q0 452 403 452q75 0 147.5 -18t116.5 -49l-57 -197q-80 47 -178 47q-185 0 -185 -240v-100h578v105q0 452 403 452q76 0 148.5 -18t116.5 -49l-58 -197q-80 47 -178 47
q-184 0 -184 -240z" />
    <glyph glyph-name="cid18376" unicode="ft" horiz-adv-x="1828" 
d="M1718 174l58 -197q-44 -31 -116.5 -49t-148.5 -18q-403 0 -403 452v453h-578v-876h-247v876h-240v215h240v105q0 452 403 452q75 0 147.5 -18t116.5 -49l-57 -197q-80 47 -178 47q-185 0 -185 -240v-100h578v295h248v-295h383v-215h-383v-448q0 -238 184 -238
q104 0 178 45z" />
    <glyph glyph-name="cid18377" unicode="fft" horiz-adv-x="2654" 
d="M2544 174l57 -197q-44 -31 -116.5 -49t-147.5 -18q-404 0 -404 452v453h-577v-876h-248v876h-578v-876h-247v876h-240v215h240v105q0 452 403 452q75 0 147.5 -18t116.5 -49l-57 -197q-80 47 -178 47q-185 0 -185 -240v-100h578v105q0 452 403 452q76 0 148.5 -18
t116.5 -49l-58 -197q-80 47 -178 47q-184 0 -184 -240v-100h577v295h248v-295h383v-215h-383v-448q0 -238 184 -238q105 0 179 45z" />
    <glyph glyph-name="cid18378" unicode="tt" horiz-adv-x="1828" 
d="M1718 174l58 -197q-44 -31 -116.5 -49t-148.5 -18q-403 0 -403 452v453h-578v-448q0 -238 185 -238q104 0 178 45l57 -197q-44 -31 -116.5 -49t-147.5 -18q-403 0 -403 452v453h-240v215h240v295h247v-295h578v295h248v-295h383v-215h-383v-448q0 -238 184 -238
q104 0 178 45z" />
    <glyph glyph-name=".notdef" horiz-adv-x="1843" 
d="M1337 1421v-1581h-833v1581h833zM1280 1360h-717v-1458h717v1458z" />
    <glyph glyph-name=".null" horiz-adv-x="0" 
 />
    <glyph glyph-name="nonmarkingreturn" horiz-adv-x="682" 
 />
    <glyph glyph-name="cid1" unicode=" " horiz-adv-x="491" 
 />
    <glyph glyph-name="cid1" unicode="&#xa0;" horiz-adv-x="491" 
 />
    <glyph glyph-name="cid2" unicode="!" horiz-adv-x="569" 
d="M424 1442l-27 -1053h-225l-27 1053h279zM119 74q0 68 47 113.5t119 45.5t119 -45.5t47 -113.5q0 -69 -47 -115.5t-119 -46.5t-119 46.5t-47 115.5z" />
    <glyph glyph-name="cid3" unicode="&#x22;" horiz-adv-x="811" 
d="M344 1442l-33 -484h-188l-31 484h252zM719 1442l-33 -484h-188l-31 484h252z" />
    <glyph glyph-name="cid4" unicode="#" horiz-adv-x="1394" 
d="M59 311v187h228l73 385h-210v186h247l74 373h213l-72 -373h318l74 373h213l-72 -373h192v-186h-229l-74 -385h213v-187h-250l-71 -372h-215l71 372h-317l-72 -372h-215l72 372h-191zM895 883h-320l-75 -385h321z" />
    <glyph glyph-name="cid5" unicode="$" horiz-adv-x="1310" 
d="M766 -45v-203h-209v203q-164 20 -289.5 99t-187.5 198l203 110q49 -89 149 -142.5t232 -53.5q135 0 223 54t88 140q0 79 -64 128.5t-211 86.5l-180 46q-389 102 -389 389q0 164 115.5 277t310.5 138v203h209v-205q146 -23 259 -95.5t169 -178.5l-199 -111
q-44 80 -136.5 129.5t-205.5 49.5q-122 0 -201 -54.5t-79 -140.5q0 -74 63 -121t211 -86l180 -47q390 -97 390 -397q0 -164 -125 -277q-120 -112 -326 -139z" />
    <glyph glyph-name="cid6" unicode="%" horiz-adv-x="1939" 
d="M76 1075q0 169 111 282t278 113t278 -113t111 -282t-111 -282t-278 -113t-278 113t-111 282zM1581 1442l-1010 -1503h-213l1012 1503h211zM668 1075q0 95 -56.5 157t-146.5 62t-147.5 -62t-57.5 -157q0 -93 57.5 -156t147.5 -63q87 0 145 63t58 156zM1087 305
q0 169 111.5 282t278.5 113t278 -113t111 -282t-111 -282t-278 -113t-278.5 113t-111.5 282zM1679 305q0 95 -56 157t-146 62t-147.5 -62t-57.5 -157q0 -93 57.5 -156t147.5 -63q87 0 144.5 63t57.5 156z" />
    <glyph glyph-name="cid7" unicode="&#x26;" horiz-adv-x="1587" 
d="M1577 -59h-309l-162 153q-217 -184 -467 -184q-246 0 -398.5 125.5t-152.5 331.5q0 133 81 233.5t228 165.5q-85 91 -119 161t-34 154q0 170 130.5 279.5t340.5 109.5q208 0 338.5 -107.5t130.5 -270.5q0 -107 -60.5 -190.5t-154.5 -127.5l-144 154q57 26 91 69t34 97
q0 78 -65 128t-170 50q-108 0 -173 -53t-65 -138q0 -60 53 -131q42 -57 205 -213l352 -334q85 113 201 312l201 -119q-123 -217 -236 -350zM944 246l-397 375q-221 -99 -221 -246q0 -111 89.5 -182.5t231.5 -71.5q158 0 297 125z" />
    <glyph glyph-name="cid8" unicode="'" horiz-adv-x="438" 
d="M346 1442l-33 -484h-190l-31 484h254z" />
    <glyph glyph-name="cid9" unicode="(" horiz-adv-x="788" 
d="M152 649q0 287 110 537q115 253 303 424l172 -154q-163 -154 -255.5 -366t-92.5 -441t92.5 -441t255.5 -366l-172 -153q-188 171 -303 424q-110 250 -110 536z" />
    <glyph glyph-name="cid10" unicode=")" horiz-adv-x="788" 
d="M399 649q0 229 -92.5 441t-255.5 366l172 154q190 -172 301 -424q113 -250 113 -537q0 -286 -113 -536q-111 -252 -301 -424l-172 153q163 154 255.5 366t92.5 441z" />
    <glyph glyph-name="cid11" unicode="*" horiz-adv-x="831" 
d="M299 1081l-248 58l58 176l237 -101l-22 254h184l-23 -254l238 101l59 -176l-250 -58l168 -196l-147 -109l-137 223l-137 -223l-148 109z" />
    <glyph glyph-name="cid12" unicode="+" 
d="M133 586v211h418v424h223v-424h420v-211h-420v-426h-223v426h-418z" />
    <glyph glyph-name="cid13" unicode="," horiz-adv-x="524" 
d="M432 211l-139 -498h-203l76 498h266z" />
    <glyph glyph-name="cid14" unicode="-" horiz-adv-x="1017" 
d="M887 801v-221h-754v221h754z" />
    <glyph glyph-name="cid15" unicode="." horiz-adv-x="524" 
d="M96 74q0 68 47 113.5t119 45.5t119 -45.5t47 -113.5q0 -69 -47 -115.5t-119 -46.5t-119 46.5t-47 115.5z" />
    <glyph glyph-name="cid16" unicode="/" horiz-adv-x="1097" 
d="M1053 1544l-791 -1790h-217l791 1790h217z" />
    <glyph glyph-name="cid17" unicode="0" 
d="M82 690q0 357 156 568.5t426 211.5q178 0 310 -96t201.5 -272.5t69.5 -411.5t-69.5 -411.5t-201.5 -272.5t-310 -96q-270 0 -426 211.5t-156 568.5zM999 690q0 263 -87.5 407t-247.5 144q-161 0 -249.5 -144t-88.5 -407q0 -262 88.5 -405.5t249.5 -143.5q159 0 247 144.5
t88 404.5z" />
    <glyph glyph-name="cid18" unicode="1" 
d="M612 162v1020l-403 -131l-72 217l516 174h207v-1280h393v-223h-1114v223h473z" />
    <glyph glyph-name="cid19" unicode="2" 
d="M887 1016q0 103 -74 164t-197 61q-100 0 -182 -52.5t-131 -141.5l-217 118q76 142 216.5 223.5t320.5 81.5q228 0 373 -124t145 -318q0 -126 -68 -235q-61 -102 -223 -258l-389 -373h751v-223h-1081v202l533 523q125 122 174 198t49 154z" />
    <glyph glyph-name="cid20" unicode="3" 
d="M66 215l213 117q48 -92 142 -144.5t220 -52.5q137 0 224 67t87 173q0 119 -87 180t-257 61h-119l-94 179l443 422h-699v225h1016v-215l-461 -430h29q215 0 350 -118.5t135 -301.5q0 -204 -160 -335.5t-409 -131.5q-194 0 -346.5 81.5t-226.5 223.5z" />
    <glyph glyph-name="cid21" unicode="4" 
d="M55 287v198l752 983h252v-968h225v-213h-225v-348h-238v348h-766zM821 1147l-497 -647h497v647z" />
    <glyph glyph-name="cid22" unicode="5" 
d="M66 215l213 119q48 -93 142.5 -146t219.5 -53q135 0 223 72t88 184q0 254 -368 254h-410l43 797h938v-225h-711l-20 -359h213q269 0 420 -123.5t151 -341.5q0 -210 -160.5 -346.5t-408.5 -136.5q-194 0 -346.5 81.5t-226.5 223.5z" />
    <glyph glyph-name="cid23" unicode="6" 
d="M86 440q0 100 36.5 194t117.5 204l440 604h287l-381 -518q46 24 119 24q142 3 264.5 -63.5t195 -185.5t70.5 -259q0 -229 -163 -379.5t-410 -150.5q-164 0 -295.5 68.5t-206 189.5t-74.5 272zM997 438q0 135 -93.5 224.5t-241.5 89.5q-149 0 -243.5 -89.5t-94.5 -224.5
t94.5 -224t243.5 -89q148 0 241.5 89t93.5 224z" />
    <glyph glyph-name="cid24" unicode="7" 
d="M96 1214v228h1086v-219l-607 -1284h-278l604 1275h-805z" />
    <glyph glyph-name="cid25" unicode="8" 
d="M84 350q0 126 78 226.5t200 142.5q-104 49 -164.5 135t-60.5 201q0 183 148.5 299t378.5 116q229 0 376.5 -116t147.5 -299q0 -116 -60 -203.5t-165 -132.5q124 -42 201 -142t77 -227q0 -128 -74.5 -228.5t-206 -156t-296.5 -55.5q-166 0 -298 55.5t-207 156t-75 228.5z
M956 1036q0 103 -81 166.5t-211 63.5q-133 0 -213 -63.5t-80 -166.5t80 -166t213 -63q131 0 211.5 63t80.5 166zM1004 365q0 110 -94 178.5t-246 68.5t-247 -68.5t-95 -178.5t95 -179t247 -69t246 69t94 179z" />
    <glyph glyph-name="cid26" unicode="9" 
d="M621 432q-143 0 -265 66.5t-194 184.5t-72 259q0 227 163.5 377.5t412.5 150.5q247 0 410 -150.5t163 -377.5q0 -100 -36.5 -194.5t-117.5 -204.5l-440 -604h-287l383 520q-53 -27 -120 -27zM1001 942q0 135 -93.5 224t-241.5 89q-149 0 -243.5 -89t-94.5 -224t94.5 -225
t243.5 -90q148 0 241.5 90t93.5 225z" />
    <glyph glyph-name="cid27" unicode=":" horiz-adv-x="524" 
d="M96 1102q0 69 47 115.5t119 46.5t119 -46.5t47 -115.5q0 -68 -47.5 -115t-118.5 -47t-118.5 47t-47.5 115zM96 279q0 69 47 115t119 46t119 -46t47 -115q0 -68 -47.5 -115t-118.5 -47t-118.5 47t-47.5 115z" />
    <glyph glyph-name="cid28" unicode=";" horiz-adv-x="524" 
d="M96 1102q0 69 47 115.5t119 46.5t119 -46.5t47 -115.5q0 -68 -47.5 -115t-118.5 -47t-118.5 47t-47.5 115zM432 416l-139 -496h-203l76 496h266z" />
    <glyph glyph-name="cid29" unicode="&#x3c;" 
d="M174 791l967 450v-242l-701 -309l701 -307v-242l-967 451v199z" />
    <glyph glyph-name="cid30" unicode="=" 
d="M1174 1051v-215h-1020v215h1020zM1174 545v-215h-1020v215h1020z" />
    <glyph glyph-name="cid31" unicode="&#x3e;" 
d="M885 690l-699 309v242l967 -450v-199l-967 -451v242z" />
    <glyph glyph-name="cid32" unicode="?" horiz-adv-x="1159" 
d="M631 815q112 70 155 121t43 117q0 92 -73.5 146t-198.5 54q-102 0 -186 -54t-127 -146l-209 104q62 141 203 227q142 86 317 86q232 0 374 -114t142 -297q0 -117 -62 -201.5t-212 -179.5q-78 -49 -108 -102t-30 -138v-49h-247v49q0 139 42.5 214t176.5 163zM369 74
q0 68 47 113.5t119 45.5t118.5 -45.5t46.5 -113.5q0 -69 -46.5 -115.5t-118.5 -46.5t-119 46.5t-47 115.5z" />
    <glyph glyph-name="cid33" unicode="@" horiz-adv-x="2095" 
d="M1284 201q-47 -71 -126 -109.5t-177 -38.5q-177 0 -297.5 131.5t-120.5 317.5q0 188 120 318t298 130q99 0 177.5 -38t125.5 -109v123h211v-688h33q280 0 280 389q0 188 -98 327t-266.5 209t-384.5 70q-161 1 -303 -51t-245.5 -146.5t-162.5 -232t-57 -299.5
q-2 -161 57 -299t162.5 -232.5t245.5 -147t303 -50.5q140 0 268 39.5t225 111.5l115 -147q-122 -88 -279 -135t-329 -47q-201 -2 -379.5 63.5t-308 183.5t-204 289.5t-71.5 370.5q-3 199 71.5 370.5t204 289.5t308 183.5t379.5 63.5q198 1 372 -55t301 -158.5t199 -253.5
t70 -330q0 -250 -125 -399q-122 -149 -346 -149h-100q-75 0 -110.5 33t-35.5 102zM1282 502q0 120 -71 192t-183 72q-114 0 -187 -75t-73 -189t73 -189t187 -75q111 0 182.5 73t71.5 191z" />
    <glyph glyph-name="cid34" unicode="A" horiz-adv-x="1529" 
d="M1229 -61l-133 340h-668l-133 -340h-264l604 1503h260l604 -1503h-270zM510 494h504l-252 645z" />
    <glyph glyph-name="cid35" unicode="B" horiz-adv-x="1480" 
d="M1323 1040q0 -117 -67.5 -208t-172.5 -121q123 -23 214.5 -121t91.5 -232q0 -190 -144 -304.5t-411 -114.5h-678v1503h626q261 0 401 -107t140 -295zM1073 1012q0 101 -74 155t-223 54h-366v-420h366q142 0 219.5 55.5t77.5 155.5zM1135 381q0 97 -80.5 152t-220.5 55
h-424v-428h417q151 0 229.5 59t78.5 162z" />
    <glyph glyph-name="cid36" unicode="C" horiz-adv-x="1595" 
d="M96 690q-3 217 96.5 397t276.5 283t391 100q206 0 373 -90t266 -247l-219 -123q-70 107 -178.5 166t-241.5 59q-148 0 -265.5 -72t-181 -196t-63.5 -277q0 -232 143 -387.5t367 -155.5q133 0 241.5 59.5t178.5 166.5l219 -125q-100 -157 -267 -247.5t-372 -90.5
q-214 -4 -391 99t-276.5 283.5t-96.5 397.5z" />
    <glyph glyph-name="cid37" unicode="D" horiz-adv-x="1585" 
d="M1491 690q3 -333 -216.5 -544t-576.5 -207h-542v1503h542q357 4 576.5 -207.5t216.5 -544.5zM1235 690q0 247 -141 385.5t-396 138.5h-286v-1048h286q255 0 396 139t141 385z" />
    <glyph glyph-name="cid38" unicode="E" horiz-adv-x="1314" 
d="M1204 1442v-228h-792v-409h708v-225h-708v-414h813v-227h-1069v1503h1048z" />
    <glyph glyph-name="cid39" unicode="F" horiz-adv-x="1273" 
d="M1196 1442v-228h-784v-438h700v-227h-700v-610h-256v1503h1040z" />
    <glyph glyph-name="cid40" unicode="G" horiz-adv-x="1677" 
d="M96 690q-2 163 57.5 308t163 249.5t250.5 164.5t312 58q216 0 387.5 -89.5t269.5 -247.5l-217 -123q-70 107 -183 166t-257 59q-233 0 -381 -156t-148 -389q0 -234 154 -390.5t391 -156.5q131 0 244 36.5t176 99.5v266h-438v215h673v-594q-91 -114 -272 -184
q-185 -72 -383 -72q-223 -4 -408 99t-290 283.5t-101 397.5z" />
    <glyph glyph-name="cid41" unicode="H" horiz-adv-x="1603" 
d="M412 1442v-635h782v635h254v-1503h-254v639h-782v-639h-256v1503h256z" />
    <glyph glyph-name="cid42" unicode="I" horiz-adv-x="567" 
d="M412 1442v-1503h-256v1503h256z" />
    <glyph glyph-name="cid43" unicode="J" horiz-adv-x="1243" 
d="M43 205l223 117q39 -80 114 -128.5t167 -48.5q145 0 219 97t74 284v916h256v-916q0 -291 -142 -453.5t-399 -162.5q-177 0 -313 86q-134 82 -199 209z" />
    <glyph glyph-name="cid44" unicode="K" horiz-adv-x="1400" 
d="M1393 -61h-322l-659 704v-704h-256v1503h256v-699l620 699h320l-672 -750z" />
    <glyph glyph-name="cid45" unicode="L" horiz-adv-x="1257" 
d="M412 1442v-1276h772v-227h-1028v1503h256z" />
    <glyph glyph-name="cid46" unicode="M" horiz-adv-x="1900" 
d="M406 1442l546 -932l545 932h246v-1503h-248v1048l-440 -751h-209l-445 755v-1052h-245v1503h250z" />
    <glyph glyph-name="cid47" unicode="N" horiz-adv-x="1589" 
d="M401 1442l781 -1084v1084h250v-1503h-242l-782 1085v-1085h-252v1503h245z" />
    <glyph glyph-name="cid48" unicode="O" horiz-adv-x="1718" 
d="M96 690q-3 217 96.5 397t276.5 283t391 100q159 2 302 -58t245.5 -164t161 -250t55.5 -308q4 -217 -96.5 -397.5t-278 -283.5t-389.5 -99q-214 -4 -391 99t-276.5 283.5t-96.5 397.5zM1368 690q0 233 -142.5 389t-365.5 156q-148 0 -265.5 -72t-181 -196t-63.5 -277
q0 -232 143 -387.5t367 -155.5q147 0 264 72t180.5 195.5t63.5 275.5z" />
    <glyph glyph-name="cid49" unicode="P" horiz-adv-x="1392" 
d="M1311 932q0 -230 -170 -371t-465 -141h-266v-481h-254v1503h520q295 0 465 -140.5t170 -369.5zM1059 932q0 138 -97 211.5t-286 73.5h-266v-570h266q189 0 286 73.5t97 211.5z" />
    <glyph glyph-name="cid50" unicode="Q" horiz-adv-x="1718" 
d="M1647 -123l63 -209q-103 -61 -264 -61q-144 0 -260.5 73.5t-224.5 235.5q-49 -6 -101 -6q-214 -4 -391 99t-276.5 283.5t-96.5 397.5q-3 217 96.5 397t276.5 283t391 100q159 2 302 -58t245.5 -164t161 -250t55.5 -308q0 -232 -107.5 -416.5t-297.5 -281.5
q50 -82 107.5 -120t135.5 -38q112 0 185 43zM860 147q147 0 264 72t180.5 195.5t63.5 275.5q0 233 -142.5 389t-365.5 156q-148 0 -265.5 -72t-181 -196t-63.5 -277q0 -232 143 -387.5t367 -155.5z" />
    <glyph glyph-name="cid51" unicode="R" horiz-adv-x="1427" 
d="M1399 -61h-289l-344 518q-82 -4 -94 -4h-262v-514h-254v1503h516q291 0 462 -135t171 -361q0 -148 -77.5 -261t-219.5 -173zM410 674h264q187 0 283 70t96 200t-97.5 201.5t-281.5 71.5h-264v-543z" />
    <glyph glyph-name="cid52" unicode="S" horiz-adv-x="1370" 
d="M80 229l213 117q53 -95 157.5 -152t243.5 -57q140 0 234 58t94 147q0 84 -67 136t-222 91l-190 47q-410 109 -410 412q0 194 155 318t400 124q192 0 342 -81q152 -79 223 -215l-209 -117q-45 83 -144 134.5t-216 51.5q-129 0 -212 -56.5t-83 -146.5q0 -81 66 -130.5
t221 -88.5l190 -47q412 -105 412 -420q0 -128 -75.5 -229.5t-209.5 -158t-303 -56.5q-208 0 -371.5 87t-238.5 232z" />
    <glyph glyph-name="cid53" unicode="T" horiz-adv-x="1378" 
d="M63 1214v228h1254v-228h-500v-1275h-256v1275h-498z" />
    <glyph glyph-name="cid54" unicode="U" horiz-adv-x="1562" 
d="M147 606v836h256v-836q0 -461 379 -461t379 461v836h254v-836q0 -340 -165 -518t-468 -178q-304 0 -469.5 178t-165.5 518z" />
    <glyph glyph-name="cid55" unicode="V" horiz-adv-x="1490" 
d="M317 1442l433 -1174l430 1174h274l-577 -1503h-263l-575 1503h278z" />
    <glyph glyph-name="cid56" unicode="W" horiz-adv-x="2238" 
d="M330 1442l340 -1145l317 1137h270l320 -1137l338 1145h274l-479 -1503h-262l-328 1095l-329 -1095h-263l-477 1503h279z" />
    <glyph glyph-name="cid57" unicode="X" horiz-adv-x="1402" 
d="M25 1442h307l373 -539l370 539h303l-526 -748l532 -755h-307l-379 548l-376 -548h-304l533 757z" />
    <glyph glyph-name="cid58" unicode="Y" horiz-adv-x="1490" 
d="M39 1442h285l424 -727l426 727h278l-580 -967v-536h-254v536z" />
    <glyph glyph-name="cid59" unicode="Z" horiz-adv-x="1345" 
d="M926 1217h-822v225h1139v-215l-848 -1061h869v-227h-1184v217z" />
    <glyph glyph-name="cid60" unicode="[" horiz-adv-x="833" 
d="M733 1544v-221h-295v-1348h295v-221h-532v1790h532z" />
    <glyph glyph-name="cid61" unicode="\" horiz-adv-x="1097" 
d="M262 1544l791 -1790h-217l-791 1790h217z" />
    <glyph glyph-name="cid62" unicode="]" horiz-adv-x="833" 
d="M393 -25v1348h-293v221h531v-1790h-531v221h293z" />
    <glyph glyph-name="cid63" unicode="^" horiz-adv-x="1177" 
d="M682 1468l412 -712h-246l-258 467l-256 -467h-248l410 712h186z" />
    <glyph glyph-name="cid64" unicode="_" horiz-adv-x="1028" 
d="M1028 -92v-199h-1028v199h1028z" />
    <glyph glyph-name="cid65" unicode="`" horiz-adv-x="552" 
d="M322 1499l190 -323h-236l-235 323h281z" />
    <glyph glyph-name="cid66" unicode="a" horiz-adv-x="1390" 
d="M995 1030h246v-1091h-246v165q-55 -94 -152 -144t-220 -50q-152 0 -275 75.5t-191.5 207t-68.5 292.5q0 159 68.5 290.5t191.5 207.5t275 76q123 0 220 -50.5t152 -144.5v166zM993 485q0 163 -92 261t-239 98q-149 0 -243.5 -102.5t-94.5 -256.5t94.5 -257t243.5 -103
q147 0 239 98.5t92 261.5z" />
    <glyph glyph-name="cid67" unicode="b" horiz-adv-x="1390" 
d="M1303 485q0 -161 -68.5 -292.5t-191.5 -207t-275 -75.5q-124 0 -221 49.5t-152 142.5v-163h-248v1529h248v-602q55 93 152 143t221 50q152 0 275 -76t191.5 -207.5t68.5 -290.5zM1065 485q0 154 -94 256.5t-242 102.5t-241 -98t-93 -261q0 -162 94.5 -261t239.5 -99
q148 0 242 103t94 257z" />
    <glyph glyph-name="cid68" unicode="c" horiz-adv-x="1220" 
d="M88 485q0 161 75 292.5t208 206.5t297 75q153 0 278.5 -65t204.5 -181l-203 -119q-45 70 -117.5 109t-162.5 39q-151 0 -247.5 -102.5t-96.5 -254.5q0 -154 96.5 -256t247.5 -102q88 0 162 39t118 108l203 -116q-78 -118 -204 -183t-279 -65q-165 0 -297.5 74.5
t-207.5 206t-75 294.5z" />
    <glyph glyph-name="cid69" unicode="d" horiz-adv-x="1390" 
d="M995 1468h246v-1529h-246v165q-55 -94 -152 -144t-220 -50q-152 0 -275 75.5t-191.5 207t-68.5 292.5q0 159 68.5 290.5t191.5 207.5t275 76q123 0 220 -50.5t152 -144.5v604zM993 485q0 163 -92 261t-239 98q-149 0 -243.5 -102.5t-94.5 -256.5t94.5 -257t243.5 -103
q147 0 239 98.5t92 261.5z" />
    <glyph glyph-name="cid70" unicode="e" horiz-adv-x="1300" 
d="M1208 395h-880q26 -128 121.5 -201t232.5 -73q96 0 177.5 39.5t129.5 107.5l191 -123q-69 -107 -204 -171t-294 -64q-170 0 -306 74.5t-212 206t-76 294.5q0 161 72 292.5t201.5 206.5t289.5 75q246 0 404.5 -152.5t158.5 -392.5q0 -70 -6 -119zM328 578h647
q-7 123 -96 198.5t-226 75.5q-124 0 -211.5 -73t-113.5 -201z" />
    <glyph glyph-name="cid71" unicode="f" horiz-adv-x="962" 
d="M530 1130v-100h392v-215h-392v-876h-247v876h-240v215h240v105q0 452 403 452q75 0 147.5 -18t116.5 -49l-57 -197q-80 47 -178 47q-185 0 -185 -240z" />
    <glyph glyph-name="cid72" unicode="g" horiz-adv-x="1390" 
d="M995 1030h246v-989q0 -176 -77 -306t-211.5 -196.5t-309.5 -66.5q-163 0 -297.5 66.5t-210.5 178.5l195 121q49 -71 131 -113t182 -42q168 0 260 93.5t92 264.5v111q-54 -87 -150.5 -134t-221.5 -47q-227 -4 -382.5 155.5t-152.5 389.5q0 153 69 277t191.5 195t274.5 71
q125 0 221.5 -46.5t150.5 -133.5v151zM993 516q0 151 -91.5 239.5t-239.5 88.5q-150 0 -244 -94t-94 -234q0 -143 94 -236.5t244 -93.5q148 0 239.5 89.5t91.5 240.5z" />
    <glyph glyph-name="cid73" unicode="h" horiz-adv-x="1355" 
d="M1217 551v-612h-248v596q0 309 -271 309q-132 0 -217 -94q-86 -92 -86 -238v-573h-248v1529h248v-604q49 89 143 142t214 53q218 0 341.5 -132.5t123.5 -375.5z" />
    <glyph glyph-name="cid74" unicode="i" horiz-adv-x="542" 
d="M113 1348q0 66 44.5 109.5t112.5 43.5q69 0 115.5 -43.5t46.5 -109.5q0 -63 -46.5 -107.5t-115.5 -44.5q-67 0 -112 44t-45 108zM395 1030v-1091h-248v1091h248z" />
    <glyph glyph-name="cid75" unicode="j" horiz-adv-x="542" 
d="M113 1348q0 66 44.5 109.5t112.5 43.5q69 0 115.5 -43.5t46.5 -109.5q0 -63 -46.5 -107.5t-115.5 -44.5q-67 0 -112 44t-45 108zM-188 -475l57 201q67 -31 131 -31q74 0 110.5 50.5t36.5 158.5v1126h248v-1130q0 -209 -91 -315.5t-263 -106.5q-68 0 -130.5 13t-98.5 34z
" />
    <glyph glyph-name="cid76" unicode="k" horiz-adv-x="1193" 
d="M1184 -61h-301l-488 499v-499h-248v1529h248v-933l463 495h297l-516 -543z" />
    <glyph glyph-name="cid77" unicode="l" horiz-adv-x="542" 
d="M395 1468v-1529h-248v1529h248z" />
    <glyph glyph-name="cid78" unicode="m" horiz-adv-x="2050" 
d="M1911 551v-612h-248v596q0 150 -61 229.5t-179 79.5q-116 0 -193 -96.5t-77 -235.5v-573h-248v596q0 150 -60.5 229.5t-176.5 79.5q-117 0 -195 -96.5t-78 -235.5v-573h-248v1091h248v-166q44 89 130 142t196 53q130 0 225.5 -58t149.5 -167q56 106 152 165.5t227 59.5
q204 0 320 -134.5t116 -373.5z" />
    <glyph glyph-name="cid79" unicode="n" horiz-adv-x="1355" 
d="M1217 551v-612h-248v596q0 309 -271 309q-132 0 -217 -94q-86 -92 -86 -238v-573h-248v1091h248v-166q49 89 143 142t214 53q218 0 341.5 -132.5t123.5 -375.5z" />
    <glyph glyph-name="cid80" unicode="o" horiz-adv-x="1333" 
d="M88 485q0 161 75 292.5t208 206.5t297 75q161 3 295.5 -73t210.5 -209t73 -292q3 -159 -73 -292t-210.5 -209.5t-295.5 -73.5q-165 0 -297.5 74.5t-207.5 206t-75 294.5zM1010 485q0 153 -96 255t-246 102q-151 0 -247.5 -102.5t-96.5 -254.5q0 -154 96.5 -256
t247.5 -102t246.5 102t95.5 256z" />
    <glyph glyph-name="cid81" unicode="p" horiz-adv-x="1390" 
d="M1303 485q0 -161 -68.5 -292.5t-191.5 -207t-275 -75.5q-124 0 -221 49.5t-152 142.5v-602h-248v1530h248v-164q55 93 152 143t221 50q152 0 275 -76t191.5 -207.5t68.5 -290.5zM1065 485q0 154 -94 256.5t-242 102.5t-241 -98t-93 -261q0 -162 94.5 -261t239.5 -99
q148 0 242 103t94 257z" />
    <glyph glyph-name="cid82" unicode="q" horiz-adv-x="1390" 
d="M995 1030h246v-1530h-246v604q-55 -94 -152 -144t-220 -50q-152 0 -275 75.5t-191.5 207t-68.5 292.5q0 159 68.5 290.5t191.5 207.5t275 76q123 0 220 -50.5t152 -144.5v166zM993 485q0 163 -92 261t-239 98q-149 0 -243.5 -102.5t-94.5 -256.5t94.5 -257t243.5 -103
q147 0 239 98.5t92 261.5z" />
    <glyph glyph-name="cid83" unicode="r" horiz-adv-x="892" 
d="M838 1034v-227q-46 16 -125 16q-142 0 -230 -94q-88 -91 -88 -235v-555h-248v1091h248v-194q42 99 127.5 157t194.5 58q72 0 121 -17z" />
    <glyph glyph-name="cid84" unicode="s" horiz-adv-x="1159" 
d="M59 164l189 108q45 -73 136 -117t200 -44q112 0 188 34.5t76 87.5q0 55 -45 83t-178 59l-170 39q-174 39 -258 113.5t-84 195.5q0 150 132.5 243t338.5 93q160 0 293 -68q131 -64 190 -164l-186 -110q-42 63 -124.5 102t-178.5 39q-100 0 -166 -34t-66 -89q0 -50 46 -78
t177 -59l170 -39q173 -39 257.5 -114.5t84.5 -196.5q0 -100 -65.5 -177.5t-179 -119t-256.5 -41.5q-181 0 -318 76q-139 74 -203 178z" />
    <glyph glyph-name="cid85" unicode="t" horiz-adv-x="1003" 
d="M893 174l57 -197q-44 -31 -116.5 -49t-147.5 -18q-403 0 -403 452v453h-240v215h240v295h247v-295h383v-215h-383v-448q0 -238 185 -238q104 0 178 45z" />
    <glyph glyph-name="cid86" unicode="u" horiz-adv-x="1355" 
d="M961 1030h247v-1091h-247v165q-48 -88 -142.5 -141t-214.5 -53q-218 0 -341.5 132.5t-123.5 375.5v612h248v-596q0 -309 270 -309q131 0 217 92q87 96 87 240v573z" />
    <glyph glyph-name="cid87" unicode="v" horiz-adv-x="1265" 
d="M297 1030l340 -794l340 794h260l-481 -1091h-246l-479 1091h266z" />
    <glyph glyph-name="cid88" unicode="w" horiz-adv-x="1841" 
d="M311 1030l254 -786l246 774h225l248 -774l254 786h262l-389 -1091h-246l-243 725l-246 -725h-246l-387 1091h268z" />
    <glyph glyph-name="cid89" unicode="x" horiz-adv-x="1232" 
d="M25 1030h288l305 -373l304 373h286l-448 -541l454 -550h-288l-312 383l-309 -383h-287l455 548z" />
    <glyph glyph-name="cid90" unicode="y" horiz-adv-x="1265" 
d="M977 1030h260l-483 -1116q-101 -239 -217 -340.5t-269 -101.5q-132 0 -237 55l59 201q69 -37 162 -37q88 0 149 50t111 171l12 27l-493 1091h266l348 -799z" />
    <glyph glyph-name="cid91" unicode="z" horiz-adv-x="1169" 
d="M745 817h-649v213h979v-199l-672 -679h689v-213h-1016v198z" />
    <glyph glyph-name="cid92" unicode="{" horiz-adv-x="880" 
d="M250 35v354q0 137 -119 137h-63v246h63q119 0 119 137v355q0 142 59 211t183 69h288v-221h-200q-51 0 -72 -24.5t-21 -81.5v-308q0 -234 -168 -260q168 -24 168 -260v-307q0 -56 22 -81.5t71 -25.5h200v-221h-288q-124 0 -183 69.5t-59 211.5z" />
    <glyph glyph-name="cid93" unicode="|" horiz-adv-x="612" 
d="M412 1544v-1790h-211v1790h211z" />
    <glyph glyph-name="cid94" unicode="}" horiz-adv-x="880" 
d="M393 82v307q0 236 168 260q-168 26 -168 260v308q0 57 -20.5 81.5t-71.5 24.5h-201v221h289q124 0 183 -69t59 -211v-355q0 -137 119 -137h63v-246h-63q-119 0 -119 -137v-354q0 -142 -59 -211.5t-183 -69.5h-289v221h201q49 0 70.5 25.5t21.5 81.5z" />
    <glyph glyph-name="cid95" unicode="~" horiz-adv-x="1280" 
d="M414 874q98 0 229 -67q73 -40 115.5 -57t75.5 -17q101 0 155 144l211 -89q-43 -134 -131.5 -212t-200.5 -78q-104 0 -229 67q-80 42 -118.5 58t-71.5 16q-53 0 -92.5 -37.5t-63.5 -105.5l-211 88q43 134 131.5 212t200.5 78z" />
    <glyph glyph-name="cid208" unicode="&#xa1;" horiz-adv-x="569" 
d="M119 899q0 68 47 114t119 46t119 -46t47 -114q0 -69 -47 -115.5t-119 -46.5t-119 46.5t-47 115.5zM397 584l27 -1055h-279l27 1055h225z" />
    <glyph glyph-name="cid143" unicode="&#xa2;" horiz-adv-x="1220" 
d="M948 457l203 -117q-66 -99 -166.5 -161t-224.5 -81v-211h-211v215q-203 37 -332 195t-129 371q0 212 129 369t332 194v215h211v-211q124 -19 224.5 -81t166.5 -159l-203 -118q-45 70 -117.5 108.5t-162.5 38.5q-151 0 -247.5 -102t-96.5 -254q0 -154 96.5 -256.5
t247.5 -102.5q87 0 161.5 39.5t118.5 108.5z" />
    <glyph glyph-name="cid144" unicode="&#xa3;" horiz-adv-x="1318" 
d="M274 164v385h-137v196h137v226q0 232 135 365.5t365 133.5q167 0 283 -79q114 -75 168 -185l-207 -119q-79 154 -244 154q-114 0 -181 -71.5t-67 -198.5v-226h432v-196h-432v-385h715v-225h-1104v225h137z" />
    <glyph glyph-name="cid214" unicode="&#xa4;" horiz-adv-x="1482" 
d="M1198 420l209 -209l-160 -162l-205 205q-131 -88 -301 -88t-301 88l-204 -205l-160 162l207 207q-72 129 -72 272q0 144 72 273l-207 208l160 162l204 -207q131 88 301 88q165 0 301 -86l205 205l160 -162l-209 -210q72 -123 72 -271q0 -147 -72 -270zM741 369
q137 0 224 90q86 92 86 231q0 141 -86 230q-86 92 -224 92q-137 0 -223 -92q-86 -89 -86 -230q0 -139 86 -231q87 -90 223 -90z" />
    <glyph glyph-name="cid145" unicode="&#xa5;" horiz-adv-x="1490" 
d="M1452 1442l-491 -754h339v-174h-428v-139h428v-172h-428v-264h-254v264h-428v172h428v139h-428v174h340l-491 754h285l424 -672l426 672h278z" />
    <glyph glyph-name="brokenbar" unicode="&#xa6;" horiz-adv-x="612" 
d="M412 1544v-696h-211v696h211zM412 451v-697h-211v697h211z" />
    <glyph glyph-name="cid155" unicode="&#xa7;" horiz-adv-x="1150" 
d="M1024 51q0 -155 -124.5 -254.5t-319.5 -99.5q-155 0 -279 64.5t-184 175.5l182 104q38 -66 114 -104.5t169 -38.5q95 0 155 39.5t60 105.5q0 57 -47 92.5t-168 67.5l-160 41q-326 82 -326 344q0 86 45.5 158t126.5 120q-139 92 -139 250q0 155 124.5 254.5t319.5 99.5
q155 0 279 -64t184 -175l-184 -105q-38 66 -113.5 105t-167.5 39q-95 0 -156 -40t-61 -106q0 -57 48 -91.5t167 -65.5l160 -43q328 -82 328 -344q0 -86 -45.5 -158.5t-126.5 -120.5q139 -92 139 -250zM535 422l149 -39q64 17 104.5 67t40.5 113q0 69 -47.5 110t-163.5 72
l-149 39q-63 -13 -105 -65t-42 -115q0 -68 47.5 -109t165.5 -73z" />
    <glyph glyph-name="cid107" unicode="&#xa8;" horiz-adv-x="798" 
d="M61 1315q0 57 39.5 98t96.5 41t97 -41t40 -98t-40 -97t-97 -40t-96.5 40t-39.5 97zM465 1315q0 57 39 98t96 41t97 -41t40 -98t-40 -97t-97 -40t-96 40t-39 97z" />
    <glyph glyph-name="cid98" unicode="&#xa9;" horiz-adv-x="1650" 
d="M94 631q-2 163 56.5 305t159 238.5t235 151t280.5 52.5q146 2 280.5 -52.5t235 -151t159 -238.5t56.5 -305q2 -163 -56.5 -305t-159 -239t-235 -151.5t-280.5 -52.5q-146 -2 -280.5 52.5t-235 151.5t-159 239t-56.5 305zM1434 631q2 138 -47.5 258.5t-133.5 202.5
t-195.5 128.5t-232.5 45.5q-121 1 -233.5 -45.5t-196.5 -128.5t-133 -202.5t-47 -258.5q-2 -138 47 -258.5t133 -202.5t196.5 -128.5t233.5 -45.5q121 -1 232.5 45.5t195.5 128.5t133.5 202.5t47.5 258.5zM432 631q0 174 115.5 288.5t292.5 114.5q109 0 198 -46.5
t144 -129.5l-160 -92q-63 96 -182 96q-96 0 -157.5 -65.5t-61.5 -165.5t61.5 -166t157.5 -66q118 0 182 97l160 -90q-54 -85 -143 -132t-199 -47q-177 0 -292.5 115t-115.5 289z" />
    <glyph glyph-name="cid668" unicode="&#xaa;" horiz-adv-x="1112" 
d="M750 1450h215v-829h-215v116q-38 -67 -105 -102t-153 -35q-173 0 -288.5 125.5t-115.5 310.5q0 184 115.5 309t288.5 125q182 0 258 -135v115zM750 1036q0 111 -63 177.5t-163 66.5q-102 0 -165.5 -68.5t-63.5 -175.5t63.5 -176t165.5 -69q100 0 163 66t63 179z" />
    <glyph glyph-name="guillemotleft" unicode="&#xab;" horiz-adv-x="1361" 
d="M471 903h272l-360 -418l360 -419h-272l-358 419zM956 903h273l-359 -418l359 -419h-273l-358 419z" />
    <glyph glyph-name="cid194" unicode="&#xac;" horiz-adv-x="1439" 
d="M133 686v211h1163v-639h-225v428h-938z" />
    <glyph glyph-name="uni00AD" unicode="&#xad;" 
d="M1194 801v-221h-1061v221h1061z" />
    <glyph glyph-name="uni00AD" unicode="&#x2013;" 
d="M1194 801v-221h-1061v221h1061z" />
    <glyph glyph-name="registered" unicode="&#xae;" horiz-adv-x="1204" 
d="M1118 1059q0 -145 -68 -267t-187 -193t-261 -71q-103 -2 -199 39.5t-166 113.5t-110.5 171t-38.5 207q-2 108 38 207t109.5 170.5t165.5 113t201 39.5q105 2 201 -39.5t165.5 -113t110 -170.5t39.5 -207zM1001 1059q0 178 -114.5 299t-284.5 121t-284.5 -121t-114.5 -299
q0 -176 115 -297t284 -121q170 0 284.5 120t114.5 298zM735 1001l144 -215h-134l-120 187h-27h-82v-187h-119v574h201q110 0 177 -53.5t67 -141.5q0 -115 -107 -164zM516 1251v-174h82q127 0 127 88q0 86 -127 86h-82z" />
    <glyph glyph-name="overscore" unicode="&#xaf;" horiz-adv-x="774" 
d="M713 1401v-197h-652v197h652z" />
    <glyph glyph-name="cid138" unicode="&#xb0;" horiz-adv-x="813" 
d="M88 1159q0 131 92.5 221t227.5 90q134 0 226.5 -90.5t92.5 -220.5q0 -133 -92.5 -223t-226.5 -90q-135 0 -227.5 90t-92.5 223zM557 1159q0 67 -42 112.5t-107 45.5q-67 0 -109.5 -45.5t-42.5 -112.5q0 -68 42.5 -114t109.5 -46q65 0 107 46t42 114z" />
    <glyph glyph-name="cid130" unicode="&#xb1;" 
d="M154 762v211h397v375h223v-375h400v-211h-400v-375h-223v375h-397zM1174 272v-211h-1020v211h1020z" />
    <glyph glyph-name="uni00B2" unicode="&#xb2;" horiz-adv-x="796" 
d="M494 1378q0 42 -33 67t-90 25q-48 0 -89 -23t-65 -61l-166 82q42 76 128.5 122t197.5 46q137 0 224 -69t87 -178q0 -72 -38.5 -133t-131.5 -136l-172 -147h383v-168h-651v156l293 251q68 58 95.5 94.5t27.5 71.5z" />
    <glyph glyph-name="uni00B3" unicode="&#xb3;" horiz-adv-x="796" 
d="M35 956l174 86q47 -90 174 -90q69 0 109 28t40 75q0 54 -38.5 77t-126.5 23h-70l-74 125l223 172h-366v168h614v-158l-245 -188h30q110 0 179 -60t69 -159q0 -117 -96 -192t-248 -75q-117 0 -211 46t-137 122z" />
    <glyph glyph-name="cid199" unicode="&#xb4;" horiz-adv-x="552" 
d="M512 1499l-236 -323h-235l190 323h281z" />
    <glyph glyph-name="uni00B5" unicode="&#xb5;" horiz-adv-x="1363" 
d="M969 1030h248v-1091h-248v167q-43 -87 -134 -141.5t-200 -54.5q-78 0 -143 28.5t-97 77.5v-516h-248v1530h248v-596q0 -309 271 -309q131 0 217 92q86 95 86 240v573z" />
    <glyph glyph-name="cid244" unicode="&#xb6;" horiz-adv-x="1417" 
d="M82 975q0 210 152 338.5t423 128.5h605v-1688h-201v1499h-203v-1499h-201v752q-272 0 -423.5 128t-151.5 341z" />
    <glyph glyph-name="cid104" unicode="&#xb7;" horiz-adv-x="524" 
d="M96 690q0 69 47 115.5t119 46.5t119 -46.5t47 -115.5q0 -68 -47.5 -115t-118.5 -47t-118.5 47t-47.5 115z" />
    <glyph glyph-name="cid206" unicode="&#xb8;" horiz-adv-x="497" 
d="M457 -68l-142 -368h-274l154 368h262z" />
    <glyph glyph-name="uni00B9" unicode="&#xb9;" horiz-adv-x="796" 
d="M346 975v455l-209 -62l-57 158l293 94h168v-645h213v-170h-670v170h262z" />
    <glyph glyph-name="cid675" unicode="&#xba;" horiz-adv-x="1056" 
d="M88 1036q0 186 125.5 310t314.5 124t315 -124t126 -310q0 -185 -126.5 -310.5t-314.5 -125.5t-314 125.5t-126 310.5zM762 1036q0 105 -65.5 174.5t-168.5 69.5t-168 -69.5t-65 -174.5t65 -174t168 -69t168.5 69t65.5 174z" />
    <glyph glyph-name="guillemotright" unicode="&#xbb;" horiz-adv-x="1361" 
d="M133 903h270l361 -418l-361 -419h-270l359 419zM618 903h273l358 -418l-358 -419h-273l359 419z" />
    <glyph glyph-name="cid751" unicode="&#xbc;" horiz-adv-x="1851" 
d="M346 809v455l-209 -62l-57 158l293 94h168v-645h213v-170h-670v170h262zM1638 1442l-1011 -1503h-211l1009 1503h213zM1087 92v150l429 514h194v-506h119v-158h-119v-166h-182v166h-441zM1528 539l-244 -289h244v289z" />
    <glyph glyph-name="cid748" unicode="&#xbd;" horiz-adv-x="1984" 
d="M346 809v455l-209 -62l-57 158l293 94h168v-645h213v-170h-670v170h262zM1638 1442l-1011 -1503h-211l1009 1503h213zM1683 500q0 42 -33.5 67t-90.5 25q-49 0 -88.5 -22.5t-63.5 -61.5l-168 82q44 77 129.5 122.5t198.5 45.5q135 0 223 -70t88 -178q0 -71 -39 -131.5
t-131 -136.5l-174 -148h383v-168h-651v156l295 252q68 57 95 94t27 72z" />
    <glyph glyph-name="cid752" unicode="&#xbe;" horiz-adv-x="1748" 
d="M35 791l174 86q48 -91 174 -91q69 0 109 28t40 75q0 54 -38.5 77t-126.5 23h-70l-74 125l223 172h-366v168h614v-158l-245 -188h30q110 0 179 -60t69 -159q0 -117 -96 -191.5t-248 -74.5q-117 0 -211 46t-137 122zM1536 1442l-1012 -1503h-211l1010 1503h213zM985 92v150
l428 514h195v-506h118v-158h-118v-166h-183v166h-440zM1425 539l-243 -289h243v289z" />
    <glyph glyph-name="cid209" unicode="&#xbf;" horiz-adv-x="1159" 
d="M459 899q0 68 47 114t119 46t119 -46t47 -114q0 -69 -47 -115.5t-119 -46.5t-119 46.5t-47 115.5zM88 -88q0 120 62 203q68 88 212 178q78 50 108 103t30 136v52h248v-52q0 -138 -43 -211.5t-177 -162.5q-114 -73 -156 -123t-42 -117q0 -92 73.5 -146.5t198.5 -54.5
q102 0 186 54.5t127 146.5l209 -104q-63 -143 -202 -228q-142 -86 -318 -86q-232 0 -374 114.5t-142 297.5z" />
    <glyph glyph-name="Agrave" unicode="&#xc0;" horiz-adv-x="1529" 
d="M895 1587h-236l-235 324h281zM1229 -61l-133 340h-668l-133 -340h-264l604 1503h260l604 -1503h-270zM510 494h504l-252 645z" />
    <glyph glyph-name="Aacute" unicode="&#xc1;" horiz-adv-x="1529" 
d="M1106 1911l-236 -324h-235l190 324h281zM1229 -61l-133 340h-668l-133 -340h-264l604 1503h260l604 -1503h-270zM510 494h504l-252 645z" />
    <glyph glyph-name="Acircumflex" unicode="&#xc2;" horiz-adv-x="1529" 
d="M766 1796l-148 -209h-221l238 344h262l238 -344h-222zM1229 -61l-133 340h-668l-133 -340h-264l604 1503h260l604 -1503h-270zM510 494h504l-252 645z" />
    <glyph glyph-name="Atilde" unicode="&#xc3;" horiz-adv-x="1529" 
d="M580 1597h-181q0 143 55 225.5t158 82.5q38 0 76 -16.5t107 -57.5q68 -45 96 -45q29 0 44 31.5t15 83.5h183q0 -143 -56 -225.5t-157 -82.5q-67 0 -183 72q-68 45 -96 45q-30 0 -45.5 -30.5t-15.5 -82.5zM1229 -61l-133 340h-668l-133 -340h-264l604 1503h260l604 -1503
h-270zM510 494h504l-252 645z" />
    <glyph glyph-name="Adieresis" unicode="&#xc4;" horiz-adv-x="1529" 
d="M428 1726q0 57 39 98.5t96 41.5t97 -41.5t40 -98.5t-40 -97t-97 -40t-96 40t-39 97zM831 1726q0 57 39.5 98.5t96.5 41.5t97 -41.5t40 -98.5t-40 -97t-97 -40t-96.5 40t-39.5 97zM1229 -61l-133 340h-668l-133 -340h-264l604 1503h260l604 -1503h-270zM510 494h504
l-252 645z" />
    <glyph glyph-name="Aring" unicode="&#xc5;" horiz-adv-x="1529" 
d="M498 1808q0 108 75 177q77 71 193 71q115 0 190.5 -71t75.5 -177t-75.5 -176.5t-190.5 -70.5q-118 0 -193 69t-75 178zM651 1808q0 -49 32 -79.5t83 -30.5t82 30t31 80t-31 80.5t-82 30.5t-83 -31t-32 -80zM1229 -61l-133 340h-668l-133 -340h-264l604 1503h260
l604 -1503h-270zM510 494h504l-252 645z" />
    <glyph glyph-name="cid666" unicode="&#xc6;" horiz-adv-x="2170" 
d="M1268 166h813v-227h-1069v364h-510l-195 -364h-276l809 1503h1220v-228h-792v-409h708v-225h-708v-414zM614 518h398v746z" />
    <glyph glyph-name="Ccedilla" unicode="&#xc7;" horiz-adv-x="1595" 
d="M1280 373l219 -125q-83 -131 -216.5 -217.5t-295.5 -110.5l-137 -356h-275l150 356q-182 27 -327 135.5t-225 275t-77 359.5q-3 217 96.5 397t276.5 283t391 100q206 0 373 -90t266 -247l-219 -123q-70 107 -178.5 166t-241.5 59q-148 0 -265.5 -72t-181 -196t-63.5 -277
q0 -232 143 -387.5t367 -155.5q133 0 241.5 59.5t178.5 166.5z" />
    <glyph glyph-name="Egrave" unicode="&#xc8;" horiz-adv-x="1314" 
d="M627 1911l190 -324h-235l-236 324h281zM1204 1442v-228h-792v-409h708v-225h-708v-414h813v-227h-1069v1503h1048z" />
    <glyph glyph-name="Eacute" unicode="&#xc9;" horiz-adv-x="1314" 
d="M1014 1911l-236 -324h-237l192 324h281zM1204 1442v-228h-792v-409h708v-225h-708v-414h813v-227h-1069v1503h1048z" />
    <glyph glyph-name="Ecircumflex" unicode="&#xca;" horiz-adv-x="1314" 
d="M811 1931l238 -344h-224l-145 209l-148 -209h-221l236 344h264zM1204 1442v-228h-792v-409h708v-225h-708v-414h813v-227h-1069v1503h1048z" />
    <glyph glyph-name="Edieresis" unicode="&#xcb;" horiz-adv-x="1314" 
d="M342 1726q0 57 39 98.5t96 41.5t96 -41.5t39 -98.5t-39 -97t-96 -40t-96 40t-39 97zM745 1726q0 57 39.5 98.5t96.5 41.5t96 -41.5t39 -98.5t-39 -97t-96 -40t-96.5 40t-39.5 97zM1204 1442v-228h-792v-409h708v-225h-708v-414h813v-227h-1069v1503h1048z" />
    <glyph glyph-name="Igrave" unicode="&#xcc;" horiz-adv-x="567" 
d="M223 1911l191 -324h-236l-235 324h280zM412 1442v-1503h-256v1503h256z" />
    <glyph glyph-name="Iacute" unicode="&#xcd;" horiz-adv-x="567" 
d="M625 1911l-236 -324h-235l190 324h281zM412 1442v-1503h-256v1503h256z" />
    <glyph glyph-name="Icircumflex" unicode="&#xce;" horiz-adv-x="567" 
d="M416 1931l237 -344h-223l-145 209l-148 -209h-223l238 344h264zM412 1442v-1503h-256v1503h256z" />
    <glyph glyph-name="Idieresis" unicode="&#xcf;" horiz-adv-x="567" 
d="M-53 1726q0 57 39 98.5t96 41.5t96 -41.5t39 -98.5t-39 -97t-96 -40t-96 40t-39 97zM350 1726q0 57 39 98.5t96 41.5t96.5 -41.5t39.5 -98.5t-39.5 -97t-96.5 -40t-96 40t-39 97zM412 1442v-1503h-256v1503h256z" />
    <glyph glyph-name="cid667" unicode="&#xd0;" horiz-adv-x="1681" 
d="M1585 690q0 -166 -55 -305t-156 -237.5t-250 -153.5t-331 -55h-541v641h-184v221h184v641h541q182 0 331 -55t250 -153.5t156 -238t55 -305.5zM1331 690q0 247 -140.5 385.5t-397.5 138.5h-287v-413h426v-221h-426v-414h287q255 0 396.5 139t141.5 385z" />
    <glyph glyph-name="Ntilde" unicode="&#xd1;" horiz-adv-x="1589" 
d="M766 1665q-68 45 -96 45q-30 0 -46 -30.5t-16 -82.5h-180q0 143 55 225.5t158 82.5q38 0 75 -16t107 -58q68 -45 97 -45t44 31.5t15 83.5h182q0 -143 -56 -225.5t-157 -82.5q-39 0 -79.5 17t-102.5 55zM401 1442l781 -1084v1084h250v-1503h-242l-782 1085v-1085h-252
v1503h245z" />
    <glyph glyph-name="Ograve" unicode="&#xd2;" horiz-adv-x="1718" 
d="M807 1911l190 -324h-235l-236 324h281zM96 690q-3 217 96.5 397t276.5 283t391 100q159 2 302 -58t245.5 -164t161 -250t55.5 -308q4 -217 -96.5 -397.5t-278 -283.5t-389.5 -99q-214 -4 -391 99t-276.5 283.5t-96.5 397.5zM1368 690q0 233 -142.5 389t-365.5 156
q-148 0 -265.5 -72t-181 -196t-63.5 -277q0 -232 143 -387.5t367 -155.5q147 0 264 72t180.5 195.5t63.5 275.5z" />
    <glyph glyph-name="Oacute" unicode="&#xd3;" horiz-adv-x="1718" 
d="M1194 1911l-236 -324h-237l192 324h281zM96 690q-3 217 96.5 397t276.5 283t391 100q159 2 302 -58t245.5 -164t161 -250t55.5 -308q4 -217 -96.5 -397.5t-278 -283.5t-389.5 -99q-214 -4 -391 99t-276.5 283.5t-96.5 397.5zM1368 690q0 233 -142.5 389t-365.5 156
q-148 0 -265.5 -72t-181 -196t-63.5 -277q0 -232 143 -387.5t367 -155.5q147 0 264 72t180.5 195.5t63.5 275.5z" />
    <glyph glyph-name="Ocircumflex" unicode="&#xd4;" horiz-adv-x="1718" 
d="M991 1931l238 -344h-223l-146 209l-147 -209h-221l235 344h264zM96 690q-3 217 96.5 397t276.5 283t391 100q159 2 302 -58t245.5 -164t161 -250t55.5 -308q4 -217 -96.5 -397.5t-278 -283.5t-389.5 -99q-214 -4 -391 99t-276.5 283.5t-96.5 397.5zM1368 690
q0 233 -142.5 389t-365.5 156q-148 0 -265.5 -72t-181 -196t-63.5 -277q0 -232 143 -387.5t367 -155.5q147 0 264 72t180.5 195.5t63.5 275.5z" />
    <glyph glyph-name="Otilde" unicode="&#xd5;" horiz-adv-x="1718" 
d="M831 1665q-68 45 -96 45q-30 0 -45.5 -30.5t-15.5 -82.5h-182q0 143 56 225.5t159 82.5q39 0 80 -17.5t102 -56.5q63 -45 94 -45q30 0 45.5 31t15.5 84h183q0 -143 -56 -225.5t-157 -82.5q-67 0 -183 72zM96 690q-3 217 96.5 397t276.5 283t391 100q159 2 302 -58
t245.5 -164t161 -250t55.5 -308q4 -217 -96.5 -397.5t-278 -283.5t-389.5 -99q-214 -4 -391 99t-276.5 283.5t-96.5 397.5zM1368 690q0 233 -142.5 389t-365.5 156q-148 0 -265.5 -72t-181 -196t-63.5 -277q0 -232 143 -387.5t367 -155.5q147 0 264 72t180.5 195.5
t63.5 275.5z" />
    <glyph glyph-name="Odieresis" unicode="&#xd6;" horiz-adv-x="1718" 
d="M522 1726q0 57 39 98.5t96 41.5t96.5 -41.5t39.5 -98.5t-39.5 -97t-96.5 -40t-96 40t-39 97zM926 1726q0 57 39 98.5t96 41.5t96 -41.5t39 -98.5t-39 -97t-96 -40t-96 40t-39 97zM96 690q-3 217 96.5 397t276.5 283t391 100q159 2 302 -58t245.5 -164t161 -250t55.5 -308
q4 -217 -96.5 -397.5t-278 -283.5t-389.5 -99q-214 -4 -391 99t-276.5 283.5t-96.5 397.5zM1368 690q0 233 -142.5 389t-365.5 156q-148 0 -265.5 -72t-181 -196t-63.5 -277q0 -232 143 -387.5t367 -155.5q147 0 264 72t180.5 195.5t63.5 275.5z" />
    <glyph glyph-name="cid131" unicode="&#xd7;" 
d="M512 690l-336 336l152 152l336 -336l335 336l150 -152l-336 -336l336 -336l-150 -149l-335 336l-336 -336l-152 149z" />
    <glyph glyph-name="cid673" unicode="&#xd8;" horiz-adv-x="1718" 
d="M1624 690q4 -217 -96.5 -397.5t-278 -283.5t-389.5 -99q-274 0 -467 151l-143 -151l-133 127l145 153q-166 208 -166 500q-3 217 96.5 397t276.5 283t391 100q266 0 467 -151l141 151l134 -124l-146 -154q81 -99 124.5 -229t43.5 -273zM434 373l725 770q-125 94 -299 94
q-227 0 -369.5 -156t-142.5 -391q0 -178 86 -317zM1370 690q0 179 -86 318l-725 -770q130 -95 301 -95q149 0 266 72t180.5 196.5t63.5 278.5z" />
    <glyph glyph-name="Ugrave" unicode="&#xd9;" horiz-adv-x="1562" 
d="M729 1911l191 -324h-236l-235 324h280zM147 606v836h256v-836q0 -461 379 -461t379 461v836h254v-836q0 -340 -165 -518t-468 -178q-304 0 -469.5 178t-165.5 518z" />
    <glyph glyph-name="Uacute" unicode="&#xda;" horiz-adv-x="1562" 
d="M1116 1911l-235 -324h-236l191 324h280zM147 606v836h256v-836q0 -461 379 -461t379 461v836h254v-836q0 -340 -165 -518t-468 -178q-304 0 -469.5 178t-165.5 518z" />
    <glyph glyph-name="Ucircumflex" unicode="&#xdb;" horiz-adv-x="1562" 
d="M913 1931l238 -344h-221l-148 209l-147 -209h-221l237 344h262zM147 606v836h256v-836q0 -461 379 -461t379 461v836h254v-836q0 -340 -165 -518t-468 -178q-304 0 -469.5 178t-165.5 518z" />
    <glyph glyph-name="Udieresis" unicode="&#xdc;" horiz-adv-x="1562" 
d="M444 1726q0 57 40.5 98.5t97.5 41.5t96 -41.5t39 -98.5t-39 -97t-96 -40t-97.5 40t-40.5 97zM848 1726q0 57 40 98.5t97 41.5t96 -41.5t39 -98.5t-39 -97t-96 -40t-97 40t-40 97zM147 606v836h256v-836q0 -461 379 -461t379 461v836h254v-836q0 -340 -165 -518t-468 -178
q-304 0 -469.5 178t-165.5 518z" />
    <glyph glyph-name="Yacute" unicode="&#xdd;" horiz-adv-x="1490" 
d="M1079 1911l-235 -324h-236l191 324h280zM39 1442h285l424 -727l426 727h278l-580 -967v-536h-254v536z" />
    <glyph glyph-name="cid676" unicode="&#xde;" horiz-adv-x="1392" 
d="M1311 690q0 -229 -170 -369.5t-465 -140.5h-266v-241h-254v1503h254v-240h266q295 0 465 -141t170 -371zM1059 690q0 138 -97 211.5t-286 73.5h-266v-569h266q189 0 286 73t97 211z" />
    <glyph glyph-name="cid768" unicode="&#xdf;" horiz-adv-x="1452" 
d="M506 -16l82 211q109 -68 243 -68q127 0 208 71t81 181q0 133 -99 204.5t-284 71.5h-112v215h94q123 0 196.5 69t73.5 187q0 107 -78 175.5t-206 68.5q-146 0 -228 -75t-82 -210v-1146h-248v1148q0 239 145 369.5t408 130.5q238 0 385.5 -128t147.5 -320
q0 -147 -74 -244.5t-198 -116.5q110 -4 200.5 -50.5t146.5 -137t56 -209.5q0 -206 -149 -338.5t-384 -132.5q-196 0 -325 74z" />
    <glyph glyph-name="agrave" unicode="&#xe0;" horiz-adv-x="1390" 
d="M823 1176h-235l-236 323h281zM995 1030h246v-1091h-246v165q-55 -94 -152 -144t-220 -50q-152 0 -275 75.5t-191.5 207t-68.5 292.5q0 159 68.5 290.5t191.5 207.5t275 76q123 0 220 -50.5t152 -144.5v166zM993 485q0 163 -92 261t-239 98q-149 0 -243.5 -102.5
t-94.5 -256.5t94.5 -257t243.5 -103q147 0 239 98.5t92 261.5z" />
    <glyph glyph-name="aacute" unicode="&#xe1;" horiz-adv-x="1390" 
d="M1020 1499l-236 -323h-237l192 323h281zM995 1030h246v-1091h-246v165q-55 -94 -152 -144t-220 -50q-152 0 -275 75.5t-191.5 207t-68.5 292.5q0 159 68.5 290.5t191.5 207.5t275 76q123 0 220 -50.5t152 -144.5v166zM993 485q0 163 -92 261t-239 98
q-149 0 -243.5 -102.5t-94.5 -256.5t94.5 -257t243.5 -103q147 0 239 98.5t92 261.5z" />
    <glyph glyph-name="acircumflex" unicode="&#xe2;" horiz-adv-x="1390" 
d="M686 1384l-147 -208h-222l236 344h264l238 -344h-224zM995 1030h246v-1091h-246v165q-55 -94 -152 -144t-220 -50q-152 0 -275 75.5t-191.5 207t-68.5 292.5q0 159 68.5 290.5t191.5 207.5t275 76q123 0 220 -50.5t152 -144.5v166zM993 485q0 163 -92 261t-239 98
q-149 0 -243.5 -102.5t-94.5 -256.5t94.5 -257t243.5 -103q147 0 239 98.5t92 261.5z" />
    <glyph glyph-name="atilde" unicode="&#xe3;" horiz-adv-x="1390" 
d="M500 1186h-183q0 143 56 225t159 82q66 0 183 -74q63 -45 94 -45q30 0 45.5 31t15.5 84h183q0 -143 -55.5 -225t-157.5 -82q-68 0 -183 71q-68 45 -96 45q-61 0 -61 -112zM995 1030h246v-1091h-246v165q-55 -94 -152 -144t-220 -50q-152 0 -275 75.5t-191.5 207
t-68.5 292.5q0 159 68.5 290.5t191.5 207.5t275 76q123 0 220 -50.5t152 -144.5v166zM993 485q0 163 -92 261t-239 98q-149 0 -243.5 -102.5t-94.5 -256.5t94.5 -257t243.5 -103q147 0 239 98.5t92 261.5z" />
    <glyph glyph-name="adieresis" unicode="&#xe4;" horiz-adv-x="1390" 
d="M348 1315q0 57 39 98t96 41t96 -41t39 -98t-39 -97t-96 -40t-96 40t-39 97zM752 1315q0 57 39 98t96 41t96 -41t39 -98t-39 -97t-96 -40t-96 40t-39 97zM995 1030h246v-1091h-246v165q-55 -94 -152 -144t-220 -50q-152 0 -275 75.5t-191.5 207t-68.5 292.5
q0 159 68.5 290.5t191.5 207.5t275 76q123 0 220 -50.5t152 -144.5v166zM993 485q0 163 -92 261t-239 98q-149 0 -243.5 -102.5t-94.5 -256.5t94.5 -257t243.5 -103q147 0 239 98.5t92 261.5z" />
    <glyph glyph-name="aring" unicode="&#xe5;" horiz-adv-x="1390" 
d="M418 1397q0 106 76 176q78 72 192 72q115 0 190.5 -71t75.5 -177t-75.5 -177t-190.5 -71q-116 0 -192 70t-76 178zM571 1397q0 -49 32 -80t83 -31t82 30.5t31 80.5t-31 80t-82 30t-83 -30.5t-32 -79.5zM995 1030h246v-1091h-246v165q-55 -94 -152 -144t-220 -50
q-152 0 -275 75.5t-191.5 207t-68.5 292.5q0 159 68.5 290.5t191.5 207.5t275 76q123 0 220 -50.5t152 -144.5v166zM993 485q0 163 -92 261t-239 98q-149 0 -243.5 -102.5t-94.5 -256.5t94.5 -257t243.5 -103q147 0 239 98.5t92 261.5z" />
    <glyph glyph-name="cid757" unicode="&#xe6;" horiz-adv-x="2275" 
d="M2183 395h-905q26 -129 125.5 -202.5t243.5 -73.5q102 0 186.5 40t128.5 109l190 -123q-70 -107 -203.5 -171t-291.5 -64q-301 0 -432 192v-163h-230v165q-55 -94 -152 -144t-220 -50q-152 0 -275 75.5t-191.5 207t-68.5 292.5q0 159 68.5 290.5t191.5 207.5t275 76
q123 0 220 -50.5t152 -144.5v166h230v-162q63 93 165.5 142t233.5 49q247 0 405 -152t158 -393q0 -33 -4 -119zM1278 578h672q-11 126 -100.5 201t-235.5 75q-128 0 -219 -74t-117 -202zM993 485q0 163 -92 261t-239 98q-149 0 -243.5 -102.5t-94.5 -256.5t94.5 -257
t243.5 -103q147 0 239 98.5t92 261.5z" />
    <glyph glyph-name="ccedilla" unicode="&#xe7;" horiz-adv-x="1220" 
d="M948 274l203 -116q-128 -189 -356 -236l-138 -358h-274l149 360q-198 40 -321 194.5t-123 366.5q0 161 75 292.5t208 206.5t297 75q153 0 278.5 -65t204.5 -181l-203 -119q-45 70 -117.5 109t-162.5 39q-151 0 -247.5 -102.5t-96.5 -254.5q0 -154 96.5 -256t247.5 -102
q88 0 162 39t118 108z" />
    <glyph glyph-name="egrave" unicode="&#xe8;" horiz-adv-x="1300" 
d="M788 1176h-235l-236 323h281zM1208 395h-880q26 -128 121.5 -201t232.5 -73q96 0 177.5 39.5t129.5 107.5l191 -123q-69 -107 -204 -171t-294 -64q-170 0 -306 74.5t-212 206t-76 294.5q0 161 72 292.5t201.5 206.5t289.5 75q246 0 404.5 -152.5t158.5 -392.5
q0 -70 -6 -119zM328 578h647q-7 123 -96 198.5t-226 75.5q-124 0 -211.5 -73t-113.5 -201z" />
    <glyph glyph-name="eacute" unicode="&#xe9;" horiz-adv-x="1300" 
d="M985 1499l-235 -323h-238l193 323h280zM1208 395h-880q26 -128 121.5 -201t232.5 -73q96 0 177.5 39.5t129.5 107.5l191 -123q-69 -107 -204 -171t-294 -64q-170 0 -306 74.5t-212 206t-76 294.5q0 161 72 292.5t201.5 206.5t289.5 75q246 0 404.5 -152.5t158.5 -392.5
q0 -70 -6 -119zM328 578h647q-7 123 -96 198.5t-226 75.5q-124 0 -211.5 -73t-113.5 -201z" />
    <glyph glyph-name="ecircumflex" unicode="&#xea;" horiz-adv-x="1300" 
d="M651 1384l-147 -208h-221l235 344h264l238 -344h-223zM1208 395h-880q26 -128 121.5 -201t232.5 -73q96 0 177.5 39.5t129.5 107.5l191 -123q-69 -107 -204 -171t-294 -64q-170 0 -306 74.5t-212 206t-76 294.5q0 161 72 292.5t201.5 206.5t289.5 75q246 0 404.5 -152.5
t158.5 -392.5q0 -70 -6 -119zM328 578h647q-7 123 -96 198.5t-226 75.5q-124 0 -211.5 -73t-113.5 -201z" />
    <glyph glyph-name="edieresis" unicode="&#xeb;" horiz-adv-x="1300" 
d="M313 1315q0 57 39.5 98t96.5 41t96 -41t39 -98t-39 -97t-96 -40t-96.5 40t-39.5 97zM717 1315q0 57 39 98t96 41t96 -41t39 -98t-39 -97t-96 -40t-96 40t-39 97zM1208 395h-880q26 -128 121.5 -201t232.5 -73q96 0 177.5 39.5t129.5 107.5l191 -123q-69 -107 -204 -171
t-294 -64q-170 0 -306 74.5t-212 206t-76 294.5q0 161 72 292.5t201.5 206.5t289.5 75q246 0 404.5 -152.5t158.5 -392.5q0 -70 -6 -119zM328 578h647q-7 123 -96 198.5t-226 75.5q-124 0 -211.5 -73t-113.5 -201z" />
    <glyph glyph-name="igrave" unicode="&#xec;" horiz-adv-x="542" 
d="M254 1499l141 -323h-235l-185 323h279zM395 1030v-1091h-248v1091h248z" />
    <glyph glyph-name="iacute" unicode="&#xed;" horiz-adv-x="542" 
d="M569 1499l-186 -323h-236l142 323h280zM395 1030v-1091h-248v1091h248z" />
    <glyph glyph-name="icircumflex" unicode="&#xee;" horiz-adv-x="542" 
d="M403 1520l238 -344h-221l-148 208l-147 -208h-221l237 344h262zM395 1030v-1091h-248v1091h248z" />
    <glyph glyph-name="idieresis" unicode="&#xef;" horiz-adv-x="542" 
d="M-66 1315q0 58 39.5 98.5t98.5 40.5q57 0 96 -41t39 -98t-39 -97t-96 -40q-59 0 -98.5 39.5t-39.5 97.5zM338 1315q0 57 40 98t97 41t96 -41t39 -98t-39 -97t-96 -40t-97 40t-40 97zM395 1030v-1091h-248v1091h248z" />
    <glyph glyph-name="cid759" unicode="&#xf0;" horiz-adv-x="1329" 
d="M1239 436q0 -226 -163 -376t-410 -150q-249 0 -412.5 150t-163.5 376q0 141 72 257.5t194 181.5t265 65q82 0 127 -25l-144 195l-276 -98l-64 149l240 84l-144 197h285l84 -117l283 100l63 -147l-246 -88l256 -352q82 -110 118 -204.5t36 -197.5zM1001 434q0 131 -94 220
t-241 89q-149 0 -243.5 -89t-94.5 -220t94.5 -220t243.5 -89q147 0 241 89t94 220z" />
    <glyph glyph-name="ntilde" unicode="&#xf1;" horiz-adv-x="1355" 
d="M559 1186h-182q0 143 56 225t159 82q39 0 80 -17.5t102 -56.5q63 -45 94 -45q30 0 46 31t16 84h182q0 -143 -55.5 -225t-157.5 -82q-39 0 -80 16.5t-102 54.5q-68 45 -96 45q-30 0 -46 -30t-16 -82zM1217 551v-612h-248v596q0 309 -271 309q-132 0 -217 -94
q-86 -92 -86 -238v-573h-248v1091h248v-166q49 89 143 142t214 53q218 0 341.5 -132.5t123.5 -375.5z" />
    <glyph glyph-name="ograve" unicode="&#xf2;" horiz-adv-x="1333" 
d="M614 1499l191 -323h-236l-235 323h280zM88 485q0 161 75 292.5t208 206.5t297 75q161 3 295.5 -73t210.5 -209t73 -292q3 -159 -73 -292t-210.5 -209.5t-295.5 -73.5q-165 0 -297.5 74.5t-207.5 206t-75 294.5zM1010 485q0 153 -96 255t-246 102q-151 0 -247.5 -102.5
t-96.5 -254.5q0 -154 96.5 -256t247.5 -102t246.5 102t95.5 256z" />
    <glyph glyph-name="oacute" unicode="&#xf3;" horiz-adv-x="1333" 
d="M1001 1499l-235 -323h-238l193 323h280zM88 485q0 161 75 292.5t208 206.5t297 75q161 3 295.5 -73t210.5 -209t73 -292q3 -159 -73 -292t-210.5 -209.5t-295.5 -73.5q-165 0 -297.5 74.5t-207.5 206t-75 294.5zM1010 485q0 153 -96 255t-246 102q-151 0 -247.5 -102.5
t-96.5 -254.5q0 -154 96.5 -256t247.5 -102t246.5 102t95.5 256z" />
    <glyph glyph-name="ocircumflex" unicode="&#xf4;" horiz-adv-x="1333" 
d="M799 1520l237 -344h-223l-145 208l-148 -208h-221l236 344h264zM88 485q0 161 75 292.5t208 206.5t297 75q161 3 295.5 -73t210.5 -209t73 -292q3 -159 -73 -292t-210.5 -209.5t-295.5 -73.5q-165 0 -297.5 74.5t-207.5 206t-75 294.5zM1010 485q0 153 -96 255t-246 102
q-151 0 -247.5 -102.5t-96.5 -254.5q0 -154 96.5 -256t247.5 -102t246.5 102t95.5 256z" />
    <glyph glyph-name="otilde" unicode="&#xf5;" horiz-adv-x="1333" 
d="M639 1253q-68 45 -96 45q-30 0 -46 -30t-16 -82h-182q0 143 56 225t159 82q39 0 80 -17.5t102 -56.5q63 -45 95 -45q30 0 45.5 31t15.5 84h182q0 -143 -55.5 -225t-157.5 -82q-39 0 -80 16.5t-102 54.5zM88 485q0 161 75 292.5t208 206.5t297 75q161 3 295.5 -73
t210.5 -209t73 -292q3 -159 -73 -292t-210.5 -209.5t-295.5 -73.5q-165 0 -297.5 74.5t-207.5 206t-75 294.5zM1010 485q0 153 -96 255t-246 102q-151 0 -247.5 -102.5t-96.5 -254.5q0 -154 96.5 -256t247.5 -102t246.5 102t95.5 256z" />
    <glyph glyph-name="odieresis" unicode="&#xf6;" horiz-adv-x="1333" 
d="M330 1315q0 57 39 98t96 41t96 -41t39 -98t-39 -97t-96 -40t-96 40t-39 97zM733 1315q0 57 39 98t96 41t96.5 -41t39.5 -98t-39.5 -97t-96.5 -40t-96 40t-39 97zM88 485q0 161 75 292.5t208 206.5t297 75q161 3 295.5 -73t210.5 -209t73 -292q3 -159 -73 -292
t-210.5 -209.5t-295.5 -73.5q-165 0 -297.5 74.5t-207.5 206t-75 294.5zM1010 485q0 153 -96 255t-246 102q-151 0 -247.5 -102.5t-96.5 -254.5q0 -154 96.5 -256t247.5 -102t246.5 102t95.5 256z" />
    <glyph glyph-name="cid132" unicode="&#xf7;" 
d="M496 1120q0 69 48 115.5t120 46.5t118.5 -46.5t46.5 -115.5q0 -68 -48 -115t-117 -47q-72 0 -120 47t-48 115zM1194 797v-211h-1061v211h1061zM496 260q0 69 48 115.5t120 46.5t118.5 -46.5t46.5 -115.5q0 -68 -48 -115t-117 -47q-72 0 -120 47t-48 115z" />
    <glyph glyph-name="cid766" unicode="&#xf8;" horiz-adv-x="1333" 
d="M668 1059q203 0 346 -107l104 107l113 -109l-105 -106q121 -151 121 -359q3 -159 -73 -292t-210.5 -209.5t-295.5 -73.5q-208 0 -349 106l-104 -106l-113 108l105 107q-119 153 -119 360q0 161 75 292.5t208 206.5t297 75zM373 289l487 499q-83 56 -192 56
q-152 0 -249 -102.5t-97 -256.5q0 -113 51 -196zM668 125q151 0 247.5 103t96.5 257q0 115 -51 195l-488 -500q88 -55 195 -55z" />
    <glyph glyph-name="ugrave" unicode="&#xf9;" horiz-adv-x="1355" 
d="M811 1176h-236l-235 323h281zM961 1030h247v-1091h-247v165q-48 -88 -142.5 -141t-214.5 -53q-218 0 -341.5 132.5t-123.5 375.5v612h248v-596q0 -309 270 -309q131 0 217 92q87 96 87 240v573z" />
    <glyph glyph-name="uacute" unicode="&#xfa;" horiz-adv-x="1355" 
d="M1008 1499l-236 -323h-235l190 323h281zM961 1030h247v-1091h-247v165q-48 -88 -142.5 -141t-214.5 -53q-218 0 -341.5 132.5t-123.5 375.5v612h248v-596q0 -309 270 -309q131 0 217 92q87 96 87 240v573z" />
    <glyph glyph-name="ucircumflex" unicode="&#xfb;" horiz-adv-x="1355" 
d="M674 1384l-148 -208h-221l238 344h262l237 -344h-221zM961 1030h247v-1091h-247v165q-48 -88 -142.5 -141t-214.5 -53q-218 0 -341.5 132.5t-123.5 375.5v612h248v-596q0 -309 270 -309q131 0 217 92q87 96 87 240v573z" />
    <glyph glyph-name="udieresis" unicode="&#xfc;" horiz-adv-x="1355" 
d="M336 1315q0 57 40 98t97 41t96 -41t39 -98t-39 -97t-96 -40t-97 40t-40 97zM739 1315q0 57 40.5 98t97.5 41t96 -41t39 -98t-39 -97t-96 -40t-97.5 40t-40.5 97zM961 1030h247v-1091h-247v165q-48 -88 -142.5 -141t-214.5 -53q-218 0 -341.5 132.5t-123.5 375.5v612h248
v-596q0 -309 270 -309q131 0 217 92q87 96 87 240v573z" />
    <glyph glyph-name="yacute" unicode="&#xfd;" horiz-adv-x="1265" 
d="M967 1499l-236 -323h-235l190 323h281zM977 1030h260l-483 -1116q-101 -239 -217 -340.5t-269 -101.5q-132 0 -237 55l59 201q69 -37 162 -37q88 0 149 50t111 171l12 27l-493 1091h266l348 -799z" />
    <glyph glyph-name="cid769" unicode="&#xfe;" horiz-adv-x="1390" 
d="M1303 485q0 -161 -68.5 -292.5t-191.5 -207t-275 -75.5q-124 0 -221 49.5t-152 142.5v-602h-248v1968h248v-602q55 93 152 143t221 50q152 0 275 -76t191.5 -207.5t68.5 -290.5zM1065 485q0 154 -94 256.5t-242 102.5t-241 -98t-93 -261q0 -162 94.5 -261t239.5 -99
q148 0 242 103t94 257z" />
    <glyph glyph-name="ydieresis" unicode="&#xff;" horiz-adv-x="1265" 
d="M295 1315q0 57 39 98t96 41t97 -41t40 -98t-40 -97t-97 -40t-96 40t-39 97zM698 1315q0 57 39.5 98t96.5 41t97 -41t40 -98t-40 -97t-97 -40t-96.5 40t-39.5 97zM977 1030h260l-483 -1116q-101 -239 -217 -340.5t-269 -101.5q-132 0 -237 55l59 201q69 -37 162 -37
q88 0 149 50t111 171l12 27l-493 1091h266l348 -799z" />
    <glyph glyph-name="dotlessi" unicode="&#x131;" horiz-adv-x="542" 
d="M395 1030v-1091h-248v1091h248z" />
    <glyph glyph-name="cid674" unicode="&#x152;" horiz-adv-x="2234" 
d="M1329 166h815v-227h-1069q-113 -29 -215 -29q-214 -4 -391 99t-276.5 283.5t-96.5 397.5q-3 217 96.5 397t276.5 283t391 100q106 0 215 -28h1049v-228h-795v-409h711v-225h-711v-414zM1075 195v993q-100 47 -215 47q-148 0 -265.5 -72t-181 -196t-63.5 -277
q0 -232 143 -387.5t367 -155.5q113 0 215 48z" />
    <glyph glyph-name="cid767" unicode="&#x153;" horiz-adv-x="2228" 
d="M2136 395h-881q26 -128 121.5 -201t233.5 -73q97 0 179 39.5t126 107.5l190 -123q-70 -107 -203.5 -171t-291.5 -64q-151 0 -274 57t-206 162q-79 -103 -199.5 -161t-262.5 -58q-165 0 -297.5 74.5t-207.5 206t-75 294.5q0 161 75 292.5t208 206.5t297 75
q141 0 260.5 -56t199.5 -159q75 103 192 159t257 56q247 0 405 -152t158 -393q0 -33 -4 -119zM1255 578h648q-8 123 -96.5 198.5t-227.5 75.5q-123 0 -210.5 -73t-113.5 -201zM1010 485q0 153 -96 255t-246 102q-151 0 -247.5 -102.5t-96.5 -254.5q0 -154 96.5 -256
t247.5 -102t246.5 102t95.5 256z" />
    <glyph glyph-name="cid204" unicode="&#x2da;" horiz-adv-x="655" 
d="M61 1397q0 106 76 176q78 72 193 72t190.5 -71t75.5 -177t-75.5 -177t-190.5 -71q-117 0 -193 70t-76 178zM442 1397q0 50 -30.5 80t-81.5 30t-83 -30.5t-32 -79.5t32 -80t83 -31t81.5 30.5t30.5 80.5z" />
    <glyph glyph-name="cid200" unicode="&#x2dc;" horiz-adv-x="858" 
d="M399 1255q-73 43 -94 43q-61 0 -61 -112h-183q0 143 55.5 225t157.5 82q38 0 76 -16.5t107 -57.5q68 -45 96 -45q30 0 45.5 31t15.5 84h183q0 -143 -56 -225t-159 -82q-68 0 -183 73z" />
    <glyph glyph-name="cid110" unicode="&#x2014;" horiz-adv-x="1843" 
d="M1712 801v-221h-1579v221h1579z" />
    <glyph glyph-name="cid110" unicode="&#x2015;" horiz-adv-x="1843" 
d="M1712 801v-221h-1579v221h1579z" />
    <glyph glyph-name="uni2016" unicode="&#x2016;" horiz-adv-x="1003" 
d="M383 1442v-1688h-221v1688h221zM844 1442v-1688h-223v1688h223z" />
    <glyph glyph-name="cid114" unicode="&#x2018;" horiz-adv-x="524" 
d="M436 1606l-76 -496h-268l139 496h205z" />
    <glyph glyph-name="cid115" unicode="&#x2019;" horiz-adv-x="524" 
d="M432 1606l-139 -496h-203l76 496h266z" />
    <glyph glyph-name="cid18379" unicode="&#x201a;" horiz-adv-x="524" 
d="M432 211l-139 -498h-203l76 498h266z" />
    <glyph glyph-name="cid116" unicode="&#x201c;" horiz-adv-x="892" 
d="M432 1606l-76 -496h-264l139 496h201zM805 1606l-76 -496h-266l139 496h203z" />
    <glyph glyph-name="cid117" unicode="&#x201d;" horiz-adv-x="892" 
d="M430 1606l-139 -496h-201l76 496h264zM801 1606l-139 -496h-201l76 496h264z" />
    <glyph glyph-name="cid18380" unicode="&#x201e;" horiz-adv-x="892" 
d="M430 211l-139 -498h-201l76 498h264zM801 211l-139 -498h-201l76 498h264z" />
    <glyph glyph-name="cid245" unicode="&#x2020;" horiz-adv-x="1079" 
d="M1020 1090v-195h-377v-1141h-211v1141h-371v195h371v454h211v-454h377z" />
    <glyph glyph-name="cid246" unicode="&#x2021;" horiz-adv-x="1079" 
d="M1020 895h-377v-489h377v-197h-377v-455h-211v455h-371v197h371v489h-371v195h371v454h211v-454h377v-195z" />
    <glyph glyph-name="cid8607" unicode="&#x2022;" horiz-adv-x="915" 
d="M174 690q0 119 81 197t204 78q119 0 203 -78q81 -75 81 -197q0 -118 -81 -196q-84 -78 -203 -78q-123 0 -204 78.5t-81 195.5z" />
    <glyph glyph-name="cid105" unicode="&#x2025;" horiz-adv-x="1050" 
d="M96 690q0 69 47 115.5t119 46.5t119 -46.5t47 -115.5q0 -68 -47.5 -115t-118.5 -47t-118.5 47t-47.5 115zM623 690q0 69 46.5 115.5t118.5 46.5t119 -46.5t47 -115.5q0 -68 -47.5 -115t-118.5 -47t-118 47t-47 115z" />
    <glyph glyph-name="cid106" unicode="&#x2026;" horiz-adv-x="1576" 
d="M96 690q0 69 47 115.5t119 46.5t119 -46.5t47 -115.5q0 -68 -47.5 -115t-118.5 -47t-118.5 47t-47.5 115zM623 690q0 69 46.5 115.5t118.5 46.5t119 -46.5t47 -115.5q0 -68 -47.5 -115t-118.5 -47t-118 47t-47 115zM1147 690q0 69 48 115.5t120 46.5t119 -46.5t47 -115.5
q0 -67 -48.5 -114.5t-117.5 -47.5q-72 0 -120 47t-48 115z" />
    <glyph glyph-name="cid216" unicode="&#x2030;" horiz-adv-x="2830" 
d="M76 1075q0 169 111 282t278 113t278 -113t111 -282t-111 -282t-278 -113t-278 113t-111 282zM1581 1442l-1010 -1503h-213l1012 1503h211zM668 1075q0 95 -56.5 157t-146.5 62t-147.5 -62t-57.5 -157q0 -93 57.5 -156t147.5 -63q87 0 145 63t58 156zM1087 305
q0 169 111.5 282t278.5 113t278 -113t111 -282t-111 -282t-278 -113t-278.5 113t-111.5 282zM1976 305q0 169 111 282t278 113t278.5 -113t111.5 -282t-111.5 -282t-278.5 -113t-278 113t-111 282zM1679 305q0 95 -56 157t-146 62t-147.5 -62t-57.5 -157q0 -93 57.5 -156
t147.5 -63q87 0 144.5 63t57.5 156zM2570 305q0 95 -57.5 157t-147.5 62t-146 -62t-56 -157q0 -93 57.5 -156t144.5 -63q90 0 147.5 63t57.5 156z" />
    <glyph glyph-name="cid139" unicode="&#x2032;" horiz-adv-x="524" 
d="M432 1606l-139 -496h-203l76 496h266z" />
    <glyph glyph-name="cid140" unicode="&#x2033;" horiz-adv-x="892" 
d="M430 1606l-139 -496h-201l76 496h264zM801 1606l-139 -496h-201l76 496h264z" />
    <glyph glyph-name="cid8612" unicode="&#x2039;" horiz-adv-x="874" 
d="M471 903h272l-360 -418l360 -419h-272l-358 419z" />
    <glyph glyph-name="cid8613" unicode="&#x203a;" horiz-adv-x="874" 
d="M133 903h270l361 -418l-361 -419h-270l359 419z" />
    <glyph glyph-name="uni203B" unicode="&#x203b;" horiz-adv-x="1843" 
d="M770 1262q0 66 44.5 110.5t107.5 44.5q66 0 109.5 -44.5t43.5 -110.5t-43.5 -110t-109.5 -44t-109 44t-43 110zM848 692l-586 588l74 72l586 -588l587 588l72 -72l-588 -588l588 -586l-72 -73l-587 585l-588 -585l-72 73zM193 690q0 66 44 109t111 43q68 0 112 -43
t44 -109q0 -64 -44.5 -107.5t-111.5 -43.5t-111 43.5t-44 107.5zM1339 690q0 66 44 109t112 43t112 -43t44 -109q0 -64 -44.5 -107.5t-111.5 -43.5t-111.5 43.5t-44.5 107.5zM770 119q0 66 43 109.5t109 43.5t109.5 -43.5t43.5 -109.5t-43.5 -110t-109.5 -44t-109 44
t-43 110z" />
    <glyph glyph-name="uni203E" unicode="&#x203e;" horiz-adv-x="1843" 
d="M1843 1638v-198h-1843v198h1843z" />
    <glyph glyph-name="uni2074" unicode="&#x2074;" horiz-adv-x="796" 
d="M31 971v149l430 514h192v-506h119v-157h-119v-166h-182v166h-440zM471 1417l-244 -289h244v289z" />
    <glyph glyph-name="Euro" unicode="&#x20ac;" horiz-adv-x="1722" 
d="M1413 369l213 -121q-100 -157 -267 -247.5t-372 -90.5q-262 0 -460 146.5t-269 387.5h-178v177h145q-2 14 -2 69q0 58 2 72h-145v174h178q71 241 269 387.5t460 146.5q206 0 373 -90t266 -247l-213 -121q-70 107 -180.5 167t-245.5 60q-160 0 -282 -81t-183 -222h631
v-174h-676q-4 -62 -4 -72q0 -7 4 -69h676v-177h-631q61 -141 183 -222t282 -81q135 0 245.5 60.5t180.5 167.5z" />
    <glyph glyph-name="cid260" unicode="&#x2122;" horiz-adv-x="1472" 
d="M59 1288v154h525v-154h-181v-479h-161v479h-183zM817 1442l191 -334l190 334h148v-633h-150v369l-143 -254h-92l-146 258v-373h-147v633h149z" />
    <glyph glyph-name="uni2153" horiz-adv-x="2019" 
d="M346 809v455l-209 -62l-57 158l293 94h168v-645h213v-170h-670v170h262zM1638 1442l-1011 -1503h-211l1009 1503h213zM1257 78l175 86q47 -90 174 -90q69 0 109 27.5t40 74.5q0 54 -39 77t-127 23h-69l-74 125l223 172h-366v168h614v-157l-246 -189h31q110 0 179 -60
t69 -159q0 -117 -96 -191.5t-248 -74.5q-117 0 -211.5 46t-137.5 122z" />
    <glyph glyph-name="uni2154" horiz-adv-x="1996" 
d="M494 1212q0 42 -33.5 67.5t-89.5 25.5q-48 0 -89 -23t-65 -61l-166 82q42 76 128.5 121.5t197.5 45.5q137 0 224 -69t87 -178q0 -72 -38.5 -133t-131.5 -136l-172 -147h383v-168h-651v156l293 252q68 58 95.5 94t27.5 71zM1616 1442l-1012 -1503h-211l1010 1503h213z
M1235 78l174 86q47 -90 174 -90q69 0 109.5 27.5t40.5 74.5q0 54 -39 77t-127 23h-70l-74 125l224 172h-367v168h614v-157l-245 -189h30q110 0 179 -60t69 -159q0 -117 -96 -191.5t-248 -74.5q-117 0 -211 46t-137 122z" />
    <glyph glyph-name="cid753" horiz-adv-x="1961" 
d="M346 809v455l-209 -62l-57 158l293 94h168v-645h213v-170h-670v170h262zM1638 1442l-1011 -1503h-211l1009 1503h213zM1214 152q0 67 45.5 120.5t116.5 77.5q-61 25 -95 71.5t-34 108.5q0 99 89.5 163.5t226.5 64.5q139 0 228 -64t89 -164q0 -62 -34 -108.5t-95 -71.5
q71 -24 116.5 -77.5t45.5 -120.5q0 -106 -98 -174t-252 -68q-149 0 -250 67q-99 67 -99 175zM1704 516q0 43 -38 69.5t-103 26.5q-63 0 -101.5 -26.5t-38.5 -69.5t38.5 -69.5t101.5 -26.5q65 0 103 26.5t38 69.5zM1733 162q0 47 -47.5 76.5t-122.5 29.5t-121.5 -29.5
t-46.5 -76.5t46.5 -77t121.5 -30t122.5 30t47.5 77z" />
    <glyph glyph-name="cid754" horiz-adv-x="1859" 
d="M35 791l174 86q48 -91 174 -91q69 0 109 28t40 75q0 54 -38.5 77t-126.5 23h-70l-74 125l223 172h-366v168h614v-158l-245 -188h30q110 0 179 -60t69 -159q0 -117 -96 -191.5t-248 -74.5q-117 0 -211 46t-137 122zM1536 1442l-1012 -1503h-211l1010 1503h213zM1110 152
q0 67 45.5 120.5t116.5 77.5q-59 26 -94 72.5t-35 107.5q0 100 89 164t228 64t228.5 -64t89.5 -164q0 -61 -35 -107.5t-94 -72.5q71 -24 116 -77.5t45 -120.5q0 -109 -100 -175q-98 -67 -250 -67q-151 0 -252 67q-98 67 -98 175zM1602 516q0 43 -38.5 69.5t-103.5 26.5
t-103 -26.5t-38 -69.5t38 -69.5t103 -26.5t103.5 26.5t38.5 69.5zM1628 162q0 47 -46.5 76.5t-121.5 29.5t-121.5 -29.5t-46.5 -76.5t46.5 -77t121.5 -30t121.5 30t46.5 77z" />
    <glyph glyph-name="cid755" horiz-adv-x="1859" 
d="M35 791l174 86q54 -91 174 -91q69 0 109 29t40 80q0 57 -42 81.5t-142 24.5h-248l27 453h569v-168h-393l-10 -131h94q161 0 251.5 -69t90.5 -191q0 -121 -98 -197q-93 -75 -248 -75q-117 0 -210 46t-138 122zM1536 1442l-1012 -1503h-211l1010 1503h213zM1110 152
q0 67 45.5 120.5t116.5 77.5q-59 26 -94 72.5t-35 107.5q0 100 89 164t228 64t228.5 -64t89.5 -164q0 -61 -35 -107.5t-94 -72.5q71 -24 116 -77.5t45 -120.5q0 -109 -100 -175q-98 -67 -250 -67q-151 0 -252 67q-98 67 -98 175zM1602 516q0 43 -38.5 69.5t-103.5 26.5
t-103 -26.5t-38 -69.5t38 -69.5t103 -26.5t103.5 26.5t38.5 69.5zM1628 162q0 47 -46.5 76.5t-121.5 29.5t-121.5 -29.5t-46.5 -76.5t46.5 -77t121.5 -30t121.5 30t46.5 77z" />
    <glyph glyph-name="cid756" horiz-adv-x="1730" 
d="M55 1280v174h656v-168l-342 -647h-215l340 641h-439zM1409 1442l-1012 -1503h-211l1010 1503h213zM983 152q0 67 45.5 120.5t116.5 77.5q-61 25 -95 71.5t-34 108.5q0 100 89 164t226 64q139 0 228.5 -64t89.5 -164q0 -62 -34 -108.5t-95 -71.5q71 -24 116 -77.5
t45 -120.5q0 -106 -98 -174t-252 -68q-149 0 -250 67q-98 67 -98 175zM1473 516q0 43 -38.5 69.5t-103.5 26.5q-63 0 -101 -26.5t-38 -69.5t38 -69.5t101 -26.5q65 0 103.5 26.5t38.5 69.5zM1501 162q0 47 -47.5 76.5t-122.5 29.5t-121.5 -29.5t-46.5 -76.5t46.5 -77
t121.5 -30t122.5 30t47.5 77z" />
    <glyph glyph-name="arrowup" unicode="&#x2191;" horiz-adv-x="1740" 
d="M748 1108q-15 -19 -101 -94l-393 -336l-150 184l766 633l768 -633l-151 -184l-393 336q-58 51 -101 94q4 -110 4 -203v-1020h-252v1020q0 163 3 203z" />
    <glyph glyph-name="arrowdown" unicode="&#x2193;" horiz-adv-x="1740" 
d="M254 702l393 -335q80 -71 101 -95q-3 41 -3 203v1020h252v-1020q0 -93 -4 -203q25 29 101 95l393 335l151 -182l-768 -635l-766 635z" />
    <glyph glyph-name="cid14.locl" horiz-adv-x="1017" 
d="M887 596v-221h-754v221h754z" />
    <glyph glyph-name="uni00AD.locl" 
d="M1194 596v-221h-1061v221h1061z" />
    <glyph glyph-name="cid110.locl" horiz-adv-x="1843" 
d="M1712 596v-221h-1579v221h1579z" />
    <glyph glyph-name="cid27.locl" horiz-adv-x="524" 
d="M96 897q0 68 47 114t119 46t119 -46t47 -114q0 -69 -47 -115.5t-119 -46.5t-119 46.5t-47 115.5zM96 74q0 68 47 113.5t119 45.5t119 -45.5t47 -113.5q0 -69 -47 -115.5t-119 -46.5t-119 46.5t-47 115.5z" />
    <glyph glyph-name="cid28.locl" horiz-adv-x="524" 
d="M96 897q0 68 47 114t119 46t119 -46t47 -114q0 -69 -47 -115.5t-119 -46.5t-119 46.5t-47 115.5zM432 211l-139 -498h-203l76 498h266z" />
    <glyph glyph-name="cid8607.locl" horiz-adv-x="915" 
d="M174 485q0 119 81 197t204 78q119 0 203 -78q81 -75 81 -197q0 -120 -81 -198q-84 -78 -203 -78q-121 0 -205 78q-80 80 -80 198z" />
    </font>
</defs>
</svg>
